<svg width="156" height="83" viewBox="0 0 156 83" fill="none" xmlns="http://www.w3.org/2000/svg">
<path opacity="0.1" fill-rule="evenodd" clip-rule="evenodd" d="M145.12 5.26073C146.098 7.98479 149.137 14.0084 151.873 18.6479C157.056 27.4325 156.648 30.9659 150.612 29.5679C147.873 28.9335 147.227 29.3293 147.77 31.3073C150.853 42.5373 150.971 46.4567 148.544 57.1739C146.365 66.8004 145.014 69.7096 140.968 73.4923C130.522 83.2562 116.544 84.7002 87.7588 78.9882C72.323 75.9256 65.163 73.8824 56.6224 70.0986C49.1433 66.7855 39.9918 63.9947 28.5268 61.5297C10.4226 57.6395 0.208848 53.423 0.966226 50.1529C1.34627 48.512 3.01164 48.6991 10.7576 51.252C22.3001 55.057 23.8798 55.5009 29.57 56.5503L34.1278 57.3894L31.0221 51.5326C24.6406 39.4975 36.1747 29.8512 48.5062 36.9104C54.2433 40.1941 55.0369 53.4011 49.7887 58.2355C47.8652 60.008 48.5915 60.6968 55.8774 64.0064C66.3486 68.7633 101.313 76.816 111.83 76.8927C122.782 76.9741 131.571 73.7983 137.089 67.7714C141.002 63.495 142.045 60.8391 143.305 51.9368C144.138 46.0552 144.216 38.1726 143.478 34.423C142.182 27.8428 141.907 27.5517 135.576 26.0854L129.018 24.5666L131.999 16.6946C138.607 -0.756182 141.919 -3.64289 145.12 5.26073ZM37.535 42.2332C35.6032 44.2901 35.4345 45.9539 36.7857 49.5946C38.673 54.6774 42.1726 56.4496 44.5497 53.5259C50.3931 46.34 43.7386 35.6267 37.535 42.2332Z" fill="black"/>
</svg>
