<svg width="282" height="441" viewBox="0 0 282 441" fill="none" xmlns="http://www.w3.org/2000/svg">
<path fill-rule="evenodd" clip-rule="evenodd" d="M45.895 299.403C69.4863 303.398 96.7899 281.547 122.275 238.273L134.458 217.588L156.582 229.507C207.728 257.057 272.895 373.733 270.094 423.397C268.648 449.079 274.406 443.527 279.636 421.593C292.114 369.254 225.695 256.599 159.637 216.047L142.858 205.748L151.032 187.354C163.05 160.311 179.349 104.334 181.289 83.4469C182.899 66.1048 183.468 65.1592 193.368 63.3788C199.08 62.351 203.36 59.428 202.882 56.8831C201.199 47.9729 156.989 -1.01088 152.062 0.575304C147.093 2.17499 142.715 59.8189 147.119 65.6402C148.396 67.3295 153.646 68.3238 158.791 67.8558C163.933 67.3827 168.717 68.2824 169.423 69.8506C173.027 77.8575 159.062 128.483 143.633 163.363C126.512 202.062 125.995 202.769 117.683 199.164C106.568 194.341 75.8191 193.462 54.4579 197.359C29.0006 202.004 13.8233 212.827 5.03119 232.611C-5.68731 256.729 1.1433 275.342 27.3977 293.568C30.2326 295.535 38.5567 298.161 45.895 299.403ZM17.8891 263.6C6.41701 238.112 24.429 215.65 61.8048 208.831C79.2132 205.654 117.758 208.638 119.87 213.324C121.73 217.464 90.0186 263.6 78.2432 273.88C62.2954 287.802 51.7671 290.409 37.3498 284.002C28.155 279.915 22.6219 274.115 17.8891 263.6Z" fill="#C19EE5"/>
</svg>
