<svg width="120" height="207" viewBox="0 0 120 207" fill="none" xmlns="http://www.w3.org/2000/svg">
<path fill-rule="evenodd" clip-rule="evenodd" d="M102.078 51.6218C91.0624 48.5908 75.4968 59.1288 58.5335 81.1032L50.4245 91.6073L40.9639 84.4286C19.093 67.835 8.85055 39.02 15.4934 12.7787C18.9273 -0.791366 16.4139 -4.53366 11.5441 6.9016C-0.0764818 34.1884 10.331 67.3841 38.0504 91.4516L45.0912 97.5645L39.17 107.008C30.4643 120.891 16.6042 149.961 13.4408 160.967C10.8146 170.106 10.4382 170.586 5.44783 171.148C2.5682 171.472 0.181691 172.858 0.143012 174.226C0.0109159 179.019 16.2379 206.716 18.7958 206.065C21.3755 205.408 29.6324 174.994 28.116 171.735C27.6766 170.789 25.2364 170.059 22.6918 170.109C20.1477 170.161 17.9235 169.499 17.748 168.639C16.8524 164.252 29.0113 137.932 40.2049 120.022C52.6259 100.152 52.9517 99.7964 56.5986 102.03C61.4757 105.019 76.2935 106.673 87.067 105.431C99.9065 103.95 108.418 98.7951 114.787 88.6384C122.551 76.2562 121.219 66.1172 110.427 55.4329C109.261 54.2794 105.504 52.5646 102.078 51.6218ZM111.849 71.6998C114.7 85.6661 103.575 96.8872 84.7248 99.0611C75.9449 100.074 57.5707 97.0009 57.045 94.433C56.5834 92.1646 76.8708 68.9123 83.675 63.9134C92.89 57.1434 98.273 56.167 104.583 60.1235C108.607 62.6468 110.673 65.9381 111.849 71.6998Z" fill="#DBDBDB" fill-opacity="0.5"/>
</svg>
