<svg width="175" height="300" viewBox="0 0 175 300" fill="none" xmlns="http://www.w3.org/2000/svg">
<path opacity="0.4" fill-rule="evenodd" clip-rule="evenodd" d="M146.712 80.4967C129.915 75.4376 107.074 89.7775 82.814 120.615L71.2172 135.355L56.515 124.376C22.5269 98.998 5.34024 56.6015 13.7765 18.9554C18.137 -0.512536 14.1204 -6.09007 7.46525 10.196C-8.41556 49.0578 9.28422 97.8158 52.5444 134.383L63.5325 143.671L55.1714 157.005C42.8784 176.609 23.7273 217.921 19.6201 233.688C16.2103 246.78 15.6716 247.453 8.17864 247.967C3.85497 248.264 0.339053 250.128 0.363275 252.11C0.453144 259.051 26.5986 300.188 30.4173 299.398C34.2686 298.601 44.8874 255.002 42.4038 250.186C41.6838 248.788 37.9593 247.582 34.1244 247.5C30.2904 247.423 26.8957 246.328 26.5793 245.072C24.9637 238.657 41.7149 201.229 57.5174 175.937C75.0529 147.876 75.5228 147.381 81.1582 150.84C88.6943 155.467 111.143 158.76 127.318 157.609C146.594 156.236 159.121 149.275 168.114 134.933C179.077 117.449 176.457 102.668 159.534 86.526C157.707 84.7834 151.937 82.0705 146.712 80.4967ZM162.661 110.197C167.804 130.619 151.701 146.217 123.401 148.232C110.219 149.17 82.3209 143.606 81.3731 139.852C80.54 136.535 109.736 104.045 119.697 97.2081C133.187 87.9481 141.247 86.8573 151.003 92.9744C157.225 96.8757 160.539 101.772 162.661 110.197Z" fill="#EBB1FF"/>
</svg>
