<svg width="178" height="95" viewBox="0 0 178 95" fill="none" xmlns="http://www.w3.org/2000/svg">
<path opacity="0.1" fill-rule="evenodd" clip-rule="evenodd" d="M165.242 6.54752C166.358 9.65387 169.823 16.5228 172.943 21.8134C178.853 31.8309 178.388 35.86 171.506 34.2659C168.382 33.5425 167.646 33.9938 168.265 36.2493C171.78 49.0553 171.914 53.5248 169.148 65.7461C166.663 76.7235 165.122 80.041 160.509 84.3545C148.596 95.4886 132.657 97.1352 99.8317 90.6217C82.2297 87.1293 74.0649 84.7993 64.3257 80.4846C55.797 76.7065 45.3612 73.524 32.2872 70.7131C11.6424 66.2769 -0.0047529 61.4688 0.858914 57.7397C1.29229 55.8685 3.19136 56.0818 12.0244 58.9931C25.1868 63.332 26.9881 63.8382 33.4768 65.0349L38.6743 65.9918L35.1328 59.3131C27.8557 45.5889 41.0084 34.5889 55.0705 42.6388C61.6127 46.3833 62.5176 61.4437 56.533 66.9566C54.3395 68.9779 55.1677 69.7633 63.4762 73.5373C75.4169 78.9618 115.288 88.1446 127.281 88.2321C139.769 88.3249 149.793 84.7035 156.084 77.8307C160.547 72.9542 161.736 69.9256 163.173 59.774C164.123 53.0669 164.212 44.0781 163.37 39.8024C161.892 32.2987 161.579 31.9668 154.359 30.2947L146.881 28.5627L150.281 19.586C157.816 -0.313784 161.593 -3.60561 165.242 6.54752ZM42.5596 48.7085C40.3568 51.0542 40.1644 52.9515 41.7052 57.1031C43.8573 62.8991 47.848 64.9201 50.5587 61.586C57.2222 53.3918 49.6339 41.175 42.5596 48.7085Z" fill="black"/>
</svg>
