<svg width="206" height="110" viewBox="0 0 206 110" fill="none" xmlns="http://www.w3.org/2000/svg">
<path opacity="0.1" fill-rule="evenodd" clip-rule="evenodd" d="M191.993 7.15308C193.291 10.7663 197.322 18.7562 200.951 24.9102C207.825 36.5624 207.285 41.2491 199.279 39.3949C195.645 38.5533 194.789 39.0783 195.509 41.702C199.598 56.5978 199.754 61.7966 196.536 76.0123C193.646 88.7812 191.853 92.64 186.487 97.6575C172.63 110.609 154.09 112.524 115.908 104.947C95.4336 100.885 85.9364 98.1748 74.6078 93.156C64.6874 88.7613 52.5485 85.0595 37.341 81.7899C13.3271 76.6298 -0.220764 71.037 0.783845 66.6994C1.28795 64.5228 3.49693 64.771 13.7714 68.1573C29.0818 73.2043 31.1771 73.7931 38.7247 75.185L44.7704 76.2981L40.6509 68.5295C32.1863 52.5657 47.4854 39.7706 63.8423 49.1341C71.4521 53.4897 72.5047 71.0079 65.5435 77.4204C62.992 79.7715 63.9554 80.6851 73.6197 85.075C87.509 91.3847 133.887 102.066 147.837 102.168C162.363 102.276 174.022 98.0634 181.341 90.069C186.532 84.3968 187.915 80.8739 189.586 69.0657C190.691 61.264 190.795 50.8083 189.815 45.8348C188.096 37.1066 187.731 36.7205 179.334 34.7756L170.635 32.7609L174.59 22.3193C183.355 -0.827931 187.748 -4.65695 191.993 7.15308ZM49.2897 56.1944C46.7274 58.9228 46.5036 61.1298 48.2959 65.9589C50.7992 72.7008 55.4412 75.0515 58.5942 71.1734C66.3451 61.6419 57.5184 47.4314 49.2897 56.1944Z" fill="black"/>
</svg>
