<svg width="245" height="451" viewBox="0 0 245 451" fill="none" xmlns="http://www.w3.org/2000/svg">
<path fill-rule="evenodd" clip-rule="evenodd" d="M35.8491 258.009C58.0145 267.858 89.295 254.056 123.356 219.396L139.637 202.827L158.687 219.844C202.726 259.177 241.498 386.942 228.208 433.499C221.339 457.575 228.136 453.766 237.9 434.227C261.199 387.604 220.351 263.345 164.528 207.814L150.349 193.71L162.233 178.296C179.706 155.634 207.504 106.527 213.837 87.1423C219.094 71.0471 219.85 70.2928 229.886 71.1354C235.678 71.6212 240.474 69.9357 240.548 67.3906C240.801 58.4777 208.084 0.519429 202.941 0.766604C197.753 1.01589 181.229 54.7646 184.288 61.4347C185.175 63.37 190.085 65.662 195.204 66.5351C200.321 67.4028 204.797 69.4853 205.152 71.159C206.966 79.7043 182.581 124.315 160.115 153.563C135.186 186.012 134.531 186.553 127.189 180.991C117.371 173.551 87.561 164.834 65.8939 163.068C40.0717 160.965 22.965 167.377 10.1826 183.956C-5.40061 204.167 -2.69343 223.635 19.0448 247.713C21.392 250.312 28.9545 254.945 35.8491 258.009ZM16.1388 216.75C10.3651 189.548 32.7112 172.783 70.6226 175.871C88.2804 177.309 125.248 190.028 126.313 195.03C127.247 199.448 86.5042 235.237 72.8317 242.004C54.3146 251.169 43.4896 250.952 30.7868 241.158C22.6855 234.912 18.5207 227.972 16.1388 216.75Z" fill="#C19EE5"/>
</svg>
