<svg width="69" height="118" viewBox="0 0 69 118" fill="none" xmlns="http://www.w3.org/2000/svg">
<path opacity="0.4" fill-rule="evenodd" clip-rule="evenodd" d="M57.5776 31.8671C51.044 29.8993 42.1593 35.4772 32.7229 47.4721L28.212 53.2058L22.4932 48.9352C9.27269 39.0637 2.58749 22.5725 5.86898 7.92909C7.56514 0.356538 6.00274 -1.81298 3.41407 4.5219C-2.76318 19.6382 4.1216 38.6038 20.9487 52.8276L25.2229 56.4403L21.9706 61.627C17.1889 69.2527 9.73962 85.3217 8.14199 91.4549C6.81566 96.5473 6.60613 96.809 3.69155 97.0089C2.00976 97.1244 0.64215 97.8497 0.651571 98.6207C0.686529 101.32 10.8565 117.322 12.3419 117.014C13.8399 116.705 17.9704 99.7455 17.0043 97.8721C16.7243 97.3285 15.2755 96.8593 13.7838 96.8275C12.2925 96.7973 10.972 96.3716 10.849 95.8829C10.2206 93.3875 16.7363 78.8291 22.8831 68.9912C29.704 58.0762 29.8868 57.8835 32.0788 59.229C35.0102 61.0288 43.7423 62.3096 50.0337 61.862C57.5316 61.3281 62.4043 58.6203 65.9023 53.0416C70.1669 46.2407 69.1476 40.4913 62.5652 34.2124C61.8544 33.5346 59.6099 32.4793 57.5776 31.8671ZM63.7813 43.4198C65.7818 51.3633 59.5184 57.4307 48.5102 58.2144C43.3829 58.5794 32.5311 56.4153 32.1624 54.9548C31.8384 53.6646 43.1949 41.027 47.0695 38.3675C52.3169 34.7656 55.4521 34.3413 59.2467 36.7207C61.6668 38.2382 62.9561 40.1428 63.7813 43.4198Z" fill="#EBB1FF"/>
</svg>
