<svg width="247" height="139" viewBox="0 0 247 139" fill="none" xmlns="http://www.w3.org/2000/svg">
<path opacity="0.1" fill-rule="evenodd" clip-rule="evenodd" d="M228.603 8.95079C230.247 13.5295 235.355 23.6542 239.954 31.4525C248.666 46.2181 247.98 52.1571 237.835 49.8074C233.231 48.741 232.146 49.4062 233.058 52.7309C238.24 71.6068 238.438 78.1948 234.359 96.2088C230.697 112.389 228.425 117.279 221.625 123.637C204.066 140.049 180.572 142.476 132.188 132.875C106.243 127.727 94.2085 124.293 79.853 117.933C67.2818 112.364 51.8996 107.673 32.6287 103.53C2.19838 96.9913 -14.9693 89.9041 -13.6963 84.4075C-13.0575 81.6494 -10.2583 81.9638 2.76147 86.255C22.1627 92.6505 24.8178 93.3967 34.3822 95.1605L42.0431 96.571L36.823 86.7267C26.0967 66.4974 45.4836 50.2835 66.211 62.1489C75.8541 67.6683 77.188 89.8672 68.3667 97.9931C65.1335 100.972 66.3543 102.13 78.6008 107.693C96.2013 115.689 154.971 129.224 172.649 129.353C191.056 129.49 205.831 124.152 215.104 114.021C221.682 106.834 223.435 102.369 225.553 87.4061C226.953 77.5199 227.085 64.2705 225.843 57.968C223.665 46.9078 223.203 46.4185 212.561 43.9539L201.538 41.4009L206.55 28.1694C217.657 -1.16269 223.224 -6.0148 228.603 8.95079ZM47.7701 71.0957C44.5231 74.5531 44.2395 77.3497 46.5107 83.4691C49.6829 92.0124 55.5651 94.9913 59.5607 90.0769C69.3825 77.9987 58.1974 59.9913 47.7701 71.0957Z" fill="black"/>
</svg>
