<svg width="139" height="256" viewBox="0 0 139 256" fill="none" xmlns="http://www.w3.org/2000/svg">
<path fill-rule="evenodd" clip-rule="evenodd" d="M18.2778 154.492C29.9567 159.116 47.6816 149.839 67.8629 128.538L77.5101 118.356L87.1635 127.208C109.48 147.669 124.948 218.812 115.591 245.967C110.754 260.009 114.642 257.531 120.858 245.947C135.692 218.305 118.932 149.255 90.8974 120.083L83.7767 112.674L90.9673 103.348C101.539 89.6361 118.945 60.3753 123.278 49.0331C126.875 39.6157 127.322 39.1515 132.773 39.1817C135.918 39.1989 138.617 38.0221 138.771 36.5669C139.309 31.4713 124.02 -0.122501 121.196 0.249357C118.348 0.624368 106.9 32.0269 108.273 35.6945C108.671 36.7587 111.254 37.8458 114.013 38.1141C116.773 38.3794 119.127 39.3665 119.246 40.3053C119.854 45.0986 104.517 71.6411 90.9194 89.3337C75.8305 108.963 75.4484 109.301 71.6832 106.458C66.6481 102.655 50.738 99.0198 38.9688 98.985C24.9425 98.9446 15.3001 103.37 7.56607 113.401C-1.86261 125.63 -1.256 136.614 9.55062 149.373C10.7175 150.751 14.6451 153.054 18.2778 154.492ZM9.35123 131.841C7.41492 116.583 20.3871 106.016 40.98 106.076C50.5715 106.104 70.216 111.7 70.5736 114.506C70.8865 116.984 47.0001 139.229 39.2197 143.702C28.6825 149.762 22.7727 150.124 16.2659 145.107C12.1161 141.907 10.1501 138.136 9.35123 131.841Z" fill="#C19EE5"/>
</svg>
