<svg width="175" height="300" viewBox="0 0 175 300" fill="none" xmlns="http://www.w3.org/2000/svg">
<path opacity="0.4" fill-rule="evenodd" clip-rule="evenodd" d="M147.001 80.4703C130.204 75.4113 107.363 89.7511 83.103 120.588L71.5063 135.329L56.8041 124.35C22.816 98.9717 5.6293 56.5752 14.0655 18.929C18.4261 -0.538904 14.4094 -6.11643 7.75432 10.1696C-8.1265 49.0314 9.57328 97.7894 52.8335 134.357L63.8216 143.644L55.4604 156.979C43.1675 176.583 24.0164 217.894 19.9091 233.662C16.4993 246.754 15.9606 247.427 8.4677 247.94C4.14404 248.237 0.628116 250.102 0.652337 252.084C0.742206 259.025 26.8877 300.161 30.7064 299.372C34.5577 298.575 45.1765 254.976 42.6928 250.16C41.9729 248.762 38.2484 247.556 34.4134 247.474C30.5795 247.396 27.1848 246.302 26.8684 245.046C25.2528 238.63 42.004 201.203 57.8065 175.911C75.3419 147.85 75.8119 147.355 81.4472 150.814C88.9833 155.441 111.432 158.733 127.607 157.583C146.883 156.21 159.41 149.249 168.403 134.907C179.366 117.423 176.746 102.642 159.823 86.4996C157.996 84.757 152.226 82.0441 147.001 80.4703ZM162.95 110.171C168.093 130.592 151.99 146.191 123.69 148.205C110.508 149.144 82.6099 143.58 81.6622 139.825C80.8291 136.508 110.025 104.019 119.986 97.1817C133.477 87.9218 141.537 86.8309 151.292 92.9481C157.514 96.8493 160.828 101.746 162.95 110.171Z" fill="#EBB1FF"/>
</svg>
