<svg width="145" height="267" viewBox="0 0 145 267" fill="none" xmlns="http://www.w3.org/2000/svg">
<path fill-rule="evenodd" clip-rule="evenodd" d="M18.6382 160.842C30.851 165.706 49.3223 156.108 70.3114 133.99L80.3447 123.417L90.4591 132.679C113.842 154.089 130.272 228.288 120.608 256.55C115.613 271.164 119.663 268.597 126.108 256.55C141.488 227.802 123.717 155.78 94.3301 125.27L86.8657 117.52L94.3373 107.83C105.322 93.5823 123.382 63.1579 127.862 51.3552C131.581 41.5554 132.046 41.0734 137.737 41.1262C141.021 41.1565 143.835 39.9407 143.99 38.4249C144.532 33.1168 128.444 0.132942 125.497 0.509367C122.525 0.889004 110.694 33.5687 112.142 37.3961C112.562 38.5067 115.263 39.6497 118.145 39.9401C121.027 40.2274 123.489 41.2653 123.617 42.2441C124.271 47.2415 108.361 74.8413 94.2323 93.2255C78.5541 113.622 78.1564 113.973 74.2137 110.995C68.9413 107.012 52.3142 103.162 40.0251 103.079C25.3792 102.982 15.3284 107.556 7.29209 117.979C-2.50502 130.686 -1.82851 142.134 9.50545 155.473C10.7293 156.913 14.8393 159.329 18.6382 160.842ZM9.22846 137.202C7.14673 121.294 20.6504 110.334 42.153 110.477C52.1682 110.543 72.7023 116.453 73.0867 119.378C73.4232 121.961 48.5691 145.049 40.4627 149.68C29.4838 155.953 23.3144 156.307 16.5006 151.054C12.1549 147.703 10.0873 143.765 9.22846 137.202Z" fill="#DBDBDB" fill-opacity="0.5"/>
</svg>
