<svg width="279" height="136" viewBox="0 0 279 136" fill="none" xmlns="http://www.w3.org/2000/svg">
<path fill-rule="evenodd" clip-rule="evenodd" d="M248.224 5.65681C226.59 11.6608 225.661 12.225 225.844 19.2352C225.992 24.9028 224.367 27.637 218.627 31.3799C214.552 34.0353 197.315 48.2657 180.321 63.001C140.251 97.746 119.02 114.098 114.903 113.387C108.451 112.272 103.953 98.3914 102.341 74.6172C100.413 46.1874 98.1077 37.4535 90.7197 30.5479C66.2193 7.65651 12.2236 62.8667 1.91696 121.346C-1.66356 141.668 2.91608 139.735 8.27539 118.661C18.0813 80.1158 49.1872 37.7944 70.2888 34.2895C86.1888 31.6491 92.4455 42.3819 93.5946 74.2627C94.4173 97.1218 97.9312 109.756 105.701 117.794C115.768 128.208 123.019 124.21 176.029 79.013C232.617 30.7692 232.632 30.7589 235.902 37.359C237.214 40.0045 239.558 42.3912 241.114 42.6601C245.172 43.3611 279.423 6.48739 278 2.94892C276.218 -1.48439 272.854 -1.17625 248.224 5.65681Z" fill="#DBDBDB" fill-opacity="0.5"/>
</svg>
