<svg width="118" height="202" viewBox="0 0 118 202" fill="none" xmlns="http://www.w3.org/2000/svg">
<path opacity="0.4" fill-rule="evenodd" clip-rule="evenodd" d="M99.1355 54.1929C87.8582 50.7964 72.5227 60.424 56.2349 81.128L48.4489 91.0247L38.578 83.6535C15.7585 66.6147 4.21952 38.1499 9.88356 12.8745C12.8112 -0.196136 10.1144 -3.94086 5.64624 6.99352C-5.01604 33.0851 6.86748 65.8209 35.9121 90.372L43.2895 96.6077L37.6758 105.56C29.4224 118.722 16.5645 146.459 13.8069 157.045C11.5176 165.835 11.1559 166.286 6.1252 166.631C3.22232 166.831 0.861747 168.083 0.878012 169.413C0.938351 174.073 18.4923 201.692 21.0561 201.162C23.6418 200.627 30.7712 171.355 29.1037 168.121C28.6204 167.183 26.1198 166.373 23.545 166.318C20.9709 166.266 18.6917 165.531 18.4793 164.688C17.3946 160.381 28.6412 135.252 39.251 118.271C51.0241 99.4313 51.3397 99.0987 55.1232 101.421C60.1829 104.528 75.255 106.738 86.1144 105.966C99.0562 105.044 107.467 100.37 113.505 90.7414C120.865 79.0025 119.106 69.0788 107.744 58.241C106.518 57.071 102.643 55.2496 99.1355 54.1929ZM109.844 74.1336C113.296 87.8445 102.485 98.3171 83.4847 99.6698C74.6347 100.3 55.9038 96.5645 55.2675 94.0435C54.7082 91.8166 74.3103 70.0034 80.998 65.4129C90.0554 59.1958 95.4668 58.4634 102.017 62.5704C106.194 65.1897 108.419 68.4772 109.844 74.1336Z" fill="#EBB1FF"/>
</svg>
