<svg width="186" height="342" viewBox="0 0 186 342" fill="none" xmlns="http://www.w3.org/2000/svg">
<path fill-rule="evenodd" clip-rule="evenodd" d="M27.0239 195.227C43.8392 202.699 67.5696 192.228 93.409 165.934L105.761 153.365L120.212 166.274C153.622 196.114 183.035 293.04 172.954 328.359C167.742 346.624 172.899 343.735 180.306 328.912C197.981 293.542 166.993 199.276 124.644 157.148L113.887 146.448L122.903 134.755C136.158 117.563 157.247 80.3085 162.051 65.6027C166.039 53.3924 166.613 52.8201 174.227 53.4594C178.62 53.8279 182.259 52.5492 182.315 50.6184C182.507 43.8568 157.687 -0.11213 153.785 0.0753978C149.85 0.264503 137.314 41.0399 139.634 46.1001C140.307 47.5683 144.032 49.3071 147.915 49.9694C151.797 50.6277 155.193 52.2075 155.462 53.4772C156.838 59.96 138.339 93.803 121.296 115.991C102.384 140.608 101.887 141.019 96.3175 136.799C88.8691 131.155 66.2541 124.542 49.8168 123.202C30.2273 121.607 17.2497 126.471 7.55253 139.048C-4.26938 154.381 -2.21563 169.15 14.2756 187.416C16.0564 189.388 21.7935 192.903 27.0239 195.227ZM12.0711 163.927C7.69099 143.291 24.6434 130.572 53.4042 132.915C66.8 134.006 94.8448 143.655 95.6523 147.45C96.3615 150.801 65.4525 177.952 55.0801 183.085C41.0324 190.038 32.8203 189.874 23.1835 182.444C17.0376 177.705 13.878 172.441 12.0711 163.927Z" fill="#C19EE5"/>
</svg>
