<svg width="32" height="17" viewBox="0 0 32 17" fill="none" xmlns="http://www.w3.org/2000/svg">
<g filter="url(#filter0_ii_271_1412)">
<path fill-rule="evenodd" clip-rule="evenodd" d="M14.5714 0.47437C12.0608 0.751369 9.12468 1.85741 6.50638 3.5125C4.64034 4.6921 1.82829 6.97232 0.867156 8.08532C0.643763 8.34407 0.460938 8.58259 0.460938 8.61552C0.460938 8.88873 2.32155 10.6486 4.12423 12.0805C6.76912 14.1814 9.75938 15.6848 12.7058 16.3952C14.9734 16.942 17.4781 16.9426 19.761 16.397C22.8576 15.6569 26.2757 13.7566 29.5977 10.9282C30.4299 10.2196 31.6673 8.98853 31.7945 8.74263C31.8826 8.57239 31.8724 8.53899 31.629 8.20175C30.6203 6.80411 29.4359 5.69895 27.6642 4.50232C24.6281 2.45163 20.9294 0.955282 17.7094 0.475046C16.8953 0.353618 15.6684 0.353348 14.5714 0.47437Z" fill="white"/>
</g>
<circle cx="16.1532" cy="8.77726" r="3.64933" fill="#F2CDFF"/>
<defs>
<filter id="filter0_ii_271_1412" x="0.460938" y="0.383789" width="35.3843" height="18.4219" filterUnits="userSpaceOnUse" color-interpolation-filters="sRGB">
<feFlood flood-opacity="0" result="BackgroundImageFix"/>
<feBlend mode="normal" in="SourceGraphic" in2="BackgroundImageFix" result="shape"/>
<feColorMatrix in="SourceAlpha" type="matrix" values="0 0 0 0 0 0 0 0 0 0 0 0 0 0 0 0 0 0 127 0" result="hardAlpha"/>
<feOffset dy="2"/>
<feGaussianBlur stdDeviation="2"/>
<feComposite in2="hardAlpha" operator="arithmetic" k2="-1" k3="1"/>
<feColorMatrix type="matrix" values="0 0 0 0 0 0 0 0 0 0 0 0 0 0 0 0 0 0 0.25 0"/>
<feBlend mode="normal" in2="shape" result="effect1_innerShadow_271_1412"/>
<feColorMatrix in="SourceAlpha" type="matrix" values="0 0 0 0 0 0 0 0 0 0 0 0 0 0 0 0 0 0 127 0" result="hardAlpha"/>
<feOffset dx="4" dy="2"/>
<feGaussianBlur stdDeviation="2"/>
<feComposite in2="hardAlpha" operator="arithmetic" k2="-1" k3="1"/>
<feColorMatrix type="matrix" values="0 0 0 0 0 0 0 0 0 0 0 0 0 0 0 0 0 0 0.25 0"/>
<feBlend mode="normal" in2="effect1_innerShadow_271_1412" result="effect2_innerShadow_271_1412"/>
</filter>
</defs>
</svg>
