<svg width="618" height="109" viewBox="0 0 618 109" fill="none" xmlns="http://www.w3.org/2000/svg">
<g filter="url(#filter0_d_399_365)">
<path d="M2 99.1304L2 0L39.0768 0C54.5861 0 67.4296 4.7677 77.6076 14.3031C87.7855 23.8385 92.8745 35.5925 92.8745 49.5652C92.8745 63.5379 87.7855 75.2919 77.6076 84.8273C67.4296 94.3627 54.5861 99.1304 39.0768 99.1304H2ZM23.8099 79.3044H39.0768C48.0916 79.3044 55.5554 76.472 61.4683 70.8074C67.3812 65.1429 70.3376 58.0621 70.3376 49.5652C70.3376 41.0683 67.3812 33.9876 61.4683 28.323C55.5554 22.6584 48.0916 19.8261 39.0768 19.8261H23.8099V79.3044Z" fill="white"/>
<path d="M112.469 99.1304V0L157.543 0C168.4 0 177.027 3.06832 183.424 9.20497C189.919 15.2472 193.166 23.2721 193.166 33.2795C193.166 43.0037 190.258 50.6981 184.442 56.3627C182.019 58.9118 179.111 60.8944 175.718 62.3106L196.801 99.1304H172.81L154.635 66.559H134.279V99.1304H112.469ZM134.279 46.7329H156.816C160.887 46.7329 164.183 45.5056 166.703 43.0509C169.32 40.5019 170.629 37.2447 170.629 33.2795C170.629 29.3143 169.32 26.1043 166.703 23.6497C164.183 21.1006 160.887 19.8261 156.816 19.8261H134.279V46.7329Z" fill="white"/>
<path d="M236.865 99.1304V63.7267L198.334 0L223.779 0L247.479 42.4845H248.061L271.761 0L297.206 0L258.675 63.7267V99.1304H236.865Z" fill="white"/>
<path d="M340.082 99.1304V0L415.689 0V19.8261L361.891 19.8261V38.9441H404.057V58.0621H361.891V79.3044H417.143V99.1304H340.082Z" fill="white"/>
<path d="M461.496 99.1304V63.7267L422.965 0L448.41 0L472.11 42.4845H472.691L496.391 0L521.836 0L483.305 63.7267V99.1304H461.496Z" fill="white"/>
<path d="M534.184 99.1304V0L609.791 0V19.8261H555.994V38.9441H598.159V58.0621H555.994V79.3044H611.245V99.1304H534.184Z" fill="white"/>
</g>
<mask id="mask0_399_365" style="mask-type:alpha" maskUnits="userSpaceOnUse" x="2" y="0" width="610" height="99">
<path d="M2.3623 99L2.3623 0L39.4242 0C54.9272 0 67.7656 4.76143 77.9394 14.2843C88.1133 23.8071 93.2002 35.5457 93.2002 49.5C93.2002 63.4543 88.1133 75.1929 77.9394 84.7157C67.7656 94.2386 54.9272 99 39.4242 99H2.3623ZM24.1634 79.2H39.4242C48.4353 79.2 55.8961 76.3714 61.8066 70.7143C67.7171 65.0571 70.6724 57.9857 70.6724 49.5C70.6724 41.0143 67.7171 33.9429 61.8066 28.2857C55.8961 22.6286 48.4353 19.8 39.4242 19.8H24.1634V79.2Z" fill="white"/>
<path d="M112.787 99V0L157.843 0C168.695 0 177.318 3.06428 183.713 9.19285C190.205 15.2271 193.451 23.2414 193.451 33.2357C193.451 42.9471 190.544 50.6314 184.731 56.2886C182.308 58.8343 179.402 60.8143 176.01 62.2286L197.085 99H173.104L154.936 66.4714H134.588V99H112.787ZM134.588 46.6714H157.116C161.186 46.6714 164.48 45.4457 166.999 42.9943C169.615 40.4486 170.923 37.1957 170.923 33.2357C170.923 29.2757 169.615 26.07 166.999 23.6186C164.48 21.0729 161.186 19.8 157.116 19.8H134.588V46.6714Z" fill="white"/>
<path d="M237.133 99V63.6429L198.618 0L224.052 0L247.743 42.4286H248.324L272.015 0L297.449 0L258.934 63.6429V99H237.133Z" fill="white"/>
<path d="M340.308 99V0L415.885 0V19.8L362.109 19.8V38.8929H404.258V57.9857H362.109V79.2H417.338V99H340.308Z" fill="white"/>
<path d="M461.673 99V63.6429L423.158 0L448.592 0L472.283 42.4286H472.864L496.555 0L521.989 0L483.474 63.6429V99H461.673Z" fill="white"/>
<path d="M534.332 99V0L609.909 0V19.8H556.133V38.8929H598.282V57.9857H556.133V79.2H611.362V99H534.332Z" fill="white"/>
</mask>
<g mask="url(#mask0_399_365)">
<g filter="url(#filter1_d_399_365)">
<path d="M2 99.1304L2 0L39.0768 0C54.5861 0 67.4296 4.7677 77.6076 14.3031C87.7855 23.8385 92.8745 35.5925 92.8745 49.5652C92.8745 63.5379 87.7855 75.2919 77.6076 84.8273C67.4296 94.3627 54.5861 99.1304 39.0768 99.1304H2ZM23.8099 79.3044H39.0768C48.0916 79.3044 55.5554 76.472 61.4683 70.8074C67.3812 65.1429 70.3376 58.0621 70.3376 49.5652C70.3376 41.0683 67.3812 33.9876 61.4683 28.323C55.5554 22.6584 48.0916 19.8261 39.0768 19.8261H23.8099V79.3044Z" fill="white"/>
<path d="M112.469 99.1304V0L157.543 0C168.4 0 177.027 3.06832 183.424 9.20497C189.919 15.2472 193.166 23.2721 193.166 33.2795C193.166 43.0037 190.258 50.6981 184.442 56.3627C182.019 58.9118 179.111 60.8944 175.718 62.3106L196.801 99.1304H172.81L154.635 66.559H134.279V99.1304H112.469ZM134.279 46.7329H156.816C160.887 46.7329 164.183 45.5056 166.703 43.0509C169.32 40.5019 170.629 37.2447 170.629 33.2795C170.629 29.3143 169.32 26.1043 166.703 23.6497C164.183 21.1006 160.887 19.8261 156.816 19.8261H134.279V46.7329Z" fill="white"/>
<path d="M236.865 99.1304V63.7267L198.334 0L223.779 0L247.479 42.4845H248.061L271.761 0L297.206 0L258.675 63.7267V99.1304H236.865Z" fill="white"/>
<path d="M340.082 99.1304V0L415.689 0V19.8261L361.891 19.8261V38.9441H404.057V58.0621H361.891V79.3044H417.143V99.1304H340.082Z" fill="white"/>
<path d="M461.496 99.1304V63.7267L422.965 0L448.41 0L472.11 42.4845H472.691L496.391 0L521.836 0L483.305 63.7267V99.1304H461.496Z" fill="white"/>
<path d="M534.184 99.1304V0L609.791 0V19.8261H555.994V38.9441H598.159V58.0621H555.994V79.3044H611.245V99.1304H534.184Z" fill="white"/>
<path d="M2 0L7.10173 4.34783L16.6675 5.59006L24.3201 11.1801L23.6823 14.2857" stroke="#FF0000" stroke-opacity="0.5"/>
<path d="M2 20.4968L6.46401 18.0124L13.4789 21.7391L18.5806 16.7701" stroke="#FF0000" stroke-opacity="0.5"/>
<path d="M23.0447 29.1926L17.943 26.087L9.015 29.1926L5.82642 24.8447" stroke="#FF0000" stroke-opacity="0.5"/>
<path d="M2 37.2671L4.55086 34.7827L10.2903 37.2671L18.5806 32.9193" stroke="#FF0000" stroke-opacity="0.5"/>
<path d="M24.32 44.7205H16.6674L12.2034 41.6149" stroke="#FF0000" stroke-opacity="0.5"/>
<path d="M2 54.0373L7.73944 49.6895H16.0297" stroke="#FF0000" stroke-opacity="0.5"/>
<path d="M23.6823 59.6274L16.6674 59.0063L10.928 53.4162" stroke="#FF0000" stroke-opacity="0.5"/>
<path d="M1.3623 68.9441L8.37718 63.3541V55.2795" stroke="#FF0000" stroke-opacity="0.5"/>
<path d="M23.6823 69.5652L14.7543 73.2919L13.4788 82.6087L3.91309 88.1987" stroke="#FF0000" stroke-opacity="0.5"/>
<path d="M2 74.5342L8.37716 71.4286L10.2903 78.2609" stroke="#FF0000" stroke-opacity="0.5"/>
<path d="M17.9429 98.7578L25.5955 91.9255L19.856 80.7454M2.6377 98.7578L13.4789 91.9255L16.6674 81.9876L20.4937 77.6398" stroke="#FF0000" stroke-opacity="0.5"/>
<path d="M31.9727 99.379L38.9875 93.1678L31.9727 85.7144" stroke="#FF0000" stroke-opacity="0.5"/>
<path d="M39.6252 79.5032L46.6401 83.2299L58.7567 79.5032" stroke="#FF0000" stroke-opacity="0.5"/>
<path d="M48.5533 98.7579L46.0024 92.5467L55.5682 84.4722" stroke="#FF0000" stroke-opacity="0.5"/>
<path d="M73.4241 87.5776L64.4961 84.472L73.4241 72.6708" stroke="#FF0000" stroke-opacity="0.5"/>
<path d="M60.6699 71.4286L63.8585 75.1553L60.6699 83.2298" stroke="#FF0000" stroke-opacity="0.5"/>
<path d="M68.3225 61.4906L74.6997 57.1428L75.3374 45.9627L81.0768 43.4782" stroke="#FF0000" stroke-opacity="0.5"/>
<path d="M86.8159 72.6708L82.9896 67.0807L84.9028 54.0373C83.8399 52.795 81.8417 50.3105 82.3519 50.3105" stroke="#FF0000" stroke-opacity="0.5"/>
<path d="M77.2506 14.2856L79.1637 26.708L74.062 29.8136" stroke="#FF0000" stroke-opacity="0.5"/>
<path d="M68.3225 39.7516L74.6997 36.0249L83.6277 36.646C83.8403 34.5756 84.393 30.3106 84.9031 29.8137" stroke="#FF0000" stroke-opacity="0.5"/>
<path d="M46.6401 0L51.1041 6.8323L60.6699 10.559V18.6335" stroke="#FF0000" stroke-opacity="0.5"/>
<path d="M37.0745 19.8758L43.4516 14.9069L40.263 5.59009C41.9636 4.76193 45.4923 2.98139 46.0025 2.4845" stroke="#FF0000" stroke-opacity="0.5"/>
<path d="M53.655 22.3602L54.9305 14.2856H56.8436" stroke="#FF0000" stroke-opacity="0.5"/>
<path d="M71.5109 9.93799V16.7703L65.7715 21.1181L67.6846 26.7082" stroke="#FF0000" stroke-opacity="0.5"/>
<path d="M26.8708 0.621094L30.6971 5.59004V10.559" stroke="#FF0000" stroke-opacity="0.5"/>
<path d="M15.3921 6.21124L14.7544 11.8013H20.4938" stroke="#FF0000" stroke-opacity="0.5"/>
<path d="M7.10181 17.3912L9.65267 13.0434" stroke="#FF0000" stroke-opacity="0.5"/>
<path d="M26.2332 18.6336L31.3349 15.5281L34.5235 9.93799" stroke="#FF0000" stroke-opacity="0.5"/>
<path d="M112.963 0L119.34 9.93789H126.992L128.906 18.0124" stroke="#FF0000" stroke-opacity="0.5"/>
<path d="M112.325 29.1924L121.891 23.6024L119.978 13.6645" stroke="#FF0000" stroke-opacity="0.5"/>
<path d="M134.007 33.5403H128.905V22.9813L123.804 18.0124" stroke="#FF0000" stroke-opacity="0.5"/>
<path d="M112.963 49.6894L118.064 39.7515L125.717 43.4782" stroke="#FF0000" stroke-opacity="0.5"/>
<path d="M133.369 43.4782L126.355 53.4161L118.064 56.5217V65.8385" stroke="#FF0000" stroke-opacity="0.5"/>
<path d="M134.007 0.621094L141.022 7.45339L134.007 13.0435" stroke="#FF0000" stroke-opacity="0.5"/>
<path d="M133.37 75.7765L126.992 70.1864V59.0063" stroke="#FF0000" stroke-opacity="0.5"/>
<path d="M112.325 75.7765L120.615 73.292L123.166 62.1119" stroke="#FF0000" stroke-opacity="0.5"/>
<path d="M134.645 86.3354L122.528 91.9255L119.978 96.2733" stroke="#FF0000" stroke-opacity="0.5"/>
<path d="M112.325 81.9876L118.064 80.7453L125.079 75.1553" stroke="#FF0000" stroke-opacity="0.5"/>
<path d="M133.369 81.9877H124.441L115.513 93.1678" stroke="#FF0000" stroke-opacity="0.5"/>
<path d="M112.963 98.7578L116.151 96.2733" stroke="#FF0000" stroke-opacity="0.5"/>
<path d="M128.268 98.7577V95.6521L131.456 93.1676" stroke="#FF0000" stroke-opacity="0.5"/>
<path d="M141.66 48.4472L148.037 53.4161L141.66 59.0062" stroke="#FF0000" stroke-opacity="0.5"/>
<path d="M152.501 65.8386L156.965 59.6274L152.501 53.4162" stroke="#FF0000" stroke-opacity="0.5"/>
<path d="M138.471 66.4597L131.456 62.7329L134.007 50.9317" stroke="#FF0000" stroke-opacity="0.5"/>
<path d="M154.414 0.621094L161.429 8.07451L150.588 12.4223" stroke="#FF0000" stroke-opacity="0.5"/>
<path d="M142.935 0.621094L146.762 9.31675" stroke="#FF0000" stroke-opacity="0.5"/>
<path d="M150.588 19.8757L156.327 16.7701" stroke="#FF0000" stroke-opacity="0.5"/>
<path d="M135.283 19.2547L131.456 14.2858V8.07458" stroke="#FF0000" stroke-opacity="0.5"/>
<path d="M142.935 18.6334L145.486 14.9067" stroke="#FF0000" stroke-opacity="0.5"/>
<path d="M171.632 1.86334L175.459 9.31676L171.632 14.2857" stroke="#FF0000" stroke-opacity="0.5"/>
<path d="M168.444 25.4659L165.255 16.7702L168.444 6.83234" stroke="#FF0000" stroke-opacity="0.5"/>
<path d="M188.213 16.149L182.474 23.6024L184.387 32.9192L179.285 39.1304" stroke="#FF0000" stroke-opacity="0.5"/>
<path d="M176.096 60.8695L163.342 51.5527L167.168 45.3416" stroke="#FF0000" stroke-opacity="0.5"/>
<path d="M185.024 55.2795L178.009 47.826L171.632 51.5528" stroke="#FF0000" stroke-opacity="0.5"/>
<path d="M192.039 43.4782H182.474L174.183 41.6149" stroke="#FF0000" stroke-opacity="0.5"/>
<path d="M190.764 31.6771L185.024 36.6461M182.474 9.93799L178.01 20.497M169.719 33.5405L174.821 30.4349L171.632 22.3603" stroke="#FF0000" stroke-opacity="0.5"/>
<path d="M172.908 98.1367L175.459 91.9255L167.806 80.1242V71.4286" stroke="#FF0000" stroke-opacity="0.5"/>
<path d="M178.01 66.4596L176.096 72.6708L182.474 81.3664L180.56 85.7143" stroke="#FF0000" stroke-opacity="0.5"/>
<path d="M192.677 98.1365L181.198 95.0309L185.025 87.5775" stroke="#FF0000" stroke-opacity="0.5"/>
<path d="M157.603 70.1864L162.067 65.2175V57.764" stroke="#FF0000" stroke-opacity="0.5"/>
<path d="M199.054 0L214.997 10.559L218.186 19.8758" stroke="#FF0000" stroke-opacity="0.5"/>
<path d="M237.317 99.3789L245.607 86.3354L243.694 75.7764" stroke="#FF0000" stroke-opacity="0.5"/>
<path d="M249.434 98.1366C251.134 95.6522 254.28 90.3106 253.26 88.8199C252.24 87.3292 248.158 77.0186 246.245 72.0497" stroke="#FF0000" stroke-opacity="0.5"/>
<path d="M258.362 66.4597L248.158 60.8696L250.072 52.174" stroke="#FF0000" stroke-opacity="0.5"/>
<path d="M267.928 45.9627L264.739 37.2671L271.754 23.6025" stroke="#FF0000" stroke-opacity="0.5"/>
<path d="M273.029 1.24225V6.21119L276.218 12.4224L273.029 18.6336" stroke="#FF0000" stroke-opacity="0.5"/>
<path d="M296.625 1.24225L277.493 7.45343L280.682 13.0435" stroke="#FF0000" stroke-opacity="0.5"/>
<path d="M276.218 31.677V24.2236L279.406 19.8757" stroke="#FF0000" stroke-opacity="0.5"/>
<path d="M250.072 40.3727L259.637 32.9193L264.101 26.087" stroke="#FF0000" stroke-opacity="0.5"/>
<path d="M260.913 57.7639L255.811 50.9316V44.7205" stroke="#FF0000" stroke-opacity="0.5"/>
<path d="M228.389 9.31683V22.9814L234.766 34.1616V42.8572" stroke="#FF0000" stroke-opacity="0.5"/>
<path d="M216.91 31.677L221.374 27.3292L218.823 5.59009" stroke="#FF0000" stroke-opacity="0.5"/>
<path d="M228.389 45.9627V36.0248L223.287 26.7081" stroke="#FF0000" stroke-opacity="0.5"/>
<path d="M222.65 1.24225V7.45343" stroke="#FF0000" stroke-opacity="0.5"/>
<path d="M237.955 63.354V49.0683L242.419 44.7205" stroke="#FF0000" stroke-opacity="0.5"/>
<path d="M257.724 78.2608L251.985 69.5652" stroke="#FF0000" stroke-opacity="0.5"/>
<path d="M238.593 78.882L242.419 67.7019C244.97 67.7019 249.689 67.7019 248.158 67.7019C246.628 67.7019 243.694 57.3499 242.419 52.174" stroke="#FF0000" stroke-opacity="0.5"/>
<path d="M339.99 0.621094L350.193 8.07451H364.86M415.24 0.621094L409.501 6.83227L398.022 11.8012" stroke="#FF0000" stroke-opacity="0.5"/>
<path d="M415.878 19.8758L409.5 15.528V11.1802" stroke="#FF0000" stroke-opacity="0.5"/>
<path d="M401.21 19.8759L392.282 14.9069L391.007 10.5591" stroke="#FF0000" stroke-opacity="0.5"/>
<path d="M399.297 0L391.645 4.96894L392.92 8.07453" stroke="#FF0000" stroke-opacity="0.5"/>
<path d="M378.252 0L382.716 6.8323L376.977 8.07453" stroke="#FF0000" stroke-opacity="0.5"/>
<path d="M352.106 0L359.121 4.34783H365.498" stroke="#FF0000" stroke-opacity="0.5"/>
<path d="M369.962 0L372.513 6.8323L369.962 9.93789" stroke="#FF0000" stroke-opacity="0.5"/>
<path d="M379.528 19.2546L376.977 13.6645L368.049 15.5278" stroke="#FF0000" stroke-opacity="0.5"/>
<path d="M387.818 18.6336L385.267 12.4224L388.456 4.34784" stroke="#FF0000" stroke-opacity="0.5"/>
<path d="M340.627 16.149L346.367 14.2856L352.106 18.0124" stroke="#FF0000" stroke-opacity="0.5"/>
<path d="M361.034 19.8758L356.57 13.6646L344.453 11.1802" stroke="#FF0000" stroke-opacity="0.5"/>
<path d="M339.99 31.0558L346.367 22.9813H352.744V18.6335" stroke="#FF0000" stroke-opacity="0.5"/>
<path d="M361.672 34.7826C361.034 33.5403 359.504 31.0559 358.483 31.0559C357.463 31.0559 356.783 24.4306 356.57 21.118" stroke="#FF0000" stroke-opacity="0.5"/>
<path d="M339.99 40.3727L348.28 36.0249V30.4348M361.672 39.1305L355.295 44.0994L357.846 54.0373L351.468 55.2795" stroke="#FF0000" stroke-opacity="0.5"/>
<path d="M339.99 50.3106L346.367 46.5839L350.193 36.646L354.019 35.4038" stroke="#FF0000" stroke-opacity="0.5"/>
<path d="M339.352 64.5963L345.091 60.8696L347.004 54.0373L352.744 51.5528" stroke="#FF0000" stroke-opacity="0.5"/>
<path d="M403.761 39.1304L393.558 45.9627L377.615 49.0683L373.788 42.8571" stroke="#FF0000" stroke-opacity="0.5"/>
<path d="M362.947 57.764L367.411 53.4161H377.615L379.528 51.5528" stroke="#FF0000" stroke-opacity="0.5"/>
<path d="M401.848 57.764L396.109 52.1739L386.543 54.0373L384.63 50.9317" stroke="#FF0000" stroke-opacity="0.5"/>
<path d="M368.049 39.7515C368.261 41.2007 369.069 44.0993 370.6 44.0993C372.13 44.0993 371.237 47.4119 370.6 49.0682" stroke="#FF0000" stroke-opacity="0.5"/>
<path d="M339.99 80.1242L347.642 75.7763L346.367 70.1863C346.579 69.1511 347.515 67.0807 349.555 67.0807" stroke="#FF0000" stroke-opacity="0.5"/>
<path d="M361.671 71.4286C361.459 72.8779 360.779 76.0249 359.758 77.0187C358.483 78.2609 360.396 84.4721 361.671 83.8509" stroke="#FF0000" stroke-opacity="0.5"/>
<path d="M339.352 88.8199L347.004 83.2298L354.019 74.5342" stroke="#FF0000" stroke-opacity="0.5"/>
<path d="M361.672 63.9751H356.57L354.657 71.4285" stroke="#FF0000" stroke-opacity="0.5"/>
<path d="M344.453 98.7578L347.642 94.41L355.932 93.1677V86.9565" stroke="#FF0000" stroke-opacity="0.5"/>
<path d="M373.789 80.1243L380.166 85.0932L375.064 88.8199V92.5466M360.396 98.7578L362.947 94.41L368.049 88.1988L365.498 82.6087" stroke="#FF0000" stroke-opacity="0.5"/>
<path d="M394.833 79.5032L399.297 85.0932L396.108 91.9255L401.21 95.0311" stroke="#FF0000" stroke-opacity="0.5"/>
<path d="M384.629 79.5032L386.543 86.3355L381.441 93.1678" stroke="#FF0000" stroke-opacity="0.5"/>
<path d="M378.89 99.379L389.094 95.0311L391.644 85.7144" stroke="#FF0000" stroke-opacity="0.5"/>
<path d="M369.962 98.7579C370.812 97.1015 372.258 93.7889 371.238 93.7889C370.217 93.7889 370.812 87.9918 371.238 85.0933" stroke="#FF0000" stroke-opacity="0.5"/>
<path d="M405.674 98.1367L403.761 90.6833L411.414 86.9566L405.674 83.2299" stroke="#FF0000" stroke-opacity="0.5"/>
<path d="M417.153 98.7577L411.414 94.4099L413.327 89.4409" stroke="#FF0000" stroke-opacity="0.5"/>
<path d="M417.153 79.5032L413.965 85.0932L415.24 89.4411" stroke="#FF0000" stroke-opacity="0.5"/>
<path d="M534.493 0.621094L544.696 8.07451H559.364M609.743 0.621094L604.004 6.83227L592.525 11.8012" stroke="#FF0000" stroke-opacity="0.5"/>
<path d="M610.381 19.8758L604.004 15.528V11.1802" stroke="#FF0000" stroke-opacity="0.5"/>
<path d="M595.713 19.8759L586.785 14.9069L585.51 10.5591" stroke="#FF0000" stroke-opacity="0.5"/>
<path d="M593.8 0L586.148 4.96894L587.423 8.07453" stroke="#FF0000" stroke-opacity="0.5"/>
<path d="M572.756 0L577.22 6.8323L571.48 8.07453" stroke="#FF0000" stroke-opacity="0.5"/>
<path d="M546.609 0L553.624 4.34783H560.001" stroke="#FF0000" stroke-opacity="0.5"/>
<path d="M564.465 0L567.016 6.8323L564.465 9.93789" stroke="#FF0000" stroke-opacity="0.5"/>
<path d="M574.031 19.2546L571.48 13.6645L562.552 15.5278" stroke="#FF0000" stroke-opacity="0.5"/>
<path d="M582.321 18.6336L579.771 12.4224L582.959 4.34784" stroke="#FF0000" stroke-opacity="0.5"/>
<path d="M535.13 16.149L540.87 14.2856L546.609 18.0124" stroke="#FF0000" stroke-opacity="0.5"/>
<path d="M555.537 19.8758L551.073 13.6646L538.957 11.1802" stroke="#FF0000" stroke-opacity="0.5"/>
<path d="M534.493 31.0558L540.87 22.9813H547.247V18.6335" stroke="#FF0000" stroke-opacity="0.5"/>
<path d="M556.175 34.7826C555.537 33.5403 554.007 31.0559 552.987 31.0559C551.966 31.0559 551.286 24.4306 551.073 21.118" stroke="#FF0000" stroke-opacity="0.5"/>
<path d="M534.493 40.3727L542.783 36.0249V30.4348M556.175 39.1305L549.798 44.0994L552.349 54.0373L545.972 55.2795" stroke="#FF0000" stroke-opacity="0.5"/>
<path d="M534.493 50.3106L540.87 46.5839L544.696 36.646L548.522 35.4038" stroke="#FF0000" stroke-opacity="0.5"/>
<path d="M533.855 64.5963L539.594 60.8696L541.508 54.0373L547.247 51.5528" stroke="#FF0000" stroke-opacity="0.5"/>
<path d="M598.264 39.1304L588.061 45.9627L572.118 49.0683L568.292 42.8571" stroke="#FF0000" stroke-opacity="0.5"/>
<path d="M557.451 57.764L561.915 53.4161H572.118L574.031 51.5528" stroke="#FF0000" stroke-opacity="0.5"/>
<path d="M596.351 57.764L590.612 52.1739L581.046 54.0373L579.133 50.9317" stroke="#FF0000" stroke-opacity="0.5"/>
<path d="M562.552 39.7515C562.765 41.2007 563.573 44.0993 565.103 44.0993C566.634 44.0993 565.741 47.4119 565.103 49.0682" stroke="#FF0000" stroke-opacity="0.5"/>
<path d="M534.493 80.1242L542.145 75.7763L540.87 70.1863C541.082 69.1511 542.018 67.0807 544.058 67.0807" stroke="#FF0000" stroke-opacity="0.5"/>
<path d="M556.175 71.4286C555.962 72.8779 555.282 76.0249 554.262 77.0187C552.986 78.2609 554.899 84.4721 556.175 83.8509" stroke="#FF0000" stroke-opacity="0.5"/>
<path d="M533.855 88.8199L541.508 83.2298L548.522 74.5342" stroke="#FF0000" stroke-opacity="0.5"/>
<path d="M556.175 63.9751H551.073L549.16 71.4285" stroke="#FF0000" stroke-opacity="0.5"/>
<path d="M538.957 98.7578L542.145 94.41L550.436 93.1677V86.9565" stroke="#FF0000" stroke-opacity="0.5"/>
<path d="M568.292 80.1243L574.669 85.0932L569.567 88.8199V92.5466M554.9 98.7578L557.451 94.41L562.552 88.1988L560.001 82.6087" stroke="#FF0000" stroke-opacity="0.5"/>
<path d="M589.336 79.5032L593.8 85.0932L590.612 91.9255L595.714 95.0311" stroke="#FF0000" stroke-opacity="0.5"/>
<path d="M579.133 79.5032L581.046 86.3355L575.944 93.1678" stroke="#FF0000" stroke-opacity="0.5"/>
<path d="M573.394 99.379L583.597 95.0311L586.148 85.7144" stroke="#FF0000" stroke-opacity="0.5"/>
<path d="M564.465 98.7579C565.316 97.1015 566.761 93.7889 565.741 93.7889C564.72 93.7889 565.316 87.9918 565.741 85.0933" stroke="#FF0000" stroke-opacity="0.5"/>
<path d="M600.178 98.1367L598.264 90.6833L605.917 86.9566L600.178 83.2299" stroke="#FF0000" stroke-opacity="0.5"/>
<path d="M611.656 98.7577L605.917 94.4099L607.83 89.4409" stroke="#FF0000" stroke-opacity="0.5"/>
<path d="M611.656 79.5032L608.468 85.0932L609.743 89.4411" stroke="#FF0000" stroke-opacity="0.5"/>
<path d="M447.763 0L441.386 12.4224L445.213 21.118" stroke="#FF0000" stroke-opacity="0.5"/>
<path d="M423.53 0.621094L431.821 6.21116L436.285 14.9068" stroke="#FF0000" stroke-opacity="0.5"/>
<path d="M520.463 0L508.347 8.69565L505.796 16.7702" stroke="#FF0000" stroke-opacity="0.5"/>
<path d="M496.868 0.621094V7.45339L493.679 18.0124" stroke="#FF0000" stroke-opacity="0.5"/>
<path d="M505.796 0.621094L503.882 6.21116L501.332 14.9068" stroke="#FF0000" stroke-opacity="0.5"/>
<path d="M463.069 99.3789L470.721 83.2298V74.5342" stroke="#FF0000" stroke-opacity="0.5"/>
<path d="M477.098 100L473.91 90.0622L477.098 83.2299" stroke="#FF0000" stroke-opacity="0.5"/>
<path d="M482.838 72.6708L475.823 67.0808L471.359 52.795" stroke="#FF0000" stroke-opacity="0.5"/>
<path d="M486.026 58.3851L482.838 52.174H477.736" stroke="#FF0000" stroke-opacity="0.5"/>
<path d="M492.403 47.8261L487.302 40.3727L495.592 25.4658" stroke="#FF0000" stroke-opacity="0.5"/>
<path d="M500.056 34.7826H492.404L500.056 23.6025" stroke="#FF0000" stroke-opacity="0.5"/>
<path d="M479.011 32.9193L481.562 42.8572L487.939 47.8261" stroke="#FF0000" stroke-opacity="0.5"/>
<path d="M462.431 63.9751L470.721 54.6583L464.982 41.6149" stroke="#FF0000" stroke-opacity="0.5"/>
<path d="M460.518 81.3664L464.982 72.6707L468.17 64.5962L474.548 72.6707" stroke="#FF0000" stroke-opacity="0.5"/>
<path d="M456.054 53.4162V34.7827H463.069" stroke="#FF0000" stroke-opacity="0.5"/>
<path d="M447.763 37.8881L452.227 29.1924V13.6645" stroke="#FF0000" stroke-opacity="0.5"/>
<path d="M438.198 24.8447H442.662L438.198 15.5279" stroke="#FF0000" stroke-opacity="0.5"/>
<path d="M436.285 0.621094V8.07451" stroke="#FF0000" stroke-opacity="0.5"/>
<path d="M458.604 22.9813V29.1925" stroke="#FF0000" stroke-opacity="0.5"/>
<path d="M452.227 5.59009L448.401 13.0435V20.4969" stroke="#FF0000" stroke-opacity="0.5"/>
</g>
</g>
<defs>
<filter id="filter0_d_399_365" x="0" y="0" width="617.245" height="108.13" filterUnits="userSpaceOnUse" color-interpolation-filters="sRGB">
<feFlood flood-opacity="0" result="BackgroundImageFix"/>
<feColorMatrix in="SourceAlpha" type="matrix" values="0 0 0 0 0 0 0 0 0 0 0 0 0 0 0 0 0 0 127 0" result="hardAlpha"/>
<feOffset dx="2" dy="5"/>
<feGaussianBlur stdDeviation="2"/>
<feComposite in2="hardAlpha" operator="out"/>
<feColorMatrix type="matrix" values="0 0 0 0 0 0 0 0 0 0 0 0 0 0 0 0 0 0 0.25 0"/>
<feBlend mode="normal" in2="BackgroundImageFix" result="effect1_dropShadow_399_365"/>
<feBlend mode="normal" in="SourceGraphic" in2="effect1_dropShadow_399_365" result="shape"/>
</filter>
<filter id="filter1_d_399_365" x="-0.949219" y="-0.424988" width="619.04" height="109.578" filterUnits="userSpaceOnUse" color-interpolation-filters="sRGB">
<feFlood flood-opacity="0" result="BackgroundImageFix"/>
<feColorMatrix in="SourceAlpha" type="matrix" values="0 0 0 0 0 0 0 0 0 0 0 0 0 0 0 0 0 0 127 0" result="hardAlpha"/>
<feOffset dx="2" dy="5"/>
<feGaussianBlur stdDeviation="2"/>
<feComposite in2="hardAlpha" operator="out"/>
<feColorMatrix type="matrix" values="0 0 0 0 0 0 0 0 0 0 0 0 0 0 0 0 0 0 0.25 0"/>
<feBlend mode="normal" in2="BackgroundImageFix" result="effect1_dropShadow_399_365"/>
<feBlend mode="normal" in="SourceGraphic" in2="effect1_dropShadow_399_365" result="shape"/>
</filter>
</defs>
</svg>
