<svg width="409" height="69" viewBox="0 0 409 69" fill="none" xmlns="http://www.w3.org/2000/svg">
<path d="M1.42529 67.4174L1.42529 1L26.1515 1C36.4945 1 45.0598 4.19436 51.8474 10.5831C58.6349 16.9718 62.0287 24.847 62.0287 34.2087C62.0287 43.5704 58.6349 51.4456 51.8474 57.8343C45.0598 64.223 36.4945 67.4174 26.1515 67.4174H1.42529ZM15.9701 54.1339H26.1515C32.1634 54.1339 37.1409 52.2363 41.0842 48.441C45.0274 44.6457 46.9991 39.9016 46.9991 34.2087C46.9991 28.5158 45.0274 23.7717 41.0842 19.9764C37.1409 16.1811 32.1634 14.2835 26.1515 14.2835H15.9701V54.1339Z" fill="white"/>
<path d="M75.0964 67.4174V1L105.156 1C112.396 1 118.149 3.05578 122.416 7.16733C126.747 11.2156 128.912 16.5923 128.912 23.2973C128.912 29.8125 126.973 34.9678 123.094 38.763C121.478 40.4709 119.539 41.7993 117.276 42.7481L131.336 67.4174H115.337L103.216 45.5945H89.6412V67.4174H75.0964ZM89.6412 32.3111H104.671C107.386 32.3111 109.584 31.4887 111.265 29.8441C113.01 28.1362 113.883 25.954 113.883 23.2973C113.883 20.6406 113.01 18.4899 111.265 16.8453C109.584 15.1374 107.386 14.2835 104.671 14.2835H89.6412V32.3111Z" fill="white"/>
<path d="M158.055 67.4174V43.6969L132.359 1L149.328 1L165.133 29.4646H165.521L181.327 1L198.296 1L172.6 43.6969V67.4174H158.055Z" fill="white"/>
<path d="M226.889 67.4174V1L277.311 1V14.2835H241.434V27.0926H269.554V39.9016L241.434 39.9016V54.1339L278.281 54.1339V67.4174H226.889Z" fill="white"/>
<path d="M307.859 67.4174V43.6969L282.163 1L299.132 1L314.938 29.4646H315.325L331.131 1L348.1 1L322.404 43.6969V67.4174H307.859Z" fill="white"/>
<path d="M356.334 67.4174V1L406.756 1V14.2835H370.879V27.0926L398.999 27.0926V39.9016H370.879V54.1339H407.726V67.4174H356.334Z" fill="white"/>
<path d="M1.42529 1L4.82759 3.91304L11.2069 4.74534L16.3104 8.49068L15.8851 10.5714" stroke="#FF0000" stroke-opacity="0.5"/>
<path d="M1.42529 14.7329L4.4023 13.0683L9.08047 15.5652L12.4828 12.236" stroke="#FF0000" stroke-opacity="0.5"/>
<path d="M15.4598 20.559L12.0575 18.4783L6.10349 20.559L3.97705 17.646" stroke="#FF0000" stroke-opacity="0.5"/>
<path d="M1.42529 25.969L3.12644 24.3044L6.95403 25.969L12.4828 23.0559" stroke="#FF0000" stroke-opacity="0.5"/>
<path d="M16.3102 30.9628H11.2067L8.22974 28.882" stroke="#FF0000" stroke-opacity="0.5"/>
<path d="M1.42529 37.205L5.25288 34.2919H10.7816" stroke="#FF0000" stroke-opacity="0.5"/>
<path d="M15.8851 40.9503L11.207 40.5342L7.37939 36.7888" stroke="#FF0000" stroke-opacity="0.5"/>
<path d="M1 47.1926L5.67816 43.4472V38.0373" stroke="#FF0000" stroke-opacity="0.5"/>
<path d="M15.8851 47.6087L9.93106 50.1056L9.08048 56.3478L2.70117 60.0932" stroke="#FF0000" stroke-opacity="0.5"/>
<path d="M1.42529 50.9379L5.67817 48.8572L6.95403 53.4348" stroke="#FF0000" stroke-opacity="0.5"/>
<path d="M12.0575 67.1677L17.1609 62.59L13.3333 55.0994M1.85059 67.1677L9.08047 62.59L11.2069 55.9317L13.7586 53.0186" stroke="#FF0000" stroke-opacity="0.5"/>
<path d="M21.4138 67.5839L26.092 63.4224L21.4138 58.4286" stroke="#FF0000" stroke-opacity="0.5"/>
<path d="M26.5171 54.2671L31.1953 56.764L39.2757 54.2671" stroke="#FF0000" stroke-opacity="0.5"/>
<path d="M32.4714 67.1677L30.7703 63.0062L37.1496 57.5963" stroke="#FF0000" stroke-opacity="0.5"/>
<path d="M49.0575 59.677L43.1035 57.5963L49.0575 49.6895" stroke="#FF0000" stroke-opacity="0.5"/>
<path d="M40.5518 48.8572L42.6782 51.3541L40.5518 56.764" stroke="#FF0000" stroke-opacity="0.5"/>
<path d="M45.655 42.1988L49.9079 39.2857L50.3332 31.795L54.1608 30.1304" stroke="#FF0000" stroke-opacity="0.5"/>
<path d="M57.9882 49.6894L55.4364 45.9441L56.7123 37.205C56.0035 36.3727 54.6709 34.7081 55.0112 34.7081" stroke="#FF0000" stroke-opacity="0.5"/>
<path d="M51.6093 10.5715L52.8852 18.8945L49.4829 20.9752" stroke="#FF0000" stroke-opacity="0.5"/>
<path d="M45.655 27.6335L49.9079 25.1366L55.8619 25.5528C56.0037 24.1656 56.3723 21.3081 56.7125 20.9752" stroke="#FF0000" stroke-opacity="0.5"/>
<path d="M31.1956 1L34.1726 5.57764L40.5519 8.07453V13.4845" stroke="#FF0000" stroke-opacity="0.5"/>
<path d="M24.8162 14.3168L29.069 10.9876L26.9426 4.74536C28.0767 4.19049 30.43 2.99753 30.7702 2.66461" stroke="#FF0000" stroke-opacity="0.5"/>
<path d="M35.8735 15.9814L36.7241 10.5715H38" stroke="#FF0000" stroke-opacity="0.5"/>
<path d="M47.7817 7.65839V12.236L43.9541 15.1491L45.23 18.8944" stroke="#FF0000" stroke-opacity="0.5"/>
<path d="M18.0115 1.4162L20.5632 4.74539V8.07458" stroke="#FF0000" stroke-opacity="0.5"/>
<path d="M10.3564 5.16144L9.93115 8.90678H13.7587" stroke="#FF0000" stroke-opacity="0.5"/>
<path d="M4.82764 12.6522L6.52879 9.73914" stroke="#FF0000" stroke-opacity="0.5"/>
<path d="M17.5862 13.4845L20.9885 11.4037L23.1149 7.65839" stroke="#FF0000" stroke-opacity="0.5"/>
<path d="M75.4253 1L79.6782 7.65839H84.7816L86.0575 13.0683" stroke="#FF0000" stroke-opacity="0.5"/>
<path d="M75 20.559L81.3793 16.8137L80.1034 10.1553" stroke="#FF0000" stroke-opacity="0.5"/>
<path d="M89.4596 23.4721H86.0573V16.3976L82.655 13.0684" stroke="#FF0000" stroke-opacity="0.5"/>
<path d="M75.4253 34.2919L78.8276 27.6335L83.931 30.1304" stroke="#FF0000" stroke-opacity="0.5"/>
<path d="M89.0345 30.1304L84.3564 36.7888L78.8276 38.8696V45.1118" stroke="#FF0000" stroke-opacity="0.5"/>
<path d="M89.4597 1.4162L94.1379 5.99384L89.4597 9.73918" stroke="#FF0000" stroke-opacity="0.5"/>
<path d="M89.0346 51.7702L84.7817 48.0249V40.5342" stroke="#FF0000" stroke-opacity="0.5"/>
<path d="M75 51.7702L80.5287 50.1056L82.2299 42.6149" stroke="#FF0000" stroke-opacity="0.5"/>
<path d="M89.8849 58.8447L81.8044 62.5901L80.1033 65.5031" stroke="#FF0000" stroke-opacity="0.5"/>
<path d="M75 55.9316L78.8276 55.0993L83.5057 51.354" stroke="#FF0000" stroke-opacity="0.5"/>
<path d="M89.0345 55.9316H83.0805L77.1265 63.4223" stroke="#FF0000" stroke-opacity="0.5"/>
<path d="M75.4253 67.1677L77.5517 65.5031" stroke="#FF0000" stroke-opacity="0.5"/>
<path d="M85.6321 67.1677V65.087L87.7585 63.4224" stroke="#FF0000" stroke-opacity="0.5"/>
<path d="M94.5632 33.4597L98.8161 36.7888L94.5632 40.5342" stroke="#FF0000" stroke-opacity="0.5"/>
<path d="M101.793 45.1118L104.77 40.9503L101.793 36.7888" stroke="#FF0000" stroke-opacity="0.5"/>
<path d="M92.4367 45.5279L87.7585 43.031L89.4597 35.1242" stroke="#FF0000" stroke-opacity="0.5"/>
<path d="M103.069 1.4162L107.747 6.40999L100.517 9.32303" stroke="#FF0000" stroke-opacity="0.5"/>
<path d="M95.4136 1.4162L97.9653 7.24229" stroke="#FF0000" stroke-opacity="0.5"/>
<path d="M100.517 14.3168L104.345 12.236" stroke="#FF0000" stroke-opacity="0.5"/>
<path d="M90.3103 13.9006L87.7585 10.5714V6.40991" stroke="#FF0000" stroke-opacity="0.5"/>
<path d="M95.4136 13.4844L97.1147 10.9875" stroke="#FF0000" stroke-opacity="0.5"/>
<path d="M114.552 2.24847L117.103 7.24226L114.552 10.5715" stroke="#FF0000" stroke-opacity="0.5"/>
<path d="M112.425 18.0621L110.299 12.236L112.425 5.57764" stroke="#FF0000" stroke-opacity="0.5"/>
<path d="M125.609 11.8199L121.781 16.8137L123.057 23.0559L119.655 27.2174" stroke="#FF0000" stroke-opacity="0.5"/>
<path d="M117.529 41.7826L109.023 35.5404L111.575 31.3789" stroke="#FF0000" stroke-opacity="0.5"/>
<path d="M123.483 38.0372L118.805 33.0435L114.552 35.5404" stroke="#FF0000" stroke-opacity="0.5"/>
<path d="M128.161 30.1305H121.782L116.253 28.882" stroke="#FF0000" stroke-opacity="0.5"/>
<path d="M127.31 22.2236L123.483 25.5528M121.782 7.65839L118.805 14.7329M113.276 23.4721L116.678 21.3913L114.552 15.9814" stroke="#FF0000" stroke-opacity="0.5"/>
<path d="M115.402 66.7516L117.103 62.5901L112 54.6833V48.8572" stroke="#FF0000" stroke-opacity="0.5"/>
<path d="M118.805 45.528L117.529 49.6894L121.782 55.5155L120.506 58.4286" stroke="#FF0000" stroke-opacity="0.5"/>
<path d="M128.586 66.7515L120.931 64.6708L123.483 59.677" stroke="#FF0000" stroke-opacity="0.5"/>
<path d="M105.196 48.0248L108.173 44.6956V39.7018" stroke="#FF0000" stroke-opacity="0.5"/>
<path d="M132.839 1L143.471 8.07453L145.597 14.3168" stroke="#FF0000" stroke-opacity="0.5"/>
<path d="M158.356 67.5839L163.885 58.8447L162.609 51.7702" stroke="#FF0000" stroke-opacity="0.5"/>
<path d="M166.437 66.7516C167.571 65.087 169.669 61.5081 168.989 60.5093C168.308 59.5106 165.586 52.6025 164.311 49.2733" stroke="#FF0000" stroke-opacity="0.5"/>
<path d="M172.391 45.528L165.586 41.7826L166.862 35.9565" stroke="#FF0000" stroke-opacity="0.5"/>
<path d="M178.77 31.795L176.644 25.9689L181.322 16.8137" stroke="#FF0000" stroke-opacity="0.5"/>
<path d="M182.172 1.83228V5.16147L184.299 9.32296L182.172 13.4844" stroke="#FF0000" stroke-opacity="0.5"/>
<path d="M197.908 1.83228L185.149 5.99377L187.276 9.73911" stroke="#FF0000" stroke-opacity="0.5"/>
<path d="M184.299 22.2236V17.2298L186.425 14.3168" stroke="#FF0000" stroke-opacity="0.5"/>
<path d="M166.862 28.0497L173.241 23.0559L176.218 18.4783" stroke="#FF0000" stroke-opacity="0.5"/>
<path d="M174.092 39.7018L170.69 35.1242V30.9627" stroke="#FF0000" stroke-opacity="0.5"/>
<path d="M152.402 7.24225V16.3975L156.655 23.8882V29.7143" stroke="#FF0000" stroke-opacity="0.5"/>
<path d="M144.747 22.2236L147.724 19.3106L146.023 4.74536" stroke="#FF0000" stroke-opacity="0.5"/>
<path d="M152.402 31.795V25.1366L149 18.8944" stroke="#FF0000" stroke-opacity="0.5"/>
<path d="M148.575 1.83228V5.99377" stroke="#FF0000" stroke-opacity="0.5"/>
<path d="M158.782 43.4472V33.8758L161.759 30.9627" stroke="#FF0000" stroke-opacity="0.5"/>
<path d="M171.966 53.4348L168.138 47.6087" stroke="#FF0000" stroke-opacity="0.5"/>
<path d="M159.207 53.851L161.759 46.3603C163.46 46.3603 166.607 46.3603 165.586 46.3603C164.566 46.3603 162.609 39.4245 161.759 35.9565" stroke="#FF0000" stroke-opacity="0.5"/>
<path d="M226.828 1.4162L233.632 6.40999H243.414M277.012 1.4162L273.184 5.57769L265.529 8.90688" stroke="#FF0000" stroke-opacity="0.5"/>
<path d="M277.437 14.3168L273.184 11.4038V8.49072" stroke="#FF0000" stroke-opacity="0.5"/>
<path d="M267.655 14.3168L261.701 10.9876L260.851 8.07452" stroke="#FF0000" stroke-opacity="0.5"/>
<path d="M266.379 1L261.276 4.32919L262.126 6.40994" stroke="#FF0000" stroke-opacity="0.5"/>
<path d="M252.345 1L255.322 5.57764L251.494 6.40994" stroke="#FF0000" stroke-opacity="0.5"/>
<path d="M234.908 1L239.586 3.91304H243.839" stroke="#FF0000" stroke-opacity="0.5"/>
<path d="M246.816 1L248.517 5.57764L246.816 7.65839" stroke="#FF0000" stroke-opacity="0.5"/>
<path d="M253.195 13.9006L251.494 10.1553L245.54 11.4037" stroke="#FF0000" stroke-opacity="0.5"/>
<path d="M258.724 13.4845L257.023 9.32296L259.149 3.91302" stroke="#FF0000" stroke-opacity="0.5"/>
<path d="M227.253 11.8199L231.081 10.5715L234.908 13.0684" stroke="#FF0000" stroke-opacity="0.5"/>
<path d="M240.862 14.3168L237.885 10.1553L229.805 8.49072" stroke="#FF0000" stroke-opacity="0.5"/>
<path d="M226.828 21.8074L231.081 16.3975H235.333V13.4844" stroke="#FF0000" stroke-opacity="0.5"/>
<path d="M241.287 24.3044C240.862 23.4721 239.841 21.8075 239.161 21.8075C238.48 21.8075 238.027 17.3686 237.885 15.1491" stroke="#FF0000" stroke-opacity="0.5"/>
<path d="M226.828 28.0497L232.356 25.1366V21.3913M241.287 27.2174L237.035 30.5466L238.736 37.205L234.483 38.0373" stroke="#FF0000" stroke-opacity="0.5"/>
<path d="M226.828 34.708L231.081 32.2111L233.632 25.5528L236.184 24.7205" stroke="#FF0000" stroke-opacity="0.5"/>
<path d="M226.402 44.2795L230.23 41.7826L231.506 37.2049L235.333 35.5403" stroke="#FF0000" stroke-opacity="0.5"/>
<path d="M269.356 27.2173L262.552 31.795L251.92 33.8757L249.368 29.7142" stroke="#FF0000" stroke-opacity="0.5"/>
<path d="M242.138 39.7018L245.115 36.7888H251.92L253.195 35.5403" stroke="#FF0000" stroke-opacity="0.5"/>
<path d="M268.08 39.7018L264.253 35.9565L257.874 37.205L256.598 35.1242" stroke="#FF0000" stroke-opacity="0.5"/>
<path d="M245.54 27.6335C245.682 28.6046 246.221 30.5466 247.241 30.5466C248.262 30.5466 247.667 32.7661 247.241 33.8758" stroke="#FF0000" stroke-opacity="0.5"/>
<path d="M226.828 54.6832L231.931 51.7702L231.081 48.0248C231.222 47.3313 231.846 45.9441 233.207 45.9441" stroke="#FF0000" stroke-opacity="0.5"/>
<path d="M241.287 48.8572C241.145 49.8282 240.692 51.9367 240.011 52.6025C239.161 53.4348 240.437 57.5963 241.287 57.1802" stroke="#FF0000" stroke-opacity="0.5"/>
<path d="M226.402 60.5094L231.506 56.764L236.184 50.9379" stroke="#FF0000" stroke-opacity="0.5"/>
<path d="M241.287 43.8633H237.885L236.609 48.8571" stroke="#FF0000" stroke-opacity="0.5"/>
<path d="M229.805 67.1677L231.931 64.2547L237.46 63.4224V59.2609" stroke="#FF0000" stroke-opacity="0.5"/>
<path d="M249.368 54.6832L253.621 58.0124L250.218 60.5093V63.0062M240.437 67.1677L242.138 64.2547L245.54 60.0932L243.839 56.3478" stroke="#FF0000" stroke-opacity="0.5"/>
<path d="M263.402 54.2671L266.379 58.0124L264.253 62.5901L267.655 64.6708" stroke="#FF0000" stroke-opacity="0.5"/>
<path d="M256.598 54.2671L257.874 58.8447L254.471 63.4224" stroke="#FF0000" stroke-opacity="0.5"/>
<path d="M252.77 67.5839L259.575 64.6708L261.276 58.4286" stroke="#FF0000" stroke-opacity="0.5"/>
<path d="M246.816 67.1677C247.383 66.058 248.347 63.8385 247.667 63.8385C246.986 63.8385 247.383 59.9545 247.667 58.0125" stroke="#FF0000" stroke-opacity="0.5"/>
<path d="M270.632 66.7516L269.356 61.7578L274.46 59.2609L270.632 56.764" stroke="#FF0000" stroke-opacity="0.5"/>
<path d="M278.287 67.1677L274.46 64.2547L275.736 60.9255" stroke="#FF0000" stroke-opacity="0.5"/>
<path d="M278.288 54.2671L276.161 58.0124L277.012 60.9255" stroke="#FF0000" stroke-opacity="0.5"/>
<path d="M356.54 1.4162L363.345 6.40999H373.126M406.724 1.4162L402.896 5.57769L395.241 8.90688" stroke="#FF0000" stroke-opacity="0.5"/>
<path d="M407.149 14.3168L402.896 11.4038V8.49072" stroke="#FF0000" stroke-opacity="0.5"/>
<path d="M397.368 14.3168L391.414 10.9876L390.563 8.07452" stroke="#FF0000" stroke-opacity="0.5"/>
<path d="M396.092 1L390.988 4.32919L391.839 6.40994" stroke="#FF0000" stroke-opacity="0.5"/>
<path d="M382.057 1L385.034 5.57764L381.207 6.40994" stroke="#FF0000" stroke-opacity="0.5"/>
<path d="M364.621 1L369.299 3.91304H373.552" stroke="#FF0000" stroke-opacity="0.5"/>
<path d="M376.529 1L378.23 5.57764L376.529 7.65839" stroke="#FF0000" stroke-opacity="0.5"/>
<path d="M382.908 13.9006L381.207 10.1553L375.253 11.4037" stroke="#FF0000" stroke-opacity="0.5"/>
<path d="M388.437 13.4845L386.736 9.32296L388.862 3.91302" stroke="#FF0000" stroke-opacity="0.5"/>
<path d="M356.966 11.8199L360.793 10.5715L364.621 13.0684" stroke="#FF0000" stroke-opacity="0.5"/>
<path d="M370.575 14.3168L367.598 10.1553L359.517 8.49072" stroke="#FF0000" stroke-opacity="0.5"/>
<path d="M356.54 21.8074L360.793 16.3975H365.046V13.4844" stroke="#FF0000" stroke-opacity="0.5"/>
<path d="M371 24.3044C370.575 23.4721 369.554 21.8075 368.874 21.8075C368.193 21.8075 367.739 17.3686 367.598 15.1491" stroke="#FF0000" stroke-opacity="0.5"/>
<path d="M356.54 28.0497L362.069 25.1366V21.3913M371 27.2174L366.747 30.5466L368.448 37.205L364.195 38.0373" stroke="#FF0000" stroke-opacity="0.5"/>
<path d="M356.54 34.708L360.793 32.2111L363.345 25.5528L365.896 24.7205" stroke="#FF0000" stroke-opacity="0.5"/>
<path d="M356.115 44.2795L359.942 41.7826L361.218 37.2049L365.046 35.5403" stroke="#FF0000" stroke-opacity="0.5"/>
<path d="M399.069 27.2173L392.264 31.795L381.632 33.8757L379.081 29.7142" stroke="#FF0000" stroke-opacity="0.5"/>
<path d="M371.851 39.7018L374.828 36.7888H381.632L382.908 35.5403" stroke="#FF0000" stroke-opacity="0.5"/>
<path d="M397.793 39.7018L393.965 35.9565L387.586 37.205L386.31 35.1242" stroke="#FF0000" stroke-opacity="0.5"/>
<path d="M375.253 27.6335C375.394 28.6046 375.933 30.5466 376.954 30.5466C377.975 30.5466 377.379 32.7661 376.954 33.8758" stroke="#FF0000" stroke-opacity="0.5"/>
<path d="M356.54 54.6832L361.643 51.7702L360.793 48.0248C360.935 47.3313 361.558 45.9441 362.919 45.9441" stroke="#FF0000" stroke-opacity="0.5"/>
<path d="M371 48.8572C370.858 49.8282 370.404 51.9367 369.724 52.6025C368.873 53.4348 370.149 57.5963 371 57.1802" stroke="#FF0000" stroke-opacity="0.5"/>
<path d="M356.115 60.5094L361.218 56.764L365.896 50.9379" stroke="#FF0000" stroke-opacity="0.5"/>
<path d="M371 43.8633H367.598L366.322 48.8571" stroke="#FF0000" stroke-opacity="0.5"/>
<path d="M359.517 67.1677L361.644 64.2547L367.172 63.4224V59.2609" stroke="#FF0000" stroke-opacity="0.5"/>
<path d="M379.08 54.6832L383.333 58.0124L379.931 60.5093V63.0062M370.149 67.1677L371.851 64.2547L375.253 60.0932L373.552 56.3478" stroke="#FF0000" stroke-opacity="0.5"/>
<path d="M393.115 54.2671L396.092 58.0124L393.966 62.5901L397.368 64.6708" stroke="#FF0000" stroke-opacity="0.5"/>
<path d="M386.31 54.2671L387.586 58.8447L384.184 63.4224" stroke="#FF0000" stroke-opacity="0.5"/>
<path d="M382.483 67.5839L389.288 64.6708L390.989 58.4286" stroke="#FF0000" stroke-opacity="0.5"/>
<path d="M376.529 67.1677C377.096 66.058 378.06 63.8385 377.379 63.8385C376.699 63.8385 377.096 59.9545 377.379 58.0125" stroke="#FF0000" stroke-opacity="0.5"/>
<path d="M400.345 66.7516L399.069 61.7578L404.172 59.2609L400.345 56.764" stroke="#FF0000" stroke-opacity="0.5"/>
<path d="M408 67.1677L404.172 64.2547L405.448 60.9255" stroke="#FF0000" stroke-opacity="0.5"/>
<path d="M408 54.2671L405.874 58.0124L406.724 60.9255" stroke="#FF0000" stroke-opacity="0.5"/>
<path d="M298.701 1L294.448 9.32298L297 15.1491" stroke="#FF0000" stroke-opacity="0.5"/>
<path d="M282.54 1.4162L288.069 5.16154L291.046 10.9876" stroke="#FF0000" stroke-opacity="0.5"/>
<path d="M347.184 1L339.103 6.82609L337.402 12.236" stroke="#FF0000" stroke-opacity="0.5"/>
<path d="M331.448 1.4162V5.99384L329.322 13.0684" stroke="#FF0000" stroke-opacity="0.5"/>
<path d="M337.402 1.4162L336.126 5.16154L334.425 10.9876" stroke="#FF0000" stroke-opacity="0.5"/>
<path d="M308.908 67.5839L314.011 56.764V50.9379" stroke="#FF0000" stroke-opacity="0.5"/>
<path d="M318.264 68L316.138 61.3416L318.264 56.764" stroke="#FF0000" stroke-opacity="0.5"/>
<path d="M322.092 49.6895L317.414 45.9441L314.437 36.3727" stroke="#FF0000" stroke-opacity="0.5"/>
<path d="M324.218 40.118L322.092 35.9565H318.69" stroke="#FF0000" stroke-opacity="0.5"/>
<path d="M328.471 33.0434L325.069 28.0497L330.598 18.0621" stroke="#FF0000" stroke-opacity="0.5"/>
<path d="M333.575 24.3043H328.471L333.575 16.8137" stroke="#FF0000" stroke-opacity="0.5"/>
<path d="M319.54 23.0559L321.241 29.7143L325.494 33.0435" stroke="#FF0000" stroke-opacity="0.5"/>
<path d="M308.483 43.8634L314.011 37.6211L310.184 28.882" stroke="#FF0000" stroke-opacity="0.5"/>
<path d="M307.207 55.5155L310.184 49.6894L312.31 44.2795L316.563 49.6894" stroke="#FF0000" stroke-opacity="0.5"/>
<path d="M304.23 36.7889V24.3044H308.908" stroke="#FF0000" stroke-opacity="0.5"/>
<path d="M298.701 26.3851L301.678 20.559V10.1553" stroke="#FF0000" stroke-opacity="0.5"/>
<path d="M292.322 17.646H295.299L292.322 11.4037" stroke="#FF0000" stroke-opacity="0.5"/>
<path d="M291.046 1.4162V6.40999" stroke="#FF0000" stroke-opacity="0.5"/>
<path d="M305.931 16.3975V20.559" stroke="#FF0000" stroke-opacity="0.5"/>
<path d="M301.678 4.74536L299.126 9.73915V14.7329" stroke="#FF0000" stroke-opacity="0.5"/>
</svg>
