<svg width="32" height="32" viewBox="0 0 32 32" fill="none" xmlns="http://www.w3.org/2000/svg">
<rect width="32" height="32" rx="16" fill="white"/>
<path d="M32 16C32 24.8366 24.8366 32 16 32C7.16344 32 0 24.8366 0 16C0 7.16344 7.16344 0 16 0C24.8366 0 32 7.16344 32 16ZM16 19.2256C14.3599 19.2239 13.029 20.5519 13.0272 22.192C13.0254 23.8321 14.3535 25.163 15.9936 25.1648C17.6336 25.1666 18.9646 23.8385 18.9664 22.1984C18.9664 22.1963 18.9664 22.1942 18.9664 22.1921C18.9664 20.5537 17.6383 19.2256 16 19.2256ZM13.1808 8.55681L13.6608 17.3312C13.6829 17.7426 14.0232 18.0646 14.4352 18.064H17.5648C17.9767 18.0646 18.3171 17.7426 18.3392 17.3312L18.8192 8.55681C18.8404 8.12787 18.5099 7.76294 18.0809 7.74175C18.0689 7.74112 18.0568 7.74081 18.0448 7.74081H13.9552C13.5258 7.74206 13.1786 8.09119 13.1798 8.52069C13.1799 8.53269 13.1802 8.54475 13.1808 8.55681Z" fill="black"/>
</svg>
