<svg width="62" height="62" viewBox="0 0 62 62" fill="none" xmlns="http://www.w3.org/2000/svg">
<rect width="62" height="62" rx="31" fill="white"/>
<path d="M62 31C62 48.1208 48.1208 62 31 62C13.8792 62 0 48.1208 0 31C0 13.8792 13.8792 0 31 0C48.1208 0 62 13.8792 62 31ZM31 37.2496C27.8224 37.2463 25.2437 39.8194 25.2402 42.997C25.2368 46.1746 27.8099 48.7533 30.9875 48.7568C34.1651 48.7602 36.7438 46.1871 36.7474 43.0095C36.7474 43.0054 36.7474 43.0012 36.7474 42.9971C36.7474 39.8228 34.1742 37.2496 31 37.2496ZM25.5378 16.5788L26.4678 33.5792C26.5107 34.3762 27.17 35.0001 27.9682 34.999H34.0318C34.83 35.0002 35.4893 34.3762 35.5322 33.5792L36.4622 16.5788C36.5032 15.7478 35.8629 15.0407 35.0318 14.9996C35.0084 14.9984 34.9851 14.9978 34.9618 14.9978H27.0382C26.2061 15.0002 25.5336 15.6767 25.5359 16.5088C25.536 16.5321 25.5366 16.5555 25.5378 16.5788Z" fill="black"/>
</svg>
