<svg width="526" height="413" viewBox="0 0 526 413" fill="none" xmlns="http://www.w3.org/2000/svg">
<path d="M280.471 229.852C302.358 149.21 254.653 66.1014 173.919 44.2242C93.1848 22.3471 9.99371 69.9855 -11.8935 150.628C-33.7808 231.27 13.9241 314.378 94.6582 336.255C175.392 358.132 258.583 310.494 280.471 229.852Z" fill="url(#paint0_radial_399_235)"/>
<path d="M501.263 311.251C507.58 255.854 467.742 205.822 412.283 199.502C356.823 193.182 306.744 232.967 300.426 288.365C294.109 343.763 333.947 393.795 389.406 400.115C444.866 406.435 494.946 366.649 501.263 311.251Z" fill="url(#paint1_radial_399_235)"/>
<defs>
<radialGradient id="paint0_radial_399_235" cx="0" cy="0" r="1" gradientUnits="userSpaceOnUse" gradientTransform="translate(151.211 180.486) rotate(-120.266) scale(165.503 165.567)">
<stop offset="0.25" stop-color="white"/>
<stop offset="0.46" stop-color="#FCFCFC"/>
<stop offset="0.61" stop-color="#F4F3F2"/>
<stop offset="0.74" stop-color="#E5E4E2"/>
<stop offset="0.86" stop-color="#D2CFCC"/>
<stop offset="0.97" stop-color="#B8B4AF"/>
</radialGradient>
<radialGradient id="paint1_radial_399_235" cx="0" cy="0" r="1" gradientUnits="userSpaceOnUse" gradientTransform="translate(405.073 287.316) rotate(-161.232) scale(110.474 110.366)">
<stop offset="0.25" stop-color="white"/>
<stop offset="0.46" stop-color="#FCFCFC"/>
<stop offset="0.61" stop-color="#F4F3F2"/>
<stop offset="0.74" stop-color="#E5E4E2"/>
<stop offset="0.86" stop-color="#D2CFCC"/>
<stop offset="0.97" stop-color="#B8B4AF"/>
</radialGradient>
</defs>
</svg>
