<svg width="450" height="282" viewBox="0 0 450 282" fill="none" xmlns="http://www.w3.org/2000/svg">
<path style="mix-blend-mode:multiply" d="M321.476 169.398C383.464 116.447 390.733 23.317 337.713 -38.6123C284.692 -100.542 191.46 -107.819 129.472 -54.8672C67.4838 -1.91536 60.2143 91.2142 113.235 153.143C166.255 215.073 259.488 222.35 321.476 169.398Z" fill="url(#paint0_radial_221_4)"/>
<path d="M333.895 63.3547C350.063 3.78691 314.825 -57.6026 255.189 -73.7626C195.553 -89.9226 134.102 -54.7336 117.935 4.83423C101.767 64.402 137.005 125.792 196.641 141.952C256.277 158.112 317.728 122.923 333.895 63.3547Z" fill="url(#paint1_radial_221_4)"/>
<defs>
<radialGradient id="paint0_radial_221_4" cx="0" cy="0" r="1" gradientUnits="userSpaceOnUse" gradientTransform="translate(225.5 57.2513) rotate(4.46336) scale(147.697 147.533)">
<stop offset="0.59" stop-color="#8F5F33"/>
<stop offset="0.6" stop-color="#926339"/>
<stop offset="0.65" stop-color="#AE8C6D"/>
<stop offset="0.71" stop-color="#C7AF99"/>
<stop offset="0.77" stop-color="#DBCCBE"/>
<stop offset="0.83" stop-color="#EBE2DA"/>
<stop offset="0.89" stop-color="#F6F2EE"/>
<stop offset="0.94" stop-color="#FCFBFA"/>
<stop offset="1" stop-color="white"/>
</radialGradient>
<radialGradient id="paint1_radial_221_4" cx="0" cy="0" r="1" gradientUnits="userSpaceOnUse" gradientTransform="translate(238.415 26.8895) rotate(-120.266) scale(122.252 122.299)">
<stop offset="0.25" stop-color="white"/>
<stop offset="0.46" stop-color="#FCFCFC"/>
<stop offset="0.61" stop-color="#F4F3F2"/>
<stop offset="0.74" stop-color="#E5E4E2"/>
<stop offset="0.86" stop-color="#D2CFCC"/>
<stop offset="0.97" stop-color="#B8B4AF"/>
</radialGradient>
</defs>
</svg>
