<svg width="128" height="128" viewBox="0 0 128 128" fill="none" xmlns="http://www.w3.org/2000/svg">
<path style="mix-blend-mode:multiply" d="M107.906 75.167C101.809 99.3054 77.2674 113.99 53.128 107.92C28.9887 101.851 14.3258 77.3322 20.4229 53.1938C26.52 29.0554 51.0618 14.3708 75.2011 20.4404C99.3404 26.5099 114.003 51.0286 107.906 75.167V75.167Z" fill="url(#paint0_radial_271_1371)"/>
<path style="mix-blend-mode:screen" opacity="0.3" d="M108.107 74.4724C103.359 72.6191 99.3926 71.0819 96.2659 69.8173C99.4355 70.7781 103.488 72.0692 108.279 73.6187C100.448 70.92 94.9337 69.0108 91.5759 67.9204C83.3678 64.2393 88.1712 64.6029 109.038 68.6128L109.067 68.4103C79.7181 61.5588 81.8595 61.7558 109.136 66.8193L109.194 66.7758C90.7727 63.0054 83.9854 61.3309 90.9148 61.2696C93.7943 61.7249 100.031 62.5476 109.161 63.7244C101.81 62.7455 96.3408 61.9787 93.0269 61.3075C96.4266 61.371 101.809 61.6608 109.129 62.1192C99.479 61.3342 93.4893 60.9592 90.7694 60.8361C85.9357 59.5904 91.3452 58.9545 108.791 58.3021L108.776 58.0418C81.0437 58.0267 82.9384 57.7759 108.6 56.7262L108.513 56.6107C85.5267 57.0027 81.5765 56.4489 100.781 52.1186C102.734 51.8243 104.903 51.4571 107.29 51.0171C105.771 51.1656 104.397 51.3861 103.081 51.5631C104.353 51.3284 105.742 51.0066 107.13 50.6849L107 50.5117C101.865 51.3927 97.8882 52.126 94.9668 52.6976C84.4517 54.0119 87.1545 52.4285 105.561 46.4371L105.387 46.2061C81.1664 53.1382 82.7859 52.6423 105.329 45.8881L105.242 45.7727C88.0342 50.5896 82.9291 51.6296 91.79 47.0367C94.4648 46.0174 98.3974 44.5032 103.646 42.4505C99.5104 43.9363 96.185 45.1742 93.6259 46.1064C96.0689 44.8997 99.2203 43.4309 103.196 41.6129L103.109 41.4974C96.4443 44.436 91.9915 46.342 89.7219 47.418C84.7187 48.8338 88.2158 46.3807 101.514 38.8984L101.34 38.6674C80.5967 49.4952 81.9553 48.6529 101.035 38.2633L100.905 38.0901C81.6938 47.945 79.6251 47.9648 97.2959 33.6595L97.0785 33.3709C79.825 46.1854 81.1543 45.1841 96.8902 33.2412L96.8032 33.1257C80.9947 44.8519 79.2596 45.4349 94.3982 30.7746C94.3112 30.6592 94.2243 30.5437 94.0795 30.4717C79.1556 43.6129 77.3913 44.0369 90.6468 27.7184L90.4728 27.4874C89.303 28.821 88.2632 29.9661 87.3824 31.082C78.1972 41.2581 77.9214 40.6514 88.1416 26.0762L87.9676 25.8452C75.7972 42.1609 76.5188 41.0744 87.6203 25.7449L87.4463 25.5139C75.8093 40.6134 74.1177 41.2542 82.6688 23.1401C82.524 23.0681 82.2779 22.982 82.1331 22.91C73.1312 39.4634 73.5777 38.1317 80.9606 22.4358L80.8737 22.3204C73.2011 37.8724 72.2191 38.974 78.7026 21.6029L78.4566 21.5167C71.2794 39.4103 71.6538 38.2235 78.1092 21.4164L77.8631 21.3303C71.0312 37.878 69.8174 38.7922 73.8832 20.2559C73.7384 20.1839 73.5794 20.2133 73.3768 20.1849C68.6581 37.4937 68.7429 36.1629 72.3204 19.9851C68.5546 36.0333 67.9634 37.293 70.7576 19.7144L70.5551 19.686C67.2412 38.0179 67.2973 36.8898 69.9473 19.6008L69.6435 19.5582C66.4727 36.8774 65.3751 38.0662 65.1439 19.2372C64.9413 19.2088 64.681 19.2239 64.4206 19.2391C63.5508 37.0875 63.0135 35.7728 62.0915 19.274L61.9759 19.3611C62.5506 35.7595 62.408 37.1338 60.6884 19.3355L60.428 19.3506C61.7728 37.9742 61.4238 36.7893 59.3287 19.4547L59.0683 19.4698C60.7439 36.8489 60.1527 38.1086 55.5828 20.0139C55.4237 20.0433 55.2068 20.1161 55.0042 20.0877C58.416 37.6069 57.6475 36.4664 52.8205 20.5562L52.7627 20.5997C57.3872 36.4815 57.7218 37.7678 52.4445 20.6584L52.3289 20.7454C57.6365 38.7369 57.0128 37.6684 51.1575 20.9943L50.9841 21.1249C56.4348 38.1037 56.191 39.4638 47.6295 22.2038C47.4561 22.3344 47.1957 22.3495 47.0223 22.4801C54.2528 39.6568 52.9493 38.6478 44.1021 23.7748L43.9865 23.8618C52.7037 38.9232 53.3423 40.2521 43.4949 24.0511L43.2637 24.2253C53.0692 41.4531 51.8962 40.6174 40.9798 25.4026L40.7486 25.5767C51.2604 41.0963 51.5808 42.4838 38.3061 27.145L37.8438 27.4932C47.106 39.4294 48.2669 41.8126 42.313 36.4337C40.6902 34.7603 38.3865 32.4234 35.3727 29.264L35.2571 29.3511C36.6916 30.8948 38.0391 32.323 39.2128 33.5204C37.9813 32.3666 36.6195 31.0396 35.0694 29.5829L35.0116 29.6265C37.5905 32.2085 39.8216 34.3287 41.4009 35.9443C48.7767 44.0529 45.7061 41.6602 33.4223 31.0045L33.2489 31.1351C48.083 44.5754 48.8807 45.8749 31.559 32.8604L31.1544 33.1652C47.45 46.862 45.4821 46.5345 28.4686 36.455L28.353 36.5421C45.4248 46.9395 46.9452 47.8757 28.2809 36.6869L28.0497 36.861C47.3961 49.4364 45.3852 49.4126 25.3507 40.9752L25.1195 41.1493C45.1116 50.2521 46.4151 51.2611 24.11 43.1766C23.9944 43.2637 23.9657 43.4662 23.9079 43.5098C38.9771 49.8052 42.3653 51.7778 35.7524 50.6957C33.0749 49.9072 28.7042 48.6748 22.3363 46.9558L22.2207 47.0429C25.7812 48.1617 28.7047 49.0363 31.0784 49.7822C28.6183 49.2824 25.5649 48.5961 22.0193 47.7376C26.8095 48.9255 30.6589 49.8267 33.4085 50.4704C44.7125 54.1724 39.6779 53.9829 20.7807 51.3852L20.7521 51.5878C44.5116 55.2287 46.2483 55.7303 20.4212 52.8323L20.3783 53.1361C45.6571 56.99 43.2278 57.7339 19.4309 58.0123C43.5031 57.979 45.7887 57.8863 19.4023 58.2148L19.3593 58.5187C47.194 59.2711 45.0262 60.7229 19.0379 65.9096L19.0092 66.1121C45.3312 61.4886 47.3707 61.3098 19.127 67.4713L19.1419 67.7315C38.753 64.1811 43.4976 63.8651 35.9363 66.9361C32.7551 67.8844 27.405 69.5613 19.6692 72.0399L19.7562 72.1553C23.4146 71.1191 26.6393 70.2285 29.3867 69.426C26.6685 70.3876 23.5165 71.4948 19.8151 72.8349C24.4275 71.2611 28.2737 69.9929 31.3101 68.9728C47.6795 64.6063 42.9102 67.6557 21.3283 78.5724L21.4153 78.6879C47.5804 66.0383 49.6331 65.0351 21.4737 79.0059L21.5606 79.1213C49.6205 66.221 47.3668 68.2805 23.4339 83.7733C47.7142 68.3808 50.0988 66.8561 23.8401 84.5532L23.9271 84.6687C52.1538 67.2992 50.8414 70.007 28.785 92.321L28.872 92.4365C51.5218 70.3089 53.3565 68.6555 29.3938 93.1293C53.4594 69.7543 51.8289 72.5208 32.5816 96.5196C52.0893 72.5057 53.9807 70.0856 32.8425 96.8661C55.5573 69.8935 54.8384 72.7878 38.8245 101.681C55.4604 72.7717 56.8168 70.4832 39.288 102.056C57.1074 71.3502 56.0852 74.5634 42.7197 104.086C56.3456 74.5483 57.7878 71.6521 45.1808 105.309C59.7547 71.2566 59.9908 74.3364 53.7495 108.266C60.5985 74.4216 61.2888 71.7299 55.1967 108.624C61.6951 72.5098 61.5266 75.8943 57.9171 109.108C61.6714 75.9662 62.245 72.6385 60.6662 109.391C63.5893 71.8975 64.4326 74.7009 67.5955 109.329C64.9242 74.5116 64.862 71.6628 69.6928 109.107C65.4994 72.2685 66.1264 75.5064 71.4863 108.842C66.3289 75.5348 66.1357 72.1512 76.1862 107.745C67.5086 71.2076 69.1325 73.6041 82.3454 105.459L82.4032 105.415C69.7111 73.5303 68.8534 70.8281 84.6728 104.339C69.4474 71.3762 70.7828 74.3519 84.7306 104.296C70.9854 74.3803 69.8812 71.2304 88.9076 101.783C70.8054 70.1723 72.7612 72.0473 92.6068 98.9966L92.6646 98.9531C75.8912 75.4812 72.5708 70.4714 87.2651 87.0937C89.4681 89.778 92.1202 92.9383 95.2216 96.5747C93.2795 94.2369 91.5114 92.13 89.9315 90.1528C91.5835 91.9852 93.3951 94.1498 95.395 96.4441C91.5835 91.9852 88.4822 88.3488 86.0474 85.4771C75.2494 71.983 77.9858 73.4511 99.1641 92.0668L99.2797 91.9798C74.1005 68.0523 76.3013 69.2904 101.3 89.0098L101.358 88.9663C85.5124 76.1071 79.139 70.7726 84.3514 73.7239C86.4807 75.4683 92.7516 80.0655 102.44 87.1557C94.9095 81.6073 89.5506 77.4995 86.5957 75.0197C89.9695 77.0935 95.4578 80.6514 103.205 85.7654C93.966 79.5128 88.1012 75.6955 85.35 73.9672C80.9605 69.9436 86.751 72.4595 105.037 81.9427L105.152 81.8557C76.7588 65.6881 78.9298 66.4056 106.031 79.2936L106.088 79.2501C85.0962 68.8193 79.406 65.5945 92.504 69.3931C95.9345 70.7003 100.885 72.5821 107.268 74.9229L108.107 74.4724Z" fill="url(#paint1_radial_271_1371)"/>
<path style="mix-blend-mode:color-dodge" opacity="0.3" d="M42.9503 27.539C62.5488 15.6729 88.0483 21.9847 99.8972 41.5646C111.746 61.1446 105.405 86.643 85.8067 98.5091C66.2082 110.375 40.7086 104.063 28.8597 84.4835C17.0108 64.9036 23.3518 39.4051 42.9503 27.539Z" fill="url(#paint2_linear_271_1371)"/>
<defs>
<radialGradient id="paint0_radial_271_1371" cx="0" cy="0" r="1" gradientUnits="userSpaceOnUse" gradientTransform="translate(62.375 -13.2087) rotate(14.0715) scale(153.231 153.266)">
<stop stop-color="#0085FF"/>
<stop offset="0.1" stop-color="#0064F9"/>
<stop offset="0.24" stop-color="#0500E8"/>
<stop offset="0.39" stop-color="#2900CD"/>
<stop offset="0.54" stop-color="#0E00AD"/>
<stop offset="0.6" stop-color="#0040A1"/>
<stop offset="0.72" stop-color="#220082"/>
<stop offset="0.86" stop-color="#000351"/>
<stop offset="1" stop-color="#02001F"/>
</radialGradient>
<radialGradient id="paint1_radial_271_1371" cx="0" cy="0" r="1" gradientUnits="userSpaceOnUse" gradientTransform="translate(62.1192 55.8575) rotate(17.7126) scale(69.7047 69.7304)">
<stop stop-color="#FFA600"/>
<stop offset="0.08" stop-color="#F9A100"/>
<stop offset="0.19" stop-color="#E89300"/>
<stop offset="0.31" stop-color="#CD7D00"/>
<stop offset="0.44" stop-color="#A85F00"/>
<stop offset="0.54" stop-color="#874400"/>
<stop offset="0.64" stop-color="#763E00"/>
<stop offset="0.82" stop-color="#4B2F00"/>
<stop offset="1" stop-color="#1E1F00"/>
</radialGradient>
<linearGradient id="paint2_linear_271_1371" x1="50.4162" y1="87.6934" x2="128.049" y2="-50.025" gradientUnits="userSpaceOnUse">
<stop/>
<stop offset="1" stop-color="white"/>
</linearGradient>
</defs>
</svg>
