<svg width="282" height="175" viewBox="0 0 282 175" fill="none" xmlns="http://www.w3.org/2000/svg">
<mask id="mask0_102_263" style="mask-type:alpha" maskUnits="userSpaceOnUse" x="29" y="-78" width="224" height="224">
<path style="mix-blend-mode:overlay" d="M248.895 63.3546C265.063 3.78677 229.825 -57.6027 170.189 -73.7627C110.553 -89.9227 49.1023 -54.7337 32.9349 4.8341C16.7674 64.4019 52.0055 125.791 111.641 141.951C171.277 158.111 232.728 122.922 248.895 63.3546Z" fill="url(#paint0_radial_102_263)"/>
</mask>
<g mask="url(#mask0_102_263)">
<path style="mix-blend-mode:multiply" d="M31.6473 85.4512C25.7928 90.0607 20.3385 93.1533 13.7484 95.4536C20.9979 91.0234 25.4003 84.2599 27.3312 76.6703C28.559 71.7701 28.0573 67.3682 28.2185 62.5958C28.5553 54.6706 32.8113 48.8809 38.9369 42.6038C39.0878 42.4748 38.8942 42.2486 38.7377 42.4475C33.6261 47.4668 28.5736 52.6314 27.6348 59.243C26.8262 65.0907 28.0326 70.392 26.5773 76.4004C26.7521 74.1622 25.6282 72.3153 22.953 70.4881C21.0799 69.216 18.9947 69.7569 16.9006 68.6083C13.0515 66.4783 12.9371 62.5288 13.2429 58.6121C13.6742 53.0868 16.346 47.7364 20.1 42.9629C15.1811 49.1231 11.909 56.7488 13.0544 63.7342C13.5307 66.6564 14.5264 67.4378 16.7278 69.017C19.1984 70.7579 23.5986 71.2421 25.2926 73.9076C26.11 75.1676 25.5088 78.3576 25.2159 80.305C25.2104 80.3749 25.205 80.4449 25.345 80.4558C22.9686 86.533 18.8263 91.7686 12.87 95.8776C10.9895 96.5048 8.89887 97.1157 6.74373 97.6511L6.53367 97.6347C4.96597 97.8642 3.52738 98.2444 1.94876 98.6138C1.51773 98.7209 1.49043 99.0706 1.60863 99.3613C-0.519217 99.547 -2.65798 99.8726 -4.84589 100.828C-5.28238 101.005 -5.33151 101.634 -4.76591 101.608C2.54972 100.842 9.40156 100.603 15.9007 97.6622C20.8794 96.1509 25.7627 93.1545 30.1831 89.7701C33.3567 88.8216 36.2602 88.626 39.7984 89.3244C43.1266 90.0064 46.0445 91.4304 49.5345 91.8436C57.4193 92.8109 65.3551 91.3193 73.271 88.2781C73.4165 88.2191 73.3684 87.9339 73.2174 88.0628C59.9027 92.5825 50.0638 90.4775 38.2654 87.3048C36.8168 86.9103 35.562 86.742 34.3607 86.7889C35.8057 85.424 37.2507 84.0591 38.6957 82.6942C42.0222 79.7873 45.4942 76.8215 48.9498 74.0654C54.6306 70.7794 60.4594 70.1085 67.4667 70.5851C73.9785 71.0934 79.6117 72.0257 86.3627 70.3713C86.6482 70.3232 86.611 69.8981 86.3955 69.9517C75.6798 71.8595 65.4982 67.8279 54.8625 70.516C54.2159 70.6767 53.6394 70.8428 53.0574 71.0788C64.4099 62.8172 76.7453 57.3064 90.8261 61.9238C91.1708 62.0211 91.4891 61.5534 91.1499 61.3862C79.8917 56.7075 66.6752 59.9683 55.0709 66.9436C47.8269 71.3038 41.8905 76.9624 35.5449 82.4482C34.7901 83.093 34.0353 83.7378 33.2806 84.3825C36.8836 79.738 38.4461 74.1603 41.0052 68.4492C42.1066 66.0723 43.337 63.8463 44.7611 61.8464C48.1367 58.3101 51.787 54.8656 56.8238 54.4143C60.1583 54.1117 62.3553 54.8461 65.4088 55.4363C69.8517 56.2757 74.2638 55.7053 78.7742 53.876C79.2107 53.699 79.0389 53.193 78.6079 53.3001C73.2463 55.2037 68.9261 55.4997 63.8693 54.4013C61.656 53.8767 59.4482 53.2822 56.9702 53.4406C53.4256 53.7269 50.3966 55.5311 47.8194 57.8631C57.8444 46.7536 73.1688 41.7575 88.2783 41.3185C88.4884 41.3349 88.4402 41.0497 88.3001 41.0387C75.9114 40.9161 62.9805 44.1288 52.4036 52.3805C47.6758 56.0927 43.8036 60.5754 41.2236 65.6516C37.7314 72.4861 36.6571 79.9315 31.631 85.6611L31.6473 85.4512ZM91.8089 157.629C88.8778 163.593 84.3264 168.656 76.6796 171.859C76.4641 171.912 76.6523 172.209 76.7978 172.15C85.1338 169.141 89.9336 163.605 92.9947 156.878C94.2306 154.582 95.1919 152.194 96.8315 150.14C99.4797 146.899 103.246 145.575 106.604 143.163C110.254 140.633 111.933 137.175 113.515 133.147C113.526 133.007 113.386 132.996 113.305 133.131C111.059 138.444 108.497 141.481 103.527 144.682C101.969 145.686 100.218 146.464 98.7194 147.614C96.466 149.408 95.3056 151.64 94.2043 154.017C96.3379 148.343 97.5294 142.103 98.7209 135.863C101.46 127.843 109.333 124.447 115.383 119.149C121.102 115.374 127.802 115.263 134.085 113.291C139.517 111.393 144.971 113.718 150.37 111.325C155.328 109.179 159.254 104.912 161.871 100.261C161.952 100.126 161.753 99.9699 161.672 100.104C158.073 106.508 152.056 111.386 144.601 112.141C141.546 112.466 138.622 112.027 135.75 112.717C136.618 112.433 137.421 112.074 138.299 111.65C144.971 108.3 148.436 101.815 151.545 95.3732C151.556 95.2333 151.427 95.0825 151.346 95.217C148.723 99.9379 146.127 105.224 141.911 108.695C137.62 112.23 132.62 113.106 127.389 114.246C123.235 115.118 119.706 116.109 116.369 118.241C116.596 118.048 116.828 117.784 117.054 117.591C120.721 113.937 123.591 109.657 125.922 105.054C130.349 96.1815 133.253 89.653 141.662 83.906C144.789 81.7575 147.085 80.3183 149.377 77.1197C149.534 76.9208 149.265 76.759 149.114 76.888C144.341 82.0745 137.466 84.4228 132.957 89.841C128.211 95.5924 126.678 103.495 122.67 109.726C116.886 118.844 103.393 123.843 99.1057 133.641C100.151 128.375 101.26 123.184 103.102 118.542C107.779 106.453 120.325 100.958 124.512 88.8299C127.775 79.5147 126.654 69.5055 125.641 59.9268C125.646 59.8569 125.501 59.9159 125.501 59.9159C126.983 74.3161 127.841 88.5972 117.105 99.7919C115.724 101.232 114.355 102.533 113.055 103.839C115.056 101.673 115.899 98.9942 115.504 95.9375C115.125 92.671 114.287 89.8614 114.409 86.4933C114.482 83.7546 114.97 81.1187 115.253 78.3965C115.264 78.2566 114.989 78.1648 114.973 78.3746C114.134 81.8979 113.565 85.5829 113.771 89.2581C114.099 94.9834 116.674 99.899 111.993 104.811C111.993 104.811 112.371 104.489 112.522 104.36C108.86 107.944 105.496 111.341 103.045 116.568C99.7355 123.768 98.4501 132.112 96.8311 140.219C96.7761 130.996 93.4784 121.802 95.5458 112.464C98.1707 100.495 105.857 90.4699 105.154 77.8193C105.17 77.6095 104.82 77.5822 104.874 77.7974C105.161 91.26 96.8121 101.656 94.6873 114.438C94.6837 112.678 94.2382 111.166 93.5291 109.421C91.5733 104.695 91.3179 101.649 92.4758 96.7436C93.6609 91.4882 93.9293 87.1464 91.4244 82.2362C91.3653 82.0909 91.1443 82.2144 91.2034 82.3597C94.1266 89.132 91.6866 94.2191 91.087 100.998C90.6721 106.313 94.5893 110.278 94.6109 115.417C93.4165 124.401 96.7469 133.175 96.5491 142.026C95.4286 147.357 94.1089 152.531 91.9172 157.145C92.6853 143.695 85.8905 130.569 90.3805 117.268C90.3915 117.128 90.1869 117.042 90.1705 117.252C84.8457 130.417 92.437 144.168 91.7389 157.624L91.8089 157.629ZM46.7468 -24.0575C47.1833 -24.2345 47.6898 -24.4061 48.1909 -24.5077C48.1208 -24.5132 47.9808 -24.5241 47.9053 -24.4597C47.5443 -24.3471 47.1078 -24.1701 46.7468 -24.0575ZM65.4228 -25.0625C68.3154 -25.1182 71.117 -25.8143 73.7151 -27.5114C75.7202 -28.8326 77.1225 -30.5527 78.6703 -32.3318C81.3775 -35.4277 84.5039 -37.5761 88.416 -38.9596C88.486 -38.9541 88.4323 -39.1694 88.4269 -39.0995C84.4721 -38.0712 81.7231 -36.2451 79.0213 -33.2192C74.9282 -28.613 71.0034 -25.2602 64.8681 -25.1762C62.7839 -25.55 60.6188 -25.7894 58.3782 -25.9643C54.6672 -26.2539 51.3699 -25.5262 48.2609 -24.5023C53.8106 -26.1097 59.8749 -25.2845 65.3518 -24.1533C79.0144 -21.398 89.8525 -16.7522 103.873 -21.2872C104.164 -21.4052 104.051 -21.7658 103.766 -21.7177C89.1533 -17.7216 78.4825 -22.7062 65.5573 -24.9817L65.4228 -25.0625ZM3.0646 -31.1967C6.20492 -20.8891 12.2654 -16.4051 20.0956 -14.7384C26.1124 -9.69488 19.3156 -0.233301 23.8874 6.17513C26.8134 10.2034 31.2927 12.3825 35.6747 14.906C36.5139 15.8863 36.9276 16.9037 37.0548 18.8839C37.2148 20.4445 37.052 21.628 37.0828 23.0377C37.1355 24.1677 37.1291 25.1524 37.5373 26.2397C38.8748 29.8625 42.7457 31.7127 46.0029 33.3039C46.0729 33.3094 46.2238 33.1805 46.0838 33.1695C41.82 30.9368 38.3702 28.2047 37.9985 23.0388C37.9031 21.5537 38.3733 20.0423 38.1379 18.5462C37.9506 17.3354 37.4614 16.3824 36.8213 15.5584C39.7174 17.2622 42.3817 19.2293 44.3393 22.1265C44.3339 22.1964 44.5494 22.1429 44.4848 22.0675C41.9143 17.9966 38.5509 15.0601 34.5245 12.4941C31.8384 10.8067 28.403 9.69413 26.1161 7.40461C19.331 0.471568 23.826 -2.06261 24.4191 -7.85677C24.7185 -10.7888 23.9611 -12.8182 22.4544 -14.2728C23.2946 -14.2072 24.0594 -14.0772 24.9696 -14.0061C33.9445 -9.85755 36.622 0.0621033 47.2256 2.29715C48.5878 2.89605 49.9499 3.49494 51.2366 4.15831C55.2258 6.29924 54.7373 9.84983 55.7301 13.3753C56.8947 17.4068 61.1803 19.3598 64.8149 20.6286C65.2241 20.8013 65.4887 20.1183 65.0795 19.9456C63.3136 19.1041 60.7721 18.2724 59.4755 16.8342C57.6569 14.8627 57.1587 12.2202 56.7087 9.86298C56.4623 8.50678 56.4042 7.44674 55.5813 6.25663C54.4411 4.61955 52.6216 3.56274 50.7102 2.78025C53.2254 3.04694 55.8215 3.17923 58.3313 3.51587C68.3921 4.58267 74.3826 9.0612 80.5475 16.7199C80.8057 17.0215 81.2476 16.7745 81.0649 16.4084C74.0507 6.99465 67.4182 3.52151 55.9034 2.13011C52.4134 1.71696 48.8316 1.57809 45.4552 0.610873C45.1806 0.519071 44.9115 0.35733 44.7069 0.270994C44.6369 0.265529 44.5668 0.260063 44.4968 0.254597C43.743 -0.0153422 42.9192 -0.290754 42.1708 -0.630641C37.5515 -2.82076 35.6112 -6.8424 32.3668 -10.4029C31.0056 -11.9165 29.8327 -13.1339 28.5569 -13.9372C31.7241 -13.9011 34.9777 -14.0693 38.3768 -14.2965C45.8861 -14.8362 52.4415 -14.8875 59.0194 -10.7149C63.0458 -8.14889 66.0637 -4.39496 70.0956 -1.89886C77.6856 2.84526 86.0052 0.0466949 94.4492 1.97242C94.6592 1.98882 94.7511 1.71451 94.471 1.69265C84.0402 -0.951103 75.1659 1.7338 65.9574 -5.74024C62.6421 -8.3915 59.8224 -11.0744 56.3015 -12.8974C61.0191 -11.9662 65.5086 -14.4304 70.2708 -14.9735C77.9475 -15.8519 82.1082 -7.78679 89.2273 -6.03484C89.5774 -6.00751 89.6801 -6.42169 89.341 -6.5889C84.4734 -8.30583 82.112 -11.4456 78.0265 -14.157C76.5571 -15.1864 75.1249 -15.7908 73.2344 -15.9384C66.8036 -16.5811 61.1755 -12.1651 54.6002 -13.6635C54.5302 -13.6689 54.4602 -13.6744 54.4602 -13.6744C53.5072 -14.1006 52.4788 -14.4624 51.3694 -14.6897C44.5895 -16.2744 37.5266 -15.1369 30.6966 -15.1775C28.9353 -15.1743 27.3248 -15.3 25.7844 -15.4202C29.3936 -15.6311 32.8473 -16.5577 36.3665 -18.3236C39.8102 -20.0251 42.4629 -22.4216 46.0303 -23.9023C38.6909 -21.0273 32.2653 -16.3217 23.9749 -15.7022C14.5824 -17.2094 8.85116 -22.301 3.36651 -31.4546C3.24285 -31.6754 2.80636 -31.4984 2.93002 -31.2776L3.0646 -31.1967ZM172.279 -55.6345C177.588 -68.5899 167.909 -74.5525 159.114 -81.0091C159.001 -81.3698 158.732 -81.5315 158.447 -81.4834C152.984 -85.4986 148.038 -89.8252 147.404 -96.1374C147.518 -102.11 147.939 -108.41 150.816 -109.17C151.247 -109.277 151.167 -110.058 150.672 -110.026C148.054 -109.879 147.965 -107.845 147.279 -105.365C146.781 -103.504 146.429 -101.702 146.212 -99.8192C146.206 -99.7492 146.201 -99.6793 146.19 -99.5394C146.179 -99.3995 146.163 -99.1897 146.152 -99.0498C146.119 -98.6302 146.081 -98.1406 146.042 -97.651C145.225 -93.4928 141.48 -92.4481 139.44 -88.8779C137.73 -85.9153 138.011 -82.3046 135.611 -79.5365C132.98 -76.505 128.119 -74.703 124.96 -72.135C122.027 -69.7603 119.692 -66.9168 117.48 -63.8526C117.48 -63.8526 117.469 -63.7127 117.55 -63.8471C120.129 -67.0938 123.008 -69.6838 126.15 -72.042C125.454 -70.3372 125.57 -68.2172 125.692 -66.167C125.772 -59.9685 123.391 -54.7361 118.377 -50.9757C118.377 -50.9757 118.366 -50.8359 118.372 -50.9058C121.417 -52.9198 123.742 -55.6234 125 -59.1139C126.686 -63.5562 124.732 -70.1121 128.172 -73.5731C129.439 -74.4593 130.7 -75.2756 132.031 -76.0865C134.403 -77.5902 136.117 -78.7933 137.773 -81.0566C138.119 -81.874 138.394 -82.6969 138.745 -83.5842C139.556 -85.8431 140.5 -88.0211 141.585 -90.1882C142.691 -91.7203 144.454 -92.6382 145.559 -94.1703L145.716 -94.3692C145.437 -90.8022 145.299 -87.2243 144.455 -83.6311C143.779 -81.2914 142.679 -79.8292 140.172 -77.4917C139.789 -77.0994 139.142 -76.9387 138.754 -76.4765C137.745 -75.2886 137.033 -74.2887 136.423 -72.7882C133.766 -65.8182 134.836 -58.7684 129.168 -52.9481C129.093 -52.8836 129.152 -52.7383 129.298 -52.7973C132.392 -55.4408 133.618 -58.5116 134.575 -61.7442C134.71 -57.1597 135.514 -53.0157 136.635 -48.4247C138.083 -42.6119 136.544 -39.1433 131.892 -35.4956C130.021 -34.0935 128.296 -32.7504 126.619 -31.1222C126.614 -31.0522 126.603 -30.9123 126.754 -31.0413C130.636 -34.7492 137.005 -36.926 137.97 -42.9726C138.41 -45.8937 137.298 -48.7952 136.595 -51.524C135.565 -55.4746 134.96 -59.4623 135.067 -63.5353C135.586 -65.6761 136.041 -67.8924 136.781 -70.1567C138.24 -74.4056 141.394 -76.9037 143.552 -80.1833C141.687 -74.3476 139.856 -68.9316 141.201 -62.7046C143.576 -51.6124 156.206 -40.1418 145.702 -29.2104C145.702 -29.2104 145.691 -29.0705 145.772 -29.205C154.663 -37.5179 148.344 -47.7218 144.772 -57.0076C140.91 -67.0901 143.529 -73.5706 145.908 -82.3918C145.531 -77.5659 144.761 -72.2078 147.219 -68.4976C149.106 -65.6059 152.38 -64.2245 155.421 -62.5798C154.616 -59.4761 155.981 -57.1178 157.745 -54.4469C160.956 -49.552 162.68 -44.5621 161.165 -38.6992C161.16 -38.6292 161.3 -38.6183 161.305 -38.6882C162.327 -41.8454 162.648 -45.0572 161.843 -48.2865C160.711 -52.7376 155.437 -57.3713 156.498 -61.9328C157.37 -61.3721 158.242 -60.8115 159.033 -60.1165C164.824 -54.8795 166.646 -46.645 168.837 -39.5077C168.885 -39.2225 169.251 -39.405 169.198 -39.6202C167.483 -48.3389 164.675 -57.4946 156.989 -62.8092L156.72 -62.971C156.758 -63.4605 156.284 -63.7086 155.918 -63.5261C151.165 -66.7118 147.209 -69.2724 146.693 -76.2086C146.438 -79.2543 146.861 -81.9656 146.595 -84.8714C146.627 -85.2911 146.8 -85.6998 146.903 -86.114C147.211 -87.3565 147.23 -89.3957 147.345 -91.7792C149.22 -86.9183 153.45 -83.3512 157.917 -80.1174C158.702 -78.4377 158.264 -76.4313 158.687 -74.6391C158.945 -73.4227 159.493 -72.3244 160.041 -71.2261C161.52 -68.5071 163.764 -66.5728 165.771 -64.3051C165.771 -64.3051 165.841 -64.2997 165.771 -64.3051C164.13 -66.7553 162.123 -69.0229 160.634 -71.602C159.209 -74.1057 159.535 -76.4728 159.306 -78.9535C167.719 -73.0193 176.304 -67.4938 171.999 -55.6564C171.994 -55.5864 172.128 -55.5055 172.139 -55.6454L172.279 -55.6345ZM260.58 114.51C262.02 112.3 260.427 111.05 258.824 109.025C257.673 107.528 256.371 106.159 254.988 104.925C254.993 104.856 254.929 104.78 254.794 104.699C254.66 104.618 254.53 104.468 254.396 104.387C254.068 104.08 253.739 103.773 253.411 103.465C250.484 100.352 251.894 96.7325 250.217 92.9425C248.841 89.8094 245.752 87.8794 244.969 84.3703C244.079 80.4306 245.522 75.4769 245.273 71.4465C245.072 67.7014 244.155 64.1114 243.028 60.5051C243.028 60.5051 242.888 60.4941 242.958 60.4996C244.052 64.5256 244.458 68.3571 244.502 72.3011C243.572 70.6804 241.752 69.6236 240.089 68.3679C235.014 64.8052 232.169 59.7279 232.095 53.4594L232.025 53.4539C231.881 57.1018 232.67 60.5409 234.681 63.6533C237.257 67.6542 243.702 69.9165 244.451 74.7599C244.406 76.2342 244.356 77.7783 244.231 79.387C244.012 82.1846 243.989 84.2938 244.842 86.8936C245.348 87.6368 245.783 88.3744 246.289 89.1176C247.612 91.1207 248.789 93.1829 249.962 95.3151C250.525 97.1182 250.232 99.0657 250.796 100.869L250.78 101.079C248.143 98.7618 245.36 96.504 242.902 93.7085C241.433 91.7643 240.864 90.0311 240.496 86.6247C240.469 86.0597 240.589 85.4357 240.487 84.9352C240.181 83.4336 239.714 82.2009 238.897 80.9409C234.879 74.6461 228.511 71.4047 227.167 63.3483C227.178 63.2084 226.957 63.3319 227.027 63.3374C227.346 67.3732 229.029 70.1785 231.143 72.8767C227.397 70.3326 223.531 68.4124 219.165 66.5938C213.635 64.3327 211.71 61.0159 211.533 55.1616C211.503 52.8371 211.463 50.6526 211.083 48.3008C211.093 48.1609 210.872 48.2844 210.943 48.2899C211.583 53.6174 209.605 60.0072 213.915 64.3545C216.008 66.4178 218.97 67.2823 221.635 68.3348C225.464 69.8298 228.979 71.7227 232.235 74.2286C233.655 75.8875 235.146 77.5519 236.539 79.5606C239.137 83.2817 239.245 87.3011 240.653 90.9294C237.028 85.9318 233.725 81.3113 227.943 78.6785C217.595 74.0709 200.85 77.4081 198.28 62.5008C198.28 62.5008 198.14 62.4898 198.21 62.4953C199.663 74.5711 211.636 75.5057 221.221 78.1538C231.706 81.0129 235.324 86.9951 241.037 94.1259C237.41 90.9577 233.482 87.1327 229.06 86.9283C225.624 86.7304 222.589 88.6046 219.447 90.0481C217.457 87.5706 214.732 87.2876 211.505 87.1061C205.683 86.7923 200.594 85.1989 196.802 80.5401C196.802 80.5401 196.662 80.5291 196.726 80.6045C198.63 83.2864 201.068 85.447 204.137 86.742C208.439 88.4852 215.249 86.9761 218.353 90.5257C217.405 90.9442 216.392 91.2873 215.39 91.4906C207.729 93.0739 200.035 89.6587 192.9 87.2019C192.62 87.18 192.528 87.4543 192.728 87.6106C200.749 91.3329 209.865 94.5777 218.627 91.5322L218.918 91.4142C219.246 91.7212 219.758 91.4797 219.861 91.0656C225.222 89.1619 229.652 87.4671 235.562 91.1653C238.184 92.7773 240.148 94.6898 242.565 96.2154C242.823 96.517 243.076 96.8886 243.404 97.1957C244.243 98.176 245.837 99.4262 247.769 100.844C242.734 99.4655 237.422 100.74 232.076 102.433C230.272 102.081 228.911 100.568 227.21 99.8018C226.117 99.3646 224.873 99.0564 223.688 98.8936C220.618 98.5132 217.752 99.1339 214.773 99.3939C217.719 99.5535 220.774 99.229 223.633 99.593C226.493 99.9569 228.199 101.568 230.352 102.862C220.589 106.111 211.072 109.801 204.07 99.3325C204.075 99.2625 203.86 99.3161 203.924 99.3915C211.238 111.291 221.783 107.048 232.183 103.779C232.522 103.946 232.813 103.828 232.98 103.489C239.478 101.463 245.863 99.9912 251.311 103.301C256.101 106.912 260.853 111.013 259.789 113.815C259.61 114.293 260.289 114.628 260.532 114.224L260.58 114.51ZM84.7032 -94.2765C84.4722 -94.9278 83.5292 -94.5792 83.6956 -94.0033C85.1721 -89.4549 87.7728 -88.4779 90.888 -85.0682C99.1307 -76.0511 97.7844 -66.0233 98.8232 -54.965C99.7129 -45.607 101.351 -35.9093 109.808 -30.5346C110.012 -30.4482 110.174 -30.7171 110.045 -30.8679C98.9788 -38.9091 99.727 -53.9093 98.7492 -66.6517C99.291 -64.5687 99.9729 -62.4748 100.881 -60.5744C102.633 -56.8489 105.792 -53.9988 107.178 -50.0908C109.208 -44.514 108.254 -38.6073 112.548 -34.0501C112.741 -33.8239 113.049 -34.1518 112.925 -34.3725C109.22 -40.1504 110.088 -46.7674 107.17 -52.695C106.073 -54.8916 104.373 -56.5724 103.05 -58.5756C101.039 -61.688 99.7494 -65.0255 98.6165 -68.5619C98.4829 -69.5575 98.4247 -70.6175 98.2857 -71.5432C97.7884 -75.1003 97.2212 -78.663 95.3445 -81.6945C92.473 -86.4221 86.5343 -88.856 84.7841 -94.4109L84.7032 -94.2765ZM52.1972 -74.9297C51.7571 -76.5121 49.23 -75.7242 49.8156 -74.2008C51.2821 -70.4272 53.6817 -67.7771 56.858 -66.0514C57.7563 -64.9258 58.8111 -63.9991 59.8604 -63.0024C61.326 -58.3141 63.0563 -54.3089 61.8876 -49.2633C61.3682 -47.1225 60.2997 -45.1652 60.265 -42.9162C60.2503 -39.1175 62.6389 -36.3275 66.0525 -34.9351C66.1925 -34.9242 66.2735 -35.0586 66.1389 -35.1395C60.9167 -37.7285 60.8033 -42.5927 62.4567 -47.5301C63.0133 -49.2458 63.5535 -50.7517 63.6955 -52.5702C63.8602 -55.5831 63.1957 -58.8015 61.5663 -61.3915L61.7599 -61.1653C64.5633 -58.2725 66.0735 -55.0585 67.5455 -51.3549C68.7866 -48.3026 69.7804 -45.6918 73.335 -45.2032C67.7826 -46.2699 67.6075 -53.9536 64.967 -58.0299C63.1439 -60.8462 60.4151 -62.8887 58.2147 -65.3826C59.5122 -64.8591 60.8853 -64.4001 62.3393 -64.0755C66.2922 -63.2744 70.667 -64.2699 74.528 -63.1944C82.0399 -61.06 84.7411 -53.2495 86.614 -46.5592C85.2194 -52.1567 83.5129 -58.2711 78.5772 -61.8229C69.7715 -68.1396 55.9311 -60.4944 52.1917 -74.8597L52.1972 -74.9297ZM215.906 143.532C214.219 139.882 211.668 137.361 208.411 135.77C207.437 134.709 206.383 133.782 205.252 132.92C203.566 128.355 201.544 124.468 202.439 119.33C202.818 117.178 203.822 115.146 203.716 112.886C203.521 109.071 200.982 106.41 197.552 105.227C197.412 105.216 197.331 105.351 197.535 105.437C202.919 107.757 203.318 112.573 201.939 117.602C201.453 119.324 200.977 120.905 201.045 122.74C201.096 125.699 201.901 128.928 203.681 131.39C203.611 131.384 203.552 131.239 203.487 131.163C200.533 128.399 198.872 125.314 197.179 121.734C195.792 118.741 194.577 116.254 191.082 115.91C196.656 116.697 197.327 124.349 200.124 128.227C202.092 130.984 204.908 132.822 207.259 135.187C205.956 134.734 204.577 134.345 203.043 134.154C199.003 133.558 194.747 134.844 190.869 133.978C183.255 132.258 180.117 124.624 177.883 118.047C179.569 123.526 181.631 129.598 186.728 132.881C195.858 138.66 209.263 130.277 213.864 144.428C214.38 145.946 216.847 145.013 216.181 143.624L215.906 143.532ZM234.341 12.0478C234.461 11.4238 234.714 10.8807 234.968 10.3375C234.714 10.8807 234.461 11.4238 234.131 12.0314C234.121 12.1713 234.325 12.2576 234.341 12.0478ZM234.968 10.3375C235.465 9.39114 235.956 8.5147 236.517 7.64373C235.886 8.50924 235.395 9.38568 234.968 10.3375ZM230.914 34.2977C239.829 28.3791 244.939 19.771 245.699 9.13453C246.07 4.37855 245.596 -0.373079 245.337 -5.17825C244.904 -13.1636 245.939 -19.2047 247.956 -26.9987C249.607 -29.192 251.414 -31.5841 253.328 -33.5457C253.834 -33.7173 254.346 -33.9588 254.783 -34.1358C255.219 -34.3129 255.118 -34.8134 254.854 -35.0451C257.286 -37.3181 259.862 -38.7355 262.506 -38.3179C263.341 -38.1824 263.445 -39.5113 262.61 -39.6468C258.296 -40.3354 256.263 -37.7498 253.421 -34.7347C252.192 -34.3381 250.888 -33.8769 249.66 -33.4802C249.676 -33.6901 249.477 -33.8463 249.261 -33.7928C241.831 -31.5581 235.395 -32.1309 228.493 -35.7658C225.107 -37.5078 222.125 -39.9219 218.404 -40.9864C212.616 -42.6345 206.474 -41.5658 201.563 -38.2197C201.563 -38.2197 201.558 -38.1498 201.563 -38.2197C207.778 -42.027 215.034 -42.0236 221.343 -38.9275C224.805 -37.2499 227.792 -34.9057 231.34 -33.4325C234.964 -32.0238 238.906 -31.0828 242.73 -31.3472C238.474 -30.061 234.115 -29.2753 229.661 -29.9748C223.188 -30.9727 217.422 -33.8153 210.802 -33.8395C210.662 -33.8504 210.646 -33.6406 210.786 -33.6296C218.504 -33.2382 225.136 -28.8504 232.703 -28.3301C239.005 -27.8382 245.708 -30.6925 251.744 -33.1064C249.123 -30.2149 246.718 -27.3768 244.248 -24.6142C238.081 -20.5217 231.281 -18.2378 223.938 -17.1222C216.31 -15.9585 211.45 -19.5748 204.627 -21.5147C197.325 -23.6327 190.877 -23.1509 183.448 -21.8309C183.238 -21.8473 183.28 -21.4921 183.496 -21.5457C195.343 -23.506 200.097 -21.235 210.979 -17.1487C214.468 -15.8208 217.009 -14.9891 220.904 -15.2481C227.201 -15.6009 233.876 -17.1908 239.735 -20.0408C239.573 -19.772 239.411 -19.5032 239.254 -19.3043C234.536 -14.8172 229.103 -11.0897 221.765 -9.12929C213.92 -6.99734 205.782 -8.33622 197.835 -6.70478L197.975 -6.69385C197.975 -6.69385 197.965 -7.46867 197.669 -7.28071C189.941 -3.94336 181.575 -7.76296 173.482 -5.15782C167.991 -3.40503 162.881 -0.215163 158.961 3.98232C158.81 4.11126 159.004 4.33748 159.155 4.20853C166.734 -1.74396 174.103 -6.79814 184.217 -5.51605C186.867 -5.16848 189.226 -4.70289 191.413 -4.74328C184.935 -2.08237 179.248 2.1883 174.147 7.06767C174.147 7.06767 174.137 7.20754 174.212 7.14307C184.142 -0.948036 193.412 -5.99453 206.314 -7.02809C212.978 -7.56344 219.199 -7.85183 225.644 -10.0931C229.917 -11.5891 233.663 -13.5485 237.096 -16.0247C234.113 -11.1912 231.322 -6.13147 227.548 -1.99301C224.619 1.2264 221.294 3.21857 217.727 4.69928C212.307 5.54284 205.27 2.74178 199.931 3.45092C194.237 4.20267 189.467 6.64505 185.294 10.471C185.294 10.471 185.283 10.6108 185.428 10.5518C192.609 5.20148 201.128 2.55919 210.008 4.30789C212.157 4.75709 214.09 5.25983 215.986 5.33745C211.998 6.78537 207.839 7.72731 203.577 9.08343C196.497 11.3454 190.644 14.1255 187.701 21.1436C187.69 21.2834 187.825 21.3643 187.906 21.2299C195.892 7.35769 211.046 10.8627 222.888 3.5541C224.44 2.61976 225.799 1.45921 227.098 0.153298C224.187 7.66644 225.87 15.89 217.87 21.8097C210.916 26.9666 201.562 24.9698 194.823 30.9879C194.747 31.0524 194.806 31.1977 194.952 31.1387C202.844 24.7885 214.6 27.606 221.605 19.9902C227.682 13.4279 225.413 4.59561 229.703 -2.52845C229.703 -2.52845 229.708 -2.59839 229.714 -2.66833C233.446 -7.16197 236.339 -12.6359 239.118 -17.5558C240.471 -18.6464 241.76 -19.8124 243.059 -21.1183C243.593 -21.6396 244.132 -22.2308 244.682 -22.9619C244.979 -23.1498 245.281 -23.4077 245.583 -23.6656C243.514 -17.9163 244.045 -11.1899 244.357 -5.25477C244.6 -1.15447 244.715 2.79501 244.49 6.57729C244.49 6.57729 244.49 6.57729 244.42 6.57182C242.204 8.79131 239.1 9.7453 236.749 11.8839C236.07 12.4642 235.525 13.1253 234.981 13.7865C235.989 12.5986 237.197 11.567 238.458 10.7507C240.469 9.35955 242.856 8.56073 244.549 6.72263C243.94 17.2302 240.812 26.6262 230.812 33.7972C230.661 33.9261 230.79 34.0769 231.006 34.0234L230.914 34.2977ZM65.1751 108.967C61.7414 111.444 61.6675 115.097 62.2775 119.015C63.2784 125.145 64.6412 130.247 62.4485 135.776C60.0968 138.829 57.0132 141.332 52.8529 143.189C49.2746 144.81 46.1764 145.694 43.1628 148.203C42.6344 148.654 43.35 149.414 43.8729 149.032C48.9836 144.928 54.937 143.563 59.794 140.001C59.864 140.007 59.9986 140.088 60.074 140.023C64.3108 137.188 68.8337 138.807 73.3868 137.333C76.7814 136.261 78.9712 133.477 81.091 130.687C81.172 130.552 80.9674 130.466 80.8919 130.53C78.7021 133.315 76.3668 136.158 72.7139 136.929C70.7798 137.341 68.6847 137.107 66.7132 137.094C65.302 137.124 64.0252 137.236 62.7967 137.632C63.3469 136.901 63.757 136.159 64.1026 135.342C64.4155 134.944 64.7337 134.476 64.982 134.003C65.063 133.869 65.1494 133.664 65.2303 133.53C65.2894 133.675 65.4994 133.692 65.5804 133.557C69.5717 128.45 75.637 128.361 78.6972 122.548C80.9316 118.29 82.2022 113.745 82.8535 109.01C81.6247 114.825 79.6119 123.464 74.2057 126.842C70.7938 129.038 67.8848 129.304 65.6514 132.648C70.2667 123.157 68.8778 112.071 77.2513 104.07C77.2513 104.07 77.2622 103.93 77.1868 103.994C70.7602 109.614 69.9342 116.587 67.7714 124.44C66.9929 127.194 66.0962 129.657 64.9357 131.888C65.3908 124.254 59.6906 115.154 65.4443 109.129C65.5952 109 65.4661 108.849 65.2506 108.903L65.1751 108.967ZM31.5166 117.81C27.1562 120.425 21.4838 120.897 16.6133 121.924C16.3278 121.972 16.4296 122.473 16.7152 122.425C21.24 122.215 25.8676 121.591 29.9634 119.659C29.9525 119.799 30.1516 119.955 30.3025 119.826C34.8148 116.167 40.0007 117.417 45.0176 115.416C47.9976 114.241 49.9982 112.075 51.5524 109.311C51.6388 109.107 51.3642 109.015 51.2832 109.15C47.8729 114.935 42.8525 115.176 36.8618 116.116C36.1507 116.201 35.5041 116.362 34.8576 116.523C42.1844 110.199 44.3253 102.625 55.6057 101.606C55.7457 101.617 55.6921 101.402 55.6166 101.466C50.8653 101.869 46.4686 103.144 42.7702 106.304C38.6944 109.785 36.3244 114.878 31.5921 117.745L31.5166 117.81ZM-2.95353 26.9493C-3.30363 26.9219 -3.27182 27.417 -2.99721 27.5088C-0.326545 28.4913 1.99403 29.4465 4.49831 29.8531C4.49285 29.923 4.48739 29.993 4.62197 30.0738C7.79723 32.7142 12.3147 34.4038 16.4895 34.1667C19.2475 34.0301 21.8719 32.898 24.6354 32.6915C28.46 32.4271 31.8309 33.4643 35.3199 34.7922C35.46 34.8031 35.5409 34.6687 35.4063 34.5878C31.8 32.0546 27.4216 31.2906 23.0795 31.8664C19.6641 32.3035 16.3931 33.5962 12.9359 32.7634C10.7926 32.2443 8.91398 31.0421 7.01351 30.1198C8.27931 30.1482 9.56148 29.9668 10.93 29.5811C18.4249 27.4218 23.7228 24.5281 31.7248 26.7008C31.9349 26.7172 32.0968 26.4484 31.8976 26.2921C27.1274 24.2309 22.4034 24.2844 17.5483 26.0164C14.0028 27.2174 10.3108 29.392 6.44341 29.3012C3.06614 29.2487 0.331874 27.2761 -2.95353 26.9493ZM181.2 -30.943C183.655 -34.4104 186.502 -37.4955 189.93 -39.9018C191.273 -40.8525 192.873 -41.5016 194.022 -42.6786C196.389 -45.027 196.748 -48.7284 198.103 -51.6484C199.725 -52.5773 201.224 -53.7269 202.394 -55.1837C206.817 -60.3975 208.332 -67.1751 209.411 -73.7758C209.354 -65.8288 214.613 -57.3964 208.982 -50.2363C208.901 -50.1019 209.031 -49.9511 209.181 -50.08C216.952 -58.4804 207.102 -70.3673 211.373 -79.9557C211.535 -80.2245 211.061 -80.4726 210.899 -80.2038C210.327 -79.1929 209.959 -78.0957 209.667 -77.063C209.49 -77.4991 208.72 -77.5592 208.606 -77.0051C207.961 -73.2557 207.44 -69.2854 206.3 -65.5042C204.062 -63.005 202.071 -60.0642 199.376 -58.0229C195.925 -55.3368 192.327 -55.2658 188.254 -54.5282C184.181 -53.7907 180.791 -51.8739 177.627 -49.2359C177.627 -49.2359 177.616 -49.096 177.697 -49.2304C181.697 -52.6476 185.922 -54.4288 191.093 -54.7992C193.076 -54.9259 194.832 -54.8592 196.718 -55.5564C200.5 -57.0907 203.332 -60.8806 205.776 -64.2082C205.397 -62.9711 204.885 -61.8149 204.302 -60.6642C200.879 -53.8242 195.194 -51.3829 188.695 -48.4423C184.384 -46.4567 181.618 -44.4208 180.342 -39.8058C180.337 -39.7359 180.401 -39.6605 180.482 -39.7949C183.479 -46.5977 191.054 -47.9767 197.166 -51.3698C196.685 -50.6332 196.34 -49.8158 195.989 -48.9284C194.59 -45.4489 193.22 -43.2338 190.099 -41.1553C186.158 -38.5074 183.155 -35.2235 180.727 -31.191C180.64 -30.9867 180.915 -30.8949 180.996 -31.0293L181.2 -30.943ZM142.913 129.25C142.966 130.38 143.164 131.451 143.513 132.393C143.239 131.386 143.041 130.315 142.913 129.25ZM142.907 124.816C142.787 126.355 142.812 127.834 142.913 129.25C142.807 127.904 142.846 126.5 143.117 124.832C143.128 124.693 142.918 124.676 142.907 124.816ZM167.823 163C167.823 163 168.151 163.307 168.372 163.184C168.366 163.254 168.355 163.393 168.35 163.463C168.513 167.698 168.963 170.055 171.593 173.357C172.104 174.03 173.214 173.343 172.703 172.669C167.437 166.136 171.76 153.174 168.865 145.138C165.277 135.147 157.664 126.179 162.971 115.053C162.982 114.913 162.847 114.832 162.766 114.967C159.171 122.215 161.184 128.917 164.22 136.05C166.311 140.857 168.525 144.971 169.177 150.158C169.701 154.28 168.409 158.19 168.238 162.188C167.183 156.758 164.731 152.063 160.663 148.227C160.663 148.227 160.674 148.087 160.68 148.017C157.173 143.31 158.153 137.969 157.308 132.555C156.74 128.992 155.591 125.665 154.156 122.387C154.156 122.387 154.086 122.381 154.156 122.387C156.472 127.916 157.178 133.319 157.419 139.248C157.545 142.143 157.904 144.775 159.42 147.004C153.333 141.955 145.633 139.524 143.443 132.387C144.205 135.261 145.689 137.91 148.261 140.152C151.226 142.776 155.001 144.056 158.047 146.545C163.418 150.835 166.224 156.401 167.747 163.064L167.823 163ZM134.994 161.211L134.827 161.55C134.827 161.55 134.939 161.911 135.09 161.782C136.258 168.488 133.941 173.795 129.772 179.381C129.534 179.714 129.992 180.172 130.299 179.844C135.319 175.099 137.683 170.077 136.468 163.086C136.312 162.37 136.157 161.654 135.931 160.933C142.105 154.941 137.332 145.702 138.185 138.38C138.196 138.24 138.056 138.229 138.045 138.369C137.481 141.984 138.275 145.353 138.626 148.97C139.053 153.436 137.681 156.566 135.647 160.066C134.638 156.751 133.122 153.606 132.043 150.285C129.766 143.352 130.289 137.553 133.065 130.873C133.081 130.664 132.877 130.577 132.796 130.712C129.311 135.647 128.88 141.172 130.333 146.915C131.395 151.361 133.546 155.399 134.753 159.785C134.855 160.286 134.962 160.716 135.064 161.217L134.994 161.211ZM247.817 49.6905C251.918 47.6886 254.912 49.0481 256.969 44.3533C258.426 41.0192 258.587 37.1615 260.378 34.0644C264.603 32.2832 268.972 31.3576 273.835 33.1445C274.454 33.3336 274.735 32.4408 274.197 32.1173C270.498 29.8583 266.836 29.8539 263.226 30.9794C263.376 30.8505 263.522 30.7915 263.673 30.6625C263.894 30.539 263.711 30.1729 263.496 30.2265C262.283 30.4133 261.389 31.0471 260.758 31.9127C259.012 32.6208 257.319 33.5442 255.622 34.5375C252.001 34.8883 248.702 32.9419 245.045 31.9528C241.938 31.1473 238.884 31.4718 235.974 32.652C235.974 32.652 235.963 32.7919 235.968 32.722C241.271 30.673 245.282 32.5342 250.289 34.262C251.732 34.7265 253.116 35.0456 254.522 35.085C249.132 38.253 243.715 41.7707 238.216 41.834C224.399 41.9518 217.124 29.5622 204.003 39.7264C204.003 39.7264 203.992 39.8662 204.062 39.8717C218.568 29.112 226.229 43.7834 239.911 42.6701C241.754 42.5324 243.553 42.0396 245.294 41.4014C243.952 42.3521 242.739 43.4537 241.181 44.4579C236.723 47.4172 231.896 47.8849 226.872 46.3668C222.398 45.0324 219.093 42.2412 214.389 43.8443C214.249 43.8334 214.373 44.0542 214.443 44.0596C221.382 42.7014 227.155 49.0628 234.422 48.0117C240.122 47.19 243.396 43.1532 247.983 40.3447C251.852 38.6061 255.56 36.2216 259.36 34.4775C259.084 35.3004 258.809 36.1233 258.539 36.8762C257.787 39.2804 257.756 43.2889 256.117 45.3423C254.17 47.7236 250.404 48.1333 247.763 49.4752C247.693 49.4698 247.747 49.6851 247.822 49.6206L247.817 49.6905ZM196.573 160.178C194.556 157.135 192.14 154.695 188.975 152.829C182.914 149.26 177.287 147.343 177.155 139.1C177.076 142.823 178.273 146.435 181.174 148.984C182.955 150.53 185.222 151.27 187.252 152.343C190.966 154.392 193.722 157 196.131 160.425C196.325 160.651 196.691 160.468 196.503 160.172L196.573 160.178ZM241.692 127.25C242.048 127.207 241.951 126.636 241.601 126.609C238.213 126.697 235.235 126.042 232.598 123.725C231.151 122.416 230.01 120.779 228.563 119.469C226.647 117.842 224.536 116.903 222.031 117.412C227.785 116.805 229.836 123.017 233.927 125.658C236.274 127.178 238.977 127.741 241.692 127.25ZM270.663 62.9437C275.3 64.0093 279.755 63.7941 284.28 62.6697C284.496 62.6161 284.383 62.2555 284.168 62.3091C274.81 63.9711 268.171 61.4826 259.95 57.6039C255.19 55.4029 252.189 56.8574 248.538 60.3019C248.538 60.3019 248.527 60.4418 248.608 60.3074C256.447 53.7418 262.914 61.1426 270.669 62.8738L270.663 62.9437ZM115.368 153.628C115.764 156.685 116.444 159.693 116.414 162.787C116.382 167.71 114.429 171.076 111.392 174.78C110.929 175.306 111.655 175.926 112.183 175.475C123.339 165.227 110.75 150.523 118.195 139.072C118.281 138.867 118.012 138.705 117.926 138.91C114.835 143.313 114.792 148.376 115.444 153.563L115.368 153.628ZM9.30304 -57.8715C7.79731 -60.2407 6.6407 -61.668 4.06735 -62.9947C3.72818 -63.162 3.26439 -62.6352 3.66813 -62.3926C10.3851 -57.2944 11.7714 -48.8829 19.7497 -44.601C20.2935 -44.3475 20.8427 -44.1639 21.3165 -43.9158C25.9011 -39.4766 31.2287 -34.6277 36.5526 -31.5381C42.0112 -28.3677 46.4272 -32.5969 52.0778 -32.7891C52.1478 -32.7836 52.1587 -32.9235 52.0887 -32.929C49.8426 -33.0339 48.1131 -32.5356 46.0225 -31.9248C41.4857 -30.6605 38.4104 -30.9709 34.6968 -33.9347C31.1178 -36.8177 27.7007 -39.9695 24.1272 -42.9224C31.429 -40.8043 39.4021 -41.8708 46.2556 -38.5211C38.8811 -43.3188 29.4258 -41.3125 21.4093 -45.1048C21.0701 -45.272 20.871 -45.4283 20.5318 -45.5955C20.4027 -45.7463 20.1981 -45.8326 20.069 -45.9835C19.9989 -45.9889 19.8589 -45.9999 19.7889 -46.0053C14.8741 -48.9222 12.4382 -52.9121 9.30304 -57.8715ZM24.645 -69.4103C24.645 -69.4103 24.1549 -69.4486 24.2785 -69.2278C26.2388 -63.6566 29.8695 -58.7289 36.1602 -58.0971C40.4904 -57.6184 44.3006 -59.5024 48.3152 -55.8817C51.5386 -52.9562 50.5163 -48.8843 51.3527 -45.1599C52.0391 -42.2213 52.4419 -41.064 54.837 -39.2586C54.9716 -39.1777 55.1225 -39.3067 54.9934 -39.4575C49.3322 -44.5436 54.2167 -53.873 46.8522 -57.8959C44.4889 -59.2062 42.2746 -58.8161 39.7485 -58.9429C31.6909 -59.5015 28.091 -63.0194 24.7905 -69.4693L24.645 -69.4103ZM111.938 -110.165C111.938 -110.165 111.469 -110.483 111.447 -110.203C111.165 -102.977 113.697 -97.5019 110.306 -90.1669C108.444 -86.1606 106.173 -83.2417 105.263 -78.8092C103.493 -70.5737 105.408 -62.6135 109.936 -55.6456C109.936 -55.6456 110.076 -55.6346 110.006 -55.6401C104.301 -64.6703 104.019 -73.6992 107.325 -82.6592C107.356 -81.2495 107.963 -80.0058 108.996 -78.7993C111.003 -76.5317 113.016 -75.2487 113.815 -71.9494C114.448 -69.2261 113.701 -65.9771 112.455 -63.5412C114.014 -66.3749 114.578 -69.9899 113.774 -73.2193C112.76 -77.3797 106.702 -79.1895 107.698 -83.8264C108.492 -85.8754 109.496 -87.9081 110.634 -89.8598C115.211 -97.9467 111.944 -101.227 111.868 -110.17L111.938 -110.165ZM128.663 -105.13C128.663 -105.13 128.458 -105.216 128.523 -105.14C128.51 -97.753 128.523 -89.8005 124.153 -83.4567C124.148 -83.3867 124.277 -83.2359 124.288 -83.3758C129.083 -89.7567 129.059 -97.5694 128.668 -105.2L128.663 -105.13ZM130.775 -111.438L131.288 -112.595L130.775 -111.438ZM179.391 -62.8197C179.542 -72.8704 189.182 -76.34 194.576 -83.1668C194.576 -83.1668 194.721 -83.2258 194.727 -83.2957C194.727 -83.2957 194.732 -83.3657 194.737 -83.4356C194.894 -83.6345 195.045 -83.7635 195.131 -83.9678C198.535 -88.7685 200.314 -95.3145 202.017 -100.881C202.195 -101.36 201.371 -101.635 201.193 -101.157C199.432 -96.65 198.339 -91.6689 196.233 -87.2594C195.391 -85.4956 194.361 -84.0279 193.132 -82.7166C186.74 -79.3453 175.196 -83.9759 172.122 -75.2792C172.111 -75.1393 172.251 -75.1284 172.262 -75.2683C175.492 -84.1638 185.819 -79.2765 192.29 -81.8674C190.608 -80.1692 188.797 -78.6218 186.904 -76.94C182.44 -72.9961 178.746 -68.992 178.896 -62.788C178.879 -62.5782 179.23 -62.5509 179.246 -62.7607L179.391 -62.8197Z" fill="url(#paint1_radial_102_263)"/>
</g>
<defs>
<radialGradient id="paint0_radial_102_263" cx="0" cy="0" r="1" gradientUnits="userSpaceOnUse" gradientTransform="translate(156.434 2.39403) rotate(-120.266) scale(155.797 155.858)">
<stop stop-color="white"/>
<stop offset="0.41" stop-color="#A7A39E"/>
<stop offset="0.82" stop-color="#574F45"/>
<stop offset="1" stop-color="#382F23"/>
</radialGradient>
<radialGradient id="paint1_radial_102_263" cx="0" cy="0" r="1" gradientUnits="userSpaceOnUse" gradientTransform="translate(128.789 30.9715) rotate(58.1331) scale(148.362 148.412)">
<stop offset="0.47" stop-color="#FF0000"/>
<stop offset="1" stop-color="#FF8879"/>
</radialGradient>
</defs>
</svg>
