<svg width="263" height="263" viewBox="0 0 263 263" fill="none" xmlns="http://www.w3.org/2000/svg">
<mask id="mask0_102_352" style="mask-type:alpha" maskUnits="userSpaceOnUse" x="20" y="20" width="223" height="223">
<path style="mix-blend-mode:overlay" d="M241.868 118.096C234.64 57.2391 179.392 13.7741 118.468 21.0145C57.5444 28.255 14.0149 83.4591 21.2425 144.316C28.4702 205.174 83.718 248.639 144.642 241.398C205.566 234.158 249.096 178.954 241.868 118.096Z" fill="url(#paint0_radial_102_352)"/>
</mask>
<g mask="url(#mask0_102_352)">
<path style="mix-blend-mode:multiply" d="M119.693 240.852C119.986 248.201 119.365 254.424 117.33 261.078C118.044 252.728 115.073 245.16 110.037 239.286C106.8 235.457 102.976 233.303 99.2466 230.395C92.9967 225.555 90.8762 218.7 89.3418 210.17C89.3098 209.964 89 210.012 89.032 210.218C90.1199 217.233 91.3269 224.334 96.1544 228.868C100.369 232.862 105.465 235.03 109.347 239.604C107.542 238.194 105.499 237.982 102.497 239.082C100.393 239.831 99.5446 241.864 97.4719 242.819C93.533 244.697 90.2255 242.464 87.2991 239.96C83.148 236.378 80.322 231.112 78.6872 225.344C80.8005 232.833 85.0824 239.987 91.3702 243.026C94.0014 244.308 95.2246 244.012 97.7264 243.096C100.538 242.132 103.53 238.922 106.621 239.076C108.115 239.161 110.27 241.468 111.749 242.823C111.749 242.823 111.853 242.807 111.956 242.791C115.553 248.255 117.268 254.538 117.116 261.745C116.562 263.627 115.817 265.644 114.969 267.677L114.866 267.693C114.144 269.178 113.629 270.631 112.995 271.997C112.853 272.442 113.091 272.616 113.417 272.671C112.331 274.53 111.347 276.373 110.857 278.667C110.714 279.112 111.311 279.547 111.557 279.087C115.117 272.724 118.997 267.052 120.364 260.185C122.035 255.278 122.427 249.618 122.318 244.142C123.419 241.013 124.839 238.575 127.53 236.15C130.03 233.861 132.865 232.365 135.214 229.782C140.555 223.989 143.988 216.802 146.109 208.656C146.077 208.449 145.957 208.362 145.886 208.585C141.713 221.908 134.402 228.641 125.003 236.225C123.876 237.14 122.971 238.125 122.376 239.062C122.072 237.102 121.768 235.142 121.568 233.166C121.205 228.786 120.724 224.318 120.569 219.905C121.245 213.357 124.068 208.376 128.512 202.933C132.607 197.967 136.742 193.946 139.341 187.521C139.412 187.299 139.055 187.038 138.983 187.26C134.369 197.06 125.111 202.827 121.078 212.96C120.848 213.524 120.634 214.191 120.508 214.739C120.461 200.802 123.189 187.702 134.955 179.011C135.232 178.757 135.049 178.257 134.755 178.408C124.425 184.764 119.385 197.271 118.287 210.646C117.588 219.1 118.717 227.059 119.48 235.392C119.64 236.423 119.578 237.384 119.722 238.312C118.119 232.75 114.459 228.247 111.411 222.91C110.114 220.682 109.023 218.421 108.226 216.009C107.283 211.296 106.722 206.313 109.228 202.015C110.91 199.219 112.815 197.868 115.022 195.73C118.236 192.59 120.393 188.77 121.564 184.045C121.707 183.601 121.142 183.371 121 183.816C119.409 189.239 117.132 192.973 113.314 196.311C111.647 197.837 109.845 199.173 108.584 201.27C106.728 204.305 106.414 207.734 106.838 211.154C103.637 196.65 108.571 181.412 117.012 169.012C117.099 168.892 116.964 168.702 116.773 168.837C109.53 178.728 104.561 191.014 105.147 204.339C105.439 210.315 106.748 216.027 109.319 221.016C112.798 227.766 118.151 232.957 119.938 240.391L119.693 240.852ZM212.803 234.335C215.932 240.188 217.369 246.726 215.439 254.737C215.471 254.943 215.693 255.014 215.764 254.792C218.163 246.392 216.424 239.267 212.786 232.859C211.679 230.495 210.294 228.386 209.585 225.855C208.428 221.809 209.537 218.045 209.652 214.013C209.703 209.568 207.92 206.253 205.556 202.606C205.54 202.502 205.35 202.638 205.35 202.638C208.318 207.459 209.355 211.418 208.98 217.181C208.855 219.102 208.491 220.848 208.572 222.737C208.695 225.57 209.889 227.815 211.083 230.059C207.772 225.08 203.358 220.482 199.047 215.869C194.177 209.018 195.956 200.714 195.257 192.794C195.576 185.984 199.28 180.55 201.379 174.309C202.955 168.783 207.989 165.783 209.206 159.996C210.297 154.756 209.108 149.131 206.981 144.284C206.949 144.078 206.656 144.229 206.672 144.332C209.809 150.923 210.15 158.582 206.502 165.063C205.011 167.724 203.011 169.83 201.846 172.546C202.131 171.657 202.313 170.783 202.495 169.91C203.695 162.646 200.455 156.071 197.056 149.838C197.04 149.734 196.746 149.886 196.849 149.87C199.182 154.684 201.889 159.863 202.308 165.291C202.639 170.839 200.491 175.397 198.374 180.162C196.646 184.022 195.387 187.492 195.24 191.318C195.192 191.008 195.144 190.699 195.096 190.389C194.312 185.335 192.511 180.543 190.107 175.951C185.482 167.267 181.892 161.168 182.215 150.977C182.259 147.167 182.479 144.492 181.18 140.891C181.148 140.684 180.735 140.748 180.87 140.939C182.252 147.802 180.249 154.662 181.94 161.478C183.783 168.587 189.247 174.5 191.988 181.258C195.962 191.206 192.179 204.997 197.607 214.085C193.94 210.217 190.48 206.317 187.711 202.098C180.756 191.346 183.554 178.024 176.234 167.645C170.656 159.636 161.864 154.767 153.516 150.04C153.516 150.04 153.413 150.056 153.532 150.143C165.958 157.301 178.035 164.936 180.903 180.02C181.207 181.98 181.495 183.836 181.767 185.59C181.215 182.718 179.505 180.553 176.842 179.065C173.956 177.505 171.269 176.548 168.63 174.528C166.467 172.857 164.582 170.93 162.609 169.124C162.49 169.036 162.3 169.172 162.435 169.362C164.861 172.049 167.494 174.704 170.547 176.661C175.357 179.718 180.776 180.567 182.006 187.137C182.006 187.137 181.926 186.622 181.895 186.415C182.678 191.47 183.398 196.112 186.296 201.156C190.22 208.047 196.201 213.881 201.784 219.881C194.302 214.598 185.004 211.92 178.608 204.778C170.535 195.677 166.875 183.674 156.214 176.982C156.095 176.895 155.801 177.046 156.039 177.22C167.051 184.809 170.616 197.566 179.754 206.713C178.323 205.667 176.869 205.153 175.017 204.806C170.082 203.67 167.506 202.063 164.181 198.353C160.602 194.365 157.317 191.6 151.914 190.853C151.707 190.885 151.739 191.092 151.946 191.06C159.059 192.598 161.837 197.554 166.855 201.952C170.886 205.447 176.36 204.598 180.502 207.442C187.063 213.608 196.107 216.008 203.073 221.372C206.756 225.343 210.129 229.362 212.62 233.835C202.219 225.413 187.725 223.329 179.506 211.927C179.49 211.824 179.196 211.975 179.315 212.063C186.875 223.989 202.283 225.825 212.787 234.232L212.803 234.335ZM40.0667 165.204C40.0667 165.204 40.3358 164.212 40.4784 163.767L40.5104 163.973C40.5104 163.973 40.106 164.776 40.0507 165.101L40.0667 165.204ZM50.109 149.491C51.7512 147.124 52.8131 144.424 52.9848 141.44C53.1492 139.09 52.4874 136.869 51.9289 134.631C50.9952 130.656 51.0549 126.95 52.2346 122.964C52.2346 122.964 52.2026 122.757 52.1313 122.98C50.6098 126.807 50.4861 130.101 51.4039 133.973C52.7608 139.995 53.1316 145.114 49.6727 150.087C48.2123 151.581 46.6487 153.092 45.2363 154.895C42.9192 157.684 41.4922 160.758 40.4944 163.87C42.4115 158.502 46.5861 154.052 50.6501 150.253C60.8261 140.857 70.8943 134.859 75.2814 120.868C75.3367 120.543 75.0109 120.488 74.8364 120.726C69.6231 134.845 59.3875 140.447 50.0217 149.611L50.109 149.491ZM9.00932 196.113C19.1748 199.607 26.3151 197.232 32.1653 191.994C39.7986 190.071 43.4012 201.026 51.2352 201.079C56.2009 201.048 60.5921 198.677 65.0313 196.616C66.2706 196.423 67.3833 196.779 69.0211 197.793C70.4203 198.632 71.1679 199.361 72.4639 200.217C73.402 200.811 74.2369 201.421 75.3336 201.673C78.9815 202.692 82.7851 200.623 85.9138 198.976L85.8818 198.77C81.5618 200.918 77.4077 202.091 72.9715 199.398C71.6915 198.646 70.848 197.298 69.4807 196.665C68.4393 196.087 67.3586 195.938 66.3099 195.995C69.3833 194.673 72.5047 193.661 76.0086 193.751C76.1119 193.735 76.0959 193.632 75.9766 193.545C71.2727 193.218 66.8801 194.216 62.5121 196.056C59.526 197.258 56.6838 199.389 53.4824 199.885C43.9815 201.359 44.4529 196.215 40.1665 192.443C37.9557 190.462 35.8656 189.941 33.8002 190.261C34.3398 189.649 34.8795 189.038 35.4191 188.426C43.979 183.612 53.5249 187.202 61.4943 179.945C62.7568 179.221 64.0034 178.394 65.3852 177.757C69.4113 175.76 72.012 178.208 75.4853 179.466C79.4037 180.865 83.4851 178.542 86.6371 176.363C87.0182 176.093 86.5092 175.538 86.2153 175.689C84.5557 176.58 82.3725 178.186 80.3943 178.387C77.8125 178.788 75.4039 177.577 73.2338 176.54C71.9858 175.994 71.1509 175.384 69.6731 175.402C67.663 175.397 65.7809 176.217 64.05 177.33C65.7722 175.479 67.359 173.437 69.0812 171.585C75.7474 164.108 82.9037 161.836 92.5646 161.394C92.8744 161.346 93.001 160.798 92.5719 160.759C80.8688 160.989 74.2856 164.229 66.5082 172.724C64.1591 175.306 61.9453 178.079 59.2224 180.298C58.9126 180.346 58.738 180.584 58.4442 180.735C58.4442 180.735 58.3569 180.854 58.3729 180.957C57.714 181.482 57.0391 181.904 56.2609 182.341C51.7664 184.729 47.5309 184.012 42.7485 184.542C40.6831 184.863 39.118 185 37.6169 185.55C39.4497 183.047 41.2504 180.338 43.0191 177.423C46.9057 171.116 50.7298 165.769 57.8933 162.862C62.2773 161.126 67.0917 160.802 71.4756 159.066C79.7271 155.673 82.3484 147.344 88.6669 141.716C88.8574 141.581 88.6029 141.303 88.4124 141.439C80.2757 148.299 77.2894 157.002 65.915 160.034C61.8482 161.087 58.0591 161.886 54.5334 163.7C58.0417 160.409 58.6484 155.456 60.948 151.191C64.6674 144.487 73.5515 145.856 79.1558 141.078C79.4337 140.824 79.0599 140.459 78.7661 140.611C74.5741 143.585 70.6571 143.558 66.0666 145.327C64.359 145.908 63.0092 146.751 61.8426 148.094C57.6128 152.87 57.9778 159.997 52.8418 164.385C52.8418 164.385 52.8418 164.385 52.8578 164.488C51.9923 165.045 51.1269 165.602 50.2934 166.365C45.0702 170.872 41.9225 177.17 37.9239 182.755C36.8766 184.185 35.9006 185.393 34.8213 186.617C36.7806 183.567 38.0723 180.303 38.6324 176.413C39.2084 172.626 38.8711 169.087 39.7729 165.355C37.8819 172.938 37.9457 180.851 33.6387 187.857C26.9478 194.493 19.5923 196.162 9.00059 195.375C8.69078 195.423 8.63549 195.748 8.85803 195.82L9.00932 196.113ZM87.4311 45.7776C80.1093 34.0253 69.5626 38.3018 59.3009 41.689C58.9591 41.5308 58.6813 41.7851 58.4907 41.9203C52.0414 43.9769 45.7186 45.4856 40.2569 42.3183C35.4702 38.7295 30.7227 34.7121 31.7846 32.0121C31.9271 31.5675 31.2435 31.2509 31.085 31.5924C29.7366 33.8086 31.3031 35.0446 32.8783 37.0187C34.0637 38.5251 35.3204 39.8092 36.6803 41.0772C36.6803 41.0772 36.6963 41.1803 36.8156 41.2675C36.9348 41.3546 37.0541 41.4417 37.1734 41.5289C37.5312 41.7903 37.8017 42.1709 38.1595 42.4323C41.0627 45.4682 39.7317 49.1606 41.4596 52.8012C42.8849 55.8549 45.9379 57.8111 46.7917 61.2704C47.7094 65.1423 46.3639 70.1047 46.5587 74.0887C46.8248 77.8503 47.6945 81.4128 48.874 84.9272C48.874 84.9272 48.9773 84.9112 48.874 84.9272C47.7178 80.881 47.3484 77.1353 47.2729 73.2384C48.2517 74.7768 50.0087 75.8777 51.6785 77.0976C56.775 80.6384 59.5531 85.5951 59.774 91.7934C59.953 88.174 58.996 84.7308 57.0383 81.654C54.4202 77.7288 48.0539 75.547 47.1987 70.7147C47.1813 69.2384 47.2671 67.7462 47.4403 66.1348C47.6439 63.3566 47.6338 61.2454 46.8048 58.6274C46.2638 57.8662 45.842 57.1922 45.3009 56.431C43.9322 54.4249 42.7701 52.3867 41.608 50.3485C41.0102 48.5398 41.2386 46.6029 40.7441 44.7781L40.7121 44.5718C43.4 46.9015 46.1752 49.1121 48.6013 51.7993C50.0572 53.6863 50.639 55.3919 51.0636 58.8121C51.1436 59.3279 50.9298 59.9948 51.0098 60.5106C51.353 62.042 51.7515 63.2478 52.5791 64.4928C56.6138 70.7335 63.0209 73.8597 64.372 81.8899C64.388 81.9931 64.5785 81.8579 64.5785 81.8579C64.1611 77.8028 62.4739 75.1066 60.3737 72.4744C64.1423 74.9535 67.9182 76.7976 72.3137 78.5456C77.8379 80.7524 79.8276 84.0355 79.9846 89.8212C80.0267 92.1387 80.0528 94.353 80.508 96.6065C80.524 96.7096 80.7145 96.5744 80.7145 96.5744C79.8987 91.3134 81.8624 84.8819 77.6153 80.6812C75.4918 78.5809 72.5275 77.8786 69.9283 76.8028C66.1131 75.3873 62.5438 73.5112 59.3076 71.0552C57.8836 69.3745 56.3564 67.7099 55.0037 65.8069C52.4337 62.1913 52.2389 58.2073 50.8208 54.5186C54.441 59.4503 57.7906 64.0015 63.5694 66.4857C73.8949 71.0114 90.4808 67.4885 93.1975 82.279C91.6516 70.2648 79.7886 69.4636 70.1961 66.9369C59.8328 64.2129 56.1719 58.3368 50.4281 51.3047C54.0862 54.4347 58.0468 58.1517 62.4088 58.3203C65.8095 58.4268 68.8029 56.5892 71.9636 55.1483C74.0319 57.5742 76.7096 57.7927 79.9038 57.9312C85.6564 58.2011 90.7587 59.7339 94.6408 64.3081L94.744 64.2921C92.8503 61.6279 90.4009 59.4724 87.2534 58.2704C82.9772 56.6095 76.2413 58.1823 73.1549 54.6467C74.1556 54.2802 75.037 53.8266 76.0697 53.6665C83.6478 52.0687 91.3421 55.3123 98.3761 57.7075C98.5986 57.7786 98.7572 57.4371 98.5346 57.366C90.5698 53.7418 81.4137 50.6194 72.8043 53.7503L72.4946 53.7984C72.4946 53.7984 71.6524 53.8233 71.5971 54.1488C66.2997 56.1324 61.8998 57.7654 55.9611 54.2496C53.3852 52.642 51.4129 50.8351 48.9562 49.3146C48.7017 49.0372 48.4312 48.6566 48.1766 48.3791C47.2938 47.4597 45.7273 46.2237 43.819 44.8294C48.7861 46.1719 54.0762 44.8233 59.4056 43.0461C61.2572 43.3928 62.5459 44.8831 64.2389 45.5713C65.3676 46.0301 66.5676 46.2665 67.7515 46.3998C70.7711 46.7767 73.6307 46.1219 76.6415 45.7606C73.7572 45.5741 70.7464 45.9354 67.8301 45.5426C65.0331 45.2369 63.2993 43.6043 61.0972 42.3612C70.7393 39.0701 80.198 35.2792 87.2959 45.5873C87.2959 45.5873 87.5024 45.5553 87.3991 45.5713L87.4311 45.7776ZM275.936 73.3773C275.019 70.8784 273.002 71.5082 270.475 71.5831C268.584 71.6651 266.726 71.9533 264.867 72.2416C264.867 72.2416 264.66 72.2737 264.557 72.2897C264.35 72.3217 264.247 72.3377 264.041 72.3697C263.627 72.4338 263.111 72.5139 262.698 72.5779C258.551 73.1154 256.355 69.8643 252.31 69.0127C249.036 68.3584 245.637 69.625 242.354 68.2326C238.626 66.698 235.46 62.6467 232.065 60.5322C228.893 58.4888 225.506 57.1125 221.962 56.0776C221.962 56.0776 221.859 56.0936 221.962 56.0776C225.896 57.5802 229.156 59.5044 232.36 61.7541C230.54 61.6137 228.539 62.3466 226.641 63.0635C220.811 65.024 215.114 64.4286 210.017 60.8878C210.017 60.8878 209.914 60.9038 210.017 60.8878C212.912 63.1855 216.179 64.4747 219.802 64.6523C224.593 64.86 230.135 61.0428 234.491 63.2195C235.684 64.0909 236.892 65.0654 238.101 66.04C240.28 67.8149 241.846 69.0508 244.517 69.9044C245.375 69.9825 246.32 69.9416 247.178 70.0198C249.514 70.0801 251.882 70.3467 254.25 70.6133C256.031 71.1823 257.51 72.5374 259.29 73.1064L259.497 73.0744C256.049 74.0316 252.602 74.9887 248.956 75.3429C246.533 75.4018 244.855 74.8168 241.85 73.17C241.389 72.9246 240.984 72.3537 240.523 72.1083C239.155 71.4753 237.939 71.1356 236.342 71.0664C228.977 70.6241 222.6 73.8314 215.39 70.3015C215.39 70.3015 215.184 70.3335 215.406 70.4046C218.904 72.5031 222.114 72.7447 225.483 72.6448C221.17 74.1587 217.47 76.2115 213.508 78.6218C208.49 81.7241 204.731 81.3562 199.889 78.0929C197.997 76.8017 196.208 75.4946 194.141 74.4419C194.141 74.4419 193.934 74.4739 194.157 74.545C198.887 77.0863 202.881 82.3826 208.871 81.4537C211.762 81.0052 214.104 79.0575 216.51 77.5224C219.972 75.2953 223.513 73.5841 227.445 72.3406C229.646 72.2105 231.83 71.9774 234.254 71.9185C238.703 71.968 242.114 74.1856 245.865 75.1884C239.731 75.1889 234.114 75.1093 228.579 78.2916C218.876 83.9162 211.861 99.3709 198.26 92.8178C198.26 92.8178 198.156 92.8339 198.26 92.8178C208.793 98.6846 216.475 89.5705 224.191 83.4089C232.55 76.6194 239.519 77.229 248.528 76.6769C243.842 77.8262 238.488 78.7622 235.734 82.147C233.608 84.8008 233.309 88.3331 232.669 91.7071C229.523 91.8781 227.73 93.9521 225.674 96.3836C222.032 100.857 217.872 104.037 211.802 104.451L211.818 104.554C215.1 104.573 218.269 103.87 221.056 102.065C224.915 99.6705 227.721 93.214 232.313 92.8188C232.044 93.8112 231.775 94.8037 231.386 95.709C228.144 102.761 220.982 107.041 214.868 111.264C214.678 111.399 214.932 111.677 215.123 111.541C222.817 107.285 230.63 101.742 233.274 92.881L233.226 92.5715C233.846 92.4754 233.869 91.9436 233.599 91.563C235.19 86.14 236.393 81.6223 242.746 78.9468C245.526 77.7763 248.211 77.3599 250.887 76.2054C251.3 76.1413 251.714 76.0773 252.127 76.0132C253.366 75.821 255.296 75.3104 257.623 74.6326C253.583 77.9001 251.514 82.9746 249.787 88.2073C248.398 89.4791 246.42 89.6803 244.88 90.6586C243.808 91.2474 242.887 92.1296 242.07 92.9959C239.982 95.221 238.817 97.937 237.31 100.495C239.072 98.2145 240.682 95.6407 242.682 93.5348C244.579 91.4448 246.938 90.9733 249.217 89.986C246.184 99.7524 243.581 109.558 231.13 109.059C231.13 109.059 231.043 109.178 231.162 109.265C244.964 110.294 247.701 99.3058 251.083 89.0627C251.361 88.8084 251.433 88.586 251.385 88.2766C253.571 81.9162 256.028 75.9364 261.865 73.341C267.52 71.6189 273.636 70.1422 275.291 72.6321C275.562 73.0127 276.253 72.6943 276.085 72.2977L275.936 73.3773ZM5.54241 93.9711C4.87479 93.7577 4.60569 94.7502 5.17004 94.9795C9.74009 96.4892 12.0426 94.9701 16.4992 94.3846C28.5426 92.9395 35.8675 99.9376 45.3915 105.433C53.4291 110.208 62.2288 114.442 71.497 110.786C71.7036 110.754 71.5363 110.357 71.449 110.477C58.5823 114.796 46.8693 105.415 36.0173 98.858C38.0362 99.6013 40.055 100.345 42.1131 100.659C46.1421 101.408 50.241 100.561 54.2147 101.635C59.8654 103.294 64.0965 107.391 70.2215 106.653C70.5313 106.605 70.4673 106.192 70.1575 106.24C63.3242 105.821 58.5127 101.391 51.9965 100.289C49.6126 99.9188 47.2374 100.287 44.9014 100.227C41.175 100.065 37.7496 99.1176 34.2922 97.9635C33.3701 97.4727 32.5512 96.9659 31.6291 96.4751C28.5208 94.8443 25.3093 93.2296 21.7733 92.9329C16.3146 92.5118 10.9153 95.8844 5.35186 94.1063L5.54241 93.9711ZM2.24424 131.35C0.773738 130.733 -0.097575 133.298 1.4442 133.692C5.29865 134.679 8.82585 134.238 12.0898 132.781C13.5516 132.66 14.8781 132.349 16.3239 132.124C20.91 133.737 25.1615 134.557 28.6217 138.457C30.0456 140.138 30.9852 142.105 32.7743 143.412C35.772 145.693 39.5217 145.323 42.6024 143.367C42.7057 143.351 42.5704 143.16 42.5704 143.16C37.385 145.866 33.4652 143.093 30.3861 138.923C29.3199 137.504 28.373 136.172 27.0291 135.007C24.731 133.145 21.6708 131.823 18.6832 131.653C18.6832 131.653 18.8897 131.621 18.993 131.605C22.9173 130.996 26.4139 131.722 30.2523 132.605C33.4392 133.379 36.0776 134.026 38.546 131.53C34.482 135.33 28.2248 131.124 23.4176 130.813C20.1043 130.587 16.8796 131.616 13.5589 132.025C14.7182 131.317 15.8614 130.506 16.9727 129.488C19.9414 126.81 21.6215 122.641 24.7255 120.152C30.7429 115.31 38.7223 117.665 45.1207 120.053C39.819 117.917 33.8657 115.671 28.1393 117.616C17.9809 120.987 16.0664 136.601 2.34753 131.334L2.24424 131.35ZM273.456 126.264C269.53 125.499 266.019 126.044 262.922 127.897C261.477 128.121 260.134 128.33 258.824 128.744C254.182 127.457 249.843 126.756 246.225 123.198C244.713 121.636 243.671 119.685 241.794 118.497C238.622 116.454 235.008 117.014 232.046 119.058C231.943 119.074 232.078 119.265 232.078 119.265C237.009 116.281 241.207 118.8 244.46 122.732C245.526 124.151 246.561 125.364 248.095 126.394C250.48 128.136 253.612 129.235 256.584 129.303L256.274 129.351C252.381 130.166 248.814 129.663 245.007 128.985C241.836 128.315 239.023 127.906 236.793 130.576C240.603 126.499 247.138 130.451 252 130.436C255.385 130.439 258.474 129.221 261.779 128.708C260.636 129.519 259.509 130.434 258.501 131.435C255.667 134.304 254.21 138.544 251.225 141.12C245.462 146.239 237.459 144.417 230.902 142.37C236.275 144.284 242.371 146.085 247.946 143.847C257.905 139.873 258.858 124.196 272.982 128.661C274.54 129.159 275.204 126.626 273.678 126.335L273.456 126.264ZM178.114 35.2005C178.114 35.2005 177.335 34.265 177.032 33.6781C177.335 34.265 177.621 34.7487 177.924 35.3356C177.94 35.4388 178.234 35.2876 178.13 35.3036L178.114 35.2005ZM177.032 33.6781C176.579 32.7977 176.109 31.8142 175.742 30.8147C176.109 31.8142 176.459 32.7106 177.032 33.6781ZM193.981 50.9095C194.344 40.2895 190.394 31.1835 182.259 24.4166C178.617 21.3897 174.538 18.9587 170.547 16.4085C163.845 12.0604 159.582 7.7566 154.514 1.67601C153.685 -0.941993 152.824 -3.76633 152.305 -6.43238C152.432 -6.9802 152.574 -7.42484 152.701 -7.97266C152.843 -8.41731 152.279 -8.64671 151.985 -8.4955C151.576 -11.8125 151.971 -14.7259 153.796 -16.5935C154.439 -17.2214 153.35 -18.1088 152.81 -17.497C149.802 -14.3896 150.608 -11.2398 151.438 -7.24868C150.994 -6.01787 150.67 -4.69991 150.33 -3.48511C150.107 -3.55624 149.901 -3.52421 149.813 -3.40504C147.342 3.84465 143.128 8.72364 136.148 12.1302C132.813 13.8094 129.056 14.8146 126.142 17.1679C121.427 20.857 118.802 26.4402 118.666 32.3771C119.246 25.2094 123.419 19.386 129.573 16.1076C132.996 14.3092 136.546 13.336 139.818 11.2441C143.089 9.15227 146.058 6.4735 148.104 3.30391C146.631 7.44101 144.815 11.4198 141.601 14.5593C137.029 19.1768 131.463 22.1528 127.535 27.5156C127.535 27.5156 127.567 27.7219 127.655 27.6027C132.447 21.6832 139.833 18.8476 144.642 13.0312C148.649 8.18429 150.207 1.1819 151.774 -5.08238C152.572 -1.29762 153.458 2.36796 154.225 5.94641C153.986 13.2724 151.864 20.0454 148.454 26.7011C144.957 33.476 139.215 35.3173 133.753 39.6503C127.807 44.2698 124.428 49.7588 121.257 56.5888C121.17 56.7079 121.408 56.8822 121.496 56.763C126.72 46.1285 131.389 43.503 140.981 37.1562C144.045 35.0964 146.229 33.4902 148.275 30.3206C151.583 25.0539 154.198 18.7326 155.336 12.4292L155.67 13.2225C156.559 19.6342 156.399 26.1029 153.705 33.2815C150.868 40.9047 145.098 46.6589 141.785 53.9335L141.753 53.7272C141.753 53.7272 141.276 53.3786 141.22 53.7041C139.425 61.9053 131.556 66.4004 128.887 74.4202C127.089 79.8753 126.746 85.8442 127.816 91.3826C127.848 91.589 128.158 91.5409 128.126 91.3346C127.703 81.7872 127.908 72.8818 134.797 65.4753C136.606 63.5045 138.377 61.9623 139.67 60.0716C138.08 66.8677 138.206 73.8201 139.175 80.7476C139.175 80.7476 139.175 80.7476 139.278 80.7316C138.478 68.0735 139.834 57.7221 146.473 46.657C149.923 40.9457 153.35 35.7662 155.21 29.3507C156.445 25.0393 157.077 20.9272 157.056 16.7048C159.231 21.8608 161.628 27.0878 162.785 32.5071C163.648 36.7045 163.398 40.5462 162.496 44.2778C159.966 49.1068 153.718 53.1393 151.172 57.8652C148.571 62.9166 147.687 68.1244 148.344 73.7269L148.447 73.7108C148.24 64.8695 151.155 56.389 157.719 50.3004C159.283 48.7903 160.894 47.5896 162.029 46.0404C160.849 50.0263 159.24 53.9731 157.783 58.2133C155.486 65.2247 154.348 71.5281 158.312 77.9911C158.328 78.0943 158.518 77.9591 158.518 77.9591C151.933 63.4517 163.594 53.4036 164.509 39.5288C164.65 37.7111 164.481 35.9414 164.209 34.1877C168.634 40.8962 176.154 44.3781 176.299 54.1799C176.371 62.8309 169.426 69.1898 170.373 78.0222C170.389 78.1254 170.595 78.0933 170.579 77.9902C170.076 67.927 179.134 60.1841 177.033 50.0517C175.261 41.3475 166.827 38.1129 163.633 30.4741C162.134 24.8966 159.466 19.2889 156.998 14.2842C156.949 12.6017 156.677 10.848 156.405 9.09433C156.293 8.37223 156.165 7.54699 155.934 6.73776C155.87 6.32513 155.925 5.99964 155.964 5.571C159.378 10.5348 165.11 14.0826 170.143 17.2107C173.553 19.4283 176.845 21.5588 179.755 23.9597C180.235 27.0544 179.221 30.0638 179.598 33.1745C179.742 34.1029 179.87 34.9282 180.101 35.7374C179.861 34.1901 179.621 32.6427 179.604 31.1665C179.649 28.7299 180.346 26.4034 179.962 23.9277C188.065 30.4882 193.849 38.4647 193.846 50.7192C193.878 50.9255 194.085 50.8934 194.053 50.6871L193.981 50.9095ZM158.038 227.616C158.058 231.839 160.937 234.033 164.387 235.822C169.888 238.561 174.832 240.435 178.023 245.328C179.115 248.961 179.31 252.945 178.401 257.312C177.618 261.13 176.501 264.156 176.783 268.021C176.895 268.743 177.928 268.583 177.816 267.86C177.444 261.369 179.845 255.714 179.672 249.825C179.672 249.825 179.879 249.793 179.847 249.587C180.024 244.595 183.922 241.772 185.451 237.309C186.624 233.958 185.563 230.531 184.535 227.31C184.519 227.207 184.329 227.342 184.329 227.342C185.27 230.682 186.243 234.229 184.76 237.628C183.984 239.438 182.523 240.932 181.405 242.585C180.619 243.657 179.953 244.817 179.613 246.032C179.365 245.119 178.928 244.342 178.506 243.668C178.426 243.152 178.139 242.669 177.956 242.169C177.924 241.962 177.805 241.875 177.669 241.685C177.773 241.669 177.979 241.637 177.947 241.431C176.145 235.266 179.62 230.396 176.698 224.511C174.549 220.196 171.669 216.629 168.201 213.364C172.258 217.699 177.953 224.422 177.658 230.701C177.424 234.645 176.02 237.187 177.335 240.892C172.304 231.636 162.605 226.38 161.052 215L160.949 215.016C161.728 223.452 166.898 228.144 171.997 234.431C173.811 236.579 175.211 238.791 176.302 241.052C170.378 236.266 159.802 235.582 158.229 227.481C158.197 227.275 157.99 227.307 157.919 227.529L158.038 227.616ZM145.693 259.849C145.309 264.873 142.366 269.766 140.321 274.309C140.163 274.65 140.608 274.793 140.782 274.554C143.265 270.789 145.374 266.659 146.284 262.292C146.387 262.276 146.593 262.244 146.577 262.141C146.214 256.387 150.223 252.914 151.536 247.745C152.327 244.664 151.776 241.792 150.383 238.945C150.351 238.738 150.073 238.993 150.073 238.993C152.82 245.116 149.972 249.255 147.316 254.632C146.983 255.212 146.769 255.879 146.54 256.443C145.687 246.856 140.827 240.743 146.521 231.092C146.521 231.092 146.489 230.886 146.402 231.005C143.967 235.08 142.51 239.32 142.832 244.13C143.235 249.455 145.997 254.308 145.574 259.761L145.693 259.849ZM52.4621 234.904C52.4621 234.904 52.5421 235.42 52.8359 235.269C55.1224 233.646 57.2504 232.366 59.0919 230.601C59.0919 230.601 59.1952 230.585 59.2984 230.569C63.262 229.532 67.2954 226.899 69.5005 223.388C70.9362 221.053 71.6722 218.298 73.1079 215.962C75.0352 212.706 77.8773 210.575 81.0613 208.602C81.1646 208.586 81.0293 208.396 81.0293 208.396C76.9072 209.774 73.6927 212.914 71.6388 216.718C69.9893 219.721 69.1427 223.127 66.4358 225.448C64.7529 226.871 62.7675 227.707 60.798 228.646C61.4962 227.693 62.1624 226.533 62.5901 225.199C65.268 217.918 65.9372 212.004 72.3197 206.788C72.5102 206.653 72.2557 206.376 72.0652 206.511C67.6187 209.208 64.9292 213.005 63.4644 217.88C62.4273 221.422 62.0184 225.605 59.6461 228.719C57.6228 231.357 54.4141 232.489 52.2556 234.936L52.4621 234.904ZM112.657 52.9576C111.31 49.0466 110.463 44.9523 110.443 40.73C110.41 39.1506 110.773 37.404 110.533 35.8566C110.021 32.5556 107.214 30.1388 105.734 27.4105C105.875 25.5928 105.793 23.704 105.402 21.8632C103.743 15.2541 99.2483 10.141 94.5081 5.4886C100.829 10.1071 110.77 10.784 113.281 19.4793C113.313 19.6856 113.623 19.6375 113.591 19.4312C111.331 8.26723 96.0455 9.2644 90.7527 0.366563C90.6014 0.0731085 90.2044 0.240327 90.2524 0.549798C90.7381 1.63648 91.3985 2.48482 92.0588 3.33315C91.6137 3.1909 91.0741 3.80277 91.5512 4.15133C94.2871 6.79054 97.0549 9.63606 99.4257 12.6488C100.144 15.9178 101.395 19.2098 101.494 22.5749C101.633 26.8844 99.6581 29.8316 97.8108 33.6042C96.0667 37.3607 95.594 41.1313 95.908 45.2024C95.418 39.9966 96.5336 35.5981 99.2304 31.1656C100.246 29.5293 101.396 28.0832 101.847 26.2174C102.82 22.2635 101.394 17.8368 100.15 13.9097C100.842 14.9644 101.535 16.019 102.124 17.0897C105.706 23.8231 104.314 29.8491 102.947 36.7163C101.966 41.3051 102.081 44.7733 105.096 48.5312L105.199 48.5152C101.459 42.1233 104.733 35.2773 105.568 28.387C105.902 29.1802 106.34 29.9574 106.881 30.7186C108.855 33.8986 109.842 36.1751 109.695 40.0008C109.573 44.6678 110.452 48.9684 112.292 53.3311C112.324 53.5374 112.601 53.283 112.601 53.283L112.657 52.9576ZM219.616 176.657C220.554 177.251 221.58 177.726 222.47 178.01C221.46 177.638 220.554 177.251 219.616 176.657ZM216.054 174.146C217.159 175.136 218.455 175.992 219.616 176.657C218.455 175.992 217.366 175.104 216.125 173.923C216.109 173.82 215.816 173.971 215.935 174.059L216.054 174.146ZM261.32 176.211C261.32 176.211 261.733 176.147 261.788 175.821L262.027 175.995C265.557 178.3 267.711 179.234 271.922 179.109C272.748 178.981 272.882 177.798 272.04 177.823C263.753 178.263 255.701 167.258 247.619 164.92C237.549 162.044 225.736 162.926 219.948 152.203C219.932 152.1 219.742 152.235 219.742 152.235C223.491 159.365 230.08 161.618 237.638 163.298C242.676 164.418 247.325 165.071 251.936 167.525C255.624 169.488 257.94 172.826 261.16 175.179C256.152 172.892 250.955 172.114 245.514 173.169C245.514 173.169 245.498 173.066 245.395 173.082C239.603 173.24 235.817 169.285 230.999 166.863C227.788 165.248 224.45 164.181 220.969 163.559C226.794 164.98 231.524 167.521 236.47 170.768C238.823 172.305 241.128 173.532 243.893 173.631C236.26 175.555 229.917 180.341 222.883 177.946C225.689 178.99 228.708 179.367 231.965 178.545C235.738 177.643 238.977 175.344 242.734 174.339C249.319 172.473 255.406 173.536 261.733 176.147L261.32 176.211ZM240.824 201.573L240.888 201.986C240.888 201.986 241.333 202.128 241.301 201.922C247.453 204.77 250.335 209.711 252.423 216.359C252.487 216.772 253.21 216.66 253.146 216.247C252.194 209.423 249.551 204.656 243.263 201.617C242.579 201.301 241.896 200.984 241.228 200.771C239.916 192.312 229.745 190.826 224.321 185.857C224.321 185.857 224.115 185.889 224.218 185.873C226.835 188.425 229.998 189.73 233.138 191.567C236.978 193.824 238.697 196.727 240.322 200.383C237.087 199.3 233.607 198.678 230.372 197.595C223.473 195.39 219.083 191.634 215.287 185.568C215.255 185.362 214.977 185.616 214.977 185.616C216.922 191.336 221.16 194.798 226.581 197.021C230.754 198.698 235.3 199.366 239.457 200.94C239.902 201.082 240.363 201.328 240.824 201.573ZM216.287 46.0771C217.076 41.6235 219.895 40.0243 217.317 35.6705C215.462 32.5777 212.448 30.1929 210.991 26.9328C211.987 22.4472 213.803 18.4684 218.011 15.5974C218.582 15.1918 217.835 14.4627 217.454 14.7331C213.483 16.4052 211.404 19.3685 210.161 22.9418C210.129 22.7355 210.113 22.6323 210.081 22.426C210.033 22.1165 209.707 22.0614 209.636 22.2837C209.073 23.4274 209.129 24.475 209.393 25.4905C209.045 27.3403 208.697 29.19 208.588 31.2141C206.748 34.3516 203.278 35.8406 200.364 38.1939C197.935 40.2608 196.428 42.8185 195.637 45.8991C195.637 45.8991 195.653 46.0022 195.637 45.8991C197.022 40.5081 200.912 38.3201 205.208 35.33C206.454 34.5028 207.462 33.5014 208.351 32.4129C207.833 38.6201 207.45 45.0177 204.341 49.5142C196.447 60.6683 182.184 59.3942 182.836 75.8781C182.836 75.8781 182.956 75.9652 182.94 75.862C182.699 57.9411 199.028 60.268 206 48.623C206.912 47.0027 207.602 45.3112 208.172 43.5326C208.221 45.2151 208.358 46.7785 208.217 48.5962C207.984 53.9142 205.565 58.0923 201.508 61.2567C197.817 64.0475 193.647 65.1168 192.166 69.8888C192.182 69.992 192.301 70.0791 192.372 69.8568C195.298 63.4875 203.814 62.4837 207.152 56.0503C209.856 50.9829 208.452 46.0244 208.789 40.6904C209.626 36.5462 209.9 32.1726 210.651 28.1477C211.072 28.8217 211.614 29.5829 212.139 30.2409C213.61 32.231 216.831 34.5838 217.54 37.1147C218.314 40.0582 216.49 43.2989 215.993 46.2283C216.009 46.3315 216.112 46.3154 216.199 46.1963L216.287 46.0771ZM275.659 151.381C272.036 151.203 268.628 151.731 265.364 153.188C259.027 155.967 254.176 159.466 247.409 154.705C250.407 156.987 253.968 158.125 257.741 157.223C260.084 156.648 261.886 155.312 264.046 154.238C267.882 152.375 271.583 151.696 275.723 151.793C276.033 151.745 276.072 151.317 275.659 151.381ZM275.316 95.9742C275.316 95.9742 274.91 95.4033 274.735 95.6417C272.831 98.3666 270.505 100.418 267.145 101.255C265.199 101.663 263.292 101.642 261.362 102.152C258.916 102.743 256.978 103.889 255.852 106.176C258.676 101.196 264.891 103.084 269.394 101.435C271.983 100.4 274.031 98.6031 275.228 96.0934L275.316 95.9742ZM240.206 35.2899C243.747 32.2056 246.126 28.4562 247.894 24.1679C247.965 23.9455 247.623 23.7873 247.552 24.0096C243.485 32.5631 237.617 36.3253 229.748 40.8203C225.166 43.3267 224.63 46.6847 225.278 51.5491C224.553 41.4148 234.253 40.5443 240.103 35.3059L240.206 35.2899ZM223.237 212.963C225.9 214.451 228.738 215.701 231.227 217.428C235.162 220.304 236.771 223.857 238.007 228.419C238.103 229.038 239.136 228.878 239.04 228.259C237.253 213.324 218.043 214.93 213.136 202.381C213.104 202.175 212.81 202.326 212.826 202.429C214.555 207.443 218.626 210.509 223.237 212.963ZM-8.95207 175.764C-11.7331 175.561 -13.608 175.746 -16.149 177.091C-16.5461 177.258 -16.3309 177.965 -15.9338 177.797C-7.86407 175.278 -0.296324 179.07 7.77195 175.177C8.25631 174.891 8.74068 174.605 9.22504 174.318C15.5086 173.238 22.467 171.736 28.0102 169.292C33.7439 166.713 32.9194 160.714 35.9972 156.011C35.9972 156.011 35.9812 155.908 35.9972 156.011C34.5848 157.815 33.9826 159.387 33.2539 161.507C31.7091 165.866 29.6378 168.195 25.0706 169.431C20.71 170.636 16.198 171.547 11.7341 172.767C17.6802 168.148 21.4549 161.118 28.0773 157.45C19.8971 160.621 16.0846 169.451 8.37416 173.605C8.08035 173.756 7.78654 173.908 7.49272 174.059C7.28618 174.091 7.07962 174.123 6.87308 174.155C6.76981 174.171 6.66653 174.187 6.69853 174.393C1.55241 176.67 -3.15148 176.343 -8.92008 175.97L-8.95207 175.764ZM-9.3691 156.708C-9.3691 156.708 -9.73422 157.082 -9.40841 157.137C-3.75765 158.796 2.36003 158.692 6.50258 154.036C9.37532 150.738 10.11 146.61 15.3448 145.587C19.5469 144.724 22.2595 147.895 25.7648 149.358C28.4833 150.521 29.6992 150.861 32.5268 150C32.6301 149.984 32.5981 149.777 32.4948 149.793C25.1233 151.359 20.4022 142.056 12.9216 145.645C10.4678 146.871 9.60372 148.801 7.89753 150.756C2.82697 156.93 -2.11403 157.801 -9.26585 156.692L-9.3691 156.708ZM8.4259 62.7834C8.4259 62.7834 7.92555 62.9666 8.16409 63.1409C13.8177 67.546 19.7143 68.7443 23.6544 75.7392C25.8274 79.5221 26.9036 83.0525 29.8548 86.3977C35.4705 92.6046 43.0296 95.6578 51.2374 96.0751C40.6776 95.4944 33.2277 90.4171 27.8883 82.5828C29.065 83.3511 30.3683 83.5715 32.0366 83.4185C35.0635 83.1603 37.2554 82.2922 40.2997 83.5103C42.8829 84.483 45.0864 87.0991 46.2966 89.4468C44.8872 86.4962 42.2866 84.0473 39.2263 82.726C35.2759 81.1203 30.3697 84.9446 27.0768 81.441C25.9466 79.6092 24.9038 77.6582 23.9482 75.588C20.1099 67.2041 15.566 67.9087 8.32265 62.7994L8.4259 62.7834ZM22.2237 52.1926C22.2237 52.1926 22.0171 52.2247 22.1364 52.3118C28.0838 56.5657 34.5083 61.1682 37.1059 68.3713C37.1219 68.4744 37.3124 68.3392 37.3124 68.3392C34.9767 60.7786 28.6714 56.2633 22.2237 52.1926ZM18.4202 46.7611L17.8151 45.5873L18.4202 46.7611ZM85.8794 35.7714C77.8724 29.8298 80.6827 19.9922 78.3382 11.6936L78.3062 11.4872C78.3062 11.4872 78.3062 11.4872 78.2902 11.3841C78.2582 11.1778 78.2262 10.9715 78.1782 10.662C76.2656 5.14852 71.9619 -0.0997432 68.5089 -4.63486C68.2384 -5.01546 67.5795 -4.49073 67.7307 -4.19728C70.3648 -0.168995 73.7057 3.64403 76.046 7.82352C76.9375 9.48109 77.5193 11.1867 77.8945 12.9244C76.8849 20.053 66.4836 26.631 71.6717 34.1718C71.6717 34.1718 71.8782 34.1398 71.7749 34.1558C66.5549 26.4087 76.3773 20.8712 78.0865 14.1622C78.4544 16.5348 78.7191 18.9235 78.8805 21.3281C79.4666 27.1529 80.6083 32.469 85.6015 36.0258C85.8401 36.2001 86.0146 35.9617 85.7601 35.6843L85.8794 35.7714Z" fill="url(#paint1_radial_102_352)"/>
</g>
<defs>
<radialGradient id="paint0_radial_102_352" cx="0" cy="0" r="1" gradientUnits="userSpaceOnUse" gradientTransform="translate(114.993 100.263) rotate(-174.51) scale(154.762 154.611)">
<stop stop-color="white"/>
<stop offset="0.41" stop-color="#A7A39E"/>
<stop offset="0.82" stop-color="#574F45"/>
<stop offset="1" stop-color="#382F23"/>
</radialGradient>
<radialGradient id="paint1_radial_102_352" cx="0" cy="0" r="1" gradientUnits="userSpaceOnUse" gradientTransform="translate(132.17 131.15) rotate(3.88118) scale(147.345 147.197)">
<stop offset="0.47" stop-color="#FF0000"/>
<stop offset="1" stop-color="#FF8879"/>
</radialGradient>
</defs>
</svg>
