<svg width="50" height="51" viewBox="0 0 50 51" fill="none" xmlns="http://www.w3.org/2000/svg">
<path style="mix-blend-mode:multiply" d="M31.3235 43.5421C21.2178 47.0074 10.1877 41.627 6.71231 31.5274C3.23688 21.4277 8.61407 10.4109 18.7198 6.94558C28.8256 3.48026 39.8556 8.86071 43.3311 18.9603C46.8065 29.0599 41.4293 40.0768 31.3235 43.5421Z" fill="url(#paint0_radial_234_31)"/>
<path style="mix-blend-mode:screen" d="M42.7016 21.905C32.1034 22.7179 30.6076 22.8359 42.6798 23.1507C30.5423 23.472 31.9729 23.9901 42.3167 26.6149C31.899 24.1943 30.4237 23.8909 41.8812 27.9087C30.3211 24.4475 31.7336 25.289 40.9884 30.1914C31.6622 25.3951 30.1969 24.6994 40.0677 31.6393C29.7123 25.2167 30.7223 26.4401 38.0691 34.1483C30.5607 26.6126 29.3998 25.5323 36.7049 35.2706C29.037 25.8957 29.8246 27.3686 35.1338 36.417C29.6761 27.4138 28.7879 26.0364 33.0665 37.3836C28.0773 26.1749 28.284 27.7013 30.4313 38.2765C28.056 27.7837 27.6319 26.3105 28.0472 38.5676C27.1386 26.3958 27.0404 27.9436 26.6016 38.6379C26.8733 27.9491 26.815 26.3775 23.8318 38.2614C26.2125 26.1263 25.6496 27.4069 21.7726 37.7465C25.4241 27.3912 25.7534 26.026 19.1631 36.4715C25.2863 25.8568 24.5004 27.0237 18.3879 36.0588C24.3544 26.9708 25.0341 25.7325 16.1567 34.1951C24.6726 25.2717 23.6209 26.0783 15.1604 33.2074C23.4774 25.9274 24.3564 24.9592 13.4001 30.5906C24.0216 24.6071 22.8184 25.1939 13.033 29.9628C22.7625 25.0747 23.8806 24.3581 12.0685 27.3373C23.7763 23.8255 22.5433 24.0386 11.7431 26.2298C22.4606 23.8108 23.6695 23.3909 11.4433 22.9543C23.5068 22.8372 22.1936 22.7244 11.4204 21.9234C22.188 22.5575 23.5143 22.543 11.8355 19.5007C23.6541 22.0658 22.4571 21.6323 12.1015 18.3105C22.5416 21.399 23.7833 21.6178 13.3198 15.5848C23.9548 21.0531 22.874 20.2988 13.989 14.3757C22.956 20.1635 24.1083 20.8118 15.1457 12.9143C24.4394 20.5359 23.5996 19.5719 16.0962 11.8401C23.7903 19.4101 24.7519 20.2202 18.0406 10.3011C25.1836 19.8487 24.6352 18.6275 19.5987 9.28198C24.7545 18.5717 25.4433 19.6789 20.8603 8.71631C25.8781 19.5725 25.6241 18.3589 22.6656 8.01762C25.8416 18.3057 26.3024 19.4952 24.6596 7.61823C26.8857 19.3436 26.9976 18.0316 27.0916 7.37745C27.1939 18.0368 27.2199 19.3327 28.0917 7.44278C27.6684 19.4622 28.0803 18.3248 30.6466 7.77435C28.2953 18.3697 28.0877 19.581 32.0107 8.20243C28.5946 19.7316 29.3382 18.6814 34.5376 9.2496C29.4444 18.7529 28.8654 19.8957 35.0687 9.60689C29.1816 20.2081 30.0954 19.4175 37.5092 11.3485C30.2389 19.5684 29.4685 20.51 38.2267 12.1032C29.8431 20.8436 31.0172 20.2462 40.0472 14.28C31.0731 20.3654 29.9841 21.0926 40.4329 14.9475C30.2369 21.58 31.56 21.3005 41.8888 17.9489C31.6134 21.5178 30.3542 21.9854 42.1744 19.075C30.5965 22.502 32.0792 22.5112 42.683 21.8653L42.7016 21.905Z" fill="url(#paint1_radial_234_31)"/>
<path style="mix-blend-mode:screen" opacity="0.3" d="M31.6201 43.4516C31.1737 41.3106 30.7967 39.5247 30.5185 38.1044C30.916 39.4689 31.4016 41.2282 31.9674 43.3135C31.1023 39.8663 30.4962 37.4365 30.1013 35.974C29.5009 32.1608 30.4959 33.9726 33.9447 42.4132L34.0242 42.376C29.6091 30.2207 30.0401 31.0366 34.6125 42.0283L34.6417 42.0389C31.6798 34.5334 30.6911 31.7012 32.337 34.1777C32.8482 35.3194 34.014 37.754 35.7307 41.3117C34.3599 38.4401 33.3538 36.2943 32.8184 34.9458C33.5923 36.1827 34.7494 38.1853 36.3004 40.9242C34.3209 37.2713 33.052 35.0304 32.4588 34.0238C31.7738 31.9944 33.2701 33.7898 37.5931 39.908L37.6832 39.8416C31.1894 29.8694 31.7236 30.4917 38.115 39.4702L38.1361 39.4119C32.6081 31.2409 31.8814 29.6912 37.9388 35.5798C38.5022 36.2127 39.1426 36.9064 39.86 37.6611C39.4507 37.15 39.0494 36.7078 38.6774 36.2761C39.06 36.6786 39.501 37.1022 39.942 37.5259L39.9737 37.4384C38.4538 35.7993 37.2581 34.5415 36.368 33.6253C33.4313 30.1535 34.6338 30.754 41.1013 35.9664L41.1435 35.8498C32.9754 28.7679 33.5332 29.2338 41.2442 35.7543L41.2653 35.6959C35.501 30.6393 33.9308 29.0479 37.6584 31.1567C38.6516 31.8793 40.1175 32.9381 42.0853 34.3435C40.5822 33.2053 39.3579 32.3001 38.423 31.5986C39.4293 32.194 40.6958 32.9826 42.281 33.9856L42.3022 33.9273C39.684 32.2202 37.9553 31.0663 37.0366 30.5027C35.3552 29.036 37.0565 29.7182 42.8626 32.7447L42.9048 32.6281C34.1514 27.7093 34.7726 28.0003 42.9788 32.4239L43.0104 32.3364C34.9658 27.7404 34.4738 27.0014 43.7573 30.0009L43.8101 29.855C35.1603 26.6562 35.8318 26.8994 43.8126 29.757L43.8337 29.6986C35.9138 26.7642 35.2976 26.2771 44.1152 28.2831C44.1363 28.2248 44.1575 28.1665 44.1494 28.0976C35.9281 25.8127 35.3623 25.2779 44.3346 26.2184L44.3769 26.1017C43.6234 25.9938 42.9681 25.8884 42.3605 25.8333C36.55 24.9164 36.7035 24.675 44.3378 24.933L44.3801 24.8163C35.663 24.2652 36.2227 24.27 44.3348 24.668L44.377 24.5513C36.2221 23.9069 35.5953 23.449 44.1107 22.2776C44.1026 22.2087 44.0759 22.1001 44.0678 22.0312C36.0079 22.6747 36.5912 22.5231 43.9635 21.4986L43.9846 21.4403C36.5962 22.327 35.97 22.2322 43.7338 20.4917L43.7071 20.3831C35.593 21.9966 36.1073 21.853 43.6617 20.2347L43.635 20.1261C36.0856 21.5483 35.4725 21.3262 43.0885 18.4436C43.0804 18.3747 43.0326 18.3244 42.9953 18.245C35.6676 20.6052 36.1658 20.3238 42.8196 17.8184C36.1683 20.2257 35.5769 20.3084 42.5506 17.1932L42.5134 17.1137C35.1471 20.2187 35.5658 19.9745 42.4016 16.8753L42.3457 16.7561C35.377 19.6752 34.6924 19.5592 41.4066 15.0634C41.3693 14.984 41.3028 14.8939 41.2364 14.8039C34.6167 18.6741 34.9634 18.1729 40.678 13.9749L40.6196 13.9537C34.8596 18.0034 34.3322 18.2742 40.327 13.4849L40.2606 13.3948C33.8812 18.2428 34.2254 17.8396 39.9655 13.0241L39.8991 12.934C34.0447 17.6092 33.4533 17.6919 38.8866 11.8086C38.8388 11.7583 38.7618 11.6974 38.7245 11.6179C33.2266 16.9501 33.4565 16.4065 38.0444 10.9427L38.0152 10.9322C33.39 16.3165 33.0061 16.7382 37.9195 10.8315L37.8611 10.8104C32.6377 16.9347 32.8757 16.4601 37.4971 10.4476L37.4096 10.4159C32.5837 16.3543 32.0377 16.5854 36.2356 9.46291C36.148 9.43119 36.0815 9.34114 35.9939 9.30942C31.5141 15.9339 31.5713 15.2289 34.8442 8.56311L34.7858 8.54196C31.4147 15.2052 31.0867 15.7462 34.6026 8.40962L34.4858 8.36732C30.591 15.9295 30.6165 15.312 33.5273 7.82225L33.4105 7.77995C30.2954 15.1956 29.8717 15.636 32.2744 7.2695L32.0409 7.18491C29.9209 13.3117 29.3363 14.2875 29.8745 10.8867C30.0957 9.91119 30.3958 8.53542 30.8252 6.71164L30.7668 6.69049C30.5481 7.56793 30.3505 8.38705 30.1952 9.08951C30.3213 8.37647 30.4792 7.57595 30.6395 6.67736L30.6103 6.66678C30.2865 8.19894 30.0473 9.49779 29.8366 10.4441C28.6505 14.9958 28.791 13.3312 29.7425 6.41846L29.6549 6.38674C28.3001 14.8689 28.0199 15.4601 28.6387 6.18361L28.4343 6.10959C27.3298 15.1772 26.9863 14.393 26.6223 5.91514L26.5639 5.894C26.8273 14.4674 26.8471 15.2333 26.495 5.90201L26.3782 5.85972C26.3918 15.7611 25.929 15.0327 24.2668 5.85372L24.15 5.81142C25.5631 15.1311 25.5059 15.8361 23.1847 5.92363C23.1263 5.90248 23.0468 5.93966 23.0176 5.92908C24.2861 12.8213 24.3711 14.5015 23.2103 11.8708C22.8663 10.7236 22.285 8.86361 21.4105 6.17175L21.3521 6.1506C21.7844 7.69266 22.1551 8.94854 22.4433 9.97658C22.0464 8.97515 21.5775 7.71671 21.0552 6.24099C21.7508 8.2413 22.329 9.83623 22.742 10.9755C24.0604 15.9064 22.9486 14.0522 19.4537 6.65061L19.3742 6.68779C23.6337 16.0817 23.8603 16.8236 18.8493 6.86054L18.73 6.91631C23.269 16.9063 22.4323 16.2074 16.7552 7.71852C22.4086 16.3638 22.9776 17.1636 16.6757 7.75569L16.5564 7.81146C22.8092 17.9933 21.7793 17.5543 13.8243 9.428L13.7448 9.46518C21.5755 17.8434 22.1178 18.5346 13.2839 9.82604L13.1938 9.89238C19.0661 16.1098 20.2915 17.7412 17.4156 15.7429C16.3292 14.8216 14.4726 13.2915 11.7687 11.0916L11.7476 11.15C12.9774 12.2222 14.0533 13.1726 14.9856 13.9721C14.003 13.2204 12.8662 12.3468 11.5171 11.3304C13.1638 12.6195 14.521 13.7049 15.5993 14.5573C21.0052 19.4182 18.7913 18.4184 9.80931 13.219L9.78818 13.2773C20.4672 19.7182 21.3089 20.2209 9.68755 13.3728L9.66643 13.4311C20.8796 20.4943 19.6112 20.1668 8.43324 15.1947C19.6565 20.3152 20.7634 20.8151 8.2481 15.5235L8.22698 15.5818C21.0858 21.6576 19.8048 21.8204 6.61472 19.1214L6.5936 19.1797C19.8558 22.1358 20.8801 22.4078 6.46685 19.5297C20.5092 22.7023 19.1327 22.7646 5.99523 21.4701C19.1991 22.8546 20.5123 22.9674 5.93185 21.6451C20.9508 23.489 19.742 23.9089 5.60301 24.9238C19.8935 24.1287 21.034 24.08 5.5769 25.1783C20.7905 24.3876 19.3959 24.7732 5.65132 26.8876C19.4624 24.8633 20.8414 24.703 5.78851 28.0589C21.4445 25.3173 20.3928 26.1239 6.73368 31.832C20.5046 26.3624 21.6339 25.9797 6.94422 32.4361C21.4488 26.3085 20.1927 27.0411 7.40755 33.5276C20.2008 27.11 21.5314 26.5363 7.95039 34.5819C22.1128 26.8459 21.3027 27.806 9.59636 37.0584C21.486 27.9384 22.4954 27.2484 10.1678 37.7601C22.4271 27.6195 21.4101 28.6037 10.6833 38.3427C21.4474 28.6831 22.6184 27.8207 12.1791 39.7751C23.2793 28.0931 22.7984 29.2384 14.4444 41.4533L14.4736 41.4639C22.9606 29.4291 23.7309 28.4875 15.3923 42.0275C23.6731 28.8295 22.9164 30.0069 15.4215 42.0381C22.9537 30.0864 23.8271 28.9512 17.3036 42.9507C24.4241 29.0355 24.2085 30.178 19.1721 43.6275L19.2013 43.638C23.7076 32.1078 24.7303 29.7402 22.1989 38.9178C21.7503 40.3387 21.2358 42.0327 20.6555 43.9998C21.0407 42.7538 21.3837 41.6245 21.7242 40.5932C21.4527 41.6164 21.0991 42.7749 20.7431 44.0315C21.4527 41.6164 22.033 39.6494 22.4947 38.1012C24.8147 31.0573 24.9283 32.385 23.1999 44.3605L23.2582 44.3817C25.9584 29.7231 26.0291 30.8044 24.7994 44.412L24.8286 44.4226C25.7374 35.713 26.1613 32.1718 26.322 34.7371C26.194 35.9113 26.0111 39.2429 25.7331 44.3873C25.9626 40.3799 26.1833 37.4909 26.3822 35.8475C26.4274 37.5463 26.4347 40.353 26.412 44.3363C26.4944 39.5499 26.4921 36.5471 26.4686 35.1531C26.8862 32.6323 27.3389 35.3034 28.2154 44.0988L28.2737 44.1199C27.4312 30.1246 27.6821 31.0732 29.4006 43.8353L29.4298 43.8459C28.2596 33.8554 28.0852 31.0543 29.7894 36.6527C30.1235 38.1922 30.6072 40.4127 31.2617 43.2558L31.6201 43.4516Z" fill="url(#paint2_radial_234_31)"/>
<path style="mix-blend-mode:color-dodge" opacity="0.3" d="M33.2213 9.03114C42.0798 13.2952 45.7869 23.9405 41.5255 32.7884C37.2641 41.6363 26.6123 45.3327 17.7539 41.0687C8.8954 36.8047 5.1883 26.1593 9.44968 17.3114C13.7111 8.46349 24.3629 4.7671 33.2213 9.03114Z" fill="url(#paint3_linear_234_31)"/>
<defs>
<radialGradient id="paint0_radial_234_31" cx="0" cy="0" r="1" gradientUnits="userSpaceOnUse" gradientTransform="translate(52.4208 6.46394) rotate(70.9687) scale(65.7529 65.7683)">
<stop stop-color="#FF9D00"/>
<stop offset="0.1" stop-color="#F99800"/>
<stop offset="0.24" stop-color="#E88A00"/>
<stop offset="0.39" stop-color="#CD7300"/>
<stop offset="0.54" stop-color="#AD5700"/>
<stop offset="0.6" stop-color="#A15200"/>
<stop offset="0.72" stop-color="#824600"/>
<stop offset="0.86" stop-color="#513300"/>
<stop offset="1" stop-color="#1E1F00"/>
</radialGradient>
<radialGradient id="paint1_radial_234_31" cx="0" cy="0" r="1" gradientUnits="userSpaceOnUse" gradientTransform="translate(19.4497 -8.56062) rotate(0.169862) scale(53.1526 53.1072)">
<stop/>
<stop offset="0.04" stop-color="#060300"/>
<stop offset="0.5" stop-color="#4B2500"/>
<stop offset="0.83" stop-color="#763B00"/>
<stop offset="1" stop-color="#874400"/>
</radialGradient>
<radialGradient id="paint2_radial_234_31" cx="0" cy="0" r="1" gradientUnits="userSpaceOnUse" gradientTransform="translate(27.5341 22.5584) rotate(74.6098) scale(29.9111 29.9221)">
<stop stop-color="#FFA600"/>
<stop offset="0.08" stop-color="#F9A100"/>
<stop offset="0.19" stop-color="#E89300"/>
<stop offset="0.31" stop-color="#CD7D00"/>
<stop offset="0.44" stop-color="#A85F00"/>
<stop offset="0.54" stop-color="#874400"/>
<stop offset="0.64" stop-color="#763E00"/>
<stop offset="0.82" stop-color="#4B2F00"/>
<stop offset="1" stop-color="#1E1F00"/>
</radialGradient>
<linearGradient id="paint3_linear_234_31" x1="13.3477" y1="25.8124" x2="81.046" y2="21.4432" gradientUnits="userSpaceOnUse">
<stop/>
<stop offset="1" stop-color="white"/>
</linearGradient>
</defs>
</svg>
