<svg width="150" height="150" viewBox="0 0 150 150" fill="none" xmlns="http://www.w3.org/2000/svg">
<path style="mix-blend-mode:multiply" d="M122.893 118.873C98.6715 145.447 57.4142 147.408 30.8204 123.221C4.22656 99.0348 2.2769 57.8216 26.498 31.2477C50.7191 4.67385 91.9765 2.71244 118.57 26.8991C145.164 51.0858 147.114 92.2989 122.893 118.873Z" fill="url(#paint0_radial_102_363)"/>
<path style="mix-blend-mode:screen" opacity="0.3" d="M123.62 118.125C118.84 112.528 114.838 107.867 111.72 104.125C115.1 107.509 119.379 111.916 124.422 117.155C116.293 108.38 110.574 102.19 107.042 98.5118C99.1023 88.2286 104.97 91.9668 128.802 111.3L128.976 111.062C96.2836 82.3275 98.8755 84.0383 130.15 109.084L130.253 109.068C109.371 91.7068 101.872 84.947 110.736 89.5937C114.091 92.1368 121.47 97.4364 132.291 105.16C123.6 98.9018 117.16 94.1962 113.399 91.0822C117.684 93.4811 124.338 97.5198 133.346 103.095C121.595 95.5155 114.225 90.9541 110.846 88.9427C105.542 84.0609 112.862 86.9399 135.517 98.0045L135.676 97.663C100.38 78.7345 102.963 79.7072 136.349 95.8683L136.317 95.662C106.785 80.4877 102.134 77.0892 129.537 84.6709C132.223 85.6276 135.235 86.6394 138.573 87.7063C136.539 86.8598 134.639 86.2037 132.843 85.5315C134.623 86.1005 136.61 86.6375 138.597 87.1744L138.549 86.865C131.412 84.4858 125.848 82.7076 121.739 81.4434C107.456 75.9469 111.976 75.774 139.496 80.6968L139.432 80.2842C103.869 72.5945 106.269 73.0675 139.574 79.8395L139.542 79.6332C114.35 74.0326 107.142 71.8758 121.555 72.0703C125.655 72.5964 131.694 73.3501 139.775 74.3152C133.498 73.3873 128.42 72.6958 124.526 72.1376C128.459 72.2672 133.473 72.546 139.774 72.9422L139.742 72.7358C129.253 71.9327 122.285 71.3232 118.662 71.1456C111.326 69.5366 117.451 68.798 139.483 68.3392L139.419 67.9266C105.628 67.5681 107.932 67.4221 139.307 67.2045L139.259 66.895C108.081 66.3425 105.434 64.9572 137.685 58.7937L137.605 58.2779C106.902 62.8281 109.277 62.4598 137.454 57.9845L137.422 57.7781C109.3 61.928 106.694 61.4871 135.963 53.1451C135.931 52.9387 135.899 52.7324 135.764 52.5421C107.804 59.0966 105.269 58.4334 133.271 46.6961L133.207 46.2835C130.809 47.1836 128.704 47.9326 126.822 48.7527C108.189 55.4451 108.252 54.4847 131.201 42.8972L131.138 42.4846C104.518 54.9581 106.178 54.0669 130.764 42.12L130.7 41.7074C105.589 52.9962 102.998 52.6585 126.236 35.4276C126.101 35.2373 125.846 34.9598 125.711 34.7695C102.963 49.706 104.44 48.3151 124.541 33.3663L124.509 33.16C104.137 47.7282 102.136 48.4611 122.235 30.7662L121.98 30.4888C100.642 48.3758 101.928 47.1201 121.606 30.1242L121.352 29.8468C101.371 46.2557 99.2021 46.592 117.017 25.7652C116.882 25.5749 116.66 25.5038 116.421 25.3295C98.6116 44.1483 99.6269 42.5119 115.212 24.355C99.4756 42.2185 97.864 43.4192 113.407 22.9447L113.169 22.7704C96.4502 43.8497 97.2909 42.4517 112.453 22.2476L112.095 21.9861C96.2495 41.8737 94.0416 42.6386 106.586 18.5094C106.347 18.3352 106.005 18.1769 105.664 18.0186C92.3864 40.1488 92.5988 38.1087 102.675 16.475L102.468 16.5071C92.0184 37.7762 90.8999 39.4286 100.846 15.5966L100.505 15.4383C89.5181 40.0654 89.8817 38.3188 99.034 14.8213L98.6922 14.663C88.9756 37.9311 87.364 39.1318 93.8836 12.979C93.6611 12.9079 93.3353 12.8528 93.0968 12.6785C85.495 37.3089 85.2943 35.3329 89.9972 11.7859L89.8939 11.8019C84.9525 35.1747 84.5015 37.0404 89.4488 11.6597L89.2423 11.6917C83.7321 38.2161 83.6667 36.4304 87.5813 11.2098L87.2715 11.2579C82.634 36.5906 81.3961 38.1558 82.265 10.3441C81.9552 10.3921 81.6134 10.2339 81.3036 10.2819C78.7969 37.08 77.8254 34.9066 76.703 9.93898L76.4965 9.97101C77.325 35.0899 77.2319 37.2171 75.7416 9.87682L75.3285 9.94088C76.0653 38.56 75.1417 36.6961 71.618 9.88247L71.2049 9.94652C74.0058 36.8723 73.4675 38.8572 67.0261 10.2777L66.2 10.4058C69.8532 31.9175 69.7063 35.7432 65.7938 24.8355C64.8688 21.5985 63.5293 17.0526 61.8466 10.9753L61.64 11.0073C62.4137 13.9508 63.1555 16.688 63.8332 19.0125C63.0522 16.704 62.2232 14.086 61.2429 11.1745L61.1397 11.1905C62.6624 16.2363 64.0572 20.4567 64.9662 23.5905C68.8276 38.9429 66.55 33.803 58.1768 11.8613L57.867 11.9093C67.5884 39.1351 67.7178 41.3334 54.539 12.9536L53.8161 13.0657C65.2233 41.6147 62.9412 39.8558 48.1537 15.4228L47.9471 15.4548C62.5921 40.3325 63.8895 42.561 47.7566 15.59L47.3435 15.6541C63.3993 44.8554 60.8554 43.454 41.1021 19.0516L40.689 19.1157C59.9346 44.3363 60.9062 46.5096 38.0214 21.0083C37.8148 21.0404 37.6403 21.2787 37.537 21.2947C52.4294 39.5845 55.398 44.406 47.7168 38.5195C44.8457 35.69 40.1215 31.1407 33.1865 24.6103L32.98 24.6424C36.75 28.4945 39.8757 31.6014 42.389 34.1695C39.5979 31.8558 36.1784 28.9 32.2498 25.3894C37.5383 30.1681 41.8247 33.9401 44.8864 36.6344C56.7535 49.0551 50.473 45.381 28.1858 29.1888L28.0112 29.4271C55.7775 50.2628 57.6465 52.0857 26.7414 30.7861L26.4796 31.1436C56.0349 53.2864 52.435 52.577 21.9487 36.7056C52.6182 53.0768 55.5913 54.5172 21.7742 36.9439L21.5123 37.3014C56.4362 57.2384 52.6865 57.6086 16.0635 46.4918L15.889 46.7301C52.5527 58.7914 55.2711 59.9544 15.1122 48.5408L14.9537 48.8823C42.342 57.7339 48.5978 60.5667 36.8774 59.3208C32.1807 58.359 24.226 56.846 12.6874 54.7269L12.7194 54.9332C18.0836 56.1084 22.7962 57.1734 26.8412 58.025C22.725 57.3957 17.9571 56.6562 12.331 55.8385C19.2763 56.9798 25.0376 57.9878 29.599 58.7594C53.4165 64.3618 45.2654 64.9921 10.3454 64.1749L10.3774 64.3812C52.314 66.1174 55.6114 66.2399 10.2349 64.8258L10.2669 65.0321C54.7866 67.741 50.5132 68.8263 9.47987 72.2319C50.887 69.1909 54.9626 68.8758 9.46529 73.5018L9.49729 73.7081C57.2767 70.8409 53.7596 73.3935 10.4642 86.7629L10.4962 86.9692C54.4199 74.2418 57.8831 73.3878 10.6882 88.207C57.2649 74.857 53.3028 77.2672 12.4349 94.6969C53.6446 77.4255 57.7027 75.6342 12.5309 95.3159C59.8409 76.4646 56.9521 79.6591 16.8637 105.525C57.755 80.0628 61.0423 78.0741 17.1983 106.318C60.8212 79.3761 57.3288 82.7699 20.1828 111.242C57.6706 82.9281 61.4815 80.2244 22.4823 114.478C64.2552 81.0619 62.4559 85.1439 31.375 124.085C63.1715 85.6667 65.8857 82.7105 32.9735 125.527C65.8711 83.9804 63.3489 88.1745 36.1065 127.999C63.4842 88.3648 66.4835 84.5193 39.414 130.233C68.7002 84.4924 67.8623 88.6366 48.2777 134.879C68.6172 88.7308 70.4805 85.0614 51.0995 136.026C70.879 86.2673 69.4694 90.817 53.5634 136.912C69.708 90.9913 71.7691 86.5518 60.2948 138.72C74.1603 86.2866 74.5937 90.4449 69.6953 140.009L69.7986 139.993C75.3806 90.7454 76.1312 86.7204 73.4218 140.171C76.5137 87.8231 76.1849 92.5222 73.525 140.155C76.4234 92.6964 77.1654 87.9333 80.5562 139.804C79.0635 87.2164 80.275 90.9371 87.1655 138.779L87.2688 138.763C81.9185 97.443 81.1071 88.801 88.4808 119.983C89.4552 124.902 90.6769 130.734 92.1458 137.478C91.2674 133.178 90.4529 129.29 89.7897 125.695C90.6435 129.154 91.4739 133.146 92.4556 137.43C90.6435 129.154 89.1746 122.41 88.0329 117.094C83.4866 92.5518 85.9693 96.2866 100.239 134.427L100.445 134.395C84.7041 86.7642 86.6618 89.841 105.043 131.992L105.146 131.976C93.7406 104.8 89.2639 93.663 93.8876 100.974C95.409 104.647 100.258 114.776 107.759 130.409C101.954 118.21 97.9324 109.326 95.8613 104.154C98.7426 109.095 103.304 117.367 109.68 129.16C102.181 114.9 97.3173 106.041 94.993 101.965C92.1482 93.8495 97.8046 101.001 114.618 125.542L114.825 125.51C89.7004 85.5669 91.9752 87.9606 117.69 122.847L117.794 122.831C98.18 95.2381 93.1345 87.2527 107.22 101.02C110.696 105.023 115.715 110.794 122.246 118.127L123.62 118.125Z" fill="url(#paint1_radial_102_363)"/>
<path style="mix-blend-mode:screen" d="M120.527 45.3974C90.562 64.9392 86.338 67.707 122.477 49.1091C87.1743 69.69 92.2346 68.9053 127.009 59.9208C92.3466 69.6274 87.5016 71.1182 127.817 64.4436C88.0994 72.927 93.6294 73.1258 128.874 72.625C93.5901 73.5544 88.1401 73.8714 128.498 78.3877C87.5466 76.1818 92.5064 78.1592 126.658 89.0255C92.3086 78.9294 87.1349 77.619 124.447 94.5446C86.652 79.2784 91.3587 82.3515 121.665 100.469C90.9936 82.725 86.1443 80.0966 117.126 106.666C84.2709 81.6548 87.35 85.8253 110.793 113.564C86.8104 86.4372 83.1756 82.7754 104.228 118.28C81.8578 83.8248 84.0715 88.5521 100.075 120.825C83.5871 88.8385 80.8731 84.2945 91.2909 124.194C78.6884 84.5276 79.0985 89.2177 84.3805 126.006C78.4076 89.5361 77.1713 84.9742 74.6163 126.463C75.519 85.2304 75.0869 89.9455 71.6608 126.499C74.5706 90.0256 74.5736 85.2714 62.061 124.608C72.7612 84.4961 70.9619 88.5781 57.523 123.304C70.2943 88.3647 71.3227 84.0853 48.0949 118.428C69.765 83.5875 67.1628 87.2658 45.9961 117.169C66.805 87.0043 68.9461 83.0806 38.9025 110.98C67.7767 81.6774 64.4822 84.3011 36.1506 108.238C63.8698 83.7622 66.7586 80.5677 29.9677 99.0553C65.3826 79.1965 61.3245 80.9878 28.2325 96.0496C61.038 80.5041 64.9288 78.3161 25.5389 88.2276C64.5696 76.6816 60.3355 77.3383 24.3987 84.2846C60.2075 76.513 64.2264 75.1503 23.5858 74.2695C63.8192 73.2063 59.4091 72.7282 23.6048 69.6185C59.4324 72.1964 63.8817 72.2459 24.6551 63.4343C64.4126 70.8959 60.3749 69.4093 25.7228 58.7263C60.676 68.6232 64.8243 69.4588 28.9724 51.039C65.4978 67.6641 61.9037 64.9467 31.9222 45.5109C62.1655 64.5892 65.9894 66.7428 34.731 41.8006C67.1007 65.7254 64.3881 62.5544 38.9288 36.8185C64.9437 62.0456 68.2279 64.8111 44.168 32.4143C69.7043 63.4201 67.9124 59.3669 50.9564 27.7699C68.5001 59.0645 70.673 62.8473 54.0138 26.345C72.2061 62.504 71.5822 58.4808 62.0908 23.1909C72.2891 58.2656 73.6359 62.1766 66.8092 22.248C75.3755 61.8012 75.8716 57.4987 75.9611 21.2512C76.3007 57.5378 76.4402 61.8473 78.1065 21.4467C77.8787 62.2581 79.2969 58.4464 88.1266 22.6393C79.9646 58.6598 79.2139 62.6848 91.4647 23.7063C80.859 63.0635 83.3579 59.4012 100.359 27.1862C83.7157 59.6627 81.6779 63.5704 102.577 28.5325C83.2124 64.6 86.6654 61.6349 111.729 35.036C87.1745 62.1898 84.2145 65.6066 114.393 37.8976C85.765 66.7395 90.1562 64.3683 120.408 45.3102L120.527 45.3974Z" fill="url(#paint2_radial_102_363)"/>
<path style="mix-blend-mode:color-dodge" opacity="0.3" d="M72.6705 13.9457C105.713 12.2019 133.873 37.6246 135.608 70.6314C137.342 103.638 111.883 131.777 78.841 133.521C45.7987 135.265 17.6384 109.842 15.9038 76.8355C14.1693 43.8287 39.6282 15.6895 72.6705 13.9457Z" fill="url(#paint3_linear_102_363)"/>
<defs>
<radialGradient id="paint0_radial_102_363" cx="0" cy="0" r="1" gradientUnits="userSpaceOnUse" gradientTransform="translate(125.185 -24.6858) rotate(42.2438) scale(221.298 221.35)">
<stop stop-color="#FF9D00"/>
<stop offset="0.1" stop-color="#F99800"/>
<stop offset="0.24" stop-color="#E88A00"/>
<stop offset="0.39" stop-color="#CD7300"/>
<stop offset="0.54" stop-color="#AD5700"/>
<stop offset="0.6" stop-color="#A15200"/>
<stop offset="0.72" stop-color="#824600"/>
<stop offset="0.86" stop-color="#513300"/>
<stop offset="1" stop-color="#1E1F00"/>
</radialGradient>
<radialGradient id="paint1_radial_102_363" cx="0" cy="0" r="1" gradientUnits="userSpaceOnUse" gradientTransform="translate(77.7654 63.0692) rotate(45.8849) scale(100.669 100.706)">
<stop stop-color="#FFA600"/>
<stop offset="0.08" stop-color="#F9A100"/>
<stop offset="0.19" stop-color="#E89300"/>
<stop offset="0.31" stop-color="#CD7D00"/>
<stop offset="0.44" stop-color="#A85F00"/>
<stop offset="0.54" stop-color="#874400"/>
<stop offset="0.64" stop-color="#763E00"/>
<stop offset="0.82" stop-color="#4B2F00"/>
<stop offset="1" stop-color="#1E1F00"/>
</radialGradient>
<radialGradient id="paint2_radial_102_363" cx="0" cy="0" r="1" gradientUnits="userSpaceOnUse" gradientTransform="translate(2.62163 -6.90913) rotate(-28.555) scale(178.89 178.738)">
<stop/>
<stop offset="0.04" stop-color="#060300"/>
<stop offset="0.5" stop-color="#4B2500"/>
<stop offset="0.83" stop-color="#763B00"/>
<stop offset="1" stop-color="#874400"/>
</radialGradient>
<linearGradient id="paint3_linear_102_363" x1="41.1593" y1="95.6204" x2="233.898" y2="-26.7786" gradientUnits="userSpaceOnUse">
<stop/>
<stop offset="1" stop-color="white"/>
</linearGradient>
</defs>
</svg>
