<svg width="392" height="504" viewBox="0 0 392 504" fill="none" xmlns="http://www.w3.org/2000/svg">
<path style="mix-blend-mode:multiply" d="M97.3839 381.249C92.2071 404.479 69.1382 419.116 45.8856 413.927C22.633 408.738 7.96661 385.679 13.1434 362.45C18.3203 339.22 41.3892 324.583 64.6418 329.772C87.8943 334.961 102.561 358.02 97.3839 381.249Z" fill="url(#paint0_radial_234_30)"/>
<path d="M93.8013 376.799C100.608 359.91 92.4199 340.695 75.5117 333.882C58.6035 327.068 39.3784 335.236 32.5713 352.125C25.7641 369.014 33.9527 388.229 50.8609 395.042C67.7691 401.855 86.9942 393.688 93.8013 376.799Z" fill="url(#paint1_radial_234_30)"/>
<path style="mix-blend-mode:multiply" d="M373.665 71.724C412.423 111.394 411.638 175.058 371.914 213.847C332.19 252.635 268.508 251.918 229.749 212.247C190.991 172.577 191.777 108.913 231.501 70.1244C271.225 31.3359 334.907 32.0535 373.665 71.724Z" fill="url(#paint2_radial_234_30)"/>
<path d="M360.417 73.0533C336.11 38.2695 288.179 29.7999 253.359 54.1358C218.538 78.4717 210.015 126.398 234.321 161.181C258.628 195.965 306.559 204.435 341.38 180.099C376.2 155.763 384.723 107.837 360.417 73.0533Z" fill="url(#paint3_radial_234_30)"/>
<path style="mix-blend-mode:multiply" d="M385.642 365.438C407.937 442.371 363.527 522.887 286.506 545.184C209.485 567.481 128.898 523.145 106.603 446.213C84.3088 369.28 128.718 288.764 205.74 266.467C282.761 244.17 363.347 288.505 385.642 365.438Z" fill="url(#paint4_radial_234_30)"/>
<path d="M367.868 358.096C360.64 297.239 305.392 253.774 244.468 261.015C183.544 268.255 140.015 323.459 147.243 384.316C154.47 445.174 209.718 488.639 270.642 481.398C331.566 474.158 375.096 418.954 367.868 358.096Z" fill="url(#paint5_radial_234_30)"/>
<defs>
<radialGradient id="paint0_radial_234_30" cx="0" cy="0" r="1" gradientUnits="userSpaceOnUse" gradientTransform="translate(55.2835 371.838) rotate(12.5777) scale(43.1601 43.1139)">
<stop offset="0.59" stop-color="#8F5F33"/>
<stop offset="0.6" stop-color="#926339"/>
<stop offset="0.65" stop-color="#AE8C6D"/>
<stop offset="0.71" stop-color="#C7AF99"/>
<stop offset="0.77" stop-color="#DBCCBE"/>
<stop offset="0.83" stop-color="#EBE2DA"/>
<stop offset="0.89" stop-color="#F6F2EE"/>
<stop offset="0.94" stop-color="#FCFBFA"/>
<stop offset="1" stop-color="white"/>
</radialGradient>
<radialGradient id="paint1_radial_234_30" cx="0" cy="0" r="1" gradientUnits="userSpaceOnUse" gradientTransform="translate(65.6041 360.897) rotate(-145.786) scale(36.0788 36.0437)">
<stop offset="0.25" stop-color="white"/>
<stop offset="0.46" stop-color="#FCFCFC"/>
<stop offset="0.61" stop-color="#F4F3F2"/>
<stop offset="0.74" stop-color="#E5E4E2"/>
<stop offset="0.86" stop-color="#D2CFCC"/>
<stop offset="0.97" stop-color="#B8B4AF"/>
</radialGradient>
<radialGradient id="paint2_radial_234_30" cx="0" cy="0" r="1" gradientUnits="userSpaceOnUse" gradientTransform="translate(301.71 141.932) rotate(-44.3194) scale(100.58 100.473)">
<stop offset="0.59" stop-color="#8F5F33"/>
<stop offset="0.6" stop-color="#926339"/>
<stop offset="0.65" stop-color="#AE8C6D"/>
<stop offset="0.71" stop-color="#C7AF99"/>
<stop offset="0.77" stop-color="#DBCCBE"/>
<stop offset="0.83" stop-color="#EBE2DA"/>
<stop offset="0.89" stop-color="#F6F2EE"/>
<stop offset="0.94" stop-color="#FCFBFA"/>
<stop offset="1" stop-color="white"/>
</radialGradient>
<radialGradient id="paint3_radial_234_30" cx="0" cy="0" r="1" gradientUnits="userSpaceOnUse" gradientTransform="translate(293.487 107.861) rotate(157.317) scale(84.078 83.9963)">
<stop offset="0.25" stop-color="white"/>
<stop offset="0.46" stop-color="#FCFCFC"/>
<stop offset="0.61" stop-color="#F4F3F2"/>
<stop offset="0.74" stop-color="#E5E4E2"/>
<stop offset="0.86" stop-color="#D2CFCC"/>
<stop offset="0.97" stop-color="#B8B4AF"/>
</radialGradient>
<radialGradient id="paint4_radial_234_30" cx="0" cy="0" r="1" gradientUnits="userSpaceOnUse" gradientTransform="translate(246.162 405.759) rotate(-16.1472) scale(145.26 145.104)">
<stop offset="0.59" stop-color="#8F5F33"/>
<stop offset="0.6" stop-color="#926339"/>
<stop offset="0.65" stop-color="#AE8C6D"/>
<stop offset="0.71" stop-color="#C7AF99"/>
<stop offset="0.77" stop-color="#DBCCBE"/>
<stop offset="0.83" stop-color="#EBE2DA"/>
<stop offset="0.89" stop-color="#F6F2EE"/>
<stop offset="0.94" stop-color="#FCFBFA"/>
<stop offset="1" stop-color="white"/>
</radialGradient>
<radialGradient id="paint5_radial_234_30" cx="0" cy="0" r="1" gradientUnits="userSpaceOnUse" gradientTransform="translate(258.925 356.775) rotate(-174.51) scale(121.427 121.309)">
<stop offset="0.25" stop-color="white"/>
<stop offset="0.46" stop-color="#FCFCFC"/>
<stop offset="0.61" stop-color="#F4F3F2"/>
<stop offset="0.74" stop-color="#E5E4E2"/>
<stop offset="0.86" stop-color="#D2CFCC"/>
<stop offset="0.97" stop-color="#B8B4AF"/>
</radialGradient>
</defs>
</svg>
