<svg width="150" height="150" viewBox="0 0 150 150" fill="none" xmlns="http://www.w3.org/2000/svg">
<path style="mix-blend-mode:multiply" d="M122.892 118.873C98.6708 145.447 57.4135 147.408 30.8197 123.221C4.22582 99.0348 2.27616 57.8216 26.4973 31.2477C50.7184 4.67385 91.9758 2.71244 118.57 26.8991C145.163 51.0858 147.113 92.2989 122.892 118.873Z" fill="url(#paint0_radial_271_1390)"/>
<path style="mix-blend-mode:screen" opacity="0.3" d="M123.62 118.125C118.839 112.528 114.838 107.867 111.719 104.125C115.1 107.509 119.379 111.916 124.421 117.155C116.292 108.38 110.573 102.19 107.042 98.5118C99.1019 88.2286 104.969 91.9668 128.801 111.3L128.976 111.062C96.2831 82.3275 98.875 84.0383 130.149 109.084L130.253 109.068C109.371 91.7068 101.871 84.947 110.735 89.5937C114.091 92.1368 121.469 97.4364 132.291 105.16C123.6 98.9018 117.16 94.1962 113.398 91.0822C117.683 93.4811 124.337 97.5198 133.345 103.095C121.594 95.5155 114.224 90.9541 110.846 88.9427C105.541 84.0609 112.862 86.9399 135.517 98.0045L135.675 97.663C100.379 78.7345 102.962 79.7072 136.349 95.8683L136.317 95.662C106.785 80.4877 102.133 77.0892 129.536 84.6709C132.223 85.6276 135.235 86.6394 138.573 87.7063C136.538 86.8598 134.639 86.2037 132.842 85.5315C134.623 86.1005 136.609 86.6375 138.596 87.1744L138.548 86.865C131.411 84.4858 125.848 82.7076 121.739 81.4434C107.455 75.9469 111.976 75.774 139.495 80.6968L139.431 80.2842C103.869 72.5945 106.269 73.0675 139.574 79.8395L139.542 79.6332C114.35 74.0326 107.141 71.8758 121.554 72.0703C125.654 72.5964 131.693 73.3501 139.775 74.3152C133.497 73.3873 128.419 72.6958 124.526 72.1376C128.459 72.2672 133.472 72.546 139.773 72.9422L139.741 72.7358C129.253 71.9327 122.284 71.3232 118.661 71.1456C111.326 69.5366 117.451 68.798 139.482 68.3392L139.418 67.9266C105.627 67.5681 107.931 67.4221 139.307 67.2045L139.259 66.895C108.081 66.3425 105.434 64.9572 137.685 58.7937L137.605 58.2779C106.901 62.8281 109.277 62.4598 137.454 57.9845L137.422 57.7781C109.3 61.928 106.693 61.4871 135.963 53.1451C135.931 52.9387 135.899 52.7324 135.764 52.5421C107.803 59.0966 105.268 58.4334 133.271 46.6961L133.207 46.2835C130.808 47.1836 128.703 47.9326 126.821 48.7527C108.189 55.4451 108.251 54.4847 131.201 42.8972L131.137 42.4846C104.518 54.9581 106.177 54.0669 130.763 42.12L130.699 41.7074C105.588 52.9962 102.998 52.6585 126.235 35.4276C126.1 35.2373 125.846 34.9598 125.71 34.7695C102.963 49.706 104.439 48.3151 124.541 33.3663L124.509 33.16C104.137 47.7282 102.135 48.4611 122.234 30.7662L121.98 30.4888C100.642 48.3758 101.927 47.1201 121.606 30.1242L121.351 29.8468C101.37 46.2557 99.2016 46.592 117.017 25.7652C116.882 25.5749 116.659 25.5038 116.421 25.3295C98.6111 44.1483 99.6264 42.5119 115.212 24.355C99.4751 42.2185 97.8635 43.4192 113.407 22.9447L113.168 22.7704C96.4497 43.8497 97.2905 42.4517 112.453 22.2476L112.095 21.9861C96.249 41.8737 94.0411 42.6386 106.585 18.5094C106.347 18.3352 106.005 18.1769 105.663 18.0186C92.3859 40.1488 92.5983 38.1087 102.674 16.475L102.468 16.5071C92.0179 37.7762 90.8994 39.4286 100.846 15.5966L100.504 15.4383C89.5176 40.0654 89.8812 38.3188 99.0335 14.8213L98.6918 14.663C88.9751 37.9311 87.3635 39.1318 93.8832 12.979C93.6606 12.9079 93.3348 12.8528 93.0963 12.6785C85.4945 37.3089 85.2938 35.3329 89.9967 11.7859L89.8934 11.8019C84.952 35.1747 84.501 37.0404 89.4483 11.6597L89.2418 11.6917C83.7316 38.2161 83.6662 36.4304 87.5808 11.2098L87.271 11.2579C82.6335 36.5906 81.3956 38.1558 82.2645 10.3441C81.9547 10.3921 81.6129 10.2339 81.3031 10.2819C78.7964 37.08 77.8249 34.9066 76.7025 9.93898L76.496 9.97101C77.3245 35.0899 77.2314 37.2171 75.7411 9.87682L75.328 9.94088C76.0648 38.56 75.1412 36.6961 71.6175 9.88247L71.2044 9.94652C74.0053 36.8723 73.4671 38.8572 67.0256 10.2777L66.1995 10.4058C69.8528 31.9175 69.7058 35.7432 65.7933 24.8355C64.8683 21.5985 63.5288 17.0526 61.8461 10.9753L61.6395 11.0073C62.4133 13.9508 63.155 16.688 63.8328 19.0125C63.0517 16.704 62.2227 14.086 61.2424 11.1745L61.1392 11.1905C62.6619 16.2363 64.0567 20.4567 64.9657 23.5905C68.8272 38.9429 66.5495 33.803 58.1763 11.8613L57.8665 11.9093C67.5879 39.1351 67.7173 41.3334 54.5385 12.9536L53.8156 13.0657C65.2228 41.6147 62.9407 39.8558 48.1532 15.4228L47.9466 15.4548C62.5916 40.3325 63.889 42.561 47.7561 15.59L47.343 15.6541C63.3988 44.8554 60.8549 43.454 41.1016 19.0516L40.6885 19.1157C59.9341 44.3363 60.9057 46.5096 38.0209 21.0083C37.8144 21.0404 37.6398 21.2787 37.5365 21.2947C52.4289 39.5845 55.3975 44.406 47.7163 38.5195C44.8452 35.69 40.121 31.1407 33.186 24.6103L32.9795 24.6424C36.7495 28.4945 39.8752 31.6014 42.3885 34.1695C39.5974 31.8558 36.1779 28.9 32.2493 25.3894C37.5378 30.1681 41.8242 33.9401 44.8859 36.6344C56.753 49.0551 50.4725 45.381 28.1853 29.1888L28.0108 29.4271C55.777 50.2628 57.646 52.0857 26.7409 30.7861L26.4791 31.1436C56.0344 53.2864 52.4345 52.577 21.9482 36.7056C52.6177 53.0768 55.5908 54.5172 21.7737 36.9439L21.5118 37.3014C56.4358 57.2384 52.686 57.6086 16.063 46.4918L15.8885 46.7301C52.5522 58.7914 55.2706 59.9544 15.1117 48.5408L14.9532 48.8823C42.3415 57.7339 48.5973 60.5667 36.8769 59.3208C32.1803 58.359 24.2255 56.846 12.6869 54.7269L12.7189 54.9332C18.0831 56.1084 22.7958 57.1734 26.8407 58.025C22.7245 57.3957 17.9566 56.6562 12.3306 55.8385C19.2758 56.9798 25.0371 57.9878 29.5985 58.7594C53.416 64.3618 45.2649 64.9921 10.345 64.1749L10.3769 64.3812C52.3135 66.1174 55.6109 66.2399 10.2344 64.8258L10.2664 65.0321C54.7861 67.741 50.5128 68.8263 9.47938 72.2319C50.8866 69.1909 54.9621 68.8758 9.4648 73.5018L9.4968 73.7081C57.2762 70.8409 53.7591 73.3935 10.4638 86.7629L10.4957 86.9692C54.4194 74.2418 57.8827 73.3878 10.6877 88.207C57.2645 74.857 53.3023 77.2672 12.4345 94.6969C53.6441 77.4255 57.7022 75.6342 12.5304 95.3159C59.8404 76.4646 56.9517 79.6591 16.8632 105.525C57.7545 80.0628 61.0418 78.0741 17.1978 106.318C60.8207 79.3761 57.3283 82.7699 20.1823 111.242C57.6701 82.9281 61.481 80.2244 22.4818 114.478C64.2547 81.0619 62.4554 85.1439 31.3745 124.085C63.171 85.6667 65.8852 82.7105 32.973 125.527C65.8706 83.9804 63.3484 88.1745 36.106 127.999C63.4837 88.3648 66.483 84.5193 39.4135 130.233C68.6997 84.4924 67.8618 88.6366 48.2772 134.879C68.6167 88.7308 70.48 85.0614 51.099 136.026C70.8785 86.2673 69.469 90.817 53.5629 136.912C69.7075 90.9913 71.7686 86.5518 60.2943 138.72C74.1599 86.2866 74.5932 90.4449 69.6948 140.009L69.7981 139.993C75.3801 90.7454 76.1307 86.7204 73.4213 140.171C76.5132 87.8231 76.1844 92.5222 73.5246 140.155C76.4229 92.6964 77.1649 87.9333 80.5557 139.804C79.063 87.2164 80.2746 90.9371 87.165 138.779L87.2683 138.763C81.918 97.443 81.1066 88.801 88.4803 119.983C89.4548 124.902 90.6764 130.734 92.1453 137.478C91.2669 133.178 90.4524 129.29 89.7892 125.695C90.643 129.154 91.4734 133.146 92.4551 137.43C90.643 129.154 89.1741 122.41 88.0324 117.094C83.4861 92.5518 85.9688 96.2866 100.238 134.427L100.445 134.395C84.7036 86.7642 86.6614 89.841 105.043 131.992L105.146 131.976C93.7401 104.8 89.2634 93.663 93.8871 100.974C95.4085 104.647 100.258 114.776 107.758 130.409C101.954 118.21 97.9319 109.326 95.8608 104.154C98.7421 109.095 103.303 117.367 109.68 129.16C102.181 114.9 97.3168 106.041 94.9925 101.965C92.1477 93.8495 97.8042 101.001 114.618 125.542L114.824 125.51C89.6999 85.5669 91.9747 87.9606 117.69 122.847L117.793 122.831C98.1795 95.2381 93.134 87.2527 107.219 101.02C110.695 105.023 115.715 110.794 122.245 118.127L123.62 118.125Z" fill="url(#paint1_radial_271_1390)"/>
<path style="mix-blend-mode:color-dodge" opacity="0.3" d="M72.6697 13.9457C105.712 12.2019 133.872 37.6246 135.607 70.6314C137.341 103.638 111.882 131.777 78.8402 133.521C45.798 135.265 17.6376 109.842 15.9031 76.8355C14.1685 43.8287 39.6275 15.6895 72.6697 13.9457Z" fill="url(#paint2_linear_271_1390)"/>
<defs>
<radialGradient id="paint0_radial_271_1390" cx="0" cy="0" r="1" gradientUnits="userSpaceOnUse" gradientTransform="translate(125.184 -24.6858) rotate(42.2438) scale(221.298 221.35)">
<stop stop-color="#FF9D00"/>
<stop offset="0.1" stop-color="#F99800"/>
<stop offset="0.24" stop-color="#E88A00"/>
<stop offset="0.39" stop-color="#CD7300"/>
<stop offset="0.54" stop-color="#AD5700"/>
<stop offset="0.6" stop-color="#A15200"/>
<stop offset="0.72" stop-color="#824600"/>
<stop offset="0.86" stop-color="#513300"/>
<stop offset="1" stop-color="#1E1F00"/>
</radialGradient>
<radialGradient id="paint1_radial_271_1390" cx="0" cy="0" r="1" gradientUnits="userSpaceOnUse" gradientTransform="translate(77.7649 63.0692) rotate(45.8849) scale(100.669 100.706)">
<stop stop-color="#FFA600"/>
<stop offset="0.08" stop-color="#F9A100"/>
<stop offset="0.19" stop-color="#E89300"/>
<stop offset="0.31" stop-color="#CD7D00"/>
<stop offset="0.44" stop-color="#A85F00"/>
<stop offset="0.54" stop-color="#874400"/>
<stop offset="0.64" stop-color="#763E00"/>
<stop offset="0.82" stop-color="#4B2F00"/>
<stop offset="1" stop-color="#1E1F00"/>
</radialGradient>
<linearGradient id="paint2_linear_271_1390" x1="41.1585" y1="95.6204" x2="233.897" y2="-26.7786" gradientUnits="userSpaceOnUse">
<stop/>
<stop offset="1" stop-color="white"/>
</linearGradient>
</defs>
</svg>
