<svg width="142" height="142" viewBox="0 0 142 142" fill="none" xmlns="http://www.w3.org/2000/svg">
<path style="mix-blend-mode:multiply" d="M65.6252 136.247C101.782 139.069 133.378 112.079 136.197 75.9621C139.016 39.8456 111.991 8.27945 75.8344 5.45713C39.6779 2.63481 8.08178 29.6251 5.26258 65.7416C2.44338 101.858 29.4686 133.424 65.6252 136.247Z" fill="url(#paint0_radial_102_270)"/>
<path style="mix-blend-mode:screen" d="M124.617 42.9003C90.5841 54.7393 85.8045 56.4069 125.637 46.9908C86.1309 58.5434 91.2368 59.0123 127.472 58.6743C91.2468 59.7871 86.1508 60.093 127.187 63.2259C86.359 61.9388 91.5985 63.4033 126.257 71.527C91.4902 63.8874 86.0779 62.8317 124.49 77.0184C84.9985 64.9288 89.4013 68.0871 120.192 86.9565C89.0721 68.6947 84.3346 66.2139 116.718 91.7518C83.4443 67.6925 87.2805 71.7918 112.582 96.9175C86.9677 72.1896 82.754 68.4127 106.624 101.941C80.5498 69.5776 82.5701 74.3795 98.8191 107.172C81.9717 74.8254 79.2885 70.3939 91.2588 110.171C77.6826 71.1129 78.6899 76.258 86.5602 111.704C78.1834 76.4296 76.675 71.3861 77.1003 112.866C74.3753 71.0659 73.584 75.7891 69.9093 112.938C72.8083 75.7989 72.824 71.0855 60.2641 111.059C71.1436 70.9543 69.5229 75.4721 57.3616 110.34C69.0382 75.3639 70.1742 70.738 48.4567 106.197C68.6402 69.6331 65.9002 73.1487 44.2738 103.829C65.2219 72.8142 67.289 68.8943 36.2339 96.728C65.8841 67.9402 62.4121 70.9061 34.4635 95.0418C62.0839 70.599 65.1631 67.2506 29.0097 87.2979C64.3675 65.7108 60.4281 67.444 27.0148 83.9756C60.0572 66.7817 63.631 64.3164 23.2552 73.4789C62.7063 62.6257 58.2778 63.4059 22.3215 70.0988C58.1114 62.83 62.4326 61.6192 21.5599 61.8064C62.4936 59.9352 58.2279 59.5319 21.4564 57.717C58.288 58.7625 62.6137 58.3965 23.0828 47.7111C62.6966 56.4327 58.4537 54.8349 24.2133 43.1551C58.5619 54.3508 62.9076 55.5344 26.7079 37.3687C63.7115 54.2602 60.1643 51.8723 28.8778 33.0345C60.639 51.2056 64.5854 52.9914 33.9158 26.2504C65.6322 51.3139 62.7325 47.8507 38.1545 21.5852C63.1098 47.5283 66.3169 50.6637 41.761 18.7002C67.6373 49.9927 65.7506 46.1864 47.0654 14.8218C66.4135 45.8159 68.9631 49.2518 53.2144 11.8538C70.7255 48.3339 69.9382 43.98 60.9039 9.00607C70.4393 43.8784 71.733 48.0607 64.2603 8.42366C73.2734 48.1809 73.6656 44.0599 72.939 7.34193C74.3658 44.1146 74.8139 48.3012 77.7812 7.57917C76.6452 48.3034 78.0931 44.1944 86.9154 8.78474C78.5078 44.2971 77.5391 48.5843 88.9723 9.50824C78.8849 49.393 81.1939 45.9845 98.4865 13.0656C81.8022 46.3135 80.0961 50.1209 101.512 14.9202C81.6628 50.8061 84.9247 47.8238 109.392 20.461C85.2475 48.2009 82.3784 51.5656 111.216 22.3625C83.5405 52.9229 87.5771 50.8455 118.575 30.9589C87.9481 51.5078 84.2879 54.1775 120.425 34.3401C85.4445 55.6048 90.4014 54.3732 124.536 43.0347L124.617 42.9003Z" fill="url(#paint1_radial_102_270)"/>
<path style="mix-blend-mode:screen" opacity="0.3" d="M108.158 124.719C104.804 118.054 101.992 112.557 99.8745 108.099C102.37 112.235 105.477 117.544 109.133 123.951L109.203 123.956C103.402 113.441 99.2626 106.011 96.7304 101.45C91.3995 89.4237 96.3552 94.5251 114.929 119.196L115.155 119.003C90.205 83.0678 92.2818 85.3409 116.832 117.374L116.983 117.245C100.728 95.359 95.0434 86.9638 102.621 93.6772C105.251 96.9787 111.19 103.916 119.976 114.101C113.015 105.818 107.861 99.6453 104.854 95.7514C108.529 99.2049 114.023 104.63 121.454 112.317C111.823 102.136 105.694 95.817 102.81 93.0587C98.8407 87.0491 105.316 91.6359 124.69 107.855L124.928 107.522C94.9855 80.4855 97.3324 82.0057 125.969 105.914L126.131 105.645C100.794 83.6833 97.1307 79.1753 122.028 93.2219C124.445 94.7475 127.126 96.5049 130.076 98.4239L130.087 98.284C128.278 97.0873 126.604 95.9715 124.995 94.9311C126.615 95.8317 128.435 96.8885 130.254 97.9453L130.416 97.6764C123.897 93.6492 118.859 90.5116 115.16 88.2527C102.538 79.3863 106.971 80.3656 132.7 91.8736L132.733 91.4539C99.8225 75.3745 102.068 76.3941 132.976 91.0507L132.992 90.8408C109.729 79.3143 103.275 75.3625 117.211 79.1243C121.04 80.6194 126.855 82.8325 134.447 85.7472C128.502 83.3833 123.721 81.462 120.039 79.9079C123.83 80.9779 128.713 82.485 134.696 84.3593L134.718 84.0795C124.697 80.6938 117.961 78.5495 114.455 77.4315C107.602 74.0818 113.812 74.848 135.482 79.7061C135.493 79.5662 135.504 79.4263 135.515 79.2864C102.58 70.7344 104.804 71.1191 135.569 78.587L135.596 78.2373C105.231 70.1673 102.992 68.163 136.036 69.8979C136.052 69.6881 136.063 69.5482 136.08 69.3384C104.965 66.3467 107.41 66.608 136.107 68.9887L136.118 68.8488C107.659 66.1348 105.209 65.0288 135.794 63.9682C135.811 63.7584 135.757 63.5431 135.698 63.3978C106.709 62.9645 104.474 61.8049 134.638 57.1227C134.649 56.9829 134.59 56.8375 134.531 56.6922C132.042 56.9905 129.839 57.2407 127.845 57.5073C107.962 59.5439 108.313 58.6565 133.56 52.8869L133.447 52.5263C104.537 58.2915 106.337 57.7986 133.34 52.0957C133.351 51.9558 133.292 51.8105 133.233 51.6651C106.144 56.6577 103.684 55.6916 130.622 44.495C130.499 44.2743 130.38 43.9836 130.257 43.7628C104.398 52.8623 106.171 51.8045 129.472 42.0831L129.488 41.8733C106.074 51.234 103.877 51.4143 127.881 39.0035L127.693 38.7074C102.433 50.9498 104.05 50.0909 127.445 38.2658L127.263 37.8997C103.777 49.0844 101.542 48.8395 124.063 32.865C123.939 32.6443 123.81 32.4935 123.616 32.2672C101.663 46.3861 103.108 45.0212 122.729 31.0017L122.74 30.8618C102.925 44.6551 101.033 45.4223 121.255 29.1275L121.061 28.9013C99.6166 45.5228 100.841 44.2813 120.55 28.2281C120.416 28.1472 120.357 28.0019 120.222 27.921C99.9095 43.5754 97.6471 43.6802 115.659 23.2021C115.396 22.9704 115.202 22.7442 114.938 22.5125C96.5943 40.9241 97.3073 39.0095 112.43 20.3464L112.231 20.1902C96.8444 38.6215 95.3349 39.911 110.837 19.0962L110.574 18.8645C93.8963 40.2913 94.5929 38.5865 109.244 17.846C109.11 17.7651 109.045 17.6897 108.911 17.6088C93.7964 37.9614 91.8995 38.7984 104.62 14.8111C104.351 14.6494 104.152 14.4931 103.883 14.3313C90.5174 36.6499 90.8212 34.5626 101.046 12.7729L100.906 12.762C90.4065 34.4599 89.4999 36.1483 100.432 12.5139L100.222 12.4975C88.3677 37.1154 88.7897 35.3188 98.7363 11.6779L98.3971 11.5106C87.7394 35.2368 86.0898 36.5154 93.7614 9.53035C93.4868 9.43855 93.1476 9.27134 92.873 9.17954C83.8994 34.7963 83.5194 32.4446 88.4037 7.77516L88.1937 7.75876C82.8837 32.4653 82.2998 34.5308 87.5044 7.56423L87.1543 7.5369C80.9412 35.6913 80.5394 33.6193 83.5625 6.62322C83.4224 6.61229 83.2824 6.60136 83.1424 6.59043C79.4137 33.6018 78.356 35.4191 78.9686 5.91279C78.6885 5.89093 78.4084 5.86907 78.1283 5.84721C76.4141 27.8087 75.4945 31.4663 74.2839 19.902C74.1958 16.5175 74.007 11.7178 73.7927 5.4384C73.7927 5.4384 73.6526 5.42747 73.5826 5.422C73.6225 8.52127 73.6896 11.2708 73.7786 13.7406C73.6141 11.3353 73.4124 8.50487 73.1625 5.38921L73.0225 5.37828C73.3077 10.7484 73.5994 15.134 73.8329 18.4595C73.9294 34.3699 72.8149 28.7943 69.9953 5.35309L69.6452 5.32576C72.5236 34.3306 72.0798 36.4069 66.1061 5.54207C65.896 5.52567 65.6105 5.57376 65.3949 5.6273C69.6291 36.2157 67.8378 33.8944 59.2751 6.4162L59.135 6.40527C67.385 34.2813 68.1796 36.7358 58.9195 6.45881L58.4885 6.5659C67.1701 38.8384 64.996 36.9095 51.592 8.27932L51.231 8.39187C63.9557 37.6023 64.4112 39.8896 48.122 9.41579C47.9065 9.46934 47.761 9.52835 47.54 9.65183C57.698 31.1327 59.4536 36.6176 53.3588 28.9644C51.2293 25.5613 47.6586 19.8643 42.5122 11.7926L42.2912 11.9161C45.039 16.4229 47.3512 20.1922 49.147 23.3581C46.9848 20.3747 44.3815 16.7235 41.3427 12.3346L41.2727 12.3291C45.3171 18.2742 48.5387 23.0292 50.8837 26.3787C59.4325 41.4009 54.2668 36.2831 36.3358 15.1103L36.1148 15.2338C58.1603 42.3571 59.6124 44.5111 34.5571 16.2381L34.1852 16.4905C57.7209 45.2782 54.3237 43.6761 28.3525 20.8202L28.2825 20.8147C54.3501 44.2411 56.7879 46.4016 28.126 21.0136C28.0506 21.0781 27.8996 21.207 27.8241 21.2715C57.1297 49.243 53.3705 48.6681 20.2481 28.9834L20.0162 29.2468C52.9922 49.9052 55.3172 51.7051 18.7703 30.768L18.5384 31.0313C43.1979 46.326 48.5746 50.5455 37.4018 46.5772C32.9871 44.4734 25.5735 41.0801 14.8918 36.2353L14.8754 36.4452C19.8284 38.8724 24.2377 41.0461 27.8931 42.9499C24.0703 41.3849 19.4992 39.48 14.2497 37.2407C20.7213 40.068 26.1754 42.3936 30.4719 44.2067C52.3453 55.4841 44.2778 54.1507 10.4174 44.8227L10.401 45.0325C51.0404 56.8599 54.1312 57.8752 10.1582 45.4358L10.1418 45.6456C52.9881 58.9822 48.5387 59.1275 7.63538 52.4866C48.856 59.5744 52.8898 60.2412 7.32159 53.7991L7.29975 54.0789C54.7293 62.8476 50.6608 64.4299 5.15854 67.0704L5.14216 67.2802C51.1391 65.5228 54.7373 65.4518 5.04389 68.5391L5.03297 68.679C53.8579 66.7905 49.3803 68.2002 5.14994 75.3027C49.5794 68.3564 54.0025 67.6462 5.17083 75.9376L5.15991 76.0775C55.9402 68.9937 52.4419 71.3945 6.98532 86.9861L6.9744 87.126C53.1684 72.0142 56.854 70.8242 7.19987 87.8473C56.3301 72.1203 52.1262 74.5364 8.95006 93.4022C52.4599 74.7736 56.8193 73.0732 10.3521 97.1003C59.2417 74.5289 56.5717 78.05 16.7768 108.649L16.8469 108.655C57.2228 78.7341 60.5647 76.5321 18.1108 110.513C60.2509 77.8446 56.8053 81.3754 20.6122 113.663C57.0044 81.5317 60.7674 78.4478 23.34 116.621C62.9807 78.9724 61.2691 82.8497 30.9172 123.334L30.9872 123.34C62.0229 83.1197 64.7356 79.9538 33.4523 125.15C64.8474 81.2292 62.3329 85.466 35.6646 126.59C62.532 85.6223 65.6494 81.7843 41.807 130.025L41.877 130.03C68.0837 82.1855 67.4815 86.2901 50.6856 133.603L50.8256 133.614C68.1435 86.8343 69.9141 83.1024 54.3365 134.662C70.0368 84.2378 68.6262 88.7719 54.4765 134.673C68.7553 88.9227 70.7206 84.5023 61.4129 136.058L61.4829 136.064C72.7785 84.3111 73.0383 88.2016 68.2047 136.589L68.3447 136.6C73.0798 94.8897 74.457 86.2717 74.1217 118.544C73.9386 123.596 73.6846 129.557 73.4188 136.573C73.6227 132.156 73.7993 128.089 74.0132 124.446C73.9393 128.1 73.9082 132.108 73.8443 136.536C74.0848 128.041 74.3507 121.025 74.4965 115.547C76.0363 90.4059 77.5347 94.6745 82.3076 135.508L82.4476 135.519C78.6327 85.1199 79.771 88.5864 87.5445 134.298L87.6845 134.309C83.072 104.958 81.3985 93.0058 84.207 101.247C84.8116 105.235 87.0516 116.246 90.5726 133.409C87.8825 120.04 86.0289 110.396 85.2644 104.848C86.88 110.322 89.332 119.52 92.6741 132.658C88.7584 116.942 86.2209 107.033 84.8844 102.496C84.0101 93.843 87.8689 102.166 98.3539 130.287L98.5749 130.163C83.6313 85.1582 85.3034 88.1035 102.024 128.392L102.164 128.403C89.6305 96.7445 86.6775 87.6478 97.1203 104.577C99.5607 109.412 103.12 116.163 107.651 124.891L108.158 124.719Z" fill="url(#paint2_radial_102_270)"/>
<path style="mix-blend-mode:color-dodge" opacity="0.3" d="M56.1678 11.029C88.3932 2.49686 121.478 21.7564 129.955 53.9426C138.502 86.1342 119.227 119.18 87.0076 127.642C54.7822 136.174 21.697 116.915 13.22 84.7285C4.67293 52.5369 23.9479 19.4913 56.1678 11.029Z" fill="url(#paint3_linear_102_270)"/>
<defs>
<radialGradient id="paint0_radial_102_270" cx="0" cy="0" r="1" gradientUnits="userSpaceOnUse" gradientTransform="translate(99.8207 -37.9241) rotate(30.3984) scale(223.008 222.855)">
<stop stop-color="#FF9D00"/>
<stop offset="0.1" stop-color="#F99800"/>
<stop offset="0.24" stop-color="#E88A00"/>
<stop offset="0.39" stop-color="#CD7300"/>
<stop offset="0.54" stop-color="#AD5700"/>
<stop offset="0.6" stop-color="#A15200"/>
<stop offset="0.72" stop-color="#824600"/>
<stop offset="0.86" stop-color="#513300"/>
<stop offset="1" stop-color="#1E1F00"/>
</radialGradient>
<radialGradient id="paint1_radial_102_270" cx="0" cy="0" r="1" gradientUnits="userSpaceOnUse" gradientTransform="translate(22.0036 -36.8294) rotate(-14.657) scale(180.122 179.966)">
<stop/>
<stop offset="0.04" stop-color="#060300"/>
<stop offset="0.5" stop-color="#4B2500"/>
<stop offset="0.83" stop-color="#763B00"/>
<stop offset="1" stop-color="#874400"/>
</radialGradient>
<radialGradient id="paint2_radial_102_270" cx="0" cy="0" r="1" gradientUnits="userSpaceOnUse" gradientTransform="translate(76.6088 60.0409) rotate(59.7937) scale(101.408 101.448)">
<stop stop-color="#FFA600"/>
<stop offset="0.08" stop-color="#F9A100"/>
<stop offset="0.19" stop-color="#E89300"/>
<stop offset="0.31" stop-color="#CD7D00"/>
<stop offset="0.44" stop-color="#A85F00"/>
<stop offset="0.54" stop-color="#874400"/>
<stop offset="0.64" stop-color="#763E00"/>
<stop offset="0.82" stop-color="#4B2F00"/>
<stop offset="1" stop-color="#1E1F00"/>
</radialGradient>
<linearGradient id="paint3_linear_102_270" x1="42.0837" y1="97.99" x2="206.595" y2="-62.4203" gradientUnits="userSpaceOnUse">
<stop/>
<stop offset="1" stop-color="white"/>
</linearGradient>
</defs>
</svg>
