<svg width="192" height="192" viewBox="0 0 192 192" fill="none" xmlns="http://www.w3.org/2000/svg">
<path style="mix-blend-mode:multiply" d="M88.9563 184.485C137.905 188.306 180.679 151.767 184.495 102.873C188.312 53.9785 151.726 11.2447 102.777 7.42383C53.8291 3.60301 11.0547 40.1421 7.23813 89.0362C3.42153 137.93 40.008 180.664 88.9563 184.485Z" fill="url(#paint0_radial_285_624)"/>
<path style="mix-blend-mode:screen" d="M168.82 58.1141C122.746 74.1417 116.275 76.3992 170.199 63.6518C116.717 79.2916 123.629 79.9264 172.684 79.4687C123.643 80.9753 116.744 81.3894 172.298 85.6306C117.026 83.8882 124.119 85.8708 171.04 96.8686C123.973 86.5262 116.645 85.0969 168.648 104.303C115.184 87.936 121.145 92.2117 162.829 117.757C120.699 93.0343 114.285 89.6758 158.126 124.249C113.08 91.6775 118.274 97.227 152.526 131.242C117.85 97.7655 112.146 92.6524 144.461 138.043C109.161 94.2295 111.897 100.73 133.894 145.125C111.086 101.334 107.454 95.3346 123.659 149.184C105.28 96.308 106.644 103.273 117.298 151.26C105.958 103.506 103.916 96.6779 104.492 152.832C100.803 96.2443 99.7313 102.639 94.7566 152.93C98.6812 102.652 98.7024 96.2709 81.699 150.386C96.4275 96.0933 94.2334 102.209 77.7696 149.413C93.5773 102.063 95.1152 95.8004 65.7142 143.804C93.0385 94.3046 89.3291 99.064 60.0516 140.599C88.4108 98.6112 91.2092 93.3045 49.1672 130.985C89.3073 92.0129 84.607 96.028 46.7705 128.703C84.1626 95.6123 88.3311 91.0793 39.3872 118.219C87.2541 88.9947 81.9211 91.341 36.6865 113.721C81.4189 90.4445 86.257 87.1069 31.5968 99.5111C85.0052 84.8182 79.0099 85.8744 30.3328 94.9351C78.7847 85.0947 84.6347 83.4556 29.3017 83.709C84.7173 81.1757 78.9425 80.6297 29.1616 78.1728C79.0238 79.5882 84.8799 79.0927 31.3634 64.627C84.992 76.4341 79.2481 74.271 32.8939 58.4591C79.3946 73.6156 85.2777 75.218 36.2711 50.6255C86.366 73.493 81.5639 70.2602 39.2086 44.758C82.2065 69.3578 87.5492 71.7753 46.0291 35.5737C88.9662 69.5044 85.0406 64.8159 51.7673 29.258C85.5515 64.3795 89.8932 68.6241 56.6498 25.3523C91.6807 67.7158 89.1266 62.5628 63.8307 20.1019C90.024 62.0613 93.4757 66.7127 72.1553 16.0838C95.8615 65.47 94.7957 59.5759 82.5652 12.2286C95.474 59.4383 97.2255 65.1002 87.109 11.4401C99.3109 65.263 99.8417 59.684 98.8581 9.97568C100.79 59.758 101.396 65.4258 105.413 10.2968C103.876 65.4288 105.836 59.8661 117.779 11.9289C106.397 60.0051 105.086 65.809 120.564 12.9084C106.908 66.9039 110.033 62.2895 133.444 17.7243C110.857 62.7348 108.547 67.8892 137.539 20.235C110.668 68.8169 115.084 64.7795 148.207 27.7361C115.521 65.2899 111.637 69.8451 150.677 30.3104C113.21 71.6826 118.675 68.8703 160.64 41.948C119.177 69.7668 114.222 73.3811 163.144 46.5255C115.788 75.3133 122.498 73.6461 168.71 58.2961L168.82 58.1141Z" fill="url(#paint1_radial_285_624)"/>
<path style="mix-blend-mode:screen" opacity="0.3" d="M146.537 168.879C141.996 159.856 138.19 152.414 135.323 146.379C138.701 151.978 142.908 159.165 147.858 167.839L147.952 167.847C140.099 153.611 134.494 143.552 131.066 137.378C123.85 121.097 130.558 128.003 155.703 161.402L156.01 161.14C122.232 112.492 125.044 115.57 158.28 158.936L158.484 158.762C136.478 129.132 128.783 117.767 139.04 126.855C142.602 131.325 150.642 140.716 162.536 154.505C153.112 143.291 146.134 134.935 142.064 129.663C147.039 134.338 154.477 141.683 164.536 152.089C151.498 138.306 143.201 129.752 139.296 126.018C133.923 117.882 142.689 124.092 168.918 146.049L169.239 145.598C128.704 108.996 131.881 111.054 170.649 143.421L170.868 143.057C136.568 113.325 131.608 107.223 165.315 126.239C168.587 128.304 172.216 130.683 176.209 133.281L176.224 133.092C173.775 131.472 171.509 129.961 169.33 128.553C171.524 129.772 173.987 131.202 176.45 132.633L176.669 132.269C167.844 126.817 161.023 122.57 156.017 119.511C138.929 107.508 144.929 108.834 179.762 124.413L179.807 123.845C135.252 102.077 138.292 103.458 180.135 123.299L180.157 123.015C148.664 107.411 139.927 102.061 158.793 107.154C163.976 109.178 171.848 112.174 182.126 116.12C174.079 112.919 167.606 110.318 162.621 108.214C167.753 109.663 174.365 111.703 182.464 114.241L182.493 113.862C168.927 109.278 159.808 106.375 155.062 104.862C145.784 100.327 154.191 101.364 183.528 107.941C183.542 107.752 183.557 107.562 183.572 107.373C138.985 95.7954 141.996 96.3163 183.646 106.426L183.683 105.953C142.574 95.0277 139.543 92.3143 184.278 94.6631C184.3 94.379 184.315 94.1897 184.337 93.9056C142.215 89.8555 145.525 90.2091 184.374 93.4322L184.389 93.2428C145.861 89.5685 142.545 88.0713 183.951 86.6355C183.973 86.3515 183.9 86.06 183.82 85.8633C144.575 85.2766 141.55 83.7068 182.385 77.3682C182.4 77.1788 182.32 76.982 182.24 76.7853C178.871 77.1891 175.888 77.5278 173.189 77.8888C146.271 80.6459 146.747 79.4446 180.926 71.6338L180.773 71.1456C141.635 78.9504 144.072 78.2832 180.628 70.5626C180.643 70.3733 180.563 70.1765 180.483 69.9797C143.811 76.7386 140.48 75.4307 176.949 60.2729C176.781 59.9741 176.621 59.5806 176.454 59.2817C141.446 71.6004 143.847 70.1684 175.392 57.0078L175.414 56.7237C143.716 69.3961 140.741 69.6401 173.238 52.8386L172.983 52.4377C138.787 69.0113 140.976 67.8485 172.648 51.84L172.4 51.3443C140.606 66.4859 137.58 66.1545 168.069 44.5284C167.901 44.2295 167.727 44.0254 167.464 43.7191C137.744 62.8331 139.7 60.9853 166.263 42.0059L166.278 41.8165C139.452 60.4897 136.892 61.5282 164.268 39.4686L164.005 39.1623C134.974 61.6643 136.631 59.9837 163.314 38.251C163.131 38.1415 163.051 37.9447 162.869 37.8352C135.37 59.0279 132.307 59.1699 156.692 31.4468C156.335 31.1332 156.073 30.8269 155.716 30.5132C130.882 55.4386 131.847 52.8467 152.321 27.5809L152.051 27.3693C131.221 52.3214 129.177 54.0672 150.164 25.8884L149.807 25.5747C127.23 54.582 128.173 52.274 148.007 24.1958C147.825 24.0863 147.738 23.9842 147.556 23.8748C127.094 51.4278 124.526 52.561 141.748 20.0872C141.383 19.8683 141.114 19.6567 140.749 19.4377C122.655 49.6523 123.067 46.8266 136.909 17.328L136.719 17.3132C122.505 46.6875 121.278 48.9732 136.078 16.9773L135.793 16.9551C119.745 50.2825 120.316 47.8503 133.782 15.8455L133.323 15.6191C118.895 47.7393 116.661 49.4702 127.047 12.9382C126.675 12.8139 126.216 12.5876 125.844 12.4633C113.696 47.143 113.181 43.9592 119.794 10.5621L119.509 10.5399C112.321 43.9873 111.53 46.7834 118.576 10.2765L118.102 10.2395C109.691 48.3546 109.147 45.5495 113.24 9.00258C113.05 8.98778 112.861 8.97299 112.671 8.95819C107.623 45.5258 106.191 47.9861 107.021 8.04081C106.641 8.01121 106.262 7.98162 105.883 7.95202C103.562 37.6831 102.318 42.6349 100.679 26.9792C100.559 22.3973 100.304 15.8996 100.014 7.39859C100.014 7.39859 99.824 7.38379 99.7292 7.37639C99.7832 11.5721 99.8741 15.2944 99.9945 18.638C99.7719 15.3817 99.4988 11.5499 99.1605 7.33199L98.9709 7.31719C99.3571 14.5873 99.7519 20.5243 100.068 25.0263C100.199 46.5657 98.6898 39.0175 94.8727 7.28309L94.3988 7.2461C98.2955 46.5124 97.6947 49.3234 89.6075 7.53893C89.3232 7.51673 88.9366 7.58183 88.6449 7.65431C94.377 49.0644 91.952 45.922 80.3599 8.72231L80.1703 8.70751C91.3389 46.4457 92.4147 49.7686 79.8785 8.78L79.295 8.92498C91.0481 52.6151 88.1048 50.0038 69.9587 11.2446L69.4699 11.397C86.6964 50.9417 87.313 54.0382 65.2609 12.7831C64.9692 12.8556 64.7722 12.9355 64.473 13.1027C78.2248 42.1832 80.6016 49.6086 72.3504 39.2478C69.4675 34.6407 64.6336 26.9282 57.6664 16.0008L57.3673 16.168C61.0872 22.2693 64.2175 27.372 66.6486 31.6581C63.7214 27.6191 60.1971 22.6762 56.0833 16.7346L55.9885 16.7272C61.4638 24.7755 65.8251 31.2127 68.9997 35.7473C80.573 56.0842 73.5797 49.1557 49.305 20.4923L49.0058 20.6594C78.8507 57.3787 80.8165 60.2947 46.897 22.019L46.3935 22.3608C78.2559 61.3332 73.6568 59.1643 38.4973 28.2222L38.4025 28.2148C73.6925 59.9291 76.9927 62.8541 38.1907 28.4841C38.0885 28.5714 37.8842 28.7459 37.782 28.8332C77.4554 66.7007 72.3663 65.9224 27.5256 39.2735L27.2117 39.6301C71.8541 67.5971 75.0018 70.0339 25.5251 41.6894L25.2111 42.046C58.5948 62.7516 65.8737 68.464 50.7481 63.0918C44.7715 60.2437 34.7351 55.6498 20.2743 49.0911L20.2521 49.3751C26.9575 52.6611 32.9267 55.6039 37.8753 58.1812C32.7001 56.0625 26.5118 53.4837 19.4051 50.4522C28.1663 54.2797 35.5499 57.4281 41.3665 59.8826C70.9785 75.1497 60.0567 73.3446 14.217 60.7165L14.1948 61.0006C69.2118 77.0123 73.3961 78.3869 13.8661 61.5465L13.8439 61.8305C71.8486 79.8855 65.8251 80.0822 10.4507 71.0919C66.2547 80.6873 71.7155 81.5898 10.0259 72.8687L9.99634 73.2474C74.2058 85.1184 68.698 87.2605 7.09759 90.8352L7.07541 91.1192C69.3454 88.74 74.2167 88.6439 6.94238 92.8235L6.92759 93.0129C73.0262 90.4562 66.9644 92.3646 7.08595 101.98C67.234 92.5762 73.2219 91.6147 7.11423 102.839L7.09945 103.029C75.8451 93.4389 71.1091 96.6892 9.57066 117.797L9.55588 117.986C72.0927 97.528 77.0822 95.917 9.86112 118.963C76.373 97.6716 70.6817 100.943 12.2305 126.483C71.1335 101.264 77.0353 98.9617 14.1285 131.489C80.3147 100.932 76.7001 105.699 22.8263 147.124L22.9211 147.132C77.5815 106.625 82.1057 103.644 24.6321 149.647C81.6809 105.421 77.0163 110.201 28.0185 153.912C77.2858 110.413 82.3801 106.238 31.7115 157.916C85.3764 106.948 83.0593 112.197 41.9693 167.004L42.0641 167.012C84.0799 112.563 87.7523 108.277 45.4013 169.463C87.9036 110.003 84.4995 115.739 48.3963 171.412C84.7691 115.95 88.9894 110.755 56.7118 176.062L56.8066 176.069C92.2848 111.298 91.4696 116.855 68.7315 180.906L68.9211 180.921C92.3658 117.591 94.7629 112.539 73.6741 182.339C94.929 114.076 93.0193 120.214 73.8636 182.354C93.1941 120.419 95.8547 114.434 83.254 184.23L83.3487 184.238C98.6406 114.175 98.9924 119.442 92.4486 184.948L92.6382 184.963C99.0486 128.497 100.913 116.83 100.459 160.519C100.211 167.359 99.8673 175.429 99.5074 184.928C99.7835 178.948 100.023 173.441 100.312 168.51C100.212 173.456 100.17 178.882 100.084 184.877C100.409 173.376 100.769 163.878 100.966 156.463C103.051 122.426 105.079 128.205 111.541 183.485L111.731 183.5C106.566 115.27 108.107 119.963 118.631 181.848L118.82 181.862C112.576 142.127 110.31 125.946 114.112 137.103C114.931 142.501 117.963 157.408 122.73 180.643C119.088 162.545 116.579 149.489 115.544 141.978C117.731 149.388 121.051 161.841 125.575 179.627C120.274 158.351 116.839 144.937 115.029 138.794C113.846 127.08 119.07 138.347 133.264 176.417L133.563 176.25C113.333 115.322 115.597 119.309 138.233 173.852L138.422 173.866C121.455 131.008 117.457 118.693 131.594 141.611C134.898 148.156 139.716 157.296 145.851 169.112L146.537 168.879Z" fill="url(#paint2_radial_285_624)"/>
<path style="mix-blend-mode:color-dodge" opacity="0.3" d="M76.1536 14.9668C119.78 3.41604 164.57 29.4894 176.046 73.0626C187.617 116.643 161.523 161.38 117.904 172.836C74.2777 184.387 29.4874 158.313 18.0113 114.74C6.44045 71.1596 32.5347 26.4228 76.1536 14.9668Z" fill="url(#paint3_linear_285_624)"/>
<defs>
<radialGradient id="paint0_radial_285_624" cx="0" cy="0" r="1" gradientUnits="userSpaceOnUse" gradientTransform="translate(135.25 -51.3051) rotate(30.3984) scale(301.905 301.699)">
<stop stop-color="#FF9D00"/>
<stop offset="0.1" stop-color="#F99800"/>
<stop offset="0.24" stop-color="#E88A00"/>
<stop offset="0.39" stop-color="#CD7300"/>
<stop offset="0.54" stop-color="#AD5700"/>
<stop offset="0.6" stop-color="#A15200"/>
<stop offset="0.72" stop-color="#824600"/>
<stop offset="0.86" stop-color="#513300"/>
<stop offset="1" stop-color="#1E1F00"/>
</radialGradient>
<radialGradient id="paint1_radial_285_624" cx="0" cy="0" r="1" gradientUnits="userSpaceOnUse" gradientTransform="translate(29.9025 -49.8229) rotate(-14.657) scale(243.847 243.635)">
<stop/>
<stop offset="0.04" stop-color="#060300"/>
<stop offset="0.5" stop-color="#4B2500"/>
<stop offset="0.83" stop-color="#763B00"/>
<stop offset="1" stop-color="#874400"/>
</radialGradient>
<radialGradient id="paint2_radial_285_624" cx="0" cy="0" r="1" gradientUnits="userSpaceOnUse" gradientTransform="translate(103.826 81.3187) rotate(59.7937) scale(137.285 137.339)">
<stop stop-color="#FFA600"/>
<stop offset="0.08" stop-color="#F9A100"/>
<stop offset="0.19" stop-color="#E89300"/>
<stop offset="0.31" stop-color="#CD7D00"/>
<stop offset="0.44" stop-color="#A85F00"/>
<stop offset="0.54" stop-color="#874400"/>
<stop offset="0.64" stop-color="#763E00"/>
<stop offset="0.82" stop-color="#4B2F00"/>
<stop offset="1" stop-color="#1E1F00"/>
</radialGradient>
<linearGradient id="paint3_linear_285_624" x1="57.0866" y1="132.693" x2="279.8" y2="-84.4679" gradientUnits="userSpaceOnUse">
<stop/>
<stop offset="1" stop-color="white"/>
</linearGradient>
</defs>
</svg>
