<svg width="43" height="43" viewBox="0 0 43 43" fill="none" xmlns="http://www.w3.org/2000/svg">
<path style="mix-blend-mode:multiply" d="M27.0724 37.4019C18.3963 40.377 8.92677 35.7577 5.94302 27.087C2.95928 18.4162 7.57574 8.95792 16.2518 5.98286C24.9278 3.0078 34.3974 7.62704 37.3812 16.2978C40.3649 24.9686 35.7484 34.4269 27.0724 37.4019Z" fill="url(#paint0_radial_271_1344)"/>
<path style="mix-blend-mode:screen" opacity="0.3" d="M27.3273 37.3239C26.9439 35.4858 26.6203 33.9525 26.3815 32.7332C26.7227 33.9047 27.1397 35.4151 27.6254 37.2053C26.8827 34.2458 26.3624 32.1598 26.0233 30.9041C25.5078 27.6304 26.362 29.186 29.323 36.4324L29.3912 36.4005C25.6007 25.9648 25.9708 26.6653 29.8963 36.102L29.9213 36.111C27.3785 29.6674 26.5296 27.2358 27.9427 29.362C28.3816 30.3422 29.3824 32.4323 30.8563 35.4867C29.6795 33.0214 28.8156 31.1791 28.356 30.0214C29.0204 31.0834 30.0139 32.8026 31.3453 35.1541C29.6459 32.018 28.5565 30.0941 28.0473 29.2299C27.4592 27.4876 28.7438 29.029 32.4552 34.2816L32.5326 34.2246C26.9575 25.6632 27.4161 26.1975 32.9032 33.9058L32.9214 33.8557C28.1754 26.8407 27.5516 25.5102 32.752 30.5657C33.2357 31.1091 33.7855 31.7047 34.4014 32.3526C34.05 31.9138 33.7055 31.5341 33.3861 31.1635C33.7146 31.5091 34.0932 31.8728 34.4718 32.2365L34.499 32.1614C33.1941 30.7542 32.1676 29.6743 31.4034 28.8878C28.8822 25.9072 29.9146 26.4227 35.4671 30.8977L35.5033 30.7975C28.4908 24.7175 28.9697 25.1175 35.5897 30.7155L35.6079 30.6655C30.6591 26.3242 29.311 24.9579 32.5112 26.7684C33.3639 27.3888 34.6225 28.2978 36.3119 29.5044C35.0214 28.5272 33.9703 27.75 33.1677 27.1478C34.0316 27.6589 35.119 28.336 36.4799 29.1971L36.4981 29.147C34.2503 27.6815 32.7662 26.6908 31.9774 26.2069C30.5339 24.9477 31.9946 25.5334 36.9792 28.1318L37.0155 28.0316C29.5004 23.8087 30.0337 24.0585 37.0789 27.8563L37.1061 27.7812C30.1996 23.8354 29.7772 23.201 37.7473 25.7761L37.7927 25.6509C30.3666 22.9046 30.943 23.1134 37.7948 25.5667L37.8129 25.5166C31.0135 22.9973 30.4844 22.5791 38.0546 24.3014C38.0727 24.2513 38.0909 24.2012 38.084 24.1421C31.0258 22.1805 30.54 21.7213 38.243 22.5287L38.2793 22.4286C37.6324 22.3359 37.0697 22.2454 36.5482 22.1981C31.5597 21.4109 31.6914 21.2037 38.2457 21.4252L38.282 21.325C30.7982 20.8519 31.2787 20.856 38.2431 21.1977L38.2794 21.0975C31.2782 20.5443 30.7401 20.1511 38.0507 19.1455C38.0438 19.0863 38.0209 18.9931 38.0139 18.9339C31.0942 19.4864 31.595 19.3562 37.9244 18.4767L37.9425 18.4266C31.5993 19.1879 31.0617 19.1065 37.7271 17.6122L37.7042 17.519C30.738 18.9043 31.1796 18.781 37.6653 17.3916L37.6423 17.2983C31.161 18.5193 30.6346 18.3287 37.1731 15.8539C37.1662 15.7948 37.1251 15.7516 37.0932 15.6833C30.8021 17.7097 31.2298 17.4681 36.9423 15.3171C31.232 17.3839 30.7243 17.4549 36.7114 14.7804L36.6794 14.7122C30.3552 17.3779 30.7147 17.1682 36.5834 14.5075L36.5354 14.4051C30.5526 16.9112 29.9649 16.8117 35.7292 12.9519C35.6972 12.8837 35.6401 12.8064 35.583 12.7291C29.8999 16.0518 30.1975 15.6215 35.1037 12.0173L35.0535 11.9992C30.1084 15.4759 29.6557 15.7084 34.8024 11.5967L34.7453 11.5194C29.2685 15.6815 29.564 15.3354 34.492 11.2011L34.435 11.1238C29.4088 15.1375 28.9011 15.2086 33.5657 10.1576C33.5247 10.1144 33.4586 10.0621 33.4266 9.99386C28.7065 14.5716 28.9038 14.105 32.8426 9.4142L32.8176 9.40512C28.8468 14.0277 28.5171 14.3898 32.7354 9.31873L32.6853 9.30057C28.2009 14.5585 28.4052 14.151 32.3728 8.98914L32.2976 8.96191C28.1545 14.0602 27.6857 14.2586 31.2897 8.14372C31.2145 8.11649 31.1575 8.03918 31.0823 8.01195C27.2362 13.6993 27.2853 13.094 30.0952 7.37122L30.0451 7.35306C27.1509 13.0736 26.8693 13.5381 29.8877 7.23945L29.7875 7.20313C26.4437 13.6955 26.4656 13.1653 28.9646 6.73517L28.8644 6.69886C26.1899 13.0654 25.8261 13.4435 27.889 6.26063L27.6885 6.18801C25.8684 11.448 25.3665 12.2858 25.8286 9.36608C26.0185 8.52859 26.2762 7.34745 26.6448 5.78169L26.5947 5.76353C26.4069 6.51684 26.2373 7.22007 26.1039 7.82315C26.2122 7.21099 26.3477 6.52372 26.4853 5.75225L26.4603 5.74318C26.1823 7.05857 25.9769 8.17367 25.7961 8.98613C24.7777 12.8938 24.8983 11.4648 25.7153 5.52998L25.6401 5.50275C24.4769 12.7849 24.2364 13.2925 24.7676 5.32836L24.5921 5.26481C23.6439 13.0496 23.349 12.3764 23.0365 5.09788L22.9864 5.07972C23.2125 12.4402 23.2295 13.0977 22.9272 5.0866L22.8269 5.05029C22.8386 13.5509 22.4413 12.9256 21.0142 5.04514L20.914 5.00883C22.1272 13.01 22.0781 13.6153 20.0852 5.10516C20.0351 5.08701 19.9668 5.11892 19.9417 5.10984C21.0308 11.027 21.1038 12.4694 20.1072 10.211C19.8118 9.22603 19.3128 7.62921 18.562 5.31818L18.5119 5.30002C18.883 6.62392 19.2013 7.70213 19.4487 8.58473C19.108 7.72497 18.7054 6.64456 18.257 5.37762C18.8542 7.09494 19.3506 8.46423 19.7052 9.44229C20.8371 13.6756 19.8825 12.0838 16.8821 5.72929L16.8138 5.76121C20.4707 13.8261 20.6653 14.463 16.3632 5.90952L16.2608 5.9574C20.1576 14.534 19.4392 13.934 14.5653 6.64612C19.419 14.0683 19.9074 14.755 14.4971 6.67804L14.3947 6.72591C19.7628 15.4673 18.8787 15.0904 12.0491 8.11376L11.9808 8.14568C18.7037 15.3386 19.1692 15.932 11.5851 8.45548L11.5078 8.51244C16.5493 13.8502 17.6014 15.2509 15.1323 13.5353C14.1996 12.7443 12.6056 11.4307 10.2843 9.54202L10.2661 9.59209C11.322 10.5126 12.2457 11.3286 13.0461 12.015C12.2025 11.3696 11.2266 10.6197 10.0683 9.747C11.482 10.8538 12.6472 11.7856 13.573 12.5174C18.214 16.6906 16.3134 15.8323 8.6021 11.3684L8.58396 11.4185C17.7522 16.9481 18.4748 17.3798 8.49757 11.5005L8.47943 11.5505C18.1062 17.6145 17.0172 17.3333 7.42071 13.0646C17.0562 17.4607 18.0065 17.8899 7.26176 13.3469L7.24362 13.397C18.2832 18.6132 17.1835 18.753 5.85947 16.4358L5.84133 16.4859C17.2272 19.0237 18.1066 19.2572 5.73251 16.7863C17.7882 19.5101 16.6064 19.5635 5.32761 18.4522C16.6635 19.6408 17.7909 19.7376 5.2732 18.6025C18.1674 20.1855 17.1295 20.546 4.99088 21.4173C17.2596 20.7347 18.2388 20.6929 4.96847 21.6358C18.0297 20.957 16.8324 21.288 5.03235 23.1033C16.8895 21.3653 18.0734 21.2277 5.15014 24.1089C18.5912 21.7551 17.6883 22.4476 5.96159 27.3482C17.7843 22.6523 18.7539 22.3238 6.14235 27.8668C18.5949 22.6061 17.5165 23.2351 6.54012 28.8039C17.5234 23.2942 18.6658 22.8017 7.00617 29.709C19.165 23.0674 18.4695 23.8918 8.41928 31.8351C18.6268 24.0054 19.4935 23.413 8.90988 32.4376C19.4348 23.7316 18.5617 24.5765 9.35248 32.9378C18.5937 24.6448 19.599 23.9044 10.6366 34.1676C20.1665 24.1382 19.7536 25.1215 12.5815 35.6083L12.6065 35.6174C19.8928 25.2852 20.5541 24.4769 13.3952 36.1013C20.5045 24.7704 19.8549 25.7813 13.4203 36.1104C19.8869 25.8495 20.6368 24.875 15.0362 36.8939C21.1493 24.9473 20.9641 25.9281 16.6403 37.4749L16.6654 37.484C20.5342 27.585 21.4122 25.5523 19.2389 33.4315C18.8537 34.6514 18.4121 36.1058 17.9138 37.7945C18.2446 36.7248 18.539 35.7552 18.8313 34.8699C18.5982 35.7484 18.2947 36.743 17.989 37.8218C18.5982 35.7484 19.0964 34.0596 19.4928 32.7305C21.4846 26.6831 21.5821 27.8229 20.0982 38.1042L20.1484 38.1224C22.4665 25.5377 22.5272 26.4659 21.4715 38.1484L21.4966 38.1575C22.2768 30.6801 22.6407 27.6399 22.7787 29.8423C22.6688 30.8504 22.5118 33.7106 22.2731 38.1272C22.4701 34.6867 22.6596 32.2065 22.8304 30.7956C22.8692 32.2541 22.8754 34.6636 22.856 38.0835C22.9267 33.9742 22.9247 31.3962 22.9045 30.1994C23.2631 28.0352 23.6517 30.3284 24.4042 37.8795L24.4543 37.8977C23.7309 25.8823 23.9463 26.6967 25.4217 37.6533L25.4468 37.6624C24.4421 29.0853 24.2925 26.6805 25.7555 31.4869C26.0423 32.8086 26.4576 34.7149 27.0195 37.1558L27.3273 37.3239Z" fill="url(#paint1_radial_271_1344)"/>
<path style="mix-blend-mode:color-dodge" opacity="0.3" d="M28.7016 7.77262C36.3069 11.4334 39.4895 20.5727 35.831 28.1689C32.1725 35.765 23.0276 38.9385 15.4224 35.2777C7.81721 31.6169 4.63457 22.4776 8.29308 14.8814C11.9516 7.28529 21.0964 4.11184 28.7016 7.77262Z" fill="url(#paint2_linear_271_1344)"/>
<defs>
<radialGradient id="paint0_radial_271_1344" cx="0" cy="0" r="1" gradientUnits="userSpaceOnUse" gradientTransform="translate(45.1849 5.56936) rotate(70.9687) scale(56.4506 56.4638)">
<stop stop-color="#FF9D00"/>
<stop offset="0.1" stop-color="#F99800"/>
<stop offset="0.24" stop-color="#E88A00"/>
<stop offset="0.39" stop-color="#CD7300"/>
<stop offset="0.54" stop-color="#AD5700"/>
<stop offset="0.6" stop-color="#A15200"/>
<stop offset="0.72" stop-color="#824600"/>
<stop offset="0.86" stop-color="#513300"/>
<stop offset="1" stop-color="#1E1F00"/>
</radialGradient>
<radialGradient id="paint1_radial_271_1344" cx="0" cy="0" r="1" gradientUnits="userSpaceOnUse" gradientTransform="translate(23.8193 19.3865) rotate(74.6098) scale(25.6794 25.6889)">
<stop stop-color="#FFA600"/>
<stop offset="0.08" stop-color="#F9A100"/>
<stop offset="0.19" stop-color="#E89300"/>
<stop offset="0.31" stop-color="#CD7D00"/>
<stop offset="0.44" stop-color="#A85F00"/>
<stop offset="0.54" stop-color="#874400"/>
<stop offset="0.64" stop-color="#763E00"/>
<stop offset="0.82" stop-color="#4B2F00"/>
<stop offset="1" stop-color="#1E1F00"/>
</radialGradient>
<linearGradient id="paint2_linear_271_1344" x1="11.6397" y1="22.1798" x2="69.7603" y2="18.4287" gradientUnits="userSpaceOnUse">
<stop/>
<stop offset="1" stop-color="white"/>
</linearGradient>
</defs>
</svg>
