<svg width="26" height="26" viewBox="0 0 26 26" fill="none" xmlns="http://www.w3.org/2000/svg">
<path style="mix-blend-mode:multiply" d="M20.7659 20.0258C16.6665 24.5233 9.68393 24.8552 5.18303 20.7617C0.682145 16.6683 0.352173 9.69311 4.45149 5.19559C8.55081 0.698079 15.5334 0.366119 20.0343 4.45961C24.5352 8.55309 24.8652 15.5282 20.7659 20.0258Z" fill="url(#paint0_radial_286_1004)"/>
<path style="mix-blend-mode:screen" opacity="0.3" d="M20.8894 19.8992C20.0803 18.952 19.4031 18.1631 18.8753 17.5298C19.4474 18.1026 20.1716 18.8484 21.0251 19.7351C19.6492 18.25 18.6813 17.2023 18.0836 16.5798C16.7398 14.8394 17.7329 15.4721 21.7663 18.7441L21.7958 18.7038C16.2628 13.8407 16.7014 14.1302 21.9945 18.3691L22.012 18.3663C18.4778 15.4281 17.2086 14.284 18.7087 15.0705C19.2766 15.5009 20.5254 16.3978 22.3569 17.705C20.886 16.6458 19.796 15.8494 19.1594 15.3224C19.8846 15.7284 21.0108 16.4119 22.5354 17.3555C20.5466 16.0727 19.2993 15.3007 18.7274 14.9603C17.8296 14.1341 19.0686 14.6213 22.9029 16.4939L22.9297 16.4362C16.956 13.2326 17.3932 13.3972 23.0437 16.1324L23.0383 16.0975C18.0401 13.5293 17.2529 12.9541 21.8907 14.2373C22.3454 14.3992 22.8552 14.5705 23.4202 14.751C23.0758 14.6078 22.7543 14.4967 22.4502 14.383C22.7516 14.4793 23.0878 14.5701 23.4241 14.661L23.416 14.6086C22.208 14.206 21.2664 13.905 20.571 13.6911C18.1536 12.7608 18.9187 12.7315 23.5762 13.5647L23.5654 13.4949C17.5466 12.1934 17.9528 12.2735 23.5895 13.4196L23.5841 13.3847C19.3205 12.4368 18.1005 12.0718 20.5398 12.1047C21.2337 12.1937 22.2558 12.3213 23.6235 12.4846C22.5611 12.3276 21.7017 12.2106 21.0427 12.1161C21.7083 12.138 22.5569 12.1852 23.6233 12.2523L23.6179 12.2173C21.8427 12.0814 20.6634 11.9783 20.0501 11.9482C18.8087 11.6759 19.8453 11.5509 23.5741 11.4732L23.5632 11.4034C17.8442 11.3427 18.2342 11.318 23.5443 11.2812L23.5362 11.2288C18.2595 11.1353 17.8115 10.9008 23.2698 9.85769L23.2563 9.7704C18.0599 10.5405 18.4619 10.4782 23.2307 9.72074L23.2253 9.68582C18.4658 10.3882 18.0247 10.3135 22.9784 8.90169C22.973 8.86677 22.9676 8.83185 22.9447 8.79964C18.2125 9.90896 17.7834 9.79671 22.5228 7.81024L22.5119 7.7404C22.106 7.89275 21.7498 8.0195 21.4312 8.15829C18.2778 9.29096 18.2884 9.12841 22.1725 7.16729L22.1616 7.09745C17.6564 9.20854 17.9373 9.0577 22.0984 7.03575L22.0876 6.96592C17.8376 8.8765 17.3992 8.81934 21.3321 5.90308C21.3092 5.87088 21.2661 5.82392 21.2432 5.79171C17.3933 8.31965 17.6432 8.08424 21.0453 5.55422L21.0399 5.51931C17.592 7.9849 17.2532 8.10895 20.6549 5.11417L20.6118 5.06721C17.0004 8.09452 17.218 7.88199 20.5485 5.00551L20.5055 4.95855C17.1238 7.7357 16.7567 7.79262 19.7719 4.26778C19.749 4.23557 19.7113 4.22353 19.671 4.19403C16.6568 7.37903 16.8286 7.10208 19.4664 4.02909C16.803 7.05242 16.5303 7.25562 19.1609 3.79041L19.1205 3.76091C16.291 7.32849 16.4333 7.09188 18.9994 3.67242L18.9389 3.62818C16.257 6.99406 15.8833 7.12353 18.0064 3.03976C17.966 3.01027 17.9082 2.98348 17.8503 2.95669C15.6032 6.70212 15.6391 6.35685 17.3444 2.69545L17.3095 2.70087C15.5409 6.30057 15.3516 6.58023 17.035 2.54677L16.9771 2.51999C15.1177 6.68801 15.1793 6.39241 16.7283 2.41555L16.6704 2.38877C15.0259 6.3268 14.7532 6.53001 15.8566 2.10377C15.8189 2.09173 15.7638 2.0824 15.7234 2.0529C14.4368 6.22149 14.4029 5.88706 15.1988 1.90183L15.1813 1.90454C14.345 5.86028 14.2687 6.17605 15.106 1.88047L15.0711 1.88589C14.1385 6.37503 14.1274 6.07281 14.7899 1.80434L14.7375 1.81247C13.9526 6.09992 13.7431 6.36483 13.8902 1.65781C13.8378 1.66594 13.7799 1.63916 13.7275 1.64729C13.3032 6.18275 13.1388 5.81491 12.9488 1.58925L12.9139 1.59467C13.0541 5.84593 13.0384 6.20595 12.7861 1.57873L12.7162 1.58957C12.8409 6.43323 12.6846 6.11777 12.0882 1.57968L12.0183 1.59053C12.4923 6.14759 12.4013 6.48353 11.3111 1.64657L11.1712 1.66826C11.7895 5.30901 11.7647 5.9565 11.1025 4.11041C10.946 3.56257 10.7193 2.79319 10.4345 1.76464L10.3995 1.77006C10.5304 2.26823 10.656 2.73149 10.7707 3.12491C10.6385 2.7342 10.4982 2.29111 10.3323 1.79836L10.3148 1.80107C10.5725 2.65504 10.8086 3.36933 10.9624 3.89971C11.616 6.49804 11.2305 5.62813 9.81336 1.91459L9.76093 1.92272C11.4062 6.53057 11.4281 6.90262 9.19768 2.09947L9.07534 2.11844C11.0059 6.95022 10.6197 6.65254 8.11699 2.51736L8.08203 2.52278C10.5606 6.73322 10.7802 7.11038 8.04978 2.54566L7.97987 2.5565C10.6972 7.49869 10.2667 7.26152 6.92355 3.13153L6.85363 3.14237C10.1109 7.41084 10.2753 7.77868 6.40215 3.46269C6.36719 3.46811 6.33765 3.50845 6.32017 3.51116C8.84064 6.60662 9.34306 7.42264 8.04305 6.42638C7.55712 5.9475 6.75758 5.17755 5.58387 4.07231L5.54891 4.07773C6.18697 4.72968 6.71598 5.25552 7.14135 5.69016C6.66896 5.29857 6.09023 4.79833 5.42533 4.20417C6.32039 5.01293 7.04584 5.65133 7.56402 6.10734C9.57248 8.20948 8.50952 7.58766 4.73752 4.84719L4.70797 4.88753C9.40729 8.41389 9.72361 8.7224 4.49306 5.11753L4.44875 5.17803C9.45085 8.92561 8.84158 8.80556 3.68191 6.11938C8.8726 8.89014 9.37577 9.13392 3.65237 6.15971L3.60806 6.22022C9.51878 9.59447 8.88416 9.65713 2.68588 7.77565L2.65633 7.81599C8.8615 9.85731 9.32159 10.0541 2.52487 8.12243L2.49803 8.18023C7.13339 9.67834 8.19216 10.1578 6.20852 9.94691C5.41364 9.78412 4.06734 9.52807 2.11448 9.1694L2.1199 9.20432C3.02777 9.40322 3.82536 9.58347 4.50995 9.7276C3.81329 9.6211 3.00635 9.49594 2.05417 9.35754C3.22963 9.5507 4.2047 9.72131 4.97669 9.85189C9.00771 10.8001 7.62816 10.9067 1.71811 10.7684L1.72353 10.8034C8.8211 11.0972 9.37917 11.1179 1.69941 10.8786L1.70482 10.9135C9.23959 11.372 8.51634 11.5557 1.57162 12.1321C8.5796 11.6174 9.26937 11.564 1.56915 12.347L1.57457 12.3819C9.66102 11.8966 9.06577 12.3286 1.73822 14.5914L1.74363 14.6263C9.17753 12.4722 9.76366 12.3277 1.77612 14.8358C9.65903 12.5763 8.98846 12.9843 2.07175 15.9342C9.04631 13.011 9.73313 12.7079 2.088 16.0389C10.095 12.8484 9.60609 13.3891 2.82131 17.7667C9.74198 13.4574 10.2983 13.1208 2.87792 17.901C10.2609 13.3412 9.66984 13.9156 3.38304 18.7344C9.72769 13.9423 10.3727 13.4847 3.77223 19.2819C10.8421 13.6265 10.5376 14.3174 5.27728 20.9079C10.6587 14.4058 11.1181 13.9055 5.54781 21.152C11.1156 14.1204 10.6887 14.8303 6.07805 21.5704C10.7116 14.8625 11.2192 14.2116 6.63784 21.9484C11.5944 14.2071 11.4526 14.9085 8.13799 22.7349C11.5803 14.9244 11.8957 14.3034 8.61555 22.929C11.9632 14.5075 11.7246 15.2775 9.03256 23.0789C11.765 15.307 12.1138 14.5556 10.1718 23.3849C12.5185 14.5107 12.5919 15.2145 11.7628 23.603L11.7803 23.6003C12.725 15.2654 12.8521 14.5842 12.3935 23.6304C12.9168 14.7708 12.8612 15.5661 12.411 23.6277C12.9015 15.5956 13.0271 14.7895 13.601 23.5683C13.3483 14.6681 13.5534 15.2978 14.7196 23.3948L14.7371 23.3921C13.8315 16.3989 13.6942 14.9363 14.9422 20.2136C15.1071 21.0462 15.3139 22.0333 15.5625 23.1747C15.4138 22.4468 15.276 21.7888 15.1637 21.1805C15.3082 21.7659 15.4488 22.4414 15.6149 23.1666C15.3082 21.766 15.0596 20.6245 14.8664 19.7248C14.0969 15.5711 14.5171 16.2032 16.9322 22.6583L16.9671 22.6529C14.303 14.5916 14.6343 15.1123 17.7453 22.2462L17.7628 22.2435C15.8324 17.6441 15.0747 15.7592 15.8573 16.9966C16.1147 17.6182 16.9354 19.3324 18.2049 21.9782C17.2225 19.9136 16.5418 18.4101 16.1913 17.5348C16.6789 18.371 17.4509 19.7709 18.5301 21.7669C17.2609 19.3535 16.4377 17.8541 16.0443 17.1642C15.5629 15.7907 16.5202 17.0011 19.3658 21.1546L19.4008 21.1492C15.1486 14.3889 15.5336 14.7941 19.8858 20.6985L19.9032 20.6958C16.5837 16.0258 15.7298 14.6743 18.1137 17.0042C18.702 17.6818 19.5515 18.6585 20.6568 19.8995L20.8894 19.8992Z" fill="url(#paint1_radial_286_1004)"/>
<path style="mix-blend-mode:color-dodge" opacity="0.3" d="M12.2659 2.26708C17.8582 1.97195 22.6242 6.27463 22.9177 11.8609C23.2113 17.4471 18.9025 22.2096 13.3102 22.5047C7.71798 22.7998 2.95196 18.4972 2.6584 12.9109C2.36483 7.32464 6.67365 2.56221 12.2659 2.26708Z" fill="url(#paint2_linear_286_1004)"/>
<defs>
<radialGradient id="paint0_radial_286_1004" cx="0" cy="0" r="1" gradientUnits="userSpaceOnUse" gradientTransform="translate(21.1538 -4.27092) rotate(42.2438) scale(37.4538 37.4625)">
<stop stop-color="#FF9D00"/>
<stop offset="0.1" stop-color="#F99800"/>
<stop offset="0.24" stop-color="#E88A00"/>
<stop offset="0.39" stop-color="#CD7300"/>
<stop offset="0.54" stop-color="#AD5700"/>
<stop offset="0.6" stop-color="#A15200"/>
<stop offset="0.72" stop-color="#824600"/>
<stop offset="0.86" stop-color="#513300"/>
<stop offset="1" stop-color="#1E1F00"/>
</radialGradient>
<radialGradient id="paint1_radial_286_1004" cx="0" cy="0" r="1" gradientUnits="userSpaceOnUse" gradientTransform="translate(13.1286 10.5813) rotate(45.8849) scale(17.0377 17.044)">
<stop stop-color="#FFA600"/>
<stop offset="0.08" stop-color="#F9A100"/>
<stop offset="0.19" stop-color="#E89300"/>
<stop offset="0.31" stop-color="#CD7D00"/>
<stop offset="0.44" stop-color="#A85F00"/>
<stop offset="0.54" stop-color="#874400"/>
<stop offset="0.64" stop-color="#763E00"/>
<stop offset="0.82" stop-color="#4B2F00"/>
<stop offset="1" stop-color="#1E1F00"/>
</radialGradient>
<linearGradient id="paint2_linear_286_1004" x1="6.93277" y1="16.0902" x2="39.553" y2="-4.62533" gradientUnits="userSpaceOnUse">
<stop/>
<stop offset="1" stop-color="white"/>
</linearGradient>
</defs>
</svg>
