<svg width="529" height="288" viewBox="0 0 529 288" fill="none" xmlns="http://www.w3.org/2000/svg">
<path style="mix-blend-mode:multiply" d="M321.476 169.398C383.464 116.447 390.733 23.317 337.713 -38.6122C284.692 -100.541 191.46 -107.819 129.472 -54.8672C67.4838 -1.9153 60.2143 91.2142 113.235 153.143C166.255 215.073 259.488 222.35 321.476 169.398Z" fill="url(#paint0_radial_224_26)"/>
<path d="M333.895 63.3548C350.063 3.78703 314.825 -57.6025 255.189 -73.7624C195.553 -89.9224 134.102 -54.7334 117.935 4.83435C101.767 64.4022 137.005 125.792 196.641 141.952C256.277 158.112 317.728 122.923 333.895 63.3548Z" fill="url(#paint1_radial_224_26)"/>
<path style="mix-blend-mode:multiply" d="M507.479 131.027C510.186 184.788 468.711 230.596 414.892 233.291C361.073 235.986 315.207 194.549 312.5 140.788C309.793 87.0273 351.268 41.2189 405.087 38.524C458.906 35.829 504.772 77.2667 507.479 131.027Z" fill="url(#paint2_radial_224_26)"/>
<path d="M496.988 123.482C501.655 82.5616 472.228 45.6045 431.262 40.9362C390.295 36.2679 353.303 65.6562 348.636 106.577C343.97 147.497 373.397 184.454 414.363 189.123C455.329 193.791 492.322 164.403 496.988 123.482Z" fill="url(#paint3_radial_224_26)"/>
<defs>
<radialGradient id="paint0_radial_224_26" cx="0" cy="0" r="1" gradientUnits="userSpaceOnUse" gradientTransform="translate(225.5 57.2513) rotate(4.46336) scale(147.697 147.533)">
<stop offset="0.59" stop-color="#8F5F33"/>
<stop offset="0.6" stop-color="#926339"/>
<stop offset="0.65" stop-color="#AE8C6D"/>
<stop offset="0.71" stop-color="#C7AF99"/>
<stop offset="0.77" stop-color="#DBCCBE"/>
<stop offset="0.83" stop-color="#EBE2DA"/>
<stop offset="0.89" stop-color="#F6F2EE"/>
<stop offset="0.94" stop-color="#FCFBFA"/>
<stop offset="1" stop-color="white"/>
</radialGradient>
<radialGradient id="paint1_radial_224_26" cx="0" cy="0" r="1" gradientUnits="userSpaceOnUse" gradientTransform="translate(238.415 26.8896) rotate(-120.266) scale(122.252 122.299)">
<stop offset="0.25" stop-color="white"/>
<stop offset="0.46" stop-color="#FCFCFC"/>
<stop offset="0.61" stop-color="#F4F3F2"/>
<stop offset="0.74" stop-color="#E5E4E2"/>
<stop offset="0.86" stop-color="#D2CFCC"/>
<stop offset="0.97" stop-color="#B8B4AF"/>
</radialGradient>
<radialGradient id="paint2_radial_224_26" cx="0" cy="0" r="1" gradientUnits="userSpaceOnUse" gradientTransform="translate(410.026 135.87) rotate(-2.8686) scale(97.6199 97.5154)">
<stop offset="0.59" stop-color="#8F5F33"/>
<stop offset="0.6" stop-color="#926339"/>
<stop offset="0.65" stop-color="#AE8C6D"/>
<stop offset="0.71" stop-color="#C7AF99"/>
<stop offset="0.77" stop-color="#DBCCBE"/>
<stop offset="0.83" stop-color="#EBE2DA"/>
<stop offset="0.89" stop-color="#F6F2EE"/>
<stop offset="0.94" stop-color="#FCFBFA"/>
<stop offset="1" stop-color="white"/>
</radialGradient>
<radialGradient id="paint3_radial_224_26" cx="0" cy="0" r="1" gradientUnits="userSpaceOnUse" gradientTransform="translate(425.936 105.802) rotate(-161.232) scale(81.6034 81.5241)">
<stop offset="0.25" stop-color="white"/>
<stop offset="0.46" stop-color="#FCFCFC"/>
<stop offset="0.61" stop-color="#F4F3F2"/>
<stop offset="0.74" stop-color="#E5E4E2"/>
<stop offset="0.86" stop-color="#D2CFCC"/>
<stop offset="0.97" stop-color="#B8B4AF"/>
</radialGradient>
</defs>
</svg>
