<svg width="33" height="34" viewBox="0 0 33 34" fill="none" xmlns="http://www.w3.org/2000/svg">
<path style="mix-blend-mode:multiply" d="M20.1928 28.9122C13.6519 31.1551 6.51279 27.6726 4.26334 21.1357C2.01388 14.5988 5.49424 7.46814 12.0351 5.22523C18.5761 2.98232 25.7152 6.46479 27.9647 13.0017C30.2141 19.5387 26.7337 26.6693 20.1928 28.9122Z" fill="url(#paint0_radial_399_170)"/>
<path style="mix-blend-mode:screen" opacity="0.3" d="M20.3855 28.853C20.0965 27.4672 19.8525 26.3113 19.6725 25.392C19.9297 26.2752 20.2441 27.4139 20.6103 28.7636C20.0503 26.5324 19.6581 24.9597 19.4024 24.0131C19.0138 21.545 19.6578 22.7177 21.8901 28.1809L21.9415 28.1568C19.0838 20.2893 19.3628 20.8174 22.3223 27.9317L22.3412 27.9386C20.4241 23.0807 19.7842 21.2476 20.8495 22.8504C21.1804 23.5895 21.9349 25.1652 23.046 27.4679C22.1588 25.6093 21.5076 24.2204 21.1611 23.3476C21.662 24.1482 22.4109 25.4444 23.4147 27.2171C22.1336 24.8528 21.3122 23.4024 20.9283 22.7509C20.485 21.4373 21.4534 22.5994 24.2515 26.5594L24.3098 26.5164C20.1067 20.0619 20.4525 20.4647 24.5892 26.276L24.6029 26.2383C21.025 20.9496 20.5546 19.9466 24.4752 23.7579C24.8399 24.1676 25.2544 24.6166 25.7187 25.1051C25.4538 24.7743 25.1941 24.488 24.9533 24.2086C25.2009 24.4692 25.4864 24.7433 25.7718 25.0175L25.7923 24.9609C24.8085 23.9 24.0346 23.0859 23.4585 22.4929C21.5577 20.2458 22.3361 20.6345 26.5221 24.0082L26.5495 23.9327C21.2627 19.349 21.6237 19.6505 26.6146 23.8709L26.6283 23.8331C22.8974 20.5602 21.881 19.5302 24.2937 20.8952C24.9366 21.3629 25.8854 22.0481 27.1591 22.9578C26.1861 22.2211 25.3937 21.6352 24.7886 21.1812C25.4399 21.5665 26.2597 22.0769 27.2857 22.7261L27.2994 22.6884C25.6048 21.5835 24.4859 20.8367 23.8913 20.4718C22.803 19.5225 23.9042 19.9641 27.6621 21.923L27.6895 21.8475C22.0238 18.6638 22.4259 18.8522 27.7373 21.7153L27.7578 21.6587C22.5509 18.6839 22.2325 18.2056 28.2412 20.147L28.2754 20.0526C22.6768 17.9822 23.1115 18.1396 28.277 19.9892L28.2907 19.9514C23.1645 18.0521 22.7657 17.7368 28.4729 19.0352C28.4866 18.9975 28.5002 18.9597 28.495 18.9151C23.1738 17.4363 22.8076 17.0901 28.6149 17.6988L28.6423 17.6233C28.1546 17.5535 27.7304 17.4852 27.3372 17.4496C23.5763 16.8561 23.6757 16.6999 28.617 16.8669L28.6443 16.7914C23.0022 16.4347 23.3645 16.4377 28.615 16.6953L28.6423 16.6198C23.3641 16.2027 22.9584 15.9064 28.47 15.1482C28.4647 15.1036 28.4474 15.0333 28.4422 14.9887C23.2254 15.4052 23.603 15.3071 28.3747 14.644L28.3884 14.6062C23.6062 15.1801 23.2009 15.1188 28.226 13.9923L28.2087 13.922C22.9569 14.9663 23.2898 14.8734 28.1794 13.8259L28.1621 13.7556C23.2757 14.6761 22.8789 14.5324 27.8083 12.6667C27.8031 12.6221 27.7722 12.5895 27.748 12.5381C23.0052 14.0657 23.3277 13.8836 27.6343 12.262C23.3293 13.8201 22.9465 13.8736 27.4602 11.8573L27.4361 11.8059C22.6683 13.8156 22.9393 13.6575 27.3637 11.6516L27.3276 11.5744C22.8171 13.4638 22.374 13.3887 26.7197 10.4789C26.6956 10.4274 26.6526 10.3691 26.6096 10.3108C22.325 12.8158 22.5494 12.4914 26.2481 9.77427L26.2104 9.76058C22.4822 12.3817 22.1409 12.557 26.021 9.45714L25.978 9.39885C21.849 12.5367 22.0718 12.2757 25.787 9.15888L25.744 9.10059C21.9548 12.1266 21.572 12.1801 25.0887 8.37216C25.0578 8.3396 25.0079 8.30019 24.9838 8.24875C21.4253 11.7 21.5741 11.3482 24.5436 7.81174L24.5247 7.8049C21.5311 11.2899 21.2826 11.5629 24.4627 7.73977L24.425 7.72608C21.0441 11.69 21.1981 11.3828 24.1894 7.49129L24.1327 7.47076C21.0092 11.3144 20.6557 11.4639 23.3728 6.85393C23.3161 6.8334 23.2731 6.77511 23.2164 6.75458C20.3168 11.0423 20.3539 10.586 22.4722 6.27153L22.4345 6.25785C20.2526 10.5706 20.0402 10.9207 22.3159 6.17219L22.2403 6.14481C19.7194 11.0394 19.7359 10.6397 21.6199 5.79202L21.5443 5.76464C19.528 10.5644 19.2538 10.8494 20.809 5.43426L20.6578 5.37951C19.2857 9.34501 18.9073 9.97662 19.2556 7.77547C19.3988 7.14408 19.5931 6.25362 19.871 5.07318L19.8332 5.05949C19.6916 5.62741 19.5637 6.15758 19.4632 6.61225C19.5448 6.15074 19.647 5.6326 19.7508 5.05099L19.7319 5.04415C19.5223 6.03583 19.3675 6.87651 19.2311 7.48902C18.4634 10.435 18.5543 9.35769 19.1702 4.88342L19.1135 4.86289C18.2366 10.3529 18.0553 10.7356 18.4558 4.73141L18.3235 4.68351C17.6086 10.5525 17.3863 10.0449 17.1507 4.55765L17.1129 4.54396C17.2834 10.0931 17.2962 10.5888 17.0683 4.54915L16.9927 4.52178C17.0015 10.9304 16.702 10.459 15.6261 4.5179L15.5505 4.49052C16.4651 10.5227 16.4281 10.979 14.9257 4.56315C14.8879 4.54946 14.8364 4.57352 14.8175 4.56667C15.6386 9.02761 15.6936 10.1151 14.9423 8.41243C14.7196 7.66988 14.3433 6.46604 13.7774 4.72374L13.7396 4.71005C14.0193 5.70814 14.2593 6.52101 14.4458 7.1864C14.189 6.53823 13.8855 5.72371 13.5474 4.76855C13.9976 6.06325 14.3718 7.09556 14.6392 7.83292C15.4925 11.0244 14.7729 9.82435 12.5109 5.03368L12.4594 5.05774C15.2163 11.1379 15.363 11.6181 12.1196 5.16955L12.0424 5.20565C14.9802 11.6716 14.4387 11.2193 10.7642 5.72488C14.4234 11.3205 14.7917 11.8382 10.7128 5.74894L10.6356 5.78503C14.6827 12.3752 14.0161 12.0911 8.86725 6.83134L8.81578 6.8554C13.8842 12.2782 14.2351 12.7255 8.51743 7.08897L8.45912 7.1319C12.2599 11.1561 13.0531 12.212 11.1917 10.9186C10.4885 10.3223 9.28681 9.33197 7.53674 7.90811L7.52307 7.94586C8.3191 8.63985 9.01543 9.25503 9.61888 9.77251C8.98286 9.28593 8.24712 8.72054 7.37389 8.06264C8.4397 8.89704 9.31815 9.59954 10.0161 10.1512C13.515 13.2974 12.0821 12.6503 6.26853 9.28501L6.25486 9.32277C13.1668 13.4916 13.7116 13.817 6.18973 9.38458L6.17606 9.42233C13.4337 13.994 12.6127 13.782 5.37788 10.5638C12.6421 13.878 13.3585 14.2016 5.25805 10.7766L5.24438 10.8144C13.5672 14.7469 12.7381 14.8523 4.20085 13.1054L4.18718 13.1431C12.7711 15.0564 13.434 15.2325 4.10514 13.3696C13.194 15.4231 12.303 15.4634 3.79989 14.6256C12.346 15.5216 13.196 15.5946 3.75887 14.7388C13.4798 15.9323 12.6974 16.204 3.54602 16.8609C12.7955 16.3463 13.5337 16.3148 3.52913 17.0256C13.3761 16.5139 12.4734 16.7635 3.57729 18.132C12.5164 16.8217 13.409 16.718 3.66609 18.8901C13.7994 17.1156 13.1187 17.6377 4.27785 21.3322C13.191 17.792 13.922 17.5443 4.41412 21.7232C13.8021 17.7572 12.9891 18.2313 4.714 22.4297C12.9944 18.2759 13.8556 17.9046 5.06536 23.1121C14.2319 18.105 13.7076 18.7264 6.13071 24.715C13.8262 18.8121 14.4796 18.3655 6.50057 25.1692C14.4353 18.6057 13.7771 19.2427 6.83425 25.5463C13.8012 19.2941 14.5592 18.7359 7.80235 26.4734C14.9869 18.9122 14.6757 19.6535 9.26858 27.5596L9.28748 27.5664C14.7806 19.777 15.2792 19.1675 9.88211 27.9313C15.2418 19.3889 14.752 20.1509 9.901 27.9381C14.7762 20.2024 15.3415 19.4677 11.1192 28.5288C15.7279 19.5222 15.5883 20.2617 12.3286 28.9668L12.3475 28.9736C15.2642 21.5108 15.9261 19.9783 14.2876 25.9185C13.9973 26.8382 13.6643 27.9346 13.2887 29.2078C13.538 28.4013 13.76 27.6703 13.9804 27.0029C13.8046 27.6652 13.5758 28.415 13.3454 29.2283C13.8046 27.6652 14.1803 26.392 14.4791 25.3899C15.9807 20.8308 16.0542 21.6901 14.9355 29.4412L14.9733 29.4549C16.721 19.9673 16.7667 20.6671 15.9708 29.4746L15.9897 29.4814C16.5779 23.8442 16.8523 21.5522 16.9563 23.2126C16.8734 23.9725 16.7551 26.1289 16.5751 29.4586C16.7237 26.8648 16.8665 24.9949 16.9953 23.9313C17.0245 25.0308 17.0292 26.8474 17.0146 29.4256C17.0679 26.3276 17.0664 24.3841 17.0512 23.4818C17.3215 21.8502 17.6145 23.579 18.1818 29.2719L18.2196 29.2855C17.6742 20.2271 17.8366 20.8411 18.9489 29.1013L18.9678 29.1082C18.2104 22.6419 18.0976 20.8288 19.2005 24.4524C19.4168 25.4488 19.7299 26.886 20.1535 28.7263L20.3855 28.853Z" fill="url(#paint1_radial_399_170)"/>
<path style="mix-blend-mode:color-dodge" opacity="0.3" d="M21.4218 6.57451C27.1554 9.33438 29.5548 16.2245 26.7967 21.9513C24.0385 27.6781 17.1442 30.0706 11.4106 27.3107C5.67697 24.5508 3.27757 17.6606 6.03573 11.9339C8.79389 6.2071 15.6882 3.81463 21.4218 6.57451Z" fill="url(#paint2_linear_399_170)"/>
<defs>
<radialGradient id="paint0_radial_399_170" cx="0" cy="0" r="1" gradientUnits="userSpaceOnUse" gradientTransform="translate(33.8479 4.91349) rotate(70.9687) scale(42.5583 42.5682)">
<stop stop-color="#FF9D00"/>
<stop offset="0.1" stop-color="#F99800"/>
<stop offset="0.24" stop-color="#E88A00"/>
<stop offset="0.39" stop-color="#CD7300"/>
<stop offset="0.54" stop-color="#AD5700"/>
<stop offset="0.6" stop-color="#A15200"/>
<stop offset="0.72" stop-color="#824600"/>
<stop offset="0.86" stop-color="#513300"/>
<stop offset="1" stop-color="#1E1F00"/>
</radialGradient>
<radialGradient id="paint1_radial_399_170" cx="0" cy="0" r="1" gradientUnits="userSpaceOnUse" gradientTransform="translate(17.7408 15.3299) rotate(74.6098) scale(19.3598 19.3669)">
<stop stop-color="#FFA600"/>
<stop offset="0.08" stop-color="#F9A100"/>
<stop offset="0.19" stop-color="#E89300"/>
<stop offset="0.31" stop-color="#CD7D00"/>
<stop offset="0.44" stop-color="#A85F00"/>
<stop offset="0.54" stop-color="#874400"/>
<stop offset="0.64" stop-color="#763E00"/>
<stop offset="0.82" stop-color="#4B2F00"/>
<stop offset="1" stop-color="#1E1F00"/>
</radialGradient>
<linearGradient id="paint2_linear_399_170" x1="8.55873" y1="17.4361" x2="52.3761" y2="14.6081" gradientUnits="userSpaceOnUse">
<stop/>
<stop offset="1" stop-color="white"/>
</linearGradient>
</defs>
</svg>
