<svg width="207" height="224" viewBox="0 0 207 224" fill="none" xmlns="http://www.w3.org/2000/svg">
<mask id="mask0_102_329" style="mask-type:alpha" maskUnits="userSpaceOnUse" x="35" y="35" width="155" height="154">
<path style="mix-blend-mode:overlay" d="M175.417 68.0533C151.11 33.2695 103.179 24.7999 68.3586 49.1358C33.5383 73.4717 25.015 121.398 49.3213 156.181C73.6276 190.965 121.559 199.435 156.38 175.099C191.2 150.763 199.723 102.837 175.417 68.0533Z" fill="url(#paint0_radial_102_329)"/>
</mask>
<g mask="url(#mask0_102_329)">
<path style="mix-blend-mode:multiply" d="M140.971 182.922C143.553 187.311 145.208 191.313 146.141 196.04C143.848 190.709 139.56 187.061 134.566 185.122C131.338 183.843 128.3 183.779 125.073 183.223C119.676 182.311 116.141 178.821 112.416 174.116C112.329 174 112.155 174.131 112.242 174.246C115.199 178.172 118.258 182.113 122.686 183.301C126.565 184.362 130.384 184.019 134.248 185.542C132.686 185.271 131.37 185.81 129.897 187.462C128.857 188.608 129.004 190.126 128.051 191.386C126.261 193.821 123.512 193.538 120.907 192.967C117.203 192.137 113.756 189.847 110.873 186.861C114.611 190.741 119.563 193.708 124.394 193.507C126.42 193.43 127.07 192.85 128.297 191.472C129.698 189.965 130.475 187.027 132.412 186.111C133.352 185.675 135.422 186.378 136.767 186.722C136.767 186.722 136.825 186.678 136.883 186.634C140.865 188.793 143.965 192.068 146.229 196.517C146.506 197.847 146.711 199.321 146.858 200.839L146.8 200.883C146.845 202.025 147.006 203.081 147.065 204.122C147.123 204.44 147.326 204.468 147.543 204.395C147.487 205.885 147.49 207.331 147.94 208.892C147.999 209.21 148.505 209.281 148.505 208.919C148.598 203.872 149.112 199.141 147.701 194.503C147.117 190.961 145.506 187.379 143.649 184.072C143.299 181.802 143.368 179.849 144.218 177.49C144.996 175.275 146.237 173.435 146.827 171.091C148.193 165.809 147.939 160.299 146.57 154.634C146.483 154.518 146.382 154.504 146.411 154.663C148.22 164.16 145.958 170.659 142.7 178.362C142.311 179.288 142.081 180.185 142.024 180.952C141.198 179.855 140.372 178.758 139.604 177.618C137.95 175.062 136.196 172.492 134.659 169.85C132.931 165.631 133.026 161.668 133.959 156.894C134.835 152.524 136.044 148.717 135.531 143.946C135.501 143.787 135.198 143.744 135.227 143.903C135.614 151.394 131.848 157.94 132.699 165.444C132.743 165.863 132.831 166.34 132.932 166.716C128.348 158.224 125.731 149.337 130.071 140.186C130.157 139.939 129.882 139.694 129.752 139.883C125.525 147.139 126.537 156.421 130.239 164.944C132.576 170.332 135.867 174.822 139.057 179.658C139.492 180.235 139.768 180.842 140.159 181.362C137.363 178.491 133.657 176.939 130.051 174.678C128.531 173.741 127.126 172.718 125.851 171.507C123.735 168.938 121.763 166.08 121.888 162.637C122.001 160.381 122.722 158.933 123.37 156.906C124.305 153.939 124.373 150.902 123.544 147.636C123.485 147.318 123.066 147.362 123.124 147.68C123.926 151.511 123.757 154.534 122.517 157.82C121.999 159.296 121.336 160.701 121.251 162.393C121.11 164.852 122.04 167.048 123.417 168.997C116.721 161.19 114.752 150.276 115.85 139.947C115.864 139.846 115.72 139.774 115.648 139.919C114.46 148.325 115.443 157.448 120.156 165.39C122.288 168.942 124.955 172.001 128.155 174.205C132.485 177.188 137.45 178.607 140.971 182.56L140.971 182.922ZM195.675 148.505C199.498 151.055 202.512 154.576 203.953 160.097C204.04 160.212 204.199 160.183 204.17 160.024C202.888 154.112 199.497 150.332 195.182 147.61C193.733 146.529 192.199 145.694 190.938 144.381C188.909 142.29 188.356 139.63 187.108 137.131C185.686 134.402 183.514 132.961 180.879 131.507C180.835 131.449 180.763 131.594 180.763 131.594C184.151 133.567 186.078 135.644 187.733 139.285C188.285 140.498 188.634 141.683 189.301 142.809C190.302 144.499 191.764 145.478 193.227 146.458C189.578 144.501 185.381 143.138 181.241 141.731C176.029 139.141 174.401 133.491 171.385 128.885C169.353 124.624 169.838 120.096 169.079 115.601C168.234 111.712 170.326 108.236 169.177 104.305C168.13 100.75 165.565 97.7056 162.683 95.4425C162.596 95.3271 162.466 95.5154 162.509 95.5732C166.579 98.5707 169.291 103.134 169.183 108.282C169.143 110.394 168.611 112.333 168.788 114.372C168.671 113.736 168.496 113.143 168.322 112.551C166.68 107.725 162.552 104.771 158.44 102.077C158.396 102.019 158.266 102.208 158.324 102.164C161.322 104.34 164.667 106.617 166.697 109.793C168.713 113.071 168.892 116.556 169.158 120.156C169.365 123.077 169.73 125.607 170.891 127.99C170.761 127.817 170.63 127.643 170.5 127.47C168.369 124.641 165.704 122.305 162.735 120.288C157.073 116.499 152.888 113.95 149.754 107.624C148.535 105.284 147.795 103.58 145.825 101.806C145.738 101.691 145.506 101.865 145.651 101.937C148.738 105.674 149.758 110.516 153.019 114.124C156.467 117.86 161.736 119.683 165.618 122.913C171.296 127.685 173.495 137.34 179.779 141.113C176.277 139.95 172.89 138.701 169.82 137.031C162.06 132.742 159.413 123.695 151.552 119.753C145.529 116.688 138.57 116.59 131.93 116.434C131.93 116.434 131.872 116.478 131.974 116.492C141.898 116.799 151.765 117.511 158.447 125.78C159.273 126.877 160.056 127.917 160.795 128.898C159.52 127.325 157.768 126.563 155.656 126.525C153.385 126.517 151.432 126.811 149.16 126.441C147.294 126.127 145.513 125.568 143.719 125.11C143.618 125.096 143.546 125.24 143.69 125.312C146.05 126.159 148.525 126.92 151.028 127.116C154.963 127.409 158.549 126.156 161.447 129.764C161.447 129.764 161.23 129.475 161.143 129.36C163.274 132.189 165.231 134.787 168.648 136.919C173.296 139.842 178.854 141.448 184.224 143.285C177.93 142.506 171.379 143.911 165.14 141.642C157.237 138.727 151.079 132.597 142.384 131.997C142.283 131.983 142.153 132.171 142.355 132.2C151.558 133.232 157.904 139.853 166.472 142.449C165.257 142.278 164.201 142.44 162.957 142.834C159.574 143.754 157.476 143.615 154.233 142.437C150.745 141.173 147.836 140.559 144.294 141.87C144.179 141.957 144.266 142.072 144.381 141.985C149.225 140.599 152.541 142.716 157.042 143.76C160.645 144.575 163.709 142.268 167.167 142.649C173.187 144.268 179.493 142.777 185.498 143.774C189.044 144.994 192.416 146.344 195.399 148.26C186.297 146.519 176.769 149.986 168.025 145.713C167.982 145.655 167.852 145.844 167.953 145.858C176.467 150.666 186.471 146.75 195.631 148.448L195.675 148.505ZM67.6391 162.777C67.6391 162.777 67.4789 162.084 67.4206 161.766L67.5075 161.881C67.5075 161.881 67.523 162.503 67.5956 162.72L67.6391 162.777ZM68.6322 149.904C68.8607 147.922 68.6262 145.927 67.7553 144.049C67.0876 142.561 65.9575 141.421 64.8852 140.238C63.0158 138.117 61.8405 135.835 61.2576 133.017C61.2576 133.017 61.1706 132.901 61.1998 133.06C61.5223 135.894 62.5236 137.945 64.3495 140.008C67.1465 143.24 69.0462 146.244 68.5606 150.41C68.1577 151.799 67.6969 153.232 67.4245 154.795C66.9219 157.255 67.0556 159.597 67.4641 161.823C66.8795 157.92 67.9727 153.839 69.2113 150.191C72.3512 141.13 76.5359 134.177 74.6401 124.204C74.5675 123.987 74.3506 124.06 74.3219 124.262C75.7554 134.584 71.3389 141.35 68.6179 150.005L68.6322 149.904ZM58.7864 191.797C66.1335 190.606 69.7155 186.822 71.5739 181.713C75.6044 178.043 81.3849 183.553 86.184 181.024C89.205 179.382 91.1101 176.499 93.1458 173.789C93.8394 173.267 94.6348 173.12 95.9659 173.204C97.0943 173.259 97.789 173.459 98.8597 173.558C99.6265 173.614 100.336 173.713 101.087 173.509C103.647 172.938 105.293 170.432 106.664 168.404L106.577 168.288C104.642 171.012 102.49 173.086 98.9021 172.892C97.8749 172.852 96.9193 172.305 95.8778 172.365C95.0532 172.353 94.3447 172.615 93.7232 172.993C95.1671 171.181 96.7415 169.543 98.9098 168.453C98.9676 168.409 98.9241 168.351 98.8228 168.337C95.8448 169.675 93.4899 171.72 91.425 174.271C89.9954 175.981 88.9572 178.211 87.1654 179.561C81.8479 183.566 80.4541 180.272 76.6046 179.371C74.6075 178.885 73.1614 179.25 72.0054 180.121C72.1348 179.571 72.2642 179.021 72.3935 178.471C76.0448 172.735 83.0452 171.805 85.5372 164.77C86.0711 163.916 86.5616 163.003 87.1969 162.163C89.0013 159.627 91.3893 160.272 93.9204 159.904C96.7696 159.477 98.5014 156.725 99.713 154.364C99.8572 154.075 99.3651 153.903 99.2352 154.091C98.5135 155.177 97.706 156.872 96.5643 157.641C95.1193 158.729 93.2532 158.778 91.5897 158.854C90.6495 158.929 89.9404 158.83 89.0443 159.324C87.8156 159.978 86.9349 161.093 86.2424 162.339C86.6882 160.646 86.9893 158.881 87.4352 157.187C89.0597 150.444 92.6851 146.718 98.4376 143.29C98.611 143.159 98.5091 142.783 98.2344 142.9C91.1664 146.866 88.207 150.996 86.2369 158.723C85.6473 161.068 85.2025 163.484 84.2656 165.728C84.0922 165.859 84.0636 166.061 83.9337 166.25C83.9337 166.25 83.9193 166.351 83.9628 166.409C83.7322 166.944 83.4581 167.422 83.1261 167.944C81.1631 170.87 78.3436 171.817 75.5978 173.705C74.4418 174.575 73.5314 175.171 72.7948 175.997C73.0954 173.87 73.309 171.628 73.4356 169.27C73.7461 164.15 74.3323 159.636 77.7546 155.52C79.863 153.027 82.6957 151.256 84.804 148.763C88.7316 143.995 87.6087 138.054 89.6256 132.553C89.6977 132.408 89.4517 132.322 89.3796 132.467C86.6558 139.314 87.678 145.603 81.7263 151.171C79.5883 153.144 77.5366 154.87 75.9777 157.13C77.0434 153.975 75.7944 150.753 75.8038 147.398C75.8825 142.09 81.7527 140.021 83.6117 135.273C83.6981 135.027 83.3508 134.926 83.2209 135.115C81.6344 138.3 79.2349 139.565 77.011 142.145C76.1588 143.058 75.6106 144.014 75.3375 145.215C74.3169 149.513 76.8695 153.744 75.1691 158.101C75.1691 158.101 75.1691 158.101 75.2125 158.159C74.8663 158.782 74.52 159.404 74.2608 160.143C72.546 164.601 72.6837 169.475 72.0688 174.191C71.897 175.406 71.6961 176.462 71.4374 177.562C71.6361 175.06 71.3576 172.645 70.4278 170.088C69.5416 167.588 68.1786 165.538 67.5092 162.966C68.8336 168.212 71.4594 173.021 71.1208 178.706C69.2063 184.944 65.2621 188.367 58.5397 191.349C58.3664 191.48 58.439 191.696 58.5981 191.667L58.7864 191.797ZM57.5084 74.3972C49.1974 69.6173 44.1578 75.6754 39.0015 81.0975C38.7411 81.1127 38.6547 81.3588 38.5826 81.5036C35.3183 84.8672 31.9521 87.8551 27.583 87.7073C23.4881 87.0815 19.2769 86.1813 19.0425 84.1861C18.9841 83.8681 18.4634 83.8984 18.4782 84.1587C18.3797 85.9522 19.7399 86.1946 21.3467 86.8846C22.5627 87.4165 23.7495 87.7895 24.9942 88.1189C24.9942 88.1189 25.0376 88.1766 25.1389 88.1908C25.2402 88.205 25.3415 88.2192 25.4428 88.2334C25.7467 88.276 26.0362 88.4199 26.3401 88.4625C29.1045 89.3665 29.4992 92.0554 31.744 93.7127C33.6123 95.1107 36.1153 95.3067 37.7673 97.1391C39.5932 99.2025 40.3942 102.671 41.8155 105.039C43.2076 107.248 44.9031 109.139 46.7719 110.898C46.7719 110.898 46.8297 110.855 46.7719 110.898C44.7434 108.806 43.2935 106.641 41.9735 104.287C43.0738 104.906 44.5062 105.004 45.9242 105.202C50.1926 105.697 53.5086 107.815 55.6698 111.526C54.5958 109.258 52.886 107.469 50.6852 106.231C47.8041 104.691 43.2049 105.441 41.1032 102.771C40.6099 101.875 40.1745 100.936 39.7534 99.8963C38.9695 98.1339 38.2732 96.8486 36.9113 95.5216C36.3322 95.2338 35.8544 94.9603 35.2753 94.6726C33.7841 93.8955 32.4085 93.0313 31.0328 92.1671C30.0767 91.2585 29.5829 90.0016 28.6845 89.0494L28.5975 88.9339C30.9998 89.4773 33.4164 89.9193 35.7757 90.7665C37.2813 91.4423 38.1939 92.2933 39.5712 94.2421C39.7886 94.5308 39.8762 95.0078 40.0936 95.2964C40.8037 96.1189 41.4412 96.7247 42.3533 97.2141C46.8562 99.7044 51.789 99.5181 55.2388 103.978C55.2822 104.036 55.3544 103.891 55.3544 103.891C53.774 101.552 51.8627 100.458 49.7203 99.5379C52.831 99.8191 55.7386 99.7103 58.993 99.3404C63.0863 98.8815 65.3741 100.235 67.3613 103.715C68.1446 105.116 68.8844 106.459 69.8989 107.686C69.9424 107.743 70.0145 107.599 70.0145 107.599C67.7967 104.654 66.8928 100.086 62.9272 98.9108C60.9444 98.323 58.9055 98.8634 56.9672 99.0564C54.1758 99.4396 51.3838 99.4613 48.6056 99.0201C47.187 98.4598 45.7106 97.9429 44.2629 97.2236C41.5122 95.8568 40.0909 93.4887 38.0194 91.7008C41.8414 93.5276 45.3737 95.2105 49.7131 94.8377C57.4952 94.2247 66.4673 86.6523 72.9607 94.7921C68.0896 87.9642 60.5866 91.3532 53.9055 92.9468C46.6894 94.672 42.5339 92.282 36.7291 89.8674C39.9852 90.5821 43.6177 91.5561 46.3354 90.2331C48.4459 89.1863 49.6724 87.0862 51.1306 85.1734C53.1861 85.978 54.892 85.236 56.8869 84.2764C60.4865 82.5606 64.102 81.8281 67.9668 83.3511L68.0246 83.3076C65.9978 82.3005 63.7981 81.7855 61.4839 82.0807C58.3308 82.4649 54.7335 85.6269 51.6938 84.4778C52.1848 83.927 52.5745 83.3619 53.1525 82.9266C57.2557 79.474 63.0126 78.9385 68.0891 78.1011C68.2481 78.0717 68.2333 77.8115 68.0742 77.8408C62.0278 78.2324 55.4183 79.3197 51.1868 84.0453L51.0134 84.1759C51.0134 84.1759 50.5075 84.4664 50.5802 84.6831C47.9951 87.6256 45.8433 90.0608 41.0691 89.8562C38.9712 89.717 37.1767 89.2588 35.1801 89.1338C34.9341 89.0477 34.6445 88.9038 34.3984 88.8177C33.559 88.5451 32.1987 88.3028 30.5782 88.0756C34.0489 87.2712 36.837 84.7187 39.509 81.8917C40.7526 81.498 42.0264 81.9864 43.2847 81.853C44.1237 81.764 44.9334 81.5161 45.6997 81.2104C47.666 80.4533 49.1974 79.1188 50.917 77.914C49.0955 78.7431 47.3759 79.9479 45.4674 80.6614C43.6602 81.3892 42.0682 80.9595 40.3177 80.9206C45.1272 75.7597 49.6614 70.3536 57.3637 74.3253C57.3637 74.3253 57.4792 74.2382 57.4214 74.2817L57.5084 74.3972ZM181.592 29.6204C180.216 28.3946 179.19 29.4386 177.672 30.3102C176.545 30.9784 175.505 31.762 174.464 32.5456C174.464 32.5456 174.349 32.6327 174.291 32.6763C174.175 32.7633 174.117 32.8069 174.002 32.8939C173.771 33.0681 173.482 33.2858 173.25 33.4599C170.895 35.1436 168.492 33.8771 165.744 34.6796C163.532 35.3506 161.871 37.235 159.412 37.4582C156.635 37.7402 153.378 36.3024 150.614 36.1215C148.01 35.9113 145.493 36.1782 142.991 36.7052C142.991 36.7052 142.934 36.7488 142.991 36.7052C145.884 36.3362 148.503 36.4452 151.194 36.7708C150.038 37.28 149.055 38.3816 148.131 39.4398C145.214 42.5422 141.541 44.0412 137.273 43.5461C137.273 43.5461 137.215 43.5896 137.273 43.5461C139.791 44.0024 142.206 43.7213 144.476 42.6453C147.468 41.2058 149.603 37.0642 152.974 36.9687C153.987 37.1107 155.043 37.3104 156.099 37.5102C158.009 37.8813 159.37 38.1236 161.279 37.7716C161.828 37.5388 162.392 37.2047 162.941 36.9719C164.387 36.245 165.919 35.6337 167.452 35.0223C168.724 34.7876 170.07 35.1312 171.343 34.8966L171.459 34.8095C169.667 36.5206 167.876 38.2318 165.766 39.64C164.306 40.4681 163.091 40.6593 160.719 40.6365C160.357 40.6374 159.923 40.4216 159.561 40.4226C158.52 40.4831 157.666 40.6733 156.669 41.1531C152.029 43.291 149.185 47.3333 143.63 47.5356C143.63 47.5356 143.514 47.6227 143.673 47.5934C146.495 47.7307 148.533 46.8288 150.557 45.6666C148.419 48.0005 146.831 50.4632 145.201 53.2297C143.152 56.7637 140.738 57.7678 136.715 57.3588C135.138 57.1893 133.619 56.9763 132.013 57.0094C132.013 57.0094 131.898 57.0965 132.057 57.0671C135.775 57.072 139.944 58.9991 143.296 56.4741C144.915 55.2551 145.707 53.3006 146.674 51.5771C148.059 49.0861 149.661 46.8838 151.655 44.8395C152.956 44.0407 154.213 43.1842 155.673 42.3561C158.405 40.9317 161.212 41.1703 163.829 40.5562C160.085 42.5616 156.63 44.3493 154.293 48.1011C150.209 54.7063 150.979 66.433 140.535 66.8794C140.535 66.8794 140.477 66.9229 140.535 66.8794C148.882 67.0169 150.591 58.9427 153.287 52.6592C156.17 45.7823 160.623 43.8763 165.941 40.5941C163.456 42.8277 160.494 45.1492 159.92 48.1154C159.49 50.4305 160.462 52.684 161.175 54.9527C159.31 56.0856 158.893 57.9378 158.434 60.0939C157.673 64.015 156.174 67.3162 152.604 69.5526L152.647 69.6103C154.656 68.5494 156.361 67.0844 157.472 65.0713C159.045 62.3483 158.647 57.4901 161.32 55.7478C161.481 56.4415 161.641 57.1353 161.7 57.8149C162.026 63.1794 159.054 68.1331 156.703 72.7092C156.63 72.854 156.876 72.9401 156.949 72.7953C160.254 67.6817 163.21 61.7446 161.928 55.4714L161.797 55.2982C162.144 55.037 161.984 54.7048 161.695 54.5609C160.893 50.7305 160.151 47.5797 163.154 43.8697C164.468 42.2466 165.971 41.1147 167.227 39.5351C167.458 39.3609 167.69 39.1867 167.921 39.0126C168.614 38.4902 169.626 37.5475 170.824 36.373C169.426 39.6884 169.823 43.462 170.479 47.2204C170.047 48.4508 168.905 49.2203 168.285 50.321C167.823 51.0308 167.55 51.8703 167.334 52.6663C166.787 54.7068 166.964 56.7455 166.88 58.7994C167.21 56.8317 167.351 54.7343 167.884 52.795C168.358 50.8993 169.644 49.8402 170.713 48.4925C172.054 55.4453 173.67 62.2816 165.908 66.0474C165.908 66.0474 165.893 66.1486 165.995 66.1628C174.755 62.2788 172.834 54.6768 171.55 47.3189C171.636 47.0728 171.607 46.9138 171.477 46.7406C170.732 42.1436 170.277 37.6905 172.991 34.1981C175.88 31.2983 179.131 28.3975 180.955 29.3762C181.244 29.52 181.562 29.0998 181.33 28.9124L181.592 29.6204ZM23.2793 130.584C22.8021 130.672 22.9623 131.366 23.3817 131.321C26.6648 130.749 27.5736 129.069 30.1025 127.254C36.9812 122.435 43.7399 124.312 51.3496 124.553C57.8166 124.84 64.572 124.548 69.0341 119.286C69.1497 119.199 68.918 119.012 68.9037 119.113C62.462 125.956 52.2458 124.059 43.4784 123.604C44.9537 123.398 46.4289 123.192 47.7881 122.711C50.492 121.851 52.717 119.994 55.4936 119.35C59.4851 118.516 63.4072 119.634 66.9043 117.181C67.0777 117.05 66.9038 116.819 66.7304 116.95C62.4224 118.928 58.0373 117.796 53.6996 119.254C52.1236 119.807 50.7942 120.809 49.3487 121.536C47.0213 122.655 44.6206 123.196 42.133 123.622C41.4097 123.624 40.7442 123.582 40.0209 123.584C37.5905 123.605 35.1024 123.669 32.8471 124.644C29.3775 126.172 27.1844 129.995 23.2072 130.729L23.2793 130.584ZM33.4856 154.478C32.3863 154.582 32.6929 156.432 33.763 156.169C36.4383 155.511 38.447 154.089 39.963 152.133C40.8157 151.581 41.5236 150.957 42.3328 150.348C45.6593 149.833 48.5223 148.943 51.9094 150.193C53.3279 150.753 54.5445 151.647 56.0638 151.86C58.6395 152.272 60.8072 150.821 62.048 148.619C62.1058 148.576 61.961 148.504 61.961 148.504C59.6804 151.85 56.3814 151.439 53.1386 149.9C52.0239 149.383 51.0105 148.879 49.8093 148.607C47.7979 148.222 45.498 148.416 43.6187 149.289C43.6187 149.289 43.7343 149.201 43.7921 149.158C45.9885 147.504 48.36 146.803 50.9918 146.088C53.1898 145.518 55.0119 145.051 55.7027 142.721C54.4641 146.368 49.2699 145.846 46.234 147.228C44.1378 148.174 42.5057 149.855 40.6126 151.191C41.0887 150.38 41.5214 149.511 41.8671 148.527C42.8035 145.921 42.466 142.827 43.5472 140.293C45.6373 135.371 51.2775 134.199 55.9637 133.565C52.0294 133.995 47.6614 134.57 44.8017 137.629C39.7032 143.008 43.6391 153.164 33.5434 154.434L33.4856 154.478ZM197.367 62.7121C194.721 63.5288 192.756 65.0091 191.472 67.1527C190.662 67.7622 189.911 68.3282 189.246 69.0096C185.993 69.7411 183.115 70.732 179.743 69.7428C178.31 69.2837 177.036 68.4338 175.502 68.322C172.898 68.1118 170.875 69.6356 169.736 71.8512C169.678 71.8947 169.822 71.9667 169.822 71.9667C171.857 68.5339 175.242 68.6987 178.514 70.0352C179.629 70.553 180.656 70.9553 181.93 71.0821C183.955 71.3661 186.226 71.0132 188.062 70.0829L187.888 70.2135C185.779 71.9833 183.437 72.8426 180.892 73.6735C178.737 74.301 176.887 74.971 176.398 77.3296C177.391 73.5958 182.672 73.8714 185.635 72.2729C187.702 71.1685 189.189 69.4147 191.039 68.0216C190.606 68.8904 190.217 69.817 189.929 70.7578C189.137 73.4353 189.634 76.5 188.654 79.0478C186.81 84.0564 181.33 85.5602 176.658 86.4544C180.563 85.8658 184.873 84.9725 187.544 81.784C192.324 76.1025 187.781 66.2222 197.861 64.3306C198.975 64.1252 198.553 62.362 197.526 62.6828L197.367 62.7121ZM109.403 38.2961C109.403 38.2961 108.621 37.9799 108.244 37.7206C108.621 37.9799 108.954 38.1815 109.331 38.4409C109.374 38.4986 109.504 38.3103 109.446 38.3538L109.403 38.2961ZM108.244 37.7206C107.68 37.3316 107.071 36.8848 106.521 36.3945C107.071 36.8848 107.578 37.3174 108.244 37.7206ZM124.223 42.6976C120.973 36.0969 115.584 31.83 108.407 30.359C105.194 29.702 101.91 29.5514 98.6404 29.2996C93.128 28.8366 89.1189 27.6032 84.038 25.5482C82.6762 24.2213 81.2273 22.7788 80.0388 21.3212C79.937 20.9454 79.8787 20.6274 79.7768 20.2517C79.7185 19.9337 79.299 19.9781 79.1691 20.1665C77.8353 18.2754 77.1235 16.3683 77.6272 14.6315C77.8144 14.0381 76.8593 13.8525 76.73 14.4024C75.9098 17.2825 77.4312 18.9417 79.2429 21.1063C79.3744 22.0026 79.6073 22.9131 79.7966 23.7659C79.6375 23.7952 79.5219 23.8823 79.5076 23.9836C80.3691 29.2166 79.392 33.5722 76.2449 37.9334C74.7581 40.0487 72.7935 41.8905 71.7844 44.2793C70.1121 48.0727 70.3356 52.3384 72.1929 56.0069C70.204 51.4421 70.8475 46.5234 73.5322 42.5104C75.0333 40.2939 76.8824 38.5392 78.1953 36.1929C79.5082 33.8467 80.4445 31.2411 80.6576 28.6374C81.1106 31.6443 81.3032 34.6664 80.3674 37.6335C79.0865 41.9465 76.6616 45.5827 76.0176 50.1399C76.0176 50.1399 76.1045 50.2554 76.1189 50.1542C77.1092 44.9742 80.6905 40.8288 81.7244 35.7066C82.5858 31.438 81.2477 26.6546 80.1561 22.3188C81.8807 24.3679 83.6197 26.3158 85.2573 28.2495C87.5065 32.7992 88.4253 37.6272 88.5199 42.8043C88.6003 48.0828 85.6971 51.0839 83.7798 55.5142C81.6605 60.2777 81.3924 64.7327 81.6896 69.9383C81.6753 70.0395 81.8779 70.0679 81.8922 69.9667C81.6049 61.7674 83.5965 58.6385 87.376 51.6291C88.5733 49.37 89.3809 47.6758 89.5939 45.0721C89.8912 40.7761 89.4211 36.0627 88.0548 31.8433L88.5183 32.2181C91.1567 35.8413 93.1736 39.8421 93.876 45.1044C94.6368 50.6848 92.9958 56.0834 93.3514 61.6069L93.2644 61.4915C93.2644 61.4915 92.8593 61.4347 92.9319 61.6514C94.5173 67.2441 91.1836 72.5603 92.1761 78.3281C92.862 82.2455 94.6037 86.0011 97.0676 89.0318C97.1546 89.1473 97.3279 89.0167 97.241 88.9012C93.8616 83.2119 91.0757 77.7091 92.8592 70.9362C93.3194 69.1418 93.8958 67.6217 94.067 66.0449C95.3182 70.7129 97.6682 74.9153 100.524 78.8271C100.524 78.8271 100.524 78.8272 100.582 78.7836C95.9556 71.3187 93.3993 64.5571 93.8342 55.6329C94.0731 51.0189 94.4716 46.7371 93.51 42.2129C92.8544 39.1776 91.8954 36.4612 90.5027 33.8906C93.5155 36.3269 96.6873 38.7339 99.1655 41.6633C101.064 43.9433 102.167 46.3701 102.837 48.9426C102.871 52.7171 100.375 57.2213 100.367 60.938C100.43 64.8715 101.593 68.3394 103.826 71.5442L103.884 71.5007C100.866 66.172 99.8734 60.0427 101.89 54.1803C102.351 52.7474 102.942 51.4877 103.128 50.1712C103.711 52.9897 104.019 55.9247 104.516 58.9894C105.406 64.0199 106.772 68.2393 111.304 70.8886C111.347 70.9463 111.42 70.8015 111.42 70.8015C102.657 64.0993 106.49 54.154 102.513 45.3858C102.005 44.2302 101.323 43.2051 100.584 42.2236C105.478 44.872 111.206 44.539 114.499 50.4744C117.371 55.7312 115.211 61.8831 118.676 66.9648C118.719 67.0225 118.835 66.9354 118.791 66.8777C115.195 60.8997 118.192 53.2127 113.598 47.7145C109.67 42.9811 103.465 43.7636 99.0185 40.1451C96.28 37.2309 92.8186 34.68 89.6759 32.4321C89.0958 31.4212 88.3565 30.4397 87.6172 29.4582C87.3128 29.0541 86.9649 28.5922 86.5592 28.1738C86.3852 27.9429 86.3126 27.7261 86.1964 27.4517C89.9027 29.3655 94.5614 29.6572 98.6558 29.9214C101.463 30.16 104.168 30.3844 106.73 30.8984C108.034 32.6305 108.399 34.7988 109.646 36.5744C110.037 37.0941 110.385 37.556 110.791 37.9743C110.139 37.1083 109.486 36.2423 108.993 35.3469C108.224 33.8448 107.889 32.197 106.845 30.8114C113.936 32.1669 120.074 35.1447 124.078 42.6257C124.165 42.7412 124.281 42.6541 124.194 42.5386L124.223 42.6976ZM160.05 162.307C161.443 164.878 163.917 165.276 166.608 165.241C170.861 165.114 174.491 164.642 178.039 166.585C179.893 168.446 181.315 170.814 182.187 173.776C182.958 176.363 183.265 178.575 184.7 180.842C185.005 181.246 185.583 180.811 185.278 180.406C182.929 176.566 182.546 172.329 180.516 168.791C180.516 168.791 180.631 168.704 180.544 168.589C179.021 165.483 180.477 162.486 179.952 159.262C179.572 156.834 177.804 155.088 176.124 153.458C176.08 153.401 176.008 153.545 176.008 153.545C177.674 155.277 179.428 157.123 179.634 159.682C179.752 161.042 179.349 162.431 179.206 163.805C179.077 164.717 179.05 165.642 179.239 166.495C178.79 166.019 178.269 165.688 177.791 165.414C177.573 165.126 177.24 164.924 176.965 164.679C176.878 164.563 176.777 164.549 176.632 164.477C176.69 164.434 176.806 164.347 176.719 164.231C173.603 161.057 174.133 156.949 170.425 154.312C167.702 152.381 164.778 151.145 161.594 150.285C165.488 151.606 171.162 153.847 173.034 157.776C174.181 160.261 174.155 162.271 176.169 164.102C170.072 160.098 162.434 160.06 157.766 153.622L157.708 153.665C160.942 158.559 165.63 159.733 170.798 161.904C172.608 162.622 174.186 163.515 175.591 164.538C170.41 163.553 163.731 166.593 160.122 162.162C160.035 162.047 159.92 162.134 159.949 162.293L160.05 162.307ZM163.052 186.017C164.46 189.21 164.264 193.158 164.5 196.6C164.515 196.86 164.833 196.801 164.862 196.599C165.147 193.489 165.084 190.278 164.211 187.316C164.269 187.272 164.385 187.185 164.341 187.128C162.238 183.734 163.55 180.303 162.662 176.719C162.138 174.58 160.862 173.007 159.081 171.725C158.994 171.609 158.907 171.855 158.907 171.855C162.586 174.695 162.201 178.152 162.337 182.302C162.324 182.765 162.411 183.242 162.455 183.662C158.801 178.089 153.836 175.947 154.157 168.194C154.157 168.194 154.07 168.079 154.056 168.18C153.902 171.463 154.398 174.528 156.167 177.358C158.154 180.477 161.426 182.536 162.951 186.003L163.052 186.017ZM97.9904 201.269C97.9904 201.269 98.2079 201.558 98.3378 201.37C99.2032 199.632 100.083 198.155 100.631 196.476C100.631 196.476 100.688 196.432 100.746 196.388C102.826 194.46 104.428 191.534 104.626 188.67C104.739 186.775 104.287 184.853 104.4 182.958C104.512 180.34 105.55 178.11 106.849 175.866C106.907 175.822 106.762 175.75 106.762 175.75C104.696 177.939 103.761 180.906 103.751 183.9C103.725 186.272 104.322 188.628 103.429 190.929C102.867 192.348 101.928 193.507 101.033 194.725C101.147 193.914 101.175 192.989 101 192.035C100.254 186.715 98.7292 182.886 100.92 177.616C100.992 177.471 100.746 177.385 100.674 177.53C98.8415 180.63 98.4413 183.827 99.141 187.281C99.6656 189.782 100.784 192.469 100.354 195.146C99.981 197.417 98.3923 199.157 97.8749 201.356L97.9904 201.269ZM75.2529 70.5334C73.1523 68.5865 71.2972 66.3641 69.9045 63.7934C69.3678 62.8403 69.0188 61.6553 68.3665 60.7893C66.9749 58.9418 64.4714 58.3842 62.6758 57.203C62.1677 56.0473 61.5005 54.921 60.6599 53.9253C57.4864 50.4337 53.0717 48.782 48.6574 47.4918C54.0256 48.2444 60.3142 45.4081 64.6899 49.8945C64.7769 50.0099 64.9503 49.8793 64.8633 49.7638C59.8342 43.6883 50.8301 49.2939 44.6907 45.593C44.5025 45.4634 44.3147 45.6952 44.4452 45.8684C45.097 46.3729 45.7774 46.6749 46.4577 46.9768C46.1396 47.0355 46.0102 47.5854 46.4154 47.6422C48.9481 48.3587 51.5678 49.1908 53.9998 50.2547C55.5069 52.0152 57.3466 53.6157 58.507 55.6374C60.001 58.2222 59.7588 60.6669 59.8645 63.5735C60.028 66.4366 60.972 68.8927 62.4946 71.275C60.4937 68.2576 59.7367 65.2081 59.9338 61.621C60.0186 60.2903 60.2482 59.0314 59.9135 57.7452C59.2149 55.0137 56.8969 52.7781 54.8541 50.7876C55.6214 51.205 56.3888 51.6224 57.0984 52.0833C61.4862 55.0223 62.6064 59.1555 64.0167 63.7942C64.9183 66.9157 66.1222 68.9951 69.1911 70.3032L69.2489 70.2597C64.876 67.581 64.6365 62.3319 62.8937 57.8532C63.3572 58.228 63.8785 58.5593 64.4576 58.847C66.7019 60.1428 68.0489 61.2095 69.2098 63.5928C70.6609 66.4814 72.603 68.8192 75.1522 70.8807C75.2392 70.9962 75.3256 70.7501 75.3256 70.7501L75.2529 70.5334ZM180.978 111.072C181.745 111.128 182.526 111.083 183.162 110.965C182.424 111.068 181.745 111.128 180.978 111.072ZM177.983 110.704C178.981 110.947 180.052 111.046 180.978 111.072C180.052 111.046 179.097 110.86 177.953 110.545C177.91 110.487 177.78 110.675 177.881 110.69L177.983 110.704ZM206.287 97.1666C206.287 97.1666 206.519 96.9924 206.446 96.7757L206.649 96.8041C209.557 97.0569 211.177 96.9225 213.706 95.4698C214.169 95.1215 213.864 94.3558 213.358 94.6464C208.444 97.6238 199.931 93.5385 194.233 94.7536C187.147 96.2904 180.224 100.69 173.186 96.0373C173.143 95.9795 173.071 96.1243 173.071 96.1243C177.69 99.2507 182.449 98.4719 187.611 97.0268C191.053 96.0634 194.103 94.9419 197.72 94.9326C200.613 94.9251 203.118 96.2058 205.853 96.5892C202.048 96.8304 198.622 98.0541 195.645 100.477C195.645 100.477 195.602 100.419 195.544 100.463C192.06 102.453 188.456 101.276 184.724 101.373C182.236 101.437 179.85 101.877 177.522 102.635C181.542 101.598 185.26 101.603 189.34 101.968C191.279 102.137 193.087 102.132 194.807 101.289C190.777 104.958 188.47 109.954 183.393 110.791C185.447 110.511 187.413 109.754 189.132 108.188C191.141 106.404 192.366 103.942 194.331 102.1C197.74 98.8084 201.803 97.4674 206.519 96.9924L206.287 97.1666ZM202.068 119.348L202.242 119.579C202.242 119.579 202.56 119.52 202.473 119.405C207.16 119.132 210.534 121.206 213.982 124.581C214.156 124.812 214.56 124.507 214.386 124.276C211.574 120.422 208.403 118.377 203.571 118.577C203.051 118.608 202.53 118.638 202.053 118.726C198.487 113.992 191.792 116.41 186.857 115.15C186.857 115.15 186.742 115.237 186.8 115.193C189.231 115.896 191.589 115.658 194.106 115.753C197.188 115.875 199.186 117.085 201.373 118.786C199.044 119.182 196.716 119.94 194.388 120.337C189.456 121.246 185.549 120.388 181.249 117.926C181.162 117.811 181.075 118.057 181.075 118.057C184.132 120.913 187.851 121.641 191.886 121.225C194.982 120.885 197.975 119.807 201.026 119.408C201.345 119.35 201.706 119.349 202.068 119.348ZM136.258 32.4563C135.284 29.4797 136.482 27.5821 133.485 25.7676C131.342 24.486 128.723 24.0155 126.767 22.5021C125.909 19.4383 125.717 16.4163 127.347 13.2883C127.563 12.8538 126.868 12.6532 126.724 12.9428C124.847 15.2615 124.547 17.7498 124.956 20.3375C124.869 20.222 124.825 20.1642 124.738 20.0488C124.608 19.8756 124.391 19.9484 124.42 20.1074C124.45 20.9895 124.828 21.6104 125.32 22.1443C125.713 23.387 126.105 24.6297 126.7 25.9008C126.603 28.4175 124.971 30.4608 123.962 32.8497C123.155 34.9054 123.071 36.9592 123.596 39.0982C123.596 39.0982 123.639 39.1559 123.596 39.0982C122.678 35.3549 124.338 32.7474 125.982 29.5182C126.473 28.6058 126.761 27.665 126.947 26.71C128.66 30.6682 130.518 34.6983 130.09 38.4596C128.918 47.8484 119.796 51.7334 125.583 61.5815C125.583 61.5815 125.684 61.5957 125.64 61.538C119.635 50.6781 130.363 46.7601 130.812 37.373C130.839 36.0859 130.707 34.828 130.473 33.5559C131.053 34.5668 131.648 35.4764 132.156 36.632C133.752 39.9541 133.642 43.2952 132.2 46.5528C130.859 49.4632 128.663 51.4791 129.319 54.8759C129.363 54.9337 129.464 54.9479 129.435 54.7889C129.138 49.9449 134.008 46.5482 133.943 41.53C133.937 37.553 131.459 34.9851 129.92 31.6195C129.077 28.816 127.814 26.057 126.957 23.3548C127.435 23.6284 128.014 23.9161 128.549 24.1461C130.098 24.8797 132.833 25.2631 134.094 26.5759C135.528 28.1196 135.474 30.694 136.128 32.6447C136.172 32.7024 136.229 32.6589 136.244 32.5576L136.258 32.4563ZM206.923 77.323C204.653 78.3991 202.746 79.8357 201.23 81.792C198.27 85.5598 196.453 89.2812 190.766 88.5873C193.342 89 195.887 88.5307 197.895 86.7466C199.138 85.6299 199.801 84.2253 200.768 82.8634C202.501 80.4727 204.538 78.8477 207.097 77.554C207.27 77.4234 207.154 77.1489 206.923 77.323ZM188.6 43.616C188.6 43.616 188.166 43.4002 188.137 43.6027C187.866 45.8884 187.117 47.9006 185.34 49.5105C184.285 50.3954 183.114 51.0058 182.103 51.9484C180.803 53.1088 179.995 54.4413 180.055 56.2055C180.151 52.2427 184.561 51.3636 186.771 48.8849C188.013 47.4065 188.676 45.6405 188.586 43.7172L188.6 43.616ZM147.332 18.0525C148.485 15.0125 148.711 11.9459 148.388 8.75066C148.359 8.59165 148.099 8.60678 148.128 8.76579C148.442 15.3163 146.09 19.5308 142.756 24.847C140.779 27.8747 141.549 30.0998 143.535 32.8569C139.779 26.9083 145.416 23.2059 147.274 18.096L147.332 18.0525ZM195.057 132.049C197.169 132.087 199.31 131.922 201.393 132.163C204.736 132.631 206.879 134.275 209.125 136.655C209.386 137.001 209.964 136.566 209.703 136.22C203.73 127.688 192.529 134.948 185.432 128.892C185.345 128.777 185.215 128.965 185.258 129.023C187.953 131.518 191.44 132.058 195.057 132.049ZM41.1707 185.247C39.407 186.033 38.3231 186.759 37.2117 188.41C37.024 188.642 37.3862 189.003 37.5739 188.771C41.676 184.595 47.5347 184.436 51.1871 179.422C51.3891 179.089 51.5912 178.756 51.7932 178.423C55.2755 175.709 59.0319 172.518 61.6164 169.214C64.273 165.765 61.8085 162.373 62.1498 158.496C62.1498 158.496 62.1063 158.439 62.1498 158.496C61.8773 160.059 62.0238 161.216 62.272 162.748C62.7542 165.914 62.2511 168.012 59.8675 170.26C57.5996 172.421 55.1434 174.452 52.8176 176.656C54.9369 171.892 54.943 166.368 57.7862 161.964C53.8294 166.573 54.3892 173.21 51.0407 178.266C50.9108 178.454 50.7809 178.642 50.651 178.831C50.5354 178.918 50.4198 179.005 50.3042 179.092C50.2464 179.136 50.1885 179.179 50.2755 179.295C47.8788 182.367 44.9007 183.705 41.2577 185.363L41.1707 185.247ZM34.6867 173.752C34.6867 173.752 34.586 174.1 34.8028 174.027C38.7943 173.192 42.4946 171.129 43.5009 166.933C44.1763 163.981 43.2752 161.221 46.136 158.885C48.4188 156.984 51.1112 158.033 53.7292 157.781C55.7687 157.602 56.622 157.412 58.0664 155.962C58.1242 155.918 58.0372 155.803 57.9794 155.846C53.9918 159.212 48.0687 155.076 44.6762 159.713C43.5791 161.263 43.6825 162.724 43.2801 164.475C42.2034 169.901 39.4725 172.048 34.7445 173.709L34.6867 173.752ZM14.8439 110.605C14.8439 110.605 14.5984 110.88 14.801 110.908C19.6919 111.749 23.6829 110.553 28.3745 113.534C30.9375 115.133 32.7486 116.936 35.6435 118.013C41.1004 119.966 46.7124 119.359 51.8588 116.93C45.2234 120.028 39.0163 119.364 33.1961 116.328C34.1655 116.412 35.0331 116.12 36.0013 115.482C37.7645 114.334 38.8187 113.088 41.0751 112.836C42.9698 112.586 45.17 113.462 46.6761 114.499C44.8513 113.159 42.4634 112.515 40.1635 112.709C37.2273 113.02 35.4828 116.958 32.3275 115.896C31.0388 115.147 29.7645 114.297 28.5045 113.346C23.4209 109.483 20.8777 111.399 14.7861 110.648L14.8439 110.605ZM19.8037 99.6296C19.8037 99.6296 19.6881 99.7167 19.7894 99.7309C24.8103 100.383 30.2363 101.092 34.1766 104.64C34.22 104.697 34.2922 104.553 34.2922 104.553C30.3948 100.701 25.0701 100.006 19.8037 99.6296ZM15.7066 97.5577L14.9535 97.039L15.7066 97.5577ZM53.2902 68.7968C46.4604 67.7877 44.9599 60.8642 40.8159 56.5653L40.7289 56.4498C40.7289 56.4498 40.7289 56.4498 40.6855 56.3921C40.5985 56.2766 40.5115 56.1611 40.381 55.9879C37.4112 53.2478 33.0686 51.4513 29.4784 49.8119C29.1889 49.668 28.9582 50.2037 29.1465 50.3333C32.0711 51.9311 35.3569 53.1663 38.1516 54.9524C39.2377 55.6727 40.1504 56.5236 40.9475 57.4616C42.6616 62.1428 38.4632 69.5582 44.0951 72.465C44.0951 72.465 44.2106 72.378 44.1528 72.4215C38.434 69.3992 42.6192 62.8082 41.4693 58.1544C42.4695 59.4823 43.4119 60.8538 44.2965 62.2688C46.5584 65.6326 48.9932 68.5042 53.2037 69.0429C53.4063 69.0713 53.4349 68.8688 53.1889 68.7826L53.2902 68.7968Z" fill="url(#paint1_radial_102_329)"/>
</g>
<defs>
<radialGradient id="paint0_radial_102_329" cx="0" cy="0" r="1" gradientUnits="userSpaceOnUse" gradientTransform="translate(92.1445 98.6443) rotate(157.317) scale(107.16 107.056)">
<stop stop-color="white"/>
<stop offset="0.41" stop-color="#A7A39E"/>
<stop offset="0.82" stop-color="#574F45"/>
<stop offset="1" stop-color="#382F23"/>
</radialGradient>
<radialGradient id="paint1_radial_102_329" cx="0" cy="0" r="1" gradientUnits="userSpaceOnUse" gradientTransform="translate(112.725 111.882) rotate(-24.2911) scale(102.024 101.922)">
<stop offset="0.47" stop-color="#FF0000"/>
<stop offset="1" stop-color="#FF8879"/>
</radialGradient>
</defs>
</svg>
