<svg width="54" height="54" viewBox="0 0 54 54" fill="none" xmlns="http://www.w3.org/2000/svg">
<path style="mix-blend-mode:multiply" d="M33.8571 46.9366C22.8629 50.7065 10.8631 44.8531 7.08209 33.8655C3.3011 22.8779 9.15105 10.8925 20.1453 7.12251C31.1395 3.35253 43.1393 9.20602 46.9203 20.1936C50.7013 31.1811 44.8513 43.1666 33.8571 46.9366Z" fill="url(#paint0_radial_286_956)"/>
<path style="mix-blend-mode:screen" opacity="0.3" d="M34.1797 46.8378C33.6939 44.5086 33.2839 42.5656 32.9812 41.0205C33.4136 42.505 33.942 44.419 34.5575 46.6876C33.6163 42.9373 32.957 40.2939 32.5273 38.7027C31.8741 34.5543 32.9566 36.5255 36.7086 45.7081L36.7951 45.6677C31.9918 32.4436 32.4608 33.3313 37.4351 45.2894L37.4669 45.3009C34.2446 37.1355 33.1689 34.0543 34.9596 36.7485C35.5157 37.9907 36.784 40.6393 38.6516 44.5098C37.1604 41.3857 36.0657 39.0512 35.4833 37.5842C36.3253 38.9299 37.5841 41.1085 39.2714 44.0882C37.1179 40.1142 35.7374 37.6762 35.0921 36.5812C34.3468 34.3733 35.9747 36.3266 40.6778 42.9826L40.7758 42.9105C33.7111 32.0615 34.2922 32.7385 41.2455 42.5064L41.2685 42.4429C35.2545 33.5536 34.4639 31.8676 41.0539 38.2739C41.6668 38.9624 42.3635 39.7172 43.144 40.5382C42.6987 39.9822 42.2621 39.5011 41.8574 39.0315C42.2736 39.4693 42.7534 39.9302 43.2332 40.3911L43.2677 40.2959C41.6141 38.5127 40.3133 37.1443 39.345 36.1476C36.15 32.3706 37.4583 33.0239 44.4944 38.6946L44.5403 38.5676C35.6541 30.8631 36.2609 31.37 44.6498 38.4637L44.6728 38.4003C38.4018 32.899 36.6935 31.1678 40.7488 33.462C41.8293 34.2481 43.4241 35.4 45.565 36.929C43.9296 35.6907 42.5977 34.7058 41.5807 33.9427C42.6754 34.5904 44.0533 35.4484 45.7779 36.5396L45.8009 36.4761C42.9525 34.619 41.0718 33.3637 40.0724 32.7504C38.2431 31.1548 40.094 31.897 46.4105 35.1896L46.4565 35.0627C36.9335 29.7115 37.6093 30.028 46.5369 34.8406L46.5714 34.7454C37.8195 29.7453 37.2843 28.9413 47.3839 32.2045L47.4414 32.0459C38.0311 28.5658 38.7616 28.8304 47.4441 31.9392L47.4671 31.8757C38.8508 28.6833 38.1804 28.1534 47.7733 30.3358C47.7963 30.2723 47.8193 30.2089 47.8105 30.1339C38.8664 27.6481 38.2508 27.0663 48.012 28.0895L48.058 27.9626C47.2383 27.8451 46.5253 27.7304 45.8644 27.6705C39.543 26.673 39.7099 26.4104 48.0155 26.6911L48.0615 26.5642C38.578 25.9646 39.1869 25.9698 48.0122 26.4028L48.0581 26.2758C39.1862 25.5748 38.5044 25.0766 47.7684 23.8023C47.7596 23.7273 47.7306 23.6091 47.7218 23.5342C38.9532 24.2343 39.5878 24.0693 47.6083 22.9547L47.6313 22.8913C39.5932 23.856 38.912 23.7528 47.3583 21.8593L47.3293 21.7411C38.5018 23.4966 39.0614 23.3403 47.2799 21.5797L47.2509 21.4615C39.0377 23.0088 38.3707 22.7672 46.6563 19.6312C46.6475 19.5562 46.5955 19.5015 46.555 19.415C38.583 21.9828 39.125 21.6766 46.3637 18.951C39.1277 21.5699 38.4844 21.6599 46.0712 18.2708L46.0306 18.1844C38.0167 21.5623 38.4722 21.2966 45.909 17.925L45.8482 17.7953C38.2668 20.971 37.5221 20.8448 44.8265 15.9538C44.786 15.8673 44.7137 15.7694 44.6414 15.6714C37.4397 19.8819 37.8168 19.3366 44.0339 14.7695L43.9704 14.7465C37.704 19.1522 37.1302 19.4468 43.6521 14.2365L43.5798 14.1385C36.6396 19.4127 37.014 18.9741 43.2588 13.7351L43.1865 13.6372C36.8174 18.7234 36.174 18.8134 42.085 12.4128C42.033 12.3581 41.9492 12.2918 41.9087 12.2054C35.9274 18.0063 36.1775 17.415 41.1687 11.4708L41.137 11.4593C36.1052 17.317 35.6875 17.7759 41.0329 11.3498L40.9694 11.3268C35.2867 17.9896 35.5456 17.4732 40.5734 10.9322L40.4781 10.8977C35.228 17.3582 34.6339 17.6096 39.2009 9.86088C39.1056 9.82637 39.0333 9.7284 38.938 9.69389C34.0643 16.9008 34.1265 16.1338 37.6872 8.88197L37.6237 8.85896C33.9562 16.108 33.5994 16.6966 37.4243 8.71498L37.2973 8.66897C33.06 16.896 33.0878 16.2242 36.2545 8.07597L36.1275 8.02996C32.7384 16.0976 32.2775 16.5767 34.8915 7.47463L34.6374 7.3826C32.3311 14.048 31.6951 15.1096 32.2806 11.4098C32.5212 10.3486 32.8478 8.85185 33.3149 6.86772L33.2514 6.84471C33.0134 7.7993 32.7984 8.69043 32.6294 9.45465C32.7667 8.67892 32.9384 7.80802 33.1128 6.83042L33.0811 6.81892C32.7288 8.48578 32.4686 9.89883 32.2394 10.9284C30.9489 15.8802 31.1018 14.0693 32.137 6.54876L32.0417 6.51425C30.5678 15.7421 30.2629 16.3854 30.9361 6.29326L30.7138 6.21274C29.5121 16.0776 29.1385 15.2244 28.7425 6.0012L28.6789 5.97819C28.9655 15.3053 28.987 16.1386 28.6039 5.98691L28.4769 5.9409C28.4916 16.7128 27.9882 15.9204 26.1798 5.93437L26.0528 5.88836C27.5902 16.0274 27.5279 16.7944 25.0026 6.01043C24.939 5.98742 24.8525 6.02787 24.8208 6.01636C26.2009 13.5145 26.2933 15.3424 25.0305 12.4805C24.6562 11.2324 24.0238 9.20889 23.0725 6.28036L23.0089 6.25735C23.4792 7.93499 23.8825 9.30129 24.196 10.4197C23.7643 9.33023 23.2541 7.96115 22.6859 6.35569C23.4426 8.53187 24.0717 10.267 24.521 11.5064C25.9553 16.8709 24.7458 14.8537 20.9436 6.80132L20.8571 6.84177C25.491 17.0616 25.7376 17.8687 20.2861 7.02971L20.1563 7.09038C25.0943 17.9587 24.184 17.1983 18.0079 7.96312C24.1583 17.3685 24.7773 18.2386 17.9214 8.00357L17.7916 8.06424C24.5941 19.1413 23.4737 18.6637 14.8193 9.8229L14.7328 9.86335C23.252 18.9782 23.8419 19.7302 14.2313 10.2559L14.1333 10.3281C20.5219 17.0921 21.8551 18.867 18.7263 16.693C17.5444 15.6907 15.5245 14.0261 12.5829 11.6328L12.5599 11.6962C13.8979 12.8627 15.0684 13.8967 16.0827 14.7666C15.0136 13.9487 13.777 12.9984 12.3092 11.8925C14.1007 13.295 15.5772 14.4758 16.7503 15.4031C22.6315 20.6914 20.223 19.6038 10.4513 13.9472L10.4283 14.0106C22.0462 21.0178 22.9619 21.5647 10.3188 14.1145L10.2958 14.178C22.4949 21.8621 21.1149 21.5059 8.95422 16.0966C21.1642 21.6673 22.3685 22.2111 8.7528 16.4543L8.72982 16.5178C22.7191 23.1277 21.3256 23.3049 6.97582 20.3686L6.95284 20.432C21.381 23.6479 22.4954 23.9439 6.81495 20.8127C22.0919 24.2643 20.5943 24.332 6.30186 22.9238C20.6666 24.43 22.0952 24.5526 6.23291 23.1141C22.5723 25.1202 21.2572 25.577 5.87516 26.6811C21.4221 25.8161 22.6628 25.7631 5.84675 26.9579C22.3979 26.0978 20.8807 26.5173 5.92771 28.8175C20.953 26.6152 22.4533 26.4408 6.07696 30.0918C23.1094 27.1091 21.9652 27.9867 7.10523 34.1967C22.0869 28.2461 23.3155 27.8298 7.33429 34.8538C23.1141 28.1875 21.7476 28.9845 7.83834 36.0413C21.7563 29.0595 23.204 28.4354 8.42892 37.1883C23.8365 28.7721 22.9552 29.8167 10.2196 39.8825C23.1545 29.9607 24.2528 29.21 10.8413 40.646C24.1784 29.6137 23.072 30.6845 11.4021 41.2798C23.1126 30.7709 24.3865 29.8327 13.0294 42.8381C25.1055 30.129 24.5824 31.375 15.4939 44.6638L15.5257 44.6754C24.7588 31.5825 25.5968 30.5581 16.5251 45.2886C25.5339 30.9301 24.7107 32.2111 16.5569 45.3001C24.7513 32.2975 25.7015 31.0626 18.6045 46.2929C26.351 31.1543 26.1164 32.3972 20.6373 47.0291L20.669 47.0406C25.5715 34.4967 26.6841 31.9209 23.9301 41.9054C23.4421 43.4513 22.8824 45.2942 22.251 47.4342C22.6701 46.0787 23.0433 44.85 23.4137 43.7281C23.1183 44.8413 22.7337 46.1017 22.3463 47.4687C23.1183 44.8413 23.7496 42.7013 24.2519 41.017C26.7759 33.3538 26.8995 34.7982 25.0191 47.8266L25.0826 47.8496C28.0202 31.9024 28.0971 33.0787 26.7593 47.8827L26.791 47.8942C27.7798 38.4188 28.2409 34.5663 28.4158 37.3572C28.2765 38.6346 28.0775 42.2591 27.775 47.8558C28.0247 43.496 28.2648 40.353 28.4812 38.5652C28.5304 40.4133 28.5383 43.4667 28.5137 47.8003C28.6033 42.5931 28.6008 39.3263 28.5752 37.8097C29.0296 35.0673 29.522 37.9732 30.4756 47.5419L30.5391 47.5649C29.6225 32.3392 29.8954 33.3711 31.765 47.2553L31.7968 47.2668C30.5237 36.398 30.334 33.3505 32.188 39.4412C32.5514 41.116 33.0777 43.5317 33.7897 46.6248L34.1797 46.8378Z" fill="url(#paint1_radial_286_956)"/>
<path style="mix-blend-mode:color-dodge" opacity="0.3" d="M35.921 9.39072C45.5583 14.0296 49.5913 25.6109 44.9553 35.2367C40.3193 44.8625 28.731 48.8839 19.0937 44.245C9.45642 39.6061 5.42339 28.0248 10.0594 18.399C14.6955 8.77317 26.2838 4.7518 35.921 9.39072Z" fill="url(#paint2_linear_286_956)"/>
<defs>
<radialGradient id="paint0_radial_286_956" cx="0" cy="0" r="1" gradientUnits="userSpaceOnUse" gradientTransform="translate(56.8092 6.59853) rotate(70.9687) scale(71.5339 71.5505)">
<stop stop-color="#FF9D00"/>
<stop offset="0.1" stop-color="#F99800"/>
<stop offset="0.24" stop-color="#E88A00"/>
<stop offset="0.39" stop-color="#CD7300"/>
<stop offset="0.54" stop-color="#AD5700"/>
<stop offset="0.6" stop-color="#A15200"/>
<stop offset="0.72" stop-color="#824600"/>
<stop offset="0.86" stop-color="#513300"/>
<stop offset="1" stop-color="#1E1F00"/>
</radialGradient>
<radialGradient id="paint1_radial_286_956" cx="0" cy="0" r="1" gradientUnits="userSpaceOnUse" gradientTransform="translate(29.7344 24.1077) rotate(74.6098) scale(32.5408 32.5528)">
<stop stop-color="#FFA600"/>
<stop offset="0.08" stop-color="#F9A100"/>
<stop offset="0.19" stop-color="#E89300"/>
<stop offset="0.31" stop-color="#CD7D00"/>
<stop offset="0.44" stop-color="#A85F00"/>
<stop offset="0.54" stop-color="#874400"/>
<stop offset="0.64" stop-color="#763E00"/>
<stop offset="0.82" stop-color="#4B2F00"/>
<stop offset="1" stop-color="#1E1F00"/>
</radialGradient>
<linearGradient id="paint2_linear_286_956" x1="14.3002" y1="27.6474" x2="87.9504" y2="22.894" gradientUnits="userSpaceOnUse">
<stop/>
<stop offset="1" stop-color="white"/>
</linearGradient>
</defs>
</svg>
