<svg width="14" height="13" viewBox="0 0 14 13" fill="none" xmlns="http://www.w3.org/2000/svg">
<path style="mix-blend-mode:multiply" d="M11.7481 5.2394C12.4541 7.8408 10.9178 10.5292 8.3178 11.2379C5.71778 11.9466 3.03261 10.4113 2.32658 7.80994C1.62055 5.20854 3.15684 2.52011 5.75686 1.81143C8.35689 1.10275 11.042 2.638 11.7481 5.2394Z" fill="url(#paint0_radial_286_1026)"/>
<path style="mix-blend-mode:screen" opacity="0.3" d="M11.7304 5.16297C11.184 5.24012 10.7281 5.30561 10.3659 5.35226C10.716 5.27466 11.167 5.18136 11.7013 5.07327C10.8191 5.23429 10.1974 5.34687 9.82268 5.42223C8.85275 5.51059 9.32531 5.28992 11.5072 4.56061L11.4991 4.53998C8.36607 5.4514 8.57859 5.35631 11.4213 4.38614L11.4244 4.37896C9.48599 5.00108 8.75664 5.20336 9.40725 4.82974C9.70314 4.71985 10.3353 4.46643 11.2593 4.09281C10.5137 4.39063 9.9569 4.60862 9.60857 4.7212C9.93274 4.54672 10.456 4.28837 11.1711 3.94301C10.2188 4.38122 9.63371 4.66379 9.37053 4.79655C8.84828 4.9356 9.32498 4.58844 10.9365 3.60079L10.9213 3.57702C8.30365 5.04773 8.46913 4.92349 10.8349 3.4622L10.8206 3.45592C8.67232 4.71313 8.27018 4.87057 9.85251 3.44247C10.0211 3.31105 10.2064 3.16125 10.4082 2.99305C10.2727 3.08769 10.1548 3.18143 10.04 3.268C10.1476 3.17829 10.2615 3.07423 10.3755 2.97018L10.354 2.96076C9.91626 3.31644 9.57989 3.59676 9.33457 3.80577C8.41211 4.48798 8.58311 4.1951 10.0019 2.65263L9.97327 2.64007C8.05573 4.57993 8.18223 4.44717 9.95088 2.61316L9.93655 2.60688C8.56849 3.97487 8.14198 4.34401 8.7343 3.44024C8.93259 3.20207 9.22329 2.85043 9.60956 2.37814C9.29823 2.73785 9.05015 3.03119 8.85815 3.255C9.02462 3.01145 9.24403 2.70556 9.52266 2.32297L9.50832 2.31669C9.03543 2.94776 8.71644 3.36399 8.55939 3.58601C8.16243 3.98519 8.36221 3.56807 9.21982 2.15613L9.19115 2.14357C7.80859 4.26642 7.89207 4.11482 9.14097 2.12159L9.11946 2.11217C7.82982 4.06189 7.63567 4.17357 8.54373 1.88567L8.50789 1.86998C7.56007 3.99506 7.63236 3.83001 8.48324 1.86774L8.46891 1.86146C7.59966 3.80714 7.46688 3.95425 8.11716 1.76727C8.10282 1.76099 8.08849 1.75471 8.07101 1.75561C7.36035 3.78785 7.21637 3.92151 7.60093 1.67802L7.57225 1.66546C7.53266 1.85339 7.49533 2.01665 7.47146 2.1687C7.14491 3.61652 7.08668 3.57391 7.27736 1.65604L7.24869 1.64349C6.96636 3.82912 6.97678 3.68828 7.21058 1.65246L7.18191 1.6399C6.88536 3.68245 6.75975 3.83271 6.60508 1.66951C6.5876 1.6704 6.5598 1.67534 6.54232 1.67623C6.57161 3.71609 6.54304 3.56674 6.40651 1.69373L6.39217 1.68745C6.49375 3.56225 6.45956 3.71834 6.14922 1.73499L6.12143 1.73993C6.39405 3.80939 6.36637 3.67752 6.08333 1.7489L6.05554 1.75383C6.28928 3.67797 6.22328 3.82867 5.62295 1.86372C5.60547 1.86462 5.59202 1.87583 5.5714 1.8839C6.04495 3.76768 5.98231 3.63761 5.46111 1.92113C5.95766 3.63537 5.96875 3.78562 5.29928 1.97854L5.27865 1.98662C5.93908 3.89237 5.88449 3.78293 5.21678 2.01084L5.18585 2.02295C5.80602 3.82554 5.76555 3.99598 4.74422 2.23151C4.7236 2.23959 4.69983 2.25484 4.67607 2.27009C5.54146 4.00046 5.42097 3.90493 4.45815 2.39702L4.45186 2.41137C5.37658 3.92825 5.43608 4.0655 4.32901 2.47731L4.30524 2.49256C5.42075 4.17853 5.32492 4.08524 4.20704 2.56073L4.18327 2.57598C5.26393 4.12695 5.27501 4.2772 3.88325 2.81235C3.86979 2.82356 3.85319 2.84195 3.83257 2.85003C5.0845 4.32205 4.95145 4.25522 3.65138 3.01015L3.64823 3.01733C4.92768 4.27048 5.02754 4.37408 3.62133 3.03975L3.61504 3.0541C5.07094 4.47006 4.95536 4.40234 3.51772 3.13977L3.50829 3.1613C4.92393 4.4741 4.97312 4.61539 3.24901 3.44118C3.23958 3.46271 3.21582 3.47796 3.20639 3.49949C4.80047 4.73649 4.62391 4.71047 2.99955 3.77667L2.99327 3.79102C4.61536 4.74949 4.74616 4.84099 2.95693 3.83498L2.94436 3.86369C4.78415 4.96882 4.62909 4.95223 2.79134 4.09602L2.77877 4.12472C4.59452 5.03116 4.6984 5.14509 2.63154 4.40236L2.6064 4.45977C4.11402 5.09441 4.35008 5.25767 3.50272 5.06616C3.26076 4.9944 2.91932 4.89618 2.46722 4.75804L2.46093 4.77239C2.67825 4.84191 2.88122 4.90515 3.05552 4.95583C2.87808 4.91232 2.67913 4.8594 2.45553 4.80423L2.45239 4.81141C2.83281 4.91815 3.15588 4.99978 3.39067 5.0684C4.5171 5.44201 4.10034 5.37922 2.37557 5.0258L2.36615 5.04733C4.47938 5.52812 4.62363 5.60841 2.29827 5.29985L2.27627 5.35008C4.54103 5.7775 4.33794 5.85106 2.19747 5.80309L2.19118 5.81744C4.35405 5.89232 4.54721 5.89995 2.19207 5.83493L2.17949 5.86363C4.6726 6.02329 4.48159 6.12779 2.14321 6.39513L2.13064 6.42383C4.50034 6.22153 4.6769 6.24755 2.14299 6.66873C2.1367 6.68308 2.14475 6.70371 2.14161 6.71089C3.89775 6.505 4.32217 6.51128 3.64074 6.76021C3.34623 6.82794 2.86837 6.94366 2.17624 7.11949L2.16995 7.13384C2.56532 7.05041 2.88762 6.97775 3.15119 6.92213C2.89253 7.00556 2.56797 7.10289 2.18782 7.21009C2.7029 7.0679 3.11397 6.94859 3.4076 6.86337C4.67078 6.61264 4.18564 6.86202 2.26458 7.62003L2.27263 7.64066C4.70789 6.72298 4.8984 6.67812 2.30748 7.77567L2.31955 7.80661C4.90948 6.82837 4.71974 7.02752 2.489 8.31703C4.75873 7.03604 4.96948 6.90597 2.49705 8.33766L2.50913 8.36861C5.1756 6.96203 5.04811 7.2141 2.87113 9.08309L2.87918 9.10372C5.11753 7.27016 5.30049 7.14503 2.96245 9.22572L2.97767 9.24949C4.63973 7.87343 5.07066 7.59175 4.52019 8.28292C4.27034 8.54127 3.85452 8.98351 3.25613 9.62804L3.27047 9.63432C3.56067 9.34233 3.81769 9.08712 4.03434 8.86555C3.82888 9.10058 3.59023 9.37238 3.3121 9.69532C3.66379 9.30196 3.9594 8.97813 4.19177 8.72068C5.50462 7.4397 5.21646 7.98062 3.75946 10.1564L3.7738 10.1627C5.57129 7.58009 5.71174 7.37646 3.79619 10.1896L3.81052 10.1959C5.77349 7.48903 5.67016 7.803 4.23423 10.5354C5.70826 7.79403 5.85235 7.52357 4.31396 10.5874L4.3283 10.5937C6.06977 7.45629 6.08967 7.78147 5.19291 11.0579L5.20725 11.0642C6.1699 7.77384 6.25526 7.52043 5.29327 11.1019C6.32331 7.61865 6.3163 7.96626 5.77405 11.2526C6.34007 7.95101 6.39008 7.62224 5.81706 11.2714C6.52865 7.52043 6.61445 7.8317 6.63712 11.4082C6.6723 7.79716 6.6788 7.50921 6.70075 11.4189C6.75225 7.57559 6.82636 7.93306 7.13234 11.4284C6.85013 7.91781 6.83248 7.56797 7.4295 11.4131C6.99708 7.42623 7.18285 7.70431 8.39502 11.2373C7.24472 7.68009 7.16697 7.38945 8.55058 11.1942C7.2467 7.44148 7.41047 7.76979 8.83301 11.0955C7.42795 7.7689 7.30543 7.42444 9.1074 10.9762C7.39294 7.28315 7.62134 7.50292 9.75801 10.6026C7.65767 7.45897 7.50057 7.19345 9.94411 10.4703C7.59288 7.21677 7.82392 7.48902 10.0993 10.3501C7.84455 7.48095 7.6467 7.17192 10.4845 9.99711C7.72616 7.01 8.00661 7.14994 10.9444 9.4544L10.9475 9.44722C8.05728 7.11226 7.83291 6.9028 11.1046 9.2252C7.91805 6.92299 8.20203 7.13289 11.1077 9.21803C8.22265 7.12482 7.95124 6.88621 11.3685 8.75919C7.98229 6.7373 8.26638 6.81041 11.5696 8.29991L11.5728 8.29273C8.74401 6.96828 8.16475 6.67181 10.4337 7.46029C10.7841 7.59664 11.2021 7.75407 11.6878 7.93257C11.3804 7.81506 11.1017 7.71011 10.8477 7.6074C11.1009 7.69262 11.3867 7.80071 11.6972 7.91104C11.1009 7.69262 10.6152 7.51411 10.233 7.37238C8.49775 6.67226 8.83389 6.66553 11.8205 7.29792L11.8268 7.28356C8.18069 6.36234 8.45408 6.36233 11.8598 6.89604L11.863 6.88887C9.68511 6.51662 8.80053 6.35157 9.44905 6.35336C9.74256 6.40493 10.5783 6.50584 11.869 6.66057C10.8638 6.53679 10.1401 6.43364 9.7296 6.35649C10.1581 6.37309 10.8648 6.41748 11.8673 6.48879C10.6636 6.38923 9.90755 6.34035 9.55619 6.32331C8.9284 6.17665 9.60835 6.10667 11.8372 6.03085L11.8435 6.0165C8.30602 5.99814 8.54897 5.9506 11.7904 5.7281L11.7935 5.72093C9.25897 5.85102 8.55085 5.84878 9.98844 5.51193C10.3815 5.45317 10.9486 5.36795 11.6752 5.24999L11.7304 5.16297Z" fill="url(#paint1_radial_286_1026)"/>
<path style="mix-blend-mode:color-dodge" opacity="0.3" d="M3.09076 4.19274C4.3102 2.03267 7.05144 1.27465 9.2089 2.49326C11.3664 3.71186 12.1216 6.45454 10.9021 8.61462C9.68269 10.7747 6.94145 11.5327 4.78399 10.3141C2.62653 9.0955 1.87131 6.35281 3.09076 4.19274Z" fill="url(#paint2_linear_286_1026)"/>
<defs>
<radialGradient id="paint0_radial_286_1026" cx="0" cy="0" r="1" gradientUnits="userSpaceOnUse" gradientTransform="translate(2.76034 -0.682895) rotate(-15.2888) scale(16.59 16.5939)">
<stop stop-color="#0038FF"/>
<stop offset="0.1" stop-color="#0028F9"/>
<stop offset="0.24" stop-color="#0009E8"/>
<stop offset="0.39" stop-color="#0015CD"/>
<stop offset="0.54" stop-color="#0300AD"/>
<stop offset="0.6" stop-color="#0006A1"/>
<stop offset="0.682292" stop-color="#323659"/>
<stop offset="0.729167" stop-color="#0A0082"/>
<stop offset="0.86" stop-color="#060051"/>
<stop offset="1" stop-color="#01001F"/>
</radialGradient>
<radialGradient id="paint1_radial_286_1026" cx="0" cy="0" r="1" gradientUnits="userSpaceOnUse" gradientTransform="translate(6.40275 5.84763) rotate(-11.6477) scale(7.54682 7.5496)">
<stop stop-color="#FFA600"/>
<stop offset="0.08" stop-color="#F9A100"/>
<stop offset="0.19" stop-color="#E89300"/>
<stop offset="0.31" stop-color="#CD7D00"/>
<stop offset="0.44" stop-color="#A85F00"/>
<stop offset="0.54" stop-color="#874400"/>
<stop offset="0.64" stop-color="#763E00"/>
<stop offset="0.82" stop-color="#4B2F00"/>
<stop offset="1" stop-color="#1E1F00"/>
</radialGradient>
<linearGradient id="paint2_linear_286_1026" x1="6.98849" y1="9.47269" x2="7.00337" y2="-7.64367" gradientUnits="userSpaceOnUse">
<stop/>
<stop offset="1" stop-color="white"/>
</linearGradient>
</defs>
</svg>
