<svg width="128" height="128" viewBox="0 0 128 128" fill="none" xmlns="http://www.w3.org/2000/svg">
<path style="mix-blend-mode:multiply" d="M107.907 75.1672C101.81 99.3056 77.2681 113.99 53.1288 107.921C28.9894 101.851 14.3265 77.3324 20.4236 53.194C26.5207 29.0556 51.0625 14.3711 75.2018 20.4406C99.3411 26.5102 114.004 51.0288 107.907 75.1672Z" fill="url(#paint0_radial_102_340)"/>
<path style="mix-blend-mode:screen" opacity="0.3" d="M108.107 74.4729C103.359 72.6195 99.393 71.0824 96.2664 69.8178C99.436 70.7785 103.489 72.0696 108.279 73.6192C100.449 70.9205 94.9342 69.0113 91.5763 67.9209C83.3683 64.2398 88.1717 64.6034 109.038 68.6133L109.067 68.4108C79.7186 61.5593 81.86 61.7562 109.137 66.8198L109.195 66.7763C90.7732 63.0059 83.9859 61.3314 90.9152 61.2701C93.7948 61.7254 100.031 62.5481 109.161 63.7249C101.811 62.746 96.3412 61.9791 93.0274 61.308C96.4271 61.3715 101.809 61.6613 109.13 62.1197C99.4795 61.3347 93.4898 60.9597 90.7699 60.8366C85.9362 59.5909 91.3457 58.955 108.791 58.3026L108.776 58.0423C81.0442 58.0272 82.9389 57.7764 108.601 56.7267L108.514 56.6112C85.5272 57.0032 81.577 56.4494 100.782 52.119C102.734 51.8248 104.904 51.4576 107.29 51.0176C105.771 51.1661 104.397 51.3866 103.081 51.5635C104.354 51.3289 105.742 51.0071 107.131 50.6854L107 50.5122C101.866 51.3931 97.8887 52.1265 94.9673 52.6981C84.4522 54.0124 87.155 52.429 105.562 46.4376L105.388 46.2066C81.1669 53.1387 82.7864 52.6428 105.329 45.8886L105.242 45.7731C88.0346 50.5901 82.9296 51.6301 91.7905 47.0372C94.4653 46.0179 98.3978 44.5037 103.646 42.451C99.5109 43.9368 96.1855 45.1747 93.6263 46.1069C96.0693 44.9002 99.2208 43.4314 103.196 41.6134L103.109 41.4979C96.4448 44.4365 91.992 46.3425 89.7224 47.4185C84.7192 48.8343 88.2163 46.3812 101.514 38.8989L101.34 38.6679C80.5972 49.4957 81.9558 48.6534 101.036 38.2638L100.905 38.0906C81.6943 47.9454 79.6256 47.9652 97.2964 33.66L97.079 33.3714C79.8255 46.1859 81.1548 45.1846 96.8907 33.2417L96.8037 33.1262C80.9952 44.8524 79.2601 45.4353 94.3987 30.7751C94.3117 30.6596 94.2248 30.5442 94.08 30.4722C79.1561 43.6134 77.3918 44.0374 90.6472 27.7189L90.4733 27.4879C89.3035 28.8214 88.2637 29.9666 87.3829 31.0825C78.1977 41.2586 77.9219 40.6519 88.142 26.0767L87.9681 25.8457C75.7977 42.1614 76.5193 41.0749 87.6207 25.7454L87.4468 25.5144C75.8098 40.6139 74.1182 41.2546 82.6692 23.1405C82.5245 23.0686 82.2784 22.9825 82.1336 22.9105C73.1317 39.4639 73.5781 38.1322 80.9611 22.4363L80.8741 22.3208C73.2016 37.8729 72.2196 38.9745 78.7031 21.6033L78.457 21.5172C71.2799 39.4108 71.6542 38.224 78.1097 21.4169L77.8636 21.3308C71.0317 37.8785 69.8179 38.7927 73.8837 20.2564C73.7389 20.1844 73.5799 20.2138 73.3773 20.1854C68.6586 37.4941 68.7433 36.1634 72.3209 19.9856C68.5551 36.0338 67.9639 37.2935 70.7581 19.7149L70.5555 19.6865C67.2417 38.0184 67.2978 36.8903 69.9478 19.6013L69.644 19.5587C66.4732 36.8779 65.3755 38.0667 65.1444 19.2377C64.9418 19.2093 64.6815 19.2244 64.4211 19.2396C63.5513 37.0879 63.014 35.7733 62.092 19.2745L61.9764 19.3616C62.5511 35.76 62.4085 37.1343 60.6889 19.336L60.4285 19.3511C61.7733 37.9747 61.4243 36.7897 59.3292 19.4552L59.0688 19.4703C60.7444 36.8493 60.1532 38.1091 55.5832 20.0144C55.4242 20.0438 55.2073 20.1166 55.0047 20.0882C58.4165 37.6074 57.648 36.4669 52.821 20.5566L52.7632 20.6002C57.3876 36.482 57.7223 37.7683 52.445 20.6589L52.3294 20.7459C57.637 38.7374 57.0133 37.6689 51.158 20.9948L50.9846 21.1254C56.4353 38.1042 56.1915 39.4643 47.63 22.2043C47.4566 22.3349 47.1962 22.35 47.0228 22.4806C54.2532 39.6573 52.9497 38.6483 44.1026 23.7753L43.987 23.8623C52.7042 38.9237 53.3428 40.2526 43.4954 24.0516L43.2642 24.2258C53.0697 41.4536 51.8967 40.6179 40.9803 25.4031L40.7491 25.5772C51.2609 41.0967 51.5813 42.4843 38.3066 27.1454L37.8442 27.4937C47.1065 39.4299 48.2674 41.8131 42.3135 36.4342C40.6907 34.7608 38.387 32.4239 35.3732 29.2645L35.2576 29.3516C36.6921 30.8953 38.0396 32.3235 39.2132 33.5209C37.9818 32.3671 36.62 31.0401 35.0698 29.5834L35.012 29.627C37.591 32.209 39.8221 34.3292 41.4014 35.9448C48.7771 44.0534 45.7066 41.6607 33.4228 31.005L33.2494 31.1356C48.0835 44.5758 48.8812 45.8754 31.5595 32.8609L31.1549 33.1657C47.4505 46.8625 45.4825 46.5349 28.4691 36.4555L28.3535 36.5426C45.4253 46.94 46.9457 47.8761 28.2814 36.6874L28.0502 36.8615C47.3965 49.4369 45.3857 49.4131 25.3512 40.9757L25.12 41.1498C45.1121 50.2526 46.4156 51.2616 24.1104 43.1771C23.9948 43.2642 23.9662 43.4667 23.9084 43.5103C38.9776 49.8057 42.3657 51.7783 35.7529 50.6962C33.0754 49.9077 28.7047 48.6753 22.3368 46.9563L22.2212 47.0434C25.7817 48.1622 28.7052 49.0368 31.0789 49.7827C28.6188 49.2829 25.5653 48.5966 22.0198 47.7381C26.81 48.926 30.6594 49.8272 33.409 50.4709C44.713 54.1729 39.6783 53.9834 20.7812 51.3857L20.7525 51.5882C44.512 55.2291 46.2488 55.7308 20.4217 52.8328L20.3788 53.1366C45.6576 56.9905 43.2283 57.7344 19.4314 58.0128C43.5036 57.9795 45.7891 57.8868 19.4028 58.2153L19.3598 58.5191C47.1945 59.2716 45.0267 60.7234 19.0383 65.9101L19.0097 66.1126C45.3317 61.4891 47.3712 61.3103 19.1275 67.4717L19.1424 67.732C38.7535 64.1816 43.4981 63.8656 35.9368 66.9366C32.7556 67.8849 27.4055 69.5618 19.6697 72.0403L19.7567 72.1558C23.4151 71.1196 26.6398 70.229 29.3872 69.4265C26.669 70.388 23.517 71.4953 19.8156 72.8354C24.428 71.2616 28.2742 69.9934 31.3106 68.9732C47.68 64.6068 42.9107 67.6562 21.3288 78.5729L21.4158 78.6884C47.5809 66.0388 49.6336 65.0356 21.4742 79.0064L21.5611 79.1218C49.621 66.2215 47.3673 68.281 23.4344 83.7738C47.7147 68.3813 50.0993 66.8566 23.8406 84.5537L23.9276 84.6692C52.1542 67.2996 50.8419 70.0074 28.7855 92.3215L28.8725 92.437C51.5223 70.3094 53.357 68.656 29.3943 93.1298C53.4599 69.7548 51.8294 72.5213 32.5821 96.5201C52.0898 72.5061 53.9812 70.0861 32.843 96.8665C55.5578 69.894 54.8389 72.7883 38.825 101.681C55.4609 72.7722 56.8173 70.4837 39.2885 102.056C57.1079 71.3507 56.0857 74.5639 42.7201 104.086C56.3461 74.5487 57.7883 71.6526 45.1813 105.309C59.7551 71.2571 59.9913 74.3369 53.7499 108.266C60.599 74.4221 61.2893 71.7303 55.1972 108.624C61.6956 72.5102 61.5271 75.8948 57.9176 109.109C61.6719 75.9667 62.2455 72.639 60.6667 109.391C63.5898 71.898 64.4331 74.7014 67.596 109.33C64.9246 74.5121 64.8624 71.6633 69.6933 109.107C65.4999 72.269 66.1269 75.5069 71.4867 108.843C66.3294 75.5353 66.1362 72.1517 76.1867 107.746C67.5091 71.2081 69.133 73.6046 82.3459 105.459L82.4037 105.416C69.7116 73.5308 68.8539 70.8286 84.6733 104.34C69.4479 71.3766 70.7833 74.3524 84.7311 104.296C70.9859 74.3808 69.8817 71.2309 88.9081 101.783C70.8059 70.1728 72.7617 72.0478 92.6073 98.9971L92.6651 98.9536C75.8917 75.4817 72.5713 70.4719 87.2656 87.0942C89.4685 89.7785 92.1207 92.9388 95.222 96.5752C93.28 94.2374 91.5119 92.1305 89.932 90.1533C91.584 91.9857 93.3956 94.1503 95.3955 96.4446C91.584 91.9857 88.4826 88.3493 86.0479 85.4776C75.2499 71.9835 77.9862 73.4516 99.1645 92.0673L99.2801 91.9803C74.101 68.0528 76.3018 69.2908 101.301 89.0103L101.359 88.9668C85.5129 76.1076 79.1395 70.7731 84.3519 73.7244C86.4811 75.4688 92.7521 80.0659 102.441 87.1562C94.91 81.6078 89.5511 77.5 86.5962 75.0202C89.97 77.094 95.4583 80.6519 103.206 85.7659C93.9665 79.5133 88.1017 75.696 85.3505 73.9677C80.961 69.9441 86.7515 72.46 105.037 81.9432L105.153 81.8561C76.7593 65.6886 78.9303 66.4061 106.031 79.2941L106.089 79.2505C85.0967 68.8198 79.4065 65.595 92.5044 69.3936C95.935 70.7008 100.885 72.5826 107.269 74.9234L108.107 74.4729Z" fill="url(#paint1_radial_102_340)"/>
<path style="mix-blend-mode:screen" d="M81.7937 26.9901C69.8919 48.7139 68.2185 51.7842 84.1976 28.6181C69.3772 52.7212 72.2094 50.588 90.4983 33.7359C72.5138 50.9922 70.0438 53.486 92.4696 36.2327C71 54.3946 74.4405 52.7082 95.7895 40.8809C74.5566 52.9826 71.3336 54.9578 97.4442 44.5211C71.7266 56.5621 75.4005 56.1476 99.7985 51.6158C75.5315 56.6824 71.9451 57.5739 100.253 55.7074C72.1929 58.7446 76.0704 59.0817 100.492 60.2334C75.9697 59.4291 72.1505 59.41 99.7473 65.4995C71.5163 60.9735 74.7592 62.5126 98.1366 71.7802C74.6298 63.0625 71.2141 62.0156 95.6705 76.8049C70.7528 63.087 73.6494 65.2488 93.9679 79.7162C73.4474 65.5819 70.3053 63.6955 89.7078 84.6443C69.048 64.552 70.8315 67.2808 86.0818 88.0088C70.5139 67.701 68.268 65.3205 80.2715 91.4803C67.3432 66.0171 68.6208 69.0364 78.4792 92.4683C68.3318 69.2541 66.7795 66.3512 72.0012 94.4519C65.4198 66.4704 65.656 69.5502 68.8052 95.1399C65.1787 69.6382 64.4075 66.6899 61.4564 95.2456C63.2939 66.8953 62.908 69.9912 59.7636 95.1632C62.6041 69.9486 62.6284 66.8536 53.4107 93.7045C61.4559 66.3794 60.3026 69.0579 50.8344 92.9302C59.7527 68.9291 60.4716 66.0349 44.0587 89.3467C59.1835 65.6477 57.2921 68.0678 42.017 88.0793C56.9591 67.8662 58.6187 65.2587 37.8158 84.1854C57.8652 64.3785 55.4954 66.1634 35.8308 82.1514C55.1475 65.7015 57.155 63.5559 32.0606 76.304C56.271 62.5025 53.4228 63.6524 30.5518 73.4589C53.2632 63.3201 55.9952 61.8958 29.1712 69.3408C55.8779 60.8982 52.9274 61.3108 28.2838 66.118C52.8542 60.7325 55.6594 59.8865 27.7543 60.3635C55.4838 58.5709 52.4017 58.0871 27.7477 56.0249C52.4447 57.7833 55.4827 57.8478 28.2492 52.842C55.8284 56.8635 53.1361 55.8147 29.1828 48.4286C53.3089 55.3225 56.2176 55.9369 30.941 44.0276C56.664 54.6052 54.2453 52.7169 33.5662 38.9736C54.5051 52.3403 57.0681 53.9389 34.9666 37.1044C57.8916 53.2282 56.1956 50.9765 38.8656 32.5388C56.5567 50.614 58.6573 52.5609 41.4375 30.4207C59.5964 51.7631 58.4927 48.9748 46.6978 26.8205C58.7674 48.8584 60.2614 51.4432 48.0712 26.2385C61.2737 51.2237 60.8933 48.4335 54.5773 23.6908C61.3706 48.3455 62.2282 51.0477 56.9636 23.2508C63.3562 50.741 63.6842 47.6887 63.5302 22.4673C63.9881 47.7313 64.0217 50.7827 65.3242 22.5639C65.2949 50.9096 66.4333 47.9708 73.0363 23.5419C66.9254 48.1431 66.2357 51.1964 75.5982 24.4174C67.5524 51.381 69.4576 48.4981 81.6924 26.9759L81.7937 26.9901Z" fill="url(#paint2_radial_102_340)"/>
<path style="mix-blend-mode:color-dodge" opacity="0.3" d="M42.9505 27.5395C62.5491 15.6733 88.0486 21.9852 99.8975 41.5651C111.746 61.145 105.405 86.6435 85.8069 98.5096C66.2084 110.376 40.7088 104.064 28.86 84.484C17.0111 64.9041 23.352 39.4056 42.9505 27.5395Z" fill="url(#paint3_linear_102_340)"/>
<defs>
<radialGradient id="paint0_radial_102_340" cx="0" cy="0" r="1" gradientUnits="userSpaceOnUse" gradientTransform="translate(62.3757 -13.2085) rotate(14.0715) scale(153.231 153.266)">
<stop stop-color="#FF9D00"/>
<stop offset="0.1" stop-color="#F99800"/>
<stop offset="0.24" stop-color="#E88A00"/>
<stop offset="0.39" stop-color="#CD7300"/>
<stop offset="0.54" stop-color="#AD5700"/>
<stop offset="0.6" stop-color="#A15200"/>
<stop offset="0.72" stop-color="#824600"/>
<stop offset="0.86" stop-color="#513300"/>
<stop offset="1" stop-color="#1E1F00"/>
</radialGradient>
<radialGradient id="paint1_radial_102_340" cx="0" cy="0" r="1" gradientUnits="userSpaceOnUse" gradientTransform="translate(62.1197 55.858) rotate(17.7126) scale(69.7047 69.7304)">
<stop stop-color="#FFA600"/>
<stop offset="0.08" stop-color="#F9A100"/>
<stop offset="0.19" stop-color="#E89300"/>
<stop offset="0.31" stop-color="#CD7D00"/>
<stop offset="0.44" stop-color="#A85F00"/>
<stop offset="0.54" stop-color="#874400"/>
<stop offset="0.64" stop-color="#763E00"/>
<stop offset="0.82" stop-color="#4B2F00"/>
<stop offset="1" stop-color="#1E1F00"/>
</radialGradient>
<radialGradient id="paint2_radial_102_340" cx="0" cy="0" r="1" gradientUnits="userSpaceOnUse" gradientTransform="translate(-7.27349 33.6069) rotate(-56.7273) scale(123.867 123.761)">
<stop/>
<stop offset="0.04" stop-color="#060300"/>
<stop offset="0.5" stop-color="#4B2500"/>
<stop offset="0.83" stop-color="#763B00"/>
<stop offset="1" stop-color="#874400"/>
</radialGradient>
<linearGradient id="paint3_linear_102_340" x1="50.4165" y1="87.6939" x2="128.049" y2="-50.0245" gradientUnits="userSpaceOnUse">
<stop/>
<stop offset="1" stop-color="white"/>
</linearGradient>
</defs>
</svg>
