<svg width="42" height="42" viewBox="0 0 42 42" fill="none" xmlns="http://www.w3.org/2000/svg">
<path style="mix-blend-mode:multiply" d="M31.7859 36.8102C22.9681 42.8419 10.9035 40.5935 4.86367 31.7843C-1.17612 22.9751 1.07267 10.924 9.89048 4.89232C18.7083 -1.13934 30.7729 1.10907 36.8127 9.91826C42.8525 18.7275 40.6037 30.7785 31.7859 36.8102Z" fill="url(#paint0_radial_286_771)"/>
<path style="mix-blend-mode:screen" opacity="0.3" d="M32.0477 36.6439C31.0471 34.6991 30.2082 33.0781 29.5617 31.7832C30.3083 32.9925 31.245 34.559 32.3456 36.4182C30.5937 33.3259 29.3624 31.1454 28.5921 29.8408C26.9978 26.3253 28.4395 27.8067 34.0118 35.0238L34.0785 34.9668C26.5854 24.4264 27.2182 25.098 34.5529 34.475L34.5839 34.4774C29.73 28.0319 28.0227 25.5653 30.2688 27.5139C31.0655 28.4783 32.8376 30.5144 35.4399 33.4864C33.3538 31.0836 31.8125 29.2833 30.9373 28.1261C32.0127 29.1123 33.6614 30.7343 35.8858 32.9612C33.0049 29.9675 31.185 28.1454 30.3451 27.3332C29.1443 25.5595 31.0648 26.8916 36.8612 31.6374L36.9303 31.5494C28.0151 23.6669 28.6957 24.1245 37.2475 31.0764L37.2524 31.0146C29.7478 24.611 28.6347 23.3108 36.0416 27.3734C36.7532 27.8334 37.5553 28.3316 38.4477 28.8679C37.9171 28.4843 37.4125 28.1649 36.9389 27.8479C37.4149 28.134 37.9529 28.4248 38.4908 28.7157L38.498 28.6229C36.5964 27.4479 35.1089 26.554 34.007 25.908C30.2517 23.3437 31.5707 23.6022 39.1928 26.9039L39.2025 26.7802C29.4432 22.1295 30.105 22.43 39.274 26.6613L39.2789 26.5995C32.376 23.2607 30.4387 22.145 34.5933 23.1848C35.7431 23.6168 37.438 24.2469 39.7091 25.0775C37.9571 24.3807 36.5359 23.8343 35.448 23.4071C36.5765 23.713 38.0073 24.1358 39.8024 24.6803L39.8072 24.6185C36.829 23.6705 34.8554 23.0186 33.8198 22.72C31.8084 21.7541 33.6301 21.9585 40.0325 23.3294L40.0421 23.2057C30.2948 20.796 30.971 20.911 40.059 22.9893L40.0662 22.8965C31.088 20.609 30.4171 20.0278 40.1641 20.4464L40.1761 20.2918C30.9868 19.5122 31.6988 19.5678 40.1524 20.1966L40.1572 20.1347C31.7418 19.4156 31.0182 19.1102 40.0516 18.6954C40.0564 18.6335 40.0612 18.5717 40.0351 18.5074C31.5023 18.4947 30.8144 18.1299 39.7132 16.6467L39.7228 16.5231C38.9678 16.6197 38.308 16.6926 37.7078 16.8013C31.8629 17.4651 31.9466 17.1916 39.3739 15.4069L39.3836 15.2832C30.8345 17.0737 31.3753 16.9292 39.3003 15.1523L39.31 15.0286C31.278 16.5794 30.5519 16.305 38.4477 12.908C38.4216 12.8437 38.3669 12.7461 38.3408 12.6819C30.7433 15.4488 31.2652 15.1473 38.0984 12.1963L38.1032 12.1344C31.2178 14.9569 30.589 15.0323 37.6088 11.287L37.5541 11.1893C30.1628 14.9057 30.6204 14.6303 37.4709 11.0584L37.4162 10.9608C30.5183 14.3423 29.8682 14.2916 36.4413 9.48472C36.4152 9.42045 36.3557 9.3847 36.2986 9.31802C29.8642 13.5446 30.2695 13.1407 36.0156 8.95371C30.2457 13.0455 29.6978 13.2827 35.5899 8.4227L35.5328 8.35602C29.2595 13.3108 29.5981 12.9639 35.3615 8.15599L35.2759 8.05597C29.3364 12.7256 28.6456 12.7962 33.9199 6.67457C33.8628 6.6079 33.7748 6.5388 33.6867 6.46971C28.3369 11.9632 28.5376 11.3877 32.9277 5.81935L32.8658 5.81452C28.3924 11.252 27.9562 11.6535 32.4589 5.44054L32.3709 5.37145C27.5132 11.7433 27.7375 11.2631 31.9878 5.09266L31.8997 5.02356C27.5019 11.0891 26.9539 11.3264 30.6241 4.20844C30.5646 4.17268 30.4741 4.13451 30.4171 4.06783C26.5379 10.6717 26.6147 10.0865 29.5817 3.59818L29.5507 3.59576C26.5266 10.0175 26.2689 10.5262 29.4317 3.52425L29.3698 3.51941C25.9662 10.8137 26.0691 10.2928 28.9223 3.26671L28.8295 3.25946C25.7595 10.2687 25.2948 10.6368 27.4441 2.65354C27.3512 2.6463 27.2631 2.5772 27.1703 2.56995C24.6165 10.1484 24.4839 9.45356 25.8633 2.15682L25.8014 2.15198C24.3267 9.4724 24.1546 10.0812 25.5895 2.07323L25.4657 2.06356C23.7256 10.3899 23.5857 9.78789 24.3966 1.79345L24.2728 1.78378C23.2452 9.76131 22.9541 10.2986 23.0418 1.59436L22.7941 1.57503C22.3825 8.04509 22.0789 9.14138 21.6919 5.72008C21.6454 4.72089 21.5682 3.31488 21.4964 1.44262L21.4344 1.43778C21.4573 2.34179 21.485 3.18394 21.5224 3.90241C21.4541 3.18152 21.393 2.36788 21.3082 1.45904L21.2773 1.45662C21.3733 3.01967 21.4886 4.33533 21.5376 5.30359C21.6065 10.0067 21.2986 8.36492 20.3747 1.44839L20.2818 1.44114C21.235 9.97773 21.1224 10.6223 19.2482 1.51601L19.0315 1.4991C20.3819 10.5334 19.842 9.86899 17.2331 1.79427L17.1712 1.78944C19.7085 9.98301 19.9316 10.716 17.1069 1.81553L16.9831 1.80587C19.6332 11.346 18.9932 10.7672 14.9463 2.36243L14.8225 2.35276C18.6668 10.9595 18.7994 11.6543 13.9219 2.71802C13.86 2.71319 13.7932 2.7702 13.7623 2.76778C16.8207 9.07315 17.3501 10.67 15.5306 8.44357C14.8934 7.42939 13.8377 5.79143 12.2779 3.42969L12.216 3.42486C13.0433 4.7961 13.7352 5.90788 14.2867 6.82204C13.6375 5.96247 12.8504 4.87437 11.9539 3.59107C13.1571 5.33387 14.1392 6.71719 14.8407 7.70528C17.4248 12.107 15.8593 10.6159 10.5194 4.41242L10.4526 4.46943C17.0601 12.3896 17.4762 13.0443 9.99268 4.77574L9.89257 4.86126C16.9282 13.2815 15.9356 12.8307 8.20273 6.16047C15.9545 12.9877 16.7159 13.6072 8.136 6.21747L8.03588 6.30299C16.7746 14.4518 15.665 14.3029 5.83301 8.5888L5.76626 8.64582C15.5455 14.6358 16.2523 15.1576 5.41807 9.11641L5.34891 9.20435C12.665 13.6332 14.2807 14.8793 10.9764 13.7192C9.6839 13.1205 7.48681 12.1401 4.29469 10.7398L4.28987 10.8017C5.76089 11.5076 7.051 12.1372 8.16261 12.6595C7.01522 12.1966 5.68691 11.6574 4.11577 11.037C6.04632 11.841 7.64359 12.5257 8.90998 13.0601C15.4152 16.3056 13.015 15.9316 2.97266 13.3122L2.96784 13.374C14.9765 16.7381 15.9217 16.9985 2.89628 13.4929L2.89145 13.5547C15.5808 17.3763 14.2709 17.3985 2.1725 15.583C14.3542 17.5295 15.5542 17.7165 2.08162 15.9493L2.0768 16.0111C16.0893 18.4427 14.898 18.9408 1.4655 19.8523L1.46067 19.9141C15.0311 19.2312 16.0909 19.2206 1.43171 20.2852C15.8118 19.6032 14.5016 20.0299 1.49392 22.2811C14.5896 20.0989 15.8854 19.8579 1.47944 22.4667C16.447 20.2439 15.3937 20.9706 2.03571 25.7145C15.5983 21.1421 16.6846 20.7914 2.07831 25.9668C16.5318 21.1528 15.2903 21.8959 2.6053 27.5945C15.3783 21.965 16.6649 21.4432 3.04949 28.687C17.4098 21.8746 16.6109 22.9323 4.96544 32.0721C16.7822 23.1323 17.7688 22.4627 5.32926 32.5983C17.6779 22.8289 16.6623 23.8696 6.06655 33.5269C16.6885 23.9339 17.8183 23.0265 6.87059 34.3986C18.4611 23.17 17.936 24.3113 9.11668 36.3472C18.1479 24.39 18.9371 23.4561 9.8544 36.8715C18.9701 23.832 18.2519 25.0515 10.5065 37.2957C18.309 25.1182 19.208 23.975 12.3297 38.278C19.9176 24.0615 19.7592 25.2936 14.9602 39.2922L14.9911 39.2946C19.9662 25.4342 20.458 24.3215 16.0268 39.5933C20.4933 24.6664 20.0776 26.0029 16.0577 39.5957C20.1346 26.0695 20.6742 24.7428 18.1149 39.974C21.2721 24.665 21.3685 25.8236 20.0962 40.1287L20.1271 40.1311C21.3998 27.8172 21.7549 25.2627 21.7593 34.783C21.7053 36.2721 21.6606 38.0419 21.6251 40.0925C21.6646 38.7889 21.6944 37.609 21.7479 36.5243C21.7587 37.5829 21.7265 38.7937 21.718 40.0997C21.7587 37.5829 21.7942 35.5324 21.8268 33.9171C22.187 26.5097 22.6501 27.7592 24.1736 39.7625L24.2356 39.7674C22.9341 24.9192 23.2903 25.9425 25.7292 39.3862L25.7601 39.3886C24.3164 30.7515 23.7819 27.2253 24.62 29.6552C24.8093 30.8211 25.5204 34.081 26.6225 39.1137C25.7764 35.1899 25.2197 32.3464 24.9737 30.7095C25.4698 32.3348 26.2243 35.0382 27.2634 38.8837C26.0679 34.2482 25.266 31.3545 24.8721 30.0171C24.6032 27.4761 25.7509 29.9301 28.9383 38.1745L29.0002 38.1793C24.4606 24.9139 24.9551 25.7614 30.0105 37.6048L30.0415 37.6072C26.2528 28.2893 25.3386 25.6358 28.4723 30.5781C29.2043 31.973 30.262 33.9845 31.6501 36.5506L32.0477 36.6439Z" fill="url(#paint1_radial_286_771)"/>
<path style="mix-blend-mode:color-dodge" opacity="0.3" d="M24.4237 3.04008C34.0979 4.79078 40.5063 14.0643 38.7553 23.7276C37.0044 33.3909 27.7218 39.7907 18.0477 38.04C8.37351 36.2893 1.96507 27.0158 3.71603 17.3525C5.46698 7.68921 14.7496 1.28938 24.4237 3.04008Z" fill="url(#paint2_linear_286_771)"/>
<defs>
<radialGradient id="paint0_radial_286_771" cx="0" cy="0" r="1" gradientUnits="userSpaceOnUse" gradientTransform="translate(42.2459 -4.54766) rotate(55.5223) scale(65.7529 65.7683)">
<stop stop-color="#FF9D00"/>
<stop offset="0.1" stop-color="#F99800"/>
<stop offset="0.24" stop-color="#E88A00"/>
<stop offset="0.39" stop-color="#CD7300"/>
<stop offset="0.54" stop-color="#AD5700"/>
<stop offset="0.6" stop-color="#A15200"/>
<stop offset="0.72" stop-color="#824600"/>
<stop offset="0.86" stop-color="#513300"/>
<stop offset="1" stop-color="#1E1F00"/>
</radialGradient>
<radialGradient id="paint1_radial_286_771" cx="0" cy="0" r="1" gradientUnits="userSpaceOnUse" gradientTransform="translate(22.5446 17.5935) rotate(59.1634) scale(29.9111 29.9221)">
<stop stop-color="#FFA600"/>
<stop offset="0.08" stop-color="#F9A100"/>
<stop offset="0.19" stop-color="#E89300"/>
<stop offset="0.31" stop-color="#CD7D00"/>
<stop offset="0.44" stop-color="#A85F00"/>
<stop offset="0.54" stop-color="#874400"/>
<stop offset="0.64" stop-color="#763E00"/>
<stop offset="0.82" stop-color="#4B2F00"/>
<stop offset="1" stop-color="#1E1F00"/>
</radialGradient>
<linearGradient id="paint2_linear_286_771" x1="9.73741" y1="24.5083" x2="73.8267" y2="2.26642" gradientUnits="userSpaceOnUse">
<stop/>
<stop offset="1" stop-color="white"/>
</linearGradient>
</defs>
</svg>
