<svg width="167" height="166" viewBox="0 0 167 166" fill="none" xmlns="http://www.w3.org/2000/svg">
<mask id="mask0_102_282" style="mask-type:alpha" maskUnits="userSpaceOnUse" x="9" y="8" width="150" height="150">
<path style="mix-blend-mode:overlay" d="M157.988 91.4822C162.654 50.5616 133.227 13.6045 92.2613 8.93624C51.2951 4.26793 14.3026 33.6562 9.63624 74.5768C4.96986 115.497 34.3967 152.454 75.3628 157.123C116.329 161.791 153.322 132.403 157.988 91.4822Z" fill="url(#paint0_radial_102_282)"/>
</mask>
<g mask="url(#mask0_102_282)">
<path style="mix-blend-mode:multiply" d="M59.1281 152.914C58.1858 157.766 56.8188 161.74 54.4607 165.778C56.2169 160.427 55.4415 155.018 53.0548 150.399C51.5281 147.395 49.3595 145.396 47.3691 142.918C44.0284 138.787 43.6994 133.977 44.0125 128.161C44.0235 128.021 43.8134 128.004 43.8025 128.144C43.4312 132.9 43.1245 137.732 45.5823 141.442C47.7227 144.705 50.7207 146.909 52.5537 150.5C51.5908 149.299 50.2877 148.846 48.1544 149.102C46.6622 149.267 45.7937 150.465 44.2906 150.77C41.4243 151.391 39.6058 149.419 38.0782 147.33C35.9159 144.346 34.8804 140.466 34.7015 136.441C34.9276 141.666 36.6242 147.005 40.2677 149.964C41.7908 151.208 42.6365 151.204 44.4142 150.991C46.402 150.794 48.8546 149.156 50.8524 149.734C51.8163 150.021 52.8701 151.862 53.6284 152.977C53.6284 152.977 53.6984 152.982 53.7685 152.988C55.2777 157.116 55.4294 161.491 54.2179 166.181C53.565 167.327 52.7665 168.531 51.898 169.73L51.828 169.724C51.1269 170.584 50.5658 171.455 49.9401 172.251C49.7782 172.52 49.9074 172.671 50.112 172.757C49.1144 173.805 48.1868 174.858 47.512 176.283C47.3501 176.552 47.6729 176.929 47.9048 176.666C51.2159 173.054 54.6288 169.943 56.5831 165.662C58.4338 162.711 59.5633 159.069 60.3374 155.471C61.5405 153.594 62.8455 152.219 64.9797 151.048C66.9685 149.937 69.0536 149.396 70.9888 148.069C75.3764 145.104 78.7312 140.933 81.3758 135.932C81.3867 135.793 81.3221 135.717 81.2412 135.852C76.455 143.922 70.6341 147.197 63.3156 150.707C62.4372 151.131 61.6934 151.636 61.1596 152.157C61.2633 150.828 61.367 149.5 61.5408 148.176C61.9801 145.255 62.3549 142.259 62.9343 139.348C64.3876 135.169 67.003 132.348 70.7496 129.474C74.1943 126.858 77.5198 124.865 80.2116 121.065C80.2926 120.93 80.0989 120.704 80.018 120.838C75.4874 126.536 68.5418 128.879 64.3394 134.884C64.1021 135.217 63.8593 135.621 63.692 135.959C65.813 126.837 69.6189 118.69 78.6561 114.821C78.8771 114.698 78.8343 114.343 78.6188 114.396C70.8812 116.959 65.654 124.361 62.871 132.94C61.1093 138.361 60.6189 143.741 59.8321 149.309C59.7775 150.009 59.5883 150.627 59.5392 151.257C59.3493 147.372 57.6508 143.862 56.4807 139.9C55.9761 138.242 55.6116 136.595 55.4625 134.895C55.5736 131.667 55.9757 128.32 58.2783 125.897C59.8097 124.327 61.2646 123.737 63.0379 122.679C65.625 121.122 67.6257 118.956 69.1208 116.047C69.2826 115.778 68.9489 115.541 68.7871 115.81C66.9091 119.111 64.8439 121.202 61.8312 122.796C60.5054 123.537 59.1204 124.133 57.9719 125.31C56.2895 127.008 55.5547 129.202 55.3045 131.505C55.4496 121.524 61.0288 112.319 68.4638 105.511C68.5393 105.447 68.4802 105.301 68.3347 105.36C62.0701 110.712 56.9238 117.98 55.2501 126.786C54.5188 130.74 54.4932 134.679 55.4051 138.338C56.6388 143.29 59.3384 147.512 59.36 152.65L59.1281 152.914ZM121.035 163.023C122.178 167.335 122.108 171.833 119.609 176.774C119.598 176.914 119.733 176.995 119.814 176.861C122.68 171.737 122.642 166.808 121.251 162.055C120.892 160.338 120.312 158.745 120.239 156.98C120.107 154.155 121.413 151.865 122.111 149.245C122.83 146.346 122.175 143.902 121.192 141.152C121.198 141.082 121.052 141.141 121.052 141.141C122.25 144.752 122.317 147.502 121.182 151.213C120.804 152.45 120.296 153.537 120.058 154.785C119.7 156.657 120.135 158.309 120.57 159.961C119.173 156.193 116.995 152.505 114.888 148.822C112.76 143.589 115.206 138.432 115.971 133.144C117.23 128.739 120.492 125.757 122.828 121.999C124.712 118.627 128.467 117.443 130.157 113.845C131.68 110.586 131.77 106.723 131.127 103.225C131.138 103.085 130.922 103.139 130.917 103.209C131.952 108.004 130.993 113.066 127.606 116.742C126.22 118.253 124.587 119.321 123.406 120.918C123.73 120.38 123.983 119.837 124.237 119.294C126.143 114.728 125.039 109.927 123.778 105.325C123.783 105.255 123.568 105.309 123.638 105.314C124.42 108.824 125.391 112.629 124.827 116.244C124.188 119.923 122.079 122.574 119.959 125.363C118.233 127.621 116.874 129.696 116.187 132.176C116.203 131.966 116.22 131.756 116.236 131.547C116.504 128.119 116.066 124.708 115.202 121.333C113.517 114.939 112.111 110.396 113.895 103.78C114.512 101.295 115.068 99.5791 114.775 97.023C114.786 96.8831 114.506 96.8613 114.565 97.0066C114.409 101.709 112.04 105.887 112.094 110.606C112.202 115.54 114.864 120.251 115.613 125.095C116.677 132.214 112.074 140.651 114.221 147.433C112.42 144.337 110.759 141.252 109.599 138.065C106.709 129.959 110.596 121.677 107.41 113.758C104.998 107.659 99.9987 103.117 95.2686 98.7373C95.2686 98.7373 95.1986 98.7318 95.2631 98.8072C102.286 105.407 109.006 112.265 108.554 122.573C108.45 123.902 108.352 125.161 108.259 126.35C108.342 124.386 107.557 122.707 106.045 121.322C104.398 119.856 102.789 118.816 101.374 117.087C100.217 115.66 99.2816 114.109 98.2705 112.623C98.206 112.547 98.0605 112.606 98.1196 112.752C99.2916 114.884 100.604 117.027 102.299 118.778C104.973 121.52 108.386 122.912 108.177 127.399C108.177 127.399 108.204 127.049 108.215 126.91C107.948 130.337 107.702 133.484 108.818 137.23C110.321 142.344 113.333 147.082 116.059 151.869C111.981 147.258 106.312 144.071 103.231 138.413C99.3554 131.214 98.8147 122.798 92.8743 116.775C92.8098 116.7 92.5943 116.754 92.7234 116.904C98.7547 123.568 99.117 132.462 103.682 139.855C102.908 138.95 102.036 138.39 100.878 137.877C97.8256 136.372 96.3889 134.923 94.7868 131.983C93.0611 128.823 91.3398 126.507 87.9208 125.185C87.7807 125.174 87.7698 125.314 87.9099 125.325C92.3246 127.428 93.3765 131.099 95.9797 134.75C98.0774 137.658 101.788 137.948 104.059 140.447C107.399 145.493 112.944 148.459 116.672 153.043C118.467 156.208 120.053 159.358 120.992 162.668C115.489 155.554 106.331 151.954 102.715 143.228C102.72 143.158 102.505 143.211 102.569 143.287C105.673 152.254 115.468 155.834 121.04 162.953L121.035 163.023ZM18.724 91.1439C18.724 91.1439 19.0532 90.5363 19.2151 90.2674L19.2041 90.4073C19.2041 90.4073 18.8158 90.8696 18.7295 91.074L18.724 91.1439ZM27.7177 82.4167C29.1573 81.1218 30.2686 79.5197 30.8415 77.5941C31.3117 76.0828 31.2218 74.5277 31.2019 72.978C31.2047 70.2339 31.8159 67.8188 33.2028 65.3938C33.2028 65.3938 33.2137 65.254 33.1327 65.3884C31.5468 67.6571 30.9574 69.7924 30.96 72.4666C30.918 76.615 30.3704 80.0202 27.3404 82.7391C26.1545 83.4909 24.8987 84.2373 23.6965 85.199C21.7505 86.6655 20.3427 88.4556 19.2096 90.3374C21.2921 87.1223 24.7095 84.8559 27.9541 82.9981C36.0602 78.4237 43.5714 76.0546 48.6004 67.5809C48.6868 67.3765 48.4822 67.2902 48.3313 67.4191C42.7421 75.8491 35.1827 77.933 27.6422 82.4812L27.7177 82.4167ZM-6.36074 106.566C-0.25112 110.421 4.7857 109.97 9.4207 107.446C14.7103 107.367 15.3755 115.089 20.4914 116.333C23.744 117.079 26.9822 116.206 30.204 115.543C31.0442 115.608 31.7171 116.013 32.6319 116.928C33.4175 117.693 33.7939 118.286 34.5095 119.045C35.0315 119.579 35.4834 120.106 36.1617 120.441C38.3904 121.67 41.1976 120.904 43.4982 120.31L43.5092 120.17C40.3519 120.909 37.4539 121.034 34.9679 118.588C34.2468 117.899 33.9031 116.887 33.1066 116.262C32.5146 115.723 31.8308 115.458 31.1361 115.334C33.3503 114.944 35.5482 114.764 37.8261 115.364C37.8961 115.369 37.9015 115.299 37.837 115.224C34.8108 114.284 31.7836 114.259 28.6427 114.787C26.504 115.113 24.3161 116.068 22.1455 115.899C15.7038 115.396 16.8061 112.104 14.5847 108.975C13.4445 107.338 12.1578 106.675 10.7575 106.566C11.2049 106.249 11.6523 105.932 12.0997 105.615C18.4415 103.788 24.131 107.61 30.4637 104.093C31.4013 103.814 32.3443 103.466 33.3464 103.263C36.2881 102.577 37.6111 104.581 39.6888 105.939C42.0358 107.459 45.0639 106.57 47.4618 105.631C47.7528 105.513 47.5055 105.071 47.29 105.125C46.0669 105.452 44.391 106.165 43.0661 105.992C41.3157 105.855 39.9272 104.691 38.6678 103.678C37.9358 103.128 37.4839 102.6 36.5145 102.384C35.2006 102.07 33.8429 102.316 32.5389 102.777C33.9512 101.832 35.3043 100.741 36.7165 99.7961C42.2309 95.9342 47.2623 95.5529 53.6494 96.7552C53.8595 96.7715 54.0268 96.4328 53.7522 96.341C46.062 94.6852 41.2561 95.7877 34.8579 100.144C32.9227 101.47 31.0467 102.942 28.9234 103.973C28.7133 103.956 28.5623 104.085 28.3468 104.139C28.3468 104.139 28.2713 104.203 28.2659 104.273C27.7539 104.515 27.2474 104.686 26.6709 104.852C23.3627 105.72 20.703 104.598 17.493 104.206C16.0927 104.097 15.0478 103.945 13.9812 104.073C15.5662 102.719 17.1622 101.225 18.769 99.5914C22.2847 96.0661 25.6112 93.1592 30.7453 92.3637C33.8807 91.9048 37.0797 92.436 40.2151 91.977C46.1358 91.0319 49.136 85.9885 54.1375 83.2828C54.283 83.2238 54.1593 83.003 54.0138 83.062C47.6328 86.2934 44.3363 91.5247 36.4287 91.7518C33.6061 91.813 31.0045 91.7506 28.4183 92.3932C31.221 90.7824 32.3824 87.6362 34.5449 85.2014C38.0124 81.3908 43.6119 83.6574 48.015 81.3975C48.236 81.274 48.0478 80.9779 47.8323 81.0314C44.6314 82.3296 42.0734 81.7078 38.798 82.1558C37.5913 82.2727 36.5783 82.6158 35.608 83.3141C32.1042 85.7849 31.2428 90.5026 27.2062 92.58C27.2062 92.58 27.2062 92.58 27.2007 92.65C26.5487 92.8805 25.8967 93.1111 25.2338 93.4816C21.1217 95.6234 18.0907 99.257 14.6133 102.293C13.7075 103.067 12.8827 103.706 11.9879 104.34C13.7403 102.647 15.0889 100.712 16.0557 98.2538C17.0169 95.866 17.3426 93.4989 18.5085 91.1974C16.1012 95.8648 14.9216 101.05 11.023 104.968C5.62235 108.276 0.553737 108.232 -6.25252 106.082C-6.46257 106.066 -6.54897 106.27 -6.41439 106.351L-6.36074 106.566ZM68.138 20.3416C65.1631 11.5246 57.6046 12.6938 50.3699 13.3253C50.1708 13.169 49.9498 13.2925 49.8043 13.3515C45.2686 13.7011 40.9001 13.7119 37.8167 10.7973C35.2398 7.71111 32.7548 4.35062 33.8661 2.74856C34.0279 2.47972 33.6297 2.16716 33.4733 2.36605C32.2492 3.60748 33.083 4.65771 33.8086 6.19206C34.3514 7.3603 34.9752 8.39413 35.6689 9.43343C35.6689 9.43343 35.6635 9.50336 35.728 9.57876C35.7926 9.65417 35.8572 9.72958 35.9217 9.80499C36.1154 10.0312 36.2336 10.3219 36.4273 10.5481C37.8575 12.9819 36.417 15.1915 36.9852 17.8395C37.4462 20.0568 39.1411 21.8076 39.1655 24.202C39.1681 26.8761 37.5221 29.9142 37.0345 32.55C36.6279 35.0515 36.6469 37.5159 36.8759 39.9966C36.8759 39.9966 36.9459 40.0021 36.8759 39.9966C36.7442 37.1716 37.0808 34.6647 37.6329 32.1042C38.0357 33.2615 39.015 34.2527 39.9188 35.3084C42.7057 38.411 43.7576 42.0818 42.9454 46.1701C43.6212 43.8304 43.5267 41.4305 42.7212 39.1159C41.6146 36.1445 37.7874 33.7347 37.9739 30.442C38.1904 29.4738 38.4769 28.511 38.8389 27.4837C39.4009 25.6981 39.7202 24.3156 39.5821 22.4753C39.3457 21.8939 39.1738 21.3879 38.9374 20.8066C38.3519 19.2831 37.9064 17.7707 37.4609 16.2582C37.3491 14.9828 37.7975 13.7512 37.7557 12.4814L37.7666 12.3415C39.1651 14.2802 40.639 16.1544 41.8111 18.2865C42.4721 19.7455 42.5893 20.9509 42.3391 23.2535C42.3118 23.6032 42.069 24.0064 42.0417 24.3561C42.0298 25.4107 42.1044 26.2609 42.4535 27.2029C44.1292 31.9076 47.8373 34.9414 47.4815 40.4022C47.476 40.4722 47.6215 40.4132 47.6215 40.4132C47.9745 37.6964 47.2871 35.6725 46.3197 33.6267C48.4019 35.8299 50.587 37.6189 53.1921 39.4407C56.4647 41.7368 57.2594 44.1913 56.4689 47.9998C56.1388 49.5221 55.8141 50.9744 55.764 52.5186C55.7585 52.5885 55.904 52.5295 55.904 52.5295C56.1824 48.9625 58.4596 45.059 56.3301 41.6559C55.2654 39.9543 53.4349 39.0374 51.9009 37.9325C49.624 36.4178 47.5791 34.6397 45.8414 32.5338C45.1695 31.2148 44.4275 29.8902 43.8365 28.4368C42.7136 25.6752 43.2012 23.0393 42.843 20.4077C44.4496 24.1922 45.938 27.686 49.3343 30.2029C55.3893 34.7568 66.7814 35.0128 66.2753 45.1061C67.1187 37.0094 59.4831 34.6542 53.599 31.5209C47.2411 28.1396 45.7536 23.7311 43.0823 18.245C44.9918 20.8569 47.0085 23.8994 49.8356 24.683C52.0434 25.2776 54.285 24.5378 56.5747 24.0832C57.5531 25.9891 59.2708 26.5454 61.3386 27.129C65.0595 28.1935 68.1602 29.9836 69.9933 33.5747L70.0633 33.5801C69.2359 31.5453 67.9665 29.7574 66.0934 28.4853C63.5528 26.7389 58.9043 26.7279 57.4313 23.939C58.1424 23.8537 58.789 23.6931 59.4891 23.7478C64.6923 23.8724 69.2243 27.1816 73.4553 29.834C73.5899 29.9149 73.7463 29.716 73.6117 29.6351C68.9616 26.0352 63.4548 22.5796 57.3404 23.2986L57.1304 23.2822C57.1304 23.2822 56.5757 23.1685 56.4893 23.3729C52.7182 23.8525 49.5883 24.2415 46.2467 21.0253C44.81 19.5761 43.7989 18.0899 42.4267 16.7162C42.3031 16.4954 42.1849 16.2047 42.0612 15.984C41.6257 15.2463 40.7919 14.1961 39.7589 12.9896C42.8006 14.6343 46.4688 14.5688 50.2289 14.229C51.3865 14.7416 51.9993 15.9153 53.0005 16.6268C53.6679 17.1011 54.4163 17.4409 55.1701 17.7109C57.0869 18.4235 59.0584 18.4366 61.0834 18.665C59.2257 18.0978 57.2006 17.8694 55.3538 17.1623C53.5716 16.5306 52.6896 15.1952 51.4411 14.0422C58.2557 13.3779 65.0276 12.3584 68.0789 20.1962C68.0789 20.1962 68.2189 20.2072 68.1489 20.2017L68.138 20.3416ZM187.173 67.4908C186.959 65.7149 185.542 65.8154 183.878 65.4744C182.629 65.2362 181.369 65.1378 180.108 65.0394C180.108 65.0394 179.968 65.0285 179.898 65.023C179.758 65.0121 179.688 65.0066 179.548 64.9957C179.268 64.9738 178.918 64.9465 178.638 64.9246C175.843 64.6361 174.908 62.1706 172.394 60.9892C170.353 60.0559 167.934 60.3597 166.002 58.9422C163.801 57.363 162.355 54.2244 160.461 52.3174C158.702 50.4912 156.699 49.0683 154.541 47.8443C154.541 47.8443 154.471 47.8389 154.541 47.8443C156.882 49.4344 158.717 51.1961 160.466 53.1622C159.297 52.7895 157.875 52.9599 156.523 53.1358C152.407 53.5182 148.772 52.2494 145.986 49.1468C145.986 49.1468 145.915 49.1413 145.986 49.1468C147.524 51.0964 149.462 52.4439 151.804 53.1193C154.906 53.9948 159.12 52.3534 161.633 54.4495C162.279 55.2036 162.919 56.0276 163.559 56.8516C164.71 58.3488 165.544 59.399 167.159 60.3695C167.708 60.5531 168.333 60.6722 168.882 60.8558C170.401 61.2558 171.908 61.7957 173.416 62.3356C174.492 62.9826 175.251 64.0973 176.327 64.7443L176.467 64.7552C174.065 64.8491 171.662 64.9431 169.223 64.6119C167.629 64.2763 166.622 63.6348 164.911 62.0939C164.647 61.8622 164.47 61.4262 164.206 61.1945C163.41 60.5694 162.667 60.1596 161.633 59.8678C156.883 58.4415 152.218 59.555 148.047 56.1333C148.047 56.1333 147.907 56.1224 148.041 56.2032C150.005 58.1157 152.068 58.7693 154.286 59.2239C151.232 59.5484 148.495 60.3199 145.531 61.2848C141.77 62.5393 139.369 61.7186 136.705 58.8367C135.667 57.7002 134.698 56.5691 133.509 55.5615C133.509 55.5615 133.369 55.5505 133.504 55.6314C136.205 58.0237 138 62.1043 142.061 62.4213C144.022 62.5743 145.854 61.6619 147.664 61.0292C150.272 60.1069 152.853 59.5343 155.617 59.3278C157.076 59.5824 158.541 59.7672 160.135 60.1027C163.038 60.8218 164.926 62.7988 167.225 64.0337C163.213 63.0873 159.551 62.1681 155.44 63.3953C148.225 65.5764 141.251 74.602 133.367 68.2164C133.367 68.2164 133.297 68.2109 133.367 68.2164C139.351 73.6796 145.782 68.904 151.78 66.065C158.295 62.9145 162.759 64.3888 168.737 65.4184C165.494 65.4467 161.848 65.2325 159.525 67.0214C157.724 68.4289 156.984 70.6932 156.044 72.8013C153.96 72.4275 152.467 73.5072 150.747 74.7803C147.675 77.144 144.463 78.5821 140.429 77.9154L140.424 77.9854C142.567 78.5045 144.748 78.534 146.85 77.7833C149.743 76.8129 152.575 73.0231 155.64 73.4734C155.31 74.081 154.981 74.6886 154.587 75.2208C151.378 79.333 146.033 81.0268 141.383 82.8452C141.237 82.9042 141.361 83.1249 141.506 83.0659C147.196 81.4694 153.161 79.05 156.259 73.6624L156.275 73.4526C156.695 73.4854 156.793 73.1412 156.674 72.8505C158.552 69.5491 160.037 66.7799 164.605 66.0106C166.604 65.6741 168.424 65.8162 170.353 65.4741C170.633 65.496 170.913 65.5179 171.193 65.5397C172.033 65.6053 173.375 65.5693 175.002 65.4852C171.854 66.9987 169.718 69.9984 167.781 73.1545C166.676 73.7719 165.351 73.5981 164.193 74.0003C163.401 74.2199 162.662 74.6548 161.994 75.0952C160.285 76.2285 159.104 77.8251 157.724 79.2654C159.228 78.0458 160.678 76.611 162.311 75.5422C163.874 74.468 165.49 74.5238 167.134 74.2298C163.642 80.1496 160.426 86.1612 152.359 83.9131C152.359 83.9131 152.284 83.9776 152.348 84.053C161.217 86.8563 164.704 80.0917 168.497 73.914C168.718 73.7905 168.799 73.6561 168.815 73.4463C171.227 69.6236 173.757 66.0917 177.975 65.2951C181.94 65.0416 186.168 65.0198 186.866 66.9039C186.985 67.1946 187.486 67.093 187.438 66.8077L187.173 67.4908ZM7.13801 39.2234C6.73428 38.9807 6.40508 39.5884 6.73879 39.8255C9.4949 41.5184 11.2354 40.8802 14.2407 41.1851C22.341 42.0989 26.0517 47.8068 31.4329 52.8711C35.953 57.2348 41.0551 61.3626 47.6814 60.4021C47.8215 60.413 47.7733 60.1278 47.6978 60.1923C38.6153 61.0314 32.4023 53.0875 26.3164 47.1238C27.5221 47.9216 28.7279 48.7194 30.0255 49.2429C32.5452 50.3543 35.3568 50.4331 37.7901 51.7489C41.23 53.7062 43.365 57.0394 47.4852 57.5017C47.6952 57.5181 47.717 57.2384 47.507 57.222C43.1022 55.893 40.639 52.2527 36.5471 50.526C35.0449 49.9162 33.4345 49.7904 31.9159 49.3904C29.5035 48.7096 27.4094 47.5609 25.3262 46.2725C24.7988 45.8091 24.3414 45.3512 23.814 44.8878C22.0327 43.3414 20.1814 41.7896 17.9144 41.0497C14.409 39.9317 10.3569 41.3042 6.99251 39.2824L7.13801 39.2234ZM-0.788932 63.1627C-1.65549 62.5321 -2.62129 64.0752 -1.67379 64.5713C0.694964 65.8118 3.07014 66.0675 5.42988 65.6184C6.40468 65.7649 7.32037 65.766 8.30063 65.8425C11.0513 67.6053 13.7056 68.7976 15.3668 71.8827C16.0387 73.2018 16.3496 74.6334 17.318 75.7645C18.9265 77.7196 21.4363 78.0562 23.7533 77.2519C23.8233 77.2574 23.7642 77.1121 23.7642 77.1121C19.955 78.0813 17.8191 75.6628 16.4489 72.4597C15.9706 71.3669 15.5569 70.3495 14.8577 69.3801C13.642 67.8075 11.8443 66.471 9.91654 65.8983C9.91654 65.8983 10.0566 65.9092 10.1266 65.9147C12.7873 66.1224 14.9624 67.1365 17.3366 68.307C19.3016 69.3048 20.9274 70.1354 22.9271 68.8841C19.6825 70.7419 16.2391 67.0251 13.1428 66.0797C11.0105 65.4207 8.74259 65.5955 6.50746 65.3507C7.37498 65.0666 8.24796 64.7125 9.13186 64.2186C11.4871 62.9247 13.2295 60.4571 15.6438 59.3086C20.327 57.0706 25.1827 59.8421 28.9991 62.3918C25.8611 60.1765 22.3139 57.7886 18.2682 58.1765C11.1036 58.8135 7.44119 68.7308 -0.718899 63.1682L-0.788932 63.1627ZM177.388 101.699C174.938 100.593 172.557 100.408 170.246 101.142C169.266 101.065 168.355 100.994 167.434 101.063C164.597 99.5047 161.867 98.3769 160.05 95.4907C159.302 94.2361 158.921 92.799 157.877 91.7324C156.118 89.9062 153.667 89.7149 151.415 90.5946C151.345 90.5892 151.404 90.7345 151.404 90.7345C155.09 89.5445 157.446 91.8395 158.968 94.9136C159.446 96.0065 159.935 96.9594 160.78 97.8698C162.071 99.3779 163.95 100.58 165.883 101.083L165.673 101.066C163.001 100.999 160.745 100.119 158.36 99.0882C156.389 98.1604 154.613 97.4587 152.742 98.8608C155.863 96.7823 159.527 100.376 162.71 101.117C164.923 101.641 167.132 101.321 169.373 101.496C168.5 101.85 167.621 102.274 166.807 102.773C164.511 104.213 162.904 106.761 160.554 107.985C155.994 110.444 151.041 108.016 147.068 105.666C150.287 107.747 153.996 109.866 157.988 109.262C165.116 108.2 168.159 98.0939 176.707 103.194C177.649 103.76 178.475 102.206 177.522 101.78L177.388 101.699ZM129.084 27.421C129.084 27.421 128.718 26.6888 128.611 26.2583C128.718 26.6888 128.831 27.0495 128.938 27.48C128.933 27.55 129.148 27.4964 129.078 27.491L129.084 27.421ZM128.611 26.2583C128.45 25.6124 128.295 24.8966 128.209 24.1863C128.295 24.8966 128.386 25.537 128.611 26.2583ZM137.037 40.145C138.913 33.2548 137.735 26.689 133.459 21.0073C131.544 18.4654 129.252 16.2458 127.035 13.9617C123.322 10.0832 121.198 6.61016 118.822 1.85084C118.684 0.0105147 118.557 -1.9697 118.629 -3.79363C118.796 -4.1324 118.958 -4.40123 119.126 -4.74001C119.287 -5.00884 118.954 -5.24599 118.738 -5.19244C118.983 -7.42509 119.69 -9.26978 121.173 -10.2096C121.69 -10.521 121.115 -11.2696 120.667 -10.9527C118.22 -9.38454 118.261 -7.19999 118.188 -4.46136C117.708 -3.7248 117.292 -2.91284 116.882 -2.17082C116.748 -2.25169 116.607 -2.26262 116.532 -2.19814C113.797 2.16219 110.287 4.70295 105.196 5.8536C102.755 6.43712 100.143 6.51466 97.8738 7.60416C94.22 9.28923 91.6419 12.536 90.636 16.398C92.1221 11.7994 95.7505 8.63466 100.282 7.44029C102.798 6.79229 105.27 6.70381 107.733 5.84053C110.195 4.97724 112.551 3.68339 114.379 1.92615C112.776 4.40466 110.975 6.72688 108.387 8.28411C104.685 10.5986 100.584 11.6859 97.1878 14.5873C97.1878 14.5873 97.1769 14.7272 97.2524 14.6627C101.301 11.5308 106.57 10.8162 110.613 7.75413C113.982 5.20244 116.082 0.862865 118.073 -2.99259C118.011 -0.393849 118.025 2.14042 117.974 4.59928C116.687 9.35416 114.253 13.4566 110.996 17.2836C107.663 21.1751 103.623 21.493 99.3816 23.4841C94.7794 25.5877 91.722 28.6563 88.5937 32.6341C88.5183 32.6986 88.6474 32.8494 88.7229 32.7849C93.7818 26.6357 97.2409 25.6391 104.494 22.9684C106.816 22.0942 108.492 21.3806 110.32 19.6233C113.297 16.6891 115.983 12.9583 117.7 9.01102L117.796 9.58148C117.388 13.9124 116.285 18.1186 113.415 22.3981C110.383 26.9464 105.72 29.8193 102.43 34.066L102.441 33.9261C102.441 33.9261 102.183 33.6245 102.096 33.8289C99.6564 38.9159 93.8156 40.6414 90.8319 45.4749C88.8139 48.7654 87.668 52.6165 87.5132 56.4042C87.5023 56.5441 87.7123 56.5605 87.7232 56.4206C88.9202 50.1106 90.4291 44.3176 96.0781 40.5365C97.5658 39.5268 98.9616 38.7913 100.099 37.7543C98.0103 41.954 97.0198 46.5209 96.584 51.2014C96.584 51.2014 96.584 51.2014 96.654 51.2069C98.0848 42.8042 100.569 36.2429 106.62 30.0303C109.758 26.8273 112.799 23.9685 115.006 20.0595C116.479 17.4302 117.527 14.838 118.165 12.0731C118.792 15.7811 119.553 19.57 119.473 23.2932C119.39 26.1717 118.633 28.6459 117.467 30.9474C115.067 33.7155 110.358 35.3885 107.963 38.0866C105.482 40.9891 104.1 44.2589 103.665 48.0247L103.735 48.0302C104.964 42.2153 108.18 37.1184 113.413 34.1493C114.669 33.4029 115.908 32.8663 116.89 32.0282C115.503 34.4531 113.841 36.7863 112.233 39.3347C109.649 43.5661 107.932 47.5134 109.527 52.3524C109.521 52.4224 109.667 52.3634 109.667 52.3634C107.598 41.858 116.776 37.0858 119.517 28.152C119.89 26.9848 120.052 25.8013 120.145 24.6123C122.004 29.6831 126.385 33.1212 124.967 39.5546C123.679 45.2242 118.154 48.3113 117.41 54.2345C117.405 54.3044 117.545 54.3153 117.55 54.2454C118.775 47.5857 125.894 43.9194 126.084 36.9679C126.268 31.0011 121.252 27.5837 120.342 22.0944C120.222 18.2149 119.343 14.1353 118.501 10.4809C118.728 9.37277 118.821 8.18378 118.914 6.99478C118.952 6.5052 118.996 5.94567 118.97 5.38068C118.991 5.10092 119.078 4.89655 119.17 4.62226C120.636 8.39582 123.838 11.6011 126.647 14.424C128.535 16.4009 130.359 18.3025 131.892 20.3221C131.728 22.4203 130.601 24.2322 130.367 26.325C130.318 26.9544 130.274 27.5139 130.301 28.0789C130.382 27.0298 130.464 25.9807 130.681 25.0125C131.086 23.4257 131.901 22.0116 132.032 20.333C136.32 25.8748 138.872 31.9849 136.978 39.9997C136.967 40.1395 137.107 40.1505 137.118 40.0106L137.037 40.145ZM86.2518 150.175C85.6133 152.94 87.1573 154.82 89.1377 156.523C92.313 159.163 95.2573 161.152 96.5893 164.845C96.7428 167.39 96.2553 170.026 94.9867 172.741C93.8853 175.118 92.6877 176.925 92.2756 179.496C92.2374 179.986 92.9376 180.04 92.9758 179.551C93.7344 175.247 96.1779 171.92 96.9738 168.041C96.9738 168.041 97.1138 168.052 97.1247 167.912C98.0115 164.674 100.997 163.43 102.686 160.747C103.97 158.736 103.805 156.331 103.63 154.065C103.635 153.995 103.49 154.054 103.49 154.054C103.59 156.384 103.679 158.854 102.185 160.848C101.397 161.913 100.211 162.665 99.2246 163.573C98.5453 164.153 97.9306 164.809 97.5204 165.551C97.4995 164.916 97.3332 164.34 97.1613 163.834C97.1886 163.484 97.0759 163.124 97.0332 162.768C97.0441 162.628 96.9795 162.553 96.9204 162.408C96.9904 162.413 97.1305 162.424 97.1414 162.284C96.9143 157.974 99.9388 155.325 98.9361 151.025C98.196 147.871 96.8631 145.093 95.0991 142.422C97.0831 145.884 99.7708 151.16 98.6085 155.221C97.8463 157.765 96.5359 159.211 96.8241 161.837C94.9621 155.007 89.4299 150.072 90.1705 142.389L90.1005 142.384C89.3082 148.022 91.9651 151.888 94.33 156.787C95.1847 158.472 95.7593 160.136 96.1239 161.783C92.9878 157.738 86.1761 155.658 86.3973 150.116C86.4082 149.977 86.2682 149.966 86.1873 150.1L86.2518 150.175ZM73.2019 169.352C72.1751 172.579 69.4952 175.325 67.4563 177.981C67.2999 178.18 67.5691 178.342 67.72 178.213C69.9252 176.133 71.9423 173.757 73.2109 171.042C73.2809 171.047 73.421 171.058 73.4264 170.988C74.0768 167.169 77.235 165.515 78.892 162.337C79.885 160.445 79.9679 158.481 79.4961 156.403C79.507 156.263 79.286 156.387 79.286 156.387C80.1378 160.816 77.6361 163.084 75.0689 166.191C74.7616 166.518 74.5188 166.922 74.2814 167.255C75.2038 160.853 72.968 156.105 78.1824 150.671C78.1824 150.671 78.1933 150.532 78.1178 150.596C75.8962 152.885 74.2883 155.434 73.7571 158.629C73.1986 162.174 74.256 165.775 73.1374 169.277L73.2019 169.352ZM16.0727 138.646C16.0727 138.646 16.0454 138.996 16.261 138.942C18.0069 138.234 19.5965 137.725 21.0733 136.855C21.0733 136.855 21.1433 136.86 21.2133 136.866C23.9659 136.799 27.0104 135.7 28.9946 133.744C30.2941 132.438 31.2008 130.749 32.5003 129.443C34.2636 127.611 36.4515 126.656 38.8385 125.857C38.9086 125.862 38.8495 125.717 38.8495 125.717C35.9405 125.982 33.3534 127.54 31.4227 129.711C29.8804 131.42 28.8009 133.517 26.6721 134.618C25.3518 135.289 23.9241 135.529 22.4909 135.84C23.0948 135.324 23.7095 134.668 24.1952 133.862C27.0707 129.512 28.4212 125.747 33.4008 123.321C33.5463 123.262 33.4227 123.042 33.2772 123.101C29.9526 124.178 27.6073 126.247 25.8967 129.209C24.6718 131.366 23.7586 134.039 21.7262 135.709C19.9957 137.122 17.7223 137.367 15.9327 138.635L16.0727 138.646ZM83.5289 28.9315C83.2517 26.1656 83.3301 23.357 83.9685 20.5922C84.1905 19.554 84.6979 18.4677 84.7798 17.4186C84.9545 15.1805 83.4915 13.1664 82.9442 11.1534C83.3171 9.98624 83.5554 8.73823 83.5836 7.47383C83.5184 2.89488 81.368 -1.14316 78.9857 -4.91784C82.4074 -0.921297 88.8044 1.05576 89.1051 7.1308C89.0942 7.27068 89.3043 7.28708 89.3152 7.1472C89.5602 -0.503692 79.4085 -2.2109 77.3201 -8.84769C77.2664 -9.06298 76.9809 -9.0149 76.9645 -8.80507C77.1145 -8.01933 77.4155 -7.36252 77.7164 -6.70573C77.4473 -6.86747 76.9999 -6.55056 77.2581 -6.24894C78.6402 -4.10041 80.0113 -1.812 81.097 0.524489C81.0623 2.77353 81.3723 5.11983 80.9175 7.33608C80.3435 10.1763 78.5966 11.7991 76.8061 13.9815C75.0855 16.1693 74.1942 18.5626 73.7713 21.2739C74.2543 17.7932 75.663 15.0885 78.111 12.6056C79.0277 11.6921 80.0034 10.9238 80.5864 9.77309C81.8332 7.3372 81.5833 4.22153 81.3761 1.46104C81.6661 2.25772 81.9562 3.0544 82.1762 3.84561C83.4799 8.80271 81.6392 12.5292 79.6849 16.8098C78.3353 19.6599 77.875 21.946 79.2671 24.8694L79.3371 24.8749C77.8769 20.1167 81.0753 16.1443 82.685 11.7664C82.7814 12.3369 82.9478 12.9128 83.1842 13.4942C83.9843 15.8788 84.2788 17.5202 83.5921 19.9998C82.7917 23.0335 82.7025 25.982 83.2325 29.1195C83.2216 29.2594 83.4425 29.1359 83.4425 29.1359L83.5289 28.9315ZM134.394 126.349C134.916 126.883 135.513 127.352 136.052 127.675C135.449 127.276 134.916 126.883 134.394 126.349ZM132.452 124.157C133.022 124.976 133.738 125.735 134.394 126.349C133.738 125.735 133.162 124.987 132.533 124.023C132.538 123.953 132.323 124.006 132.387 124.082L132.452 124.157ZM161.74 132.495C161.74 132.495 162.02 132.517 162.107 132.312L162.236 132.463C164.189 134.516 165.454 135.459 168.227 136.027C168.787 136.071 169.057 135.318 168.503 135.204C163.015 134.213 159.447 125.772 154.521 122.995C148.379 119.56 140.516 118.313 138.386 110.406C138.391 110.336 138.246 110.395 138.246 110.395C139.598 115.638 143.56 118.128 148.243 120.394C151.366 121.904 154.306 123.048 156.943 125.365C159.052 127.219 160.052 129.76 161.795 131.796C158.872 129.527 155.593 128.215 151.871 128.066C151.871 128.066 151.877 127.996 151.807 127.99C147.994 127.2 146.128 124.029 143.351 121.701C141.5 120.149 139.481 118.936 137.301 117.992C140.892 119.82 143.593 122.212 146.326 125.099C147.628 126.468 148.947 127.626 150.74 128.118C145.451 128.198 140.563 130.349 136.332 127.697C138.006 128.813 139.923 129.525 142.18 129.49C144.787 129.483 147.26 128.48 149.873 128.402C154.467 128.198 158.285 129.833 162.02 132.517L161.74 132.495ZM144.419 145.92L144.398 146.2C144.398 146.2 144.667 146.362 144.678 146.222C148.262 149.035 149.384 152.711 149.724 157.382C149.702 157.661 150.192 157.7 150.214 157.42C150.644 152.809 149.652 149.284 146.008 146.325C145.61 146.013 145.211 145.7 144.808 145.458C145.255 139.723 138.832 137.181 136.051 133.093C136.051 133.093 135.911 133.082 135.981 133.088C137.299 135.161 139.167 136.503 140.937 138.189C143.1 140.258 143.777 142.422 144.275 145.064C142.326 143.857 140.146 142.912 138.197 141.705C134.025 139.198 131.734 136.064 130.187 131.51C130.198 131.37 129.977 131.493 129.977 131.493C130.366 135.535 132.604 138.454 135.806 140.744C138.277 142.485 141.147 143.624 143.623 145.295C143.892 145.457 144.156 145.688 144.419 145.92ZM152.372 40.4273C153.576 37.6362 155.667 37.0253 154.652 33.7796C153.917 31.4705 152.314 29.4454 151.864 27.0882C153.208 24.308 155.009 21.9858 158.205 20.7576C158.641 20.5805 158.265 19.9882 157.974 20.1062C155.118 20.587 153.302 22.2044 151.937 24.3496C151.947 24.2097 151.953 24.1397 151.964 23.9998C151.98 23.79 151.776 23.7037 151.695 23.8381C151.15 24.4992 151.025 25.1932 151.041 25.8981C150.528 27.0543 150.015 28.2105 149.631 29.5175C147.943 31.2856 145.444 31.7238 143.175 32.8133C141.267 33.7903 139.886 35.2306 138.893 37.1234C138.893 37.1234 138.888 37.1933 138.893 37.1234C140.631 33.811 143.514 32.9805 146.785 31.6878C147.728 31.3392 148.542 30.8398 149.291 30.265C147.994 34.245 146.756 38.3704 144.028 40.8314C137.143 46.9085 128.011 43.8735 125.893 54.7559C125.893 54.7559 125.958 54.8313 125.964 54.7614C128.572 43.0026 138.894 47.0452 145.251 40.5047C146.098 39.5856 146.81 38.5857 147.457 37.5104C147.23 38.6185 147.078 39.6622 146.705 40.8293C145.732 44.2717 143.505 46.6311 140.363 48.0746C137.518 49.3302 134.625 49.3859 132.92 52.2786C132.915 52.3485 132.979 52.4239 133.06 52.2895C135.956 48.5751 141.682 49.233 144.858 45.5404C147.409 42.6434 147.256 39.1835 148.3 35.7466C149.487 33.1654 150.341 30.347 151.453 27.8302C151.625 28.3362 151.862 28.9176 152.104 29.429C152.759 30.9579 154.502 32.9939 154.576 34.7588C154.628 36.8035 152.934 38.6416 152.157 40.4808C152.151 40.5507 152.221 40.5562 152.297 40.4917L152.372 40.4273ZM174.952 118.468C172.609 117.792 170.299 117.612 167.939 118.061C163.365 118.9 159.652 120.44 155.961 116.282C157.57 118.237 159.723 119.531 162.33 119.523C163.951 119.509 165.336 118.913 166.915 118.544C169.711 117.918 172.237 118.045 174.93 118.747C175.14 118.764 175.232 118.49 174.952 118.468ZM183.279 82.175C183.279 82.175 183.102 81.739 182.951 81.8679C181.285 83.3563 179.447 84.3387 177.12 84.3682C175.784 84.3343 174.54 84.0261 173.199 84.0621C171.508 84.0708 170.064 84.5211 168.974 85.8433C171.59 83.0217 175.363 85.2162 178.563 84.8327C180.417 84.5551 182.033 83.6962 183.204 82.2395L183.279 82.175ZM169.682 37.0639C172.474 35.593 174.609 33.5079 176.427 30.9759C176.508 30.8414 176.309 30.6852 176.228 30.8196C172.248 35.7864 167.829 37.3414 161.988 39.0669C158.605 39.999 157.735 42.1125 157.409 45.3943C158.498 38.6537 164.977 39.5816 169.612 37.0584L169.682 37.0639ZM131.158 150.655C132.67 152.04 134.334 153.295 135.695 154.809C137.825 157.297 138.329 159.87 138.433 163.045C138.401 163.464 139.101 163.519 139.133 163.099C140.27 153.055 127.457 151.14 126.185 142.175C126.196 142.035 125.98 142.088 125.975 142.158C126.332 145.704 128.521 148.338 131.158 150.655ZM-14.9677 90.4842C-16.7554 89.9225 -18.0103 89.7542 -19.8799 90.2415C-20.1655 90.2896 -20.1336 90.7847 -19.8481 90.7366C-14.1811 90.3345 -9.8165 93.9825 -3.9385 92.6821C-3.57749 92.5696 -3.21647 92.457 -2.85546 92.3445C1.42112 92.6079 6.2042 92.6998 10.2071 91.9568C14.3555 91.1547 14.7422 87.1036 17.4813 84.5027C17.4813 84.5027 17.4867 84.4328 17.4813 84.5027C16.2791 85.4644 15.6425 86.3998 14.8386 87.6741C13.1553 90.287 11.4411 91.4902 8.263 91.5939C5.22491 91.7086 2.13317 91.608 -0.974939 91.7172C3.6273 89.6136 7.18118 85.5986 12.0789 84.2218C6.23914 85.0325 2.38241 90.2201 -3.30191 91.7467C-3.51743 91.8002 -3.73294 91.8538 -3.94846 91.9073C-4.08849 91.8964 -4.22854 91.8855 -4.36858 91.8745C-4.4386 91.8691 -4.50862 91.8636 -4.51954 92.0035C-8.23693 92.6984 -11.2631 91.7585 -14.9786 90.6241L-14.9677 90.4842ZM-12.2991 77.9561C-12.2991 77.9561 -12.5956 78.1441 -12.391 78.2304C-8.95105 80.1877 -4.93366 81.0643 -1.50535 78.6579C0.882646 76.9444 2.00037 74.3577 5.58222 74.4966C8.4639 74.5808 9.74867 77.0735 11.8155 78.5718C13.4141 79.7521 14.1569 80.162 16.1393 80.0352C16.2093 80.0407 16.2202 79.9008 16.1502 79.8953C11.087 79.7816 9.43515 72.9678 3.98818 74.161C2.19405 74.5839 1.33101 75.7128 -0.0866912 76.728C-4.35617 79.9835 -7.72251 79.791 -12.2291 77.9616L-12.2991 77.9561ZM13.8381 19.2695C13.8381 19.2695 13.4825 19.3121 13.6116 19.463C16.6295 23.2169 20.3013 24.9108 21.7987 30.0942C22.6361 32.9038 22.7951 35.3791 24.209 38.0227C26.924 42.9492 31.3969 46.113 36.7009 47.6529C29.8838 45.6431 25.7947 41.1722 23.5117 35.2239C24.1627 35.9081 24.9811 36.2534 26.0959 36.4108C28.1156 36.7092 29.6833 36.4797 31.4864 37.7463C33.0259 38.7813 34.0633 40.8325 34.4924 42.5548C34.0261 40.4074 32.7031 38.4042 30.9054 37.0677C28.5694 35.4076 24.7701 37.1517 23.1571 34.3518C22.7007 32.9792 22.3197 31.5422 22.0143 30.0406C20.7979 23.9645 17.7171 23.724 13.7681 19.2641L13.8381 19.2695ZM24.4975 14.4722C24.4975 14.4722 24.3575 14.4613 24.422 14.5367C27.6554 18.2371 31.1471 22.2391 31.7343 27.3514C31.7288 27.4213 31.8743 27.3623 31.8743 27.3623C31.5136 22.0566 28.0865 18.13 24.4975 14.4722ZM22.8482 10.3326L22.6336 9.47141L22.8482 10.3326ZM68.6675 13.5573C64.3476 8.43514 67.7042 2.43449 67.4517 -3.35532L67.4626 -3.4952C67.4626 -3.4952 67.4626 -3.49521 67.4681 -3.56515C67.479 -3.70503 67.4899 -3.84491 67.5063 -4.05473C67.1064 -7.95614 65.1015 -12.0532 63.5431 -15.5525C63.4249 -15.8432 62.9129 -15.6017 62.9665 -15.3864C64.0676 -12.345 65.6642 -9.33532 66.5498 -6.24042C66.8771 -5.01863 66.9943 -3.81323 66.9715 -2.61877C65.2108 1.88802 57.3923 4.58497 59.6217 10.318C59.6217 10.318 59.7617 10.3289 59.6917 10.3235C57.4732 4.45055 64.7525 2.34482 66.906 -1.77948C66.7804 -0.170834 66.5849 1.43235 66.3192 3.03006C65.8035 6.93035 65.7296 10.5837 68.4466 13.6808C68.5757 13.8316 68.7267 13.7027 68.603 13.4819L68.6675 13.5573Z" fill="url(#paint1_radial_102_282)"/>
</g>
<defs>
<radialGradient id="paint0_radial_102_282" cx="0" cy="0" r="1" gradientUnits="userSpaceOnUse" gradientTransform="translate(77.7558 60.2342) rotate(-161.232) scale(104.006 103.905)">
<stop stop-color="white"/>
<stop offset="0.41" stop-color="#A7A39E"/>
<stop offset="0.82" stop-color="#574F45"/>
<stop offset="1" stop-color="#382F23"/>
</radialGradient>
<radialGradient id="paint1_radial_102_282" cx="0" cy="0" r="1" gradientUnits="userSpaceOnUse" gradientTransform="translate(84.2224 83.0872) rotate(17.1598) scale(99.021 98.922)">
<stop offset="0.47" stop-color="#FF0000"/>
<stop offset="1" stop-color="#FF8879"/>
</radialGradient>
</defs>
</svg>
