<svg width="128" height="129" viewBox="0 0 128 129" fill="none" xmlns="http://www.w3.org/2000/svg">
<path style="mix-blend-mode:multiply" d="M97.5567 113.449C70.5565 131.919 33.6145 125.034 15.1206 98.0601C-3.37325 71.0862 3.51256 34.1857 30.5127 15.7167C57.5129 -2.75228 94.455 4.13237 112.949 31.1062C131.443 58.08 124.557 94.9805 97.5567 113.449Z" fill="url(#paint0_radial_285_640)"/>
<path style="mix-blend-mode:screen" d="M112.342 38.8701C81.7256 49.9122 77.407 51.4803 113.294 42.5643C77.7331 53.411 82.3778 53.7735 115.047 53.0848C82.3261 54.4363 77.7244 54.744 114.817 57.2583C77.8758 56.4705 82.7309 57.8021 114.043 64.7236C82.6066 58.1734 77.7145 57.3153 112.507 69.7478C76.7061 59.2371 80.6847 62.0244 108.654 78.7828C80.3486 62.665 76.0413 60.4236 105.543 83.2078C75.2669 61.7921 78.7924 65.4967 101.841 87.8725C78.3911 65.7512 74.6464 62.4104 96.528 92.4113C72.6619 63.3987 74.5169 67.735 89.4788 97.1957C73.9112 68.1641 71.458 64.1621 82.6796 99.9992C70.0718 64.816 71.0441 69.4644 78.4706 101.385C70.5553 69.6168 69.1017 65.026 69.9886 102.533C67.1185 64.776 66.5015 69.0146 63.4912 102.693C65.8232 69.1522 65.6818 64.8543 54.7496 101.058C64.1652 64.7359 62.7973 68.8207 52.1251 100.472C62.3234 68.7837 63.3195 64.5747 44.02 96.791C61.8768 63.5095 59.4305 66.7479 40.2741 94.6886C58.8839 66.4195 60.6888 62.8452 32.9448 88.4007C59.4135 62.0788 56.3407 64.792 31.3494 86.8473C56.0785 64.4858 58.7943 61.4589 26.3616 79.8849C58.0521 59.972 54.5866 61.6067 24.4979 76.8815C54.157 61.0016 57.3824 58.7766 20.9419 67.4588C56.4506 57.2749 52.4829 58.0131 20.0335 64.4348C52.3303 57.5249 56.2328 56.4005 19.283 56.9457C56.2563 54.8782 52.3699 54.5748 19.0973 53.216C52.429 53.8173 56.2723 53.4505 20.4703 44.178C56.318 51.6441 52.5129 50.2992 21.4591 40.0637C52.6446 49.8332 56.5741 50.8067 23.6814 34.8072C57.3263 49.7223 54.0617 47.5622 25.6106 30.8615C54.4926 46.929 57.9911 48.5358 30.0944 24.7337C58.9625 47.0874 56.3479 43.9302 33.8616 20.4552C56.6544 43.6683 59.5903 46.3743 37.124 17.7567C60.7869 45.7056 59.0477 42.331 41.8821 14.2224C59.646 41.9966 61.9762 45.1316 47.4417 11.4175C63.5741 44.2085 62.8345 40.245 54.4231 8.72353C63.418 40.1 64.5516 43.9037 57.4281 8.10073C65.9808 43.92 66.2691 40.2273 65.2391 6.99573C66.94 40.1844 67.3153 43.9289 69.6142 7.14673C68.9341 43.96 70.2724 40.254 77.9262 8.17659C70.6442 40.3783 69.8672 44.2234 79.785 8.79799C71.0551 44.8877 73.1074 41.809 88.4083 11.9479C73.654 42.1374 72.1483 45.5446 91.1412 13.5902C73.5258 46.2237 76.5038 43.503 98.2896 18.5302C76.766 43.8093 74.145 46.8436 99.9723 20.1858C75.2885 48.076 78.9658 46.172 106.717 27.8569C79.3006 46.7697 75.9655 49.1767 108.478 30.9475C77.1017 50.5038 81.4855 49.3218 112.255 38.768L112.342 38.8701Z" fill="url(#paint1_radial_285_640)"/>
<path style="mix-blend-mode:screen" opacity="0.3" d="M98.358 112.941C95.2942 106.986 92.7252 102.022 90.7459 98.0571C93.0318 101.76 95.8999 106.557 99.2702 112.25C93.9058 102.781 90.1354 96.1042 87.777 92.1096C82.8952 81.345 87.3095 85.8811 104.372 107.98L104.576 107.806C81.6324 75.5307 83.57 77.5872 106.029 106.299L106.124 106.307C91.2611 86.5706 86.0332 79.0179 92.9107 84.9847C95.3505 87.9377 100.777 94.1722 108.745 103.273C102.357 95.9151 97.6377 90.4025 94.9579 86.8592C98.2508 89.8788 103.299 94.8454 110.11 101.664C101.289 92.4975 95.7162 86.9184 93.1447 84.4314C89.4678 79.0002 95.3483 83.0791 113.097 97.6107L113.309 97.3415C86.0101 73.2051 88.0942 74.6062 114.28 95.8931L114.295 95.7037C91.3157 76.096 87.9072 72.1148 110.587 84.5545C112.766 85.963 115.222 87.4884 117.955 89.1306C116.33 87.9559 114.785 86.9779 113.335 86.0074C114.792 86.8832 116.44 87.7739 118.087 88.6646L118.109 88.3805C112.286 84.7824 107.731 82.0453 104.357 80.0672C92.8585 72.2155 96.8975 73.0071 120.236 83.1166L120.266 82.7379C90.383 68.4975 92.4092 69.4178 120.485 82.374L120.5 82.1846C99.3633 71.9611 93.4311 68.5449 106.153 71.729C109.673 73.0517 114.863 74.981 121.817 77.5243C116.452 75.3908 112.101 73.7175 108.77 72.4096C112.225 73.3461 116.606 74.6408 122.103 76.3082L122.118 76.1189C112.998 73.216 106.955 71.2201 103.784 70.3057C97.6253 67.3481 103.203 67.9741 122.807 72.1717L122.837 71.7929C92.9905 64.4143 95.0612 64.7664 122.889 71.1301L122.911 70.8461C95.4194 63.8418 93.3649 62.062 123.21 63.3438L123.247 62.8703C95.1094 60.4834 97.2895 60.6536 123.175 62.5789L123.189 62.3895C97.4213 60.1876 95.2054 59.2525 122.866 57.9822C122.881 57.7928 122.895 57.6035 122.815 57.4067C96.6877 57.3677 94.5815 56.2507 121.83 51.7093L121.859 51.3305C119.547 51.6264 117.527 51.8497 115.689 52.1826C97.7921 54.215 98.0482 53.3776 120.791 47.913L120.82 47.5342C94.6432 53.0166 96.299 52.5743 120.566 47.1333L120.595 46.7546C96.0011 51.5031 93.7779 50.6628 117.955 40.2612C117.875 40.0644 117.707 39.7655 117.627 39.5688C94.364 48.0412 95.9619 47.118 116.885 38.0819L116.9 37.8925C95.8167 46.5351 93.8913 46.7659 115.386 35.2975L115.219 34.9987C92.5864 46.3782 93.9874 45.5349 114.964 34.5977L114.796 34.2989C93.6747 44.6532 91.6842 44.4978 111.811 29.7791C111.731 29.5823 111.549 29.4728 111.374 29.2687C91.672 42.2106 92.9129 40.9738 110.508 28.1531C92.8403 40.6823 91.1624 41.4087 109.204 26.5272L109.029 26.323C89.8205 41.4945 90.8571 40.4322 108.505 25.7105L108.243 25.4043C90.0557 39.7029 87.9408 39.9188 104.091 21.1744C103.916 20.9702 103.646 20.7587 103.377 20.5471C86.9955 37.3682 87.6098 35.6062 101.052 18.5557L100.863 18.5409C87.1654 35.1905 85.8297 36.4199 99.6171 17.3958L99.3475 17.1842C84.4731 36.695 85.1601 35.2245 98.1744 16.3306L97.9048 16.119C84.4387 34.6918 82.7608 35.4182 93.9988 13.6231C93.8166 13.5136 93.5397 13.3967 93.3649 13.1925C81.4868 33.4135 81.722 31.6219 90.8068 11.7545L90.712 11.7471C81.4524 31.4103 80.6632 32.9682 90.3476 11.5281L90.1581 11.5133C79.7362 33.8484 80.0514 32.2536 88.788 10.7395L88.5036 10.7173C79.1035 32.1796 77.6804 33.3069 84.2615 8.86199C83.9771 8.83979 83.7075 8.62822 83.4232 8.60603C75.6037 31.8112 75.1975 29.6837 79.4211 7.34101L79.2316 7.32621C74.7162 29.7414 74.1892 31.6055 78.5828 7.08506L78.2036 7.05546C72.8756 32.5508 72.4473 30.7074 74.9303 6.22837L74.5512 6.19877C71.4046 30.626 70.5133 32.2712 70.7817 5.61876L70.0234 5.55957C68.7631 25.3709 67.8335 28.7278 66.6485 18.2518C66.5059 15.1922 66.2697 10.887 66.0496 5.15412L65.86 5.13932C65.9301 7.90738 66.0149 10.4861 66.1293 12.686C65.9201 10.4787 65.7331 7.98727 65.4735 5.20441L65.3787 5.19701C65.6727 9.98306 66.0258 14.0116 66.1758 16.9765C66.3869 31.3775 65.4441 26.3503 62.615 5.17179L62.3307 5.14959C65.2494 31.2887 64.9046 33.2623 59.1656 5.37886L58.5021 5.32706C62.637 32.99 60.9838 30.9557 52.9956 6.2309L52.806 6.2161C60.5751 31.3049 61.2582 33.5492 52.609 6.29599L52.2299 6.26639C60.3447 35.4784 58.385 33.706 45.9933 7.9706L45.6142 7.941C57.3853 34.2948 57.7914 36.4223 42.8565 9.05943C42.667 9.04463 42.4626 9.21919 42.3678 9.21179C51.7326 28.5189 53.3537 33.4085 47.7823 26.5911C45.8313 23.4857 42.5988 18.4702 37.8227 11.2386L37.6331 11.2238C40.1664 15.4225 42.2849 18.8268 43.9737 21.626C41.9857 18.994 39.5755 15.6622 36.8305 11.7327C40.5147 17.0692 43.5219 21.3049 45.67 24.3304C53.5825 37.8084 48.789 33.2427 32.438 14.2477L32.2336 14.4222C52.4658 38.6739 53.7399 40.6786 30.8252 15.3602L30.5187 15.622C52.0619 41.405 49.0225 40.0246 25.3444 19.6002C49.0804 40.5054 51.4119 42.4021 25.1401 19.7748L24.8335 20.0366C51.5915 44.9882 48.1938 44.5325 18.0883 27.0358L17.8839 27.2104C47.8282 45.5518 49.9923 47.1496 16.8178 28.6513L16.606 28.9206C39.0079 42.4818 43.9553 46.2974 33.8375 42.745C29.8798 40.9119 23.1523 37.9099 13.378 33.6223L13.3632 33.8116C17.8675 35.9732 21.8178 37.901 25.2216 39.5004C21.7082 38.083 17.641 36.4318 12.8301 34.5321C18.7415 36.994 23.6323 39.0905 27.51 40.7269C47.4291 50.6648 40.0798 49.5195 9.32991 41.4988L9.31512 41.6882C46.0859 51.9889 48.9801 52.7864 9.09601 42.0521L9.08123 42.2415C47.9361 53.9433 43.9253 54.0113 6.87981 48.4522C44.1802 54.4122 47.8548 54.9848 6.60153 49.5736L6.58675 49.763C49.4932 57.2085 45.8455 58.7337 4.71496 61.5246L4.70018 61.714C46.253 59.6229 49.498 59.5904 4.61149 62.8502C48.6436 60.7621 44.6315 62.0684 4.80199 68.9619C44.9011 62.28 48.8688 61.5418 4.75765 69.53C50.5885 62.7239 47.3631 64.9489 6.46094 79.4749C47.9897 65.4742 51.316 64.4002 6.59139 80.2472C50.8482 65.5068 47.0466 67.7821 8.20504 85.2315C47.3162 67.9937 51.2556 66.3959 9.56516 88.5766C53.5366 67.7171 51.0904 70.9556 15.4318 98.9418C51.6148 71.5681 54.6359 69.5177 16.5458 100.553C54.3576 70.6391 51.2478 73.8258 18.8034 103.397C51.3278 74.0225 54.7872 71.2442 21.2654 106.066C56.7556 71.6836 55.1477 75.1781 28.1429 112.032C55.7965 75.4192 58.2132 72.5595 30.4018 113.638C58.314 73.7105 56.1152 77.4446 32.3985 114.937C56.29 77.6488 59.0428 74.1484 37.9811 117.944C61.2156 74.4133 60.7303 78.1859 46.0357 121.05L46.1305 121.057C61.3643 78.6165 62.8701 75.2093 49.3016 121.972C62.9783 76.2656 61.7052 80.3578 49.3964 121.979C61.88 80.5619 63.5323 76.4994 55.6956 123.138C65.3629 76.2612 65.6581 79.809 61.7622 123.611L61.857 123.619C65.7538 85.9132 66.8413 78.0914 66.8546 107.243C66.6894 111.802 66.5525 117.222 66.4438 123.5C66.5647 119.509 66.6559 115.896 66.8198 112.575C66.8529 115.816 66.7543 119.524 66.7282 123.523C66.8529 115.816 66.9616 109.537 67.0615 104.591C68.1645 81.9098 69.5824 85.7357 74.2475 122.49L74.4371 122.505C70.452 77.0395 71.5425 80.173 79.0105 121.338L79.1052 121.345C74.6846 94.8981 73.0479 84.101 75.6142 91.5413C76.1939 95.1112 78.3711 105.093 81.7459 120.503C79.1551 108.488 77.4505 99.7819 76.6974 94.7694C78.2163 99.7464 80.5265 108.024 83.7082 119.799C80.0478 105.605 77.5923 96.7446 76.386 92.6494C75.5629 84.8689 79.0771 92.3832 88.8368 117.627L89.0264 117.642C75.1263 77.0234 76.6403 79.6183 92.1201 115.883L92.2149 115.89C80.6137 87.3589 77.8147 79.2337 87.41 94.3673C89.6515 98.6385 92.8901 104.798 97.1405 112.655L98.358 112.941Z" fill="url(#paint2_radial_285_640)"/>
<path style="mix-blend-mode:color-dodge" opacity="0.3" d="M75.0136 10.0454C104.636 15.406 124.259 43.8017 118.897 73.3907C113.536 102.98 85.1125 122.576 55.4901 117.215C25.8678 111.855 6.24508 83.4591 11.6065 53.8701C16.968 24.2811 45.3913 4.68472 75.0136 10.0454Z" fill="url(#paint3_linear_285_640)"/>
<defs>
<radialGradient id="paint0_radial_285_640" cx="0" cy="0" r="1" gradientUnits="userSpaceOnUse" gradientTransform="translate(129.585 -13.1886) rotate(55.5223) scale(201.336 201.383)">
<stop stop-color="#FF9D00"/>
<stop offset="0.1" stop-color="#F99800"/>
<stop offset="0.24" stop-color="#E88A00"/>
<stop offset="0.39" stop-color="#CD7300"/>
<stop offset="0.54" stop-color="#AD5700"/>
<stop offset="0.6" stop-color="#A15200"/>
<stop offset="0.72" stop-color="#824600"/>
<stop offset="0.86" stop-color="#513300"/>
<stop offset="1" stop-color="#1E1F00"/>
</radialGradient>
<radialGradient id="paint1_radial_285_640" cx="0" cy="0" r="1" gradientUnits="userSpaceOnUse" gradientTransform="translate(18.8708 -32.0841) rotate(-15.2765) scale(162.754 162.615)">
<stop/>
<stop offset="0.04" stop-color="#060300"/>
<stop offset="0.5" stop-color="#4B2500"/>
<stop offset="0.83" stop-color="#763B00"/>
<stop offset="1" stop-color="#874400"/>
</radialGradient>
<radialGradient id="paint2_radial_285_640" cx="0" cy="0" r="1" gradientUnits="userSpaceOnUse" gradientTransform="translate(69.2594 54.6083) rotate(59.1634) scale(91.5879 91.6217)">
<stop stop-color="#FFA600"/>
<stop offset="0.08" stop-color="#F9A100"/>
<stop offset="0.19" stop-color="#E89300"/>
<stop offset="0.31" stop-color="#CD7D00"/>
<stop offset="0.44" stop-color="#A85F00"/>
<stop offset="0.54" stop-color="#874400"/>
<stop offset="0.64" stop-color="#763E00"/>
<stop offset="0.82" stop-color="#4B2F00"/>
<stop offset="1" stop-color="#1E1F00"/>
</radialGradient>
<linearGradient id="paint3_linear_285_640" x1="30.0441" y1="75.7812" x2="226.286" y2="7.67639" gradientUnits="userSpaceOnUse">
<stop/>
<stop offset="1" stop-color="white"/>
</linearGradient>
</defs>
</svg>
