<svg width="211" height="212" viewBox="0 0 211 212" fill="none" xmlns="http://www.w3.org/2000/svg">
<path style="mix-blend-mode:multiply" d="M202.479 102.027C205.186 155.788 163.711 201.596 109.892 204.291C56.0729 206.986 10.2073 165.549 7.50011 111.788C4.79297 58.0273 46.2681 12.2189 100.087 9.52398C153.906 6.82904 199.772 48.2667 202.479 102.027Z" fill="url(#paint0_radial_221_6)"/>
<path d="M191.988 94.4822C196.654 53.5616 167.227 16.6045 126.261 11.9362C85.2951 7.26793 48.3026 36.6562 43.6362 77.5768C38.9699 118.497 68.3967 155.454 109.363 160.123C150.329 164.791 187.322 135.403 191.988 94.4822Z" fill="url(#paint1_radial_221_6)"/>
<defs>
<radialGradient id="paint0_radial_221_6" cx="0" cy="0" r="1" gradientUnits="userSpaceOnUse" gradientTransform="translate(105.026 106.87) rotate(-2.8686) scale(97.6199 97.5154)">
<stop offset="0.59" stop-color="#8F5F33"/>
<stop offset="0.6" stop-color="#926339"/>
<stop offset="0.65" stop-color="#AE8C6D"/>
<stop offset="0.71" stop-color="#C7AF99"/>
<stop offset="0.77" stop-color="#DBCCBE"/>
<stop offset="0.83" stop-color="#EBE2DA"/>
<stop offset="0.89" stop-color="#F6F2EE"/>
<stop offset="0.94" stop-color="#FCFBFA"/>
<stop offset="1" stop-color="white"/>
</radialGradient>
<radialGradient id="paint1_radial_221_6" cx="0" cy="0" r="1" gradientUnits="userSpaceOnUse" gradientTransform="translate(120.936 76.8015) rotate(-161.232) scale(81.6034 81.5241)">
<stop offset="0.25" stop-color="white"/>
<stop offset="0.46" stop-color="#FCFCFC"/>
<stop offset="0.61" stop-color="#F4F3F2"/>
<stop offset="0.74" stop-color="#E5E4E2"/>
<stop offset="0.86" stop-color="#D2CFCC"/>
<stop offset="0.97" stop-color="#B8B4AF"/>
</radialGradient>
</defs>
</svg>
