<svg width="29" height="29" viewBox="0 0 29 29" fill="none" xmlns="http://www.w3.org/2000/svg">
<path style="mix-blend-mode:multiply" d="M21.7517 25.5197C15.7673 29.6133 7.57926 28.0873 3.48018 22.1087C-0.618901 16.1301 0.907308 7.95127 6.89177 3.8577C12.8762 -0.235865 21.0643 1.29008 25.1633 7.26871C29.2624 13.2473 27.7362 21.4261 21.7517 25.5197Z" fill="url(#paint0_radial_430_280)"/>
<path style="mix-blend-mode:screen" opacity="0.3" d="M21.9304 25.4068C21.2513 24.0869 20.6819 22.9868 20.2432 22.1079C20.7499 22.9287 21.3856 23.9918 22.1326 25.2537C20.9436 23.155 20.1079 21.6751 19.5852 20.7897C18.5031 18.4038 19.4815 19.4092 23.2633 24.3073L23.3086 24.2686C18.2232 17.1151 18.6527 17.5709 23.6306 23.9348L23.6516 23.9365C20.3574 19.562 19.1987 17.888 20.723 19.2105C21.2638 19.865 22.4665 21.2469 24.2326 23.2639C22.8168 21.6332 21.7707 20.4113 21.1768 19.626C21.9066 20.2953 23.0256 21.3961 24.5352 22.9075C22.58 20.8757 21.3449 19.6391 20.7749 19.0879C19.9599 17.8841 21.2633 18.7881 25.1972 22.009L25.2441 21.9493C19.1935 16.5996 19.6555 16.9101 25.4594 21.6283L25.4627 21.5863C20.3695 17.2404 19.614 16.3579 24.641 19.1151C25.1239 19.4273 25.6682 19.7654 26.274 20.1294C25.9138 19.8691 25.5714 19.6523 25.25 19.4372C25.573 19.6313 25.9381 19.8287 26.3032 20.0261L26.3081 19.9632C25.0175 19.1657 24.008 18.559 23.2601 18.1206C20.7114 16.3803 21.6067 16.5557 26.7796 18.7965L26.7862 18.7125C20.1628 15.5562 20.6119 15.7602 26.8347 18.6318L26.838 18.5899C22.1532 16.3239 20.8384 15.5667 23.658 16.2724C24.4384 16.5656 25.5887 16.9932 27.13 17.5569C25.9409 17.0841 24.9764 16.7132 24.2381 16.4233C25.004 16.6309 25.9751 16.9178 27.1933 17.2874L27.1966 17.2454C25.1753 16.602 23.8359 16.1596 23.1331 15.957C21.768 15.3014 23.0043 15.4402 27.3495 16.3706L27.356 16.2866C20.7407 14.6512 21.1997 14.7292 27.3675 16.1397L27.3724 16.0767C21.2791 14.5243 20.8237 14.1298 27.4388 14.4139L27.447 14.309C21.2104 13.7799 21.6936 13.8176 27.4309 14.2444L27.4342 14.2024C21.7228 13.7143 21.2316 13.5071 27.3624 13.2255C27.3657 13.1836 27.369 13.1416 27.3513 13.098C21.5602 13.0893 21.0933 12.8417 27.1328 11.8352L27.1393 11.7512C26.6269 11.8168 26.1791 11.8663 25.7718 11.9401C21.805 12.3905 21.8617 12.2049 26.9025 10.9937L26.9091 10.9098C21.107 12.1249 21.474 12.0269 26.8526 10.8209L26.8592 10.737C21.408 11.7895 20.9152 11.6032 26.2739 9.29774C26.2562 9.25413 26.2191 9.18789 26.2014 9.14427C21.0451 11.0221 21.3993 10.8175 26.0369 8.81472L26.0401 8.77274C21.3671 10.6883 20.9404 10.7395 25.7046 8.19758L25.6675 8.13134C20.6512 10.6536 20.9617 10.4666 25.611 8.04247L25.5739 7.97623C20.8924 10.2712 20.4512 10.2368 24.9122 6.97444C24.8945 6.93083 24.8541 6.90656 24.8154 6.86131C20.4485 9.72982 20.7235 9.45569 24.6233 6.61405C20.7074 9.39109 20.3355 9.55209 24.3344 6.25367L24.2956 6.20842C20.0381 9.5711 20.2679 9.33566 24.1794 6.07266L24.1213 6.00478C20.0902 9.17399 19.6215 9.22186 23.201 5.06725C23.1622 5.022 23.1025 4.97511 23.0427 4.92821C19.4119 8.65653 19.5481 8.26599 22.5276 4.48683L22.4856 4.48355C19.4496 8.17384 19.1536 8.44633 22.2095 4.22974L22.1497 4.18285C18.8529 8.50732 19.0051 8.18138 21.8897 3.99364L21.8299 3.94674C18.8453 8.06332 18.4733 8.22432 20.9642 3.39353C20.9238 3.36927 20.8624 3.34336 20.8237 3.29811C18.191 7.77999 18.2431 7.38289 20.2567 2.97936L20.2357 2.97772C18.1833 7.336 18.0084 7.68129 20.1549 2.92919L20.1129 2.92591C17.803 7.87639 17.8728 7.5229 19.8092 2.7544L19.7462 2.74948C17.6627 7.5065 17.3473 7.75637 18.806 2.33826C18.7429 2.33334 18.6832 2.28645 18.6202 2.28153C16.887 7.42483 16.797 6.95329 17.7331 2.00114L17.6911 1.99786C16.6903 6.96608 16.5735 7.37925 17.5473 1.94441L17.4633 1.93785C16.2824 7.58878 16.1874 7.1802 16.7378 1.75453L16.6537 1.74797C15.9563 7.16216 15.7587 7.5268 15.8182 1.61941L15.6502 1.60629C15.3708 5.99739 15.1648 6.74143 14.9021 4.41946C14.8705 3.74133 14.8182 2.7871 14.7694 1.51643L14.7274 1.51315C14.7429 2.12668 14.7617 2.69823 14.787 3.18584C14.7407 2.69659 14.6992 2.14438 14.6417 1.52757L14.6207 1.52593C14.6859 2.58674 14.7641 3.47965 14.7974 4.13679C14.8441 7.32872 14.6352 6.21446 14.0081 1.52034L13.9451 1.51542C14.592 7.30903 14.5156 7.74647 13.2436 1.56624L13.0965 1.55476C14.013 7.68613 13.6466 7.23524 11.876 1.75509L11.834 1.75181C13.556 7.31262 13.7074 7.81007 11.7903 1.76952L11.7063 1.76296C13.5049 8.23767 13.0706 7.84482 10.324 2.14069L10.24 2.13413C12.849 7.97532 12.939 8.44687 9.62876 2.38202C9.58674 2.37874 9.54144 2.41743 9.52044 2.41579C11.5961 6.69512 11.9554 7.77888 10.7205 6.26783C10.2881 5.57953 9.57163 4.46788 8.51303 2.86501L8.47101 2.86173C9.0325 3.79237 9.50205 4.54691 9.87638 5.16733C9.43574 4.58396 8.90153 3.84549 8.29311 2.97454C9.10971 4.15734 9.77624 5.09617 10.2523 5.76677C12.0061 8.75411 10.9437 7.74214 7.31953 3.53197L7.27423 3.57066C11.7586 8.94593 12.041 9.39026 6.96208 3.77855L6.89414 3.83659C11.6691 9.55126 10.9954 9.2453 5.74728 4.71834C11.0082 9.35187 11.525 9.77227 5.70199 4.75703L5.63404 4.81507C11.5648 10.3455 10.8117 10.2445 4.13899 6.3664L4.0937 6.40509C10.7307 10.4704 11.2104 10.8245 3.85738 6.72448L3.81045 6.78416C8.77572 9.78992 9.87229 10.6356 7.62973 9.84827C6.75252 9.44196 5.26139 8.7766 3.09497 7.82626L3.0917 7.86823C4.09005 8.34733 4.96562 8.77462 5.72005 9.12911C4.94134 8.81495 4.03984 8.44898 2.97354 8.02792C4.28377 8.5736 5.3678 9.03827 6.22727 9.40097C10.6422 11.6037 9.0133 11.3498 2.19774 9.57206L2.19446 9.61403C10.3445 11.8971 10.986 12.0739 2.14589 9.6947L2.14262 9.73667C10.7546 12.3303 9.86565 12.3454 1.65468 11.1132C9.92213 12.4342 10.7366 12.5612 1.59301 11.3618L1.58973 11.4038C11.0997 13.054 10.2913 13.3921 1.17486 14.0107L1.17158 14.0527C10.3816 13.5892 11.1008 13.582 1.15192 14.3045C10.9114 13.8417 10.0222 14.1312 1.19415 15.6591C10.0819 14.1781 10.9614 14.0145 1.18432 15.785C11.3425 14.2765 10.6276 14.7697 1.56184 17.9893C10.7665 14.8861 11.5038 14.648 1.59076 18.1605C11.4001 14.8933 10.5575 15.3976 1.94841 19.2652C10.6172 15.4445 11.4904 15.0904 2.24988 20.0066C11.9959 15.3832 11.4538 16.101 3.55019 22.304C11.57 16.2368 12.2396 15.7823 3.79711 22.6611C12.1779 16.0309 11.4886 16.7372 4.29749 23.2914C11.5064 16.7808 12.2731 16.165 4.84318 23.883C12.7094 16.2624 12.353 17.0369 6.36756 25.2055C12.4968 17.0904 13.0325 16.4565 6.86823 25.5613C13.0548 16.7116 12.5675 17.5393 7.31078 25.8492C12.6062 17.5845 13.2164 16.8087 8.54815 26.5159C13.6979 16.8674 13.5904 17.7036 10.3334 27.2042L10.3544 27.2058C13.7309 17.799 14.0647 17.0438 11.0573 27.4085C14.0887 17.278 13.8065 18.185 11.0783 27.4101C13.8452 18.2302 14.2114 17.3298 12.4745 27.6669C14.6172 17.277 14.6826 18.0633 13.8191 27.7719L13.8401 27.7735C14.7038 19.4163 14.9449 17.6826 14.9478 24.1439C14.9112 25.1545 14.8808 26.3556 14.8568 27.7473C14.8836 26.8626 14.9038 26.0618 14.9401 25.3257C14.9474 26.0441 14.9256 26.8659 14.9198 27.7522C14.9474 26.0441 14.9715 24.6524 14.9937 23.5562C15.2381 18.529 15.5524 19.377 16.5864 27.5234L16.6284 27.5267C15.7452 17.4495 15.9869 18.144 17.6421 27.2679L17.6631 27.2696C16.6833 21.4078 16.3205 19.0146 16.8893 20.6637C17.0178 21.455 17.5004 23.6674 18.2484 27.083C17.6742 24.42 17.2964 22.4902 17.1294 21.3792C17.4661 22.4824 17.9781 24.3171 18.6833 26.9269C17.872 23.7809 17.3278 21.817 17.0604 20.9093C16.878 19.1848 17.6569 20.8503 19.8201 26.4456L19.8621 26.4489C16.7812 17.4459 17.1168 18.0211 20.5478 26.059L20.5688 26.0606C17.9975 19.7367 17.3771 17.9358 19.5038 21.2901C20.0006 22.2368 20.7185 23.6019 21.6605 25.3435L21.9304 25.4068Z" fill="url(#paint1_radial_430_280)"/>
<path style="mix-blend-mode:color-dodge" opacity="0.3" d="M16.7564 2.60054C23.322 3.7887 27.6713 10.0825 26.4829 16.6407C25.2946 23.199 18.9947 27.5424 12.4291 26.3543C5.8634 25.1661 1.51412 18.8724 2.70246 12.3141C3.8908 5.75581 10.1907 1.41237 16.7564 2.60054Z" fill="url(#paint2_linear_430_280)"/>
<defs>
<radialGradient id="paint0_radial_430_280" cx="0" cy="0" r="1" gradientUnits="userSpaceOnUse" gradientTransform="translate(28.8507 -2.54903) rotate(55.5223) scale(44.6252 44.6356)">
<stop stop-color="#FF9D00"/>
<stop offset="0.1" stop-color="#F99800"/>
<stop offset="0.24" stop-color="#E88A00"/>
<stop offset="0.39" stop-color="#CD7300"/>
<stop offset="0.54" stop-color="#AD5700"/>
<stop offset="0.6" stop-color="#A15200"/>
<stop offset="0.72" stop-color="#824600"/>
<stop offset="0.86" stop-color="#513300"/>
<stop offset="1" stop-color="#1E1F00"/>
</radialGradient>
<radialGradient id="paint1_radial_430_280" cx="0" cy="0" r="1" gradientUnits="userSpaceOnUse" gradientTransform="translate(15.4808 12.4777) rotate(59.1634) scale(20.3 20.3075)">
<stop stop-color="#FFA600"/>
<stop offset="0.08" stop-color="#F9A100"/>
<stop offset="0.19" stop-color="#E89300"/>
<stop offset="0.31" stop-color="#CD7D00"/>
<stop offset="0.44" stop-color="#A85F00"/>
<stop offset="0.54" stop-color="#874400"/>
<stop offset="0.64" stop-color="#763E00"/>
<stop offset="0.82" stop-color="#4B2F00"/>
<stop offset="1" stop-color="#1E1F00"/>
</radialGradient>
<linearGradient id="paint2_linear_430_280" x1="6.78905" y1="17.1706" x2="50.2852" y2="2.07547" gradientUnits="userSpaceOnUse">
<stop/>
<stop offset="1" stop-color="white"/>
</linearGradient>
</defs>
</svg>
