<svg width="95" height="95" viewBox="0 0 95 95" fill="none" xmlns="http://www.w3.org/2000/svg">
<path style="mix-blend-mode:multiply" d="M71.976 83.3701C52.0318 97.0125 24.7439 91.9271 11.0831 72.0024C-2.57776 52.0776 2.50858 24.8204 22.4528 11.1779C42.3969 -2.46454 69.6849 2.62093 83.3457 22.5457C97.0066 42.4704 91.9202 69.7276 71.976 83.3701Z" fill="url(#paint0_radial_102_286)"/>
<path style="mix-blend-mode:screen" d="M82.8978 28.2807C60.2823 36.4371 57.0923 37.5954 83.6006 31.0095C57.3332 39.0216 60.7641 39.2894 84.896 38.7806C60.7259 39.779 57.3268 40.0062 84.7258 41.8635C57.4386 41.2815 61.0249 42.2651 84.1545 47.3779C60.9331 42.5394 57.3194 41.9055 83.0195 51.0891C56.5746 43.3251 59.5135 45.384 80.1738 57.7629C59.2652 45.8572 56.0835 44.2015 77.8758 61.0315C55.5115 45.2124 58.1157 47.9489 75.1412 64.4772C57.8192 48.1369 55.0532 45.6692 71.2164 67.8299C53.5873 46.3992 54.9575 49.6023 66.0093 71.364C54.5101 49.9192 52.6979 46.963 60.987 73.4348C51.674 47.4461 52.3922 50.8797 57.8779 74.4587C52.0312 50.9923 50.9574 47.6012 51.6126 75.3066C49.4925 47.4165 49.0368 50.5475 46.8131 75.4246C48.5357 50.6491 48.4313 47.4744 40.356 74.2168C47.311 47.387 46.3006 50.4043 38.4173 73.7841C45.9505 50.3769 46.6863 47.2678 32.4304 71.065C45.6206 46.481 43.8136 48.8731 29.6634 69.512C43.4099 48.6305 44.7431 45.9903 24.2494 64.8674C43.8011 45.4242 41.5313 47.4284 23.071 63.7199C41.3376 47.2022 43.3437 44.9663 19.3866 58.577C42.7954 43.868 40.2356 45.0755 18.01 56.3585C39.9183 44.6285 42.3008 42.985 15.3833 49.3982C41.6125 41.8757 38.6817 42.421 14.7123 47.1645C38.5689 42.0604 41.4516 41.2299 14.1579 41.6326C41.4689 40.1053 38.5982 39.8813 14.0207 38.8776C38.6418 39.3217 41.4808 39.0508 15.035 32.2015C41.5145 37.7164 38.7038 36.723 15.7653 29.1623C38.8011 36.3787 41.7037 37.0979 17.4068 25.2795C42.2593 36.2968 39.8478 34.7013 18.8319 22.365C40.1661 34.2335 42.7504 35.4204 22.1439 17.8386C43.4679 34.3505 41.5366 32.0184 24.9267 14.6782C41.763 31.825 43.9317 33.8238 27.3365 12.6849C44.8156 33.3299 43.5308 30.8371 30.8512 10.0742C43.9728 30.5901 45.694 32.9059 34.9578 8.00227C46.8744 32.224 46.328 29.2963 40.1148 6.01233C46.759 29.1892 47.5964 31.9989 42.3345 5.5523C48.6521 32.0109 48.8651 29.2832 48.1043 4.73607C49.3606 29.2515 49.6378 32.0175 51.336 4.84761C50.8336 32.0404 51.8222 29.3029 57.4758 5.60833C52.0968 29.3947 51.5229 32.235 58.8489 6.06734C52.4004 32.7257 53.9163 30.4515 65.2186 8.3941C54.3201 30.6941 53.2078 33.2109 67.2373 9.60719C54.2254 33.7125 56.4251 31.7029 72.5176 13.2562C56.6188 31.9291 54.6827 34.1704 73.7606 14.4791C55.5275 35.0808 58.2437 33.6744 78.7426 20.1456C58.491 34.1159 56.0275 35.8939 80.0437 22.4285C56.8668 36.8741 60.105 36.001 82.8333 28.2052L82.8978 28.2807Z" fill="url(#paint1_radial_102_286)"/>
<path style="mix-blend-mode:screen" opacity="0.3" d="M72.5683 82.9941C70.3051 78.5954 68.4075 74.9289 66.9455 72.0001C68.634 74.7355 70.7526 78.2785 73.2421 82.4837C69.2796 75.4896 66.4945 70.5576 64.7524 67.6069C61.1464 59.6554 64.4071 63.0061 77.0105 79.3299L77.1615 79.201C60.2136 55.3606 61.6448 56.8796 78.2346 78.0885L78.3046 78.0939C67.326 63.5154 63.4643 57.9364 68.5446 62.3439C70.3468 64.5252 74.3549 69.1305 80.2406 75.8526C75.5224 70.4179 72.0362 66.3459 70.0567 63.7285C72.4891 65.9591 76.2181 69.6278 81.2492 74.6647C74.7332 67.8934 70.6169 63.7723 68.7174 61.9352C66.0014 57.9234 70.3451 60.9364 83.4553 71.6704L83.6118 71.4715C63.4473 53.6427 64.9867 54.6776 84.3293 70.4016L84.3402 70.2618C67.3664 55.7782 64.8486 52.8373 81.6017 62.0262C83.2112 63.0666 85.0252 64.1933 87.0439 65.4064C85.8436 64.5387 84.7024 63.8163 83.6313 63.0994C84.7079 63.7463 85.9246 64.4042 87.1412 65.0621L87.1576 64.8523C82.8566 62.1945 79.4922 60.1727 76.9997 58.7115C68.5059 52.9117 71.4894 53.4964 88.7291 60.9641L88.751 60.6843C66.6774 50.1654 68.1741 50.8452 88.9128 60.4155L88.9237 60.2756C73.3109 52.7238 68.9289 50.2004 78.3258 52.5524C80.9265 53.5294 84.7602 54.9545 89.8969 56.8332C85.9341 55.2573 82.7197 54.0212 80.2591 53.0551C82.8115 53.7469 86.0478 54.7032 90.1079 55.9349L90.1188 55.795C83.3826 53.6508 78.9188 52.1764 76.5764 51.501C72.0271 49.3164 76.1472 49.7787 90.6282 52.8794L90.65 52.5996C68.6035 47.1492 70.133 47.4093 90.6883 52.11L90.7046 51.9002C70.3977 46.7263 68.8801 45.4116 90.9259 46.3585L90.9532 46.0088C70.1686 44.2456 71.779 44.3713 90.8995 45.7935L90.9105 45.6536C71.8764 44.0271 70.2396 43.3364 90.6715 42.398C90.6824 42.2582 90.6933 42.1183 90.6342 41.9729C71.3345 41.9441 69.7787 41.119 89.906 37.7644L89.9279 37.4847C88.2201 37.7032 86.7279 37.8682 85.3703 38.114C72.1503 39.6153 72.3395 38.9968 89.1387 34.9602L89.1605 34.6805C69.8243 38.7301 71.0473 38.4034 88.9723 34.3843L88.9942 34.1045C70.8273 37.6122 69.1851 36.9914 87.0439 29.3081C86.9848 29.1627 86.8611 28.942 86.802 28.7966C69.618 35.0549 70.7984 34.373 86.2537 27.6983L86.2647 27.5584C70.6911 33.9424 69.2689 34.1129 85.1463 25.6416L85.0226 25.4208C68.305 33.8265 69.3399 33.2036 84.8344 25.1247L84.7107 24.9039C69.1089 32.5523 67.6385 32.4375 82.5058 21.5653C82.4467 21.4199 82.3121 21.3391 82.183 21.1883C67.6295 30.748 68.5462 29.8344 81.5428 20.3643C68.4925 29.6192 67.2531 30.1557 80.5799 19.1632L80.4508 19.0124C66.2619 30.2191 67.0276 29.4344 80.0634 18.56L79.8698 18.3337C66.4357 28.8957 64.8734 29.0552 76.8027 15.2093C76.6736 15.0585 76.4745 14.9022 76.2754 14.7459C64.1752 27.1711 64.629 25.8696 74.5586 13.2749L74.4186 13.264C64.3007 25.5625 63.314 26.4706 73.4984 12.4181L73.2992 12.2619C62.3119 26.6739 62.8194 25.5876 72.4327 11.6313L72.2335 11.475C62.2866 25.1942 61.0471 25.7307 69.3483 9.63135C69.2137 9.55048 69.0091 9.46413 68.88 9.31332C60.106 24.2499 60.2798 22.9265 66.9905 8.25106L66.9205 8.24559C60.0806 22.7702 59.4977 23.921 66.6513 8.08385L66.5113 8.07292C58.8129 24.5712 59.0458 23.3931 65.4992 7.50135L65.2892 7.48495C58.3456 23.3385 57.2944 24.1712 62.1556 6.11448C61.9456 6.09809 61.7465 5.9418 61.5364 5.92541C55.7604 23.0663 55.4604 21.4948 58.5802 4.99098L58.4402 4.98005C55.1048 21.5374 54.7156 22.9144 57.961 4.80192L57.6809 4.78006C53.7453 23.6127 53.4289 22.251 55.263 4.16911L54.9829 4.14725C52.6587 22.1909 52.0003 23.4061 52.1986 3.71881L51.6384 3.67509C50.7075 18.3091 50.0208 20.7887 49.1455 13.0504C49.0401 10.7904 48.8657 7.6103 48.7031 3.37559L48.5631 3.36466C48.6148 5.40934 48.6775 7.31414 48.7619 8.93918C48.6074 7.30867 48.4693 5.46835 48.2775 3.41274L48.2075 3.40728C48.4247 6.94258 48.6855 9.91835 48.7963 12.1084C48.9522 22.746 48.2558 19.0325 46.1661 3.38865L45.956 3.37225C48.112 22.6804 47.8573 24.1382 43.6181 3.5416L43.128 3.50334C46.1823 23.9371 44.9612 22.4344 39.0605 4.17097L38.9205 4.16004C44.6592 22.6923 45.1638 24.3502 38.7749 4.21905L38.4949 4.19719C44.4891 25.7752 43.0415 24.466 33.8882 5.45604L33.6081 5.43418C42.3031 24.9009 42.603 26.4724 31.5711 6.26032C31.4311 6.24939 31.2801 6.37833 31.2101 6.37287C38.1276 20.6344 39.325 24.2462 35.2096 19.2104C33.7684 16.9165 31.3807 13.2118 27.8528 7.86997L27.7127 7.85904C29.584 10.9605 31.1488 13.4752 32.3963 15.5428C30.9279 13.5986 29.1475 11.1376 27.1198 8.23498C29.8413 12.1769 32.0626 15.3057 33.6493 17.5405C39.494 27.4963 35.9532 24.1238 23.8752 10.0927L23.7243 10.2217C38.6692 28.1356 39.6103 29.6164 22.684 10.9145L22.4575 11.1079C38.3708 30.153 36.1257 29.1333 18.6354 14.0465C36.1685 29.4885 37.8907 30.8895 18.4845 14.1754L18.2581 14.3688C38.0233 32.7998 35.5136 32.4631 13.2756 19.5389L13.1246 19.6679C35.2435 33.2161 36.842 34.3964 12.3371 20.7323L12.1807 20.9312C28.7282 30.9483 32.3827 33.7668 24.909 31.1428C21.9856 29.7887 17.0162 27.5713 9.79621 24.4041L9.7853 24.544C13.1125 26.1407 16.0305 27.5647 18.5447 28.7461C15.9495 27.6991 12.9451 26.4795 9.39153 25.0762C13.7581 26.8947 17.3708 28.4434 20.2351 29.6521C34.9487 36.9929 29.52 36.1469 6.80603 30.2223L6.79511 30.3622C33.9565 37.971 36.0944 38.56 6.63326 30.631L6.62234 30.7709C35.3232 39.4146 32.3606 39.4648 4.99622 35.3585C32.5488 39.761 35.2632 40.184 4.79067 36.1869L4.77975 36.3268C36.4734 41.8265 33.779 42.9532 3.39712 45.0147L3.3862 45.1546C34.0799 43.61 36.4769 43.586 3.32068 45.9939C35.8458 44.4515 32.8822 45.4164 3.4614 50.5084C33.0814 45.5727 36.0122 45.0274 3.42865 50.928C37.2825 45.9006 34.9 47.5442 4.68681 58.274C35.3628 47.9321 37.8199 47.1388 4.78318 58.8445C37.4743 47.9562 34.6662 49.6369 5.97513 62.5263C34.8653 49.7932 37.7752 48.613 6.9798 64.9972C39.4602 49.5889 37.6532 51.9811 11.3133 72.6536C38.0405 52.4335 40.2721 50.9189 12.1362 73.8437C40.0666 51.7473 37.7695 54.1012 13.8038 75.9442C37.8286 54.2465 40.3839 52.1943 15.6224 77.9157C41.8379 52.5189 40.6502 55.1001 20.7026 82.3232C41.1294 55.2782 42.9146 53.1658 22.3712 83.5089C42.9891 54.016 41.3649 56.7743 23.8461 84.4684C41.494 56.9251 43.5274 54.3395 27.9698 86.6902C45.1323 54.5352 44.7739 57.3219 33.9194 88.9842L33.9895 88.9897C45.2422 57.6399 46.3545 55.1232 36.3319 89.6651C46.4344 55.9034 45.494 58.9262 36.4019 89.6705C45.6231 59.077 46.8436 56.0761 41.0549 90.5263C48.1958 55.9002 48.4139 58.5208 45.5361 90.8761L45.6061 90.8816C48.4846 63.0298 49.2879 57.2521 49.2977 78.7851C49.1757 82.1532 49.0745 86.1563 48.9943 90.7942C49.0835 87.8458 49.151 85.1771 49.272 82.7237C49.2965 85.1181 49.2236 87.8567 49.2044 90.8106C49.2965 85.1181 49.3767 80.4801 49.4506 76.8268C50.2653 60.0726 51.3127 62.8987 54.7586 90.0479L54.8986 90.0588C51.955 56.4751 52.7605 58.7897 58.2769 89.1967L58.3469 89.2021C55.0815 69.6667 53.8725 61.6912 55.7682 67.1871C56.1963 69.8241 57.8046 77.1974 60.2974 88.5804C58.3837 79.7055 57.1246 73.2741 56.5683 69.5716C57.6902 73.2479 59.3967 79.3624 61.7469 88.0602C59.0431 77.5756 57.2293 71.0306 56.3383 68.0056C55.7302 62.2584 58.3261 67.809 65.5353 86.456L65.6753 86.467C55.4077 56.4631 56.5261 58.38 67.9605 85.1676L68.0306 85.1731C59.4612 64.0977 57.3936 58.0959 64.4813 69.2746C66.1371 72.4296 68.5293 76.9791 71.6689 82.7832L72.5683 82.9941Z" fill="url(#paint2_radial_102_286)"/>
<path style="mix-blend-mode:color-dodge" opacity="0.3" d="M55.3248 6.98865C77.2059 10.9484 91.7006 31.9233 87.7402 53.7798C83.7799 75.6363 62.7845 90.1115 40.9034 86.1518C19.0223 82.192 4.52765 61.2171 8.48798 39.3606C12.4483 17.5041 33.4437 3.0289 55.3248 6.98865Z" fill="url(#paint3_linear_102_286)"/>
<defs>
<radialGradient id="paint0_radial_102_286" cx="0" cy="0" r="1" gradientUnits="userSpaceOnUse" gradientTransform="translate(95.6345 -10.1735) rotate(55.5223) scale(148.721 148.755)">
<stop stop-color="#FF9D00"/>
<stop offset="0.1" stop-color="#F99800"/>
<stop offset="0.24" stop-color="#E88A00"/>
<stop offset="0.39" stop-color="#CD7300"/>
<stop offset="0.54" stop-color="#AD5700"/>
<stop offset="0.6" stop-color="#A15200"/>
<stop offset="0.72" stop-color="#824600"/>
<stop offset="0.86" stop-color="#513300"/>
<stop offset="1" stop-color="#1E1F00"/>
</radialGradient>
<radialGradient id="paint1_radial_102_286" cx="0" cy="0" r="1" gradientUnits="userSpaceOnUse" gradientTransform="translate(13.8534 -24.131) rotate(-15.2765) scale(120.221 120.118)">
<stop/>
<stop offset="0.04" stop-color="#060300"/>
<stop offset="0.5" stop-color="#4B2500"/>
<stop offset="0.83" stop-color="#763B00"/>
<stop offset="1" stop-color="#874400"/>
</radialGradient>
<radialGradient id="paint2_radial_102_286" cx="0" cy="0" r="1" gradientUnits="userSpaceOnUse" gradientTransform="translate(51.0741 39.9059) rotate(59.1634) scale(67.6531 67.6781)">
<stop stop-color="#FFA600"/>
<stop offset="0.08" stop-color="#F9A100"/>
<stop offset="0.19" stop-color="#E89300"/>
<stop offset="0.31" stop-color="#CD7D00"/>
<stop offset="0.44" stop-color="#A85F00"/>
<stop offset="0.54" stop-color="#874400"/>
<stop offset="0.64" stop-color="#763E00"/>
<stop offset="0.82" stop-color="#4B2F00"/>
<stop offset="1" stop-color="#1E1F00"/>
</radialGradient>
<linearGradient id="paint3_linear_102_286" x1="22.1072" y1="55.5456" x2="167.065" y2="5.23875" gradientUnits="userSpaceOnUse">
<stop/>
<stop offset="1" stop-color="white"/>
</linearGradient>
</defs>
</svg>
