<svg width="47" height="63" viewBox="0 0 47 63" fill="none" xmlns="http://www.w3.org/2000/svg">
<path style="mix-blend-mode:multiply" d="M13.3305 59.9195C29.0952 61.15 42.8714 49.3819 44.1006 33.6347C45.3298 17.8875 33.5465 4.12423 17.7818 2.89367C2.01711 1.6631 -11.7592 13.4312 -12.9884 29.1784C-14.2176 44.9257 -2.43423 58.6889 13.3305 59.9195Z" fill="url(#paint0_radial_430_304)"/>
<path style="mix-blend-mode:screen" d="M39.0516 19.2196C24.2127 24.3815 22.1287 25.1086 39.496 21.0031C22.271 26.0401 24.4973 26.2446 40.2962 26.0972C24.5016 26.5824 22.2797 26.7158 40.172 28.0818C22.3705 27.5206 24.655 28.1591 39.7666 31.7011C24.6078 28.3702 22.248 27.9099 38.9962 34.0955C21.7773 28.8242 23.697 30.2013 37.1222 38.4286C23.5534 30.4662 21.4878 29.3846 35.6075 40.5194C21.0997 30.0293 22.7723 31.8166 33.8038 42.7717C22.6359 31.99 20.7987 30.3433 31.2064 44.9621C19.8376 30.8512 20.7185 32.9449 27.8033 47.2429C20.4576 33.1393 19.2877 31.2071 24.5069 48.5504C18.5875 31.5206 19.0267 33.7639 22.4582 49.2188C18.8058 33.8387 18.1482 31.6397 18.3336 49.7252C17.1455 31.5001 16.8004 33.5595 15.1982 49.7566C16.4622 33.5637 16.4691 31.5087 10.9928 48.9375C15.7364 31.4515 15.0298 33.4212 9.72726 48.6239C14.8184 33.3741 15.3137 31.3571 5.84462 46.8175C14.6449 30.8754 13.4502 32.4082 4.02086 45.7854C13.1545 32.2624 14.0557 30.5533 0.515332 42.6891C13.4432 30.1373 11.9294 31.4304 -0.256575 41.9539C11.7863 31.2965 13.1288 29.8366 -2.6345 38.5774C12.7819 29.1652 11.0643 29.9209 -3.5043 37.1289C10.9026 29.6321 12.4608 28.5572 -5.14352 32.5522C12.0576 27.8201 10.1267 28.1603 -5.55063 31.0784C10.0542 27.9092 11.9383 27.3812 -5.88271 27.4628C11.9649 26.647 10.105 26.4711 -5.92782 25.6798C10.1312 26.1357 12.0173 25.9761 -5.2187 21.3171C12.0534 25.1198 10.2034 24.4232 -4.72577 19.3307C10.2506 24.2121 12.1454 24.7282 -3.6381 16.8077C12.4959 24.1726 10.9493 23.1314 -2.692 14.918C11.1563 22.8408 12.877 23.6194 -0.495352 11.96C13.3333 22.888 12.069 21.378 1.35274 9.92591C12.2336 21.2374 13.6319 22.6045 2.92524 8.66801C14.2076 22.3119 13.385 20.6523 5.238 6.97701C13.674 20.4908 14.7857 21.9889 7.91907 5.68292C15.5541 21.5887 15.2108 19.6903 11.2718 4.44127C15.4293 19.646 15.9934 21.4696 12.7352 4.18733C16.665 21.522 16.836 19.7252 16.5192 3.71568C17.1413 19.749 17.3367 21.5744 18.6305 3.81912C18.1352 21.5754 18.7665 19.7838 22.6131 4.34477C18.9473 19.8286 18.5249 21.6978 23.5099 4.66022C19.1117 22.0505 20.1184 20.5643 27.6582 6.21126C20.3837 20.7077 19.6398 22.3678 28.9773 7.01989C20.3229 22.6666 21.7451 21.3663 32.413 9.43574C21.8859 21.5307 20.6349 22.9977 33.2083 10.2648C21.1416 23.5895 22.9016 22.6838 36.4173 14.0129C23.0634 22.9725 21.4675 24.1366 37.2236 15.4872C21.9718 24.7589 24.133 24.2219 39.0163 19.2782L39.0516 19.2196Z" fill="url(#paint1_radial_430_304)"/>
<path style="mix-blend-mode:screen" opacity="0.3" d="M31.8775 54.8963C30.4149 51.9901 29.189 49.5932 28.2656 47.6495C29.3536 49.4527 30.7087 51.7676 32.303 54.5613L32.3335 54.5637C29.804 49.9787 27.9988 46.739 26.8946 44.7505C24.5701 39.5065 26.7309 41.7309 34.8297 52.4883L34.9284 52.404C24.0491 36.7352 24.9546 37.7264 35.6595 51.6941L35.7254 51.6379C28.6375 42.0946 26.1587 38.4341 29.4626 41.3614C30.6096 42.801 33.1994 45.8259 37.0302 50.2671C33.9947 46.6551 31.7475 43.9637 30.4363 42.2658C32.0389 43.7717 34.4344 46.1371 37.6744 49.489C33.4749 45.0497 30.8027 42.2945 29.5451 41.0917C27.8144 38.4714 30.6377 40.4714 39.0855 47.5436L39.189 47.3983C26.1334 35.6094 27.1567 36.2723 39.6429 46.6974L39.7135 46.5802C28.6661 37.0038 27.0686 35.0382 37.9246 41.1633C38.9784 41.8286 40.1472 42.5949 41.4334 43.4317L41.4382 43.3707C40.6496 42.8489 39.9197 42.3623 39.2179 41.9087C39.9244 42.3013 40.7178 42.7622 41.5111 43.223L41.5817 43.1058C38.7394 41.3497 36.5425 39.9815 34.93 38.9965C29.4265 35.1303 31.3589 35.5574 42.5776 40.5757L42.5919 40.3927C28.2422 33.381 29.2211 33.8257 42.6978 40.2169L42.7049 40.1254C32.5618 35.0991 29.7476 33.3759 35.8241 35.0164C37.4932 35.6684 40.0287 36.6335 43.3389 37.9046C40.7471 36.8737 38.6624 36.0359 37.0567 35.3582C38.7096 35.8248 40.8391 36.482 43.4475 37.2994L43.457 37.1774C39.0879 35.7009 36.1508 34.7658 34.6223 34.2783C31.6341 32.8176 34.3416 33.1518 43.7901 35.2706C43.7948 35.2096 43.7996 35.1486 43.8044 35.0876C29.4443 31.358 30.4141 31.5257 43.8281 34.7826L43.84 34.6301C30.6001 31.1107 29.624 30.2368 44.0315 30.9941C44.0387 30.9026 44.0434 30.8416 44.0506 30.7501C30.4843 29.4449 31.5504 29.5589 44.0625 30.5976L44.0672 30.5366C31.6587 29.3526 30.5906 28.8703 43.9261 28.4086C43.9332 28.3171 43.9098 28.2233 43.884 28.1599C31.2443 27.9702 30.2702 27.4646 43.4217 25.4238C43.4265 25.3629 43.4007 25.2995 43.375 25.2361C42.2898 25.3661 41.3291 25.4752 40.4601 25.5913C31.7907 26.4789 31.9437 26.092 42.9515 23.5769L42.9024 23.4197C30.2976 25.9327 31.0822 25.7179 42.8556 23.232C42.8603 23.171 42.8346 23.1076 42.8088 23.0442C30.9981 25.2204 29.9253 24.7991 41.6705 19.9179C41.6166 19.8216 41.565 19.6949 41.5111 19.5986C30.2365 23.5655 31.0096 23.1043 41.169 18.8662L41.1761 18.7747C30.9676 22.8556 30.0093 22.9341 40.4751 17.5234L40.393 17.3943C29.3801 22.7316 30.085 22.3571 40.2852 17.2018L40.2055 17.0421C29.9657 21.9182 28.9912 21.8114 38.8103 14.8468C38.7564 14.7506 38.7001 14.6848 38.6156 14.5862C29.0439 20.7417 29.6739 20.1466 38.2287 14.0344L38.2334 13.9734C29.5942 19.987 28.7695 20.3214 37.586 13.2172L37.5015 13.1185C28.1518 20.3652 28.6855 19.824 37.2787 12.825C37.22 12.7897 37.1943 12.7263 37.1356 12.6911C28.2795 19.5161 27.293 19.5618 35.1461 10.6334C35.0311 10.5324 34.9466 10.4338 34.8317 10.3327C26.8339 18.36 27.1448 17.5253 33.7382 9.38826L33.6513 9.32011C26.943 17.3561 26.2848 17.9183 33.0435 8.8431L32.9286 8.74207C25.6576 18.0841 25.9613 17.3408 32.3489 8.29794C32.2902 8.26268 32.2621 8.2298 32.2034 8.19453C25.614 17.0682 24.7869 17.4331 30.3328 6.97458C30.2155 6.90405 30.1286 6.8359 30.0113 6.76537C24.1843 16.4963 24.3167 15.5862 28.7743 6.0858L28.7132 6.08103C24.1359 15.5414 23.7406 16.2775 28.5067 5.97285L28.4151 5.9657C23.247 16.6992 23.431 15.9159 27.7672 5.60828L27.6193 5.53537C22.973 15.8801 22.2538 16.4375 25.5981 4.67181C25.4784 4.63178 25.3305 4.55887 25.2107 4.51883C21.2987 15.6879 21.133 14.6625 23.2621 3.90639L23.1705 3.89924C20.8558 14.6716 20.6013 15.5721 22.8699 3.8144L22.7173 3.80248C20.009 16.0781 19.8337 15.1747 21.1512 3.40401C21.0902 3.39924 21.0291 3.39447 20.968 3.3897C19.3429 15.167 18.8818 15.9594 19.1482 3.09414C19.0261 3.0846 18.904 3.07506 18.7819 3.06552C18.0349 12.641 17.6341 14.2358 17.106 9.19354C17.0675 7.71784 16.985 5.62509 16.8915 2.88717C16.8915 2.88717 16.8304 2.8824 16.7999 2.88002C16.8173 4.23134 16.8467 5.4302 16.8855 6.50707C16.8138 5.45831 16.7257 4.22419 16.6167 2.86571L16.5556 2.86094C16.6801 5.20242 16.8074 7.11459 16.9093 8.56455C16.9517 15.5018 16.4657 13.0707 15.2358 2.84988L15.0831 2.83796C16.3388 15.4846 16.1453 16.3899 13.54 2.93218C13.4485 2.92503 13.324 2.94599 13.23 2.96933C15.0768 16.3064 14.2957 15.2943 10.5617 3.31315L10.5006 3.30838C14.0983 15.463 14.4448 16.5332 10.4067 3.33172L10.2188 3.3784C14.0047 17.4499 13.0567 16.6088 7.21187 4.12531L7.05447 4.17437C12.6032 16.9109 12.8018 17.9082 5.69891 4.62074C5.60495 4.64408 5.54151 4.66981 5.44517 4.72365C9.87462 14.0899 10.6402 16.4814 7.98263 13.1444C7.05408 11.6605 5.49711 9.17645 3.25305 5.65692L3.1567 5.71076C4.35486 7.6759 5.3631 9.31939 6.14614 10.6998C5.20332 9.39895 4.06821 7.80691 2.74318 5.89322L2.71265 5.89084C4.47618 8.48308 5.8809 10.5564 6.90342 12.0169C10.6311 18.567 8.37871 16.3355 0.560175 7.10334L0.463835 7.15718C10.0764 18.9839 10.7096 19.9231 -0.215333 7.59502L-0.37749 7.70508C9.88493 20.2576 8.40369 19.5589 -2.9205 9.59274L-2.95102 9.59036C8.41519 19.8053 9.47814 20.7474 -3.01922 9.67707C-3.05213 9.70518 -3.11794 9.7614 -3.15085 9.78951C9.62722 21.9863 7.98819 21.7355 -6.4539 13.1519L-6.555 13.2667C7.82325 22.2749 8.83704 23.0597 -7.09817 13.9299L-7.19927 14.0447C3.55279 20.714 5.89716 22.5539 1.02565 20.8234C-0.899248 19.9061 -4.13173 18.4263 -8.78914 16.3137L-8.79628 16.4052C-6.63667 17.4636 -4.71415 18.4115 -3.12031 19.2417C-4.7871 18.5592 -6.78019 17.7285 -9.06906 16.752C-6.24733 17.9849 -3.86926 18.9991 -1.9959 19.7897C7.54136 24.7073 4.02381 24.1258 -10.7398 20.0578L-10.7469 20.1493C6.97241 25.3072 8.32004 25.75 -10.8528 20.3251L-10.8599 20.4166C7.82167 26.2326 5.8817 26.2958 -11.9526 23.3993C6.02008 26.4907 7.77885 26.7815 -12.0894 23.9716L-12.0989 24.0935C8.58092 27.918 6.80708 28.6078 -13.0322 29.758L-13.0394 29.8495C7.01563 29.0843 8.58449 29.0535 -13.0822 30.3984L-13.0869 30.4594C8.2011 29.6372 6.24884 30.2517 -13.0358 33.3474C6.33567 30.3198 8.26414 30.0103 -13.0267 33.6242L-13.0314 33.6852C9.10903 30.5978 7.58379 31.6446 -12.2353 38.4416L-12.2401 38.5026C7.90057 31.9148 9.50749 31.396 -12.1417 38.8171C9.27912 31.9611 7.44621 33.0145 -11.3785 41.2392C7.59171 33.1179 9.49243 32.3766 -10.7671 42.8516C10.5486 33.0114 9.38458 34.5465 -7.96564 47.8874L-7.93511 47.8898C9.66846 34.8448 11.1255 33.8848 -7.384 48.6999C10.9887 34.4571 9.48648 35.9965 -6.2933 50.0737C9.57331 36.0646 11.2139 34.7201 -5.10386 51.3632C12.179 34.9489 11.4328 36.6394 -1.80002 54.2905L-1.76949 54.2929C11.7615 36.7571 12.9442 35.3768 -0.694644 55.0825C12.9929 35.9329 11.8967 37.7802 0.269985 55.7101C11.9835 37.8483 13.3426 36.175 2.94819 57.2079L2.97872 57.2103C14.404 36.3499 14.1415 38.1396 6.81939 58.7682L6.88045 58.773C14.4302 38.3769 15.2021 36.7498 8.41125 59.2301C15.2556 37.2449 14.6407 39.2218 8.47231 59.2348C14.697 39.2875 15.5538 37.3602 11.4966 59.8393L11.5272 59.8417C16.451 37.2769 16.5644 38.9732 14.4579 60.0706L14.519 60.0754C16.5826 41.8893 17.1829 38.1318 17.0374 52.203C16.9577 54.4058 16.8471 57.005 16.7313 60.0641C16.8201 58.1381 16.897 56.3646 16.9902 54.7765C16.9581 56.3694 16.9446 58.1172 16.9169 60.0479C17.0215 56.3437 17.1373 53.2846 17.2007 50.8965C17.8716 39.9344 18.525 41.7956 20.6069 59.5998L20.6679 59.6046C19.0035 37.6297 19.4999 39.1411 22.8902 59.0725L22.9513 59.0773C20.9395 46.2795 20.2096 41.0681 21.4343 44.6614C21.698 46.4002 22.6749 51.2013 24.2105 58.6847C23.0373 52.8557 22.2289 48.6507 21.8954 46.2315C22.6 48.6183 23.6693 52.629 25.1267 58.3575C23.4191 51.5049 22.3125 47.1845 21.7297 45.2061C21.3483 41.4332 23.0309 45.0623 27.6031 57.3237L27.6995 57.2698C21.183 37.6465 21.9121 38.9307 29.2033 56.4976L29.2644 56.5023C23.7989 42.6985 22.5112 38.7321 27.0647 46.1137C28.1288 48.2218 29.6807 51.1657 31.6567 54.9711L31.8775 54.8963Z" fill="url(#paint2_radial_430_304)"/>
<path style="mix-blend-mode:color-dodge" opacity="0.3" d="M9.20749 5.32309C23.2581 1.60296 37.6837 10.0004 41.3798 24.0339C45.1064 38.0698 36.7023 52.4782 22.654 56.1678C8.60331 59.8879 -5.82221 51.4905 -9.5183 37.457C-13.2449 23.421 -4.84079 9.01272 9.20749 5.32309Z" fill="url(#paint3_linear_430_304)"/>
<defs>
<radialGradient id="paint0_radial_430_304" cx="0" cy="0" r="1" gradientUnits="userSpaceOnUse" gradientTransform="translate(28.2401 -16.0211) rotate(30.3984) scale(97.234 97.1676)">
<stop stop-color="#FF9D00"/>
<stop offset="0.1" stop-color="#F99800"/>
<stop offset="0.24" stop-color="#E88A00"/>
<stop offset="0.39" stop-color="#CD7300"/>
<stop offset="0.54" stop-color="#AD5700"/>
<stop offset="0.6" stop-color="#A15200"/>
<stop offset="0.72" stop-color="#824600"/>
<stop offset="0.86" stop-color="#513300"/>
<stop offset="1" stop-color="#1E1F00"/>
</radialGradient>
<radialGradient id="paint1_radial_430_304" cx="0" cy="0" r="1" gradientUnits="userSpaceOnUse" gradientTransform="translate(-5.68922 -15.5435) rotate(-14.657) scale(78.5354 78.4672)">
<stop/>
<stop offset="0.04" stop-color="#060300"/>
<stop offset="0.5" stop-color="#4B2500"/>
<stop offset="0.83" stop-color="#763B00"/>
<stop offset="1" stop-color="#874400"/>
</radialGradient>
<radialGradient id="paint2_radial_430_304" cx="0" cy="0" r="1" gradientUnits="userSpaceOnUse" gradientTransform="translate(18.1205 26.6948) rotate(59.7928) scale(44.2175 44.2303)">
<stop stop-color="#FFA600"/>
<stop offset="0.08" stop-color="#F9A100"/>
<stop offset="0.19" stop-color="#E89300"/>
<stop offset="0.31" stop-color="#CD7D00"/>
<stop offset="0.44" stop-color="#A85F00"/>
<stop offset="0.54" stop-color="#874400"/>
<stop offset="0.64" stop-color="#763E00"/>
<stop offset="0.82" stop-color="#4B2F00"/>
<stop offset="1" stop-color="#1E1F00"/>
</radialGradient>
<linearGradient id="paint3_linear_430_304" x1="3.06662" y1="43.2391" x2="74.7955" y2="-26.7017" gradientUnits="userSpaceOnUse">
<stop/>
<stop offset="1" stop-color="white"/>
</linearGradient>
</defs>
</svg>
