<svg width="91" height="91" viewBox="0 0 91 91" fill="none" xmlns="http://www.w3.org/2000/svg">
<mask id="mask0_102_203" style="mask-type:alpha" maskUnits="userSpaceOnUse" x="12" y="12" width="67" height="67">
<path style="mix-blend-mode:overlay" d="M59.8604 15.9623C43.4517 8.06727 23.7436 14.9842 15.8412 31.4116C7.93876 47.839 14.8344 67.5563 31.2431 75.4513C47.6518 83.3463 67.3598 76.4294 75.2623 60.002C83.1647 43.5745 76.269 23.8573 59.8604 15.9623Z" fill="url(#paint0_radial_102_203)"/>
</mask>
<g mask="url(#mask0_102_203)">
<path style="mix-blend-mode:multiply" d="M71.1456 66.1693C73.0348 67.2678 74.4958 68.4162 75.8392 69.9876C73.8598 68.4766 71.4888 68.0145 69.213 68.3398C67.7367 68.5407 66.587 69.1558 65.2632 69.6269C63.0528 70.4215 60.9963 69.8598 58.6133 68.8839C58.5565 68.859 58.5191 68.9443 58.5759 68.9692C60.5079 69.8153 62.4807 70.6455 64.3871 70.1584C66.0607 69.7388 67.4168 68.8073 69.1827 68.5638C68.5412 68.7913 68.1625 69.2695 67.9592 70.1975C67.8113 70.8445 68.1856 71.3814 68.0945 72.0533C67.9372 73.3404 66.8497 73.8132 65.7552 74.1474C64.1952 74.6168 62.4243 74.4852 60.7177 73.975C62.9322 74.6399 65.4083 74.7074 67.1731 73.6159C67.9142 73.1608 68.0353 72.8071 68.2047 72.0338C68.4114 71.1752 68.0838 69.913 68.6155 69.1629C68.8752 68.802 69.7972 68.6296 70.3729 68.4749C70.3729 68.4749 70.3853 68.4465 70.3978 68.418C72.3411 68.3878 74.1898 68.9602 75.9723 70.1476C76.3556 70.5867 76.7424 71.0951 77.1168 71.632L77.1043 71.6604C77.3616 72.0782 77.6437 72.439 77.885 72.8159C77.9737 72.9225 78.0555 72.8905 78.1212 72.8176C78.4139 73.3865 78.719 73.9269 79.2159 74.4158C79.3047 74.5224 79.509 74.4424 79.4327 74.3073C78.4058 72.3999 77.6026 70.5227 76.0992 69.0846C75.1357 67.8829 73.7794 66.8821 72.3892 66.0359C71.7805 65.2609 71.3957 64.516 71.2171 63.4548C71.0421 62.4629 71.1192 61.5136 70.8464 60.5128C70.2461 58.2498 68.9918 56.2428 67.2881 54.4119C67.2312 54.387 67.1904 54.403 67.2347 54.4563C69.9091 57.6276 70.4308 60.5341 70.8329 64.1001C70.8823 64.5285 70.985 64.9125 71.1251 65.2111C70.5853 64.9747 70.0455 64.7383 69.5181 64.4734C68.3622 63.8654 67.1655 63.2735 66.0345 62.6087C64.5007 61.3945 63.7026 59.8924 63.0469 57.9103C62.4551 56.0918 62.1065 54.4137 60.9106 52.7374C60.8663 52.684 60.7437 52.732 60.788 52.7854C62.5089 55.5052 62.4778 58.7458 64.3746 61.3732C64.4793 61.5207 64.6124 61.6807 64.7295 61.7998C61.2284 59.5885 58.3796 56.8153 58.0776 52.4796C58.0582 52.3694 57.9036 52.3356 57.8947 52.4334C57.8403 56.0367 60.1717 59.2952 63.3494 61.7039C65.3572 63.2273 67.5324 64.2139 69.743 65.3516C70.0271 65.476 70.2579 65.6449 70.5136 65.7569C68.8638 65.2716 67.1512 65.4707 65.327 65.3836C64.5615 65.3534 63.8208 65.2663 63.0891 65.0814C61.7573 64.5659 60.4185 63.9117 59.741 62.598C59.3082 61.7306 59.2733 61.0373 59.0893 60.1431C58.815 58.8365 58.2013 57.6864 57.2039 56.6394C57.1151 56.5327 56.9676 56.6376 57.0563 56.7442C58.162 58.0081 58.7348 59.1743 58.9627 60.664C59.0794 61.3252 59.1269 61.9901 59.4514 62.6407C59.916 63.59 60.7255 64.2157 61.6506 64.6548C57.5041 63.1438 54.4714 59.4765 52.709 55.3826C52.693 55.3417 52.6238 55.3453 52.6273 55.4146C53.9514 58.8081 56.2385 62.0132 59.6723 63.9917C61.217 64.8717 62.8579 65.4547 64.5186 65.6058C66.7655 65.8102 68.9206 65.2965 71.0694 66.0342L71.1456 66.1693ZM84.3634 41.7886C86.3296 41.9379 88.1978 42.6205 89.8981 44.3821C89.9549 44.407 90.0082 44.3626 89.9638 44.3093C88.2406 42.3681 86.1771 41.6677 83.9905 41.5575C83.2214 41.4579 82.4718 41.4686 81.7242 41.2429C80.5254 40.8873 79.7588 40.0092 78.7664 39.3372C77.6603 38.6155 76.5448 38.5338 75.2534 38.5444C75.225 38.532 75.2285 38.6013 75.2285 38.6013C76.9107 38.6262 78.0685 38.9977 79.4533 40.011C79.9148 40.3487 80.2947 40.7185 80.7811 40.9993C81.5109 41.4206 82.264 41.4793 83.0171 41.5379C81.2408 41.5735 79.3842 41.9468 77.5401 42.2917C75.046 42.4197 73.248 40.6492 71.1511 39.5613C69.4947 38.3952 68.7235 36.5997 67.4937 35.0781C66.3596 33.8017 66.4108 32.0614 65.1541 30.833C64.0146 29.7238 62.4147 29.1247 60.8606 28.8848C60.8037 28.8599 60.7948 28.9576 60.8232 28.9701C62.9759 29.2349 64.9502 30.3708 65.9931 32.3192C66.4224 33.1173 66.6313 33.9546 67.1263 34.6799C66.9489 34.4666 66.7589 34.2817 66.569 34.0968C64.9395 32.6374 62.7744 32.4009 60.6695 32.2588C60.6411 32.2463 60.6322 32.3441 60.6446 32.3156C62.2236 32.4987 63.9537 32.6462 65.3812 33.4071C66.8247 34.2088 67.6248 35.4745 68.4818 36.7651C69.1737 37.8139 69.8426 38.6831 70.7782 39.3302C70.693 39.2929 70.6078 39.2555 70.5225 39.2182C69.1304 38.6085 67.6421 38.2956 66.1075 38.1659C63.1927 37.9401 61.0914 37.8673 58.5881 36.1607C57.6401 35.5421 57.0045 35.0604 55.8945 34.8115C55.8377 34.7866 55.7879 34.9004 55.8571 34.8968C57.7981 35.6452 59.1983 37.2415 61.1766 37.9046C63.2526 38.5765 65.6065 38.1499 67.7378 38.5409C70.8654 39.1311 73.7192 42.2793 76.8632 42.3682C75.3087 42.6704 73.7791 42.9157 72.2799 42.9371C68.475 42.9655 65.5818 40.1391 61.8123 40.3186C58.9151 40.4395 56.2921 41.867 53.7757 43.2056C53.7757 43.2056 53.7633 43.2341 53.8041 43.2181C57.5804 41.2448 61.4205 39.4352 65.6592 41.1221C66.199 41.3585 66.7104 41.5825 67.1934 41.7941C66.3854 41.4741 65.57 41.5576 64.7721 41.9878C63.9209 42.4625 63.2526 42.9833 62.3251 43.3229C61.561 43.5984 60.7775 43.7638 60.01 43.97C59.9691 43.986 59.9726 44.0553 60.0419 44.0517C61.1025 43.8722 62.188 43.6358 63.1654 43.1824C64.6989 42.4643 65.7763 41.2412 67.6196 41.9807C67.6196 41.9807 67.4775 41.9185 67.4207 41.8936C68.8128 42.5033 70.0913 43.0633 71.8179 43.1415C74.1714 43.257 76.5877 42.6881 78.9825 42.2455C76.4646 43.2783 74.3102 45.1822 71.4997 45.6462C67.9306 46.2186 64.3379 45.2214 60.9598 46.8267C60.9189 46.8427 60.91 46.9404 60.9917 46.9084C64.6504 45.3583 68.4171 46.4995 72.1675 45.6675C71.6771 45.8595 71.3163 46.1422 70.9341 46.551C69.8621 47.607 69.0482 47.9963 67.5879 48.2381C66.0174 48.4994 64.8003 48.8816 63.7513 50.1171C63.7264 50.174 63.7832 50.1988 63.8081 50.142C65.3281 48.6043 67.0138 48.6985 68.9167 48.1421C70.4358 47.6887 71.096 46.1813 72.4696 45.5964C75.0618 44.9351 77.1061 43.0508 79.5617 42.1602C81.1446 41.8704 82.6902 41.6659 84.2088 41.7548C80.4385 43.0188 77.6044 46.3199 73.4351 46.5617C73.4067 46.5492 73.3978 46.647 73.4386 46.631C77.6343 46.6381 80.5521 43.0685 84.3349 41.7761L84.3634 41.7886ZM39.4817 74.0641C39.4817 74.0641 39.2758 73.8383 39.1871 73.7317L39.2439 73.7566C39.2439 73.7566 39.3805 73.9859 39.4533 74.0517L39.4817 74.0641ZM37.1445 69.0405C36.813 68.2512 36.3055 67.5543 35.5847 67.0353C35.022 66.6193 34.3596 66.4309 33.7096 66.214C32.5642 65.814 31.6446 65.2079 30.8335 64.2764C30.8335 64.2764 30.7767 64.2515 30.8211 64.3048C31.5379 65.2968 32.3439 65.8532 33.4609 66.2407C35.187 66.8611 36.5293 67.5846 37.2243 69.2449C37.3659 69.8493 37.4951 70.4821 37.7219 71.1239C38.0515 72.1496 38.5944 72.9975 39.2155 73.7441C38.1756 72.4073 37.7259 70.651 37.4216 69.0262C36.6895 64.9767 36.7918 61.4961 33.9843 58.1648C33.9115 58.099 33.8457 58.1719 33.8777 58.2537C36.5855 61.8125 36.3571 65.2718 37.1605 69.0813L37.1445 69.0405ZM42.2762 86.7797C44.7736 84.7887 45.3171 82.6199 44.937 80.3179C45.6724 78.0976 48.9935 78.9419 50.2563 76.9865C51.0406 75.7368 51.1466 74.2578 51.3378 72.8161C51.4873 72.4748 51.7539 72.2526 52.2693 72.0037C52.7029 71.7868 53.0049 71.7157 53.4261 71.5273C53.7246 71.3868 54.0107 71.2748 54.2489 71.0402C55.0861 70.2882 55.1742 69.0048 55.2603 67.9577L55.2035 67.9328C55.0531 69.3585 54.6845 70.5869 53.3019 71.2695C52.9092 71.4704 52.4367 71.4668 52.0599 71.7086C51.7489 71.8775 51.5391 72.1246 51.3861 72.3966C51.545 71.4153 51.7891 70.4714 52.3707 69.6074C52.3832 69.579 52.3547 69.5665 52.3139 69.5825C51.4816 70.7096 51.0312 71.9699 50.7956 73.3583C50.6208 74.2987 50.7017 75.351 50.3155 76.2328C49.1694 78.8495 47.9552 77.9109 46.3259 78.3837C45.4766 78.622 45.0127 79.0628 44.7635 79.6317C44.6962 79.3988 44.6289 79.1659 44.5616 78.9331C44.7202 76.0195 47.1428 74.1991 46.5947 71.0438C46.6146 70.6118 46.6061 70.1674 46.6668 69.7195C46.8082 68.3915 47.8369 68.1302 48.7061 67.46C49.6819 66.701 49.7505 65.3073 49.707 64.1696C49.7 64.0309 49.4797 64.07 49.4708 64.1678C49.4295 64.726 49.4839 65.5295 49.2188 66.0575C48.9074 66.7685 48.2196 67.1792 47.6136 67.5578C47.2777 67.7836 46.9916 67.8956 46.7604 68.2689C46.4385 68.772 46.3438 69.3746 46.3469 69.9861C46.1574 69.259 45.8986 68.5355 45.7092 67.8085C44.8979 64.9447 45.4698 62.7884 46.9 60.2961C46.9374 60.2108 46.8202 60.0917 46.742 60.193C44.9331 63.1635 44.6951 65.3304 45.5841 68.6351C45.8569 69.6359 46.1989 70.6332 46.3207 71.6695C46.2833 71.7549 46.3152 71.8366 46.3062 71.9344C46.3062 71.9344 46.3222 71.9753 46.3506 71.9877C46.377 72.2366 46.3751 72.473 46.3607 72.7379C46.2422 74.2454 45.387 75.1929 44.7572 76.4763C44.508 77.0452 44.2928 77.4594 44.1911 77.9234C43.8561 77.0647 43.4642 76.1813 43.0156 75.2729C42.0544 73.2926 41.324 71.4811 41.7379 69.2217C42.0019 67.8458 42.6886 66.5873 42.9526 65.2113C43.4183 62.6017 41.7484 60.6161 41.3454 58.1345C41.3419 58.0652 41.2318 58.0847 41.2353 58.1541C41.6573 61.2881 43.3626 63.4248 42.3083 66.7597C41.9237 67.9472 41.5196 69.0244 41.4121 70.1977C41.1468 68.7933 40.0018 67.8512 39.2994 66.5944C38.2121 64.5927 39.9723 62.584 39.6685 60.417C39.6491 60.3068 39.498 60.3424 39.4891 60.4401C39.566 61.9654 38.9346 62.9431 38.6457 64.3759C38.5192 64.8967 38.5152 65.3696 38.6658 65.8762C39.1884 67.6983 41.0331 68.7436 41.314 70.731C41.314 70.731 41.314 70.731 41.3424 70.7434C41.3439 71.0492 41.3454 71.3549 41.4038 71.6856C41.7006 73.7139 42.7774 75.5075 43.5397 77.4007C43.7311 77.8914 43.8782 78.3287 44.0128 78.7944C43.5606 77.8167 42.9485 76.9723 42.0627 76.2115C41.2053 75.4631 40.2643 74.9831 39.4727 74.1619C41.0718 75.8453 43.0656 77.0914 44.135 79.2886C44.7314 82.0244 43.9765 84.1345 42.0898 86.6641C42.0524 86.7495 42.1252 86.8152 42.1785 86.7708L42.2762 86.7797ZM17.0982 43.1419C12.9843 43.1029 12.3741 46.4288 11.5865 49.5415C11.4923 49.602 11.5118 49.7122 11.5152 49.7815C11.0021 51.7263 10.3718 53.5519 8.7067 54.4159C7.04356 55.0434 5.27923 55.5927 4.77176 54.8959C4.68303 54.7892 4.49464 54.9101 4.55496 55.0043C4.89546 55.6958 5.45516 55.5003 6.20128 55.4203C6.76798 55.3634 7.2903 55.2532 7.82509 55.1145C7.82509 55.1145 7.85349 55.127 7.89436 55.111C7.93523 55.095 7.9761 55.079 8.01697 55.063C8.13958 55.015 8.27813 55.0079 8.40074 54.9599C9.62482 54.7163 10.3382 55.6389 11.5264 55.7865C12.5193 55.9162 13.4966 55.4629 14.5 55.8006C15.6169 56.1882 16.6463 57.317 17.6761 57.9036C18.6615 58.4369 19.6933 58.7871 20.7624 59.0519C20.7624 59.0519 20.7749 59.0235 20.7624 59.0519C19.5637 58.6964 18.5658 58.1916 17.5769 57.5889C18.1187 57.5889 18.6749 57.3241 19.247 57.1001C20.9475 56.3872 22.6332 56.4814 24.2222 57.4147C23.3435 56.7925 22.3277 56.4832 21.2441 56.4832C19.8426 56.5135 18.2802 57.7614 16.9324 57.205C16.5595 56.9739 16.1992 56.7144 15.8228 56.4139C15.1589 55.9198 14.628 55.5855 13.8395 55.3758C13.5624 55.39 13.3261 55.3882 13.049 55.4025C12.3278 55.4256 11.6315 55.3918 10.9352 55.358C10.3865 55.2194 9.93734 54.8532 9.40103 54.6861L9.34421 54.6612C10.357 54.359 11.3537 54.0159 12.4144 53.8363C13.1196 53.7723 13.64 53.8986 14.5651 54.3376C14.7071 54.3999 14.8402 54.5598 14.9823 54.6221C15.4209 54.7803 15.7868 54.8727 16.2308 54.8638C18.4388 54.8478 20.2445 53.7403 22.473 54.6824C22.5014 54.6949 22.4979 54.6255 22.4979 54.6255C21.4148 54.0834 20.4698 54.0763 19.475 54.1829C20.6975 53.6336 21.7621 52.9812 22.9013 52.1582C24.3357 51.1253 25.476 51.1502 26.9515 52.0337C27.5391 52.3928 28.0984 52.7394 28.7359 52.9847C28.7643 52.9972 28.7608 52.9278 28.7608 52.9278C27.3118 52.2932 26.0128 50.7751 24.2823 51.1698C23.4171 51.3671 22.7682 51.9982 22.084 52.4781C21.1206 53.2088 20.081 53.8043 18.9491 54.2238C18.3007 54.3127 17.6398 54.4301 16.947 54.4656C15.6307 54.5332 14.6009 53.9465 13.4501 53.7137C15.2638 53.5928 16.9389 53.479 18.4834 52.4266C21.2649 50.5601 23.0272 45.8404 27.1683 47.5184C23.9099 45.9897 21.8169 48.8357 19.6535 50.8374C17.3177 53.0008 15.2607 52.9813 12.5818 53.2995C13.9499 52.8817 15.5134 52.4818 16.2514 51.4151C16.8205 50.5796 16.8373 49.5362 16.9802 48.514C17.9182 48.3824 18.4001 47.746 18.9443 46.9674C19.9295 45.5684 21.1276 44.5338 22.8935 44.2902L22.9059 44.2618C21.936 44.3116 21.005 44.5818 20.2016 45.1791C19.1032 45.9862 18.4231 47.9256 17.0445 48.1354C17.1122 47.8261 17.1391 47.5327 17.2637 47.2483C18.0719 45.0938 20.1122 43.6823 21.8346 42.3011C21.8879 42.2566 21.8276 42.1624 21.7743 42.2068C19.5954 43.6254 17.3522 45.4227 16.7639 48.0803L16.7265 48.1656C16.7265 48.1656 16.5984 48.3807 16.6712 48.4465C16.3235 50.0908 16.0311 51.4543 14.2025 52.3822C13.3886 52.7715 12.6211 52.9777 11.8481 53.3511C11.738 53.3706 11.5994 53.3777 11.4892 53.3973C11.1179 53.4719 10.5582 53.6675 9.90434 53.9235C11.0331 52.8924 11.5389 51.3512 11.9434 49.7317C12.3256 49.3229 12.9048 49.2375 13.3473 48.9229C13.6424 48.7131 13.893 48.45 14.1153 48.1745C14.6914 47.4777 14.9834 46.6564 15.373 45.844C14.8662 46.5373 14.4766 47.3497 13.9129 48.0181C13.3902 48.6705 12.7044 48.8447 12.0415 49.1984C12.7544 46.2564 13.3128 43.2806 17.029 43.1455C17.029 43.1455 17.0539 43.0886 17.0414 43.117L17.0982 43.1419ZM54.0838 0.289403C53.3113 0.120534 53.1473 0.726729 52.7631 1.37202C52.4821 1.85911 52.2579 2.37105 52.0336 2.88302C52.0336 2.88302 52.0087 2.93992 51.9963 2.96836C51.9713 3.02525 51.9589 3.05368 51.934 3.11057C51.8841 3.22434 51.8219 3.36656 51.772 3.48033C51.2453 4.60559 50.08 4.63759 49.2214 5.51576C48.5351 6.23216 48.3105 7.28632 47.4378 7.88717C46.4585 8.57691 44.9378 8.72447 43.8663 9.23823C42.8481 9.70753 41.963 10.3368 41.1382 11.0603C41.1382 11.0603 41.1257 11.0888 41.1382 11.0603C42.1424 10.3137 43.1447 9.80352 44.2197 9.3591C43.8943 9.79284 43.7588 10.4115 43.6357 11.0017C43.1973 12.7758 42.1394 14.109 40.4388 14.8219C40.4388 14.8219 40.4264 14.8503 40.4388 14.8219C41.4765 14.4628 42.3208 13.8495 42.9432 12.9695C43.7594 11.8016 43.6865 9.80351 44.9269 9.05866C45.3356 8.89867 45.7727 8.75112 46.2098 8.60358C47.0022 8.34048 47.5619 8.14493 48.2018 7.61163C48.3583 7.40898 48.4989 7.16544 48.6553 6.96278C49.043 6.38682 49.4876 5.83574 49.9321 5.28466C50.3587 4.92912 50.9343 4.77446 51.3609 4.41893L51.3859 4.36205C51.076 5.37887 50.7661 6.39569 50.2732 7.36629C49.9015 7.98314 49.4873 8.31023 48.5952 8.80087C48.4602 8.87732 48.2523 8.88799 48.1173 8.96443C47.7405 9.20619 47.4614 9.45684 47.1893 9.84616C45.9036 11.622 45.6905 13.7321 43.6556 14.9765C43.6556 14.9765 43.6307 15.0334 43.6841 14.9889C44.768 14.4467 45.3406 13.6806 45.8529 12.8202C45.5445 14.1428 45.4689 15.3978 45.4412 16.7755C45.4184 18.5282 44.7267 19.4118 43.1364 20.105C42.5109 20.3735 41.8979 20.6135 41.3043 20.9637C41.3043 20.9637 41.2794 21.0206 41.3327 20.9761C42.7242 20.1957 44.6889 20.0393 45.4114 18.3896C45.7602 17.5932 45.6455 16.6955 45.6444 15.8475C45.6383 14.6245 45.7742 13.4637 46.0896 12.2798C46.408 11.7074 46.698 11.1225 47.0698 10.5057C47.7919 9.39818 48.8918 8.89687 49.7415 8.11647C48.7633 9.65416 47.8474 11.0496 47.7624 12.9446C47.6247 16.2742 50.3799 20.4978 46.5678 22.8622C46.5678 22.8622 46.5553 22.8906 46.5678 22.8622C49.7186 21.1574 48.6591 17.778 48.3452 14.8609C47.9765 11.6825 49.2408 10.0328 50.5394 7.68628C50.08 9.04441 49.4607 10.5359 49.87 11.766C50.1961 12.7224 51.034 13.3605 51.7777 14.0592C51.3188 14.8751 51.5526 15.6555 51.8343 16.5586C52.3748 18.1851 52.5086 19.7352 51.644 21.3227L51.6724 21.3351C52.2006 20.5156 52.53 19.609 52.5219 18.6224C52.5372 17.2732 51.3662 15.54 51.9995 14.3258C52.2054 14.5516 52.4113 14.7773 52.5763 15.0191C53.827 16.9567 53.7575 19.4348 53.841 21.6409C53.8445 21.7102 53.9547 21.6906 53.9512 21.6213C54.1114 19.0135 53.968 16.171 52.1685 14.0947L52.0832 14.0574C52.158 13.8867 52.0284 13.7961 51.8898 13.8032C50.7842 12.5393 49.8436 11.5171 50.1863 9.4977C50.3362 8.61421 50.6601 7.87471 50.7975 7.01965C50.8474 6.90588 50.8972 6.79211 50.947 6.67833C51.0965 6.33702 51.2764 5.77172 51.4777 5.08021C51.6523 6.61433 52.5944 7.94224 53.6308 9.2097C53.728 9.76077 53.4629 10.2887 53.4625 10.8309C53.4391 11.1936 53.5134 11.5651 53.6002 11.9082C53.8251 12.7863 54.3201 13.5116 54.7209 14.2974C54.4302 13.4921 54.0419 12.6779 53.8329 11.8406C53.6116 11.0318 53.8697 10.3652 53.9857 9.63633C55.9502 11.9544 57.993 14.1711 55.882 17.2127C55.882 17.2127 55.898 17.2536 55.9389 17.2376C58.3982 13.9418 56.0803 11.5029 54.0519 9.02126C54.0325 8.91105 53.9881 8.85772 53.9029 8.82039C52.6572 7.25783 51.55 5.68818 51.8304 3.81097C52.3007 2.11863 52.9061 0.349863 53.7942 0.332079C53.9328 0.324965 53.9632 0.100976 53.8371 0.0796457L54.0838 0.289403ZM16.1181 71.3569C15.9581 71.4902 16.164 71.716 16.3115 71.6111C17.4189 70.7063 17.4053 69.8868 17.9694 68.6762C19.5281 65.4266 22.4507 64.7066 25.3473 63.1956C27.8263 61.9423 30.2913 60.4118 30.8532 57.5053C30.8781 57.4484 30.752 57.4271 30.768 57.468C29.7985 61.3824 25.5786 62.8223 22.204 64.4969C22.7123 64.1094 23.2206 63.7218 23.6278 63.2561C24.4581 62.3655 24.8995 61.2029 25.8026 60.378C27.1197 59.2261 28.8218 58.819 29.6136 57.1658C29.651 57.0804 29.5373 57.0307 29.4999 57.116C28.3049 58.7621 26.427 59.2617 25.1113 60.7193C24.6384 61.258 24.3518 61.9122 23.9641 62.4881C23.3293 63.3965 22.5453 64.104 21.7046 64.7867C21.4345 64.9395 21.1768 65.064 20.9067 65.2168C20.0021 65.7359 19.0851 66.2835 18.4467 67.1225C17.4705 68.4238 17.4547 70.3152 16.1216 71.4263L16.1181 71.3569ZM24.9623 78.1457C24.573 78.4159 25.077 79.0434 25.4219 78.7199C26.284 77.9111 26.736 76.9565 26.8914 75.9059C27.0942 75.5201 27.2277 75.1379 27.4021 74.7397C28.5379 73.8473 29.4215 72.9123 30.9511 72.6669C31.5995 72.578 32.2425 72.6563 32.8555 72.4163C33.9056 72.0287 34.4109 71.0297 34.4118 69.9453C34.4243 69.9169 34.355 69.9204 34.355 69.9204C34.2061 71.6519 32.8859 72.1923 31.3493 72.2989C30.8235 72.3398 30.3385 72.3647 29.8321 72.5158C28.9988 72.7949 28.1795 73.3513 27.6602 74.0731C27.6602 74.0731 27.6851 74.0162 27.6976 73.9878C28.171 72.9069 28.9105 72.1461 29.7443 71.3248C30.4465 70.6493 31.0296 70.0911 30.7977 69.0743C31.1019 70.6991 29.0495 71.5968 28.2048 72.7523C27.6198 73.5469 27.3632 74.5193 26.9362 75.417C26.9436 75.0135 26.9226 74.5975 26.8448 74.1566C26.6468 72.9852 25.8697 71.899 25.7409 70.724C25.487 68.4433 27.3499 66.8185 28.9691 65.5954C27.5881 66.5838 26.0755 67.718 25.6496 69.4636C24.8744 72.5479 28.4833 75.5183 24.9747 78.1173L24.9623 78.1457ZM66.946 9.34647C66.1282 10.2086 65.7046 11.1757 65.6754 12.2476C65.501 12.6458 65.339 13.0156 65.2339 13.4102C64.1709 14.3684 63.3032 15.3443 61.834 15.6839C61.2015 15.8136 60.5461 15.7639 59.949 16.0447C58.9308 16.5141 58.4948 17.5095 58.5348 18.5779C58.5223 18.6064 58.5916 18.6028 58.5916 18.6028C58.6303 16.8909 59.9311 16.2403 61.4358 16.0518C61.9616 16.0109 62.4306 15.9452 62.9335 15.7247C63.7508 15.4048 64.5258 14.795 65.0167 14.0608L64.9793 14.1462C64.5627 15.2519 63.8675 16.066 63.0906 16.9122C62.4168 17.6002 61.8657 18.2401 62.1793 19.225C61.7649 17.6197 63.7978 16.6118 64.5697 15.3905C65.1104 14.5426 65.2977 13.5738 65.6963 12.6636C65.7173 13.0796 65.7667 13.508 65.857 13.9204C66.1242 15.0883 66.9547 16.13 67.1243 17.289C67.4884 19.5502 65.7551 21.2657 64.1962 22.5829C65.5329 21.5412 66.9567 20.3004 67.285 18.5458C67.8772 15.4154 64.0994 12.6761 67.4714 9.84777C67.8446 9.53668 67.3158 8.96606 66.9993 9.30204L66.946 9.34647ZM28.9109 18.7221C28.9109 18.7221 28.5521 18.7684 28.3567 18.7506C28.5521 18.7684 28.719 18.7737 28.9144 18.7915C28.9428 18.8039 28.9518 18.7061 28.9393 18.7346L28.9109 18.7221ZM28.3567 18.7506C28.0636 18.7239 27.7421 18.6848 27.4331 18.6173C27.7421 18.6848 28.0227 18.7399 28.3567 18.7506ZM35.3797 17.2502C32.7753 15.4654 29.8625 15.0033 26.8686 15.9632C25.5289 16.3934 24.269 17.0281 22.9931 17.6218C20.8341 18.6084 19.0752 18.9906 16.7427 19.2911C15.9541 19.0813 15.1088 18.8467 14.3576 18.5516C14.2405 18.4325 14.1518 18.3258 14.0346 18.2067C13.9459 18.1001 13.7984 18.205 13.7894 18.3027C12.8927 17.8761 12.2253 17.3126 12.0483 16.5571C11.9934 16.2958 11.5972 16.4273 11.6645 16.6602C11.9637 17.9099 12.8818 18.2103 14.0147 18.6387C14.2525 18.9463 14.5312 19.2378 14.7814 19.5169C14.7281 19.5613 14.7032 19.6182 14.7191 19.6591C16.1423 21.435 16.6933 23.2695 16.4338 25.5627C16.3228 26.6666 15.9756 27.7688 16.1008 28.8745C16.2734 30.645 17.2545 32.1933 18.721 33.1746C17.0167 31.8858 16.2225 29.9108 16.3823 27.8452C16.4773 26.7004 16.7997 25.6551 16.7971 24.5014C16.7944 23.3477 16.5964 22.1762 16.1283 21.1576C16.9304 22.1869 17.6383 23.2766 17.9125 24.5832C18.3409 26.4657 18.1991 28.3358 18.917 30.1757C18.917 30.1757 18.9738 30.2006 18.9579 30.1597C18.2384 28.014 18.7056 25.7102 18.0146 23.577C17.4387 21.7994 15.9318 20.2919 14.6114 18.9C15.6875 19.3036 16.7477 19.6662 17.767 20.0448C19.5654 21.2732 20.9248 22.8855 22.0494 24.8018C23.19 26.759 22.7357 28.4922 22.9507 30.5525C23.1603 32.7799 23.9973 34.5024 25.2037 36.3868C25.2197 36.4276 25.3014 36.3956 25.2855 36.3548C23.4529 33.3488 23.5395 31.7595 23.4783 28.3429C23.4507 27.2461 23.3963 26.4426 22.9282 25.424C22.1355 23.7547 20.968 22.0909 19.5693 20.8003L19.8215 20.843C21.5706 21.6429 23.1666 22.7148 24.5365 24.5351C25.9951 26.4621 26.5172 28.8264 27.8123 30.8173L27.7555 30.7925C27.7555 30.7925 27.592 30.8564 27.6648 30.9222C29.4344 32.6803 29.3061 35.3699 30.8908 37.3182C31.9715 38.639 33.413 39.6771 34.9721 40.2922C35.029 40.3171 35.0663 40.2318 35.0095 40.2069C32.5487 38.7901 30.349 37.3182 29.5911 34.41C29.3856 33.642 29.2814 32.9523 29.0137 32.3266C30.4637 33.8091 32.2267 34.8864 34.1178 35.7485C34.1178 35.7485 34.1178 35.7485 34.1303 35.7201C30.8296 33.9016 28.4509 31.9106 26.7359 28.4815C25.8545 26.7056 25.1027 25.0204 23.7912 23.5307C22.9074 22.5335 21.9773 21.7193 20.9156 21.0509C22.5549 21.3282 24.2476 21.5611 25.7907 22.1353C26.9805 22.5886 27.9036 23.2641 28.6952 24.0853C29.5023 25.4897 29.5165 27.6993 30.2952 29.0912C31.1467 30.5489 32.3111 31.6013 33.8204 32.3301L33.8328 32.3016C31.5833 30.9435 29.9224 28.8601 29.4431 26.2434C29.3139 25.6106 29.27 25.0151 29.0626 24.4835C29.8736 25.415 30.6064 26.4478 31.4369 27.4895C32.8282 29.1836 34.2269 30.4742 36.4792 30.5115C36.5076 30.524 36.5041 30.4546 36.5041 30.4546C31.817 29.7916 31.158 25.2657 27.8258 22.8232C27.3927 22.4979 26.9221 22.2579 26.4392 22.0464C28.8266 22.0073 30.8988 20.6776 33.3791 22.2045C35.5593 23.5662 36.0456 26.3216 38.4107 27.493C38.4391 27.5055 38.4641 27.4486 38.4356 27.4361C35.8328 25.9572 35.3364 22.4516 32.4614 21.3619C29.9967 20.418 27.8407 22.0162 25.4164 21.5984C23.779 21.0847 21.9478 20.8589 20.2995 20.6794C19.8698 20.4234 19.3869 20.2119 18.9039 20.0004C18.705 19.9133 18.4777 19.8137 18.238 19.7426C18.1243 19.6928 18.0515 19.6271 17.9503 19.5488C19.7392 19.4848 21.5428 18.6138 23.1297 17.8511C24.2296 17.3498 25.2887 16.8645 26.3548 16.5179C27.2071 16.8912 27.7998 17.6253 28.6397 18.0271C28.8954 18.1391 29.1227 18.2386 29.3624 18.3097C28.9363 18.1231 28.5101 17.9364 28.1373 17.7053C27.5336 17.3054 27.0616 16.7596 26.3797 16.461C29.3168 15.4761 32.239 15.2983 35.3104 17.2537C35.3672 17.2786 35.3922 17.2218 35.3353 17.1969L35.3797 17.2502ZM73.9439 54.4456C75.0056 55.114 76.0149 54.7424 77.0136 54.1629C78.5775 53.2207 79.8359 52.2804 81.5714 52.2608C82.6565 52.5665 83.6863 53.1532 84.6359 54.0775C85.4683 54.8828 86.0486 55.6454 87.0624 56.1912C87.2613 56.2783 87.3859 55.9938 87.187 55.9067C85.5003 54.9646 84.4659 53.4607 82.962 52.5648C82.962 52.5648 82.987 52.5079 82.9301 52.483C81.7069 51.6422 81.621 50.2147 80.7462 49.1197C80.0932 48.2913 79.0649 48.0104 78.0935 47.7545C78.0651 47.742 78.0685 47.8113 78.0685 47.8113C79.0559 48.1082 80.1002 48.43 80.7158 49.3437C81.0458 49.8272 81.1874 50.4316 81.4232 50.9755C81.5668 51.3435 81.7513 51.6955 82.0015 51.9746C81.7334 51.891 81.4687 51.8768 81.2325 51.875C81.0904 51.8128 80.9234 51.8075 80.7689 51.7737C80.7121 51.7488 80.6712 51.7648 80.6019 51.7684C80.6144 51.7399 80.6393 51.6831 80.5825 51.6582C78.7498 51.1267 78.0832 49.4788 76.1418 49.2726C74.7173 49.1233 73.3637 49.2762 71.9921 49.6246C73.726 49.2993 76.3197 48.9437 77.8465 50.0192C78.7981 50.7071 79.2113 51.4644 80.3497 51.7257C77.2271 51.5107 74.3624 53.1035 71.2621 51.6778L71.2497 51.7062C73.4887 52.8564 75.4893 52.3088 77.8786 52.0333C78.7065 51.9213 79.4845 51.923 80.2252 52.0101C78.0806 52.7319 76.2223 55.274 73.9404 54.3763C73.8836 54.3514 73.8587 54.4083 73.903 54.4616L73.9439 54.4456ZM80.0549 62.6814C81.2532 63.5791 82.0105 65.0972 82.8231 66.3345C82.8834 66.4287 82.99 66.3398 82.9581 66.2581C82.4102 65.035 81.7113 63.8476 80.7617 62.9232C80.7742 62.8947 80.7991 62.8379 80.7707 62.8254C79.2704 61.9988 79.0389 60.4398 77.9527 59.2861C77.3067 58.5964 76.4987 58.2764 75.5627 58.1716C75.5059 58.1467 75.5253 58.2569 75.5253 58.2569C77.4986 58.5448 78.0819 59.919 79.0061 61.4424C79.0984 61.6184 79.2315 61.7784 79.3361 61.9259C76.7971 60.6105 74.4894 60.854 72.9784 57.8871C72.9784 57.8871 72.9215 57.8623 72.9375 57.9031C73.5706 59.1635 74.4011 60.2052 75.6582 60.8914C77.0573 61.6398 78.7146 61.7215 80.0141 62.6974L80.0549 62.6814ZM58.9313 82.0741C58.9313 82.0741 59.0733 82.1363 59.0823 82.0385C59.0403 81.2066 59.0587 80.4688 58.9101 79.7258C58.9101 79.7258 58.9225 79.6973 58.935 79.6689C59.3072 78.5099 59.2906 77.0788 58.7621 75.966C58.4057 75.2336 57.8324 74.6097 57.476 73.8773C56.967 72.8747 56.8861 71.8223 56.8994 70.7095C56.9119 70.6811 56.8426 70.6846 56.8426 70.6846C56.5307 71.9379 56.805 73.2445 57.4312 74.3662C57.9207 75.2585 58.6395 76.014 58.7897 77.0629C58.8779 77.7117 58.7709 78.3428 58.6922 78.9863C58.5646 78.6592 58.3801 78.3072 58.1139 77.9872C56.7156 76.1545 55.3399 75.0435 55.0505 72.6116C55.047 72.5423 54.9369 72.5619 54.9404 72.6312C54.9072 74.176 55.4301 75.4559 56.4186 76.6007C57.1409 77.4255 58.1244 78.1952 58.5267 79.2867C58.8653 80.2146 58.6371 81.1995 58.9064 82.1309L58.9313 82.0741ZM22.9217 37.9636C21.7264 37.6774 20.5651 37.2365 19.5034 36.5681C19.1021 36.3246 18.7223 35.9548 18.2961 35.7682C17.3869 35.37 16.3333 35.6882 15.4132 35.6242C14.9801 35.2989 14.4936 35.0181 13.9697 34.8225C12.0483 34.1843 10.0497 34.4955 8.12732 34.9417C10.2933 34.0937 12.0485 31.7099 14.6289 32.4671C14.6857 32.492 14.7231 32.4067 14.6662 32.3818C11.5071 31.1677 9.31905 35.1585 6.24431 35.0661C6.14662 35.0572 6.12521 35.1834 6.21044 35.2208C6.56033 35.2723 6.87832 35.2421 7.19631 35.2119C7.08966 35.3008 7.15697 35.5336 7.32044 35.4696C8.41842 35.2048 9.57323 34.9648 10.7066 34.851C11.6407 35.1923 12.6654 35.4038 13.5248 35.9158C14.6273 36.5682 15.0511 37.5334 15.7022 38.5982C16.3657 39.6346 17.2355 40.3546 18.3062 40.9252C16.923 40.2177 15.9983 39.2364 15.3173 37.8534C15.069 37.3379 14.89 36.8188 14.4943 36.4082C13.6583 35.5336 12.321 35.1852 11.1382 34.8705C11.513 34.8652 11.8879 34.8599 12.2502 34.883C14.5096 35.0589 15.7981 36.3691 17.3015 37.8072C18.2954 38.7849 19.1832 39.3093 20.6061 39.1528L20.6186 39.1244C18.4196 39.0426 17.2257 37.1299 15.6316 35.8215C15.8838 35.8642 16.1484 35.8784 16.4256 35.8642C17.5375 35.8766 18.2657 35.9922 19.2013 36.6392C20.3518 37.4143 21.5699 37.88 22.9571 38.1147C23.0139 38.1395 22.9944 38.0293 22.9944 38.0293L22.9217 37.9636ZM70.9911 30.881C71.2896 30.7406 71.5722 30.5592 71.7855 30.3815C71.5313 30.5752 71.2896 30.7406 70.9911 30.881ZM69.7935 31.3734C70.2181 31.2543 70.6392 31.0659 70.9911 30.881C70.6392 31.0659 70.243 31.1974 69.7491 31.3201C69.7207 31.3076 69.7117 31.4054 69.7526 31.3894L69.7935 31.3734ZM77.5311 20.3554C77.5311 20.3554 77.5809 20.2417 77.5082 20.1759L77.5899 20.1439C78.7307 19.6266 79.3083 19.2355 79.9487 18.16C80.0483 17.9325 79.7732 17.7102 79.6451 17.9253C78.4337 20.0728 74.3906 20.3359 72.5152 21.9891C70.1884 24.0548 68.525 27.1568 64.914 26.8973C64.8855 26.8849 64.889 26.9542 64.889 26.9542C67.2745 27.1515 68.8902 25.8591 70.5168 24.2326C71.6013 23.1482 72.5063 22.0869 73.8569 21.3225C74.9374 20.711 76.1435 20.663 77.247 20.231C75.875 21.1216 74.8509 22.3002 74.2474 23.8326C74.2474 23.8326 74.219 23.8201 74.2066 23.8485C73.3225 25.3258 71.7272 25.644 70.3516 26.4653C69.4346 27.0128 68.6347 27.6794 67.9236 28.4527C69.2088 27.219 70.6003 26.4386 72.2032 25.7169C72.9637 25.372 73.639 24.9898 74.105 24.3125C73.3695 26.5328 73.5577 28.8864 71.8353 30.2677C72.5445 29.7308 73.1206 29.034 73.434 28.0865C73.8097 26.9968 73.7502 25.8182 74.0975 24.716C74.6799 22.7677 75.9174 21.4114 77.5809 20.2417L77.5311 20.3554ZM80.6198 29.5388L80.7335 29.5885C80.7335 29.5885 80.8401 29.4997 80.7833 29.4748C82.4788 28.3868 84.1769 28.4526 86.1766 28.9894C86.2903 29.0392 86.3775 28.8401 86.2638 28.7903C84.4011 27.9406 82.7848 27.8429 81.02 28.9344C80.8316 29.0552 80.6432 29.1761 80.4833 29.3095C78.1535 28.2891 76.1586 30.6018 74.0479 31.1689C74.0479 31.1689 74.023 31.2258 74.0355 31.1974C75.0926 30.9485 75.9244 30.3636 76.8857 29.8694C78.0639 29.2668 79.0658 29.2988 80.2415 29.4748C79.4541 30.113 78.743 30.8863 77.9555 31.5244C76.3025 32.9021 74.6607 33.4034 72.5345 33.3875C72.4777 33.3626 72.4971 33.4728 72.4971 33.4728C74.2411 33.8976 75.7852 33.3874 77.207 32.3831C78.293 31.6044 79.1855 30.5716 80.2431 29.7805C80.3497 29.6917 80.4848 29.6152 80.6198 29.5388ZM37.726 10.8879C36.7356 9.97956 36.7843 9.01785 35.2816 8.96986C34.2105 8.94143 33.1319 9.31653 32.0822 9.16188C31.1167 8.19662 30.4088 7.10691 30.3603 5.59413C30.3498 5.38615 30.0478 5.45726 30.0548 5.59591C29.8406 6.85805 30.2519 7.85176 30.9493 8.73348C30.8925 8.70859 30.8641 8.69614 30.8072 8.67126C30.722 8.63393 30.6562 8.7068 30.7006 8.76013C30.8975 9.08367 31.1692 9.23655 31.4657 9.33254C31.874 9.71474 32.2822 10.0969 32.7722 10.4471C33.2652 11.4088 33.0849 12.5163 33.2102 13.622C33.3409 14.5606 33.7417 15.3463 34.3877 16.0361C34.3877 16.0361 34.4161 16.0485 34.3877 16.0361C33.2572 14.829 33.3293 13.5047 33.2648 11.951C33.2563 11.5066 33.166 11.0942 33.0349 10.6978C34.5083 11.8177 36.0511 12.934 36.6822 14.4308C38.2193 18.1888 35.6249 21.561 39.8612 24.0266C39.8612 24.0266 39.9021 24.0106 39.8737 23.9981C35.3428 21.2001 38.5307 17.4777 36.7235 13.8726C36.4628 13.3856 36.1488 12.9429 35.7938 12.5163C36.2235 12.7723 36.6372 12.9874 37.0704 13.3127C38.3664 14.2193 39.0279 15.4921 39.1741 17.0137C39.2849 18.3843 38.8878 19.6002 39.8479 20.7326C39.8763 20.745 39.9172 20.729 39.8728 20.6757C38.7427 18.9265 39.8494 16.6315 38.7691 14.7686C37.9301 13.2824 36.4633 12.8434 35.1797 11.9083C34.2745 11.0373 33.2218 10.2711 32.3325 9.44097C32.5687 9.44274 32.8459 9.42851 33.0946 9.40185C33.8282 9.35029 34.9317 8.91831 35.6793 9.14407C36.5406 9.4196 37.0621 10.3937 37.7171 10.9857C37.7455 10.9982 37.7579 10.9697 37.742 10.9288L37.726 10.8879ZM73.5938 12.8004C72.9713 13.6804 72.5602 14.619 72.4049 15.6695C72.0906 17.7014 72.194 19.4755 69.9213 20.4124C70.9714 20.0248 71.8246 19.3138 72.2003 18.224C72.43 17.545 72.3826 16.8801 72.4578 16.1673C72.6027 14.9087 73.0227 13.8723 73.7074 12.8502C73.7448 12.7649 73.6436 12.6866 73.5938 12.8004ZM59.6496 4.04911C59.6496 4.04911 59.4417 4.05978 59.4736 4.14155C59.853 5.05349 59.9962 5.96366 59.6703 6.93959C59.4621 7.49244 59.1526 7.96708 58.9727 8.53237C58.7306 9.23988 58.7087 9.90828 59.1026 10.5553C58.3044 9.05322 59.7691 7.7964 60.074 6.40449C60.2274 5.59032 60.1037 4.79039 59.6655 4.08999L59.6496 4.04911ZM38.8371 3.17112C38.6286 1.79166 38.0683 0.59707 37.2751 -0.529958C37.2308 -0.583289 37.1366 -0.522853 37.181 -0.469523C38.6765 1.91431 38.6837 3.98529 38.5554 6.67488C38.4529 8.22322 39.2091 8.89339 40.5319 9.50667C37.8757 8.07212 39.2047 5.50162 38.8246 3.19956L38.8371 3.17112ZM80.6699 35.7641C81.4678 35.3339 82.2338 34.822 83.0636 34.4735C84.4123 33.9456 85.5597 34.1091 86.9005 34.5268C87.0709 34.6015 87.1955 34.3171 87.025 34.2424C82.9961 32.3083 80.3347 37.38 76.4061 36.6086C76.3492 36.5837 76.3403 36.6814 76.3687 36.6939C77.9013 37.0601 79.3193 36.5285 80.6699 35.7641ZM34.3102 88.0365C33.8158 88.7014 33.5632 89.2009 33.495 90.0524C33.4736 90.1786 33.6849 90.2373 33.7063 90.1111C34.362 87.6863 36.5195 86.394 36.8307 83.7506C36.8362 83.5835 36.8416 83.4164 36.8471 83.2493C37.5786 81.5018 38.312 79.518 38.5834 77.7385C38.8514 75.8898 37.216 75.1396 36.528 73.6179C36.528 73.6179 36.4996 73.6055 36.528 73.6179C36.7548 74.2597 37.0529 74.6614 37.4682 75.1823C38.3146 76.2649 38.5679 77.1555 38.1494 78.4976C37.7558 79.7828 37.2645 81.0592 36.8584 82.3729C36.6489 80.1455 35.4888 78.0781 35.6256 75.8329C35.1155 78.3892 36.7212 80.7534 36.5326 83.3488C36.5236 83.4466 36.5147 83.5444 36.5057 83.6421C36.4808 83.699 36.4559 83.7559 36.431 83.8128C36.4185 83.8412 36.4061 83.8697 36.4629 83.8946C36.2129 85.5478 35.3806 86.6748 34.367 88.0614L34.3102 88.0365ZM29.4667 85.1017C29.4667 85.1017 29.5022 85.2528 29.5679 85.1799C30.8851 84.0279 31.8349 82.4778 31.3283 80.6966C30.9599 79.4505 30.0422 78.6079 30.6207 77.1324C31.0746 75.9414 32.3022 75.7672 33.2282 75.1219C33.9533 74.6259 34.2324 74.3752 34.4675 73.5291C34.48 73.5006 34.4232 73.4757 34.4107 73.5042C33.6274 75.6018 30.5422 75.3014 30.2489 77.7493C30.1648 78.5599 30.5107 79.0843 30.7286 79.8238C31.4675 82.0796 30.898 83.4573 29.4792 85.0732L29.4667 85.1017ZM8.75982 65.6596C8.75982 65.6596 8.72594 65.8142 8.80768 65.7822C10.8137 65.0676 12.0546 63.7806 14.4366 63.9085C15.7315 63.9672 16.7881 64.2605 18.0975 64.0543C20.5491 63.6365 22.5202 62.2286 23.934 60.2376C22.1041 62.7921 19.643 63.8498 16.8275 63.9388C17.2078 63.7663 17.4709 63.4748 17.6986 63.0321C18.1167 62.2322 18.2487 61.5442 19.0396 60.9754C19.6955 60.483 20.7028 60.3478 21.4843 60.4189C20.5198 60.3016 19.4911 60.5629 18.6718 61.1194C17.6392 61.8535 17.8153 63.6934 16.4118 63.9601C15.7723 63.9512 15.1169 63.9014 14.4455 63.8108C11.7316 63.4357 11.1835 64.6872 8.74737 65.688L8.75982 65.6596ZM8.30567 60.5115C8.30567 60.5115 8.28076 60.5684 8.32163 60.5524C10.3366 59.74 12.5151 58.8636 14.7351 59.3613C14.7635 59.3737 14.76 59.3044 14.76 59.3044C12.4922 58.684 10.3546 59.5444 8.30567 60.5115ZM6.33744 60.5986L5.94668 60.5631L6.33744 60.5986ZM14.3424 41.9349C11.5758 42.9944 9.55793 40.7208 7.10365 39.9849L7.04683 39.96C7.04683 39.96 7.04682 39.96 7.01841 39.9476C6.96159 39.9227 6.90477 39.8978 6.81954 39.8605C5.13235 39.4605 3.13024 39.7023 1.44262 39.8445C1.30406 39.8516 1.3305 40.1005 1.42819 40.1094C2.85815 40.0916 4.34689 39.8623 5.76788 39.9422C6.32562 39.9831 6.84598 40.1093 7.34142 40.2924C8.96741 41.6825 8.95737 45.3392 11.6752 45.2414C11.6752 45.2414 11.7001 45.1845 11.6877 45.2129C8.913 45.2859 9.09155 41.9403 7.68236 40.4417C8.33582 40.7279 8.97682 41.0426 9.60536 41.3857C11.159 42.1678 12.6738 42.7295 14.3618 42.0451C14.4436 42.0131 14.4116 41.9314 14.3015 41.9509L14.3424 41.9349Z" fill="url(#paint1_radial_102_203)"/>
</g>
<defs>
<radialGradient id="paint0_radial_102_203" cx="0" cy="0" r="1" gradientUnits="userSpaceOnUse" gradientTransform="translate(35.1533 44.9231) rotate(127.957) scale(45.9834 45.9387)">
<stop stop-color="white"/>
<stop offset="0.41" stop-color="#A7A39E"/>
<stop offset="0.82" stop-color="#574F45"/>
<stop offset="1" stop-color="#382F23"/>
</radialGradient>
<radialGradient id="paint1_radial_102_203" cx="0" cy="0" r="1" gradientUnits="userSpaceOnUse" gradientTransform="translate(45.6356 45.5438) rotate(-53.6514) scale(43.7795 43.7358)">
<stop offset="0.47" stop-color="#FF0000"/>
<stop offset="1" stop-color="#FF8879"/>
</radialGradient>
</defs>
</svg>
