<svg width="115" height="114" viewBox="0 0 115 114" fill="none" xmlns="http://www.w3.org/2000/svg">
<path style="mix-blend-mode:multiply" d="M69.5357 15.6778C92.3774 22.3599 105.478 46.335 98.7824 69.1993C92.0868 92.0636 68.1189 105.194 45.2772 98.5115C22.4356 91.8295 9.33496 67.8543 16.0306 44.99C22.7262 22.1258 46.694 8.99579 69.5357 15.6778Z" fill="url(#paint0_radial_221_7)"/>
<path d="M64.8604 18.9622C48.4517 11.0671 28.7436 17.984 20.8412 34.4115C12.9388 50.8389 19.8344 70.5561 36.2431 78.4511C52.6518 86.3462 72.3598 79.4293 80.2623 63.0018C88.1647 46.5744 81.269 26.8572 64.8604 18.9622Z" fill="url(#paint1_radial_221_7)"/>
<defs>
<radialGradient id="paint0_radial_221_7" cx="0" cy="0" r="1" gradientUnits="userSpaceOnUse" gradientTransform="translate(57.3961 57.0742) rotate(-73.6797) scale(43.1601 43.1139)">
<stop offset="0.59" stop-color="#8F5F33"/>
<stop offset="0.6" stop-color="#926339"/>
<stop offset="0.65" stop-color="#AE8C6D"/>
<stop offset="0.71" stop-color="#C7AF99"/>
<stop offset="0.77" stop-color="#DBCCBE"/>
<stop offset="0.83" stop-color="#EBE2DA"/>
<stop offset="0.89" stop-color="#F6F2EE"/>
<stop offset="0.94" stop-color="#FCFBFA"/>
<stop offset="1" stop-color="white"/>
</radialGradient>
<radialGradient id="paint1_radial_221_7" cx="0" cy="0" r="1" gradientUnits="userSpaceOnUse" gradientTransform="translate(47.1524 46.0614) rotate(127.957) scale(36.0788 36.0437)">
<stop offset="0.25" stop-color="white"/>
<stop offset="0.46" stop-color="#FCFCFC"/>
<stop offset="0.61" stop-color="#F4F3F2"/>
<stop offset="0.74" stop-color="#E5E4E2"/>
<stop offset="0.86" stop-color="#D2CFCC"/>
<stop offset="0.97" stop-color="#B8B4AF"/>
</radialGradient>
</defs>
</svg>
