<svg width="289" height="176" viewBox="0 0 289 176" fill="none" xmlns="http://www.w3.org/2000/svg">
<path d="M281.421 114.304C285.225 80.9511 261.24 50.8289 227.85 47.024C194.46 43.219 164.309 67.1722 160.506 100.525C156.702 133.878 180.687 164 214.077 167.805C247.467 171.61 277.618 147.657 281.421 114.304Z" fill="url(#paint0_radial_415_7)"/>
<path d="M128.421 75.3038C132.225 41.9511 108.24 11.8289 74.8501 8.02396C41.4602 4.21901 11.3091 28.1722 7.50576 61.5249C3.70239 94.8776 27.687 125 61.0768 128.805C94.4667 132.61 124.618 108.657 128.421 75.3038Z" fill="url(#paint1_radial_415_7)"/>
<defs>
<radialGradient id="paint0_radial_415_7" cx="0" cy="0" r="1" gradientUnits="userSpaceOnUse" gradientTransform="translate(223.509 99.893) rotate(-161.232) scale(66.5116 66.447)">
<stop offset="0.25" stop-color="white"/>
<stop offset="0.46" stop-color="#FCFCFC"/>
<stop offset="0.61" stop-color="#F4F3F2"/>
<stop offset="0.74" stop-color="#E5E4E2"/>
<stop offset="0.86" stop-color="#D2CFCC"/>
<stop offset="0.97" stop-color="#B8B4AF"/>
</radialGradient>
<radialGradient id="paint1_radial_415_7" cx="0" cy="0" r="1" gradientUnits="userSpaceOnUse" gradientTransform="translate(70.5094 60.893) rotate(-161.232) scale(66.5116 66.447)">
<stop offset="0.25" stop-color="white"/>
<stop offset="0.46" stop-color="#FCFCFC"/>
<stop offset="0.61" stop-color="#F4F3F2"/>
<stop offset="0.74" stop-color="#E5E4E2"/>
<stop offset="0.86" stop-color="#D2CFCC"/>
<stop offset="0.97" stop-color="#B8B4AF"/>
</radialGradient>
</defs>
</svg>
