<svg width="139" height="133" viewBox="0 0 139 133" fill="none" xmlns="http://www.w3.org/2000/svg">
<path d="M59.2316 74.0338C66.2808 48.0615 50.9166 21.295 24.9147 14.249C-1.08724 7.20308 -27.8805 22.5459 -34.9297 48.5182C-41.9789 74.4905 -26.6146 101.257 -0.612701 108.303C25.3892 115.349 52.1825 100.006 59.2316 74.0338Z" fill="url(#paint0_radial_430_292)"/>
<path d="M130.342 100.25C132.376 82.4082 119.546 66.2945 101.684 64.2591C83.8223 62.2236 67.6932 75.0373 65.6586 92.8791C63.624 110.721 76.4544 126.835 94.3162 128.87C112.178 130.906 128.307 118.092 130.342 100.25Z" fill="url(#paint1_radial_430_292)"/>
<defs>
<radialGradient id="paint0_radial_430_292" cx="0" cy="0" r="1" gradientUnits="userSpaceOnUse" gradientTransform="translate(17.6011 58.1345) rotate(-120.266) scale(53.3032 53.3239)">
<stop offset="0.25" stop-color="white"/>
<stop offset="0.46" stop-color="#FCFCFC"/>
<stop offset="0.61" stop-color="#F4F3F2"/>
<stop offset="0.74" stop-color="#E5E4E2"/>
<stop offset="0.86" stop-color="#D2CFCC"/>
<stop offset="0.97" stop-color="#B8B4AF"/>
</radialGradient>
<radialGradient id="paint1_radial_430_292" cx="0" cy="0" r="1" gradientUnits="userSpaceOnUse" gradientTransform="translate(99.3621 92.5411) rotate(-161.232) scale(35.5801 35.5455)">
<stop offset="0.25" stop-color="white"/>
<stop offset="0.46" stop-color="#FCFCFC"/>
<stop offset="0.61" stop-color="#F4F3F2"/>
<stop offset="0.74" stop-color="#E5E4E2"/>
<stop offset="0.86" stop-color="#D2CFCC"/>
<stop offset="0.97" stop-color="#B8B4AF"/>
</radialGradient>
</defs>
</svg>
