<svg width="63" height="84" viewBox="0 0 63 84" fill="none" xmlns="http://www.w3.org/2000/svg">
<path style="mix-blend-mode:multiply" d="M17.8442 80.452C39.208 82.1197 57.8772 66.1719 59.543 44.8317C61.2088 23.4915 45.2404 4.83997 23.8765 3.17234C2.51267 1.50471 -16.1565 17.4525 -17.8223 38.7927C-19.4881 60.1329 -3.51966 78.7844 17.8442 80.452Z" fill="url(#paint0_radial_286_794)"/>
<path style="mix-blend-mode:screen" d="M52.7004 25.2965C32.5911 32.2918 29.767 33.2771 53.3026 27.7134C29.9598 34.5395 32.9768 34.8166 54.3871 34.6168C32.9827 35.2744 29.9716 35.4552 54.2187 37.3063C30.0946 36.5458 33.1905 37.4111 53.6694 42.2111C33.1265 37.6972 29.9286 37.0733 52.6253 45.4559C29.2907 38.3125 31.8922 40.1786 50.0857 51.328C31.6977 40.5376 28.8985 39.0718 48.0331 54.1614C28.3724 39.9455 30.6391 42.3676 45.5887 57.2137C30.4543 42.6026 27.9646 40.371 42.0687 60.182C26.6621 41.0593 27.8559 43.8966 37.457 63.2729C27.5023 44.1601 25.9169 41.5416 32.9898 65.0447C24.968 41.9665 25.5632 45.0066 30.2135 65.9506C25.2639 45.1079 24.3726 42.1279 24.624 66.6369C23.0138 41.9387 22.5462 44.7295 20.375 66.6794C22.0879 44.7353 22.0972 41.9503 14.6759 65.5693C21.1043 41.8728 20.1467 44.5422 12.9609 65.1444C19.8603 44.4782 20.5315 41.7449 7.69923 62.6964C19.6251 41.0921 18.0061 43.1693 5.22773 61.2977C17.6053 42.9717 18.8267 40.6556 0.477141 57.1017C17.9966 40.0918 15.9451 41.8443 -0.568923 56.1053C15.7512 41.6628 17.5706 39.6844 -3.79142 51.5297C17.1005 38.7745 14.7728 39.7986 -4.97015 49.5667C14.5536 39.4073 16.6653 37.9506 -7.19157 43.3645C16.1189 36.9517 13.5022 37.4126 -7.74328 41.3673C13.4039 37.0724 15.9572 36.3569 -8.19329 36.4675C15.9933 35.3619 13.4728 35.1236 -8.25442 34.0512C13.5083 34.669 16.0642 34.4527 -7.29345 28.139C16.1132 33.2924 13.6062 32.3483 -6.62545 25.4471C13.6701 32.0622 16.2379 32.7616 -5.15146 22.028C16.7129 32.0087 14.6169 30.5977 -3.86935 19.4671C14.8974 30.2039 17.2293 31.259 -0.892508 15.4585C17.8477 30.2678 16.1344 28.2215 1.61198 12.702C16.3574 28.031 18.2523 29.8836 3.74298 10.9973C19.0325 29.4872 17.9177 27.2381 6.87717 8.70572C18.3094 27.0192 19.8159 29.0494 10.5105 6.95202C20.8572 28.507 20.3921 25.9345 15.0539 5.26936C20.6881 25.8744 21.4526 28.3456 17.0371 4.92523C22.3627 28.4166 22.5944 25.9816 22.1651 4.28607C23.0082 26.0139 23.2729 28.4877 25.0263 4.42625C24.3551 28.489 25.2106 26.0611 30.4234 5.13859C25.4556 26.1218 24.8832 28.655 31.6387 5.56608C25.6784 29.1328 27.0427 27.1188 37.2604 7.66801C27.4021 27.3132 26.394 29.5629 39.0479 8.76383C27.3198 29.9678 29.2472 28.2056 43.704 12.0377C29.4379 28.4284 27.7426 30.4166 44.7818 13.1613C28.4293 31.2186 30.8144 29.9911 49.1304 18.2406C31.0336 30.3824 28.8709 31.9598 50.2232 20.2385C29.5543 32.8032 32.4831 32.0755 52.6526 25.3759L52.7004 25.2965Z" fill="url(#paint1_radial_286_794)"/>
<path style="mix-blend-mode:screen" opacity="0.3" d="M42.9752 73.6406C40.9933 69.7023 39.3322 66.4543 38.0809 63.8204C39.5551 66.2638 41.3915 69.4008 43.5518 73.1867L43.5931 73.1899C40.1655 66.9767 37.7194 62.5864 36.2231 59.8918C33.0733 52.7856 36.0014 55.7998 46.9761 70.3772L47.1099 70.2629C32.3675 49.03 33.5946 50.3732 48.1007 69.3008L48.1899 69.2246C38.5853 56.2926 35.2263 51.3321 39.7034 55.2988C41.2578 57.2496 44.7672 61.3487 49.9583 67.3669C45.845 62.4723 42.7997 58.8252 41.023 56.5244C43.1947 58.5649 46.4409 61.7704 50.8314 66.3125C45.1407 60.2968 41.5195 56.5632 39.8152 54.9334C37.4701 51.3825 41.2961 54.0927 52.7438 63.676L52.884 63.4791C35.1921 47.5042 36.5789 48.4025 53.4993 62.5292L53.595 62.3704C38.6243 49.3937 36.4597 46.7301 51.171 55.0298C52.5991 55.9312 54.183 56.9696 55.926 58.1035L55.9324 58.0209C54.8638 57.3138 53.8746 56.6545 52.9236 56.0397C53.8811 56.5718 54.9562 57.1963 56.0313 57.8207L56.1269 57.6618C52.2752 55.2823 49.2981 53.4284 47.113 52.0936C39.655 46.8547 42.2737 47.4334 57.4768 54.2331L57.4962 53.9851C38.0502 44.4843 39.3767 45.0868 57.6396 53.7469L57.6493 53.6229C43.9039 46.8122 40.0903 44.4772 48.3248 46.6999C50.5868 47.5833 54.0228 48.891 58.5086 50.6132C54.9963 49.2164 52.1713 48.0812 49.9953 47.163C52.2352 47.7952 55.121 48.6857 58.6559 49.7931L58.6688 49.6278C52.7478 47.6273 48.7676 46.3603 46.6963 45.6997C42.6468 43.7205 46.316 44.1732 59.1202 47.0437C59.1267 46.961 59.1331 46.8784 59.1396 46.7957C39.6794 41.7426 40.9936 41.9699 59.1718 46.3825L59.188 46.1758C41.2456 41.4075 39.9229 40.2232 59.4477 41.2483C59.4574 41.1244 59.4639 41.0417 59.4735 40.9177C41.0889 39.15 42.5337 39.3044 59.4897 40.7111L59.4961 40.6284C42.6804 39.0248 41.2329 38.3713 59.305 37.7447C59.3147 37.6207 59.283 37.4935 59.248 37.4076C42.119 37.1516 40.7989 36.4664 58.6217 33.6999C58.6282 33.6172 58.5933 33.5313 58.5584 33.4454C57.0878 33.6217 55.7859 33.7695 54.6081 33.9271C42.8595 35.1305 43.0669 34.6061 57.9846 31.197L57.918 30.9839C40.836 34.3904 41.8994 34.0992 57.8546 30.7295C57.8611 30.6469 57.8262 30.561 57.7912 30.4751C41.7855 33.4251 40.3316 32.8542 56.2489 26.2385C56.1758 26.1081 56.106 25.9363 56.0329 25.8059C40.7535 31.1825 41.8012 30.5574 55.5692 24.8134L55.5789 24.6894C41.7443 30.2204 40.4456 30.3269 54.6291 22.9937L54.5178 22.8187C39.5929 30.0524 40.5483 29.5449 54.3717 22.5579L54.2637 22.3415C40.3866 28.9502 39.0659 28.8056 52.3731 19.3667C52.3001 19.2362 52.2238 19.1471 52.1093 19.0135C39.1375 27.3559 39.9912 26.5494 51.585 18.2657L51.5914 18.1831C39.8833 26.3331 38.7657 26.7864 50.7141 17.1583L50.5996 17.0246C37.9286 26.8458 38.6518 26.1122 50.2977 16.6268C50.2181 16.5791 50.1832 16.4932 50.1037 16.4454C38.1016 25.6951 36.7648 25.7571 47.4077 13.6571C47.2519 13.5202 47.1375 13.3866 46.9816 13.2497C36.1427 24.1285 36.564 22.9972 45.4998 11.9698L45.3822 11.8775C36.2905 22.768 35.3986 23.5299 44.5585 11.2311L44.4027 11.0942C34.5486 23.7546 34.9602 22.7473 43.6172 10.4924C43.5377 10.4446 43.4995 10.4 43.42 10.3522C34.4895 22.378 33.3687 22.8726 40.8851 8.69915C40.7261 8.60358 40.6084 8.51123 40.4494 8.41566C32.5521 21.6031 32.7316 20.3697 38.7731 7.49484L38.6903 7.48838C32.4866 20.309 31.9508 21.3067 38.4104 7.34179L38.2863 7.3321C31.2819 21.8781 31.5312 20.8166 37.4084 6.8478L37.208 6.749C30.9107 20.7681 29.936 21.5236 34.4689 5.5789C34.3066 5.52465 34.1062 5.42586 33.9439 5.37161C28.6417 20.5078 28.4171 19.1182 31.3031 4.54181L31.179 4.53212C28.0416 19.1305 27.6966 20.3509 30.7718 4.41717L30.5649 4.40103C26.8938 21.0367 26.6564 19.8124 28.4426 3.86116C28.3599 3.8547 28.2771 3.84824 28.1944 3.84179C25.9912 19.802 25.3663 20.8758 25.7282 3.44139C25.5627 3.42847 25.3972 3.41555 25.2317 3.40264C24.2188 16.379 23.6755 18.5402 22.9602 11.7072C22.9081 9.7074 22.7965 6.8714 22.6699 3.16108C22.6699 3.16108 22.5872 3.15463 22.5458 3.1514C22.5693 4.98266 22.609 6.6073 22.6616 8.06662C22.5644 6.64539 22.4452 4.97297 22.2976 3.13202L22.2148 3.12556C22.3834 6.29863 22.5557 8.88992 22.6937 10.8548C22.7507 20.2559 22.0922 16.9614 20.4261 3.11068L20.2193 3.09453C21.9201 20.2326 21.6578 21.4595 18.1281 3.22234C18.004 3.21265 17.8353 3.24106 17.7079 3.2727C20.2098 21.3465 19.1514 19.9749 14.0919 3.73884L14.0092 3.73238C18.8838 20.2035 19.3533 21.6538 13.8818 3.76402L13.6271 3.82729C18.7569 22.8962 17.4722 21.7564 9.55221 4.8397L9.3389 4.9062C16.8575 22.1658 17.1267 23.5173 7.50185 5.51121C7.3745 5.54285 7.28853 5.57771 7.15797 5.65068C13.16 18.3431 14.1974 21.584 10.5961 17.0619C9.33786 15.0511 7.22805 11.6849 4.18718 6.91558L4.05661 6.98855C5.68019 9.65153 7.04643 11.8786 8.10751 13.7493C6.8299 11.9865 5.29172 9.8291 3.4962 7.23585L3.45482 7.23262C5.84455 10.7454 7.74807 13.555 9.13366 15.5341C14.1849 24.4103 11.1327 21.3863 0.537746 8.87592L0.407184 8.94888C13.4332 24.9753 14.2912 26.248 -0.513242 9.54228L-0.733001 9.69144C13.1736 26.7013 11.1663 25.7546 -4.17937 12.2497L-4.22074 12.2465C11.1819 26.0885 12.6223 27.3651 -4.31316 12.364C-4.35776 12.4021 -4.44695 12.4783 -4.49155 12.5164C12.8242 29.0439 10.6031 28.7043 -8.96801 17.0732L-9.10503 17.2288C10.3795 29.4352 11.7533 30.4987 -9.84117 18.1276L-9.9782 18.2832C4.59236 27.3204 7.76929 29.8135 1.16761 27.4688C-1.44091 26.2257 -5.82141 24.2207 -12.1329 21.3581L-12.1426 21.4821C-9.216 22.9163 -6.6107 24.2007 -4.45081 25.3255C-6.70957 24.4008 -9.41052 23.2753 -12.5123 21.9521C-8.6884 23.6227 -5.46576 24.9969 -2.92707 26.0682C9.99732 32.7316 5.23044 31.9437 -14.7767 26.4321L-14.7864 26.5561C9.22625 33.5445 11.0525 34.1445 -14.9298 26.7944L-14.9395 26.9183C10.3771 34.7986 7.74808 34.8844 -16.4205 30.9605C7.93558 35.1485 10.319 35.5424 -16.6059 31.736L-16.6188 31.9013C11.4059 37.0825 9.00198 38.0175 -17.884 39.5776L-17.8937 39.7016C9.28456 38.6632 11.4107 38.6212 -17.9517 40.4455L-17.9582 40.5281C10.891 39.4122 8.24535 40.2452 -17.8891 44.4418C8.36301 40.3375 10.9765 39.9178 -17.8767 44.817L-17.8832 44.8997C12.1214 40.714 10.0543 42.1326 -16.8046 51.3453L-16.8111 51.4279C10.4836 42.4988 12.6613 41.7956 -16.6778 51.8541C12.3518 42.5615 9.8678 43.9891 -15.6437 55.1363C10.065 44.1292 12.6409 43.1245 -14.8153 57.3214C14.0722 43.9847 12.4946 46.0651 -11.0191 64.1455L-10.9777 64.1487C12.8792 46.4694 14.8539 45.1683 -10.2309 65.2465C14.6685 45.9438 12.6325 48.0301 -8.75289 67.1081C12.7502 48.1224 14.9736 46.3002 -7.14108 68.8554C16.2814 46.6102 15.2701 48.9012 -2.66397 72.8222L-2.62259 72.8254C15.7155 49.0607 17.3184 47.1901 -1.16604 73.8954C17.3844 47.9436 15.8987 50.4471 0.141169 74.7459C16.0163 50.5394 17.8583 48.2717 3.77053 76.7754L3.81189 76.7787C19.2966 48.5087 18.9408 50.934 9.01661 78.8896L9.09935 78.8961C19.332 51.2556 20.3782 49.0505 11.1738 79.5154C20.4507 49.7214 19.6172 52.4004 11.2566 79.5218C19.6935 52.4895 20.8547 49.8776 15.355 80.3407L15.3964 80.3439C22.0706 49.7647 22.2242 52.0634 19.3681 80.6539L19.4509 80.6604C22.2487 56.0152 23.0624 50.9231 22.8643 69.9919C22.7562 72.977 22.6061 76.4994 22.449 80.645C22.5695 78.035 22.6738 75.6316 22.8002 73.4794C22.7566 75.638 22.7382 78.0065 22.7004 80.623C22.8425 75.6032 22.9996 71.4577 23.0858 68.2213C23.9956 53.3659 24.881 55.8881 27.7011 80.0155L27.7839 80.0219C25.5298 50.2426 26.2024 52.2908 30.7955 79.3007L30.8782 79.3072C28.1528 61.9644 27.164 54.9021 28.8235 59.7715C29.1806 62.1278 30.5042 68.6341 32.5847 78.7751C30.9952 70.876 29.8999 65.1775 29.4482 61.8992C30.4029 65.1336 31.8517 70.5687 33.8264 78.3316C31.5127 69.0454 30.0134 63.1906 29.2237 60.5096C28.7071 55.3968 30.9871 60.3146 37.1824 76.9304L37.313 76.8574C28.4833 50.2652 29.4713 52.0055 39.351 75.8108L39.4338 75.8172C32.028 57.1112 30.2832 51.7362 36.4535 61.7392C37.8955 64.5959 39.9983 68.5852 42.6759 73.742L42.9752 73.6406Z" fill="url(#paint2_radial_286_794)"/>
<path style="mix-blend-mode:color-dodge" opacity="0.3" d="M12.2556 6.46438C31.2967 1.42297 50.8457 12.8029 55.8546 31.8207C60.9048 50.8418 49.5157 70.3676 30.4779 75.3676C11.4369 80.409 -8.11218 69.0291 -13.121 50.0113C-18.1712 30.9902 -6.78219 11.4645 12.2556 6.46438Z" fill="url(#paint3_linear_286_794)"/>
<defs>
<radialGradient id="paint0_radial_286_794" cx="0" cy="0" r="1" gradientUnits="userSpaceOnUse" gradientTransform="translate(38.0493 -22.4603) rotate(30.3984) scale(131.769 131.679)">
<stop stop-color="#FF9D00"/>
<stop offset="0.1" stop-color="#F99800"/>
<stop offset="0.24" stop-color="#E88A00"/>
<stop offset="0.39" stop-color="#CD7300"/>
<stop offset="0.54" stop-color="#AD5700"/>
<stop offset="0.6" stop-color="#A15200"/>
<stop offset="0.72" stop-color="#824600"/>
<stop offset="0.86" stop-color="#513300"/>
<stop offset="1" stop-color="#1E1F00"/>
</radialGradient>
<radialGradient id="paint1_radial_286_794" cx="0" cy="0" r="1" gradientUnits="userSpaceOnUse" gradientTransform="translate(-7.93109 -21.8135) rotate(-14.657) scale(106.429 106.336)">
<stop/>
<stop offset="0.04" stop-color="#060300"/>
<stop offset="0.5" stop-color="#4B2500"/>
<stop offset="0.83" stop-color="#763B00"/>
<stop offset="1" stop-color="#874400"/>
</radialGradient>
<radialGradient id="paint2_radial_286_794" cx="0" cy="0" r="1" gradientUnits="userSpaceOnUse" gradientTransform="translate(24.3339 35.4241) rotate(59.7937) scale(59.9192 59.9427)">
<stop stop-color="#FFA600"/>
<stop offset="0.08" stop-color="#F9A100"/>
<stop offset="0.19" stop-color="#E89300"/>
<stop offset="0.31" stop-color="#CD7D00"/>
<stop offset="0.44" stop-color="#A85F00"/>
<stop offset="0.54" stop-color="#874400"/>
<stop offset="0.64" stop-color="#763E00"/>
<stop offset="0.82" stop-color="#4B2F00"/>
<stop offset="1" stop-color="#1E1F00"/>
</radialGradient>
<linearGradient id="paint3_linear_286_794" x1="3.9337" y1="57.8471" x2="101.139" y2="-36.9347" gradientUnits="userSpaceOnUse">
<stop/>
<stop offset="1" stop-color="white"/>
</linearGradient>
</defs>
</svg>
