<svg width="52" height="52" viewBox="0 0 52 52" fill="none" xmlns="http://www.w3.org/2000/svg">
<path style="mix-blend-mode:screen" d="M27.5001 7.87427C27.6195 18.5029 27.6396 20.0032 28.7417 7.97737C28.2701 20.1099 28.8805 18.7162 32.1749 8.56575C29.0794 18.8033 28.6803 20.2557 33.4374 9.08481C29.2291 20.3943 30.161 19.0397 35.657 10.1247C30.2621 19.1179 29.4723 20.5347 37.0417 11.138C29.9568 21.052 31.2436 20.1241 39.4149 13.296C31.4051 20.2965 30.2514 21.3845 40.4458 14.7306C30.5904 21.7702 32.1115 21.0805 41.4872 16.3731C32.1469 21.2316 30.7145 22.028 42.3168 18.4992C30.8063 22.7461 32.3429 22.6395 43.0358 21.187C32.4102 22.8723 30.9125 23.1994 43.1706 23.5851C30.9654 23.6972 32.5036 23.8963 43.1464 25.0321C32.4981 24.0634 30.9261 24.0189 42.59 27.7715C30.6361 24.6038 31.8772 25.2491 41.9418 29.7927C31.8468 25.4731 30.506 25.0553 40.4991 32.3134C30.3067 25.5104 31.4198 26.3708 40.0367 33.06C31.3575 26.513 30.1662 25.7539 38.0313 35.1648C29.6828 26.0846 30.4191 27.1867 36.9807 36.0945C30.2591 27.3201 29.3504 26.3797 34.2546 37.6802C28.9771 26.6908 29.4841 27.9298 33.6042 38.0055C29.3615 27.9778 28.7194 26.8152 30.9213 38.7966C28.1811 26.8845 28.3134 28.1289 29.7949 39.049C28.0806 28.1965 27.7406 26.9628 26.5069 39.1344C27.1774 27.089 26.9791 28.392 25.4766 39.09C26.8122 28.3867 26.8843 27.0623 23.0862 38.5176C26.4173 26.8917 25.9065 28.0578 21.9158 38.1745C25.6792 27.9583 25.9786 26.7335 19.2756 36.7808C25.4264 26.5255 24.6031 27.5547 18.1127 36.0342C24.4735 27.4641 25.1956 26.3566 16.7299 34.7845C24.9418 26.0082 23.9252 26.7832 15.72 33.766C23.7761 26.5824 24.6472 25.6758 14.3113 31.7252C24.3048 25.2207 23.0503 25.6882 13.396 30.104C23.0024 25.5656 24.1522 24.9505 12.9139 28.8081C24.0744 24.5096 22.8468 24.6838 12.3345 26.9611C22.8079 24.4634 24.025 24.0812 12.0661 24.9453C23.9118 23.4893 22.6099 23.2919 11.9846 22.5027C22.6279 23.0964 23.9227 23.1551 12.1151 21.509C24.0812 22.716 22.9732 22.2307 12.6127 18.9812C23.032 22.0191 24.2272 22.3053 13.1289 17.648C24.4105 21.8094 23.4111 20.9988 14.3388 15.1948C23.4894 20.8974 24.5919 21.5498 14.73 14.6881C24.9243 21.2547 24.1951 20.2912 16.6272 12.3665C24.355 20.1579 25.2443 20.9881 17.4271 11.6999C25.6016 20.6361 25.0821 19.4255 19.7181 10.0253C25.2047 19.3775 25.8593 20.5117 20.4094 9.68399C26.3622 20.2912 26.1696 18.9526 23.4994 8.42716C26.3899 18.9135 26.7743 20.2006 24.6418 8.21561C27.3056 19.9926 27.4116 18.5136 27.4593 7.89028L27.5001 7.87427Z" fill="url(#paint0_radial_221_9)"/>
<path style="mix-blend-mode:multiply" d="M44.2955 21.1519C47.0938 31.4623 41.0049 42.1177 30.6999 44.9265C20.395 47.7352 9.75264 41.6504 6.95435 31.34C4.15606 21.0296 10.245 10.3743 20.5499 7.5655C30.8549 4.75672 41.4972 10.8416 44.2955 21.1519Z" fill="url(#paint1_radial_221_9)"/>
<path style="mix-blend-mode:screen" opacity="0.3" d="M44.2244 20.85C42.0588 21.1558 40.2521 21.4153 38.8167 21.6002C40.2042 21.2927 41.9915 20.9229 44.1092 20.4945C40.6129 21.1327 38.1488 21.5789 36.6636 21.8776C32.8193 22.2278 34.6923 21.3532 43.34 18.4626L43.3081 18.3809C30.8904 21.9932 31.7327 21.6163 42.9995 17.7711L43.0119 17.7427C35.3291 20.2084 32.4384 21.0101 35.017 19.5293C36.1898 19.0938 38.6952 18.0894 42.3574 16.6085C39.4024 17.7889 37.1955 18.6529 35.8149 19.0991C37.0998 18.4076 39.1736 17.3836 42.0079 16.0148C38.2336 17.7516 35.9146 18.8715 34.8715 19.3977C32.8016 19.9488 34.6909 18.5729 41.0782 14.6585L41.0179 14.5642C30.643 20.3933 31.2989 19.9009 40.6754 14.1092L40.6186 14.0843C32.1042 19.0671 30.5104 19.6911 36.7818 14.031C37.4501 13.5101 38.1842 12.9164 38.9841 12.2497C38.4473 12.6248 37.9799 12.9964 37.5249 13.3395C37.9515 12.9839 38.403 12.5715 38.8545 12.1591L38.7693 12.1218C37.0344 13.5315 35.7013 14.6425 34.729 15.4709C31.0729 18.1747 31.7506 17.0139 37.3741 10.9005L37.2604 10.8507C29.6604 18.5392 30.1618 18.013 37.1717 10.7441L37.1149 10.7192C31.6927 16.1411 30.0022 17.6041 32.3499 14.0221C33.1358 13.0782 34.2879 11.6845 35.8189 9.81261C34.585 11.2383 33.6017 12.4009 32.8407 13.288C33.5005 12.3227 34.3701 11.1103 35.4744 9.59396L35.4176 9.56907C33.5434 12.0703 32.2791 13.7199 31.6566 14.5999C30.0833 16.182 30.8751 14.5288 34.2742 8.93268L34.1605 8.8829C28.6809 17.2966 29.0118 16.6958 33.9617 8.7958L33.8764 8.75847C28.765 16.486 27.9955 16.9286 31.5946 7.86077L31.4525 7.79855C27.6959 16.2211 27.9824 15.567 31.3548 7.78967L31.298 7.76478C27.8528 15.4763 27.3266 16.0594 29.9039 7.39149C29.8471 7.3666 29.7902 7.3417 29.721 7.34526C26.9043 15.3999 26.3337 15.9296 27.8579 7.03775L27.7442 6.98797C27.5873 7.73281 27.4393 8.37988 27.3447 8.98251C26.0505 14.7208 25.8197 14.5519 26.5754 6.95065L26.4618 6.90088C25.3428 15.5634 25.3841 15.0052 26.3108 6.93643L26.1971 6.88666C25.0218 14.9821 24.5239 15.5776 23.9109 7.00401C23.8416 7.00756 23.7315 7.02712 23.6622 7.03067C23.7782 15.1155 23.665 14.5235 23.1239 7.10001L23.0671 7.07512C23.4696 14.5057 23.3342 15.1243 22.1042 7.26355L21.994 7.28311C23.0745 15.4852 22.9648 14.9626 21.843 7.31867L21.7328 7.33823C22.6593 14.9644 22.3977 15.5617 20.0183 7.77376C19.9491 7.77732 19.8957 7.82176 19.814 7.85375C21.6909 15.3199 21.4426 14.8044 19.3769 8.00131C21.3449 14.7955 21.3889 15.391 18.7355 8.22885L18.6537 8.26085C21.2713 15.8141 21.0549 15.3804 18.4085 8.35685L18.2859 8.40484C20.7439 15.5492 20.5835 16.2247 16.5356 9.23147C16.4538 9.26347 16.3596 9.32391 16.2655 9.38435C19.6953 16.2425 19.2178 15.8639 15.4018 9.88744L15.3768 9.94432C19.0419 15.9563 19.2777 16.5003 14.8899 10.2056L14.7957 10.2661C19.2169 16.9483 18.8371 16.5785 14.4065 10.5363L14.3123 10.5967C18.5954 16.7438 18.6393 17.3393 13.1232 11.5336C13.0699 11.578 13.0041 11.6509 12.9223 11.6829C17.8842 17.5171 17.3569 17.2523 12.2042 12.3175L12.1917 12.346C17.2627 17.3127 17.6585 17.7233 12.0851 12.4348L12.0602 12.4917C17.8305 18.1037 17.3724 17.8353 11.6744 12.8313L11.6371 12.9166C17.2478 18.1197 17.4428 18.6797 10.6095 14.0259C10.5721 14.1112 10.4779 14.1716 10.4405 14.257C16.7585 19.1597 16.0587 19.0566 9.62075 15.3556L9.59584 15.4124C16.0248 19.2112 16.5432 19.5739 9.45182 15.5866L9.40199 15.7004C16.6938 20.0805 16.0793 20.0147 8.79552 16.6213L8.74569 16.735C15.9422 20.3276 16.354 20.7791 8.16217 17.8354L8.06252 18.0629C14.0378 20.5783 14.9734 21.2253 11.615 20.4663C10.656 20.1819 9.30277 19.7926 7.5109 19.2451L7.48599 19.302C8.34728 19.5775 9.15175 19.8281 9.84258 20.029C9.13929 19.8566 8.35078 19.6468 7.46457 19.4282L7.45212 19.4566C8.95987 19.8797 10.2403 20.2032 11.1709 20.4752C15.6354 21.956 13.9836 21.7071 7.14767 20.3064L7.1103 20.3917C15.4859 22.2973 16.0576 22.6155 6.84127 21.3925L6.75407 21.5916C15.7302 23.2856 14.9253 23.5772 6.44177 23.387L6.41686 23.4439C14.9891 23.7407 15.7547 23.7709 6.42035 23.5133L6.37053 23.627C16.2517 24.2598 15.4947 24.674 6.22673 25.7335L6.1769 25.8473C15.569 25.0455 16.2687 25.1486 6.22585 26.8179C6.20094 26.8748 6.23284 26.9566 6.22038 26.985C13.1807 26.169 14.8628 26.1939 12.162 27.1805C10.9948 27.449 9.10084 27.9076 6.35763 28.6045L6.33272 28.6614C7.8997 28.3307 9.17711 28.0427 10.2218 27.8223C9.19656 28.1529 7.9102 28.5387 6.40354 28.9635C8.44498 28.4 10.0743 27.9271 11.238 27.5894C16.2445 26.5956 14.3217 27.584 6.70775 30.5883L6.73966 30.6701C16.3916 27.0329 17.1466 26.8552 6.87778 31.2052L6.92564 31.3278C17.1906 27.4507 16.4386 28.24 7.59724 33.3508C16.5931 28.2737 17.4284 27.7582 7.62915 33.4326L7.67701 33.5552C18.2453 27.9804 17.74 28.9795 9.11177 36.387L9.14368 36.4688C18.0152 29.2017 18.7403 28.7057 9.47368 36.9523L9.53401 37.0465C16.1214 31.5926 17.8294 30.4762 15.6476 33.2156C14.6574 34.2396 13.0093 35.9924 10.6377 38.5469L10.6945 38.5718C11.8447 37.4145 12.8634 36.403 13.722 35.5248C12.9077 36.4563 11.9618 37.5336 10.8595 38.8135C12.2534 37.2545 13.425 35.971 14.346 34.9506C19.5494 29.8736 18.4072 32.0175 12.6326 40.6409L12.6894 40.6658C19.8136 30.43 20.3702 29.6229 12.7781 40.7725L12.8349 40.7974C20.615 30.0691 20.2054 31.3135 14.5143 42.143C20.3565 31.2779 20.9275 30.206 14.8303 42.3492L14.8871 42.3741C21.7893 29.9394 21.8681 31.2282 18.3139 44.214L18.3707 44.2389C22.1861 31.1979 22.5244 30.1936 18.7117 44.3882C22.7941 30.5829 22.7664 31.9606 20.6172 44.9855C22.8606 31.9001 23.0588 30.5971 20.7877 45.0601C23.608 30.1936 23.9481 31.4272 24.0379 45.6023C24.1773 31.2904 24.2031 30.1491 24.2901 45.6449C24.4942 30.4122 24.7879 31.829 26.0007 45.6823C24.8821 31.7685 24.8122 30.382 27.1784 45.6218C25.4646 29.8202 26.2008 30.9224 31.0052 44.9249C26.4461 30.8264 26.1379 29.6745 31.6217 44.7543C26.4539 29.8807 27.103 31.1819 32.7411 44.3632C27.1723 31.1783 26.6867 29.8131 33.8286 43.8903C27.0335 29.2531 27.9387 30.1242 36.4072 42.4095C28.0828 29.95 27.4601 28.8976 37.1448 41.8851C27.826 28.99 28.7417 30.0691 37.7598 41.4087C28.8234 30.0371 28.0393 28.8123 39.2868 40.0096C28.3542 28.1705 29.4657 28.7252 41.1093 37.8587L41.1217 37.8302C29.6666 28.5758 28.7773 27.7457 41.7441 36.9503C29.1147 27.8257 30.2402 28.6576 41.7566 36.9218C30.322 28.6256 29.2463 27.6799 42.7901 35.1033C29.3693 27.0897 30.4953 27.3795 43.5874 33.283L43.5998 33.2545C32.3883 28.0052 30.0925 26.8302 39.0853 29.9552C40.4739 30.4956 42.1307 31.1196 44.0557 31.8271C42.8375 31.3613 41.733 30.9454 40.7261 30.5383C41.7295 30.876 42.8624 31.3044 44.0931 31.7417C41.7295 30.876 39.8045 30.1685 38.2898 29.6068C31.4123 26.8319 32.7446 26.8053 44.5817 29.3117L44.6067 29.2548C30.1557 25.6036 31.2392 25.6036 44.7376 27.7189L44.75 27.6904C36.1183 26.2151 32.6124 25.5609 35.1827 25.568C36.346 25.7724 39.6585 26.1724 44.7738 26.7856C40.79 26.295 37.9215 25.8862 36.2947 25.5804C37.9928 25.6462 40.7939 25.8222 44.7673 26.1048C39.9964 25.7102 36.9999 25.5164 35.6073 25.4489C33.1192 24.8676 35.8141 24.5903 44.648 24.2898L44.6729 24.2329C30.6524 24.1601 31.6153 23.9717 44.4624 23.0899L44.4749 23.0614C34.4294 23.577 31.6228 23.5682 37.3205 22.2331C38.8785 22.0002 41.1259 21.6624 44.0057 21.1949L44.2244 20.85Z" fill="url(#paint2_radial_221_9)"/>
<path style="mix-blend-mode:color-dodge" opacity="0.3" d="M9.98168 17.0054C14.8148 8.44421 25.6795 5.43988 34.2304 10.2697C42.7812 15.0995 45.7745 25.9699 40.9413 34.5311C36.1082 43.0924 25.2435 46.0967 16.6926 41.2669C8.14175 36.437 5.14852 25.5667 9.98168 17.0054Z" fill="url(#paint3_linear_221_9)"/>
<defs>
<radialGradient id="paint0_radial_221_9" cx="0" cy="0" r="1" gradientUnits="userSpaceOnUse" gradientTransform="translate(-4.41829 29.088) rotate(-86.0876) scale(53.1526 53.1072)">
<stop/>
<stop offset="0.04" stop-color="#060300"/>
<stop offset="0.5" stop-color="#4B2500"/>
<stop offset="0.83" stop-color="#763B00"/>
<stop offset="1" stop-color="#874400"/>
</radialGradient>
<radialGradient id="paint1_radial_221_9" cx="0" cy="0" r="1" gradientUnits="userSpaceOnUse" gradientTransform="translate(8.67351 -2.3205) rotate(-15.2888) scale(65.7529 65.7683)">
<stop stop-color="#FF9D00"/>
<stop offset="0.1" stop-color="#F99800"/>
<stop offset="0.24" stop-color="#E88A00"/>
<stop offset="0.39" stop-color="#CD7300"/>
<stop offset="0.54" stop-color="#AD5700"/>
<stop offset="0.6" stop-color="#A15200"/>
<stop offset="0.72" stop-color="#824600"/>
<stop offset="0.86" stop-color="#513300"/>
<stop offset="1" stop-color="#1E1F00"/>
</radialGradient>
<radialGradient id="paint2_radial_221_9" cx="0" cy="0" r="1" gradientUnits="userSpaceOnUse" gradientTransform="translate(23.109 23.5636) rotate(-11.6477) scale(29.9111 29.9221)">
<stop stop-color="#FFA600"/>
<stop offset="0.08" stop-color="#F9A100"/>
<stop offset="0.19" stop-color="#E89300"/>
<stop offset="0.31" stop-color="#CD7D00"/>
<stop offset="0.44" stop-color="#A85F00"/>
<stop offset="0.54" stop-color="#874400"/>
<stop offset="0.64" stop-color="#763E00"/>
<stop offset="0.82" stop-color="#4B2F00"/>
<stop offset="1" stop-color="#1E1F00"/>
</radialGradient>
<linearGradient id="paint3_linear_221_9" x1="25.43" y1="37.932" x2="25.4889" y2="-29.907" gradientUnits="userSpaceOnUse">
<stop/>
<stop offset="1" stop-color="white"/>
</linearGradient>
</defs>
</svg>
