<svg width="93" height="94" viewBox="0 0 93 94" fill="none" xmlns="http://www.w3.org/2000/svg">
<path style="mix-blend-mode:multiply" d="M89.4881 44.8359C90.685 68.6047 72.3478 88.8577 48.5531 90.0492C24.7584 91.2407 4.48015 72.9201 3.28325 49.1512C2.08636 25.3824 20.4235 5.12938 44.2182 3.93788C68.0129 2.74638 88.2912 21.067 89.4881 44.8359Z" fill="url(#paint0_radial_221_10)"/>
<path d="M84.8496 41.4998C86.9127 23.4079 73.9024 7.06825 55.7903 5.00428C37.6782 2.94031 21.3229 15.9336 19.2598 34.0255C17.1967 52.1175 30.2069 68.4571 48.3191 70.5211C66.4312 72.5851 82.7865 59.5918 84.8496 41.4998Z" fill="url(#paint1_radial_221_10)"/>
<defs>
<radialGradient id="paint0_radial_221_10" cx="0" cy="0" r="1" gradientUnits="userSpaceOnUse" gradientTransform="translate(46.4016 46.977) rotate(-2.8686) scale(43.1601 43.1139)">
<stop offset="0.59" stop-color="#8F5F33"/>
<stop offset="0.6" stop-color="#926339"/>
<stop offset="0.65" stop-color="#AE8C6D"/>
<stop offset="0.71" stop-color="#C7AF99"/>
<stop offset="0.77" stop-color="#DBCCBE"/>
<stop offset="0.83" stop-color="#EBE2DA"/>
<stop offset="0.89" stop-color="#F6F2EE"/>
<stop offset="0.94" stop-color="#FCFBFA"/>
<stop offset="1" stop-color="white"/>
</radialGradient>
<radialGradient id="paint1_radial_221_10" cx="0" cy="0" r="1" gradientUnits="userSpaceOnUse" gradientTransform="translate(53.4357 33.6828) rotate(-161.232) scale(36.0788 36.0437)">
<stop offset="0.25" stop-color="white"/>
<stop offset="0.46" stop-color="#FCFCFC"/>
<stop offset="0.61" stop-color="#F4F3F2"/>
<stop offset="0.74" stop-color="#E5E4E2"/>
<stop offset="0.86" stop-color="#D2CFCC"/>
<stop offset="0.97" stop-color="#B8B4AF"/>
</radialGradient>
</defs>
</svg>
