<svg width="57" height="57" viewBox="0 0 57 57" fill="none" xmlns="http://www.w3.org/2000/svg">
<path style="mix-blend-mode:multiply" d="M42.863 49.5685C31.0786 57.6295 14.9549 54.6246 6.88313 42.8517C-1.18866 31.0788 1.81671 14.9733 13.6011 6.91232C25.3856 -1.14862 41.5092 1.85624 49.581 13.6292C57.6528 25.4021 54.6474 41.5076 42.863 49.5685Z" fill="url(#paint0_radial_286_809)"/>
<path style="mix-blend-mode:screen" d="M49.3164 17.0177C35.9535 21.8371 34.0686 22.5215 49.7316 18.63C34.211 23.3641 36.2382 23.5224 50.4971 23.2218C36.2156 23.8117 34.2072 23.9459 50.3965 25.0433C34.2733 24.6995 36.3923 25.2807 50.0589 28.3016C36.3381 25.4428 34.2029 25.0682 49.3883 30.4945C33.7628 25.907 35.4993 27.1236 47.7069 34.4379C35.3526 27.4032 33.4726 26.4248 46.349 36.3692C33.1346 27.0221 34.6734 28.6391 44.7332 38.4051C34.4982 28.7501 32.8638 27.292 42.4142 40.3861C31.9976 27.7234 32.8073 29.616 39.3375 42.4744C32.5429 29.8032 31.4722 28.0565 36.3699 43.6979C30.8671 28.3419 31.2915 30.3708 34.5329 44.3029C31.0782 30.4373 30.4437 28.4336 30.8309 44.804C29.5782 28.3245 29.3089 30.1745 27.995 44.8736C29.0128 30.2345 28.9511 28.3587 24.1797 44.16C28.2892 28.307 27.6922 30.0899 23.0342 43.9043C27.4853 30.0737 27.9201 28.2366 19.4967 42.2977C27.2904 27.7717 26.2227 29.1852 17.8617 41.3801C25.9841 29.0418 26.7719 27.4818 14.6628 38.6357C26.2153 27.1473 24.8741 28.3315 13.9665 37.9577C24.7597 28.1978 25.945 26.8767 11.7895 34.9189C25.6211 26.2278 24.1085 26.9412 10.9761 33.608C23.921 26.6771 25.3288 25.706 9.42402 29.4954C24.9221 25.0506 23.1904 25.3728 9.02757 28.1756C23.1237 25.1597 24.827 24.669 8.69998 24.9069C24.8373 24.0045 23.141 23.8721 8.61893 23.2791C23.1668 23.5415 24.8443 23.3814 9.21821 19.3344C24.8642 22.593 23.2034 22.006 9.64975 17.5386C23.2609 21.8026 24.976 22.2275 10.6197 15.2444C25.3043 21.7542 23.8794 20.8114 11.4617 13.5223C24.0675 20.535 25.5944 21.2363 13.4187 10.8477C26.0184 20.6042 24.8773 19.2262 15.0629 8.98035C25.011 19.1119 26.2924 20.2929 16.4868 7.80258C26.8147 20.0011 26.0556 18.5282 18.5636 6.26C26.3167 18.3823 27.3337 19.7506 20.9901 5.03576C28.0312 19.3476 27.7084 17.6178 24.0371 3.85996C27.963 17.5545 28.4578 19.2146 25.3487 3.58814C29.0816 19.2218 29.2074 17.61 28.7579 3.10585C29.5003 17.5913 29.664 19.2256 30.6674 3.17176C30.3706 19.2392 30.9547 17.6217 34.2953 3.62125C31.117 17.6759 30.7779 19.3542 35.1066 3.89247C31.2963 19.6441 32.1921 18.3004 38.8703 5.26728C32.4306 18.4437 31.7734 19.9308 40.063 5.98406C32.3747 20.2272 33.6745 19.0398 43.183 8.14018C33.7889 19.1734 32.6449 20.4978 43.9175 8.86275C33.144 21.0357 34.749 20.2047 46.8612 12.2109C34.8951 20.4655 33.4395 21.5161 47.63 13.5598C33.9354 22.0953 35.8488 21.5794 49.2782 16.9731L49.3164 17.0177Z" fill="url(#paint1_radial_286_809)"/>
<path style="mix-blend-mode:screen" opacity="0.3" d="M43.2123 49.3464C41.8751 46.7473 40.7539 44.5809 39.89 42.8503C40.8877 44.4666 42.1395 46.56 43.6105 49.0448C41.2691 44.9121 39.6236 41.998 38.5942 40.2545C36.4635 35.5562 38.3901 37.536 45.8371 47.1813L45.9263 47.1051C35.9123 33.0185 36.758 33.9161 46.5604 46.4478L46.6018 46.451C40.1148 37.837 37.8331 34.5405 40.8349 37.1448C41.8997 38.4336 44.268 41.1548 47.7457 45.1267C44.9578 41.9154 42.898 39.5094 41.7283 37.9629C43.1656 39.2809 45.3689 41.4486 48.3416 44.4248C44.4915 40.4238 42.0593 37.9888 40.937 36.9033C39.3322 34.5328 41.8987 36.3131 49.6452 42.6555L49.7376 42.538C37.823 32.0035 38.7326 32.615 50.1616 41.9058L50.168 41.8232C40.1387 33.2653 38.651 31.5276 48.5499 36.957C49.5009 37.5718 50.5728 38.2375 51.7656 38.9543C51.0564 38.4416 50.3821 38.0147 49.7492 37.5911C50.3853 37.9734 51.1042 38.3621 51.8231 38.7509L51.8327 38.6269C49.2914 37.0565 47.3035 35.8618 45.8308 34.9985C40.812 31.5716 42.5749 31.917 52.7613 36.3295L52.7742 36.1642C39.7316 29.9488 40.616 30.3505 52.8699 36.0053L52.8763 35.9227C43.6511 31.4605 41.062 29.9695 46.6143 31.3592C48.151 31.9365 50.4162 32.7786 53.4513 33.8886C51.1098 32.9575 49.2105 32.2271 47.7566 31.6563C49.2648 32.065 51.177 32.6301 53.576 33.3579L53.5825 33.2752C49.6022 32.0082 46.9647 31.1371 45.5806 30.738C42.8926 29.4472 45.327 29.7204 53.8834 31.5524L53.8963 31.3871C40.8697 28.1667 41.7734 28.3204 53.9189 31.0979L53.9286 30.9739C41.9298 27.9168 41.0331 27.14 54.0593 27.6994L54.0755 27.4928C41.7945 26.451 42.746 26.5253 54.0438 27.3656L54.0502 27.2829C42.8035 26.3219 41.8364 25.9138 53.909 25.3593C53.9154 25.2767 53.9219 25.194 53.887 25.1081C42.4834 25.0911 41.5641 24.6036 53.4567 22.6215L53.4696 22.4562C52.4606 22.5853 51.5789 22.6828 50.7767 22.828C42.9654 23.7151 43.0772 23.3496 53.0033 20.9645L53.0162 20.7992C41.591 23.1921 42.3137 22.999 52.905 20.6242L52.9179 20.4589C42.1837 22.5315 41.2133 22.1647 51.7656 17.6249C51.7306 17.539 51.6576 17.4085 51.6226 17.3227C41.4691 21.0205 42.1666 20.6176 51.2987 16.6737L51.3051 16.591C42.1032 20.3632 41.2628 20.4639 50.6443 15.4584L50.5713 15.328C40.6933 20.2947 41.3048 19.9266 50.46 15.153L50.387 15.0226C41.1683 19.5418 40.2995 19.474 49.0841 13.0499C49.0492 12.964 48.9697 12.9162 48.8934 12.8271C40.2942 18.4757 40.8358 17.9359 48.5152 12.3402C40.8041 17.8087 40.0718 18.1257 47.9462 11.6306L47.8699 11.5414C39.4861 18.1631 39.9385 17.6995 47.641 11.2741L47.5266 11.1404C39.5888 17.3812 38.6657 17.4754 45.7144 9.29429C45.6381 9.20518 45.5204 9.11285 45.4028 9.02051C38.2531 16.3622 38.5212 15.5932 44.3884 8.15134L44.3056 8.14488C38.3273 15.4117 37.7443 15.9483 43.7619 7.64509L43.6442 7.55275C37.1522 16.0684 37.452 15.4265 43.1322 7.18016L43.0146 7.08782C37.1372 15.1941 36.4048 15.5111 41.3098 5.99845C41.2302 5.95067 41.1094 5.89965 41.0331 5.81054C35.8488 14.6361 35.9514 13.8542 39.9166 5.18288L39.8752 5.17965C35.8338 13.7618 35.4893 14.4418 39.7162 5.08408L39.6334 5.07762C35.0847 14.826 35.2223 14.1299 39.0354 4.7399L38.9113 4.73021C34.8086 14.0976 34.1874 14.5896 37.0598 3.92044C36.9357 3.91075 36.818 3.81841 36.6939 3.80872C33.281 13.9368 33.1038 13.0082 34.9472 3.2566L34.8645 3.25014C32.8937 13.0334 32.6637 13.847 34.5813 3.14489L34.4158 3.13197C32.0904 14.2596 31.9034 13.455 32.9872 2.77098L32.8217 2.75806C31.4484 13.4195 31.0593 14.1376 31.1765 2.50491L30.8455 2.47907C30.2954 11.1259 29.8897 12.591 29.3725 8.01867C29.3102 6.68332 29.2072 4.80428 29.1111 2.30211L29.0284 2.29565C29.0589 3.50379 29.0959 4.62928 29.1459 5.58947C29.0546 4.62605 28.973 3.53866 28.8596 2.32406L28.8183 2.32083C28.9466 4.40974 29.1007 6.16804 29.1662 7.46206C29.2583 13.7475 28.8468 11.5533 27.612 2.30982L27.4879 2.30014C28.7618 13.7087 28.6113 14.5701 26.1065 2.4002L25.8169 2.37759C27.6216 14.4513 26.9001 13.5634 23.4136 2.77208L23.3308 2.76562C26.7217 13.7158 27.0199 14.6954 23.2449 2.80049L23.0794 2.78757C26.6212 15.5374 25.7658 14.7638 20.3574 3.53139L20.1919 3.51847C25.3295 15.0208 25.5068 15.9493 18.9883 4.00661C18.9056 4.00015 18.8164 4.07634 18.775 4.07311C22.8624 12.4998 23.5699 14.634 21.1382 11.6584C20.2866 10.3031 18.8758 8.11403 16.7913 4.95771L16.7085 4.95125C17.8142 6.78383 18.7388 8.26965 19.4759 9.49137C18.6082 8.34262 17.5563 6.88843 16.3582 5.17338C17.9662 7.50252 19.2787 9.35125 20.2163 10.6718C23.6697 16.5543 21.5776 14.5616 14.441 6.27106L14.3518 6.34726C23.1824 16.9321 23.7384 17.807 13.7372 6.75663L13.6034 6.87092C23.0061 18.1241 21.6795 17.5216 11.345 8.60722C21.7047 17.7315 22.7224 18.5593 11.2558 8.68341L11.122 8.7977C22.8007 19.688 21.3178 19.4891 8.17802 11.8525L8.08882 11.9287C21.1582 19.934 22.1027 20.6314 7.62348 12.5577L7.53105 12.6752C17.3085 18.594 19.4679 20.2594 15.0519 18.7089C13.3245 17.9089 10.3882 16.5986 6.12216 14.7273L6.11571 14.8099C8.08164 15.7533 9.80579 16.5947 11.2914 17.2928C9.75797 16.6742 7.98277 15.9535 5.88304 15.1244C8.4631 16.1989 10.5977 17.1139 12.2902 17.8281C20.984 22.1656 17.7764 21.6657 4.35535 18.165L4.34889 18.2477C20.3978 22.7435 21.661 23.0916 4.25326 18.4065L4.24681 18.4892C21.2053 23.5965 19.4548 23.6262 3.28598 21.1999C19.566 23.8012 21.1698 24.0511 3.16453 21.6893L3.15808 21.772C21.8849 25.0216 20.2929 25.6873 2.34112 26.9055L2.33467 26.9881C20.4707 26.0754 21.887 26.0612 2.29596 27.484C21.5141 26.5726 19.763 27.1428 2.3791 30.1515C19.8807 27.2351 21.6124 26.9129 2.35975 30.3995C22.363 27.4289 20.9552 28.4 3.10316 34.74C21.2287 28.6293 22.6805 28.1605 3.1601 35.0771C22.4763 28.6435 20.8171 29.6366 3.86439 37.2525C20.9347 29.7289 22.6541 29.0316 4.45802 38.7125C23.6497 29.6082 22.582 31.0217 7.01857 43.2365C22.8109 31.289 24.1295 30.3941 7.50479 43.9397C24.008 30.8835 22.6507 32.2744 8.49013 45.1808C22.6857 32.3603 24.1955 31.1476 9.56468 46.3457C25.0547 31.3394 24.3529 32.8646 12.5664 48.9499C24.636 32.9699 25.6908 31.7217 13.5524 49.6505C25.7349 32.2241 24.7751 33.8539 14.4238 50.2175C24.8514 33.943 26.0529 32.4152 16.8604 51.5303C27.0012 32.5308 26.7895 34.1774 20.3759 52.8857L20.4173 52.889C27.0662 34.3653 27.7234 32.8782 21.8013 53.288C27.7706 33.3393 27.215 35.1253 21.8427 53.2913C27.2913 35.2144 28.0124 33.4413 24.592 53.7969C28.8114 33.3374 28.9402 34.8858 27.2398 54.0036L27.2812 54.0068C28.982 37.55 29.4566 34.1361 29.4624 46.8594C29.3904 48.8495 29.3306 51.2148 29.2832 53.9552C29.3359 52.2131 29.3757 50.6362 29.4473 49.1866C29.4617 50.6014 29.4187 52.2195 29.4073 53.9649C29.4617 50.6014 29.5091 47.8609 29.5528 45.7023C30.0341 35.8027 30.653 37.4726 32.6891 53.5143L32.7719 53.5207C31.0325 33.677 31.5085 35.0447 34.768 53.0113L34.8093 53.0145C32.8799 41.4716 32.1656 36.7591 33.2857 40.0064C33.5387 41.5646 34.4889 45.9213 35.9619 52.6471C34.8311 47.4032 34.0871 43.6031 33.7584 41.4154C34.4213 43.5876 35.4297 47.2005 36.8183 52.3398C35.2207 46.1447 34.149 42.2775 33.6225 40.4901C33.2632 37.0943 34.7971 40.3739 39.0568 51.3919L39.1395 51.3984C33.0727 33.67 33.7335 34.8026 40.4898 50.6306L40.5312 50.6339C35.4677 38.181 34.2461 34.6347 38.434 41.2399C39.4123 43.1041 40.8258 45.7923 42.6809 49.2217L43.2123 49.3464Z" fill="url(#paint2_radial_286_809)"/>
<path style="mix-blend-mode:color-dodge" opacity="0.3" d="M33.0234 4.43709C45.9524 6.77679 54.5168 19.1703 52.1768 32.0846C49.8367 44.999 37.4312 53.552 24.5023 51.2123C11.5734 48.8726 3.00888 36.4791 5.34892 23.5647C7.68896 10.6504 20.0945 2.09739 33.0234 4.43709Z" fill="url(#paint3_linear_286_809)"/>
<defs>
<radialGradient id="paint0_radial_286_809" cx="0" cy="0" r="1" gradientUnits="userSpaceOnUse" gradientTransform="translate(56.8421 -5.70363) rotate(55.5223) scale(87.8747 87.8952)">
<stop stop-color="#FF9D00"/>
<stop offset="0.1" stop-color="#F99800"/>
<stop offset="0.24" stop-color="#E88A00"/>
<stop offset="0.39" stop-color="#CD7300"/>
<stop offset="0.54" stop-color="#AD5700"/>
<stop offset="0.6" stop-color="#A15200"/>
<stop offset="0.72" stop-color="#824600"/>
<stop offset="0.86" stop-color="#513300"/>
<stop offset="1" stop-color="#1E1F00"/>
</radialGradient>
<radialGradient id="paint1_radial_286_809" cx="0" cy="0" r="1" gradientUnits="userSpaceOnUse" gradientTransform="translate(8.52008 -13.9508) rotate(-15.2765) scale(71.0351 70.9744)">
<stop/>
<stop offset="0.04" stop-color="#060300"/>
<stop offset="0.5" stop-color="#4B2500"/>
<stop offset="0.83" stop-color="#763B00"/>
<stop offset="1" stop-color="#874400"/>
</radialGradient>
<radialGradient id="paint2_radial_286_809" cx="0" cy="0" r="1" gradientUnits="userSpaceOnUse" gradientTransform="translate(30.512 23.8868) rotate(59.1634) scale(39.9743 39.989)">
<stop stop-color="#FFA600"/>
<stop offset="0.08" stop-color="#F9A100"/>
<stop offset="0.19" stop-color="#E89300"/>
<stop offset="0.31" stop-color="#CD7D00"/>
<stop offset="0.44" stop-color="#A85F00"/>
<stop offset="0.54" stop-color="#874400"/>
<stop offset="0.64" stop-color="#763E00"/>
<stop offset="0.82" stop-color="#4B2F00"/>
<stop offset="1" stop-color="#1E1F00"/>
</radialGradient>
<linearGradient id="paint3_linear_286_809" x1="13.3961" y1="33.128" x2="99.0475" y2="3.40313" gradientUnits="userSpaceOnUse">
<stop/>
<stop offset="1" stop-color="white"/>
</linearGradient>
</defs>
</svg>
