<svg width="42" height="42" viewBox="0 0 42 42" fill="none" xmlns="http://www.w3.org/2000/svg">
<path style="mix-blend-mode:multiply" d="M31.5355 36.9782C22.8396 42.9265 10.9417 40.7092 4.98542 32.0218C-0.970868 23.3343 1.24684 11.4499 9.94274 5.50158C18.6386 -0.446708 30.5365 1.77062 36.4928 10.458C42.4491 19.1455 40.2314 31.0299 31.5355 36.9782Z" fill="url(#paint0_radial_430_320)"/>
<path style="mix-blend-mode:screen" d="M36.2972 12.9585C26.4365 16.5148 25.0456 17.0199 36.6036 14.1483C25.1507 17.6417 26.6466 17.7584 37.1684 17.5366C26.6299 17.9719 25.1479 18.071 37.0942 18.8808C25.1966 18.6271 26.7603 19.0559 36.8451 21.2851C26.7203 19.1755 25.1447 18.8991 36.3502 22.9033C24.8199 19.5181 26.1013 20.4158 35.1095 25.8131C25.993 20.6221 24.6058 19.9002 34.1075 27.2383C24.3564 20.341 25.4918 21.5341 32.9152 28.7406C25.3626 21.6161 24.1565 20.5401 31.2039 30.2025C23.5174 20.8584 24.1148 22.255 28.9336 31.7434C23.9198 22.3932 23.1296 21.1043 26.7438 32.6463C22.6832 21.3149 22.9963 22.812 25.3882 33.0927C22.8389 22.8611 22.3708 21.3825 22.6564 33.4624C21.732 21.302 21.5333 22.6671 20.5638 33.5138C21.3149 22.7114 21.2693 21.3272 17.7484 32.9872C20.7809 21.2891 20.3403 22.6047 16.9031 32.7986C20.1877 22.5928 20.5085 21.2372 14.2927 31.613C20.0438 20.8941 19.256 21.9371 13.0863 30.9359C19.0799 21.8313 19.6612 20.6801 10.7258 28.9108C19.2505 20.4333 18.2608 21.3071 10.2119 28.4104C18.1764 21.2085 19.0511 20.2336 8.60552 26.1681C18.812 19.7548 17.6959 20.2813 8.00529 25.2008C17.5575 20.0864 18.5964 19.3698 6.86001 22.166C18.2962 18.8861 17.0184 19.1239 6.56745 21.1921C16.9692 18.9666 18.2261 18.6045 6.32572 18.7801C18.2336 18.1142 16.982 18.0165 6.26592 17.5789C17.001 17.7726 18.2388 17.6544 6.70814 14.668C18.2535 17.0726 17.028 16.6395 7.02657 13.3429C17.0705 16.4894 18.336 16.8029 7.7423 11.65C18.5783 16.4537 17.5268 15.758 8.36366 10.3792C17.6656 15.554 18.7924 16.0715 9.80773 8.40564C19.1052 15.6051 18.2632 14.5882 11.021 7.02766C18.3619 14.5039 19.3075 15.3754 12.0717 6.15857C19.6928 15.16 19.1327 14.0732 13.6042 5.02028C19.3254 13.9655 20.0758 14.9752 15.3947 4.11689C20.5905 14.6778 20.3523 13.4013 17.6432 3.24926C20.5402 13.3546 20.9053 14.5797 18.611 3.04868C21.3656 14.5849 21.4585 13.3956 21.1267 2.69279C21.6745 13.3818 21.7954 14.5878 22.5358 2.74142C22.3168 14.5978 22.7478 13.4042 25.2128 3.07311C22.8675 13.4443 22.6173 14.6826 25.8115 3.27324C22.9999 14.8966 23.6609 13.905 28.5888 4.28774C23.8369 14.0108 23.352 15.1082 29.469 4.81666C23.7956 15.3269 24.7547 14.4506 31.7713 6.40769C24.8392 14.5493 23.995 15.5265 32.3132 6.94089C24.3633 15.9235 25.5477 15.3102 34.4854 9.41151C25.6555 15.5027 24.5814 16.278 35.0527 10.4069C24.9473 16.7054 26.3592 16.3247 36.269 12.9256L36.2972 12.9585Z" fill="url(#paint1_radial_430_320)"/>
<path style="mix-blend-mode:screen" opacity="0.3" d="M31.7949 36.8162C30.8081 34.8983 29.9806 33.2996 29.3431 32.0225C30.0794 33.2152 31.0032 34.7601 32.0887 36.5937C30.3609 33.544 29.1465 31.3935 28.3868 30.107C26.8144 26.6399 28.2361 28.1009 33.7317 35.2187L33.7975 35.1625C26.4076 24.7673 27.0316 25.4296 34.2654 34.6774L34.2959 34.6798C29.5088 28.3231 27.825 25.8905 30.0401 27.8123C30.8259 28.7634 32.5736 30.7715 35.14 33.7026C33.0827 31.3328 31.5626 29.5573 30.6994 28.4161C31.76 29.3887 33.386 30.9884 35.5797 33.1847C32.7385 30.2321 30.9437 28.4351 30.1154 27.6341C28.9312 25.8848 30.8251 27.1986 36.5415 31.8792L36.6097 31.7924C27.8174 24.0183 28.4887 24.4696 36.9226 31.326L36.9273 31.265C29.5263 24.9495 28.4284 23.6672 35.7331 27.6741C36.4349 28.1277 37.2259 28.6191 38.106 29.148C37.5827 28.7697 37.0851 28.4547 36.6181 28.1421C37.0875 28.4242 37.618 28.7111 38.1485 28.9979L38.1556 28.9065C36.2803 27.7475 34.8133 26.8659 33.7265 26.2287C30.0231 23.6997 31.3239 23.9547 38.8407 27.2112L38.8502 27.0892C29.2257 22.5022 29.8783 22.7987 38.9208 26.972L38.9256 26.911C32.118 23.6179 30.2074 22.5176 34.3046 23.5433C35.4385 23.9693 37.1101 24.5908 39.3498 25.4101C37.6219 24.7228 36.2204 24.1838 35.1475 23.7625C36.2604 24.0642 37.6715 24.4813 39.4418 25.0184L39.4465 24.9574C36.5094 24.0223 34.5631 23.3794 33.5418 23.0848C31.5582 22.1322 33.3547 22.3339 39.6685 23.6862L39.6781 23.5642C30.0655 21.1872 30.7324 21.3006 39.6947 23.3507L39.7019 23.2592C30.8477 21.0028 30.186 20.4296 39.7982 20.8429L39.8101 20.6905C30.7478 19.9212 31.45 19.9761 39.7867 20.5966L39.7915 20.5356C31.4924 19.826 30.7787 19.5248 39.6872 19.1161C39.6919 19.0551 39.6967 18.9942 39.6709 18.9308C31.2561 18.9177 30.5777 18.558 39.3533 17.0958L39.3629 16.9738C38.6183 17.0691 37.9677 17.141 37.3757 17.2481C31.6117 17.9024 31.6942 17.6327 39.0187 15.8731L39.0282 15.7511C30.5975 17.5163 31.1308 17.3739 38.9462 15.622L38.9557 15.5C31.0349 17.0289 30.3188 16.7582 38.1052 13.4086C38.0795 13.3452 38.0255 13.249 37.9998 13.1856C30.5075 15.9139 31.0222 15.6166 37.7607 12.7067L37.7655 12.6457C30.9754 15.4289 30.3553 15.5032 37.2778 11.8099L37.2239 11.7137C29.935 15.3783 30.3862 15.1067 37.1418 11.5845L37.0879 11.4883C30.2855 14.8227 29.6444 14.7726 36.1264 10.0325C36.1006 9.96915 36.042 9.93389 35.9857 9.86813C29.6405 14.036 30.0401 13.6377 35.7065 9.50883C30.0167 13.5438 29.4763 13.7777 35.2867 8.98514L35.2304 8.91938C29.0441 13.8053 29.378 13.4632 35.0615 8.7221L34.977 8.62346C29.1199 13.2283 28.4387 13.2978 33.6397 7.26107C33.5834 7.19531 33.4966 7.12717 33.4098 7.05902C28.1342 12.4763 28.3321 11.9088 32.6612 6.41761L32.6001 6.41284C28.1889 11.7749 27.7588 12.1709 32.1989 6.04401L32.1121 5.97586C27.3219 12.2595 27.5431 11.7858 31.7342 5.7009L31.6474 5.63275C27.3107 11.6143 26.7703 11.8482 30.3894 4.82882C30.3307 4.79356 30.2415 4.7559 30.1852 4.69014C26.36 11.2025 26.4357 10.6255 29.3613 4.22694L29.3308 4.22455C26.3489 10.5574 26.0947 11.0591 29.2134 4.15402L29.1524 4.14925C25.7962 11.3426 25.8977 10.8289 28.7111 3.90001L28.6195 3.89286C25.5924 10.8051 25.1341 11.1681 27.2533 3.29524C27.1617 3.28808 27.0748 3.21994 26.9832 3.21278C24.4652 10.6863 24.3344 10.0011 25.6943 2.80528L25.6333 2.80051C24.1794 10.0197 24.0097 10.6201 25.4243 2.72284L25.3022 2.7133C23.5866 10.9245 23.4487 10.3308 24.248 2.44685L24.1258 2.43732C23.1129 10.3046 22.8258 10.8344 22.9118 2.25044L22.6676 2.23136C22.262 8.61202 21.9627 9.69315 21.5809 6.31909C21.5349 5.3337 21.4587 3.94711 21.3878 2.10071L21.3267 2.09594C21.3493 2.98745 21.3767 3.81798 21.4135 4.52652C21.3461 3.81559 21.2859 3.01318 21.2022 2.11689L21.1717 2.11451C21.2665 3.65596 21.3802 4.95345 21.4286 5.90834C21.4968 10.5465 21.1931 8.92737 20.2816 2.10634L20.19 2.09918C21.1305 10.5179 21.0194 11.1535 19.1707 2.17297L18.957 2.15627C20.2891 11.0658 19.7567 10.4106 17.1835 2.44727L17.1225 2.4425C19.625 10.523 19.8451 11.2459 17.059 2.46823L16.9369 2.45869C19.5509 11.8672 18.9197 11.2963 14.9284 3.00745L14.8063 2.99791C18.5978 11.4859 18.7286 12.1711 13.9181 3.35808C13.8571 3.35331 13.7913 3.40952 13.7607 3.40714C16.7771 9.62557 17.2993 11.2004 15.5048 9.00461C14.8764 8.0044 13.8353 6.38902 12.2969 4.05982L12.2359 4.05505C13.0518 5.40739 13.7342 6.50385 14.2781 7.40541C13.6378 6.55769 12.8615 5.48457 11.9774 4.21895C13.164 5.93774 14.1326 7.302 14.8245 8.27648C17.373 12.6175 15.8292 11.1469 10.5628 5.02887L10.4969 5.08509C17.0134 12.8962 17.4238 13.5419 10.0434 5.38715L9.94465 5.47148C16.8834 13.7758 15.9045 13.3312 8.27825 6.75264C15.9231 13.486 16.6741 14.0969 8.21245 6.80886L8.11372 6.89319C16.7319 14.9299 15.6377 14.783 5.94143 9.1473L5.87561 9.20352C15.5199 15.1113 16.2169 15.626 5.53225 9.6676L5.46406 9.75432C12.6792 14.1224 14.2726 15.3514 11.014 14.2071C9.73928 13.6166 7.57253 12.6496 4.4245 11.2685L4.41974 11.3295C5.87045 12.0258 7.14275 12.6467 8.23901 13.1619C7.10746 12.7053 5.7975 12.1735 4.24807 11.5615C6.15195 12.3546 7.72716 13.0299 8.97606 13.557C15.3915 16.758 13.0245 16.3891 3.12088 13.8053L3.11612 13.8662C14.9589 17.1845 15.891 17.4414 3.04556 13.9835L3.0408 14.0444C15.5548 17.814 14.2631 17.8358 2.3319 16.0447C14.3452 17.9649 15.5286 18.1494 2.2423 16.4059L2.23754 16.4669C16.0564 18.8656 14.8816 19.3568 1.63489 20.2549L1.63013 20.3159C15.0128 19.6432 16.0579 19.6328 1.60158 20.6819C15.7828 20.0101 14.4907 20.4308 1.66304 22.6502C14.5775 20.4989 15.8553 20.2612 1.64876 22.8332C16.4092 20.642 15.3704 21.3586 2.1975 26.0362C15.5723 21.5277 16.6435 21.1819 2.23952 26.285C16.4929 21.5383 15.2686 22.271 2.7593 27.8903C15.3554 22.3392 16.6241 21.8247 3.19741 28.9677C17.3588 22.2502 16.571 23.2932 5.08702 32.3061C16.7399 23.4905 17.7128 22.8301 5.44583 32.825C17.6232 23.1913 16.6217 24.2176 6.17297 33.7409C16.6475 24.281 17.7616 23.3862 6.96593 34.6005C18.3956 23.5278 17.8778 24.6532 9.18105 36.5224C18.0867 24.7309 18.865 23.8099 9.90859 37.0394C18.8975 24.1806 18.1894 25.3832 10.5517 37.4579C18.2457 25.449 19.1322 24.3217 12.3497 38.4267C19.832 24.407 19.6758 25.622 14.9438 39.427L14.9744 39.4294C19.88 25.7607 20.3649 24.6634 15.9957 39.724C20.3998 25.0036 19.9898 26.3216 16.0262 39.7264C20.0461 26.3873 20.5782 25.0789 18.055 40.0996C21.1677 25.0022 21.2629 26.1449 20.0088 40.2522L20.0394 40.2546C21.2938 28.1109 21.6439 25.5917 21.6487 34.9805C21.5955 36.449 21.5515 38.1944 21.5166 40.2166C21.5555 38.931 21.5848 37.7675 21.6376 36.6977C21.6483 37.7417 21.6166 38.9358 21.6082 40.2238C21.6483 37.7417 21.6832 35.7195 21.7153 34.1266C22.0701 26.8216 22.5269 28.0538 24.0299 39.8914L24.091 39.8961C22.8068 25.253 23.1581 26.2622 25.5639 39.5203L25.5944 39.5227C24.1703 31.0048 23.6429 27.5274 24.4696 29.9237C24.6563 31.0735 25.3577 34.2884 26.4449 39.2516C25.6103 35.382 25.0611 32.5778 24.8185 30.9634C25.3078 32.5664 26.0519 35.2324 27.0768 39.0249C25.8977 34.4533 25.1067 31.5996 24.7182 30.2806C24.4529 27.7747 25.5849 30.1949 28.7286 38.3255L28.7896 38.3303C24.3122 25.2479 24.7999 26.0837 29.786 37.7638L29.8165 37.7662C26.0797 28.5768 25.1781 25.9598 28.2686 30.8341C28.9906 32.2098 30.0338 34.1935 31.4028 36.7242L31.7949 36.8162Z" fill="url(#paint2_radial_430_320)"/>
<path style="mix-blend-mode:color-dodge" opacity="0.3" d="M24.2749 3.67505C33.8154 5.40154 40.1352 14.5469 38.4085 24.0766C36.6817 33.6063 27.5275 39.9176 17.987 38.1911C8.44662 36.4646 2.12677 27.3193 3.85352 17.7896C5.58027 8.25991 14.7345 1.94855 24.2749 3.67505Z" fill="url(#paint3_linear_430_320)"/>
<defs>
<radialGradient id="paint0_radial_430_320" cx="0" cy="0" r="1" gradientUnits="userSpaceOnUse" gradientTransform="translate(41.8509 -3.80792) rotate(55.5223) scale(64.844 64.8591)">
<stop stop-color="#FF9D00"/>
<stop offset="0.1" stop-color="#F99800"/>
<stop offset="0.24" stop-color="#E88A00"/>
<stop offset="0.39" stop-color="#CD7300"/>
<stop offset="0.54" stop-color="#AD5700"/>
<stop offset="0.6" stop-color="#A15200"/>
<stop offset="0.72" stop-color="#824600"/>
<stop offset="0.86" stop-color="#513300"/>
<stop offset="1" stop-color="#1E1F00"/>
</radialGradient>
<radialGradient id="paint1_radial_430_320" cx="0" cy="0" r="1" gradientUnits="userSpaceOnUse" gradientTransform="translate(6.19297 -9.89359) rotate(-15.2765) scale(52.4178 52.373)">
<stop/>
<stop offset="0.04" stop-color="#060300"/>
<stop offset="0.5" stop-color="#4B2500"/>
<stop offset="0.83" stop-color="#763B00"/>
<stop offset="1" stop-color="#874400"/>
</radialGradient>
<radialGradient id="paint2_radial_430_320" cx="0" cy="0" r="1" gradientUnits="userSpaceOnUse" gradientTransform="translate(22.4223 18.0285) rotate(59.1626) scale(29.4991 29.507)">
<stop stop-color="#FFA600"/>
<stop offset="0.08" stop-color="#F9A100"/>
<stop offset="0.19" stop-color="#E89300"/>
<stop offset="0.31" stop-color="#CD7D00"/>
<stop offset="0.44" stop-color="#A85F00"/>
<stop offset="0.54" stop-color="#874400"/>
<stop offset="0.64" stop-color="#763E00"/>
<stop offset="0.82" stop-color="#4B2F00"/>
<stop offset="1" stop-color="#1E1F00"/>
</radialGradient>
<linearGradient id="paint3_linear_430_320" x1="9.79167" y1="24.8465" x2="72.995" y2="2.91207" gradientUnits="userSpaceOnUse">
<stop/>
<stop offset="1" stop-color="white"/>
</linearGradient>
</defs>
</svg>
