<svg width="74" height="74" viewBox="0 0 74 74" fill="none" xmlns="http://www.w3.org/2000/svg">
<mask id="mask0_102_157" style="mask-type:alpha" maskUnits="userSpaceOnUse" x="4" y="3" width="67" height="67">
<path style="mix-blend-mode:overlay" d="M69.8496 40.4999C71.9127 22.408 58.9024 6.06837 40.7903 4.0044C22.6782 1.94043 6.3229 14.9337 4.25978 33.0256C2.19666 51.1176 15.2069 67.4572 33.3191 69.5212C51.4312 71.5852 67.7865 58.5919 69.8496 40.4999Z" fill="url(#paint0_radial_102_157)"/>
</mask>
<g mask="url(#mask0_102_157)">
<path style="mix-blend-mode:multiply" d="M26.1413 67.6602C25.7246 69.8054 25.1203 71.5627 24.0777 73.3479C24.8542 70.9819 24.5114 68.5907 23.4561 66.5483C22.7811 65.2201 21.8223 64.3364 20.9423 63.241C19.4653 61.4146 19.3199 59.2877 19.4583 56.7163C19.4632 56.6545 19.3703 56.6472 19.3655 56.7091C19.2013 58.8118 19.0657 60.9479 20.1524 62.5882C21.0987 64.031 22.4241 65.0056 23.2346 66.5933C22.8088 66.0623 22.2327 65.8617 21.2896 65.9748C20.6298 66.0477 20.2458 66.5777 19.5813 66.7125C18.314 66.9869 17.51 66.1153 16.8346 65.1915C15.8786 63.8724 15.4208 62.1567 15.3417 60.3772C15.4417 62.6872 16.1918 65.048 17.8027 66.3559C18.476 66.9063 18.8499 66.9044 19.6359 66.8101C20.5148 66.7232 21.5991 65.999 22.4824 66.2546C22.9085 66.3812 23.3745 67.1953 23.7097 67.6881C23.7097 67.6881 23.7407 67.6906 23.7716 67.693C24.4389 69.5184 24.506 71.4525 23.9704 73.5262C23.6817 74.0326 23.3287 74.565 22.9447 75.0951L22.9137 75.0926C22.6037 75.4729 22.3557 75.858 22.079 76.2097C22.0075 76.3286 22.0646 76.3952 22.155 76.4334C21.714 76.8968 21.3039 77.3625 21.0055 77.9926C20.9339 78.1114 21.0767 78.2781 21.1792 78.1617C22.6431 76.5648 24.152 75.1893 25.0161 73.2967C25.8343 71.9917 26.3337 70.3818 26.6759 68.7908C27.2079 67.9612 27.7848 67.3529 28.7284 66.8354C29.6077 66.3441 30.5296 66.1049 31.3852 65.5184C33.3251 64.2076 34.8083 62.3634 35.9775 60.1524C35.9823 60.0906 35.9538 60.0573 35.918 60.1167C33.8019 63.6848 31.2284 65.1328 27.9927 66.6847C27.6043 66.8721 27.2754 67.0954 27.0394 67.3258C27.0853 66.7383 27.1312 66.1508 27.208 65.5657C27.4022 64.2742 27.5679 62.9493 27.8241 61.6627C28.4666 59.815 29.623 58.5675 31.2794 57.2968C32.8024 56.1402 34.2727 55.2594 35.4628 53.579C35.4986 53.5195 35.413 53.4195 35.3772 53.4789C33.3741 55.9981 30.3033 57.034 28.4453 59.6889C28.3404 59.8363 28.2331 60.0146 28.1591 60.1644C29.0968 56.1309 30.7795 52.529 34.7751 50.8186C34.8728 50.764 34.8539 50.607 34.7586 50.6307C31.3376 51.7636 29.0265 55.0366 27.7961 58.8294C27.0172 61.2263 26.8004 63.605 26.4525 66.0667C26.4284 66.3759 26.3447 66.6494 26.323 66.9277C26.2391 65.21 25.4881 63.6581 24.9708 61.9066C24.7477 61.1736 24.5865 60.4455 24.5206 59.6937C24.5698 58.2664 24.7475 56.787 25.7656 55.7153C26.4426 55.0215 27.0859 54.7606 27.8699 54.2929C29.0137 53.6044 29.8983 52.6468 30.5593 51.3607C30.6308 51.2418 30.4833 51.1369 30.4117 51.2558C29.5814 52.7154 28.6684 53.6397 27.3364 54.3446C26.7502 54.6722 26.1379 54.9355 25.6301 55.4559C24.8863 56.2067 24.5614 57.1769 24.4508 58.1949C24.5149 53.7822 26.9816 49.7125 30.2688 46.7025C30.3022 46.6739 30.2761 46.6097 30.2117 46.6358C27.442 49.0018 25.1667 52.2153 24.4267 56.1086C24.1034 57.8567 24.0921 59.598 24.4952 61.2161C25.0407 63.4054 26.2343 65.2719 26.2438 67.5437L26.1413 67.6602ZM53.5118 72.13C54.0171 74.0361 53.9864 76.0248 52.8815 78.2096C52.8767 78.2715 52.9362 78.3072 52.972 78.2478C54.2389 75.9823 54.2221 73.8032 53.6075 71.7019C53.4487 70.9428 53.1923 70.2384 53.1597 69.4581C53.1015 68.2091 53.6789 67.1964 53.9873 66.0382C54.3054 64.7564 54.016 63.676 53.5814 62.4599C53.5838 62.429 53.5195 62.4551 53.5195 62.4551C54.0489 64.052 54.0786 65.2676 53.5768 66.9084C53.4095 67.4554 53.1852 67.9356 53.0798 68.4874C52.9218 69.315 53.1139 70.0456 53.306 70.7762C52.6886 69.1102 51.7258 67.4795 50.7939 65.8512C49.8533 63.5378 50.9345 61.2577 51.2727 58.9197C51.8296 56.9721 53.2718 55.6535 54.3047 53.992C55.1374 52.5014 56.7979 51.9777 57.5449 50.3871C58.218 48.9463 58.2579 47.2384 57.9737 45.6917C57.9786 45.6299 57.8833 45.6536 57.8809 45.6845C58.3383 47.8046 57.9144 50.0426 56.4171 51.668C55.8044 52.3357 55.0823 52.8082 54.56 53.5141C54.7032 53.2764 54.8154 53.0363 54.9275 52.7961C55.7703 50.7775 55.2819 48.6549 54.7244 46.6203C54.7268 46.5894 54.6315 46.6131 54.6625 46.6155C55.0086 48.1669 55.4379 49.8493 55.1885 51.4476C54.9058 53.0744 53.9734 54.2461 53.0362 55.4796C52.2731 56.4778 51.672 57.3953 51.3684 58.4916C51.3757 58.3989 51.3829 58.3061 51.3901 58.2133C51.5084 56.6981 51.3147 55.1897 50.9328 53.6976C50.188 50.8706 49.5661 48.8621 50.3551 45.937C50.6277 44.8383 50.8738 44.0798 50.744 42.9496C50.7488 42.8878 50.625 42.8781 50.6511 42.9424C50.5823 45.0214 49.5349 46.8686 49.5589 48.9549C49.6066 51.1364 50.7833 53.2193 51.1145 55.3607C51.5851 58.5085 49.5498 62.2385 50.4993 65.2371C49.7029 63.8683 48.9684 62.5043 48.4555 61.0953C47.178 57.5112 48.8965 53.8498 47.4879 50.3488C46.4215 47.6522 44.2112 45.6441 42.1199 43.7075C42.1199 43.7075 42.0889 43.7051 42.1174 43.7385C45.2222 46.6564 48.1935 49.6883 47.9935 54.246C47.9476 54.8335 47.9042 55.3901 47.8632 55.9158C47.8998 55.0475 47.5529 54.3049 46.8843 53.6927C46.1563 53.0448 45.4447 52.5848 44.8191 51.8204C44.3078 51.1894 43.8941 50.5038 43.4471 49.8467C43.4185 49.8133 43.3542 49.8394 43.3803 49.9037C43.8985 50.8463 44.4786 51.7938 45.228 52.5679C46.4103 53.7802 47.9195 54.3958 47.827 56.3796C47.827 56.3796 47.839 56.225 47.8439 56.1632C47.7256 57.6784 47.617 59.0699 48.1106 60.7262C48.775 62.9869 50.1065 65.082 51.3117 67.1983C49.5086 65.1598 47.0024 63.7508 45.6404 61.2489C43.9267 58.0663 43.6877 54.3454 41.0613 51.6826C41.0327 51.6493 40.9375 51.673 40.9946 51.7397C43.6611 54.6856 43.8213 58.6181 45.8398 61.8867C45.4973 61.4866 45.1118 61.2388 44.6 61.0122C43.2504 60.3468 42.6152 59.7061 41.9068 58.4064C41.1438 57.0091 40.3828 55.9852 38.8712 55.4006C38.8093 55.3957 38.8045 55.4576 38.8664 55.4624C40.8182 56.3925 41.2833 58.0155 42.4343 59.6298C43.3617 60.9155 45.0024 61.0436 46.0062 62.1486C47.4828 64.3794 49.9344 65.6908 51.5826 67.7172C52.3766 69.1169 53.0777 70.5094 53.4929 71.973C51.0599 68.8275 47.0107 67.2359 45.412 63.3778C45.4144 63.3468 45.3191 63.3705 45.3476 63.4038C46.72 67.3687 51.0503 68.9512 53.5142 72.0991L53.5118 72.13ZM8.27765 40.3503C8.27765 40.3503 8.4232 40.0817 8.49477 39.9628L8.48994 40.0247C8.48994 40.0247 8.31827 40.229 8.28007 40.3194L8.27765 40.3503ZM12.254 36.4918C12.8905 35.9193 13.3818 35.211 13.6351 34.3597C13.843 33.6914 13.8032 33.0039 13.7944 32.3188C13.7957 31.1055 14.0659 30.0377 14.6791 28.9656C14.6791 28.9656 14.6839 28.9038 14.6481 28.9632C13.9469 29.9662 13.6863 30.9103 13.6875 32.0926C13.6689 33.9267 13.4268 35.4323 12.0872 36.6344C11.5629 36.9668 11.0076 37.2968 10.4761 37.7219C9.61573 38.3703 8.99333 39.1617 8.49235 39.9937C9.41309 38.5723 10.924 37.5702 12.3585 36.7489C15.9424 34.7264 19.2633 33.679 21.4867 29.9326C21.5249 29.8422 21.4345 29.804 21.3677 29.861C18.8966 33.5881 15.5544 34.5095 12.2206 36.5203L12.254 36.4918ZM-2.81291 47.169C-0.111696 48.8732 2.1152 48.6737 4.16445 47.5581C6.50311 47.5229 6.79722 50.9369 9.05906 51.4868C10.4971 51.8169 11.9288 51.4308 13.3532 51.1376C13.7247 51.1666 14.0222 51.3453 14.4267 51.7502C14.774 52.0885 14.9404 52.3504 15.2568 52.6862C15.4876 52.9219 15.6874 53.1553 15.9873 53.3032C16.9727 53.8468 18.2138 53.5081 19.2309 53.2453L19.2358 53.1834C17.8399 53.51 16.5586 53.5655 15.4595 52.4842C15.1407 52.1793 14.9887 51.7319 14.6365 51.4555C14.3748 51.2173 14.0725 51.1004 13.7653 51.0453C14.7443 50.8728 15.716 50.7931 16.7231 51.0584C16.7541 51.0608 16.7565 51.0299 16.728 50.9966C15.39 50.581 14.0516 50.5699 12.663 50.8037C11.7174 50.9477 10.75 51.3699 9.79038 51.295C6.94235 51.0727 7.4297 49.6174 6.44759 48.2341C5.94347 47.5103 5.3746 47.217 4.75546 47.1687C4.95327 47.0286 5.15108 46.8885 5.34889 46.7483C8.15275 45.9405 10.6682 47.6302 13.4681 46.0754C13.8826 45.9522 14.2995 45.7981 14.7426 45.7083C16.0432 45.4054 16.6281 46.291 17.5467 46.8916C18.5843 47.5637 19.9231 47.1704 20.9833 46.7554C21.112 46.7032 21.0027 46.508 20.9074 46.5317C20.3666 46.6762 19.6257 46.9917 19.0399 46.9148C18.266 46.8544 17.6521 46.3398 17.0953 45.8919C16.7717 45.6489 16.5718 45.4155 16.1433 45.3198C15.5623 45.1812 14.9621 45.2899 14.3856 45.4937C15.01 45.0758 15.6082 44.5936 16.2326 44.1757C18.6706 42.4682 20.8951 42.2997 23.719 42.8312C23.8119 42.8384 23.8859 42.6887 23.7644 42.6481C20.3644 41.916 18.2397 42.4035 15.4108 44.3293C14.5553 44.9159 13.7258 45.5667 12.787 46.0223C12.6942 46.015 12.6274 46.0721 12.5321 46.0957C12.5321 46.0957 12.4988 46.1242 12.4964 46.1551C12.27 46.2619 12.0461 46.3378 11.7912 46.4112C10.3285 46.7948 9.1526 46.2986 7.73341 46.1256C7.11428 46.0773 6.65234 46.0101 6.18074 46.0666C6.88153 45.468 7.58713 44.8075 8.29756 44.0852C9.85192 42.5265 11.3227 41.2413 13.5926 40.8896C14.9788 40.6867 16.3932 40.9216 17.7794 40.7187C20.3971 40.3008 21.7235 38.071 23.9348 36.8747C23.9991 36.8486 23.9445 36.751 23.8801 36.7771C21.0589 38.2058 19.6015 40.5187 16.1053 40.6191C14.8574 40.6461 13.7072 40.6186 12.5638 40.9027C13.8029 40.1905 14.3163 38.7995 15.2724 37.723C16.8055 36.0382 19.2812 37.0404 21.2279 36.0412C21.3256 35.9866 21.2424 35.8557 21.1471 35.8794C19.7319 36.4533 18.601 36.1784 17.1528 36.3765C16.6193 36.4281 16.1715 36.5798 15.7425 36.8886C14.1934 37.981 13.8125 40.0668 12.0278 40.9853C12.0278 40.9853 12.0278 40.9853 12.0254 41.0162C11.7372 41.1181 11.4489 41.2201 11.1558 41.3839C9.33773 42.3308 7.99766 43.9373 6.4602 45.2795C6.05975 45.6216 5.69508 45.9043 5.29946 46.1845C6.07423 45.4361 6.6705 44.5804 7.09792 43.4938C7.52293 42.4381 7.66691 41.3915 8.18237 40.374C7.11808 42.4376 6.59651 44.7302 4.87288 46.4623C2.48511 47.9248 0.24415 47.9054 -2.76506 46.955C-2.85793 46.9477 -2.89613 47.0381 -2.83663 47.0738L-2.81291 47.169ZM30.1248 9.04692C28.8095 5.14872 25.4677 5.66564 22.2691 5.94485C22.181 5.87575 22.0833 5.93035 22.019 5.95644C20.0136 6.11101 18.0823 6.1158 16.719 4.82717C15.5797 3.46269 14.481 1.97694 14.9723 1.26863C15.0439 1.14977 14.8678 1.01158 14.7987 1.09951C14.2575 1.64838 14.6261 2.11271 14.9469 2.79108C15.1869 3.30759 15.4627 3.76467 15.7694 4.22417C15.7694 4.22417 15.767 4.25509 15.7955 4.28843C15.8241 4.32176 15.8526 4.35511 15.8812 4.38845C15.9668 4.48846 16.0191 4.61699 16.1047 4.717C16.737 5.79303 16.1002 6.76997 16.3514 7.94069C16.5552 8.92103 17.3045 9.69508 17.3153 10.7537C17.3165 11.936 16.5887 13.2792 16.3732 14.4446C16.1934 15.5505 16.2018 16.6401 16.3031 17.7369C16.3031 17.7369 16.334 17.7393 16.3031 17.7369C16.2448 16.4879 16.3936 15.3795 16.6377 14.2475C16.8158 14.7591 17.2488 15.1974 17.6484 15.6641C18.8806 17.0358 19.3456 18.6588 18.9865 20.4663C19.2853 19.4319 19.2435 18.3708 18.8874 17.3475C18.3982 16.0338 16.706 14.9683 16.7885 13.5126C16.8842 13.0845 17.0109 12.6588 17.1709 12.2046C17.4194 11.4152 17.5606 10.804 17.4995 9.9903C17.395 9.73326 17.319 9.50955 17.2145 9.2525C16.9556 8.57896 16.7586 7.91026 16.5617 7.24155C16.5123 6.67769 16.7105 6.13317 16.692 5.57174L16.6969 5.50989C17.3151 6.36704 17.9668 7.19568 18.485 8.13834C18.7772 8.78337 18.8291 9.31631 18.7185 10.3343C18.7064 10.489 18.599 10.6672 18.587 10.8218C18.5817 11.2881 18.6147 11.664 18.769 12.0805C19.5099 14.1605 21.1493 15.5018 20.992 17.9162C20.9896 17.9471 21.0539 17.921 21.0539 17.921C21.21 16.7199 20.9061 15.8251 20.4784 14.9206C21.399 15.8947 22.365 16.6856 23.5168 17.4911C24.9637 18.5062 25.3151 19.5914 24.9656 21.2753C24.8196 21.9483 24.6761 22.5904 24.6539 23.2731C24.6515 23.3041 24.7158 23.278 24.7158 23.278C24.8389 21.7009 25.8457 19.9751 24.9042 18.4705C24.4335 17.7182 23.6242 17.3128 22.946 16.8243C21.9393 16.1546 21.0352 15.3685 20.2669 14.4374C19.9698 13.8542 19.6418 13.2686 19.3805 12.626C18.8841 11.405 19.0996 10.2396 18.9413 9.07618C19.6516 10.7494 20.3096 12.2941 21.8112 13.4068C24.4883 15.4203 29.525 15.5334 29.3012 19.9959C29.6741 16.4162 26.2983 15.3749 23.6967 13.9896C20.8858 12.4946 20.2281 10.5455 19.047 8.11999C19.8913 9.27477 20.7829 10.6199 22.0328 10.9664C23.009 11.2292 24 10.9022 25.0124 10.7012C25.4449 11.5438 26.2043 11.7898 27.1186 12.0478C28.7637 12.5184 30.1346 13.3099 30.945 14.8976L30.976 14.9C30.6102 14.0004 30.049 13.2099 29.2208 12.6475C28.0975 11.8753 26.0423 11.8705 25.3911 10.6374C25.7055 10.5997 25.9913 10.5287 26.3009 10.5529C28.6014 10.608 30.605 12.0711 32.4757 13.2438C32.5352 13.2795 32.6043 13.1916 32.5448 13.1558C30.4889 11.5642 28.0542 10.0364 25.3509 10.3543L25.258 10.347C25.258 10.347 25.0128 10.2968 24.9746 10.3871C23.3073 10.5992 21.9235 10.7712 20.4461 9.3492C19.8109 8.70851 19.3639 8.05139 18.7572 7.44404C18.7025 7.34644 18.6503 7.21792 18.5956 7.12032C18.403 6.79417 18.0344 6.32985 17.5777 5.79642C18.9225 6.52361 20.5443 6.49465 22.2067 6.34442C22.7185 6.57104 22.9895 7.08997 23.4321 7.40452C23.7272 7.61422 24.0581 7.76448 24.3914 7.88383C25.2388 8.19887 26.1104 8.20469 27.0058 8.30569C26.1844 8.05491 25.2891 7.95391 24.4726 7.64129C23.6846 7.362 23.2946 6.77157 22.7427 6.26182C25.7556 5.96811 28.7496 5.51737 30.0986 8.98266C30.0986 8.98266 30.1605 8.98749 30.1296 8.98508L30.1248 9.04692ZM82.7529 29.8927C82.6585 29.1076 82.0321 29.152 81.2964 29.0012C80.744 28.8959 80.1868 28.8524 79.6296 28.8089C79.6296 28.8089 79.5676 28.8041 79.5367 28.8016C79.4748 28.7968 79.4438 28.7944 79.3819 28.7896C79.2581 28.7799 79.1033 28.7678 78.9794 28.7582C77.7436 28.6306 77.3304 27.5405 76.2188 27.0182C75.3166 26.6056 74.2472 26.7399 73.3929 26.1132C72.4196 25.415 71.7804 24.0273 70.943 23.1842C70.1651 22.3768 69.2798 21.7477 68.3254 21.2065C68.3254 21.2065 68.2945 21.2041 68.3254 21.2065C69.3606 21.9096 70.1719 22.6885 70.945 23.5577C70.4284 23.3929 69.7996 23.4683 69.2017 23.5461C67.3821 23.7151 65.7752 23.1541 64.543 21.7824C64.543 21.7824 64.5121 21.78 64.543 21.7824C65.2232 22.6444 66.0799 23.2401 67.1156 23.5388C68.4869 23.9258 70.35 23.2001 71.4612 24.1269C71.7466 24.4603 72.0296 24.8246 72.3126 25.1889C72.8216 25.8508 73.1902 26.3152 73.9042 26.7442C74.1471 26.8254 74.4232 26.8781 74.6661 26.9592C75.3375 27.1361 76.004 27.3748 76.6706 27.6135C77.1466 27.8995 77.4819 28.3924 77.9579 28.6784L78.0198 28.6832C76.9576 28.7248 75.8954 28.7663 74.8168 28.6199C74.112 28.4715 73.667 28.1879 72.9104 27.5066C72.7938 27.4042 72.7154 27.2114 72.5988 27.109C72.2466 26.8326 71.9182 26.6514 71.461 26.5224C69.3612 25.8918 67.2984 26.3841 65.4543 24.8713C65.4543 24.8713 65.3924 24.8665 65.4519 24.9022C66.3202 25.7478 67.232 26.0367 68.213 26.2377C66.8625 26.3812 65.6524 26.7223 64.3421 27.1489C62.6793 27.7036 61.6175 27.3407 60.44 26.0666C59.9809 25.5641 59.5527 25.064 59.0269 24.6185C59.0269 24.6185 58.965 24.6136 59.0245 24.6494C60.2189 25.7071 61.0124 27.5112 62.8079 27.6514C63.6747 27.719 64.4848 27.3156 65.2853 27.0359C66.4384 26.6281 67.5794 26.375 68.8012 26.2837C69.4464 26.3962 70.0941 26.4779 70.7989 26.6263C72.0822 26.9442 72.9172 27.8183 73.9335 28.3643C72.1597 27.9458 70.5407 27.5394 68.7231 28.082C65.5333 29.0463 62.4498 33.0367 58.9639 30.2135C58.9639 30.2135 58.933 30.2111 58.9639 30.2135C61.6096 32.6289 64.4529 30.5176 67.1048 29.2623C69.9855 27.8694 71.9591 28.5213 74.602 28.9765C73.1684 28.989 71.5562 28.8943 70.529 29.6852C69.7329 30.3075 69.4056 31.3086 68.9902 32.2406C68.0688 32.0753 67.4086 32.5527 66.6483 33.1156C65.2898 34.1606 63.8698 34.7965 62.0863 34.5017L62.0839 34.5326C63.0315 34.7621 63.996 34.7752 64.9251 34.4433C66.2044 34.0143 67.4565 32.3387 68.8113 32.5378C68.6658 32.8064 68.5202 33.075 68.3461 33.3103C66.9272 35.1285 64.564 35.8773 62.508 36.6813C62.4436 36.7073 62.4983 36.805 62.5626 36.7789C65.0782 36.073 67.7156 35.0033 69.0851 32.6213L69.0923 32.5286C69.2781 32.5431 69.3211 32.3909 69.2689 32.2624C70.0991 30.8027 70.7553 29.5784 72.7752 29.2383C73.6589 29.0895 74.4637 29.1523 75.3165 29.0011C75.4403 29.0108 75.5641 29.0204 75.688 29.0301C76.0594 29.0591 76.6525 29.0432 77.3717 29.006C75.9802 29.6751 75.0358 31.0014 74.1793 32.3968C73.6909 32.6698 73.1051 32.5929 72.5929 32.7707C72.2427 32.8678 71.9162 33.0601 71.6207 33.2548C70.8653 33.7559 70.343 34.4618 69.7327 35.0986C70.3977 34.5594 71.0389 33.925 71.761 33.4524C72.4522 32.9775 73.1666 33.0022 73.8931 32.8722C72.3495 35.4895 70.9274 38.1474 67.3609 37.1534C67.3609 37.1534 67.3276 37.1819 67.3561 37.2153C71.2771 38.4547 72.8187 35.4639 74.4957 32.7326C74.5934 32.678 74.6292 32.6186 74.6365 32.5258C75.7027 30.8357 76.8213 29.2741 78.6864 28.9219C80.4393 28.8099 82.3087 28.8003 82.6175 29.6332C82.6697 29.7618 82.8912 29.7168 82.8699 29.5907L82.7529 29.8927ZM3.15522 17.395C2.97672 17.2877 2.83117 17.5564 2.97871 17.6612C4.19725 18.4097 4.96676 18.1275 6.29549 18.2624C9.87683 18.6664 11.5174 21.19 13.8966 23.429C15.895 25.3583 18.1508 27.1833 21.0804 26.7586C21.1423 26.7635 21.121 26.6374 21.0877 26.6659C17.0721 27.0369 14.3251 23.5247 11.6344 20.888C12.1675 21.2407 12.7006 21.5934 13.2743 21.8249C14.3883 22.3163 15.6314 22.3511 16.7073 22.9328C18.2281 23.7982 19.172 25.2719 20.9937 25.4763C21.0865 25.4836 21.0962 25.3599 21.0033 25.3526C19.0559 24.7651 17.9668 23.1556 16.1577 22.3922C15.4935 22.1226 14.7815 22.067 14.1101 21.8901C13.0435 21.5891 12.1177 21.0813 11.1966 20.5116C10.9635 20.3067 10.7612 20.1043 10.5281 19.8994C9.74051 19.2157 8.92199 18.5296 7.91973 18.2025C6.3699 17.7082 4.57838 18.315 3.09089 17.4211L3.15522 17.395ZM-0.349476 27.9792C-0.732605 27.7004 -1.1596 28.3826 -0.740692 28.602C0.30659 29.1504 1.35671 29.2635 2.40001 29.0649C2.83099 29.1297 3.23584 29.1301 3.66924 29.164C4.88536 29.9433 6.05889 30.4705 6.79334 31.8345C7.09042 32.4177 7.2279 33.0506 7.65604 33.5507C8.3672 34.4151 9.47681 34.5639 10.5012 34.2084C10.5322 34.2108 10.506 34.1465 10.506 34.1465C8.82189 34.5751 7.87757 33.5058 7.27177 32.0896C7.06032 31.6064 6.87741 31.1566 6.56826 30.728C6.03077 30.0328 5.23598 29.4418 4.38367 29.1886C4.38367 29.1886 4.44558 29.1935 4.47654 29.1959C5.65289 29.2877 6.61455 29.7361 7.66424 30.2536C8.53302 30.6947 9.25185 31.062 10.136 30.5087C8.70144 31.3301 7.17901 29.6868 5.81009 29.2689C4.86733 28.9775 3.86464 29.0548 2.87643 28.9465C3.25999 28.8209 3.64595 28.6644 4.03674 28.446C5.07805 27.874 5.84841 26.783 6.91584 26.2752C8.98639 25.2857 11.1332 26.5111 12.8205 27.6383C11.4331 26.6589 9.86483 25.6032 8.07615 25.7747C4.90848 26.0563 3.28926 30.441 -0.318513 27.9816L-0.349476 27.9792ZM78.4267 45.0172C77.3436 44.5282 76.291 44.446 75.2691 44.7707C74.8357 44.7368 74.4332 44.7054 74.026 44.7359C72.7716 44.0468 71.5647 43.5482 70.7611 42.2721C70.4307 41.7175 70.2622 41.0821 69.8007 40.6105C69.0228 39.8031 67.9393 39.7186 66.9435 40.1075C66.9125 40.1051 66.9386 40.1693 66.9386 40.1693C68.5681 39.6432 69.6102 40.6579 70.2827 42.017C70.4942 42.5002 70.7104 42.9215 71.0839 43.324C71.6548 43.9908 72.4854 44.5223 73.3401 44.7445L73.2472 44.7373C72.066 44.7073 71.0686 44.3183 70.0141 43.8627C69.1429 43.4525 68.3573 43.1423 67.5303 43.7622C68.9101 42.8432 70.5302 44.4319 71.9374 44.7595C72.9159 44.9914 73.8925 44.8499 74.8831 44.9272C74.4971 45.0837 74.1087 45.2712 73.7489 45.492C72.7337 46.1283 72.0229 47.255 70.984 47.7962C68.9681 48.8833 66.7783 47.8101 65.0218 46.7708C66.445 47.6908 68.0848 48.6276 69.8498 48.361C73.001 47.8914 74.3464 43.4231 78.1259 45.6781C78.5424 45.9284 78.9075 45.2413 78.4861 45.0529L78.4267 45.0172ZM57.0704 12.1769C57.0704 12.1769 56.9088 11.8532 56.8614 11.6628C56.9088 11.8532 56.9586 12.0126 57.0061 12.203C57.0037 12.2339 57.0989 12.2103 57.068 12.2078L57.0704 12.1769ZM56.8614 11.6628C56.7902 11.3773 56.7215 11.0608 56.6837 10.7467C56.7215 11.0608 56.7617 11.3439 56.8614 11.6628ZM60.5868 17.8025C61.4163 14.7561 60.8954 11.8533 59.0048 9.34126C58.1581 8.2174 57.1446 7.23607 56.1645 6.22624C54.5231 4.51145 53.584 2.97593 52.5336 0.871726C52.4725 0.0580742 52.4163 -0.817427 52.4481 -1.62383C52.522 -1.77361 52.5936 -1.89247 52.6676 -2.04225C52.7392 -2.1611 52.5916 -2.26595 52.4963 -2.24228C52.6045 -3.22938 52.9173 -4.04497 53.5727 -4.46048C53.8015 -4.59817 53.547 -4.92914 53.3492 -4.78903C52.2673 -4.09571 52.2853 -3.12986 52.2531 -1.91905C52.0408 -1.5934 51.857 -1.23441 51.6757 -0.906345C51.6162 -0.9421 51.5543 -0.946933 51.5209 -0.918427C50.3115 1.00938 48.76 2.13271 46.5089 2.64144C45.4298 2.89943 44.2748 2.93371 43.2717 3.41541C41.6563 4.16042 40.5164 5.59588 40.0717 7.30338C40.7287 5.27023 42.3329 3.87102 44.3363 3.34296C45.4487 3.05646 46.5419 3.01734 47.6306 2.63566C48.7194 2.25398 49.7607 1.68194 50.5688 0.905024C49.8604 2.00083 49.0639 3.02754 47.92 3.71603C46.2829 4.73934 44.4701 5.22006 42.9684 6.50283C42.9684 6.50283 42.9636 6.56468 42.9969 6.53617C44.7869 5.15145 47.1163 4.8355 48.9038 3.48171C50.3934 2.35355 51.3218 0.434919 52.2024 -1.26967C52.175 -0.120705 52.181 0.999757 52.1584 2.08688C51.5894 4.18912 50.5135 6.0029 49.0733 7.69492C47.5997 9.41544 45.8135 9.55601 43.9383 10.4363C41.9036 11.3664 40.5518 12.7231 39.1687 14.4818C39.1354 14.5103 39.1925 14.5769 39.2258 14.5484C41.4625 11.8297 42.9919 11.3891 46.1986 10.2083C47.2254 9.82178 47.9664 9.50629 48.7745 8.72937C50.0905 7.4321 51.2782 5.78259 52.0373 4.03741L52.0799 4.28963C51.8993 6.20441 51.4115 8.06411 50.1426 9.95616C48.8021 11.9671 46.7408 13.2373 45.2861 15.1148L45.2909 15.053C45.2909 15.053 45.1768 14.9196 45.1386 15.01C44.0598 17.2591 41.4775 18.022 40.1583 20.159C39.2661 21.6138 38.7594 23.3164 38.691 24.9911C38.6862 25.0529 38.779 25.0602 38.7839 24.9983C39.3131 22.2085 39.9802 19.6473 42.4777 17.9756C43.1355 17.5292 43.7526 17.204 44.2556 16.7455C43.332 18.6023 42.8941 20.6214 42.7014 22.6908C42.7014 22.6908 42.7014 22.6908 42.7324 22.6932C43.365 18.9782 44.4635 16.0773 47.1384 13.3305C48.5259 11.9144 49.8704 10.6505 50.8462 8.9222C51.4976 7.75971 51.9608 6.61365 52.2431 5.39125C52.52 7.03064 52.8564 8.70578 52.8214 10.3519C52.7843 11.6246 52.4498 12.7185 51.9343 13.736C50.8732 14.9598 48.7911 15.6995 47.7324 16.8924C46.6356 18.1757 46.0244 19.6213 45.8322 21.2863L45.8631 21.2887C46.4064 18.7178 47.8281 16.4644 50.1419 15.1516C50.6972 14.8216 51.2452 14.5844 51.679 14.2138C51.0658 15.286 50.3312 16.3175 49.6204 17.4442C48.4777 19.315 47.7186 21.0602 48.4236 23.1997C48.4212 23.2306 48.4855 23.2045 48.4855 23.2045C47.5711 18.5598 51.629 16.4499 52.8406 12.5001C53.0054 11.9841 53.0774 11.4608 53.1184 10.9351C53.9401 13.177 55.877 14.6971 55.2501 17.5415C54.6807 20.0481 52.2382 21.413 51.9093 24.0318C51.9068 24.0627 51.9688 24.0675 51.9712 24.0366C52.5125 21.0922 55.6601 19.4712 55.7443 16.3978C55.8256 13.7598 53.6076 12.2488 53.2053 9.8219C53.1523 8.10666 52.7637 6.30299 52.3915 4.68728C52.492 4.19735 52.533 3.67167 52.5741 3.14599C52.591 2.92953 52.6103 2.68215 52.5986 2.43235C52.6083 2.30866 52.6465 2.21831 52.6871 2.09703C53.3355 3.76542 54.751 5.18257 55.9928 6.43061C56.8278 7.30468 57.6343 8.1454 58.3121 9.0383C58.2396 9.96598 57.7411 10.7671 57.6377 11.6923C57.616 11.9706 57.5967 12.218 57.6083 12.4678C57.6445 12.004 57.6807 11.5401 57.7764 11.112C57.9558 10.4105 58.316 9.78528 58.374 9.04314C60.2695 11.4933 61.3978 14.1947 60.5606 17.7382C60.5558 17.8001 60.6177 17.8049 60.6225 17.7431L60.5868 17.8025ZM38.1333 66.4496C37.851 67.672 38.5337 68.503 39.4093 69.2558C40.8131 70.4232 42.1149 71.3026 42.7038 72.9352C42.7717 74.0605 42.5561 75.2259 41.9952 76.4265C41.5083 77.4774 40.9788 78.2761 40.7966 79.413C40.7797 79.6294 41.0893 79.6536 41.1061 79.4371C41.4415 77.5344 42.5219 76.0632 42.8738 74.3485C42.8738 74.3485 42.9357 74.3533 42.9405 74.2915C43.3326 72.8598 44.6525 72.3095 45.3991 71.1234C45.9668 70.2344 45.8941 69.1709 45.8166 68.1693C45.819 68.1384 45.7547 68.1645 45.7547 68.1645C45.7988 69.1946 45.8382 70.2866 45.1776 71.1683C44.8294 71.6389 44.3051 71.9713 43.8689 72.3728C43.5686 72.6294 43.2968 72.9193 43.1154 73.2473C43.1062 72.9666 43.0326 72.712 42.9567 72.4883C42.9687 72.3337 42.9189 72.1742 42.9 72.0172C42.9048 71.9554 42.8763 71.922 42.8502 71.8577C42.8811 71.8602 42.943 71.865 42.9479 71.8032C42.8474 69.8976 44.1847 68.7264 43.7413 66.8251C43.4141 65.4307 42.8248 64.2025 42.0449 63.0216C42.9221 64.5523 44.1104 66.885 43.5965 68.6805C43.2595 69.8053 42.6802 70.4445 42.8076 71.6055C41.9843 68.5857 39.5384 66.4037 39.8659 63.0071L39.8349 63.0047C39.4846 65.4973 40.6593 67.2068 41.7049 69.3728C42.0828 70.1179 42.3368 70.8532 42.498 71.5814C41.1115 69.7931 38.0998 68.8736 38.1976 66.4235C38.2025 66.3616 38.1406 66.3568 38.1048 66.4162L38.1333 66.4496ZM32.3636 74.9281C31.9097 76.3548 30.7248 77.569 29.8234 78.7431C29.7542 78.831 29.8732 78.9025 29.94 78.8455C30.915 77.9261 31.8067 76.8757 32.3676 75.675C32.3986 75.6775 32.4605 75.6823 32.4629 75.6514C32.7505 73.9627 34.1468 73.2317 34.8794 71.8267C35.3184 70.9898 35.3551 70.1216 35.1464 69.2031C35.1513 69.1412 35.0536 69.1958 35.0536 69.1958C35.4302 71.1541 34.3241 72.1567 33.1891 73.5303C33.0532 73.6752 32.9459 73.8535 32.8409 74.0009C33.2487 71.1705 32.2602 69.0711 34.5656 66.6689C34.5656 66.6689 34.5705 66.607 34.5371 66.6355C33.5548 67.6477 32.844 68.7745 32.6091 70.1872C32.3622 71.7546 32.8297 73.3467 32.3351 74.8947L32.3636 74.9281ZM7.10547 61.352C7.10547 61.352 7.09341 61.5067 7.18869 61.483C7.96062 61.1699 8.66339 60.9448 9.31632 60.5602C9.31632 60.5602 9.34728 60.5626 9.37824 60.565C10.5952 60.5356 11.9413 60.0495 12.8185 59.1847C13.3931 58.6073 13.794 57.8608 14.3685 57.2835C15.1481 56.4732 16.1154 56.0509 17.1708 55.6978C17.2017 55.7002 17.1756 55.6359 17.1756 55.6359C15.8895 55.7533 14.7456 56.4418 13.8921 57.4018C13.2102 58.1575 12.7329 59.0847 11.7917 59.5712C11.2079 59.8679 10.5767 59.9741 9.94312 60.1113C10.2101 59.8833 10.4819 59.5934 10.6966 59.2368C11.9679 57.3138 12.565 55.6494 14.7666 54.5768C14.831 54.5507 14.7763 54.4531 14.712 54.4792C13.2421 54.9555 12.2052 55.8702 11.4489 57.18C10.9073 58.1333 10.5036 59.3151 9.605 60.0538C8.83989 60.6786 7.8348 60.7868 7.04356 61.3472L7.10547 61.352ZM36.9295 12.8447C36.8069 11.6219 36.8415 10.3801 37.1238 9.15771C37.222 8.6987 37.4463 8.21844 37.4825 7.7546C37.5598 6.76508 36.9129 5.8746 36.6709 4.9846C36.8358 4.46858 36.9412 3.91681 36.9537 3.35778C36.9248 1.33332 35.9741 -0.451994 34.9208 -2.12087C36.4336 -0.353903 39.2619 0.520201 39.3948 3.20612C39.39 3.26797 39.4829 3.27522 39.4877 3.21337C39.596 -0.169269 35.1077 -0.924067 34.1844 -3.85835C34.1607 -3.95353 34.0344 -3.93228 34.0272 -3.83951C34.0935 -3.49211 34.2266 -3.20172 34.3596 -2.91134C34.2406 -2.98285 34.0428 -2.84274 34.157 -2.70938C34.768 -1.75946 35.3743 -0.747703 35.8542 0.285314C35.8389 1.27967 35.9759 2.31703 35.7749 3.29688C35.5211 4.55262 34.7488 5.27011 33.9571 6.23498C33.1964 7.20226 32.8024 8.26038 32.6154 9.45911C32.8289 7.92024 33.4517 6.72442 34.5341 5.62668C34.9393 5.22277 35.3708 4.88311 35.6285 4.37434C36.1797 3.29738 36.0692 1.91987 35.9776 0.699387C36.1059 1.05162 36.2341 1.40385 36.3314 1.75366C36.9078 3.94531 36.094 5.59289 35.2299 7.48544C34.6332 8.74552 34.4297 9.7563 35.0452 11.0488L35.0762 11.0512C34.4306 8.94748 35.8447 7.1912 36.5564 5.25565C36.599 5.50787 36.6725 5.7625 36.777 6.01954C37.1308 7.07382 37.261 7.79953 36.9574 8.89583C36.6035 10.2371 36.5641 11.5407 36.7984 12.9278C36.7936 12.9897 36.8913 12.9351 36.8913 12.9351L36.9295 12.8447ZM59.4181 55.9155C59.6489 56.1513 59.913 56.3586 60.151 56.5016C59.8845 56.3253 59.6489 56.1513 59.4181 55.9155ZM58.5594 54.9463C58.8115 55.3082 59.1279 55.644 59.4181 55.9155C59.1279 55.644 58.8734 55.313 58.5952 54.8869C58.5976 54.8559 58.5024 54.8796 58.5309 54.913L58.5594 54.9463ZM71.5085 58.6326C71.5085 58.6326 71.6323 58.6423 71.6705 58.5519L71.7276 58.6186C72.5911 59.526 73.1504 59.943 74.3766 60.1943C74.6242 60.2136 74.7436 59.8807 74.4984 59.8304C72.0721 59.3922 70.4947 55.6602 68.3169 54.4324C65.6012 52.9138 62.1248 52.3624 61.183 48.8667C61.1855 48.8357 61.1211 48.8618 61.1211 48.8618C61.7188 51.1796 63.4705 52.2808 65.5413 53.2824C66.9219 53.9502 68.2217 54.4561 69.3875 55.4804C70.3202 56.2999 70.762 57.4232 71.5326 58.3234C70.2405 57.3203 68.7908 56.7405 67.1453 56.6743C67.1453 56.6743 67.1477 56.6433 67.1167 56.6409C65.431 56.2916 64.6061 54.8894 63.3783 53.8602C62.5598 53.1741 61.6673 52.6378 60.7032 52.2203C62.2909 53.0287 63.4853 54.0864 64.6937 55.3629C65.2694 55.9678 65.8523 56.48 66.6451 56.6974C64.3065 56.7327 62.1455 57.684 60.2749 56.5113C61.015 57.0046 61.8625 57.3197 62.8603 57.3042C64.013 57.3009 65.1065 56.8573 66.2616 56.8231C68.2931 56.7328 69.9808 57.4556 71.6323 58.6423L71.5085 58.6326ZM63.8506 64.5682L63.8409 64.6919C63.8409 64.6919 63.9599 64.7634 63.9648 64.7015C65.5495 65.9452 66.0456 67.5706 66.1958 69.6356C66.1862 69.7593 66.4029 69.7763 66.4125 69.6526C66.6028 67.6141 66.1638 66.0554 64.5529 64.7474C64.3769 64.6092 64.2008 64.471 64.0223 64.3638C64.2202 61.8281 61.3803 60.7042 60.1509 58.8972C60.1509 58.8972 60.089 58.8923 60.12 58.8948C60.7025 59.8113 61.5282 60.4047 62.311 61.1502C63.2674 62.0649 63.5664 63.0215 63.7867 64.1898C62.9251 63.6559 61.9611 63.2385 61.0995 62.7045C59.255 61.5961 58.242 60.2104 57.5582 58.197C57.563 58.1352 57.4653 58.1898 57.4653 58.1898C57.6373 59.9765 58.6267 61.2671 60.0426 62.2798C61.1349 63.0495 62.4037 63.553 63.4984 64.2918C63.6174 64.3633 63.734 64.4657 63.8506 64.5682ZM67.3667 17.9273C67.8991 16.6933 68.8234 16.4232 68.3748 14.9882C68.0496 13.9673 67.3408 13.0719 67.1419 12.0298C67.7361 10.8006 68.5326 9.77389 69.9454 9.23084C70.1384 9.15257 69.972 8.89069 69.8433 8.94287C68.5809 9.15543 67.7776 9.8705 67.1741 10.8189C67.1789 10.7571 67.1813 10.7262 67.1862 10.6643C67.1934 10.5716 67.103 10.5334 67.0672 10.5928C66.8263 10.8851 66.7712 11.1919 66.778 11.5036C66.5513 12.0148 66.3245 12.5259 66.1548 13.1038C65.4086 13.8856 64.3034 14.0793 63.3003 14.561C62.4568 14.9929 61.8464 15.6297 61.4074 16.4666C61.4074 16.4666 61.405 16.4975 61.4074 16.4666C62.1757 15.0021 63.4502 14.6349 64.8964 14.0634C65.3133 13.9092 65.6731 13.6884 66.0044 13.4343C65.431 15.194 64.8838 17.0179 63.6776 18.106C60.6336 20.7928 56.596 19.451 55.6599 24.2623C55.6599 24.2623 55.6884 24.2957 55.6908 24.2647C56.8441 19.0659 61.4076 20.8532 64.2183 17.9615C64.5927 17.5552 64.9075 17.1131 65.1938 16.6377C65.0932 17.1276 65.0261 17.589 64.8612 18.105C64.431 19.627 63.4463 20.6701 62.0572 21.3084C60.7992 21.8635 59.5203 21.8881 58.7665 23.167C58.764 23.198 58.7926 23.2313 58.8284 23.1719C60.109 21.5296 62.6402 21.8205 64.0446 20.1879C65.1723 18.9071 65.1049 17.3774 65.5661 15.8578C66.0912 14.7166 66.4688 13.4705 66.9605 12.3578C67.0365 12.5815 67.141 12.8386 67.248 13.0647C67.5378 13.7407 68.3085 14.6408 68.341 15.4211C68.3639 16.3251 67.6152 17.1378 67.2714 17.951C67.269 17.9819 67.3 17.9843 67.3333 17.9558L67.3667 17.9273ZM77.3496 52.4308C76.314 52.1322 75.2924 52.0525 74.2491 52.251C72.2268 52.622 70.5853 53.3028 68.9535 51.4643C69.6647 52.3287 70.6167 52.9008 71.7693 52.8974C72.4862 52.8912 73.0985 52.6279 73.7964 52.4646C75.0327 52.1877 76.1495 52.2438 77.34 52.5545C77.4328 52.5618 77.4734 52.4405 77.3496 52.4308ZM81.0315 36.385C81.0315 36.385 80.9531 36.1922 80.8864 36.2492C80.1498 36.9072 79.3372 37.3416 78.3084 37.3546C77.7178 37.3396 77.1678 37.2034 76.5748 37.2193C75.8271 37.2232 75.1886 37.4222 74.7069 38.0068C75.8633 36.7593 77.5317 37.7295 78.9465 37.56C79.7658 37.4373 80.4807 37.0575 80.9981 36.4135L81.0315 36.385ZM75.02 16.4402C76.2543 15.7899 77.1983 14.8681 78.002 13.7486C78.0378 13.6892 77.9498 13.6201 77.914 13.6795C76.1542 15.8755 74.2006 16.563 71.6183 17.3258C70.1223 17.7379 69.7379 18.6724 69.5935 20.1233C70.0753 17.1432 72.9398 17.5534 74.989 16.4378L75.02 16.4402ZM57.9876 66.6616C58.6561 67.2738 59.3914 67.829 59.9932 68.4982C60.9352 69.5983 61.1578 70.7357 61.204 72.1393C61.1895 72.3249 61.4991 72.349 61.5136 72.1635C62.0159 67.7227 56.3513 66.8761 55.7886 62.9122C55.7934 62.8504 55.6981 62.874 55.6957 62.9049C55.8537 64.4728 56.8217 65.6373 57.9876 66.6616ZM-6.61825 40.0587C-7.40865 39.8103 -7.96346 39.7359 -8.79006 39.9514C-8.9163 39.9726 -8.90223 40.1915 -8.77599 40.1702C-6.27048 39.9925 -4.34078 41.6053 -1.74198 41.0304C-1.58237 40.9807 -1.42275 40.9309 -1.26314 40.8811C0.627642 40.9976 2.74236 41.0382 4.51214 40.7097C6.34626 40.3551 6.51722 38.564 7.72821 37.4141C7.72821 37.4141 7.73063 37.3832 7.72821 37.4141C7.1967 37.8393 6.91525 38.2529 6.55982 38.8162C5.81559 39.9715 5.05772 40.5034 3.6526 40.5493C2.30939 40.6 0.942455 40.5555 -0.431714 40.6038C1.60305 39.6738 3.1743 37.8986 5.33971 37.2899C2.7578 37.6483 1.05265 39.9419 -1.46052 40.6168C-1.55581 40.6405 -1.65109 40.6642 -1.74638 40.6879C-1.80829 40.683 -1.87021 40.6782 -1.93212 40.6734C-1.96308 40.6709 -1.99404 40.6685 -1.99887 40.7304C-3.64241 41.0376 -4.98037 40.6221 -6.62308 40.1205L-6.61825 40.0587ZM-5.43839 34.5197C-5.43839 34.5197 -5.56947 34.6028 -5.47901 34.641C-3.95814 35.5063 -2.18196 35.8939 -0.666222 34.83C0.389568 34.0724 0.883739 32.9287 2.46736 32.9901C3.74142 33.0274 4.30945 34.1295 5.22325 34.7919C5.93001 35.3137 6.25845 35.4949 7.1349 35.4389C7.16585 35.4413 7.17068 35.3795 7.13973 35.3771C4.90118 35.3268 4.17084 32.3142 1.7626 32.8418C0.96937 33.0288 0.587802 33.5279 -0.0389982 33.9767C-1.92664 35.416 -3.41498 35.331 -5.40744 34.5221L-5.43839 34.5197ZM6.11747 8.57295C6.11747 8.57295 5.96028 8.59179 6.01736 8.65847C7.35164 10.3182 8.97503 11.0671 9.63708 13.3588C10.0073 14.601 10.0776 15.6954 10.7027 16.8642C11.9031 19.0423 13.8806 20.4411 16.2257 21.1219C13.2117 20.2333 11.4038 18.2567 10.3944 15.6268C10.6822 15.9292 11.0441 16.0819 11.537 16.1515C12.4299 16.2834 13.123 16.182 13.9202 16.742C14.6009 17.1996 15.0595 18.1065 15.2493 18.8679C15.0431 17.9185 14.4581 17.0329 13.6633 16.4419C12.6305 15.708 10.9508 16.4791 10.2376 15.2412C10.0358 14.6343 9.86742 13.999 9.73237 13.3351C9.19457 10.6487 7.83247 10.5424 6.08652 8.57053L6.11747 8.57295ZM10.8303 6.45194C10.8303 6.45194 10.7684 6.44711 10.7969 6.48045C12.2265 8.11648 13.7702 9.88586 14.0298 12.1461C14.0274 12.177 14.0917 12.1509 14.0917 12.1509C13.9322 9.80517 12.417 8.06913 10.8303 6.45194ZM10.1011 4.6217L10.0062 4.24096L10.1011 4.6217ZM30.3589 6.04744C28.4489 3.7828 29.933 1.12977 29.8213 -1.43004L29.8262 -1.49189C29.8262 -1.49189 29.8262 -1.49189 29.8286 -1.52281C29.8334 -1.58466 29.8382 -1.6465 29.8455 -1.73927C29.6687 -3.46417 28.7823 -5.27558 28.0932 -6.82269C28.041 -6.95121 27.8146 -6.84444 27.8383 -6.74926C28.3251 -5.4046 29.0311 -4.07394 29.4226 -2.70561C29.5673 -2.16543 29.6191 -1.6325 29.609 -1.1044C28.8306 0.888163 25.3738 2.08055 26.3595 4.61526C26.3595 4.61526 26.4214 4.62009 26.3904 4.61767C25.4096 2.02112 28.628 1.09013 29.5801 -0.733323C29.5246 -0.0221046 29.4381 0.6867 29.3207 1.39309C29.0926 3.1175 29.06 4.73272 30.2612 6.10204C30.3183 6.16871 30.385 6.1117 30.3304 6.0141L30.3589 6.04744Z" fill="url(#paint1_radial_102_157)"/>
</g>
<defs>
<radialGradient id="paint0_radial_102_157" cx="0" cy="0" r="1" gradientUnits="userSpaceOnUse" gradientTransform="translate(34.3771 26.6845) rotate(-161.232) scale(45.9834 45.9387)">
<stop stop-color="white"/>
<stop offset="0.41" stop-color="#A7A39E"/>
<stop offset="0.82" stop-color="#574F45"/>
<stop offset="1" stop-color="#382F23"/>
</radialGradient>
<radialGradient id="paint1_radial_102_157" cx="0" cy="0" r="1" gradientUnits="userSpaceOnUse" gradientTransform="translate(37.2361 36.7882) rotate(17.1598) scale(43.7796 43.7358)">
<stop offset="0.47" stop-color="#FF0000"/>
<stop offset="1" stop-color="#FF8879"/>
</radialGradient>
</defs>
</svg>
