<svg width="69" height="68" viewBox="0 0 69 68" fill="none" xmlns="http://www.w3.org/2000/svg">
<path style="mix-blend-mode:multiply" d="M43.0872 58.6924C29.3835 63.3914 14.4264 56.0954 9.71355 42.4C5.00075 28.7045 12.2924 13.7653 25.9962 9.0662C39.6999 4.36712 54.657 11.6632 59.3698 25.3586C64.0826 39.054 56.791 53.9933 43.0872 58.6924V58.6924Z" fill="url(#paint0_radial_300_4)"/>
<path style="mix-blend-mode:screen" opacity="0.3" d="M43.4893 58.5695C42.8838 55.6662 42.3727 53.2445 41.9954 51.3185C42.5344 53.1688 43.193 55.5545 43.9601 58.3822C42.7871 53.7077 41.9652 50.4129 41.4296 48.4296C40.6154 43.2587 41.9647 45.7157 46.6414 57.1614L46.7493 57.111C40.7622 40.6279 41.3467 41.7343 47.547 56.6395L47.5866 56.6538C43.5702 46.4761 42.2294 42.6355 44.4614 45.9937C45.1546 47.542 46.7354 50.8433 49.0633 55.6677C47.2045 51.7737 45.8401 48.8639 45.1142 47.0353C46.1636 48.7127 47.7327 51.4282 49.8358 55.1423C47.1516 50.1888 45.4309 47.15 44.6265 45.7851C43.6976 43.0331 45.7267 45.4678 51.5888 53.7642L51.711 53.6743C42.9052 40.1515 43.6295 40.9954 52.2965 53.1706L52.3251 53.0915C44.829 42.0114 43.8436 39.9099 52.0576 47.895C52.8216 48.7532 53.69 49.694 54.6628 50.7174C54.1077 50.0243 53.5636 49.4246 53.0591 48.8393C53.5779 49.3851 54.176 49.9595 54.774 50.534L54.817 50.4153C52.7559 48.1927 51.1345 46.4871 49.9275 45.2447C45.9452 40.5369 47.5759 41.3511 56.346 48.4193L56.4033 48.2612C45.327 38.6578 46.0834 39.2897 56.5398 48.1317L56.5684 48.0526C48.7519 41.1955 46.6226 39.0376 51.6773 41.8972C53.0242 42.8771 55.012 44.3128 57.6804 46.2187C55.6421 44.6752 53.9819 43.4476 52.7142 42.4964C54.0788 43.3038 55.7962 44.3732 57.9458 45.7332L57.9745 45.6542C54.4241 43.3394 52.08 41.7746 50.8342 41.0103C48.5541 39.0214 50.8612 39.9465 58.7344 44.0506L58.7917 43.8924C46.9217 37.2224 47.7641 37.617 58.8919 43.6156L58.9349 43.497C48.026 37.2645 47.359 36.2624 59.9476 40.3298L60.0193 40.1321C48.2898 35.7944 49.2004 36.1242 60.0226 39.9991L60.0513 39.92C49.3116 35.9408 48.476 35.2803 60.433 38.0006C60.4617 37.9215 60.4903 37.8424 60.4794 37.7489C49.3311 34.6506 48.5637 33.9253 60.7306 35.2007L60.7879 35.0425C59.7661 34.8961 58.8774 34.7531 58.0536 34.6784C50.1743 33.4351 50.3824 33.1078 60.7349 33.4576L60.7922 33.2995C48.9715 32.5521 49.7305 32.5586 60.7307 33.0983L60.788 32.9401C49.7297 32.0662 48.8798 31.4453 60.4269 29.8569C60.4159 29.7634 60.3797 29.6161 60.3688 29.5227C49.4392 30.3953 50.2302 30.1898 60.2273 28.8005L60.256 28.7214C50.2369 29.9238 49.3878 29.7952 59.9157 27.4351L59.8795 27.2878C48.8766 29.4758 49.574 29.2811 59.818 27.0866L59.7818 26.9393C49.5446 28.8679 48.7132 28.5667 59.0407 24.6578C59.0298 24.5644 58.9649 24.4962 58.9144 24.3884C48.9778 27.589 49.6534 27.2074 58.6761 23.81C49.6567 27.0744 48.8548 27.1866 58.3114 22.9622L58.2609 22.8544C48.2719 27.0649 48.8397 26.7338 58.1092 22.5311L58.0335 22.3695C48.5836 26.3279 47.6554 26.1706 56.76 20.0742C56.7094 19.9664 56.6193 19.8443 56.5292 19.7222C47.5527 24.9704 48.0228 24.2907 55.772 18.598L55.6928 18.5693C47.8821 24.0608 47.1669 24.428 55.2961 17.9336L55.206 17.8115C46.5554 24.3855 47.0221 23.8388 54.8059 17.3087L54.7158 17.1866C46.777 23.5263 45.9751 23.6385 53.3429 15.6605C53.278 15.5923 53.1736 15.5097 53.123 15.4019C45.6677 22.6325 45.9794 21.8955 52.2007 14.4864L52.1611 14.472C45.8893 21.7734 45.3687 22.3453 52.0314 14.3356L51.9523 14.3069C44.8691 22.6117 45.1918 21.9681 51.4587 13.815L51.3399 13.772C44.7959 21.8247 44.0555 22.138 49.7479 12.4797C49.6292 12.4367 49.5391 12.3145 49.4203 12.2715C43.3454 21.2546 43.423 20.2986 47.8612 11.2595L47.782 11.2308C43.2107 20.2664 42.7659 21 47.5335 11.0514L47.3752 10.994C42.0937 21.2486 42.1283 20.4112 46.0754 10.2549L45.9171 10.1975C41.6928 20.2535 41.1183 20.8506 44.3765 9.50534L44.0598 9.39063C41.1851 17.6987 40.3923 19.022 41.1221 14.4104C41.4221 13.0876 41.8291 11.222 42.4113 8.74885L42.3321 8.72017C42.0356 9.91002 41.7676 11.0208 41.5569 11.9733C41.728 11.0064 41.942 9.92088 42.1595 8.70236L42.1199 8.68803C41.6809 10.7657 41.3564 12.527 41.0708 13.8102C39.4623 19.9824 39.6528 17.7253 40.9431 8.35129L40.8244 8.30827C38.9872 19.8103 38.6072 20.6121 39.4463 8.03282L39.1692 7.93245C37.6714 20.2284 37.2057 19.1651 36.712 7.66878L36.6329 7.6401C36.99 19.2659 37.0169 20.3045 36.5394 7.65097L36.381 7.59362C36.3994 21.0203 35.7719 20.0325 33.5179 7.58549L33.3595 7.52813C35.2758 20.166 35.1982 21.122 32.0505 7.68029C31.9713 7.65161 31.8635 7.70202 31.8239 7.68768C33.5441 17.0337 33.6593 19.3121 32.0852 15.7449C31.6187 14.1892 30.8304 11.667 29.6447 8.01674L29.5655 7.98806C30.1516 10.0791 30.6544 11.7822 31.0451 13.1762C30.507 11.8182 29.8711 10.1118 29.1629 8.11063C30.1061 10.8231 30.8902 12.9859 31.4502 14.5307C33.238 21.2173 31.7304 18.7029 26.9912 8.66609L26.8834 8.71651C32.6593 21.455 32.9667 22.461 26.1716 8.95076L26.0099 9.02639C32.1648 22.5731 31.0302 21.6254 23.3319 10.1142C30.9982 21.8375 31.7697 22.9221 23.2241 10.1646L23.0624 10.2402C31.5413 24.0472 30.1448 23.4519 19.3575 12.4323L19.2497 12.4828C29.8684 23.8439 30.6037 24.7812 18.6246 12.9721L18.5025 13.0621C26.4655 21.4931 28.1273 23.7053 24.2274 20.9956C22.7542 19.7463 20.2366 17.6714 16.57 14.6883L16.5414 14.7674C18.2091 16.2213 19.668 17.5102 20.9323 18.5943C19.5998 17.5749 18.0583 16.3904 16.2289 15.012C18.4618 16.7602 20.3022 18.2319 21.7645 19.3878C29.095 25.9794 26.0929 24.6237 13.913 17.573L13.8844 17.6521C28.3655 26.3861 29.5068 27.0679 13.7479 17.7816L13.7193 17.8607C28.9247 27.4386 27.2047 26.9946 12.047 20.2522C27.2662 27.1958 28.7672 27.8736 11.796 20.698L11.7673 20.7771C29.2043 29.0161 27.4673 29.2369 9.58106 25.5769L9.55242 25.656C27.5364 29.6645 28.9254 30.0334 9.38054 26.1306C28.4225 30.4328 26.5558 30.5172 8.741 28.7619C26.6459 30.6393 28.4266 30.7922 8.65506 28.9992C29.0213 31.4996 27.382 32.0689 8.20914 33.4452C27.5876 32.367 29.1341 32.3009 8.17374 33.7902C28.8039 32.7181 26.9128 33.241 8.27465 36.1082C27.0029 33.3631 28.8729 33.1457 8.46069 37.6965C29.6908 33.9787 28.2646 35.0726 9.74237 42.8129C28.4162 35.3959 29.9476 34.877 10.0279 43.6321C29.6966 35.3228 27.9933 36.3163 10.6562 45.1122C28.0042 36.4097 29.8086 35.6318 11.3923 46.5418C30.597 36.0516 29.4985 37.3536 13.6243 49.9C29.747 37.533 31.1159 36.5973 14.3992 50.8517C31.0232 37.1006 29.6441 38.4352 15.0982 51.6417C29.6947 38.5429 31.2826 37.3735 17.1265 53.5841C32.1788 37.7428 31.5267 39.2959 20.1984 55.8597L20.238 55.8741C31.7466 39.5545 32.7912 38.2777 21.4838 56.6384C32.7128 38.7414 31.6867 40.338 21.5234 56.6528C31.7372 40.4458 32.9217 38.9065 24.0756 57.8903C33.7312 39.0208 33.4388 40.57 26.6093 58.808L26.6489 58.8223C32.7596 43.1869 34.1464 39.9764 30.7137 52.4215C30.1054 54.3484 29.4078 56.6455 28.6208 59.3128C29.1432 57.6232 29.6083 56.0918 30.07 54.6934C29.7018 56.0809 29.2224 57.6519 28.7396 59.3559C29.7018 56.081 30.4888 53.4136 31.1148 51.3142C34.2608 41.7624 34.4148 43.5628 32.0711 59.802L32.1503 59.8307C35.8117 39.9532 35.9077 41.4194 34.2401 59.8719L34.2797 59.8862C35.5121 48.0756 36.0869 43.2737 36.3048 46.7524C36.1312 48.3446 35.8832 52.8623 35.5062 59.8383C35.8174 54.4041 36.1167 50.4866 36.3864 48.2581C36.4478 50.5617 36.4576 54.3676 36.4269 59.7692C36.5385 53.2786 36.5355 49.2068 36.5036 47.3164C37.0699 43.8981 37.6837 47.5202 38.8723 59.4471L38.9514 59.4758C37.8089 40.4977 38.1491 41.7839 40.4795 59.0898L40.5191 59.1042C38.9322 45.5568 38.6958 41.7583 41.0067 49.35C41.4597 51.4376 42.1157 54.4486 43.0032 58.304L43.4893 58.5695Z" fill="url(#paint1_radial_300_4)"/>
<path style="mix-blend-mode:color-dodge" opacity="0.3" d="M45.6608 11.8942C57.6732 17.6764 62.7001 32.1119 56.9215 44.11C51.143 56.108 36.6988 61.1205 24.6864 55.3383C12.674 49.5561 7.64708 35.1206 13.4257 23.1226C19.2042 11.1245 33.6484 6.11207 45.6608 11.8942Z" fill="url(#paint2_linear_300_4)"/>
<defs>
<radialGradient id="paint0_radial_300_4" cx="0" cy="0" r="1" gradientUnits="userSpaceOnUse" gradientTransform="translate(71.6958 8.41309) rotate(70.9687) scale(89.1632 89.184)">
<stop stop-color="#FF9D00"/>
<stop offset="0.0001" stop-color="#0500FF"/>
<stop offset="0.1" stop-color="#0500F9"/>
<stop offset="0.24" stop-color="#2000E8"/>
<stop offset="0.39" stop-color="#0039CD"/>
<stop offset="0.54" stop-color="#2D00AD"/>
<stop offset="0.6" stop-color="#0006A1"/>
<stop offset="0.72" stop-color="#2A0082"/>
<stop offset="0.86" stop-color="#000851"/>
<stop offset="1" stop-color="#02001F"/>
</radialGradient>
<radialGradient id="paint1_radial_300_4" cx="0" cy="0" r="1" gradientUnits="userSpaceOnUse" gradientTransform="translate(37.9484 30.2375) rotate(74.6098) scale(40.5604 40.5754)">
<stop stop-color="#4200FF"/>
<stop offset="0.08" stop-color="#0028F9"/>
<stop offset="0.19" stop-color="#2000E8"/>
<stop offset="0.31" stop-color="#1000CD"/>
<stop offset="0.44" stop-color="#0011A8"/>
<stop offset="0.54" stop-color="#0B0087"/>
<stop offset="0.64" stop-color="#1F0076"/>
<stop offset="0.82" stop-color="#0A004B"/>
<stop offset="1" stop-color="#08001F"/>
</radialGradient>
<linearGradient id="paint2_linear_300_4" x1="18.7116" y1="34.6503" x2="110.513" y2="28.7254" gradientUnits="userSpaceOnUse">
<stop/>
<stop offset="1" stop-color="white"/>
</linearGradient>
</defs>
</svg>
