<svg width="42" height="42" viewBox="0 0 42 42" fill="none" xmlns="http://www.w3.org/2000/svg">
<path style="mix-blend-mode:screen" d="M38.6181 16.5492C28.6192 20.1554 27.2088 20.6675 38.9288 17.7557C27.3153 21.298 28.8322 21.4164 39.5015 21.1915C28.8153 21.6329 27.3125 21.7333 39.4263 22.5545C27.3619 22.2972 28.9476 22.7321 39.1737 24.9925C28.9069 22.8534 27.3093 22.5731 38.6719 26.6334C26.98 23.2007 28.2793 24.111 37.4137 29.584C28.1695 24.3202 26.7628 23.5882 36.3977 31.0291C26.5099 24.0351 27.6613 25.245 35.1887 32.5525C27.5302 25.3281 26.3073 24.2371 33.4534 34.0349C25.6592 24.5598 26.265 25.976 31.1513 35.5974C26.0672 26.1161 25.266 24.8091 28.9308 36.5129C24.8133 25.0227 25.1308 26.5408 27.5562 36.9656C24.9712 26.5906 24.4965 25.0913 24.7861 37.3405C23.8488 25.0096 23.6473 26.3939 22.6642 37.3927C23.4258 26.4388 23.3796 25.0352 19.8093 36.8587C22.8843 24.9966 22.4376 26.3306 18.9522 36.6673C22.2828 26.3185 22.6081 24.9439 16.3052 35.4652C22.1369 24.596 21.338 25.6536 15.0819 34.7786C21.1595 25.5464 21.749 24.379 12.6882 32.7251C21.3325 24.1288 20.3289 25.0149 12.1672 32.2177C20.2433 24.9148 21.1303 23.9263 10.5383 29.9439C20.8879 23.4407 19.7561 23.9746 9.92963 28.9631C19.6158 23.777 20.6692 23.0503 8.7683 25.8858C20.3648 22.5599 19.0691 22.801 8.47164 24.8982C19.0192 22.6415 20.2937 22.2744 8.22652 22.4524C20.3014 21.7772 19.0321 21.6781 8.16588 21.2343C19.0515 21.4307 20.3066 21.3109 8.6143 18.2827C20.3215 20.721 19.0788 20.2817 8.9372 16.939C19.1219 20.1296 20.4052 20.4475 9.66296 15.2223C20.6508 20.0933 19.5847 19.3879 10.293 13.9337C19.7254 19.1811 20.8679 19.7059 11.7573 11.9325C21.1852 19.2328 20.3313 18.2017 12.9876 10.5352C20.4314 18.1162 21.3902 19 14.0531 9.65394C21.781 18.7816 21.213 17.6795 15.607 8.49969C21.4084 17.5703 22.1694 18.5941 17.4227 7.58364C22.6913 18.2926 22.4497 16.9982 19.7027 6.70384C22.6403 16.9509 23.0105 18.1931 20.6841 6.50045C23.4772 18.1984 23.5714 16.9924 23.235 6.13957C23.7905 16.9784 23.9131 18.2013 24.6639 6.18889C24.4417 18.2115 24.8788 17.0012 27.3784 6.52522C25.0002 17.0418 24.7465 18.2975 27.9855 6.72816C25.1344 18.5144 25.8047 17.509 30.8017 7.75688C25.9832 17.6163 25.4914 18.729 31.6942 8.29321C25.9413 18.9508 26.9139 18.0622 34.0288 9.90655C26.9995 18.1623 26.1435 19.1532 34.5783 10.4472C26.517 19.5557 27.7179 18.9339 36.781 12.9525C27.8273 19.1291 26.7381 19.9152 37.3562 13.9618C27.1092 20.3486 28.5408 19.9626 38.5895 16.5159L38.6181 16.5492Z" fill="url(#paint0_radial_221_13)"/>
<path style="mix-blend-mode:multiply" d="M31.7859 36.8103C22.9681 42.842 10.9035 40.5936 4.86367 31.7844C-1.17612 22.9752 1.07267 10.9241 9.89048 4.89245C18.7083 -1.13922 30.7729 1.10919 36.8127 9.91839C42.8525 18.7276 40.6037 30.7786 31.7859 36.8103V36.8103Z" fill="url(#paint1_radial_221_13)"/>
<path style="mix-blend-mode:screen" opacity="0.3" d="M32.0477 36.644C31.0471 34.6992 30.2082 33.0782 29.5617 31.7833C30.3083 32.9927 31.245 34.5591 32.3456 36.4183C30.5937 33.326 29.3624 31.1455 28.5921 29.8409C26.9978 26.3254 28.4395 27.8068 34.0118 35.024L34.0785 34.967C26.5854 24.4265 27.2182 25.0982 34.5529 34.4751L34.5839 34.4775C29.73 28.032 28.0227 25.5654 30.2688 27.514C31.0655 28.4785 32.8376 30.5145 35.4399 33.4866C33.3538 31.0837 31.8125 29.2834 30.9373 28.1262C32.0127 29.1124 33.6614 30.7344 35.8858 32.9614C33.0049 29.9676 31.185 28.1456 30.3451 27.3333C29.1443 25.5596 31.0648 26.8917 36.8612 31.6375L36.9303 31.5496C28.0151 23.667 28.6957 24.1246 37.2475 31.0766L37.2524 31.0147C29.7478 24.6112 28.6347 23.311 36.0416 27.3736C36.7532 27.8335 37.5553 28.3317 38.4477 28.868C37.9171 28.4844 37.4125 28.165 36.9389 27.848C37.4149 28.1341 37.9529 28.425 38.4908 28.7158L38.498 28.6231C36.5964 27.448 35.1089 26.5541 34.007 25.9081C30.2517 23.3438 31.5707 23.6024 39.1928 26.904L39.2025 26.7803C29.4432 22.1296 30.105 22.4302 39.274 26.6614L39.2789 26.5996C32.376 23.2608 30.4387 22.1451 34.5933 23.185C35.7431 23.6169 37.438 24.247 39.7091 25.0776C37.9571 24.3809 36.5359 23.8344 35.448 23.4072C36.5765 23.7131 38.0073 24.1359 39.8024 24.6805L39.8072 24.6186C36.829 23.6706 34.8554 23.0188 33.8198 22.7201C31.8084 21.7543 33.6301 21.9587 40.0325 23.3295L40.0421 23.2058C30.2948 20.7961 30.971 20.9111 40.059 22.9894L40.0662 22.8966C31.088 20.6091 30.4171 20.0279 40.1641 20.4465L40.1761 20.2919C30.9868 19.5124 31.6988 19.5679 40.1524 20.1967L40.1572 20.1348C31.7418 19.4157 31.0182 19.1104 40.0516 18.6955C40.0564 18.6337 40.0612 18.5718 40.0351 18.5075C31.5023 18.4948 30.8144 18.13 39.7132 16.6469L39.7228 16.5232C38.9678 16.6198 38.308 16.6927 37.7078 16.8014C31.8629 17.4652 31.9466 17.1917 39.3739 15.4071L39.3836 15.2834C30.8345 17.0738 31.3753 16.9294 39.3003 15.1524L39.31 15.0287C31.278 16.5795 30.5519 16.3051 38.4477 12.9081C38.4216 12.8438 38.3669 12.7462 38.3408 12.682C30.7433 15.4489 31.2652 15.1474 38.0984 12.1964L38.1032 12.1345C31.2178 14.9571 30.589 15.0324 37.6088 11.2871L37.5541 11.1895C30.1628 14.9058 30.6204 14.6304 37.4709 11.0585L37.4162 10.9609C30.5183 14.3425 29.8682 14.2917 36.4413 9.48484C36.4152 9.42058 36.3557 9.38482 36.2986 9.31815C29.8642 13.5448 30.2695 13.1408 36.0156 8.95383C30.2457 13.0456 29.6978 13.2829 35.5899 8.42282L35.5328 8.35615C29.2595 13.3109 29.5981 12.964 35.3615 8.15611L35.2759 8.05609C29.3364 12.7258 28.6456 12.7963 33.9199 6.6747C33.8628 6.60802 33.7748 6.53893 33.6867 6.46983C28.3369 11.9633 28.5376 11.3879 32.9277 5.81947L32.8658 5.81464C28.3924 11.2521 27.9562 11.6536 32.4589 5.44067L32.3709 5.37157C27.5132 11.7435 27.7375 11.2632 31.9878 5.09278L31.8997 5.02368C27.5019 11.0893 26.9539 11.3265 30.6241 4.20856C30.5646 4.1728 30.4741 4.13463 30.4171 4.06795C26.5379 10.6718 26.6147 10.0867 29.5817 3.5983L29.5507 3.59588C26.5266 10.0176 26.2689 10.5263 29.4317 3.52437L29.3698 3.51954C25.9662 10.8138 26.0691 10.293 28.9223 3.26683L28.8295 3.25958C25.7595 10.2688 25.2948 10.637 27.4441 2.65367C27.3512 2.64642 27.2631 2.57732 27.1703 2.57007C24.6165 10.1485 24.4839 9.45368 25.8633 2.15694L25.8014 2.15211C24.3267 9.47252 24.1546 10.0813 25.5895 2.07335L25.4657 2.06369C23.7256 10.39 23.5857 9.78801 24.3966 1.79357L24.2728 1.7839C23.2452 9.76143 22.9541 10.2987 23.0418 1.59448L22.7941 1.57515C22.3825 8.04521 22.0789 9.14151 21.6919 5.7202C21.6454 4.72102 21.5682 3.31501 21.4964 1.44274L21.4344 1.4379C21.4573 2.34191 21.485 3.18406 21.5224 3.90253C21.4541 3.18165 21.393 2.368 21.3082 1.45916L21.2773 1.45675C21.3733 3.01979 21.4886 4.33545 21.5376 5.30371C21.6065 10.0068 21.2986 8.36504 20.3747 1.44851L20.2818 1.44126C21.235 9.97785 21.1224 10.6224 19.2482 1.51613L19.0315 1.49922C20.3819 10.5335 19.842 9.86911 17.2331 1.7944L17.1712 1.78956C19.7085 9.98313 19.9316 10.7161 17.1069 1.81565L16.9831 1.80599C19.6332 11.3461 18.9932 10.7673 14.9463 2.36255L14.8225 2.35289C18.6668 10.9596 18.7994 11.6544 13.9219 2.71815C13.86 2.71331 13.7932 2.77032 13.7623 2.7679C16.8207 9.07328 17.3501 10.6702 15.5306 8.44369C14.8934 7.42951 13.8377 5.79156 12.2779 3.42981L12.216 3.42498C13.0433 4.79622 13.7352 5.908 14.2867 6.82216C13.6375 5.9626 12.8504 4.87449 11.9539 3.59119C13.1571 5.33399 14.1392 6.71731 14.8407 7.7054C17.4248 12.1071 15.8593 10.616 10.5194 4.41254L10.4526 4.46955C17.0601 12.3897 17.4762 13.0444 9.99268 4.77587L9.89257 4.86139C16.9282 13.2817 15.9356 12.8308 8.20273 6.16059C15.9545 12.9879 16.7159 13.6073 8.136 6.2176L8.03588 6.30312C16.7746 14.4519 15.665 14.303 5.83301 8.58893L5.76626 8.64594C15.5455 14.6359 16.2523 15.1578 5.41807 9.11653L5.34891 9.20447C12.665 13.6333 14.2807 14.8794 10.9764 13.7193C9.6839 13.1206 7.48681 12.1402 4.29469 10.74L4.28987 10.8018C5.76089 11.5077 7.051 12.1373 8.16261 12.6596C7.01522 12.1967 5.68691 11.6575 4.11577 11.0371C6.04632 11.8411 7.64359 12.5258 8.90998 13.0602C15.4152 16.3058 13.015 15.9317 2.97266 13.3123L2.96784 13.3741C14.9765 16.7382 15.9217 16.9986 2.89628 13.493L2.89145 13.5548C15.5808 17.3765 14.2709 17.3987 2.1725 15.5832C14.3542 17.5296 15.5542 17.7166 2.08162 15.9494L2.0768 16.0112C16.0893 18.4428 14.898 18.9409 1.4655 19.8524L1.46067 19.9142C15.0311 19.2313 16.0909 19.2207 1.43171 20.2853C15.8118 19.6034 14.5016 20.03 1.49392 22.2813C14.5896 20.0991 15.8854 19.858 1.47944 22.4668C16.447 20.2441 15.3937 20.9707 2.03571 25.7147C15.5983 21.1422 16.6846 20.7915 2.07831 25.9669C16.5318 21.1529 15.2903 21.896 2.6053 27.5947C15.3783 21.9651 16.6649 21.4433 3.04949 28.6871C17.4098 21.8748 16.6109 22.9324 4.96544 32.0722C16.7822 23.1324 17.7688 22.4628 5.32926 32.5984C17.6779 22.829 16.6623 23.8697 6.06655 33.527C16.6885 23.934 17.8183 23.0266 6.87059 34.3987C18.4611 23.1702 17.936 24.3114 9.11668 36.3473C18.1479 24.3901 18.9371 23.4562 9.8544 36.8716C18.9701 23.8321 18.2519 25.0516 10.5065 37.2958C18.309 25.1183 19.208 23.9751 12.3297 38.2781C19.9176 24.0616 19.7592 25.2937 14.9602 39.2924L14.9911 39.2948C19.9662 25.4343 20.458 24.3216 16.0268 39.5934C20.4933 24.6666 20.0776 26.003 16.0577 39.5958C20.1346 26.0697 20.6742 24.7429 18.1149 39.9742C21.2721 24.6651 21.3685 25.8238 20.0962 40.1288L20.1271 40.1312C21.3998 27.8173 21.7549 25.2628 21.7593 34.7831C21.7053 36.2722 21.6606 38.0421 21.6251 40.0926C21.6646 38.789 21.6944 37.6091 21.7479 36.5244C21.7587 37.583 21.7265 38.7939 21.718 40.0999C21.7587 37.583 21.7942 35.5325 21.8268 33.9173C22.187 26.5099 22.6501 27.7593 24.1736 39.7626L24.2356 39.7675C22.9341 24.9193 23.2903 25.9426 25.7292 39.3863L25.7601 39.3887C24.3164 30.7516 23.7819 27.2255 24.62 29.6553C24.8093 30.8212 25.5204 34.0811 26.6225 39.1138C25.7764 35.19 25.2197 32.3466 24.9737 30.7096C25.4698 32.335 26.2243 35.0383 27.2634 38.8838C26.0679 34.2483 25.266 31.3546 24.8721 30.0172C24.6032 27.4762 25.7509 29.9303 28.9383 38.1746L29.0002 38.1794C24.4606 24.914 24.9551 25.7615 30.0105 37.6049L30.0415 37.6074C26.2528 28.2894 25.3386 25.6359 28.4723 30.5782C29.2043 31.9732 30.262 33.9846 31.6501 36.5507L32.0477 36.644Z" fill="url(#paint2_radial_221_13)"/>
<path style="mix-blend-mode:color-dodge" opacity="0.3" d="M24.4237 3.04021C34.0979 4.79091 40.5063 14.0644 38.7553 23.7277C37.0044 33.391 27.7218 39.7908 18.0477 38.0401C8.37351 36.2894 1.96507 27.0159 3.71603 17.3526C5.46698 7.68934 14.7496 1.28951 24.4237 3.04021Z" fill="url(#paint3_linear_221_13)"/>
<defs>
<radialGradient id="paint0_radial_221_13" cx="0" cy="0" r="1" gradientUnits="userSpaceOnUse" gradientTransform="translate(8.09191 -6.62324) rotate(-15.2765) scale(53.1526 53.1072)">
<stop/>
<stop offset="0.04" stop-color="#060300"/>
<stop offset="0.5" stop-color="#4B2500"/>
<stop offset="0.83" stop-color="#763B00"/>
<stop offset="1" stop-color="#874400"/>
</radialGradient>
<radialGradient id="paint1_radial_221_13" cx="0" cy="0" r="1" gradientUnits="userSpaceOnUse" gradientTransform="translate(42.2459 -4.54754) rotate(55.5223) scale(65.7529 65.7683)">
<stop stop-color="#FF9D00"/>
<stop offset="0.1" stop-color="#F99800"/>
<stop offset="0.24" stop-color="#E88A00"/>
<stop offset="0.39" stop-color="#CD7300"/>
<stop offset="0.54" stop-color="#AD5700"/>
<stop offset="0.6" stop-color="#A15200"/>
<stop offset="0.72" stop-color="#824600"/>
<stop offset="0.86" stop-color="#513300"/>
<stop offset="1" stop-color="#1E1F00"/>
</radialGradient>
<radialGradient id="paint2_radial_221_13" cx="0" cy="0" r="1" gradientUnits="userSpaceOnUse" gradientTransform="translate(22.5446 17.5936) rotate(59.1634) scale(29.9111 29.9221)">
<stop stop-color="#FFA600"/>
<stop offset="0.08" stop-color="#F9A100"/>
<stop offset="0.19" stop-color="#E89300"/>
<stop offset="0.31" stop-color="#CD7D00"/>
<stop offset="0.44" stop-color="#A85F00"/>
<stop offset="0.54" stop-color="#874400"/>
<stop offset="0.64" stop-color="#763E00"/>
<stop offset="0.82" stop-color="#4B2F00"/>
<stop offset="1" stop-color="#1E1F00"/>
</radialGradient>
<linearGradient id="paint3_linear_221_13" x1="9.73741" y1="24.5084" x2="73.8267" y2="2.26654" gradientUnits="userSpaceOnUse">
<stop/>
<stop offset="1" stop-color="white"/>
</linearGradient>
</defs>
</svg>
