<svg width="78" height="78" viewBox="0 0 78 78" fill="none" xmlns="http://www.w3.org/2000/svg">
<path style="mix-blend-mode:multiply" d="M59.5437 68.7453C43.288 79.8648 21.0467 75.7198 9.91233 59.48C-1.22206 43.2402 2.92361 21.0239 19.1793 9.90448C35.435 -1.21495 57.6763 2.93002 68.8107 19.1698C79.9451 35.4097 75.7994 57.6259 59.5437 68.7453V68.7453Z" fill="url(#paint0_radial_221_16)"/>
<path style="mix-blend-mode:color-dodge" opacity="0.3" d="M45.9713 6.48983C63.8056 9.71726 75.6196 26.8131 72.3917 44.6274C69.1638 62.4418 52.0513 74.2399 34.217 71.0125C16.3826 67.785 4.56855 50.6892 7.79645 32.8749C11.0244 15.0605 28.1369 3.2624 45.9713 6.48983Z" fill="url(#paint1_linear_221_16)"/>
<path style="mix-blend-mode:screen" opacity="0.3" d="M59.0706 68.5533C57.2261 64.9681 55.6794 61.9797 54.4877 59.5925C55.864 61.822 57.5907 64.7098 59.6199 68.1373C56.3902 62.4366 54.1202 58.4168 52.7002 56.0118C49.7611 49.5309 52.4188 52.2618 62.6914 65.5667L62.8144 65.4617C49.0009 46.0303 50.1674 47.2684 63.689 64.5549L63.7461 64.5594C54.7979 52.677 51.6504 48.1298 55.7911 51.7222C57.26 53.5001 60.5268 57.2536 65.3241 62.7325C61.4784 58.3029 58.637 54.984 57.0236 52.8507C59.0061 54.6687 62.0455 57.6589 66.1461 61.7643C60.8352 56.2453 57.4802 52.8864 55.9319 51.389C53.7183 48.1192 57.2586 50.5749 67.9443 59.3238L68.0718 59.1617C51.6365 44.6302 52.8912 45.4737 68.6566 58.2897L68.6655 58.1757C54.8308 46.3707 52.7787 43.9737 66.4334 51.4632C67.7452 52.3112 69.2238 53.2295 70.8692 54.2183C69.8909 53.511 68.9607 52.9222 68.0877 52.3379C68.9652 52.8652 69.9568 53.4014 70.9485 53.9377L70.9618 53.7667C67.4562 51.6004 64.714 49.9525 62.6826 48.7615C55.7596 44.0343 58.1913 44.5109 72.2427 50.5975L72.2605 50.3695C54.2692 41.7959 55.4892 42.35 72.3924 50.1504L72.4013 50.0363C59.6759 43.8812 56.1044 41.8245 63.7634 43.7415C65.8831 44.5378 69.0078 45.6994 73.1945 47.2306C69.9646 45.9461 67.3446 44.9387 65.3391 44.1512C67.4195 44.7151 70.0573 45.4945 73.3665 46.4984L73.3754 46.3844C67.885 44.6367 64.2467 43.4351 62.3375 42.8846C58.6295 41.1039 61.9877 41.4808 73.7906 44.008L73.8084 43.78C55.8391 39.3376 57.0858 39.5496 73.8395 43.3809L73.8529 43.2099C57.3015 38.9929 56.0645 37.9213 74.0332 38.6931L74.0554 38.408C57.1148 36.971 58.4274 37.0734 74.0117 38.2326L74.0206 38.1185C58.5067 36.7928 57.1726 36.2299 73.8258 35.4651C73.8347 35.3511 73.8436 35.2371 73.7955 35.1186C58.0651 35.0951 56.797 34.4226 73.202 31.6884L73.2198 31.4604C71.8278 31.6385 70.6116 31.773 69.505 31.9734C58.73 33.197 58.8842 32.6929 72.5765 29.4028L72.5943 29.1748C56.8341 32.4755 57.831 32.2092 72.4409 28.9334L72.4587 28.7054C57.6517 31.5643 56.3132 31.0584 70.8691 24.796C70.821 24.6775 70.7202 24.4976 70.672 24.3791C56.666 29.48 57.6281 28.9242 70.2251 23.4839L70.234 23.3699C57.5406 28.5733 56.3815 28.7122 69.3225 21.8076L69.2217 21.6277C55.5958 28.4788 56.4393 27.9711 69.0683 21.3863L68.9675 21.2063C56.2511 27.4402 55.0526 27.3467 67.1703 18.4852C67.1221 18.3667 67.0125 18.3008 66.9072 18.1779C55.0453 25.9696 55.7924 25.225 66.3855 17.5062C55.7487 25.0495 54.7385 25.4869 65.6006 16.5273L65.4954 16.4044C53.9306 25.5385 54.5547 24.899 65.1797 16.0356L65.0218 15.8513C54.0722 24.4598 52.7989 24.5899 62.522 13.3046C62.4168 13.1817 62.2545 13.0543 62.0922 12.927C52.2298 23.0543 52.5996 21.9934 60.6929 11.728L60.5787 11.7191C52.3321 21.7431 51.5279 22.4833 59.8287 11.0297L59.6664 10.9023C50.7111 22.649 51.1247 21.7636 58.9601 10.3884L58.7978 10.261C50.6904 21.4429 49.6802 21.8802 56.4462 8.75829C56.3365 8.69237 56.1697 8.622 56.0645 8.49907C48.9132 20.6733 49.0548 19.5946 54.5244 7.63327L54.4673 7.62881C48.8925 19.4673 48.4173 20.4052 54.248 7.49698L54.1338 7.48807C47.8592 20.9351 48.049 19.975 53.3089 7.02221L53.1377 7.00885C47.4783 19.9304 46.6215 20.6091 50.5837 5.89183C50.4125 5.87847 50.2502 5.75109 50.079 5.73773C45.3712 19.7086 45.1267 18.4277 47.6696 4.97611L47.5554 4.9672C44.8369 18.4624 44.5196 19.5848 47.1648 4.82202L46.9366 4.8042C43.7288 20.1539 43.4709 19.0441 44.9658 4.30624L44.7376 4.28842C42.8432 18.9951 42.3065 19.9855 42.4681 3.93922L42.0116 3.90358C41.2528 15.8312 40.6931 17.8522 39.9797 11.545C39.8938 9.70301 39.7516 7.11102 39.6191 3.65947L39.505 3.65056C39.5471 5.3171 39.5982 6.86962 39.6671 8.19412C39.5411 6.86517 39.4286 5.3652 39.2723 3.68975L39.2152 3.6853C39.3922 6.56678 39.6048 8.99221 39.6951 10.7772C39.8222 19.4475 39.2546 16.4208 37.5513 3.67011L37.3801 3.65675C39.1373 19.394 38.9297 20.5822 35.4745 3.79478L35.0751 3.7636C37.5645 20.4183 36.5692 19.1936 31.7598 4.30776L31.6457 4.29885C36.3231 19.4038 36.7344 20.755 31.5271 4.34695L31.2988 4.32913C36.1844 21.9165 35.0046 20.8494 27.5441 5.35516L27.3158 5.33734C34.4027 21.2039 34.6472 22.4847 25.6555 6.0107C25.5414 6.00179 25.4184 6.10688 25.3613 6.10243C30.9995 17.7264 31.9754 20.6703 28.6211 16.5658C27.4465 14.6961 25.5004 11.6766 22.6249 7.32266L22.5107 7.31375C24.0359 9.84165 25.3113 11.8912 26.3281 13.5765C25.1312 11.9919 23.6802 9.98594 22.0275 7.62016C24.2456 10.833 26.0561 13.3832 27.3494 15.2047C32.1132 23.3193 29.2272 20.5705 19.3829 9.13433L19.2599 9.23943C31.4409 23.8404 32.2079 25.0473 18.412 9.80412L18.2274 9.96178C31.1977 25.4846 29.3678 24.6535 15.1122 12.3569C29.4026 24.943 30.8064 26.085 14.9892 12.462L14.8046 12.6196C30.9145 27.6419 28.8689 27.3675 10.7436 16.8335L10.6206 16.9386C28.6487 27.9813 29.9516 28.9433 9.97865 17.8062L9.85116 17.9683C23.3384 26.1329 26.317 28.4301 20.2255 26.2914C17.8428 25.1877 13.7924 23.3804 7.9077 20.799L7.8988 20.913C10.6106 22.2144 12.989 23.375 15.0382 24.3379C12.923 23.4846 10.4743 22.4905 7.57786 21.3467C11.1368 22.829 14.0814 24.0912 16.416 25.0764C28.4084 31.0596 23.9837 30.3701 5.47053 25.5411L5.46163 25.6551C27.5998 31.8568 29.3423 32.3369 5.32971 25.8742L5.32081 25.9882C28.7137 33.0334 26.299 33.0743 3.99543 29.7275C26.4524 33.3157 28.6648 33.6605 3.82789 30.4026L3.81899 30.5166C29.6512 34.9993 27.4551 35.9175 2.69206 37.5978L2.68316 37.7119C27.7004 36.4529 29.6541 36.4333 2.62976 38.3959C29.1397 37.1388 26.7242 37.9252 2.74446 42.0755C26.8865 38.0526 29.2753 37.6082 2.71776 42.4175C30.3106 38.3199 28.3687 39.6595 3.74324 48.405C28.746 39.9757 30.7486 39.3291 3.82178 48.8699C30.467 39.9953 28.1782 41.3652 4.79329 51.8708C28.3405 41.4926 30.7122 40.5306 5.61216 53.8847C32.0856 41.3261 30.6128 43.2758 9.14423 60.1252C30.9285 43.6446 32.7474 42.4101 9.81494 61.0952C32.5798 43.0853 30.7076 45.0038 11.1741 62.8072C30.7557 45.1223 32.8385 43.4496 12.6564 64.4141C34.0236 43.7142 33.0555 45.818 16.7971 68.0064C33.4461 45.9632 34.9011 44.2415 18.1571 68.9729C34.9619 44.9344 33.638 47.1826 19.3592 69.755C33.7433 47.3055 35.4006 45.1981 22.7202 71.5658C36.7087 45.3576 36.4166 47.6289 27.5696 73.4356L27.6266 73.44C36.7983 47.8881 37.7048 45.8368 29.5358 73.9905C37.77 46.4728 37.0035 48.9365 29.5929 73.995C37.1088 49.0594 38.1035 46.6135 33.3854 74.6925C39.2057 46.4701 39.3834 48.6061 37.0378 74.9776L37.0949 74.982C39.4411 52.2812 40.0957 47.572 40.1038 65.1227C40.0043 67.8679 39.9219 71.1306 39.8565 74.9108C39.9292 72.5077 39.9842 70.3325 40.0828 68.3329C40.1028 70.2844 40.0434 72.5166 40.0277 74.9242C40.1028 70.2844 40.1682 66.5042 40.2284 63.5265C40.8924 49.8709 41.7461 52.1744 44.5547 74.3026L44.6689 74.3115C42.2696 46.9387 42.9262 48.8253 47.4223 73.6088L47.4794 73.6132C44.8179 57.6906 43.8325 51.1902 45.3776 55.6696C45.7266 57.8189 47.0374 63.8286 49.0692 73.1064C47.5094 65.8728 46.4831 60.6309 46.0297 57.6132C46.9441 60.6096 48.3351 65.5932 50.2506 72.6825C48.0468 64.1369 46.5685 58.8023 45.8423 56.3368C45.3467 51.6525 47.4625 56.1765 53.3384 71.375L53.4525 71.3839C45.0838 46.929 45.9953 48.4913 55.3151 70.3248L55.3722 70.3293C48.3876 53.1516 46.7024 48.2597 52.4793 57.371C53.8288 59.9426 55.7786 63.6507 58.3376 68.3813L59.0706 68.5533Z" fill="url(#paint2_radial_221_16)"/>
<path style="mix-blend-mode:screen" d="M69.2881 27.2911C50.8551 33.939 48.2551 34.8831 69.8609 29.5152C48.4514 36.0455 51.2478 36.2638 70.9168 35.8491C51.2167 36.6628 48.4462 36.8481 70.778 38.3618C48.5373 37.8875 51.4604 38.6892 70.3124 42.8564C51.3855 38.9128 48.4402 38.3961 69.3873 45.8813C47.8331 39.5532 50.2285 41.2313 67.0679 51.3208C50.0261 41.617 47.4329 40.2675 65.1948 53.985C46.9666 41.0914 49.0892 43.3218 62.966 56.7934C48.8476 43.475 46.5931 41.4637 59.767 59.526C45.3983 42.0587 46.5151 44.6694 55.523 62.4065C46.1504 44.9277 44.6734 42.5183 51.4295 64.0943C43.8388 42.912 44.4242 45.7106 48.8954 64.9289C44.13 45.8024 43.2548 43.0385 43.7888 65.62C42.0608 42.8879 41.6893 45.4398 39.8769 65.7161C41.281 45.5226 41.1959 42.9351 34.614 64.7318C40.2827 42.8638 39.4592 45.3231 33.0339 64.379C39.1739 45.3008 39.7736 42.7667 28.1542 62.1628C38.905 42.1254 37.4322 44.0751 25.8989 60.8971C37.1031 43.8774 38.1898 41.7254 21.4862 57.1114C37.4219 41.264 35.5719 42.8976 20.5257 56.1761C35.4141 42.7132 37.0492 40.8908 17.5227 51.9843C36.6023 39.9956 34.5159 40.9798 16.4007 50.1762C34.2572 40.6155 36.1991 39.2759 14.2598 44.5031C35.6381 38.3718 33.2493 38.8163 13.7129 42.6825C33.1574 38.5223 35.507 37.8454 13.261 38.1736C35.5211 36.9289 33.1813 36.7462 13.1492 35.9281C33.2169 36.2902 35.5308 36.0693 13.9759 30.4867C35.5583 34.9817 33.2674 34.172 14.5711 28.0097C33.3467 33.8915 35.7124 34.4776 15.9091 24.845C36.1653 33.8247 34.1998 32.5242 17.0706 22.4694C34.4593 32.143 36.5656 33.1104 19.7701 18.7801C37.1504 32.2384 35.5763 30.3375 22.0382 16.2042C35.7608 30.1799 37.5284 31.809 24.0023 14.5796C38.2488 31.4065 37.2017 29.3747 26.867 12.4517C37.5619 29.1734 38.9648 31.0609 30.2142 10.763C39.9269 30.5051 39.4816 28.1188 34.4174 9.14105C39.8329 28.0315 40.5154 30.3216 36.2266 8.76609C41.3758 30.3314 41.5494 28.1082 40.9293 8.10081C41.9533 28.0824 42.1793 30.3368 43.5634 8.19173C43.1539 30.3555 43.9596 28.1243 48.5677 8.81176C44.1835 28.1991 43.7157 30.5141 49.6868 9.18588C44.4309 30.914 45.6665 29.0604 54.8785 11.0823C45.9956 29.2582 45.089 31.3095 56.5239 12.0711C45.9184 31.7184 47.7113 30.0804 60.8276 15.0453C47.8692 30.2647 46.2911 32.0916 61.8408 16.042C46.9796 32.8336 49.1935 31.6872 65.9013 20.6605C49.3951 32.0471 47.3872 33.4963 66.9618 22.5212C48.0713 34.2952 50.7106 33.5836 69.2355 27.2296L69.2881 27.2911Z" fill="url(#paint3_radial_221_16)"/>
<defs>
<radialGradient id="paint0_radial_221_16" cx="0" cy="0" r="1" gradientUnits="userSpaceOnUse" gradientTransform="translate(78.8268 -7.49822) rotate(55.5223) scale(121.216 121.244)">
<stop stop-color="#FF9D00"/>
<stop offset="0.1" stop-color="#F99800"/>
<stop offset="0.24" stop-color="#E88A00"/>
<stop offset="0.39" stop-color="#CD7300"/>
<stop offset="0.54" stop-color="#AD5700"/>
<stop offset="0.6" stop-color="#A15200"/>
<stop offset="0.72" stop-color="#824600"/>
<stop offset="0.86" stop-color="#513300"/>
<stop offset="1" stop-color="#1E1F00"/>
</radialGradient>
<linearGradient id="paint1_linear_221_16" x1="18.8969" y1="46.0666" x2="137.046" y2="5.06357" gradientUnits="userSpaceOnUse">
<stop/>
<stop offset="1" stop-color="white"/>
</linearGradient>
<radialGradient id="paint2_radial_221_16" cx="0" cy="0" r="1" gradientUnits="userSpaceOnUse" gradientTransform="translate(41.5516 33.4338) rotate(59.1634) scale(55.1413 55.1616)">
<stop stop-color="#FFA600"/>
<stop offset="0.08" stop-color="#F9A100"/>
<stop offset="0.19" stop-color="#E89300"/>
<stop offset="0.31" stop-color="#CD7D00"/>
<stop offset="0.44" stop-color="#A85F00"/>
<stop offset="0.54" stop-color="#874400"/>
<stop offset="0.64" stop-color="#763E00"/>
<stop offset="0.82" stop-color="#4B2F00"/>
<stop offset="1" stop-color="#1E1F00"/>
</radialGradient>
<radialGradient id="paint3_radial_221_16" cx="0" cy="0" r="1" gradientUnits="userSpaceOnUse" gradientTransform="translate(13.0129 -15.4275) rotate(-15.2765) scale(97.9872 97.9035)">
<stop/>
<stop offset="0.04" stop-color="#060300"/>
<stop offset="0.5" stop-color="#4B2500"/>
<stop offset="0.83" stop-color="#763B00"/>
<stop offset="1" stop-color="#874400"/>
</radialGradient>
</defs>
</svg>
