<svg width="112" height="115" viewBox="0 0 112 115" fill="none" xmlns="http://www.w3.org/2000/svg">
<path d="M52.9132 110.418C82.0728 112.695 107.554 90.9274 109.828 61.8001C112.102 32.6728 90.3063 7.21524 61.1467 4.93908C31.9871 2.66293 6.50549 24.4301 4.23186 53.5574C1.95823 82.6847 23.7536 108.142 52.9132 110.418Z" fill="white" style="mix-blend-mode:multiply"/>
<path style="mix-blend-mode:multiply" d="M52.9132 110.418C82.0728 112.695 107.554 90.9274 109.828 61.8001C112.102 32.6728 90.3063 7.21524 61.1467 4.93908C31.9871 2.66293 6.50549 24.4301 4.23186 53.5574C1.95823 82.6847 23.7536 108.142 52.9132 110.418Z" fill="url(#paint0_radial_430_259)"/>
<path style="mix-blend-mode:screen" d="M100.49 35.136C73.043 44.684 69.1883 46.0288 101.312 38.4349C69.4515 47.7519 73.5694 48.13 102.792 47.8574C73.5774 48.7549 69.4676 49.0016 102.563 51.5282C69.6355 50.4902 73.861 51.6713 101.813 58.2229C73.7738 52.0617 69.4088 51.2103 100.388 62.6516C68.5383 52.9015 72.0891 55.4487 96.9214 70.6665C71.8236 55.9387 68.0029 53.938 94.1197 74.5338C67.2848 55.1304 70.3787 58.4364 90.7835 78.6999C70.1264 58.7572 66.7282 55.7112 85.979 82.7513C64.9505 56.6507 66.5798 60.5234 79.6844 86.9702C66.0972 60.883 63.9333 57.3091 73.5871 89.3885C62.6381 57.889 63.4505 62.0384 69.7978 90.6249C63.042 62.1767 61.8256 58.1093 62.1686 91.5616C59.9709 57.851 59.3327 61.6602 56.3691 91.6197C58.7071 61.6681 58.7198 57.8669 48.5905 90.1045C57.3645 57.7611 56.0575 61.4045 46.2496 89.5245C55.6666 61.3173 56.5828 57.5865 39.068 86.1832C55.3456 56.6955 53.1359 59.5307 35.6946 84.2742C52.5888 59.261 54.2559 56.0997 29.2105 78.5471C53.1229 55.3302 50.3228 57.7221 27.7827 77.1871C50.0581 57.4745 52.5414 54.7741 23.3844 70.9418C51.8997 53.5323 48.7228 54.93 21.7755 68.2625C48.4236 54.3959 51.3058 52.4076 18.7435 59.7971C50.56 51.0442 46.9885 51.6734 17.9904 57.0711C46.8543 51.2089 50.3393 50.2325 17.3762 50.3834C50.3885 48.8743 46.9483 48.549 17.2928 47.0854C46.9968 47.9286 50.4854 47.6334 18.6044 39.0158C50.5522 46.0496 47.1304 44.761 19.5162 35.3415C47.2177 44.3706 50.7224 45.3251 21.528 30.6748C51.3707 44.2975 48.51 42.3717 23.278 27.1795C48.8928 41.8341 52.0755 43.2743 27.3411 21.7081C52.9197 41.9214 50.5811 39.1284 30.7595 17.9457C50.8855 38.8684 53.4719 41.397 33.6681 15.619C54.5368 40.8559 53.0152 37.7862 37.9459 12.4912C53.5499 37.4874 55.6061 40.2584 42.905 10.0976C57.0274 39.5181 56.3924 36.0068 49.1064 7.80093C56.7965 35.9248 57.8399 39.2978 51.8133 7.33123C59.0822 39.3947 59.3985 36.0712 58.8125 6.45884C59.9632 36.1153 60.3246 39.4917 62.7177 6.65016C61.8015 39.4935 62.9692 36.1797 70.0842 7.62244C63.3036 36.2625 62.5224 39.72 71.7431 8.20592C63.6078 40.3722 65.4699 37.6234 79.4161 11.0749C65.9605 37.8886 64.5846 40.9592 81.8559 12.5705C65.8481 41.5119 68.4788 39.1067 88.211 17.0391C68.7391 39.4108 66.4253 42.1244 89.682 18.5727C67.3624 43.2191 70.6179 41.5437 95.6175 25.5054C70.9171 42.0778 67.9652 44.2309 97.109 28.2324C68.898 45.3819 72.8956 44.3887 100.425 35.2444L100.49 35.136Z" fill="url(#paint1_radial_430_259)"/>
<path style="mix-blend-mode:screen" opacity="0.3" d="M87.2199 101.126C84.5145 95.7506 82.2469 91.3173 80.539 87.7221C82.5513 91.0573 85.0579 95.3391 88.0067 100.507L88.0632 100.511C83.3844 92.0304 80.0454 86.0378 78.003 82.3598C73.7033 72.6602 77.7001 76.7746 92.6804 96.6723L92.863 96.5163C72.7396 67.5342 74.4146 69.3675 94.2153 95.2032L94.337 95.0992C81.2268 77.4474 76.6418 70.6765 82.7529 76.0911C84.8745 78.7538 89.6648 84.349 96.7505 92.5637C91.1359 85.8826 86.9792 80.9044 84.554 77.764C87.5183 80.5493 91.9492 84.9246 97.9422 91.1245C90.1745 82.9133 85.2316 77.8169 82.9054 75.5922C79.7043 70.7454 84.9265 74.4449 100.552 87.5261L100.744 87.2573C76.5949 65.4518 78.4877 66.6779 101.583 85.9609L101.714 85.7441C81.2796 68.031 78.3248 64.3952 98.4049 75.7247C100.354 76.9552 102.516 78.3726 104.895 79.9204L104.904 79.8076C103.445 78.8424 102.095 77.9424 100.797 77.1033C102.104 77.8296 103.571 78.682 105.039 79.5344L105.169 79.3175C99.9119 76.0694 95.8484 73.5387 92.8658 71.7168C82.6861 64.5656 86.2605 65.3556 107.012 74.6377L107.038 74.2993C80.4956 61.33 82.3062 62.1524 107.234 73.9741L107.247 73.8048C88.4855 64.5078 83.2801 61.3205 94.5195 64.3549C97.6069 65.5608 102.297 67.3459 108.42 69.6969C103.626 67.7902 99.7696 66.2405 96.7995 64.987C99.8569 65.8501 103.796 67.0658 108.62 68.5776L108.638 68.352C100.556 65.621 95.1238 63.8914 92.2967 62.9896C86.7694 60.2878 91.7775 60.906 109.254 64.8249C109.263 64.7121 109.272 64.5993 109.28 64.4864C82.7191 57.5879 84.5129 57.8983 109.324 63.9224L109.346 63.6403C84.8568 57.1307 83.0513 55.5141 109.701 56.9148C109.714 56.7455 109.723 56.6327 109.736 56.4635C84.6427 54.0494 86.6147 54.2602 109.758 56.1815L109.767 56.0687C86.8149 53.8786 84.8392 52.9865 109.506 52.1325C109.519 51.9633 109.475 51.7897 109.428 51.6725C86.0485 51.3218 84.2466 50.3865 108.573 46.6117C108.582 46.4988 108.534 46.3816 108.486 46.2644C106.479 46.5049 104.702 46.7066 103.095 46.9215C87.059 48.5632 87.3421 47.8475 107.703 43.1955L107.612 42.9046C84.2972 47.553 85.7485 47.1556 107.525 42.5574C107.534 42.4446 107.487 42.3273 107.439 42.2101C85.5931 46.2354 83.6086 45.4562 105.333 36.4274C105.234 36.2493 105.138 36.0149 105.039 35.8369C84.1843 43.1744 85.6143 42.3213 104.406 34.4822L104.419 34.313C85.5366 41.8613 83.7641 42.0066 103.122 31.9984L102.971 31.7596C82.6002 41.6319 83.9041 40.9393 102.771 31.4035L102.624 31.1082C83.6834 40.1275 81.8808 39.93 100.043 27.0476C99.9433 26.8696 99.8391 26.748 99.6829 26.5655C81.9783 37.9513 83.1436 36.8506 98.9672 25.5449L98.976 25.432C82.9962 36.5553 81.4708 37.1739 97.7784 24.0333L97.6222 23.8508C80.3283 37.2549 81.3154 36.2538 97.21 23.3079C97.1015 23.2426 97.0538 23.1254 96.9453 23.0602C80.5644 35.6844 78.7398 35.7689 93.2653 19.2542C93.0526 19.0674 92.8964 18.8849 92.6838 18.6981C77.8906 33.546 78.4655 32.0019 90.6612 16.9511L90.5006 16.825C78.0922 31.689 76.8749 32.7289 89.3763 15.9427L89.1636 15.7558C75.7147 33.0356 76.2765 31.6607 88.0915 14.9343C87.9829 14.8691 87.9309 14.8083 87.8223 14.7431C75.634 31.1565 74.1043 31.8315 84.3624 12.4866C84.1453 12.3561 83.9847 12.2301 83.7676 12.0996C72.9896 30.0987 73.2345 28.4153 81.4795 10.8426L81.3666 10.8338C72.9001 28.3325 72.1689 29.6941 80.9845 10.6337L80.8151 10.6205C71.2559 30.474 71.5962 29.0251 79.6168 9.95938L79.3433 9.82451C70.7492 28.9589 69.4189 29.99 75.6046 8.22723C75.3831 8.15318 75.1096 8.01831 74.8881 7.94426C67.6522 28.6035 67.3457 26.7068 71.2837 6.81146L71.1143 6.79823C66.833 26.7236 66.3622 28.3893 70.5584 6.64131L70.2761 6.61926C65.2666 29.3252 64.9425 27.6541 67.3793 5.88223C67.2664 5.87341 67.1534 5.86459 67.0405 5.85577C64.0346 27.64 63.1817 29.1056 63.6744 5.30909C63.4485 5.29144 63.2226 5.2738 62.9968 5.25616C61.6152 22.9677 60.8738 25.9176 59.8969 16.591C59.8258 13.8615 59.6732 9.99055 59.5001 4.92628C59.5001 4.92628 59.3872 4.91745 59.3307 4.91304C59.363 7.41256 59.4173 9.63005 59.4892 11.6219C59.3564 9.68205 59.1936 7.39933 58.9919 4.88658L58.879 4.87776C59.1093 9.20874 59.3447 12.7456 59.5332 15.4276C59.6117 28.2592 58.7126 23.7625 56.4377 4.85731L56.1553 4.83526C58.4779 28.2274 58.1201 29.902 53.3011 5.00956C53.1317 4.99633 52.9014 5.03509 52.7276 5.07827C56.1437 29.7476 54.699 27.8755 47.7921 5.71424L47.6792 5.70542C54.3337 28.1875 54.9747 30.167 47.5054 5.7486L47.1578 5.83495C54.1607 31.8627 52.4072 30.307 41.596 7.21651L41.3049 7.30726C51.5683 30.8657 51.9357 32.7104 38.7976 8.13291C38.6238 8.17608 38.5064 8.22367 38.3282 8.32325C46.5213 25.6477 47.9374 30.0713 43.0217 23.8989C41.3042 21.1542 38.4243 16.5595 34.2735 10.0495L34.0953 10.1491C36.3115 13.784 38.1764 16.8239 39.6248 19.3773C37.8809 16.9711 35.7813 14.0263 33.3304 10.4866L33.2739 10.4822C36.5359 15.277 39.1342 19.112 41.0255 21.8134C47.9206 33.929 43.7544 29.8013 29.2926 12.725L29.1144 12.8245C46.8946 34.7001 48.0658 36.4374 27.8581 13.6344L27.5582 13.838C46.5404 37.056 43.8006 35.7637 22.8545 17.3296L22.798 17.3252C43.8219 36.2194 45.788 37.9619 22.6719 17.4855C22.611 17.5375 22.4893 17.6415 22.4284 17.6935C46.0638 40.2535 43.0321 39.7897 16.3188 23.9128L16.1318 24.1252C42.727 40.7873 44.6022 42.2391 15.1271 25.352L14.9401 25.5644C34.828 37.9003 39.1644 41.3035 30.1536 38.1027C26.5932 36.4058 20.6141 33.6688 11.9994 29.7611L11.9862 29.9304C15.9808 31.8881 19.5368 33.6414 22.4849 35.1769C19.4019 33.9146 15.7153 32.3782 11.4817 30.572C16.701 32.8524 21.0996 34.7282 24.5647 36.1906C42.2056 45.2866 35.6993 44.2109 8.39132 36.6866L8.37812 36.8558C41.1532 46.3961 43.6459 47.2151 8.18232 37.181L8.16912 37.3502C42.7241 48.1079 39.1358 48.2248 6.14802 42.8673C39.3917 48.5853 42.6449 49.1232 5.89501 43.9258L5.87741 44.1514C44.1285 51.2253 40.8475 52.5013 4.15114 54.6288L4.13794 54.7981C41.2332 53.3826 44.1351 53.3256 4.05874 55.8134L4.04994 55.9262C43.4259 54.4052 39.8149 55.5419 4.14456 61.2681C39.9755 55.6679 43.5425 55.0953 4.16143 61.7802L4.15263 61.893C45.1053 56.1821 42.2841 58.1182 5.62525 70.6907L5.61645 70.8035C42.8701 58.618 45.8424 57.6584 5.79832 71.3853C45.4199 58.7037 42.0297 60.6521 7.21004 75.8653C42.2988 60.8434 45.8145 59.4722 8.3409 78.8479C47.7682 60.6463 45.615 63.4859 13.5228 88.1624L13.5793 88.1668C46.1401 64.0377 48.8352 62.2619 14.5987 89.6652C48.5822 63.3204 45.8035 66.1679 16.6161 92.2063C45.9641 66.2939 48.9987 63.807 18.8162 94.5913C50.7837 64.2301 49.4036 67.3571 24.9273 100.006L24.9837 100.01C50.0115 67.5748 52.1991 65.0217 26.9718 101.471C52.2893 66.0503 50.2616 69.4671 28.7561 102.632C50.4222 69.5932 52.9361 66.498 33.7099 105.402L33.7664 105.407C54.8993 66.8216 54.4139 70.132 40.8704 108.288L40.9834 108.297C54.9477 70.5709 56.3756 67.5612 43.8148 109.143C56.4746 68.4769 55.3372 72.1336 43.9278 109.151C55.4413 72.2552 57.0261 68.6903 49.5218 110.269L49.5783 110.274C58.6856 68.5361 58.8954 71.6738 54.9992 110.697L55.1122 110.706C58.9291 77.0677 60.0394 70.1174 59.7704 96.1446C59.623 100.219 59.4184 105.027 59.2043 110.685C59.3685 107.123 59.5108 103.842 59.6831 100.905C59.6237 103.851 59.5988 107.084 59.5475 110.655C59.7411 103.804 59.9552 98.1453 60.0725 93.728C61.3133 73.4516 62.5219 76.8943 66.3728 109.826L66.4858 109.835C63.407 69.1887 64.3251 71.9844 70.5962 108.851L70.7091 108.86C66.988 85.1881 65.6379 75.5487 67.9032 82.1951C68.3909 85.4112 70.1979 94.2919 73.0383 108.134C70.8682 97.352 69.3729 89.5739 68.7561 85.0992C70.0593 89.514 72.0372 96.9325 74.7331 107.528C71.5744 94.8534 69.5276 86.862 68.4496 83.2026C67.7441 76.2239 70.8564 82.9366 79.3136 105.616L79.4918 105.517C67.4382 69.2198 68.7869 71.5952 82.2734 104.088L82.3863 104.097C72.2769 78.5643 69.895 71.2277 78.3176 84.8814C80.2859 88.7806 83.1563 94.2258 86.8114 101.265L87.2199 101.126Z" fill="url(#paint2_radial_430_259)"/>
<path style="mix-blend-mode:color-dodge" opacity="0.3" d="M45.2867 9.43252C71.2759 2.55148 97.9585 18.084 104.795 44.0415C111.688 70.0034 96.1432 96.6542 70.1584 103.479C44.1692 110.36 17.4867 94.8273 10.6501 68.8698C3.75707 42.9079 19.302 16.2571 45.2867 9.43252Z" fill="url(#paint3_linear_430_259)"/>
<defs>
<radialGradient id="paint0_radial_430_259" cx="0" cy="0" r="1" gradientUnits="userSpaceOnUse" gradientTransform="translate(80.4912 -30.047) rotate(30.3984) scale(179.852 179.729)">
<stop stop-color="#3300FF"/>
<stop offset="0.1" stop-color="#0037F9"/>
<stop offset="0.24" stop-color="#005DE8"/>
<stop offset="0.39" stop-color="#0039CD"/>
<stop offset="0.54" stop-color="#0030AD"/>
<stop offset="0.6" stop-color="#0010A1"/>
<stop offset="0.72" stop-color="#001582"/>
<stop offset="0.86" stop-color="#020051"/>
<stop offset="1" stop-color="#01001F"/>
</radialGradient>
<radialGradient id="paint1_radial_430_259" cx="0" cy="0" r="1" gradientUnits="userSpaceOnUse" gradientTransform="translate(17.7341 -29.1645) rotate(-14.657) scale(145.265 145.139)">
<stop/>
<stop offset="0.04" stop-color="#060300"/>
<stop offset="0.5" stop-color="#4B2500"/>
<stop offset="0.83" stop-color="#763B00"/>
<stop offset="1" stop-color="#874400"/>
</radialGradient>
<radialGradient id="paint2_radial_430_259" cx="0" cy="0" r="1" gradientUnits="userSpaceOnUse" gradientTransform="translate(61.7737 48.9627) rotate(59.7926) scale(81.7881 81.8119)">
<stop stop-color="#FFA600"/>
<stop offset="0.08" stop-color="#F9A100"/>
<stop offset="0.19" stop-color="#E89300"/>
<stop offset="0.31" stop-color="#CD7D00"/>
<stop offset="0.44" stop-color="#A85F00"/>
<stop offset="0.54" stop-color="#874400"/>
<stop offset="0.64" stop-color="#763E00"/>
<stop offset="0.82" stop-color="#4B2F00"/>
<stop offset="1" stop-color="#1E1F00"/>
</radialGradient>
<linearGradient id="paint3_linear_430_259" x1="33.9281" y1="79.5649" x2="166.603" y2="-49.803" gradientUnits="userSpaceOnUse">
<stop/>
<stop offset="1" stop-color="white"/>
</linearGradient>
</defs>
</svg>
