<svg width="136" height="137" viewBox="0 0 136 137" fill="none" xmlns="http://www.w3.org/2000/svg">
<mask id="mask0_102_226" style="mask-type:alpha" maskUnits="userSpaceOnUse" x="7" y="7" width="122" height="123">
<path style="mix-blend-mode:overlay" d="M128.42 75.5052C132.224 42.1525 108.239 12.0303 74.8493 8.22537C41.4595 4.42042 11.3084 28.3736 7.50503 61.7263C3.70166 95.079 27.6862 125.201 61.0761 129.006C94.466 132.811 124.617 108.858 128.42 75.5052Z" fill="url(#paint0_radial_102_226)"/>
</mask>
<g mask="url(#mask0_102_226)">
<path style="mix-blend-mode:multiply" d="M47.8438 125.576C47.0757 129.53 45.9616 132.77 44.0396 136.061C45.471 131.699 44.839 127.291 42.8936 123.526C41.6494 121.077 39.8818 119.448 38.2595 117.429C35.5366 114.062 35.2685 110.141 35.5237 105.4C35.5326 105.286 35.3614 105.273 35.3525 105.387C35.0499 109.264 34.7999 113.201 36.8032 116.225C38.5477 118.885 40.9912 120.682 42.4853 123.609C41.7004 122.63 40.6384 122.26 38.8996 122.469C37.6833 122.603 36.9755 123.58 35.7503 123.829C33.4142 124.334 31.9319 122.728 30.6869 121.025C28.9245 118.593 28.0805 115.43 27.9346 112.149C28.119 116.408 29.5018 120.76 32.4715 123.171C33.7129 124.186 34.4021 124.182 35.8511 124.009C37.4713 123.848 39.4703 122.513 41.0986 122.984C41.8842 123.218 42.7431 124.719 43.3612 125.627C43.3612 125.627 43.4183 125.632 43.4754 125.636C44.7055 129.001 44.8291 132.567 43.8417 136.39C43.3095 137.323 42.6587 138.305 41.9508 139.282L41.8938 139.277C41.3223 139.978 40.865 140.688 40.355 141.337C40.2231 141.556 40.3283 141.679 40.4951 141.749C39.682 142.603 38.926 143.462 38.376 144.623C38.244 144.843 38.5071 145.15 38.6961 144.935C41.3949 141.991 44.1766 139.456 45.7695 135.967C47.2779 133.561 48.1985 130.593 48.8294 127.66C49.81 126.13 50.8737 125.009 52.6132 124.055C54.2342 123.149 55.9337 122.708 57.5109 121.627C61.0871 119.211 63.8215 115.811 65.977 111.735C65.9859 111.621 65.9332 111.56 65.8673 111.669C61.9662 118.247 57.2219 120.916 51.2569 123.777C50.5409 124.123 49.9346 124.534 49.4996 124.959C49.5841 123.876 49.6686 122.793 49.8103 121.714C50.1684 119.333 50.4738 116.891 50.9461 114.519C52.1306 111.113 54.2623 108.813 57.316 106.471C60.1236 104.338 62.8341 102.715 65.0281 99.6167C65.0941 99.5072 64.9362 99.3228 64.8703 99.4324C61.1776 104.076 55.5165 105.986 52.0913 110.881C51.8979 111.152 51.7 111.481 51.5636 111.757C53.2924 104.321 56.3944 97.681 63.7603 94.528C63.9404 94.4274 63.9055 94.1379 63.7299 94.1815C57.4232 96.2701 53.1628 102.304 50.8945 109.296C49.4586 113.715 49.0589 118.1 48.4176 122.638C48.3731 123.208 48.2189 123.712 48.1788 124.225C48.0241 121.059 46.6397 118.198 45.686 114.969C45.2747 113.618 44.9776 112.275 44.8561 110.889C44.9467 108.258 45.2744 105.531 47.1511 103.555C48.3993 102.276 49.5852 101.795 51.0305 100.933C53.1392 99.6637 54.7698 97.8983 55.9884 95.5273C56.1203 95.3081 55.8483 95.1149 55.7164 95.334C54.1858 98.0248 52.5025 99.7287 50.047 101.028C48.9663 101.632 47.8375 102.118 46.9014 103.077C45.5302 104.461 44.9312 106.25 44.7273 108.126C44.8456 99.9913 49.393 92.4889 55.453 86.9398C55.5145 86.8873 55.4663 86.7688 55.3477 86.8169C50.2417 91.1787 46.0471 97.1027 44.683 104.28C44.087 107.503 44.0661 110.713 44.8093 113.696C45.8149 117.732 48.0152 121.173 48.0328 125.361L47.8438 125.576ZM98.3016 133.816C99.2331 137.33 99.1766 140.996 97.1396 145.024C97.1307 145.138 97.2404 145.204 97.3064 145.094C99.642 140.917 99.6111 136.9 98.478 133.027C98.1853 131.627 97.7125 130.329 97.6526 128.89C97.5452 126.587 98.6096 124.721 99.1782 122.586C99.7646 120.222 99.231 118.231 98.4299 115.989C98.4344 115.932 98.3158 115.98 98.3158 115.98C99.2918 118.924 99.3465 121.165 98.4214 124.19C98.113 125.198 97.6994 126.083 97.5052 127.101C97.2138 128.626 97.568 129.973 97.9222 131.32C96.784 128.249 95.009 125.242 93.2912 122.241C91.5571 117.976 93.5503 113.773 94.1738 109.462C95.2005 105.872 97.8591 103.441 99.7633 100.378C101.298 97.6302 104.359 96.6648 105.737 93.7326C106.978 91.0765 107.051 87.9278 106.527 85.0766C106.536 84.9625 106.36 85.0062 106.356 85.0632C107.199 88.9717 106.418 93.0975 103.658 96.0938C102.528 97.3248 101.197 98.1959 100.234 99.4972C100.498 99.059 100.705 98.6163 100.912 98.1736C102.465 94.4522 101.565 90.5392 100.537 86.7884C100.541 86.7314 100.366 86.775 100.423 86.7795C101.061 89.6396 101.852 92.7411 101.393 95.6876C100.871 98.6866 99.1526 100.847 97.4248 103.121C96.018 104.961 94.9099 106.652 94.3502 108.673C94.3636 108.502 94.3769 108.331 94.3903 108.16C94.6083 105.367 94.2512 102.586 93.5472 99.8355C92.1741 94.6239 91.0277 90.9212 92.4822 85.5288C92.9848 83.5033 93.4384 82.1048 93.1992 80.0214C93.2081 79.9074 92.9798 79.8896 93.0279 80.0081C92.901 83.8408 90.9701 87.246 91.0144 91.0922C91.1024 95.1138 93.2716 98.9537 93.8821 102.901C94.7497 108.704 90.9976 115.581 92.748 121.109C91.2798 118.585 89.9259 116.071 88.9803 113.473C86.6252 106.866 89.7933 100.116 87.1965 93.6618C85.2305 88.6907 81.1558 84.9888 77.3004 81.4187C77.3004 81.4187 77.2434 81.4142 77.296 81.4757C83.0197 86.8549 88.4973 92.4442 88.1286 100.846C88.044 101.929 87.9639 102.956 87.8883 103.925C87.9558 102.324 87.3163 100.955 86.0838 99.8265C84.7416 98.632 83.4298 97.784 82.2766 96.3749C81.3339 95.2116 80.5713 93.9476 79.7472 92.7362C79.6946 92.6747 79.576 92.7228 79.6241 92.8413C80.5794 94.5791 81.6488 96.3258 83.0303 97.7528C85.2099 99.9877 87.9922 101.123 87.8215 104.78C87.8215 104.78 87.8438 104.495 87.8527 104.381C87.6346 107.174 87.4344 109.739 88.3444 112.793C89.5693 116.96 92.0238 120.823 94.2457 124.724C90.9217 120.966 86.3015 118.369 83.7907 113.756C80.6314 107.889 80.1907 101.03 75.349 96.1209C75.2963 96.0594 75.1207 96.103 75.2259 96.226C80.1418 101.657 80.4371 108.906 84.1582 114.932C83.5268 114.195 82.816 113.738 81.8726 113.32C79.3845 112.093 78.2136 110.912 76.9078 108.516C75.5012 105.94 74.0982 104.053 71.3115 102.975C71.1974 102.966 71.1885 103.08 71.3026 103.089C74.9009 104.804 75.7583 107.796 77.8801 110.771C79.5898 113.142 82.6145 113.378 84.465 115.415C87.1871 119.527 91.7066 121.945 94.7452 125.681C96.2088 128.261 97.5013 130.828 98.2668 133.526C93.7815 127.728 86.3167 124.793 83.3695 117.681C83.3739 117.624 83.1983 117.668 83.2509 117.729C85.7809 125.038 93.7638 127.956 98.306 133.759L98.3016 133.816ZM14.912 75.2296C14.912 75.2296 15.1804 74.7344 15.3123 74.5152L15.3034 74.6293C15.3034 74.6293 14.9869 75.006 14.9165 75.1726L14.912 75.2296ZM22.2425 68.1165C23.4158 67.061 24.3216 65.7552 24.7886 64.1858C25.1718 62.9539 25.0985 61.6864 25.0822 60.4234C25.0846 58.1868 25.5827 56.2183 26.7131 54.2418C26.7131 54.2418 26.722 54.1278 26.656 54.2373C25.3634 56.0865 24.883 57.8269 24.8851 60.0065C24.8509 63.3877 24.4046 66.1631 21.9349 68.3792C20.9684 68.992 19.9448 69.6004 18.965 70.3842C17.3788 71.5795 16.2314 73.0385 15.3078 74.5723C17.0052 71.9518 19.7906 70.1045 22.4352 68.5903C29.0421 64.8619 35.1641 62.9309 39.2631 56.0244C39.3335 55.8578 39.1668 55.7874 39.0437 55.8925C34.4882 62.7635 28.3268 64.462 22.181 68.169L22.2425 68.1165ZM-5.5335 87.7999C-0.553795 90.9416 3.55152 90.5738 7.32931 88.5172C11.6406 88.4523 12.1829 94.7461 16.3526 95.7598C19.0037 96.3683 21.643 95.6566 24.2689 95.116C24.9538 95.1695 25.5022 95.499 26.2478 96.2455C26.8881 96.869 27.1949 97.3518 27.7782 97.9708C28.2036 98.4055 28.5719 98.8357 29.1248 99.1083C30.9414 100.11 33.2294 99.486 35.1045 99.0015L35.1134 98.8875C32.5401 99.4896 30.178 99.592 28.1518 97.5985C27.5641 97.0365 27.2839 96.2117 26.6347 95.7021C26.1522 95.263 25.5949 95.0474 25.0286 94.9459C26.8334 94.6279 28.6248 94.481 30.4814 94.97C30.5384 94.9745 30.5429 94.9175 30.4903 94.856C28.0237 94.09 25.5564 94.0694 22.9964 94.5005C21.2532 94.7659 19.4699 95.5443 17.7008 95.4062C12.4504 94.9964 13.3488 92.3136 11.5383 89.7634C10.609 88.4291 9.56024 87.8884 8.41886 87.7993C8.78352 87.541 9.14819 87.2827 9.51285 87.0244C14.6818 85.5352 19.319 88.6502 24.4806 85.7839C25.2448 85.5568 26.0134 85.2727 26.8302 85.107C29.2278 84.5486 30.3062 86.1813 31.9997 87.2885C33.9125 88.5275 36.3806 87.8026 38.3351 87.0375C38.5723 86.9413 38.3707 86.5814 38.195 86.625C37.1982 86.8913 35.8322 87.473 34.7523 87.3313C33.3256 87.22 32.1939 86.2713 31.1674 85.4456C30.5708 84.9976 30.2025 84.5673 29.4124 84.391C28.3414 84.1353 27.2349 84.3357 26.172 84.7115C27.3231 83.9411 28.426 83.0522 29.577 82.2817C34.0716 79.134 38.1725 78.8232 43.3783 79.8031C43.5495 79.8165 43.6859 79.5404 43.4621 79.4655C37.1942 78.116 33.2771 79.0146 28.0621 82.5649C26.4849 83.6462 24.9558 84.846 23.2251 85.6859C23.0539 85.6726 22.9309 85.7777 22.7552 85.8213C22.7552 85.8213 22.6937 85.8739 22.6893 85.9309C22.272 86.1277 21.8591 86.2675 21.3892 86.4029C18.6929 87.1101 16.525 86.1953 13.9087 85.8764C12.7673 85.7873 11.9158 85.6634 11.0464 85.7676C12.3383 84.6641 13.6391 83.4465 14.9488 82.1149C17.8142 79.2415 20.5255 76.8722 24.7101 76.2238C27.2657 75.8498 29.8731 76.2827 32.4286 75.9087C37.2543 75.1383 39.6996 71.0277 43.7761 68.8223C43.8947 68.7742 43.7939 68.5943 43.6753 68.6424C38.4745 71.2762 35.7876 75.54 29.3424 75.7251C27.0419 75.775 24.9214 75.7241 22.8135 76.2479C25.0978 74.935 26.0444 72.3706 27.807 70.3861C30.6332 67.2802 35.1972 69.1277 38.786 67.2857C38.9661 67.1851 38.8127 66.9437 38.637 66.9873C36.0281 68.0455 33.9432 67.5386 31.2735 67.9038C30.29 67.999 29.4643 68.2787 28.6735 68.8479C25.8177 70.8617 25.1156 74.707 21.8255 76.4002C21.8255 76.4002 21.8255 76.4001 21.8211 76.4571C21.2897 76.6451 20.7582 76.833 20.2179 77.1349C16.8663 78.8807 14.3959 81.8423 11.5616 84.3167C10.8233 84.9473 10.1511 85.4683 9.42172 85.9849C10.85 84.6052 11.9492 83.0278 12.7372 81.0246C13.5207 79.0784 13.7861 77.1491 14.7364 75.2732C12.7744 79.0775 11.8128 83.3039 8.63532 86.4971C4.23343 89.1932 0.102211 89.1575 -5.44529 87.4054C-5.6165 87.392 -5.68692 87.5585 -5.57723 87.6245L-5.5335 87.7999ZM55.1874 17.5215C52.7626 10.3352 46.6021 11.2881 40.7054 11.8028C40.5431 11.6754 40.363 11.7761 40.2444 11.8242C36.5474 12.1092 32.9869 12.118 30.4737 9.74238C28.3734 7.22694 26.348 4.48795 27.2537 3.18217C27.3857 2.96305 27.0611 2.7083 26.9336 2.87041C25.9359 3.88224 26.6155 4.73825 27.2069 5.98883C27.6493 6.94102 28.1577 7.78365 28.7232 8.63074C28.7232 8.63074 28.7187 8.68773 28.7713 8.74919C28.824 8.81065 28.8766 8.87212 28.9292 8.93358C29.0871 9.11796 29.1834 9.3549 29.3413 9.53928C30.507 11.5229 29.3329 13.3239 29.796 15.4822C30.1717 17.2894 31.5532 18.7164 31.5731 20.668C31.5752 22.8476 30.2336 25.3237 29.8362 27.4722C29.5048 29.511 29.5203 31.5196 29.7069 33.5415C29.7069 33.5415 29.764 33.546 29.7069 33.5415C29.5996 31.239 29.8739 29.1957 30.3239 27.1087C30.6522 28.052 31.4504 28.8599 32.1871 29.7204C34.4586 32.2492 35.316 35.2411 34.6539 38.5733C35.2047 36.6663 35.1277 34.7103 34.4712 32.8237C33.5693 30.4018 30.4498 28.4377 30.6019 25.754C30.7783 24.9648 31.0118 24.1801 31.3069 23.3428C31.765 21.8874 32.0252 20.7606 31.9126 19.2607C31.7199 18.7868 31.5799 18.3744 31.3872 17.9005C30.9099 16.6588 30.5468 15.4261 30.1837 14.1933C30.0926 13.1538 30.4581 12.15 30.424 11.115L30.4329 11.001C31.5727 12.5811 32.7741 14.1087 33.7294 15.8466C34.2681 17.0357 34.3637 18.0181 34.1598 19.8949C34.1375 20.1799 33.9396 20.5086 33.9174 20.7936C33.9077 21.6532 33.9684 22.3461 34.253 23.1139C35.6188 26.9485 38.6411 29.4212 38.3511 33.8721C38.3466 33.9292 38.4652 33.8811 38.4652 33.8811C38.7529 31.6667 38.1927 30.0171 37.4042 28.3497C39.1013 30.1454 40.8823 31.6035 43.0056 33.0884C45.673 34.9599 46.3206 36.9604 45.6764 40.0646C45.4073 41.3054 45.1426 42.4891 45.1018 43.7477C45.0974 43.8047 45.216 43.7566 45.216 43.7566C45.4429 40.8493 47.2989 37.6677 45.5633 34.8939C44.6955 33.5071 43.2035 32.7597 41.9532 31.8592C40.0974 30.6246 38.4306 29.1754 37.0144 27.4589C36.4667 26.3838 35.8619 25.3043 35.3803 24.1196C34.465 21.8687 34.8624 19.7203 34.5705 17.5755C35.88 20.6601 37.0931 23.5077 39.8612 25.5591C44.7964 29.2708 54.0817 29.4794 53.6692 37.7061C54.3566 31.1068 48.1332 29.1872 43.3372 26.6334C38.1552 23.8774 36.9428 20.2842 34.7655 15.8127C36.3218 17.9416 37.9656 20.4214 40.2699 21.0601C42.0694 21.5447 43.8964 20.9417 45.7626 20.5712C46.56 22.1246 47.9601 22.578 49.6454 23.0537C52.6782 23.9213 55.2055 25.3804 56.6995 28.3073L56.7566 28.3117C56.0822 26.6532 55.0476 25.196 53.5209 24.1591C51.4502 22.7357 47.6614 22.7268 46.4608 20.4536C47.0404 20.3841 47.5674 20.2532 48.1381 20.2978C52.379 20.3994 56.0728 23.0966 59.5213 25.2584C59.631 25.3243 59.7585 25.1622 59.6488 25.0963C55.8586 22.1622 51.3703 19.3457 46.3867 19.9316L46.2155 19.9183C46.2155 19.9183 45.7634 19.8256 45.693 19.9922C42.6194 20.3832 40.0683 20.7002 37.3446 18.0788C36.1737 16.8977 35.3496 15.6863 34.2312 14.5666C34.1304 14.3867 34.0341 14.1497 33.9333 13.9698C33.5783 13.3686 32.8987 12.5126 32.0568 11.5292C34.5359 12.8698 37.5257 12.8164 40.5905 12.5394C41.5339 12.9572 42.0334 13.9139 42.8494 14.4937C43.3934 14.8803 44.0034 15.1573 44.6178 15.3774C46.1801 15.9581 47.787 15.9689 49.4375 16.1551C47.9233 15.6927 46.2728 15.5065 44.7675 14.9302C43.3149 14.4154 42.596 13.3269 41.5784 12.3872C47.1327 11.8457 52.6522 11.0148 55.1392 17.4031C55.1392 17.4031 55.2533 17.412 55.1963 17.4075L55.1874 17.5215ZM152.208 55.9509C152.034 54.5035 150.879 54.5854 149.523 54.3075C148.504 54.1133 147.477 54.0331 146.45 53.9529C146.45 53.9529 146.336 53.944 146.279 53.9395C146.165 53.9306 146.107 53.9262 145.993 53.9173C145.765 53.8994 145.48 53.8772 145.251 53.8593C142.973 53.6242 142.211 51.6147 140.162 50.6518C138.499 49.8911 136.527 50.1386 134.952 48.9833C133.158 47.6962 131.98 45.138 130.436 43.5837C129.002 42.0953 127.37 40.9355 125.611 39.9379C125.611 39.9379 125.554 39.9334 125.611 39.9379C127.519 41.2339 129.015 42.6698 130.44 44.2722C129.487 43.9685 128.328 44.1074 127.226 44.2508C123.872 44.5625 120.909 43.5283 118.638 40.9995C118.638 40.9995 118.581 40.995 118.638 40.9995C119.892 42.5886 121.471 43.6869 123.38 44.2374C125.908 44.9509 129.343 43.6131 131.391 45.3215C131.918 45.9361 132.439 46.6077 132.961 47.2794C133.899 48.4997 134.579 49.3557 135.895 50.1466C136.343 50.2963 136.852 50.3934 137.3 50.543C138.537 50.8691 139.766 51.3091 140.995 51.7492C141.873 52.2765 142.491 53.185 143.368 53.7123L143.482 53.7213C141.524 53.7978 139.566 53.8744 137.577 53.6045C136.278 53.331 135.458 52.8081 134.063 51.5522C133.848 51.3633 133.704 51.0079 133.489 50.8191C132.839 50.3096 132.234 49.9755 131.391 49.7377C127.52 48.5752 123.717 49.4828 120.318 46.6939C120.318 46.6939 120.204 46.685 120.313 46.7509C121.914 48.3097 123.595 48.8424 125.403 49.213C122.914 49.4775 120.683 50.1063 118.267 50.8927C115.202 51.9152 113.245 51.2462 111.074 48.8974C110.227 47.971 109.438 47.0491 108.469 46.2278C108.469 46.2278 108.355 46.2189 108.464 46.2848C110.666 48.2347 112.129 51.5606 115.439 51.819C117.037 51.9437 118.53 51.2 120.006 50.6843C122.132 49.9326 124.235 49.4659 126.488 49.2976C127.677 49.5052 128.871 49.6557 130.17 49.9292C132.536 50.5153 134.076 52.1267 135.949 53.1332C132.679 52.3618 129.695 51.6126 126.344 52.6129C120.463 54.3906 114.779 61.747 108.353 56.5424C108.353 56.5424 108.296 56.5379 108.353 56.5424C113.23 60.9952 118.472 57.1028 123.36 54.7888C128.671 52.221 132.309 53.4226 137.182 54.2618C134.539 54.2849 131.567 54.1103 129.673 55.5683C128.205 56.7156 127.602 58.5611 126.836 60.2793C125.138 59.9746 123.92 60.8546 122.519 61.8923C120.014 63.8189 117.397 64.991 114.109 64.4476L114.104 64.5046C115.851 64.9278 117.629 64.9518 119.342 64.3399C121.701 63.549 124.009 60.4601 126.506 60.8271C126.238 61.3223 125.97 61.8176 125.649 62.2513C123.033 65.6031 118.676 66.9836 114.886 68.4657C114.768 68.5138 114.868 68.6937 114.987 68.6456C119.624 67.3443 124.486 65.3724 127.011 60.9812L127.024 60.8102C127.367 60.8369 127.446 60.5563 127.35 60.3194C128.88 57.6285 130.09 55.3715 133.814 54.7445C135.443 54.4702 136.927 54.586 138.499 54.3072C138.727 54.3251 138.955 54.3429 139.184 54.3607C139.868 54.4142 140.962 54.3848 142.288 54.3162C139.722 55.5498 137.981 57.9948 136.402 60.5672C135.502 61.0704 134.422 60.9288 133.478 61.2565C132.832 61.4356 132.23 61.7901 131.686 62.149C130.293 63.0727 129.33 64.374 128.205 65.5479C129.431 64.5539 130.613 63.3844 131.944 62.5133C133.218 61.6378 134.535 61.6832 135.875 61.4436C133.029 66.2686 130.407 71.1684 123.833 69.3361C123.833 69.3361 123.771 69.3886 123.824 69.4501C131.052 71.7349 133.894 66.2214 136.986 61.1863C137.166 61.0856 137.232 60.976 137.245 60.805C139.211 57.6893 141.273 54.8106 144.711 54.1613C147.943 53.9547 151.389 53.937 151.958 55.4726C152.054 55.7095 152.463 55.6267 152.424 55.3942L152.208 55.9509ZM5.46879 32.9113C5.13972 32.7136 4.8714 33.2088 5.1434 33.4021C7.38979 34.7819 8.80838 34.2617 11.2579 34.5103C17.8601 35.255 20.8846 39.9073 25.2706 44.035C28.9547 47.5917 33.1132 50.9561 38.5141 50.1732C38.6282 50.1821 38.5889 49.9497 38.5274 50.0022C31.1247 50.6861 26.0606 44.2114 21.1003 39.3506C22.083 40.0009 23.0658 40.6511 24.1234 41.0778C26.1771 41.9837 28.4688 42.0479 30.4521 43.1203C33.2558 44.7157 34.9959 47.4324 38.3541 47.8092C38.5253 47.8226 38.5431 47.5946 38.3719 47.5812C34.7818 46.498 32.7741 43.531 29.439 42.1236C28.2146 41.6266 26.902 41.5241 25.6643 41.1981C23.698 40.6431 21.9911 39.7069 20.2932 38.6567C19.8633 38.2791 19.4906 37.9058 19.0607 37.5282C17.6088 36.2678 16.0999 35.0029 14.2522 34.3999C11.3951 33.4886 8.09241 34.6073 5.3502 32.9594L5.46879 32.9113ZM-0.992144 52.4233C-1.69844 51.9093 -2.48562 53.167 -1.71335 53.5714C0.21732 54.5824 2.15322 54.7909 4.07656 54.4248C4.87107 54.5442 5.61742 54.5451 6.41639 54.6075C8.65833 56.0443 10.8217 57.0161 12.1757 59.5306C12.7234 60.6057 12.9768 61.7726 13.7661 62.6945C15.0771 64.288 17.1227 64.5624 19.0112 63.9068C19.0683 63.9113 19.0201 63.7928 19.0201 63.7928C15.9154 64.5828 14.1745 62.6116 13.0577 60.0009C12.6679 59.1102 12.3307 58.2809 11.7608 57.4909C10.7699 56.2091 9.30469 55.1197 7.73345 54.6529C7.73345 54.6529 7.84758 54.6618 7.90465 54.6663C10.0733 54.8356 11.8461 55.6622 13.7812 56.6162C15.3828 57.4295 16.708 58.1064 18.3378 57.0866C15.6933 58.6008 12.8867 55.5714 10.3631 54.8008C8.62508 54.2637 6.77661 54.4062 4.95485 54.2066C5.66193 53.975 6.37346 53.6865 7.09389 53.2839C9.01355 52.2293 10.4337 50.2181 12.4015 49.282C16.2186 47.4579 20.1763 49.7168 23.2868 51.7949C20.7292 49.9894 17.838 48.0431 14.5406 48.3592C8.70094 48.8784 5.71589 56.9616 -0.935063 52.4277L-0.992144 52.4233ZM144.232 83.833C142.236 82.9315 140.295 82.7801 138.411 83.3786C137.612 83.3162 136.87 83.2583 136.12 83.3144C133.807 82.0442 131.582 81.1249 130.101 78.7725C129.492 77.7499 129.181 76.5786 128.33 75.7093C126.896 74.2208 124.899 74.0649 123.063 74.7819C123.006 74.7775 123.054 74.8959 123.054 74.8959C126.058 73.926 127.979 75.7966 129.219 78.3022C129.609 79.1929 130.007 79.9696 130.696 80.7116C131.748 81.9408 133.28 82.9206 134.855 83.3304L134.684 83.317C132.506 83.2618 130.668 82.5447 128.724 81.7047C127.118 80.9485 125.669 80.3766 124.145 81.5194C126.689 79.8253 129.675 82.754 132.269 83.358C134.073 83.7855 135.874 83.5246 137.7 83.6671C136.988 83.9557 136.272 84.3013 135.609 84.7084C133.737 85.8814 132.427 87.9585 130.512 88.9561C126.795 90.9601 122.758 88.9818 119.52 87.0658C122.144 88.7618 125.167 90.4889 128.421 89.9973C134.23 89.1316 136.71 80.8943 143.678 85.0514C144.446 85.5129 145.119 84.2463 144.342 83.8989L144.232 83.833ZM104.862 23.2917C104.862 23.2917 104.564 22.6949 104.477 22.344C104.564 22.6949 104.656 22.9889 104.743 23.3398C104.739 23.3968 104.915 23.3532 104.857 23.3487L104.862 23.2917ZM104.477 22.344C104.345 21.8176 104.219 21.2341 104.149 20.6552C104.219 21.2341 104.293 21.7561 104.477 22.344ZM111.344 33.6625C112.874 28.0465 111.913 22.6951 108.428 18.0641C106.867 15.9923 104.999 14.1832 103.192 12.3216C100.166 9.16034 98.4347 6.3296 96.4982 2.45048C96.3856 0.950504 96.2819 -0.66349 96.3406 -2.1501C96.477 -2.42622 96.6089 -2.64533 96.7453 -2.92145C96.8772 -3.14057 96.6052 -3.33386 96.4296 -3.29021C96.629 -5.10995 97.2057 -6.61349 98.4138 -7.37948C98.8356 -7.63333 98.3665 -8.24347 98.0018 -7.98517C96.0073 -6.70703 96.0405 -4.92648 95.9811 -2.69434C95.5898 -2.094 95.251 -1.4322 94.9167 -0.827411C94.807 -0.893327 94.6929 -0.902236 94.6314 -0.849685C92.4018 2.70424 89.5415 4.77511 85.3917 5.71296C83.4024 6.18857 81.2731 6.25176 79.4238 7.13978C76.4458 8.51321 74.3445 11.1595 73.5246 14.3073C74.7358 10.5592 77.6932 7.9797 81.3864 7.00621C83.4373 6.47806 85.4525 6.40594 87.4596 5.70231C89.4667 4.99868 91.3863 3.94411 92.8761 2.51186C91.5701 4.53199 90.1018 6.42474 87.9931 7.69397C84.975 9.58046 81.6331 10.4667 78.8647 12.8315C78.8647 12.8315 78.8558 12.9455 78.9173 12.8929C82.2171 10.3402 86.5114 9.75774 89.8068 7.26201C92.5529 5.18223 94.2644 1.64522 95.8877 -1.49721C95.8372 0.620923 95.8482 2.6865 95.8066 4.69062C94.7577 8.56613 92.7741 11.9098 90.1191 15.0291C87.4026 18.2009 84.1097 18.46 80.6528 20.0829C76.9017 21.7974 74.4098 24.2985 71.86 27.5407C71.7985 27.5932 71.9038 27.7162 71.9653 27.6636C76.0886 22.6516 78.908 21.8393 84.8196 19.6625C86.7126 18.95 88.0786 18.3684 89.5684 16.9361C91.9943 14.5446 94.1838 11.5037 95.5833 8.28645L95.6619 8.75141C95.3289 12.2813 94.4297 15.7097 92.0904 19.1977C89.6192 22.9048 85.8192 25.2465 83.1375 28.7077L83.1464 28.5937C83.1464 28.5937 82.9359 28.3479 82.8655 28.5145C80.8767 32.6607 76.1162 34.0671 73.6842 38.0067C72.0395 40.6886 71.1055 43.8275 70.9793 46.9147C70.9704 47.0287 71.1416 47.0421 71.1505 46.9281C72.1261 41.7851 73.3559 37.0634 77.9602 33.9816C79.1728 33.1586 80.3105 32.5592 81.2377 31.7139C79.5351 35.1369 78.7278 38.8592 78.3726 42.6741C78.3726 42.6741 78.3726 42.6741 78.4297 42.6786C79.5959 35.8299 81.621 30.482 86.5522 25.4184C89.11 22.8077 91.5886 20.4777 93.3876 17.2916C94.5883 15.1485 95.4423 13.0358 95.9627 10.7823C96.4732 13.8045 97.0934 16.8926 97.0287 19.9273C96.9604 22.2735 96.3437 24.29 95.3934 26.1659C93.4374 28.422 89.5988 29.7856 87.6473 31.9848C85.6253 34.3505 84.4986 37.0155 84.1441 40.0849L84.2012 40.0894C85.2028 35.3499 87.8237 31.1956 92.0892 28.7756C93.1128 28.1673 94.123 27.73 94.9227 27.0468C93.7924 29.0233 92.4382 30.9249 91.1277 33.0021C89.0212 36.4509 87.6217 39.6681 88.9215 43.6123C88.917 43.6693 89.0356 43.6212 89.0356 43.6212C87.3499 35.0587 94.8307 31.169 97.0641 23.8874C97.3681 22.9362 97.5008 21.9715 97.5764 21.0024C99.0911 25.1354 102.662 27.9377 101.506 33.1813C100.456 37.8023 95.9538 40.3185 95.3473 45.1462C95.3428 45.2032 95.457 45.2121 95.4614 45.1551C96.4593 39.7271 102.262 36.7389 102.417 31.073C102.567 26.2097 98.4783 23.4243 97.7366 18.9502C97.6389 15.7881 96.9224 12.4631 96.2362 9.48449C96.4216 8.5813 96.4972 7.6122 96.5729 6.6431C96.604 6.24406 96.6396 5.78801 96.6181 5.32751C96.6359 5.09948 96.7063 4.93291 96.7812 4.70935C97.9765 7.78503 100.586 10.3976 102.875 12.6983C104.415 14.3097 105.901 15.8596 107.151 17.5056C107.017 19.2158 106.098 20.6926 105.908 22.3983C105.868 22.9114 105.832 23.3674 105.854 23.8279C105.92 22.9728 105.987 22.1178 106.163 21.3286C106.494 20.0353 107.158 18.8827 107.265 17.5145C110.759 22.0315 112.84 27.0115 111.296 33.544C111.287 33.658 111.401 33.6669 111.41 33.5529L111.344 33.6625ZM69.9512 123.344C69.4308 125.597 70.6892 127.129 72.3034 128.517C74.8915 130.669 77.2912 132.29 78.3769 135.3C78.502 137.375 78.1047 139.523 77.0706 141.736C76.173 143.674 75.1968 145.146 74.861 147.242C74.8298 147.641 75.4005 147.686 75.4317 147.287C76.05 143.779 78.0416 141.067 78.6903 137.906C78.6903 137.906 78.8044 137.914 78.8133 137.8C79.5361 135.161 81.9693 134.147 83.3458 131.96C84.3924 130.321 84.2584 128.361 84.1154 126.514C84.1198 126.457 84.0013 126.505 84.0013 126.505C84.0827 128.404 84.1552 130.417 82.9374 132.043C82.2955 132.91 81.329 133.523 80.5248 134.263C79.9712 134.736 79.4701 135.271 79.1358 135.876C79.1188 135.358 78.9832 134.889 78.8431 134.476C78.8654 134.191 78.7735 133.897 78.7387 133.608C78.7476 133.494 78.6949 133.432 78.6468 133.314C78.7038 133.318 78.818 133.327 78.8269 133.213C78.6418 129.7 81.107 127.541 80.2896 124.036C79.6865 121.465 78.6 119.201 77.1623 117.024C78.7794 119.846 80.97 124.147 80.0227 127.456C79.4015 129.53 78.3334 130.708 78.5682 132.849C77.0506 127.282 72.5416 123.259 73.1452 116.998L73.0881 116.993C72.4424 121.588 74.6079 124.74 76.5354 128.733C77.232 130.106 77.7004 131.462 77.9975 132.804C75.4414 129.508 69.8895 127.813 70.0698 123.296C70.0787 123.182 69.9646 123.173 69.8986 123.282L69.9512 123.344ZM59.3148 138.974C58.4779 141.604 56.2936 143.843 54.6318 146.007C54.5043 146.169 54.7237 146.301 54.8467 146.196C56.6441 144.501 58.2881 142.564 59.3221 140.351C59.3792 140.355 59.4933 140.364 59.4978 140.307C60.0279 137.194 62.602 135.847 63.9525 133.257C64.7619 131.714 64.8295 130.113 64.4449 128.42C64.4538 128.306 64.2737 128.407 64.2737 128.407C64.968 132.017 62.9289 133.865 60.8365 136.397C60.586 136.664 60.3881 136.993 60.1946 137.265C60.9464 132.047 59.1241 128.177 63.3741 123.748C63.3741 123.748 63.383 123.634 63.3215 123.687C61.5108 125.553 60.2003 127.63 59.7673 130.234C59.3121 133.124 60.1739 136.059 59.2622 138.913L59.3148 138.974ZM12.7511 113.946C12.7511 113.946 12.7289 114.232 12.9045 114.188C14.3276 113.611 15.6232 113.196 16.8268 112.487C16.8268 112.487 16.8839 112.491 16.941 112.496C19.1845 112.441 21.6659 111.545 23.2832 109.951C24.3424 108.887 25.0814 107.51 26.1406 106.446C27.5778 104.952 29.361 104.174 31.3066 103.523C31.3637 103.527 31.3155 103.409 31.3155 103.409C28.9445 103.625 26.8358 104.894 25.2623 106.664C24.0052 108.057 23.1254 109.767 21.3903 110.663C20.3141 111.21 19.1504 111.406 17.9823 111.659C18.4745 111.239 18.9756 110.704 19.3714 110.047C21.7151 106.502 22.8159 103.434 26.8746 101.456C26.9931 101.408 26.8923 101.228 26.7738 101.276C24.064 102.154 22.1525 103.841 20.7583 106.255C19.7598 108.013 19.0156 110.191 17.359 111.553C15.9485 112.705 14.0956 112.904 12.637 113.938L12.7511 113.946ZM67.7319 24.5228C67.506 22.2684 67.5698 19.9793 68.0902 17.7258C68.2711 16.8796 68.6847 15.9942 68.7515 15.1391C68.8939 13.3149 67.7014 11.6733 67.2553 10.0326C67.5592 9.08131 67.7535 8.06411 67.7765 7.03355C67.7233 3.30143 65.9706 0.0101888 64.0289 -3.0664C66.8178 0.191021 72.0318 1.80244 72.2768 6.75396C72.2679 6.86797 72.4392 6.88133 72.4481 6.76732C72.6477 0.531395 64.3735 -0.860081 62.6713 -6.26946C62.6276 -6.44493 62.3949 -6.40574 62.3815 -6.23473C62.5038 -5.59429 62.7491 -5.05896 62.9944 -4.52363C62.775 -4.65546 62.4103 -4.39716 62.6208 -4.15132C63.7473 -2.40014 64.8649 -0.534954 65.7497 1.36942C65.7215 3.20252 65.9741 5.1149 65.6034 6.92128C65.1356 9.23625 63.7118 10.5589 62.2524 12.3377C60.85 14.1209 60.1236 16.0715 59.7788 18.2814C60.1725 15.4445 61.3207 13.24 63.316 11.2163C64.0631 10.4717 64.8584 9.8455 65.3336 8.90758C66.3498 6.92218 66.1461 4.38273 65.9772 2.13277C66.2136 2.78211 66.45 3.43145 66.6293 4.07634C67.692 8.11666 66.1917 11.154 64.5988 14.6429C63.4988 16.9659 63.1237 18.8293 64.2583 21.212L64.3153 21.2164C63.1252 17.3382 65.732 14.1005 67.0441 10.5323C67.1226 10.9972 67.2582 11.4667 67.4509 11.9405C68.103 13.8841 68.3431 15.222 67.7834 17.243C67.1311 19.7156 67.0583 22.1188 67.4903 24.676C67.4814 24.79 67.6615 24.6894 67.6615 24.6894L67.7319 24.5228ZM109.19 103.924C109.615 104.359 110.102 104.741 110.541 105.005C110.05 104.68 109.615 104.359 109.19 103.924ZM107.607 102.137C108.072 102.805 108.655 103.424 109.19 103.924C108.655 103.424 108.186 102.813 107.673 102.028C107.677 101.971 107.502 102.014 107.554 102.076L107.607 102.137ZM131.479 108.933C131.479 108.933 131.707 108.951 131.777 108.784L131.883 108.907C133.475 110.58 134.505 111.349 136.766 111.812C137.223 111.848 137.443 111.234 136.991 111.141C132.518 110.333 129.61 103.453 125.595 101.19C120.589 98.3904 114.18 97.374 112.444 90.9296C112.448 90.8726 112.329 90.9207 112.329 90.9207C113.431 95.1935 116.66 97.2235 120.478 99.07C123.023 100.301 125.419 101.234 127.569 103.122C129.288 104.633 130.102 106.704 131.523 108.363C129.141 106.514 126.469 105.445 123.435 105.323C123.435 105.323 123.439 105.266 123.382 105.261C120.275 104.617 118.754 102.033 116.491 100.135C114.982 98.8704 113.336 97.8817 111.559 97.1121C114.486 98.6023 116.688 100.552 118.916 102.905C119.977 104.021 121.051 104.965 122.513 105.366C118.202 105.431 114.218 107.184 110.769 105.023C112.134 105.932 113.696 106.513 115.536 106.484C117.661 106.478 119.677 105.66 121.806 105.597C125.551 105.431 128.662 106.763 131.707 108.951L131.479 108.933ZM117.361 119.875L117.343 120.103C117.343 120.103 117.563 120.235 117.572 120.121C120.493 122.414 121.408 125.41 121.685 129.217C121.667 129.445 122.066 129.477 122.084 129.249C122.435 125.491 121.626 122.617 118.656 120.206C118.331 119.951 118.007 119.696 117.678 119.499C118.043 114.824 112.807 112.752 110.541 109.421C110.541 109.421 110.427 109.412 110.484 109.416C111.558 111.106 113.08 112.2 114.523 113.574C116.286 115.261 116.837 117.024 117.243 119.178C115.655 118.194 113.878 117.424 112.29 116.44C108.889 114.396 107.022 111.842 105.761 108.13C105.77 108.016 105.59 108.117 105.59 108.117C105.907 111.411 107.731 113.79 110.341 115.657C112.355 117.076 114.694 118.004 116.712 119.366C116.931 119.498 117.146 119.687 117.361 119.875ZM123.843 33.8925C124.825 31.6177 126.529 31.1198 125.702 28.4743C125.102 26.5922 123.796 24.9417 123.429 23.0204C124.524 20.7544 125.993 18.8617 128.597 17.8606C128.953 17.7163 128.646 17.2335 128.409 17.3297C126.082 17.7216 124.601 19.0398 123.488 20.7883C123.497 20.6743 123.501 20.6172 123.51 20.5032C123.524 20.3322 123.357 20.2618 123.291 20.3714C122.847 20.9103 122.745 21.4759 122.758 22.0504C122.34 22.9928 121.922 23.9351 121.609 25.0004C120.233 26.4416 118.196 26.7987 116.347 27.6867C114.792 28.483 113.667 29.657 112.857 31.1997C112.857 31.1997 112.853 31.2567 112.857 31.1997C114.274 28.4999 116.623 27.823 119.289 26.7694C120.058 26.4852 120.721 26.0782 121.332 25.6097C120.275 28.8537 119.266 32.2161 117.042 34.222C111.431 39.1752 103.987 36.7015 102.262 45.5712C102.262 45.5712 102.314 45.6327 102.319 45.5757C104.445 35.9916 112.857 39.2865 118.039 33.9557C118.729 33.2066 119.31 32.3916 119.837 31.5151C119.652 32.4183 119.528 33.269 119.224 34.2202C118.431 37.026 116.616 38.949 114.055 40.1256C111.736 41.149 109.378 41.1944 107.989 43.5521C107.984 43.6091 108.037 43.6706 108.103 43.561C110.463 40.5335 115.13 41.0698 117.719 38.0601C119.798 35.6988 119.674 32.8788 120.524 30.0775C121.492 27.9737 122.188 25.6765 123.094 23.6252C123.235 24.0376 123.427 24.5115 123.624 24.9283C124.159 26.1745 125.579 27.8339 125.639 29.2724C125.681 30.9389 124.301 32.4371 123.668 33.9362C123.663 33.9932 123.72 33.9976 123.782 33.9451L123.843 33.8925ZM142.247 97.5001C140.338 96.9496 138.454 96.8026 136.531 97.1687C132.803 97.8527 129.777 99.1076 126.769 95.7184C128.08 97.3119 129.835 98.3665 131.959 98.3604C133.281 98.3488 134.41 97.8634 135.696 97.5623C137.976 97.052 140.034 97.1554 142.229 97.7281C142.4 97.7415 142.475 97.5179 142.247 97.5001ZM149.034 67.9194C149.034 67.9194 148.89 67.564 148.767 67.6692C147.409 68.8823 145.911 69.683 144.014 69.707C142.926 69.6794 141.912 69.4282 140.819 69.4576C139.44 69.4647 138.263 69.8316 137.375 70.9094C139.507 68.6096 142.582 70.3982 145.191 70.0856C146.701 69.8594 148.019 69.1593 148.973 67.972L149.034 67.9194ZM137.952 31.1512C140.228 29.9523 141.968 28.2529 143.45 26.1891C143.516 26.0795 143.353 25.9522 143.287 26.0617C140.043 30.11 136.442 31.3774 131.681 32.7838C128.923 33.5435 128.215 35.2661 127.948 37.9409C128.837 32.447 134.117 33.2033 137.895 31.1467L137.952 31.1512ZM106.553 123.735C107.785 124.863 109.141 125.887 110.25 127.12C111.987 129.149 112.397 131.245 112.482 133.833C112.456 134.175 113.026 134.219 113.053 133.877C113.979 125.691 103.536 124.13 102.499 116.823C102.508 116.709 102.332 116.752 102.328 116.809C102.619 119.7 104.403 121.846 106.553 123.735ZM-12.5487 74.6919C-14.0058 74.2341 -15.0286 74.0969 -16.5524 74.4941C-16.7852 74.5333 -16.7592 74.9368 -16.5265 74.8976C-11.9076 74.5699 -8.35015 77.5432 -3.55923 76.4834C-3.26499 76.3916 -2.97073 76.2999 -2.67649 76.2082C0.809181 76.4229 4.70768 76.4978 7.9703 75.8922C11.3515 75.2384 11.6667 71.9365 13.8991 69.8167C13.8991 69.8167 13.9036 69.7597 13.8991 69.8167C12.9193 70.6005 12.4004 71.3629 11.7452 72.4015C10.3732 74.5312 8.97608 75.5118 6.38572 75.5964C3.90949 75.6899 1.38954 75.6079 -1.14375 75.6969C2.60735 73.9823 5.50397 70.7099 9.49592 69.5877C4.73615 70.2485 1.59269 74.4767 -3.04037 75.7209C-3.21603 75.7646 -3.39169 75.8082 -3.56734 75.8519C-3.68148 75.8429 -3.79563 75.834 -3.90977 75.8251C-3.96684 75.8207 -4.02391 75.8162 -4.03281 75.9302C-7.0627 76.4967 -9.52925 75.7306 -12.5576 74.806L-12.5487 74.6919ZM-10.3736 64.4808C-10.3736 64.4808 -10.6152 64.634 -10.4485 64.7044C-7.64475 66.2997 -4.37034 67.0141 -1.57607 65.0528C0.370291 63.6562 1.2813 61.5479 4.20072 61.6611C6.54946 61.7297 7.59662 63.7614 9.28122 64.9826C10.5841 65.9446 11.1896 66.2787 12.8054 66.1754C12.8624 66.1798 12.8713 66.0658 12.8143 66.0614C8.68749 65.9687 7.34109 60.415 2.90149 61.3876C1.43916 61.7323 0.735736 62.6524 -0.419776 63.4798C-3.89966 66.1332 -6.64342 65.9764 -10.3165 64.4852L-10.3736 64.4808ZM10.9297 16.6478C10.9297 16.6478 10.6399 16.6825 10.7452 16.8054C13.2049 19.8651 16.1977 21.2457 17.4182 25.4705C18.1006 27.7605 18.2303 29.778 19.3826 31.9327C21.5956 35.9481 25.2412 38.5268 29.5643 39.7819C24.0079 38.1438 20.6751 34.4998 18.8143 29.6515C19.3449 30.2091 20.012 30.4906 20.9206 30.6189C22.5667 30.8621 23.8445 30.6751 25.3142 31.7074C26.5689 32.551 27.4145 34.2229 27.7643 35.6267C27.3841 33.8764 26.3058 32.2437 24.8406 31.1543C22.9366 29.8013 19.84 31.2228 18.5253 28.9407C18.1533 27.822 17.8428 26.6507 17.5938 25.4268C16.6024 20.4744 14.0913 20.2784 10.8727 16.6433L10.9297 16.6478ZM19.6178 12.7377C19.6178 12.7377 19.5037 12.7287 19.5563 12.7902C22.1917 15.8062 25.0376 19.0681 25.5162 23.2349C25.5117 23.2919 25.6303 23.2438 25.6303 23.2438C25.3363 18.9194 22.543 15.719 19.6178 12.7377ZM18.2735 9.36358L18.0986 8.6617L18.2735 9.36358ZM55.619 11.992C52.098 7.81708 54.8338 2.92619 54.628 -1.79285L54.6369 -1.90687C54.6369 -1.90687 54.6369 -1.90687 54.6414 -1.96387C54.6503 -2.07788 54.6592 -2.19189 54.6725 -2.36291C54.3466 -5.54279 52.7125 -8.88213 51.4423 -11.7342C51.3459 -11.9712 50.9286 -11.7743 50.9723 -11.5989C51.8698 -9.11998 53.1711 -6.66691 53.8929 -4.14437C54.1597 -3.14854 54.2552 -2.16608 54.2366 -1.19252C52.8016 2.48078 46.429 4.67895 48.2461 9.35171C48.2461 9.35171 48.3602 9.36062 48.3031 9.35616C46.4949 4.5694 52.428 2.8531 54.1832 -0.508444C54.0809 0.802694 53.9215 2.10938 53.705 3.41161C53.2846 6.59058 53.2244 9.56826 55.4389 12.0926C55.5441 12.2155 55.6672 12.1104 55.5664 11.9305L55.619 11.992Z" fill="url(#paint1_radial_102_226)"/>
</g>
<defs>
<radialGradient id="paint0_radial_102_226" cx="0" cy="0" r="1" gradientUnits="userSpaceOnUse" gradientTransform="translate(63.0265 50.0363) rotate(-161.232) scale(84.7708 84.6884)">
<stop stop-color="white"/>
<stop offset="0.41" stop-color="#A7A39E"/>
<stop offset="0.82" stop-color="#574F45"/>
<stop offset="1" stop-color="#382F23"/>
</radialGradient>
<radialGradient id="paint1_radial_102_226" cx="0" cy="0" r="1" gradientUnits="userSpaceOnUse" gradientTransform="translate(68.2972 68.6629) rotate(17.1598) scale(80.708 80.6273)">
<stop offset="0.47" stop-color="#FF0000"/>
<stop offset="1" stop-color="#FF8879"/>
</radialGradient>
</defs>
</svg>
