<svg width="172" height="173" viewBox="0 0 172 173" fill="none" xmlns="http://www.w3.org/2000/svg">
<path style="mix-blend-mode:multiply" d="M164.973 82.6551C167.179 126.473 133.374 163.81 89.5087 166.006C45.6429 168.203 8.25972 134.429 6.05323 90.6105C3.84675 46.7924 37.6515 9.45586 81.5172 7.25932C125.383 5.06278 162.766 38.8369 164.973 82.6551Z" fill="url(#paint0_radial_221_14)"/>
<path d="M156.421 76.5051C160.224 43.1524 136.239 13.0302 102.85 9.22525C69.4597 5.4203 39.3087 29.3735 35.5053 62.7262C31.7019 96.0789 55.6865 126.201 89.0763 130.006C122.466 133.811 152.617 109.858 156.421 76.5051Z" fill="url(#paint1_radial_221_14)"/>
<defs>
<radialGradient id="paint0_radial_221_14" cx="0" cy="0" r="1" gradientUnits="userSpaceOnUse" gradientTransform="translate(85.5423 86.6023) rotate(-2.8686) scale(79.566 79.4808)">
<stop offset="0.59" stop-color="#8F5F33"/>
<stop offset="0.6" stop-color="#926339"/>
<stop offset="0.65" stop-color="#AE8C6D"/>
<stop offset="0.71" stop-color="#C7AF99"/>
<stop offset="0.77" stop-color="#DBCCBE"/>
<stop offset="0.83" stop-color="#EBE2DA"/>
<stop offset="0.89" stop-color="#F6F2EE"/>
<stop offset="0.94" stop-color="#FCFBFA"/>
<stop offset="1" stop-color="white"/>
</radialGradient>
<radialGradient id="paint1_radial_221_14" cx="0" cy="0" r="1" gradientUnits="userSpaceOnUse" gradientTransform="translate(98.5089 62.0943) rotate(-161.232) scale(66.5116 66.447)">
<stop offset="0.25" stop-color="white"/>
<stop offset="0.46" stop-color="#FCFCFC"/>
<stop offset="0.61" stop-color="#F4F3F2"/>
<stop offset="0.74" stop-color="#E5E4E2"/>
<stop offset="0.86" stop-color="#D2CFCC"/>
<stop offset="0.97" stop-color="#B8B4AF"/>
</radialGradient>
</defs>
</svg>
