<svg width="54" height="54" viewBox="0 0 54 54" fill="none" xmlns="http://www.w3.org/2000/svg">
<g style="mix-blend-mode:multiply">
<path d="M23.6471 51.0249C10.2102 49.1737 0.731605 36.8368 2.58815 23.3425C4.43904 9.92063 16.7878 0.454519 30.2973 2.31136C43.7341 4.16253 53.2127 16.4994 51.3562 29.9938C49.5053 43.4156 37.1565 52.8817 23.6471 51.0249Z" fill="black"/>
</g>
<path style="mix-blend-mode:screen" d="M40.3919 25.6716C39.5527 30.5385 34.9351 33.7913 30.0672 32.8951C25.1948 32.056 21.9376 27.4429 22.8339 22.5805C23.6732 17.7136 28.2908 14.4608 33.1587 15.3569C38.031 16.1961 41.2882 20.8092 40.3919 25.6716Z" fill="url(#paint0_linear_221_15)"/>
<g style="mix-blend-mode:screen">
<path d="M18.825 31.2722C17.3457 31.0993 16.3066 29.6991 16.4794 28.2214C16.6521 26.7437 18.0537 25.706 19.5331 25.8789C21.0124 26.0517 22.0515 27.4519 21.8787 28.9296C21.7059 30.4073 20.3044 31.445 18.825 31.2722Z" fill="white"/>
</g>
<defs>
<linearGradient id="paint0_linear_221_15" x1="28.1549" y1="8.05562" x2="33.525" y2="33.7286" gradientUnits="userSpaceOnUse">
<stop stop-color="#BFBFBF"/>
<stop offset="1"/>
</linearGradient>
</defs>
</svg>
