<svg width="135" height="135" viewBox="0 0 135 135" fill="none" xmlns="http://www.w3.org/2000/svg">
<path d="M62.5913 129.908C97.1537 132.606 127.357 106.806 130.052 72.2815C132.747 37.7573 106.913 7.58285 72.3504 4.88496C37.7879 2.18707 7.58488 27.9874 4.88998 62.5116C2.19507 97.0358 28.0288 127.21 62.5913 129.908Z" fill="white" style="mix-blend-mode:multiply"/>
<path style="mix-blend-mode:multiply" d="M62.5913 129.908C97.1537 132.606 127.357 106.806 130.052 72.2815C132.747 37.7573 106.913 7.58285 72.3504 4.88496C37.7879 2.18707 7.58488 27.9874 4.88998 62.5116C2.19507 97.0358 28.0288 127.21 62.5913 129.908Z" fill="url(#paint0_radial_286_732)"/>
<path style="mix-blend-mode:screen" d="M118.983 40.677C86.4499 51.9941 81.8811 53.5881 119.957 44.5871C82.1931 55.6304 87.0739 56.0787 121.711 55.7555C87.0834 56.8193 82.2121 57.1117 121.439 60.1065C82.4111 58.8761 87.4196 60.2761 120.55 68.0416C87.3161 60.7388 82.1425 59.7296 118.861 73.2909C81.1106 61.7343 85.3193 64.7534 114.753 82.7908C85.0046 65.3342 80.476 62.9628 111.432 87.3747C79.6249 64.3761 83.292 68.2947 107.477 92.3126C82.993 68.6749 78.9651 65.0646 101.783 97.1148C76.858 66.1781 78.7892 70.7683 94.3219 102.115C78.2172 71.1945 75.6523 66.9584 87.0949 104.982C74.1172 67.6458 75.0801 72.564 82.6034 106.447C74.5959 72.728 73.1541 67.9069 73.5607 107.558C70.9558 67.6008 70.1993 72.1157 66.6867 107.626C69.4579 72.1251 69.4729 67.6196 57.4667 105.83C67.8665 67.4942 66.3173 71.8127 54.6921 105.143C65.854 71.7093 66.9399 67.2873 46.1798 101.183C65.4735 66.2312 62.8543 69.5917 42.1814 98.9198C62.2059 69.2721 64.1819 65.525 34.4959 92.1315C62.8389 64.613 59.52 67.4481 32.8036 90.5196C59.2063 67.1545 62.1497 63.9538 27.5903 83.1171C61.3892 62.4818 57.6235 64.1386 25.6833 79.9414C57.2689 63.5055 60.6851 61.1488 22.0895 69.9075C59.8012 59.5328 55.568 60.2786 21.1969 66.6763C55.4089 59.728 59.5396 58.5706 20.4689 58.7495C59.5979 56.9608 55.5203 56.5753 20.37 54.8405C55.5777 55.8399 59.7127 55.49 21.9247 45.2757C59.7919 53.6127 55.7361 52.0854 23.0054 40.9206C55.8396 51.6226 59.9936 52.7541 25.39 35.3892C60.7621 51.536 57.3713 49.2534 27.4642 31.2462C57.8251 48.6162 61.5975 50.3232 32.2801 24.7611C62.5981 48.7197 59.8262 45.4091 36.3319 20.3016C60.187 45.101 63.2526 48.0981 39.7794 17.5438C64.5148 47.4567 62.7113 43.8182 44.8499 13.8365C63.345 43.4641 65.7822 46.7485 50.7279 10.9993C67.4669 45.871 66.7143 41.7091 58.0783 8.27713C67.1933 41.612 68.43 45.6099 61.2867 7.72039C69.9025 45.7248 70.2773 41.7855 69.5828 6.68636C70.9466 41.8377 71.375 45.8398 74.2115 6.91313C73.1256 45.8419 74.5097 41.914 82.943 8.06556C74.906 42.0122 73.9801 46.1104 84.9092 8.75715C75.2665 46.8834 77.4737 43.6252 94.0039 12.1577C78.0552 43.9397 76.4243 47.5792 96.8958 13.9305C77.922 48.2342 81.0401 45.3834 104.428 19.227C81.3487 45.7439 78.606 48.9603 106.172 21.0447C79.7169 50.2577 83.5755 48.2719 113.207 29.262C83.9301 48.905 80.4313 51.457 114.975 32.4942C81.5369 52.8213 86.2752 51.6441 118.905 40.8055L118.983 40.677Z" fill="url(#paint1_radial_286_732)"/>
<path style="mix-blend-mode:screen" opacity="0.3" d="M103.249 118.888C100.043 112.517 97.3553 107.262 95.3311 103.001C97.7161 106.954 100.687 112.029 104.182 118.154L104.249 118.159C98.7035 108.108 94.7462 101.005 92.3255 96.6456C87.2297 85.1492 91.9669 90.0257 109.722 113.609L109.938 113.424C86.0879 79.0735 88.0731 81.2464 111.541 111.868L111.685 111.744C96.147 90.8229 90.7129 82.7978 97.956 89.2152C100.471 92.3711 106.148 99.0026 114.546 108.739C107.892 100.82 102.965 94.9201 100.091 91.198C103.604 94.4991 108.856 99.6848 115.959 107.033C106.752 97.3009 100.894 91.2607 98.1368 88.6239C94.3429 82.8793 100.533 87.2638 119.053 102.768L119.28 102.449C90.6576 76.6051 92.901 78.0582 120.275 100.913L120.43 100.656C96.2102 79.6618 92.7082 75.3526 116.508 88.7799C118.819 90.2383 121.381 91.9181 124.201 93.7526L124.211 93.6189C122.482 92.475 120.882 91.4083 119.344 90.4138C120.893 91.2746 122.632 92.2848 124.371 93.2951L124.526 93.0381C118.295 89.1884 113.478 86.1891 109.943 84.0298C97.8776 75.5543 102.114 76.4904 126.71 87.491L126.741 87.0899C95.2813 71.7194 97.4275 72.6941 126.973 86.7044L126.989 86.5038C104.752 75.4855 98.5818 71.7079 111.904 75.3039C115.563 76.733 121.122 78.8486 128.379 81.6348C122.697 79.3751 118.126 77.5385 114.606 76.0529C118.23 77.0757 122.899 78.5164 128.617 80.3081L128.638 80.0406C119.059 76.8041 112.62 74.7544 109.269 73.6857C102.718 70.4837 108.654 71.2161 129.368 75.86C129.379 75.7263 129.389 75.5926 129.4 75.4589C97.9171 67.2839 100.043 67.6516 129.452 74.7903L129.478 74.456C100.451 66.7417 98.311 64.8258 129.898 66.4843C129.914 66.2837 129.924 66.15 129.94 65.9494C100.197 63.0897 102.535 63.3394 129.966 65.6151L129.977 65.4814C102.772 62.887 100.43 61.8298 129.667 60.816C129.683 60.6155 129.632 60.4097 129.575 60.2707C101.864 59.8565 99.7282 58.7481 128.562 54.2723C128.572 54.1386 128.516 53.9997 128.459 53.8607C126.08 54.1459 123.974 54.3851 122.069 54.6399C103.062 56.5868 103.397 55.7385 127.531 50.2233L127.424 49.8785C99.7883 55.3895 101.509 54.9184 127.321 49.4669C127.331 49.3332 127.275 49.1943 127.218 49.0553C101.324 53.8278 98.9722 52.9043 124.723 42.2014C124.605 41.9903 124.492 41.7125 124.374 41.5014C99.6547 50.1997 101.35 49.1885 123.624 39.8958L123.639 39.6952C101.258 48.6432 99.1567 48.8156 122.103 36.952L121.923 36.6689C97.7772 48.3716 99.3228 47.5505 121.686 36.2468L121.512 35.8969C99.0612 46.5884 96.9246 46.3543 118.453 31.0841C118.335 30.8731 118.211 30.7289 118.026 30.5127C97.0403 44.0091 98.4216 42.7044 117.178 29.303L117.188 29.1692C98.2469 42.3544 96.4388 43.0877 115.769 27.5114L115.584 27.2951C95.0846 43.1838 96.2546 41.9971 115.095 26.6516C114.967 26.5743 114.91 26.4354 114.782 26.358C95.3645 41.3222 93.2019 41.4225 110.42 21.8472C110.168 21.6257 109.983 21.4095 109.731 21.188C92.1954 38.7879 92.877 36.9577 107.333 19.1175L107.143 18.9681C92.4346 36.5868 90.9916 37.8195 105.811 17.9223L105.558 17.7009C89.6164 38.183 90.2823 36.5533 104.288 16.7272C104.159 16.6499 104.097 16.5779 103.969 16.5005C89.5209 35.9558 87.7076 36.7559 99.8677 13.8262C99.6104 13.6716 99.4201 13.5222 99.1628 13.3676C86.3865 34.7021 86.6769 32.7069 96.4508 11.8778L96.317 11.8674C86.2805 32.6087 85.4138 34.2226 95.8641 11.6302L95.6633 11.6146C84.3316 35.1471 84.735 33.4297 94.243 10.8311L93.9188 10.6712C83.731 33.3513 82.1541 34.5736 89.4875 8.77823C89.225 8.69047 88.9008 8.53064 88.6383 8.44288C80.0602 32.9303 79.697 30.6822 84.366 7.10042L84.1652 7.08475C79.0894 30.702 78.5312 32.6764 83.5063 6.89879L83.1717 6.87267C77.2325 33.7858 76.8484 31.8051 79.7382 5.99927C79.6043 5.98883 79.4705 5.97838 79.3366 5.96793C75.7723 31.7884 74.7613 33.5256 75.3468 5.32017C75.0791 5.29927 74.8114 5.27837 74.5436 5.25747C72.905 26.2507 72.026 29.7471 70.8687 18.6926C70.7845 15.4573 70.604 10.8692 70.3991 4.86669C70.3991 4.86669 70.2653 4.85624 70.1983 4.85102C70.2364 7.81364 70.3006 10.442 70.3857 12.8029C70.2285 10.5036 70.0356 7.79796 69.7967 4.81967L69.6629 4.80922C69.9356 9.94262 70.2144 14.1348 70.4376 17.3137C70.5299 32.5227 69.4644 27.1929 66.7692 4.78514L66.4345 4.75902C69.186 32.4851 68.7617 34.4699 63.0514 4.96579C62.8506 4.95012 62.5777 4.99608 62.3717 5.04726C66.4191 34.287 64.7068 32.0681 56.5216 5.80138L56.3878 5.79093C64.2739 32.4379 65.0335 34.7842 56.1817 5.84211L55.7697 5.94448C64.0686 36.7941 61.9903 34.9503 49.1773 7.58236L48.8322 7.68995C60.9959 35.6126 61.4313 37.799 45.8602 8.66872C45.6542 8.71991 45.5151 8.77631 45.3039 8.89436C55.0141 29.4281 56.6923 34.6712 50.8661 27.3555C48.8305 24.1024 45.4173 18.6566 40.4978 10.9407L40.2865 11.0588C42.9132 15.3669 45.1235 18.97 46.8401 21.9964C44.7731 19.1444 42.2847 15.6542 39.3799 11.4588L39.313 11.4536C43.1791 17.1366 46.2586 21.6819 48.5002 24.8838C56.6721 39.2437 51.7342 34.3515 34.5937 14.1122L34.3825 14.2302C55.456 40.1577 56.844 42.2167 32.8934 15.1902L32.5379 15.4315C55.036 42.95 51.7886 41.4185 26.9624 19.5703L26.8954 19.5651C51.8137 41.9586 54.1441 44.0239 26.7459 19.7552C26.6738 19.8168 26.5295 19.9401 26.4573 20.0017C54.4708 46.74 50.8774 46.1905 19.2153 27.3736L18.9936 27.6254C50.5157 47.373 52.7383 49.0936 17.8027 29.0795L17.581 29.3313C41.1533 43.9516 46.2929 47.9851 35.6127 44.1917C31.3926 42.1807 24.3059 38.937 14.0951 34.3058L14.0794 34.5064C18.8141 36.8267 23.0289 38.9045 26.5232 40.7244C22.869 39.2284 18.4994 37.4075 13.4814 35.2669C19.6676 37.9695 24.8812 40.1926 28.9883 41.9258C49.8974 52.7059 42.1855 51.4313 9.81802 42.5146L9.80236 42.7151C48.65 54.0211 51.6045 54.9916 9.57026 43.1006L9.55461 43.3012C50.5118 56.0498 46.2586 56.1887 7.15865 49.8406C46.5619 56.6159 50.4178 57.2533 6.85869 51.0952L6.83782 51.3627C52.1762 59.7448 48.2871 61.2573 4.791 63.7814L4.77535 63.982C48.7443 62.302 52.1839 62.2342 4.68141 65.1854L4.67097 65.3191C51.3433 63.5138 47.0631 64.8614 4.78279 71.6507C47.2534 65.0107 51.4815 64.3318 4.80275 72.2577L4.79232 72.3914C53.3337 65.6199 49.9897 67.9149 6.53724 82.8191L6.52681 82.9528C50.6842 68.5072 54.2072 67.3697 6.74234 83.6423C53.7065 68.6086 49.6879 70.9183 8.41536 88.9523C50.0069 71.145 54.1741 69.5196 9.75557 92.4874C56.4897 70.9111 53.9374 74.2769 15.8971 103.527L15.964 103.533C54.5598 74.9309 57.7544 72.826 17.1722 105.308C57.4544 74.0806 54.1607 77.4558 19.5633 108.32C54.351 77.6052 57.9481 74.6572 22.1709 111.147C60.0638 75.1587 58.4277 78.8651 29.414 117.564L29.4809 117.57C59.1483 79.1231 61.7414 76.0968 31.8373 119.301C61.8483 77.3159 59.4446 81.366 33.9521 120.677C59.635 81.5154 62.6149 77.8466 39.8237 123.96L39.8906 123.965C64.9418 78.2301 64.3662 82.1538 48.3108 127.38L48.4447 127.391C64.999 82.674 66.6916 79.1066 51.8008 128.393C66.8089 80.1919 65.4605 84.5262 51.9346 128.403C65.5839 84.6703 67.4625 80.4448 58.5651 129.728L58.6321 129.733C69.4296 80.262 69.6781 83.9809 65.0575 130.235L65.1913 130.245C69.7177 90.3742 71.0342 82.1361 70.7136 112.986C70.5387 117.815 70.2959 123.514 70.0417 130.22C70.2366 125.998 70.4055 122.11 70.6099 118.628C70.5393 122.12 70.5096 125.952 70.4485 130.185C70.6784 122.064 70.9326 115.357 71.0719 110.121C72.5439 86.0881 73.9762 90.1685 78.5386 129.202L78.6725 129.212C75.0258 81.0351 76.1139 84.3488 83.5446 128.045L83.6785 128.056C79.2694 99.9987 77.6696 88.5734 80.3543 96.4511C80.9322 100.263 83.0735 110.789 86.4393 127.195C83.8678 114.416 82.0959 105.197 81.3651 99.8932C82.9095 105.126 85.2534 113.919 88.4481 126.478C84.705 111.454 82.2794 101.983 81.0019 97.6451C80.1661 89.3736 83.8547 97.3297 93.8775 124.211L94.0887 124.093C79.804 81.0718 81.4024 83.8871 97.3859 122.399L97.5197 122.41C85.5387 92.1473 82.7159 83.4516 92.6983 99.6344C95.0311 104.256 98.433 110.71 102.765 119.052L103.249 118.888Z" fill="url(#paint2_radial_286_732)"/>
<path style="mix-blend-mode:color-dodge" opacity="0.3" d="M53.5513 10.2109C84.3559 2.05491 115.982 20.4653 124.086 51.2325C132.256 82.0048 113.831 113.594 83.0313 121.683C52.2267 129.839 20.6002 111.428 12.4969 80.6611C4.32671 49.8888 22.7519 18.3 53.5513 10.2109Z" fill="url(#paint3_linear_286_732)"/>
<defs>
<radialGradient id="paint0_radial_286_732" cx="0" cy="0" r="1" gradientUnits="userSpaceOnUse" gradientTransform="translate(95.2792 -36.5836) rotate(30.3984) scale(213.176 213.03)">
<stop stop-color="#3300FF"/>
<stop offset="0.1" stop-color="#0037F9"/>
<stop offset="0.24" stop-color="#005DE8"/>
<stop offset="0.39" stop-color="#0039CD"/>
<stop offset="0.54" stop-color="#0030AD"/>
<stop offset="0.6" stop-color="#0010A1"/>
<stop offset="0.72" stop-color="#001582"/>
<stop offset="0.86" stop-color="#020051"/>
<stop offset="1" stop-color="#01001F"/>
</radialGradient>
<radialGradient id="paint1_radial_286_732" cx="0" cy="0" r="1" gradientUnits="userSpaceOnUse" gradientTransform="translate(20.8931 -35.5375) rotate(-14.657) scale(172.181 172.031)">
<stop/>
<stop offset="0.04" stop-color="#060300"/>
<stop offset="0.5" stop-color="#4B2500"/>
<stop offset="0.83" stop-color="#763B00"/>
<stop offset="1" stop-color="#874400"/>
</radialGradient>
<radialGradient id="paint2_radial_286_732" cx="0" cy="0" r="1" gradientUnits="userSpaceOnUse" gradientTransform="translate(73.0911 57.0618) rotate(59.7937) scale(96.9374 96.9753)">
<stop stop-color="#FFA600"/>
<stop offset="0.08" stop-color="#F9A100"/>
<stop offset="0.19" stop-color="#E89300"/>
<stop offset="0.31" stop-color="#CD7D00"/>
<stop offset="0.44" stop-color="#A85F00"/>
<stop offset="0.54" stop-color="#874400"/>
<stop offset="0.64" stop-color="#763E00"/>
<stop offset="0.82" stop-color="#4B2F00"/>
<stop offset="1" stop-color="#1E1F00"/>
</radialGradient>
<linearGradient id="paint3_linear_286_732" x1="40.0881" y1="93.3379" x2="197.346" y2="-60.0001" gradientUnits="userSpaceOnUse">
<stop/>
<stop offset="1" stop-color="white"/>
</linearGradient>
</defs>
</svg>
