<svg width="99" height="98" viewBox="0 0 99 98" fill="none" xmlns="http://www.w3.org/2000/svg">
<path style="mix-blend-mode:screen" d="M88.0713 43.9038C69.6383 50.5518 67.0383 51.4959 88.6441 46.128C67.2346 52.6583 70.031 52.8766 89.7 52.4619C69.9999 53.2756 67.2294 53.4609 89.5612 54.9746C67.3205 54.5003 70.2436 55.302 89.0956 59.4692C70.1687 55.5256 67.2234 55.0089 88.1705 62.4941C66.6163 56.166 69.0117 57.8441 85.8511 67.9336C68.8093 58.2298 66.2161 56.8803 83.978 70.5977C65.7498 57.7042 67.8724 59.9346 81.7492 73.4062C67.6308 60.0878 65.3763 58.0765 78.5502 76.1388C64.1815 58.6715 65.2983 61.2822 74.3062 79.0193C64.9336 61.5405 63.4566 59.1311 70.2127 80.7071C62.622 59.5248 63.2074 62.3234 67.6786 81.5417C62.9132 62.4152 62.038 59.6513 62.572 82.2328C60.844 59.5007 60.4725 62.0526 58.6601 82.3289C60.0642 62.1354 59.9791 59.5479 53.3972 81.3446C59.066 59.4766 58.2424 61.9359 51.8171 80.9918C57.9571 61.9136 58.5568 59.3795 46.9374 78.7756C57.6882 58.7382 56.2154 60.6879 44.6821 77.5098C55.8863 60.4902 56.973 58.3382 40.2694 73.7242C56.2051 57.8768 54.3551 59.5104 39.3089 72.7889C54.1973 59.326 55.8324 57.5036 36.3059 68.5971C55.3855 56.6084 53.2991 57.5926 35.1839 66.789C53.0404 57.2283 54.9823 55.8887 33.043 61.1159C54.4213 54.9846 52.0325 55.429 32.4961 59.2953C51.9407 55.1351 54.2902 54.4582 32.0442 54.7864C54.3043 53.5417 51.9645 53.359 31.9324 52.5409C52.0001 52.903 54.314 52.6821 32.7591 47.0995C54.3415 51.5945 52.0506 50.7848 33.3543 44.6225C52.1299 50.5043 54.4956 51.0904 34.6923 41.4578C54.9485 50.4375 52.983 49.137 35.8538 39.0822C53.2425 48.7558 55.3488 49.7232 38.5533 35.3929C55.9336 48.8512 54.3595 46.9503 40.8214 32.817C54.544 46.7927 56.3116 48.4218 42.7855 31.1924C57.032 48.0192 55.9849 45.9875 45.6502 29.0645C56.3451 45.7862 57.748 47.6737 48.9974 27.3758C58.7101 47.1179 58.2648 44.7316 53.2006 25.7538C58.6161 44.6443 59.2986 46.9344 55.0098 25.3789C60.159 46.9442 60.3326 44.721 59.7125 24.7136C60.7365 44.6951 60.9625 46.9496 62.3466 24.8045C61.9371 46.9683 62.7429 44.7371 67.3509 25.4246C62.9667 44.8119 62.4989 47.1268 68.47 25.7987C63.2141 47.5268 64.4497 45.6732 73.6617 27.6951C64.7788 45.871 63.8722 47.9223 75.3071 28.6839C64.7016 48.3312 66.4945 46.6931 79.6108 31.6581C66.6524 46.8775 65.0743 48.7044 80.624 32.6548C65.7628 49.4463 67.9768 48.3 84.6845 37.2733C68.1783 48.6599 66.1704 50.109 85.7451 39.134C66.8545 50.908 69.4938 50.1964 88.0187 43.8424L88.0713 43.9038Z" fill="url(#paint0_radial_221_16)"/>
<path style="mix-blend-mode:screen" opacity="0.3" d="M79.6522 88.4981C77.8076 84.9129 76.2609 81.9245 75.0693 79.5374C76.4455 81.7669 78.1723 84.6546 80.2014 88.0821C76.9717 82.3815 74.7017 78.3616 73.2818 75.9566C70.3427 69.4757 73.0003 72.2067 83.2729 85.5116L83.3959 85.4065C69.5824 65.9751 70.7489 67.2133 84.2706 84.4997L84.3276 84.5042C75.3794 72.6218 72.232 68.0746 76.3726 71.667C77.8415 73.4449 81.1084 77.1984 85.9056 82.6773C82.06 78.2477 79.2185 74.9288 77.6051 72.7955C79.5877 74.6135 82.627 77.6037 86.7276 81.7092C81.4168 76.1901 78.0617 72.8312 76.5135 71.3339C74.2998 68.064 77.8402 70.5197 88.5258 79.2686L88.6533 79.1065C72.218 64.575 73.4728 65.4185 89.2381 78.2345L89.247 78.1205C75.4124 66.3155 73.3602 63.9185 87.015 71.408C88.3268 72.256 89.8054 73.1744 91.4507 74.1631C90.4724 73.4558 89.5423 72.867 88.6692 72.2827C89.5467 72.81 90.5384 73.3463 91.53 73.8825L91.5434 73.7115C88.0378 71.5452 85.2956 69.8973 83.2641 68.7064C76.3412 63.9792 78.7729 64.4558 92.8242 70.5423L92.842 70.3143C74.8508 61.7408 76.0707 62.2948 92.974 70.0952L92.9829 69.9812C80.2574 63.826 76.6859 61.7693 84.345 63.6863C86.4646 64.4826 89.5893 65.6442 93.776 67.1754C90.5461 65.8909 87.9262 64.8835 85.9206 64.096C88.001 64.6599 90.6388 65.4393 93.948 66.4433L93.9569 66.3292C88.4665 64.5815 84.8282 63.3799 82.919 62.8294C79.2111 61.0488 82.5693 61.4256 94.3721 63.9528L94.3899 63.7248C76.4207 59.2824 77.6673 59.4944 94.4211 63.3257L94.4344 63.1547C77.883 58.9377 76.6461 57.8662 94.6147 58.6379L94.637 58.3529C77.6963 56.9158 79.0089 57.0182 94.5933 58.1774L94.6022 58.0634C79.0882 56.7377 77.7542 56.1747 94.4074 55.4099C94.4163 55.2959 94.4252 55.1819 94.377 55.0634C78.6466 55.0399 77.3785 54.3674 93.7835 51.6332L93.8013 51.4052C92.4094 51.5833 91.1931 51.7178 90.0866 51.9182C79.3115 53.1418 79.4657 52.6377 93.1581 49.3476L93.1759 49.1196C77.4157 52.4203 78.4125 52.154 93.0225 48.8782L93.0403 48.6502C78.2332 51.5091 76.8947 51.0032 91.4507 44.7408C91.4025 44.6223 91.3017 44.4424 91.2535 44.3239C77.2476 49.4248 78.2096 48.869 90.8067 43.4288L90.8156 43.3147C78.1222 48.5181 76.963 48.657 89.904 41.7524L89.8032 41.5725C76.1774 48.4236 77.0208 47.9159 89.6498 41.3311L89.549 41.1512C76.8326 47.3851 75.6342 47.2915 87.7519 38.43C87.7037 38.3115 87.594 38.2456 87.4888 38.1227C75.6268 45.9145 76.3739 45.1698 86.967 37.4511C76.3302 44.9944 75.32 45.4317 86.1822 36.4721L86.0769 36.3492C74.5121 45.4833 75.1362 44.8438 85.7612 35.9805L85.6034 35.7961C74.6538 44.4047 73.3804 44.5347 83.1035 33.2495C82.9983 33.1265 82.836 32.9992 82.6737 32.8718C72.8113 42.9991 73.1812 41.9382 81.2744 31.6728L81.1603 31.6639C72.9136 41.6879 72.1094 42.4281 80.4103 30.9745L80.248 30.8471C71.2927 42.5938 71.7063 41.7084 79.5417 30.3332L79.3794 30.2058C71.272 41.3877 70.2618 41.8251 77.0277 28.7031C76.918 28.6372 76.7513 28.5668 76.6461 28.4439C69.4947 40.6181 69.6363 39.5395 75.106 27.5781L75.0489 27.5736C69.474 39.4121 68.9989 40.35 74.8295 27.4418L74.7154 27.4329C68.4408 40.88 68.6306 39.9198 73.8905 26.967L73.7193 26.9537C68.0599 39.8752 67.2031 40.5539 71.1653 25.8367C70.9941 25.8233 70.8318 25.6959 70.6606 25.6825C65.9528 39.6534 65.7083 38.3725 68.2511 24.9209L68.137 24.912C65.4185 38.4073 65.1012 39.5296 67.7464 24.7668L67.5181 24.749C64.3103 40.0987 64.0525 38.9889 65.5474 24.2511L65.3191 24.2332C63.4247 38.9399 62.888 39.9304 63.0497 23.884L62.5931 23.8484C61.8343 35.776 61.2747 37.797 60.5612 31.4898C60.4754 29.6478 60.3332 27.0558 60.2007 23.6043L60.0865 23.5954C60.1287 25.2619 60.1798 26.8144 60.2486 28.1389C60.1227 26.81 60.0101 25.31 59.8538 23.6346L59.7967 23.6301C59.9737 26.5116 60.1863 28.937 60.2767 30.722C60.4037 39.3923 59.8361 36.3656 58.1328 23.6149L57.9616 23.6016C59.7189 39.3389 59.5113 40.5271 56.0561 23.7396L55.6566 23.7084C58.1461 40.3632 57.1508 39.1384 52.3414 24.2526L52.2272 24.2437C56.9047 39.3486 57.316 40.6998 52.1086 24.2918L51.8804 24.274C56.766 41.8613 55.5861 40.7942 48.1256 25.3L47.8973 25.2822C54.9843 41.1487 55.2288 42.4296 46.2371 25.9555C46.1229 25.9466 45.9999 26.0517 45.9428 26.0473C51.581 37.6713 52.557 40.6151 49.2027 36.5106C48.028 34.641 46.0819 31.6214 43.2064 27.2675L43.0923 27.2586C44.6175 29.7865 45.8929 31.836 46.9097 33.5213C45.7128 31.9367 44.2617 29.9308 42.609 27.565C44.8272 30.7779 46.6377 33.328 47.9309 35.1496C52.6947 43.2641 49.8087 40.5153 39.9645 29.0792L39.8414 29.1843C52.0224 43.7852 52.7895 44.9921 38.9935 29.7489L38.809 29.9066C51.7793 45.4294 49.9494 44.5984 35.6937 32.3017C49.9842 44.8879 51.3879 46.0298 35.5707 32.4068L35.3862 32.5644C51.496 47.5868 49.4504 47.3124 31.3251 36.7784L31.2021 36.8835C49.2303 47.9261 50.5332 48.8881 30.5602 37.751L30.4327 37.9131C43.9199 46.0777 46.8986 48.375 40.8071 46.2362C38.4243 45.1326 34.3739 43.3252 28.4892 40.7438L28.4803 40.8578C31.1922 42.1592 33.5705 43.3198 35.6198 44.2828C33.5046 43.4294 31.0558 42.4353 28.1594 41.2916C31.7184 42.7738 34.663 44.036 36.9976 45.0212C48.99 51.0044 44.5653 50.3149 26.0521 45.4859L26.0432 45.5999C48.1813 51.8016 49.9238 52.2817 25.9113 45.8191L25.9024 45.9331C49.2953 52.9782 46.8806 53.0192 24.577 49.6723C47.034 53.2606 49.2463 53.6053 24.4094 50.3475L24.4005 50.4615C50.2327 54.9441 48.0366 55.8624 23.2736 57.5427L23.2647 57.6567C48.2819 56.3977 50.2356 56.3781 23.2113 58.3408C49.7212 57.0836 47.3057 57.87 23.326 62.0203C47.468 57.9974 49.8568 57.553 23.2993 62.3624C50.8922 58.2647 48.9503 59.6043 24.3248 68.3498C49.3275 59.9205 51.3302 59.2739 24.4033 68.8148C51.0485 59.9402 48.7597 61.31 25.3748 71.8156C48.922 61.4374 51.2938 60.4755 26.1937 73.8295C52.6671 61.2709 51.1943 63.2207 29.7258 80.07C51.51 63.5894 53.3289 62.3549 30.3965 81.04C53.1614 63.0301 51.2891 64.9487 31.7557 82.752C51.3373 65.0671 53.42 63.3944 33.2379 84.3589C54.6051 63.659 53.6371 65.7628 37.3786 87.9512C54.0277 65.908 55.4827 64.1863 38.7386 88.9177C55.5434 64.8793 54.2196 67.1274 39.9407 89.6998C54.3248 67.2504 55.9821 65.1429 43.3018 91.5107C57.2903 65.3024 56.9981 67.5737 48.1511 93.3804L48.2082 93.3848C57.3798 67.8329 58.2864 65.7816 50.1174 93.9353C58.3516 66.4176 57.5851 68.8813 50.1745 93.9398C57.6903 69.0042 58.6851 66.5583 53.9669 94.6373C59.7872 66.415 59.965 68.5509 57.6194 94.9224L57.6764 94.9269C60.0226 72.226 60.6773 67.5168 60.6853 85.0676C60.5859 87.8128 60.5034 91.0755 60.438 94.8557C60.5108 92.4525 60.5657 90.2774 60.6644 88.2777C60.6843 90.2293 60.6249 92.4614 60.6092 94.869C60.6843 90.2293 60.7497 86.449 60.8099 83.4714C61.4739 69.8158 62.3276 72.1192 65.1363 94.2474L65.2504 94.2563C62.8511 66.8835 63.5077 68.7701 68.0039 93.5536L68.0609 93.558C65.3995 77.6355 64.414 71.135 65.9591 75.6144C66.3081 77.7638 67.6189 83.7735 69.6507 93.0512C68.0909 85.8177 67.0647 80.5758 66.6112 77.558C67.5257 80.5544 68.9166 85.538 70.8322 92.6273C68.6284 84.0817 67.15 78.7471 66.4238 76.2816C65.9282 71.5973 68.044 76.1213 73.9199 91.3198L74.034 91.3287C65.6653 66.8738 66.5769 68.4361 75.8966 90.2696L75.9537 90.2741C68.9691 73.0964 67.284 68.2046 73.0609 77.3159C74.4104 79.8874 76.3602 83.5955 78.9192 88.3262L79.6522 88.4981Z" fill="url(#paint1_radial_221_16)"/>
<path d="M60.5437 67.7453C44.288 78.8648 22.0467 74.7198 10.9123 58.48C-0.222061 42.2402 3.92361 20.0239 20.1793 8.90448C36.435 -2.21495 58.6763 1.93002 69.8107 18.1698C80.9451 34.4097 76.7994 56.6259 60.5437 67.7453Z" fill="white" style="mix-blend-mode:multiply"/>
<path style="mix-blend-mode:multiply" d="M60.5437 67.7453C44.288 78.8648 22.0467 74.7198 10.9123 58.48C-0.222061 42.2402 3.92361 20.0239 20.1793 8.90448C36.435 -2.21495 58.6763 1.93002 69.8107 18.1698C80.9451 34.4097 76.7994 56.6259 60.5437 67.7453Z" fill="url(#paint2_radial_221_16)"/>
<path style="mix-blend-mode:color-dodge" opacity="0.3" d="M46.9713 5.48983C64.8056 8.71726 76.6196 25.8131 73.3917 43.6274C70.1638 61.4418 53.0513 73.2399 35.217 70.0125C17.3826 66.785 5.56855 49.6892 8.79645 31.8749C12.0244 14.0605 29.1369 2.2624 46.9713 5.48983Z" fill="url(#paint3_linear_221_16)"/>
<defs>
<radialGradient id="paint0_radial_221_16" cx="0" cy="0" r="1" gradientUnits="userSpaceOnUse" gradientTransform="translate(31.7961 1.18524) rotate(-15.2765) scale(97.9872 97.9035)">
<stop/>
<stop offset="0.04" stop-color="#060300"/>
<stop offset="0.5" stop-color="#4B2500"/>
<stop offset="0.83" stop-color="#763B00"/>
<stop offset="1" stop-color="#874400"/>
</radialGradient>
<radialGradient id="paint1_radial_221_16" cx="0" cy="0" r="1" gradientUnits="userSpaceOnUse" gradientTransform="translate(62.1331 53.3786) rotate(59.1634) scale(55.1413 55.1616)">
<stop stop-color="#FFA600"/>
<stop offset="0.08" stop-color="#F9A100"/>
<stop offset="0.19" stop-color="#E89300"/>
<stop offset="0.31" stop-color="#CD7D00"/>
<stop offset="0.44" stop-color="#A85F00"/>
<stop offset="0.54" stop-color="#874400"/>
<stop offset="0.64" stop-color="#763E00"/>
<stop offset="0.82" stop-color="#4B2F00"/>
<stop offset="1" stop-color="#1E1F00"/>
</radialGradient>
<radialGradient id="paint2_radial_221_16" cx="0" cy="0" r="1" gradientUnits="userSpaceOnUse" gradientTransform="translate(79.8268 -8.49822) rotate(55.5223) scale(121.216 121.244)">
<stop stop-color="#FF9D00"/>
<stop offset="0.1" stop-color="#F99800"/>
<stop offset="0.24" stop-color="#E88A00"/>
<stop offset="0.39" stop-color="#CD7300"/>
<stop offset="0.54" stop-color="#AD5700"/>
<stop offset="0.6" stop-color="#A15200"/>
<stop offset="0.72" stop-color="#824600"/>
<stop offset="0.86" stop-color="#513300"/>
<stop offset="1" stop-color="#1E1F00"/>
</radialGradient>
<linearGradient id="paint3_linear_221_16" x1="19.8969" y1="45.0666" x2="138.046" y2="4.06357" gradientUnits="userSpaceOnUse">
<stop/>
<stop offset="1" stop-color="white"/>
</linearGradient>
</defs>
</svg>
