<svg width="247" height="247" viewBox="0 0 247 247" fill="none" xmlns="http://www.w3.org/2000/svg">
<path d="M114.899 237.416C177.925 242.336 233.001 195.288 237.915 132.332C242.83 69.3753 195.721 14.351 132.695 9.43124C69.6686 4.51153 14.5921 51.5595 9.67786 114.516C4.7636 177.472 51.8725 232.496 114.899 237.416Z" fill="white" style="mix-blend-mode:multiply"/>
<path style="mix-blend-mode:multiply" d="M114.899 237.416C177.925 242.336 233.001 195.288 237.915 132.332C242.83 69.3753 195.721 14.351 132.695 9.43124C69.6686 4.51153 14.5921 51.5595 9.67786 114.516C4.7636 177.472 51.8725 232.496 114.899 237.416Z" fill="url(#paint0_radial_399_61)"/>
<path style="mix-blend-mode:screen" d="M217.73 74.6997C158.405 95.3368 150.074 98.2436 219.506 81.83C150.642 101.968 159.543 102.785 222.706 102.196C159.56 104.136 150.677 104.669 222.209 110.13C151.04 107.886 160.173 110.439 220.589 124.6C159.985 111.283 150.55 109.443 217.508 134.172C148.668 113.098 156.343 118.604 210.016 151.496C155.769 119.663 147.511 115.339 203.961 159.855C145.959 117.916 152.646 125.062 196.75 168.859C152.101 125.755 144.756 119.171 186.365 177.616C140.914 121.202 144.435 129.572 172.76 186.735C143.392 130.35 138.715 122.625 159.581 191.962C135.916 123.878 137.672 132.847 151.391 194.634C136.789 133.146 134.16 124.354 134.901 196.659C130.151 123.796 128.771 132.029 122.366 196.785C127.419 132.047 127.447 123.831 105.553 193.51C124.517 123.602 121.692 131.477 100.493 192.256C120.848 131.288 122.828 123.225 84.9709 185.034C120.154 121.299 115.378 127.427 77.6797 180.908C114.195 126.844 117.798 120.011 63.6648 168.529C115.349 118.348 109.297 123.518 60.5788 165.59C108.725 122.982 114.093 117.146 51.072 152.091C112.706 114.462 105.839 117.483 47.5946 146.3C105.192 116.328 111.422 112.031 41.0412 128.003C109.81 109.084 102.091 110.444 39.4135 122.111C101.8 109.44 109.333 107.329 38.0859 107.656C109.439 104.394 102.004 103.691 37.9056 100.527C102.108 102.35 109.649 101.712 40.7406 83.0856C109.793 98.2885 102.397 95.5033 42.7113 75.1439C102.586 94.6594 110.161 96.7226 47.0597 65.0572C111.562 94.5015 105.379 90.339 50.8421 57.5022C106.206 89.177 113.086 92.2899 59.6242 45.6764C114.91 89.3658 109.856 83.3289 67.0127 37.5443C110.513 82.7669 116.104 88.2324 73.2995 32.5154C118.405 87.0628 115.117 80.4277 82.5457 25.7548C116.272 79.782 120.717 85.7713 93.2644 20.5812C123.789 84.1712 122.416 76.5818 106.668 15.6172C123.29 76.4046 125.545 83.695 112.519 14.6019C128.23 83.9045 128.914 76.721 127.647 12.7163C130.134 76.8162 130.915 84.1141 136.088 13.1299C134.108 84.118 136.631 76.9554 152.01 15.2313C137.354 77.1345 135.666 84.6076 155.595 16.4925C138.012 86.0173 142.036 80.0759 172.18 22.6935C143.097 80.6493 140.123 87.2861 177.453 25.9263C142.854 88.4805 148.54 83.282 191.189 35.5847C149.103 83.9392 144.101 89.8045 194.369 38.8994C146.127 92.1705 153.163 88.5493 207.198 53.884C153.81 89.7037 147.43 94.3574 210.422 59.778C149.446 96.8453 158.086 94.6986 217.589 74.934L217.73 74.6997Z" fill="url(#paint1_radial_399_61)"/>
<path style="mix-blend-mode:screen" opacity="0.3" d="M189.065 217.35C183.216 205.731 178.315 196.148 174.622 188.377C178.972 195.586 184.391 204.841 190.765 216.011L190.887 216.021C180.773 197.689 173.555 184.736 169.14 176.786C159.845 155.82 168.484 164.714 200.866 207.724L201.261 207.387C157.761 144.74 161.382 148.703 204.184 204.549L204.447 204.324C176.107 166.168 166.196 151.533 179.405 163.237C183.991 168.993 194.346 181.087 209.663 198.844C197.526 184.403 188.541 173.642 183.299 166.853C189.706 172.874 199.284 182.332 212.238 195.734C195.448 177.984 184.763 166.968 179.735 162.159C172.815 151.682 184.103 159.679 217.879 187.957L218.292 187.376C166.094 140.24 170.185 142.89 220.107 184.574L220.389 184.105C176.219 145.815 169.833 137.956 213.235 162.448C217.449 165.108 222.122 168.172 227.264 171.518L227.283 171.274C224.13 169.188 221.212 167.242 218.406 165.428C221.231 166.999 224.403 168.841 227.575 170.684L227.857 170.215C216.493 163.193 207.709 157.723 201.263 153.784C179.259 138.325 186.985 140.033 231.837 160.1L231.894 159.369C174.524 131.331 178.437 133.109 232.318 158.666L232.346 158.3C191.794 138.202 180.542 131.311 204.836 137.872C211.509 140.479 221.646 144.339 234.88 149.421C224.518 145.299 216.183 141.949 209.764 139.239C216.372 141.105 224.886 143.733 235.314 147.002L235.352 146.514C217.884 140.61 206.142 136.87 200.031 134.921C188.084 129.08 198.908 130.417 236.683 138.891C236.702 138.647 236.721 138.403 236.74 138.159C179.329 123.244 183.206 123.915 236.835 136.94L236.882 136.331C183.949 122.256 180.047 118.761 237.647 121.794C237.675 121.428 237.694 121.184 237.723 120.818C183.486 115.596 187.748 116.052 237.77 120.209L237.789 119.965C188.181 115.227 183.911 113.298 237.224 111.457C237.252 111.091 237.159 110.716 237.056 110.463C186.524 109.7 182.629 107.678 235.207 99.5238C235.226 99.28 235.123 99.0266 235.02 98.7733C230.681 99.2926 226.841 99.7283 223.366 100.193C188.708 103.738 189.319 102.191 233.326 92.1398L233.13 91.5111C182.738 101.554 185.875 100.695 232.943 90.7605C232.962 90.5167 232.858 90.2633 232.755 90.0099C185.539 98.7062 181.249 97.0215 228.204 77.5105C227.988 77.1256 227.782 76.6189 227.566 76.234C182.493 92.0897 185.584 90.2461 226.198 73.3058L226.227 72.9401C185.416 89.2517 181.585 89.5654 223.424 67.9371L223.096 67.4208C179.069 88.7554 181.887 87.2585 222.664 66.6511L222.346 66.0129C181.41 85.5039 177.514 85.0766 216.767 57.2356C216.552 56.8508 216.327 56.5879 215.989 56.1935C177.724 80.7999 180.243 78.421 214.442 53.9872L214.461 53.7434C179.924 77.7827 176.627 79.1195 211.872 50.7198L211.534 50.3254C174.158 79.2944 176.291 77.1306 210.643 49.1517C210.409 49.0107 210.306 48.7574 210.071 48.6163C174.668 75.8997 170.724 76.082 202.117 40.3893C201.657 39.9854 201.319 39.591 200.86 39.187C168.888 71.2773 170.131 67.9399 196.488 35.4106L196.14 35.1381C169.324 67.2635 166.693 69.511 193.71 33.2309L193.251 32.8269C164.185 70.1735 165.399 67.2019 190.933 31.0511C190.699 30.9101 190.586 30.7786 190.351 30.6376C164.011 66.112 160.704 67.5708 182.873 25.7596C182.403 25.4776 182.056 25.2051 181.587 24.9231C158.295 63.8251 158.824 60.1867 176.641 22.2058L176.397 22.1867C158.101 60.0075 156.521 62.9505 175.571 21.7541L175.205 21.7255C154.548 64.6361 155.283 61.5044 172.615 20.2963L172.024 20.0048C153.452 61.3612 150.577 63.5896 163.943 16.5516C163.464 16.3915 162.873 16.1 162.394 15.9399C146.758 60.5924 146.095 56.4927 154.604 13.4907L154.237 13.462C144.988 56.5287 143.97 60.129 153.036 13.1228L152.426 13.075C141.602 62.1518 140.901 58.5398 146.164 11.4815C145.92 11.4624 145.676 11.4433 145.432 11.4242C138.939 58.509 137.096 61.6767 138.157 10.2419C137.668 10.2037 137.18 10.1656 136.692 10.1274C133.709 48.4097 132.107 54.7855 129.994 34.6265C129.84 28.7267 129.509 20.3599 129.134 9.41369C129.134 9.41369 128.89 9.3946 128.768 9.38506C128.838 14.7876 128.956 19.5806 129.112 23.886C128.825 19.693 128.472 14.759 128.036 9.32779L127.792 9.3087C128.29 18.6699 128.8 26.3148 129.208 32.1118C129.38 59.8467 127.436 50.127 122.515 9.26404L121.905 9.21632C126.929 59.7777 126.156 63.397 115.736 9.59251C115.37 9.56388 114.872 9.64762 114.496 9.74091C121.884 63.063 118.761 59.0163 103.829 11.1146L103.585 11.0955C117.972 59.6905 119.358 63.9694 103.209 11.1888L102.458 11.3754C117.599 67.6343 113.808 64.2714 90.4371 14.3605L89.8078 14.5566C111.995 65.4788 112.79 69.4661 84.3886 16.3407C84.013 16.434 83.7594 16.5368 83.3742 16.752C101.086 54.1995 104.147 63.7612 93.5216 50.4188C89.8088 44.486 83.5834 34.5542 74.6107 20.4825L74.2256 20.6977C79.0163 28.5547 83.0477 35.1257 86.1787 40.6449C82.409 35.4437 77.8704 29.0783 72.5724 21.427L72.4504 21.4175C79.5016 31.7818 85.1182 40.0714 89.2066 45.9108C104.112 72.0993 95.1062 63.1768 63.8455 26.2643L63.4603 26.4795C101.894 73.7659 104.426 77.521 60.7453 28.2298L60.097 28.6697C101.129 78.8578 95.2071 76.0641 49.9311 36.2157L49.809 36.2061C95.2532 77.049 99.5031 80.8159 49.5364 36.5528C49.4049 36.6652 49.1418 36.8899 49.0102 37.0023C100.099 85.769 93.5467 84.7659 35.8062 50.4437L35.4021 50.9028C92.8875 86.9222 96.9408 90.0604 33.2308 53.5542L32.8266 54.0132C75.8143 80.6806 85.1874 88.0373 65.7111 81.1171C58.0153 77.4488 45.0918 71.5317 26.4713 63.0838L26.4428 63.4496C35.077 67.682 42.7633 71.4722 49.1356 74.7918C42.4717 72.0627 34.5033 68.741 25.3524 64.8362C36.6337 69.7663 46.1413 73.8216 53.631 76.9832C91.7614 96.647 77.6985 94.3207 18.6741 78.052L18.6456 78.4178C89.4871 99.0451 94.8748 100.816 18.2224 79.1207L18.1939 79.4864C92.8826 102.745 85.1269 102.997 13.8265 91.411C85.6801 103.776 92.7116 104.94 13.2799 93.6988L13.2419 94.1865C95.9186 109.484 88.8272 112.241 9.51262 116.832L9.48412 117.198C89.6611 114.146 95.9332 114.023 9.31313 119.393L9.29413 119.637C94.4007 116.357 86.596 118.813 9.49961 131.183C86.9432 119.085 94.6528 117.848 9.53616 132.29L9.51716 132.533C98.0308 120.198 91.9334 124.382 12.7016 151.55L12.6826 151.794C93.2 125.462 99.6241 123.389 13.0758 153.051C98.7113 125.648 91.3839 129.859 16.1279 162.734C91.9656 130.272 99.5642 127.309 18.5727 169.181C103.787 129.847 99.1338 135.985 29.7745 189.315L29.8965 189.325C100.269 137.177 106.094 133.34 32.1001 192.564C105.547 135.627 99.5417 141.782 36.461 198.056C99.8888 142.054 106.447 136.679 41.2167 203.212C110.305 137.594 107.323 144.353 54.426 214.917L54.5481 214.926C108.637 144.823 113.365 139.305 58.8454 218.083C113.56 141.529 109.178 148.913 62.7021 220.593C109.525 149.186 114.958 142.496 73.4098 226.582L73.5318 226.592C119.201 143.196 118.153 150.351 88.8869 232.822L89.131 232.841C119.307 151.3 122.392 144.795 95.2511 234.669C122.606 146.774 120.149 154.678 95.4952 234.688C120.374 154.941 123.798 147.236 107.586 237.105L107.708 237.115C127.385 146.903 127.839 153.685 119.425 238.031L119.669 238.05C127.913 165.343 130.312 150.321 129.735 206.577C129.417 215.384 128.976 225.776 128.514 238.006C128.868 230.306 129.175 223.215 129.547 216.866C129.419 223.235 129.366 230.222 129.256 237.941C129.673 223.132 130.135 210.902 130.387 201.354C133.066 157.528 135.678 164.969 144.008 236.151L144.252 236.17C137.59 148.314 139.575 154.357 153.136 234.043L153.38 234.063C145.333 182.897 142.413 162.061 147.311 176.428C148.365 183.379 152.273 202.575 158.414 232.494C153.722 209.189 150.488 192.377 149.155 182.705C151.972 192.248 156.248 208.283 162.077 231.186C155.248 203.789 150.822 186.515 148.492 178.605C146.965 163.521 153.694 178.031 171.977 227.053L172.362 226.838C146.303 148.382 149.219 153.517 178.374 223.751L178.618 223.77C156.763 168.581 151.614 152.723 169.821 182.236C174.076 190.664 180.281 202.434 188.182 217.649L189.065 217.35Z" fill="url(#paint2_radial_399_61)"/>
<path style="mix-blend-mode:color-dodge" opacity="0.3" d="M98.4126 19.1435C154.586 4.27069 212.258 37.8429 227.035 93.9479C241.934 150.063 208.335 207.666 152.171 222.417C95.9971 237.29 38.325 203.717 23.5483 147.612C8.64957 91.4976 42.2486 33.8943 98.4126 19.1435Z" fill="url(#paint3_linear_399_61)"/>
<defs>
<radialGradient id="paint0_radial_399_61" cx="0" cy="0" r="1" gradientUnits="userSpaceOnUse" gradientTransform="translate(174.506 -66.1884) rotate(30.3984) scale(388.734 388.469)">
<stop stop-color="#3300FF"/>
<stop offset="0.1" stop-color="#0037F9"/>
<stop offset="0.24" stop-color="#005DE8"/>
<stop offset="0.39" stop-color="#0039CD"/>
<stop offset="0.54" stop-color="#0030AD"/>
<stop offset="0.6" stop-color="#0010A1"/>
<stop offset="0.72" stop-color="#001582"/>
<stop offset="0.86" stop-color="#020051"/>
<stop offset="1" stop-color="#01001F"/>
</radialGradient>
<radialGradient id="paint1_radial_399_61" cx="0" cy="0" r="1" gradientUnits="userSpaceOnUse" gradientTransform="translate(38.8595 -64.2806) rotate(-14.657) scale(313.979 313.706)">
<stop/>
<stop offset="0.04" stop-color="#060300"/>
<stop offset="0.5" stop-color="#4B2500"/>
<stop offset="0.83" stop-color="#763B00"/>
<stop offset="1" stop-color="#874400"/>
</radialGradient>
<radialGradient id="paint2_radial_399_61" cx="0" cy="0" r="1" gradientUnits="userSpaceOnUse" gradientTransform="translate(134.056 104.596) rotate(59.791) scale(176.793 176.815)">
<stop stop-color="#FFA600"/>
<stop offset="0.08" stop-color="#F9A100"/>
<stop offset="0.19" stop-color="#E89300"/>
<stop offset="0.31" stop-color="#CD7D00"/>
<stop offset="0.44" stop-color="#A85F00"/>
<stop offset="0.54" stop-color="#874400"/>
<stop offset="0.64" stop-color="#763E00"/>
<stop offset="0.82" stop-color="#4B2F00"/>
<stop offset="1" stop-color="#1E1F00"/>
</radialGradient>
<linearGradient id="paint3_linear_399_61" x1="73.8618" y1="170.729" x2="360.628" y2="-108.889" gradientUnits="userSpaceOnUse">
<stop/>
<stop offset="1" stop-color="white"/>
</linearGradient>
</defs>
</svg>
