<svg width="151" height="150" viewBox="0 0 151 150" fill="none" xmlns="http://www.w3.org/2000/svg">
<g style="mix-blend-mode:multiply">
<path d="M60.1222 142.96C22.6493 134.366 -0.846508 97.1987 7.76085 59.6372C16.3682 22.0757 53.5616 -1.25704 91.1657 7.34736C128.639 15.9415 152.134 53.1085 143.527 90.67C134.92 128.231 97.7263 151.564 60.1222 142.96Z" fill="black"/>
</g>
<path style="mix-blend-mode:screen" d="M115.441 75.3914C111.842 88.6405 98.1888 96.5948 84.8227 92.9889C71.4565 89.3831 63.5931 75.7517 67.2006 62.4008C70.8001 49.1517 84.453 41.1974 97.8192 44.8032C111.083 48.4011 119.049 62.0404 115.441 75.3914Z" fill="url(#paint0_linear_102_147)"/>
<g style="mix-blend-mode:screen">
<path d="M53.9944 85.6623C49.8604 84.7246 47.3068 80.6302 48.2369 76.6028C49.1669 72.5754 53.2733 69.9234 57.3053 70.8532C61.4392 71.7909 63.9928 75.8852 63.0628 79.9126C62.1248 84.0419 58.0264 86.592 53.9944 85.6623Z" fill="white"/>
</g>
<defs>
<linearGradient id="paint0_linear_102_147" x1="85.9352" y1="23.4922" x2="94.4938" y2="96.2796" gradientUnits="userSpaceOnUse">
<stop stop-color="#BFBFBF"/>
<stop offset="1"/>
</linearGradient>
</defs>
</svg>
