<svg width="416" height="654" viewBox="0 0 416 654" fill="none" xmlns="http://www.w3.org/2000/svg">
<path style="mix-blend-mode:multiply" d="M466.828 490.016C557.123 412.883 567.712 277.226 490.48 187.016C413.247 96.8071 277.44 86.2062 187.145 163.339C96.8498 240.471 86.2606 376.129 163.493 466.338C240.725 556.547 376.533 567.148 466.828 490.016Z" fill="url(#paint0_radial_221_17)"/>
<path d="M484.918 335.547C508.469 248.777 457.139 159.354 370.271 135.815C283.402 112.275 193.89 163.533 170.339 250.303C146.789 337.073 198.119 426.496 284.987 450.035C371.856 473.575 461.368 422.317 484.918 335.547Z" fill="url(#paint1_radial_221_17)"/>
<defs>
<radialGradient id="paint0_radial_221_17" cx="0" cy="0" r="1" gradientUnits="userSpaceOnUse" gradientTransform="translate(327.024 326.656) rotate(4.46335) scale(215.143 214.905)">
<stop offset="0.59" stop-color="#8F5F33"/>
<stop offset="0.6" stop-color="#926339"/>
<stop offset="0.65" stop-color="#AE8C6D"/>
<stop offset="0.71" stop-color="#C7AF99"/>
<stop offset="0.77" stop-color="#DBCCBE"/>
<stop offset="0.83" stop-color="#EBE2DA"/>
<stop offset="0.89" stop-color="#F6F2EE"/>
<stop offset="0.94" stop-color="#FCFBFA"/>
<stop offset="1" stop-color="white"/>
</radialGradient>
<radialGradient id="paint1_radial_221_17" cx="0" cy="0" r="1" gradientUnits="userSpaceOnUse" gradientTransform="translate(345.837 282.43) rotate(-120.266) scale(178.078 178.147)">
<stop offset="0.25" stop-color="white"/>
<stop offset="0.46" stop-color="#FCFCFC"/>
<stop offset="0.61" stop-color="#F4F3F2"/>
<stop offset="0.74" stop-color="#E5E4E2"/>
<stop offset="0.86" stop-color="#D2CFCC"/>
<stop offset="0.97" stop-color="#B8B4AF"/>
</radialGradient>
</defs>
</svg>
