<svg width="206" height="206" viewBox="0 0 206 206" fill="none" xmlns="http://www.w3.org/2000/svg">
<path d="M95.3789 197.959C148.046 202.07 194.071 162.754 198.178 110.145C202.284 57.536 162.918 11.555 110.25 7.44388C57.5827 3.33274 11.5582 42.6482 7.45156 95.2574C3.34497 147.867 42.7114 193.848 95.3789 197.959Z" fill="white" style="mix-blend-mode:multiply"/>
<path style="mix-blend-mode:multiply" d="M95.3789 197.959C148.046 202.07 194.071 162.754 198.178 110.145C202.284 57.536 162.918 11.555 110.25 7.44388C57.5827 3.33274 11.5582 42.6482 7.45156 95.2574C3.34497 147.867 42.7114 193.848 95.3789 197.959Z" fill="url(#paint0_radial_102_140)"/>
<path style="mix-blend-mode:screen" d="M181.311 61.9853C131.736 79.2307 124.774 81.6597 182.795 67.9437C125.249 84.7719 132.687 85.4549 185.469 84.9625C132.701 86.5836 125.278 87.0291 185.054 91.5926C125.581 89.7178 133.213 91.8511 183.699 103.684C133.056 92.5563 125.172 91.0184 181.125 111.684C123.6 94.0731 130.013 98.6738 174.865 126.16C129.533 99.5588 122.633 95.9452 169.804 133.145C121.336 98.0989 126.924 104.07 163.778 140.67C126.468 104.65 120.33 99.148 155.101 147.987C117.119 100.845 120.062 107.84 143.731 155.607C119.191 108.489 115.282 102.034 132.719 159.975C112.943 103.081 114.41 110.576 125.874 162.208C113.672 110.826 111.475 103.479 112.095 163.9C108.125 103.013 106.973 109.893 101.62 164.005C105.843 109.907 105.866 103.041 87.5702 161.268C103.418 102.85 101.057 109.431 83.3422 160.221C100.351 109.273 102.006 102.535 70.3708 154.186C99.7713 100.926 95.7801 106.047 64.2779 150.738C94.792 105.56 97.803 99.8495 52.5665 140.394C95.7566 98.4598 90.6991 102.78 49.9877 137.937C90.221 102.333 94.7063 97.4553 42.0434 126.657C93.5474 95.2123 87.8091 97.7369 39.1375 121.818C87.2688 96.7722 92.4745 93.1811 33.6611 106.528C91.1276 90.7184 84.6768 91.8549 32.301 101.604C84.4344 91.016 90.7289 89.2523 31.1916 89.5249C90.8178 86.7992 84.6042 86.2117 31.0409 83.5681C84.6917 85.091 90.9928 84.5579 33.4099 68.993C91.1134 81.6973 84.933 79.3698 35.0567 62.3565C85.0907 78.6646 91.4208 80.3888 38.6905 53.9277C92.5918 78.5327 87.4248 75.0543 41.8512 47.6143C88.1163 74.0833 93.8649 76.6845 49.1899 37.7322C95.3896 74.241 91.1657 69.1963 55.3641 30.9366C91.7154 68.7267 96.387 73.2939 60.6176 26.7341C98.3104 72.3165 95.5621 66.772 68.3442 21.0847C96.5278 66.2324 100.242 71.2373 77.3013 16.7614C102.809 69.9002 101.662 63.5581 88.5021 12.6132C102.392 63.4101 104.276 69.5022 93.3912 11.7648C106.52 69.6774 107.091 63.6744 106.033 10.1891C108.111 63.7541 108.764 69.8525 113.087 10.5347C111.432 69.8558 113.541 63.8704 126.392 12.2908C114.145 64.02 112.734 70.2649 129.388 13.3447C114.694 71.4429 118.058 66.4779 143.247 18.5265C118.944 66.9571 116.458 72.5031 147.654 21.228C118.741 73.5013 123.492 69.1572 159.132 29.299C123.962 69.7064 119.783 74.6077 161.789 32.0689C121.476 76.5848 127.356 73.5588 172.51 44.5908C127.896 74.5234 122.565 78.4123 175.204 49.5161C124.249 80.4913 131.47 78.6974 181.193 62.1811L181.311 61.9853Z" fill="url(#paint1_radial_102_140)"/>
<path style="mix-blend-mode:screen" opacity="0.3" d="M157.335 181.167C152.449 171.458 148.354 163.451 145.269 156.957C148.904 162.981 153.431 170.714 158.757 180.048L158.859 180.056C150.408 164.738 144.378 153.915 140.69 147.272C132.924 129.754 140.143 137.185 167.198 173.122L167.528 172.84C131.184 120.495 134.21 123.806 169.971 170.468L170.191 170.28C146.513 138.399 138.232 126.17 149.269 135.949C153.101 140.759 161.753 150.864 174.55 165.7C164.41 153.634 156.903 144.643 152.522 138.971C157.876 144.001 165.879 151.903 176.703 163.101C162.674 148.271 153.746 139.066 149.545 135.048C143.764 126.295 153.196 132.976 181.417 156.601L181.763 156.116C138.148 116.734 141.566 118.948 183.28 153.774L183.516 153.383C146.609 121.392 141.273 114.825 177.54 135.286C181.061 137.508 184.965 140.068 189.262 142.864L189.278 142.66C186.644 140.917 184.205 139.291 181.861 137.776C184.221 139.088 186.871 140.627 189.522 142.166L189.758 141.775C180.262 135.909 172.923 131.338 167.536 128.048C149.15 115.133 155.606 116.559 193.085 133.322L193.133 132.711C145.194 109.289 148.464 110.774 193.487 132.123L193.511 131.818C159.625 115.028 150.223 109.271 170.523 114.751C176.1 116.929 184.57 120.152 195.629 124.398C186.97 120.955 180.006 118.156 174.641 115.892C180.164 117.451 187.278 119.646 195.992 122.376L196.024 121.969C181.427 117.037 171.615 113.914 166.509 112.285C156.526 107.406 165.571 108.522 197.137 115.598C197.153 115.395 197.169 115.191 197.185 114.987C149.21 102.53 152.45 103.09 197.264 113.968L197.304 113.459C153.071 101.704 149.81 98.784 197.944 101.311C197.968 101.006 197.984 100.802 198.008 100.496C152.685 96.1384 156.247 96.5189 198.048 99.9868L198.064 99.7831C156.608 95.8296 153.04 94.2186 197.592 92.6738C197.616 92.3681 197.538 92.0545 197.452 91.8428C155.224 91.2116 151.97 89.5225 195.908 82.7023C195.924 82.4985 195.838 82.2868 195.752 82.0751C192.126 82.5096 188.917 82.874 186.013 83.2624C157.05 86.2291 157.561 84.9365 194.337 76.5321L194.173 76.0068C152.062 84.4047 154.683 83.6868 194.017 75.3796C194.033 75.1759 193.947 74.9641 193.861 74.7524C154.402 82.0249 150.818 80.6176 190.058 64.3081C189.878 63.9865 189.706 63.5631 189.526 63.2415C151.858 76.4963 154.441 74.9554 188.383 60.7948L188.407 60.4891C154.301 74.1244 151.099 74.387 186.065 56.3088L185.791 55.8774C148.997 73.7104 151.352 72.4593 185.431 55.2343L185.164 54.701C150.954 70.9932 147.698 70.6365 180.504 47.3672C180.323 47.0456 180.135 46.8259 179.853 46.4964C147.874 67.0628 149.979 65.0745 178.56 44.653L178.576 44.4492C149.713 64.5413 146.958 65.6587 176.413 41.9229L176.131 41.5934C144.894 65.8051 146.677 63.9968 175.387 40.6128C175.191 40.495 175.105 40.2832 174.909 40.1654C145.321 62.9684 142.025 63.1212 168.262 33.2916C167.878 32.9541 167.596 32.6246 167.212 32.2871C140.491 59.1064 141.53 56.3175 163.559 29.132L163.269 28.9043C140.856 55.7524 138.657 57.6307 161.238 27.3108L160.854 26.9733C136.561 58.1847 137.576 55.7014 158.918 25.4897C158.722 25.3719 158.628 25.262 158.432 25.1442C136.416 54.7908 133.653 56.0101 152.183 21.0689C151.791 20.8333 151.5 20.6057 151.108 20.3701C131.639 52.8805 132.082 49.84 146.976 18.1L146.772 18.084C131.478 49.6903 130.157 52.1498 146.082 17.7227L145.776 17.6988C128.508 53.5585 129.123 50.9415 143.611 16.5048L143.117 16.2613C127.593 50.8221 125.19 52.6845 136.365 13.3767C135.965 13.243 135.471 12.9994 135.071 12.8657C121.999 50.1805 121.446 46.7547 128.56 10.82L128.255 10.7961C120.52 46.785 119.669 49.7936 127.251 10.5127L126.741 10.4729C117.69 51.4841 117.105 48.4659 121.509 9.142C121.305 9.12608 121.101 9.11016 120.897 9.09423C115.465 48.4404 113.925 51.0877 114.817 8.10715C114.409 8.07531 114.001 8.04346 113.593 8.01162C111.096 40.0018 109.756 45.3298 107.993 28.4846C107.865 23.5545 107.589 16.563 107.277 7.41613C107.277 7.41613 107.073 7.40021 106.971 7.39224C107.029 11.9068 107.127 15.9119 107.257 19.5096C107.017 16.0059 106.723 11.8829 106.359 7.34448L106.155 7.32855C106.571 15.151 106.996 21.5392 107.336 26.3833C107.477 49.5593 105.853 41.4376 101.746 7.29186L101.236 7.25205C105.429 49.502 104.782 52.5265 96.0806 7.56714C95.7746 7.54325 95.3587 7.61329 95.0447 7.69129C101.212 52.2479 98.6032 48.8667 86.1302 8.84044L85.9262 8.82451C97.9435 49.4302 99.101 53.0056 85.6123 8.90251L84.9845 9.05851C97.6306 56.0683 94.4636 53.2586 74.9387 11.5544L74.4128 11.7183C92.9483 54.2678 93.6117 57.5996 69.884 13.2098C69.5701 13.2878 69.3581 13.3738 69.0363 13.5536C83.8329 44.8437 86.3903 52.8334 77.5122 41.6854C74.4103 36.7282 69.209 28.4297 61.7125 16.672L61.3906 16.8518C65.3932 23.4168 68.7613 28.9072 71.3771 33.5189C68.2275 29.1731 64.4355 23.8545 60.009 17.4615L59.907 17.4535C65.7984 26.1134 70.491 33.0398 73.9069 37.9189C86.3595 59.801 78.8349 52.3461 52.7157 21.5047L52.3938 21.6846C84.5064 61.1939 86.6215 64.3315 50.1247 23.1475L49.5829 23.5152C83.8664 65.4489 78.9178 63.1151 41.0867 29.822L40.9848 29.814C78.9562 63.9381 82.5073 67.0853 40.7569 30.1038C40.647 30.1977 40.4271 30.3855 40.3171 30.4794C83.0051 71.2242 77.5293 70.3868 29.2815 41.7131L28.9437 42.0967C76.9782 72.1888 80.365 74.8107 27.1289 44.3125L26.7911 44.6962C62.7114 66.9751 70.5433 73.1215 54.2685 67.3411C47.8378 64.2766 37.0387 59.3336 21.4792 52.2766L21.4553 52.5822C28.6701 56.1179 35.0929 59.2842 40.4176 62.0574C34.8491 59.7777 28.1906 57.003 20.5439 53.7411C29.9708 57.8594 37.9155 61.2471 44.174 63.8881C76.036 80.3153 64.2844 78.373 14.9616 64.7854L14.9377 65.091C74.1351 82.3194 78.6373 83.7983 14.584 65.6784L14.5602 65.984C76.9722 85.4109 70.491 85.6224 10.9091 75.9491C70.9533 86.2735 76.8291 87.2447 10.452 77.8609L10.4202 78.2684C79.5085 91.0413 73.5822 93.3463 7.30123 97.1925L7.27737 97.4982C74.2789 94.9382 79.5203 94.8348 7.13423 99.332L7.11832 99.5357C78.2393 96.7848 71.7169 98.8382 7.28872 109.184C72.007 99.0658 78.4498 98.0312 7.31914 110.109L7.30323 110.313C81.2724 99.9941 76.1766 103.491 9.96222 126.203L9.94631 126.407C77.2349 104.394 82.6035 102.66 10.2747 127.457C81.8405 104.548 75.7167 108.068 12.8242 135.549C76.2028 108.413 82.553 105.937 14.8664 140.936C86.0816 108.057 82.1924 113.186 24.2251 157.759L24.3271 157.767C83.1407 114.182 88.0087 110.975 26.1681 160.473C87.5517 112.887 82.5325 118.03 29.8118 165.062C82.8226 118.258 88.304 113.765 33.7853 169.37C91.528 114.53 89.0348 120.178 44.8226 179.149L44.9246 179.157C90.1329 120.571 94.0843 115.959 48.5154 181.795C94.2472 117.817 90.5844 123.989 51.738 183.891C90.8744 124.216 95.4154 118.626 60.6853 188.895L60.7873 188.903C98.9613 119.21 98.0841 125.189 73.6183 194.107L73.8223 194.123C99.0484 125.982 101.628 120.546 78.9364 195.65C101.806 122.199 99.7516 128.804 79.1404 195.665C99.9397 129.024 102.802 122.585 89.2442 197.684L89.3462 197.692C105.8 122.306 106.179 127.973 99.1375 198.456L99.3415 198.472C106.239 137.716 108.245 125.162 107.757 172.172C107.49 179.531 107.12 188.215 106.733 198.434C107.03 192 107.287 186.075 107.598 180.769C107.491 186.091 107.446 191.93 107.353 198.38C107.703 186.005 108.09 175.785 108.302 167.807C110.545 131.184 112.728 137.402 119.681 196.882L119.885 196.898C114.328 123.484 115.986 128.534 127.309 195.12L127.513 195.136C120.794 152.382 118.356 134.971 122.447 146.976C123.328 152.785 126.591 168.824 131.72 193.825C127.801 174.351 125.101 160.303 123.988 152.221C126.341 160.195 129.913 173.594 134.781 192.731C129.077 169.838 125.381 155.405 123.434 148.795C122.161 136.191 127.781 148.315 143.054 189.277L143.376 189.097C121.609 123.54 124.044 127.83 148.401 186.517L148.605 186.533C130.348 140.417 126.046 127.167 141.258 151.827C144.812 158.869 149.996 168.704 156.597 181.417L157.335 181.167Z" fill="url(#paint2_radial_102_140)"/>
<path style="mix-blend-mode:color-dodge" opacity="0.3" d="M81.6031 15.5599C128.544 3.13155 176.738 31.186 189.086 78.0701C201.536 124.962 173.459 173.098 126.526 185.425C79.5847 197.853 31.3911 169.799 19.043 122.915C6.59296 76.0225 34.6699 27.8865 81.6031 15.5599Z" fill="url(#paint3_linear_102_140)"/>
<defs>
<radialGradient id="paint0_radial_102_140" cx="0" cy="0" r="1" gradientUnits="userSpaceOnUse" gradientTransform="translate(145.19 -55.7474) rotate(30.3984) scale(324.845 324.623)">
<stop stop-color="#3300FF"/>
<stop offset="0.1" stop-color="#0037F9"/>
<stop offset="0.24" stop-color="#005DE8"/>
<stop offset="0.39" stop-color="#0039CD"/>
<stop offset="0.54" stop-color="#0030AD"/>
<stop offset="0.6" stop-color="#0010A1"/>
<stop offset="0.72" stop-color="#001582"/>
<stop offset="0.86" stop-color="#020051"/>
<stop offset="1" stop-color="#01001F"/>
</radialGradient>
<radialGradient id="paint1_radial_102_140" cx="0" cy="0" r="1" gradientUnits="userSpaceOnUse" gradientTransform="translate(31.838 -54.1531) rotate(-14.657) scale(262.375 262.147)">
<stop/>
<stop offset="0.04" stop-color="#060300"/>
<stop offset="0.5" stop-color="#4B2500"/>
<stop offset="0.83" stop-color="#763B00"/>
<stop offset="1" stop-color="#874400"/>
</radialGradient>
<radialGradient id="paint2_radial_102_140" cx="0" cy="0" r="1" gradientUnits="userSpaceOnUse" gradientTransform="translate(111.379 86.953) rotate(59.7937) scale(147.717 147.775)">
<stop stop-color="#FFA600"/>
<stop offset="0.08" stop-color="#F9A100"/>
<stop offset="0.19" stop-color="#E89300"/>
<stop offset="0.31" stop-color="#CD7D00"/>
<stop offset="0.44" stop-color="#A85F00"/>
<stop offset="0.54" stop-color="#874400"/>
<stop offset="0.64" stop-color="#763E00"/>
<stop offset="0.82" stop-color="#4B2F00"/>
<stop offset="1" stop-color="#1E1F00"/>
</radialGradient>
<linearGradient id="paint3_linear_102_140" x1="61.0874" y1="142.232" x2="300.723" y2="-91.4301" gradientUnits="userSpaceOnUse">
<stop/>
<stop offset="1" stop-color="white"/>
</linearGradient>
</defs>
</svg>
