<svg width="69" height="68" viewBox="0 0 69 68" fill="none" xmlns="http://www.w3.org/2000/svg">
<path style="mix-blend-mode:multiply" d="M43.0862 58.6926C29.3825 63.3917 14.4254 56.0956 9.71258 42.4002C4.99977 28.7048 12.2914 13.7655 25.9952 9.06645C39.6989 4.36737 54.656 11.6634 59.3689 25.3589C64.0817 39.0543 56.79 53.9935 43.0862 58.6926Z" fill="url(#paint0_radial_430_341)"/>
<path style="mix-blend-mode:screen" opacity="0.3" d="M43.4883 58.5698C42.8828 55.6665 42.3717 53.2447 41.9945 51.3187C42.5334 53.1691 43.192 55.5548 43.9592 58.3824C42.7861 53.7079 41.9642 50.4131 41.4286 48.4298C40.6145 43.259 41.9637 45.7159 46.6405 57.1616L46.7483 57.1112C40.7612 40.6282 41.3457 41.7345 47.546 56.6397L47.5856 56.654C43.5692 46.4763 42.2284 42.6358 44.4604 45.994C45.1536 47.5423 46.7344 50.8435 49.0623 55.6679C47.2035 51.7739 45.8392 48.8642 45.1132 47.0356C46.1626 48.7129 47.7317 51.4284 49.8348 55.1425C47.1506 50.1891 45.4299 47.1503 44.6256 45.7854C43.6966 43.0333 45.7257 45.4681 51.5878 53.7645L51.71 53.6745C42.9042 40.1518 43.6286 40.9957 52.2955 53.1708L52.3241 53.0917C44.828 42.0116 43.8426 39.9101 52.0566 47.8953C52.8206 48.7535 53.689 49.6943 54.6618 50.7176C54.1068 50.0245 53.5626 49.4248 53.0581 48.8395C53.577 49.3853 54.175 49.9598 54.773 50.5342L54.816 50.4156C52.7549 48.1929 51.1335 46.4873 49.9265 45.245C45.9442 40.5371 47.5749 41.3514 56.345 48.4196L56.4023 48.2614C45.3261 38.6581 46.0825 39.2899 56.5388 48.1319L56.5674 48.0528C48.7509 41.1958 46.6216 39.0378 51.6763 41.8975C53.0232 42.8773 55.011 44.313 57.6795 46.2189C55.6411 44.6754 53.9809 43.4479 52.7132 42.4967C54.0778 43.304 55.7952 44.3734 57.9448 45.7335L57.9735 45.6544C54.4231 43.3396 52.079 41.7749 50.8332 41.0106C48.5531 39.0217 50.8602 39.9467 58.7334 44.0508L58.7907 43.8926C46.9207 37.2227 47.7631 37.6172 58.891 43.6158L58.9339 43.4972C48.0251 37.2648 47.358 36.2627 59.9467 40.3301L60.0183 40.1323C48.2888 35.7946 49.1994 36.1244 60.0217 39.9994L60.0503 39.9203C49.3106 35.941 48.475 35.2805 60.432 38.0008C60.4607 37.9217 60.4893 37.8426 60.4784 37.7492C49.3301 34.6508 48.5627 33.9256 60.7296 35.2009L60.7869 35.0427C59.7651 34.8963 58.8764 34.7534 58.0526 34.6787C50.1734 33.4353 50.3814 33.1081 60.7339 33.4579L60.7912 33.2997C48.9705 32.5523 49.7295 32.5588 60.7297 33.0985L60.787 32.9403C49.7287 32.0665 48.8788 31.4455 60.4259 29.8571C60.4149 29.7637 60.3787 29.6164 60.3678 29.5229C49.4382 30.3956 50.2292 30.19 60.2263 28.8007L60.255 28.7216C50.2359 29.924 49.3869 29.7955 59.9148 27.4353L59.8786 27.288C48.8756 29.4761 49.5731 29.2814 59.8171 27.0868L59.7809 26.9395C49.5436 28.8681 48.7122 28.567 59.0398 24.6581C59.0288 24.5647 58.964 24.4964 58.9134 24.3887C48.9768 27.5892 49.6524 27.2076 58.6751 23.8103C49.6558 27.0747 48.8538 27.1868 58.3104 22.9625L58.2599 22.8547C48.2709 27.0652 48.8387 26.734 58.1083 22.5314L58.0325 22.3697C48.5827 26.3281 47.6544 26.1709 56.759 20.0744C56.7085 19.9667 56.6184 19.8446 56.5282 19.7224C47.5517 24.9706 48.0218 24.2909 55.771 18.5983L55.6918 18.5696C47.8811 24.0611 47.166 24.4283 55.2951 17.9338L55.205 17.8117C46.5544 24.3857 47.0211 23.839 54.8049 17.309L54.7148 17.1869C46.776 23.5266 45.9741 23.6387 53.3419 15.6607C53.277 15.5925 53.1726 15.51 53.1221 15.4022C45.6667 22.6327 45.9784 21.8957 52.1998 14.4866L52.1602 14.4723C45.8883 21.7736 45.3677 22.3455 52.0304 14.3358L51.9513 14.3071C44.8682 22.6119 45.1908 21.9683 51.4577 13.8152L51.3389 13.7722C44.7949 21.8249 44.0545 22.1383 49.747 12.4799C49.6282 12.4369 49.5381 12.3148 49.4193 12.2718C43.3444 21.2549 43.422 20.2988 47.8602 11.2597L47.781 11.2311C43.2097 20.2667 42.7649 21.0002 47.5325 11.0516L47.3742 10.9943C42.0927 21.2488 42.1273 20.4114 46.0745 10.2551L45.9161 10.1978C41.6918 20.2537 41.1173 20.8508 44.3755 9.50558L44.0588 9.39087C41.1841 17.6989 40.3913 19.0222 41.1211 14.4106C41.4211 13.0878 41.8281 11.2222 42.4104 8.7491L42.3312 8.72042C42.0346 9.91026 41.7666 11.021 41.556 11.9736C41.727 11.0067 41.9411 9.92113 42.1585 8.70261L42.1189 8.68827C41.6799 10.7659 41.3555 12.5272 41.0698 13.8105C39.4613 19.9826 39.6518 17.7255 40.9422 8.35153L40.8234 8.30852C38.9862 19.8106 38.6063 20.6124 39.4453 8.03307L39.1682 7.9327C37.6704 20.2287 37.2047 19.1653 36.7111 7.66902L36.6319 7.64035C36.989 19.2661 37.0159 20.3047 36.5384 7.65121L36.38 7.59386C36.3984 21.0205 35.7709 20.0328 33.5169 7.58573L33.3585 7.52837C35.2748 20.1662 35.1972 21.1222 32.0495 7.68053C31.9703 7.65185 31.8625 7.70226 31.8229 7.68792C33.5431 17.034 33.6584 19.3124 32.0843 15.7451C31.6177 14.1894 30.8295 11.6672 29.6437 8.01698L29.5645 7.98831C30.1506 10.0794 30.6534 11.7824 31.0442 13.1765C30.506 11.8185 29.8701 10.112 29.1619 8.11088C30.1051 10.8234 30.8892 12.9861 31.4492 14.531C33.2371 21.2175 31.7294 18.7032 26.9902 8.66634L26.8824 8.71675C32.6583 21.4552 32.9657 22.4612 26.1706 8.95101L26.0089 9.02663C32.1638 22.5734 31.0292 21.6256 23.3309 10.1145C30.9972 21.8377 31.7687 22.9223 23.2231 10.1649L23.0614 10.2405C31.5403 24.0474 30.1438 23.4521 19.3566 12.4326L19.2487 12.483C29.8675 23.8441 30.6028 24.7814 18.6237 12.9723L18.5015 13.0623C26.4645 21.4933 28.1263 23.7056 24.2264 20.9958C22.7532 19.7465 20.2356 17.6716 16.569 14.6885L16.5404 14.7676C18.2082 16.2216 19.667 17.5104 20.9313 18.5946C19.5988 17.5752 18.0574 16.3906 16.2279 15.0123C18.4608 16.7604 20.3013 18.2322 21.7635 19.3881C29.094 25.9796 26.092 24.6239 13.9121 17.5732L13.8834 17.6523C28.3645 26.3864 29.5058 27.0682 13.7469 17.7818L13.7183 17.8609C28.9238 27.4389 27.2037 26.9948 12.0461 20.2524C27.2652 27.196 28.7662 27.8739 11.795 20.6983L11.7664 20.7774C29.2033 29.0163 27.4663 29.2371 9.58009 25.5772L9.55144 25.6563C27.5354 29.6647 28.9244 30.0336 9.37957 26.1308C28.4215 30.433 26.5548 30.5174 8.74003 28.7621C26.6449 30.6395 28.4257 30.7924 8.65409 28.9994C29.0203 31.4998 27.3811 32.0692 8.20817 33.4454C27.5866 32.3673 29.1331 32.3012 8.17276 33.7905C28.8029 32.7184 26.9118 33.2412 8.27367 36.1084C27.0019 33.3633 28.8719 33.146 8.45971 37.6967C29.6898 33.979 28.2636 35.0728 9.7414 42.8132C28.4152 35.3961 29.9467 34.8772 10.0269 43.6323C29.6956 35.3231 27.9923 36.3166 10.6552 45.1124C28.0032 36.41 29.8076 35.6321 11.3913 46.5421C30.596 36.0518 29.4975 37.3538 13.6233 49.9003C29.746 37.5333 31.1149 36.5976 14.3982 50.8519C31.0222 37.1008 29.6431 38.4354 15.0973 51.6419C29.6937 38.5432 31.2816 37.3737 17.1255 53.5843C32.1778 37.743 31.5257 39.2962 20.1974 55.86L20.237 55.8743C31.7456 39.5547 32.7902 38.278 21.4828 56.6387C32.7118 38.7416 31.6857 40.3383 21.5224 56.653C31.7363 40.446 32.9207 38.9068 24.0746 57.8905C33.7302 39.021 33.4378 40.5702 26.6083 58.8082L26.6479 58.8225C32.7587 43.1872 34.1454 39.9766 30.7128 52.4217C30.1044 54.3486 29.4068 56.6457 28.6198 59.3131C29.1422 57.6235 29.6073 56.0921 30.069 54.6936C29.7008 56.0812 29.2214 57.6522 28.7386 59.3561C29.7008 56.0812 30.4878 53.4138 31.1138 51.3144C34.2599 41.7626 34.4139 43.563 32.0701 59.8022L32.1493 59.8309C35.8108 39.9535 35.9067 41.4197 34.2392 59.8721L34.2787 59.8864C35.5111 48.0759 36.086 43.274 36.3039 46.7526C36.1302 48.3449 35.8823 52.8626 35.5052 59.8386C35.8164 54.4044 36.1157 50.4868 36.3855 48.2584C36.4468 50.562 36.4566 54.3679 36.4259 59.7695C36.5376 53.2789 36.5345 49.207 36.5026 47.3167C37.0689 43.8984 37.6827 47.5204 38.8713 59.4474L38.9505 59.476C37.8079 40.4979 38.1481 41.7842 40.4785 59.0901L40.5181 59.1044C38.9313 45.557 38.6948 41.7585 41.0057 49.3502C41.4587 51.4378 42.1147 54.4489 43.0023 58.3043L43.4883 58.5698Z" fill="url(#paint1_radial_430_341)"/>
<path style="mix-blend-mode:color-dodge" opacity="0.3" d="M45.6589 11.8944C57.6712 17.6765 62.6982 32.112 56.9196 44.1101C51.141 56.1081 36.6968 61.1206 24.6845 55.3384C12.6721 49.5562 7.64513 35.1207 13.4237 23.1227C19.2023 11.1246 33.6465 6.11219 45.6589 11.8944Z" fill="url(#paint2_linear_430_341)"/>
<defs>
<radialGradient id="paint0_radial_430_341" cx="0" cy="0" r="1" gradientUnits="userSpaceOnUse" gradientTransform="translate(71.6948 8.41334) rotate(70.9687) scale(89.1632 89.184)">
<stop stop-color="#FF9D00"/>
<stop offset="0.0001" stop-color="#0500FF"/>
<stop offset="0.1" stop-color="#0500F9"/>
<stop offset="0.24" stop-color="#2000E8"/>
<stop offset="0.39" stop-color="#0039CD"/>
<stop offset="0.54" stop-color="#2D00AD"/>
<stop offset="0.6" stop-color="#0006A1"/>
<stop offset="0.72" stop-color="#2A0082"/>
<stop offset="0.86" stop-color="#000851"/>
<stop offset="1" stop-color="#02001F"/>
</radialGradient>
<radialGradient id="paint1_radial_430_341" cx="0" cy="0" r="1" gradientUnits="userSpaceOnUse" gradientTransform="translate(37.9474 30.2378) rotate(74.6097) scale(40.5604 40.5754)">
<stop stop-color="#4200FF"/>
<stop offset="0.08" stop-color="#0028F9"/>
<stop offset="0.19" stop-color="#2000E8"/>
<stop offset="0.31" stop-color="#1000CD"/>
<stop offset="0.44" stop-color="#0011A8"/>
<stop offset="0.54" stop-color="#0B0087"/>
<stop offset="0.64" stop-color="#1F0076"/>
<stop offset="0.82" stop-color="#0A004B"/>
<stop offset="1" stop-color="#08001F"/>
</radialGradient>
<linearGradient id="paint2_linear_430_341" x1="18.7096" y1="34.6504" x2="110.511" y2="28.7255" gradientUnits="userSpaceOnUse">
<stop/>
<stop offset="1" stop-color="white"/>
</linearGradient>
</defs>
</svg>
