<svg width="294" height="410" viewBox="0 0 294 410" fill="none" xmlns="http://www.w3.org/2000/svg">
<mask id="mask0_102_135" style="mask-type:alpha" maskUnits="userSpaceOnUse" x="42" y="42" width="327" height="326">
<path style="mix-blend-mode:overlay" d="M362.918 247.547C386.469 160.777 335.139 71.3543 248.271 47.8148C161.402 24.2753 71.8897 75.5334 48.3394 162.303C24.7891 249.073 76.1187 338.496 162.987 362.035C249.856 385.575 339.368 334.317 362.918 247.547Z" fill="url(#paint0_radial_102_135)"/>
</mask>
<g mask="url(#mask0_102_135)">
<path style="mix-blend-mode:multiply" d="M46.4636 279.734C37.9356 286.448 29.9906 290.953 20.3912 294.304C30.951 287.851 37.3638 277.999 40.1765 266.943C41.965 259.805 41.2342 253.393 41.469 246.441C41.9596 234.897 48.1591 226.464 57.0819 217.32C57.3018 217.132 57.0197 216.803 56.7919 217.092C49.346 224.404 41.9863 231.927 40.6188 241.558C39.4408 250.076 41.1982 257.798 39.0784 266.55C39.3329 263.29 37.6958 260.6 33.7991 257.938C31.0705 256.085 28.0332 256.873 24.9828 255.2C19.376 252.097 19.2094 246.344 19.6547 240.639C20.283 232.59 24.175 224.796 29.6432 217.843C22.4781 226.817 17.7117 237.924 19.3801 248.1C20.074 252.356 21.5244 253.495 24.7311 255.795C28.3298 258.331 34.7395 259.036 37.207 262.919C38.3977 264.754 37.5219 269.401 37.0952 272.238C37.0873 272.34 37.0793 272.441 37.2833 272.457C33.8217 281.31 27.7879 288.936 19.1116 294.921C16.3723 295.835 13.327 296.725 10.1877 297.505L9.88175 297.481C7.59816 297.815 5.50264 298.369 3.20313 298.907C2.57527 299.063 2.53551 299.573 2.70768 299.996C-0.391853 300.267 -3.50729 300.741 -6.69431 302.132C-7.33012 302.39 -7.40169 303.307 -6.5778 303.269C4.07852 302.153 14.0593 301.805 23.5263 297.521C30.7785 295.32 37.8917 290.955 44.3307 286.025C48.9536 284.643 53.183 284.359 58.3369 285.376C63.1848 286.369 67.4353 288.444 72.5191 289.045C84.0044 290.454 95.5642 288.282 107.095 283.852C107.307 283.766 107.237 283.35 107.017 283.538C87.6219 290.122 73.2901 287.056 56.1038 282.434C53.9938 281.859 52.1659 281.614 50.4161 281.683C52.521 279.694 54.6258 277.706 56.7307 275.718C61.5762 271.484 66.6337 267.163 71.6673 263.149C79.9422 258.362 88.4328 257.385 98.64 258.079C108.125 258.82 116.331 260.178 126.165 257.768C126.581 257.698 126.527 257.078 126.213 257.156C110.604 259.936 95.7725 254.063 80.28 257.979C79.3382 258.213 78.4984 258.454 77.6507 258.798C94.1873 246.764 112.156 238.737 132.667 245.463C133.169 245.604 133.632 244.923 133.138 244.68C116.739 237.864 97.4871 242.614 80.5836 252.775C70.0316 259.126 61.3844 267.369 52.141 275.36C51.0416 276.299 49.9421 277.238 48.8427 278.177C54.091 271.412 56.367 263.287 60.0948 254.968C61.6991 251.506 63.4914 248.263 65.5658 245.35C70.4829 240.199 75.8001 235.181 83.137 234.524C87.9942 234.083 91.1944 235.153 95.6423 236.013C102.114 237.235 108.541 236.404 115.111 233.74C115.747 233.482 115.497 232.745 114.869 232.901C107.059 235.674 100.766 236.105 93.3998 234.505C90.1758 233.741 86.9598 232.875 83.3503 233.106C78.187 233.523 73.7747 236.151 70.0207 239.548C84.6237 223.365 106.946 216.087 128.955 215.448C129.261 215.472 129.191 215.056 128.987 215.04C110.941 214.862 92.1051 219.541 76.6983 231.561C69.8115 236.969 64.1711 243.499 60.4129 250.893C55.326 260.848 53.7612 271.694 46.4398 280.04L46.4636 279.734ZM134.098 384.872C129.829 393.559 123.199 400.934 112.06 405.6C111.746 405.678 112.02 406.109 112.232 406.023C124.375 401.641 131.366 393.577 135.825 383.777C137.626 380.433 139.026 376.955 141.414 373.963C145.272 369.242 150.758 367.313 155.65 363.8C160.966 360.115 163.411 355.078 165.716 349.21C165.732 349.007 165.528 348.991 165.41 349.187C162.138 356.926 158.407 361.35 151.168 366.012C148.899 367.475 146.347 368.609 144.164 370.283C140.882 372.897 139.192 376.148 137.587 379.61C140.695 371.345 142.431 362.255 144.167 353.166C148.157 341.485 159.625 336.537 168.437 328.82C176.767 323.32 186.528 323.16 195.68 320.287C203.592 317.522 211.536 320.909 219.402 317.423C226.624 314.297 232.342 308.081 236.155 301.306C236.273 301.11 235.983 300.883 235.865 301.078C230.622 310.407 221.858 317.513 210.997 318.612C206.548 319.085 202.288 318.445 198.105 319.451C199.369 319.037 200.539 318.513 201.818 317.896C211.537 313.017 216.584 303.571 221.113 294.187C221.129 293.983 220.941 293.763 220.823 293.959C217.003 300.836 213.221 308.536 207.08 313.591C200.829 318.741 193.546 320.018 185.926 321.678C179.875 322.948 174.734 324.392 169.874 327.497C170.204 327.216 170.542 326.832 170.871 326.55C176.212 321.227 180.393 314.993 183.79 308.288C190.237 295.364 194.468 285.854 206.717 277.483C211.271 274.354 214.616 272.257 217.955 267.598C218.183 267.308 217.791 267.072 217.571 267.26C210.619 274.815 200.604 278.236 194.036 286.128C187.123 294.506 184.891 306.017 179.051 315.094C170.626 328.376 150.972 335.657 144.727 349.929C146.249 342.258 147.866 334.697 150.548 327.936C157.361 310.326 175.636 302.322 181.735 284.656C186.488 271.086 184.856 256.507 183.38 242.554C183.388 242.452 183.176 242.538 183.176 242.538C185.335 263.514 186.584 284.317 170.946 300.623C168.935 302.721 166.94 304.616 165.047 306.518C167.961 303.363 169.189 299.461 168.613 295.009C168.061 290.251 166.841 286.158 167.019 281.252C167.125 277.263 167.835 273.423 168.248 269.458C168.264 269.254 167.863 269.12 167.84 269.426C166.618 274.558 165.789 279.926 166.089 285.279C166.567 293.619 170.318 300.779 163.5 307.935C163.5 307.935 164.049 307.465 164.269 307.277C158.936 312.498 154.035 317.446 150.465 325.06C145.644 335.549 143.772 347.702 141.414 359.511C141.334 346.077 136.53 332.685 139.541 319.082C143.365 301.648 154.561 287.044 153.537 268.617C153.561 268.311 153.051 268.271 153.129 268.585C153.548 288.195 141.386 303.339 138.291 321.957C138.286 319.394 137.637 317.191 136.604 314.65C133.755 307.765 133.383 303.329 135.069 296.183C136.796 288.528 137.187 282.203 133.538 275.051C133.452 274.839 133.13 275.019 133.216 275.231C137.474 285.096 133.92 292.506 133.047 302.38C132.442 310.123 138.148 315.898 138.18 323.383C136.44 336.47 141.291 349.251 141.003 362.144C139.371 369.909 137.448 377.446 134.256 384.167C135.375 364.575 125.477 345.454 132.017 326.08C132.033 325.876 131.735 325.75 131.711 326.056C123.955 345.233 135.013 365.264 133.996 384.864L134.098 384.872ZM68.4583 120.218C69.0941 119.96 69.8319 119.71 70.5618 119.562C70.4598 119.554 70.2558 119.538 70.1459 119.632C69.62 119.796 68.9842 120.054 68.4583 120.218ZM95.6627 118.754C99.8762 118.673 103.957 117.659 107.742 115.187C110.663 113.262 112.705 110.757 114.96 108.165C118.903 103.655 123.457 100.526 129.156 98.5107C129.258 98.5186 129.18 98.205 129.172 98.3069C123.411 99.8047 119.407 102.465 115.471 106.872C109.509 113.582 103.792 118.466 94.8547 118.588C91.8188 118.044 88.665 117.695 85.4012 117.44C79.9956 117.018 75.1926 118.078 70.6638 119.57C78.7478 117.228 87.5814 118.431 95.5593 120.078C115.461 124.092 131.248 130.859 151.671 124.253C152.095 124.081 151.931 123.556 151.515 123.626C130.23 129.447 114.686 122.186 95.8587 118.872L95.6627 118.754ZM4.82852 109.818C9.40288 124.833 18.2309 131.365 29.6368 133.793C38.4012 141.139 28.5005 154.921 35.1601 164.256C39.4223 170.124 45.947 173.298 52.33 176.974C53.5525 178.402 54.1552 179.884 54.3405 182.768C54.5735 185.042 54.3363 186.766 54.3812 188.819C54.458 190.465 54.4486 191.899 55.0433 193.483C56.9915 198.76 62.6301 201.456 67.3746 203.774C67.4766 203.781 67.6965 203.594 67.4925 203.578C61.2817 200.325 56.2565 196.346 55.7151 188.821C55.5761 186.657 56.261 184.456 55.918 182.277C55.6453 180.513 54.9327 179.125 54.0003 177.924C58.2189 180.406 62.0998 183.272 64.9514 187.492C64.9435 187.594 65.2574 187.516 65.1634 187.406C61.4191 181.476 56.5197 177.199 50.6546 173.461C46.7419 171.003 41.7377 169.382 38.4065 166.047C28.523 155.948 35.0706 152.257 35.9347 143.817C36.3707 139.546 35.2674 136.59 33.0727 134.471C34.2966 134.566 35.4106 134.756 36.7365 134.859C49.8098 140.902 53.71 155.352 69.1558 158.607C71.14 159.48 73.1241 160.352 74.9984 161.318C80.8092 164.437 80.0976 169.609 81.5438 174.744C83.2403 180.617 89.4829 183.462 94.7772 185.31C95.3732 185.561 95.7587 184.567 95.1627 184.315C92.5904 183.089 88.8883 181.878 86.9995 179.783C84.3505 176.911 83.6248 173.062 82.9693 169.628C82.6104 167.653 82.5258 166.109 81.3271 164.375C79.6662 161.99 77.0158 160.451 74.2316 159.311C77.8953 159.7 81.677 159.892 85.3328 160.383C99.9879 161.937 108.714 168.46 117.694 179.616C118.07 180.056 118.714 179.696 118.448 179.163C108.231 165.45 98.5694 160.391 81.7963 158.364C76.7126 157.762 71.495 157.56 66.5769 156.151C66.1769 156.017 65.7849 155.782 65.4868 155.656C65.3848 155.648 65.2828 155.64 65.1809 155.632C64.0828 155.239 62.8828 154.838 61.7926 154.343C55.0639 151.152 52.2376 145.294 47.5117 140.108C45.5289 137.903 43.8203 136.13 41.962 134.96C46.5755 135.012 51.3148 134.767 56.2661 134.436C67.2046 133.65 76.7535 133.575 86.3352 139.653C92.2003 143.391 96.5963 148.859 102.469 152.495C113.525 159.406 125.644 155.329 137.944 158.134C138.25 158.158 138.384 157.759 137.976 157.727C122.782 153.876 109.855 157.787 96.4415 146.9C91.6122 143.038 87.5049 139.13 82.3762 136.474C89.2481 137.831 95.7877 134.241 102.725 133.45C113.907 132.17 119.968 143.919 130.338 146.471C130.848 146.51 130.997 145.907 130.503 145.664C123.413 143.163 119.973 138.589 114.022 134.639C111.881 133.14 109.795 132.26 107.042 132.045C97.6741 131.108 89.4759 137.541 79.898 135.358C79.796 135.35 79.694 135.342 79.694 135.342C78.3059 134.722 76.8078 134.195 75.1918 133.863C65.3158 131.555 55.0277 133.212 45.0788 133.153C42.5131 133.158 40.1672 132.974 37.9234 132.799C43.1807 132.492 48.2115 131.142 53.3378 128.57C58.3541 126.092 62.2181 122.601 67.4145 120.444C56.7236 124.632 47.3638 131.486 35.2875 132.389C21.606 130.193 13.2575 122.776 5.2683 109.443C5.08817 109.121 4.45236 109.379 4.63249 109.701L4.82852 109.818ZM251.315 74.2211C259.048 55.3496 244.949 46.6641 232.138 37.2591C231.974 36.7338 231.582 36.4982 231.166 36.5682C223.208 30.7195 216.004 24.4172 215.08 15.2225C215.246 6.52292 215.86 -2.65421 220.051 -3.76207C220.679 -3.91806 220.562 -5.05466 219.841 -5.00851C216.027 -4.79368 215.898 -1.83121 214.898 1.78073C214.173 4.49167 213.661 7.11665 213.344 9.85944C213.336 9.96132 213.328 10.0632 213.312 10.267C213.296 10.4707 213.272 10.7764 213.257 10.9801C213.209 11.5914 213.153 12.3045 213.097 13.0177C211.906 19.0748 206.452 20.5965 203.48 25.7971C200.989 30.1126 201.399 35.3721 197.903 39.4043C194.07 43.82 186.99 46.4449 182.388 50.1857C178.116 53.6447 174.714 57.7867 171.493 62.2503C171.493 62.2503 171.477 62.454 171.595 62.2582C175.35 57.5289 179.544 53.7562 184.122 50.321C183.107 52.8043 183.276 55.8926 183.454 58.8789C183.57 67.908 180.102 75.5298 172.799 81.0073C172.799 81.0073 172.783 81.2111 172.791 81.1092C177.227 78.1755 180.613 74.2372 182.446 69.1528C184.901 62.6819 182.055 53.1322 187.066 48.0909C188.912 46.7999 190.749 45.6108 192.688 44.4297C196.143 42.2393 198.64 40.4867 201.052 37.19C201.555 35.9993 201.957 34.8006 202.468 33.5081C203.648 30.2177 205.025 27.0451 206.605 23.8885C208.216 21.6567 210.783 20.3196 212.394 18.0878L212.622 17.7981C212.216 22.9939 212.015 28.2057 210.785 33.4398C209.801 36.8479 208.198 38.9778 204.546 42.3828C203.988 42.9543 203.046 43.1882 202.481 43.8616C201.012 45.5919 199.974 47.0485 199.086 49.2341C195.215 59.387 196.773 69.6562 188.518 78.1343C188.408 78.2282 188.494 78.4399 188.706 78.354C193.214 74.5033 195 70.0302 196.393 65.3215C196.59 71.9994 197.761 78.0358 199.394 84.7233C201.503 93.1905 199.262 98.243 192.485 103.557C189.76 105.599 187.248 107.555 184.805 109.927C184.797 110.029 184.781 110.233 185.001 110.045C190.656 104.644 199.933 101.473 201.339 92.6651C201.979 88.4101 200.359 84.1836 199.336 80.2087C197.835 74.4541 196.955 68.6453 197.11 62.7124C197.866 59.594 198.529 56.3657 199.607 53.0673C201.732 46.8782 206.326 43.2392 209.47 38.4621C206.754 46.9626 204.086 54.8519 206.046 63.9224C209.505 80.08 227.902 96.7886 212.601 112.712C212.601 112.712 212.585 112.916 212.703 112.72C225.654 100.611 216.45 85.7472 211.247 72.2209C205.621 57.5342 209.436 48.0945 212.902 35.245C212.353 42.2747 211.231 50.0796 214.811 55.4841C217.56 59.6962 222.329 61.7084 226.759 64.1043C225.586 68.6252 227.575 72.0605 230.144 75.9511C234.821 83.0811 237.332 90.3497 235.126 98.89C235.118 98.9919 235.322 99.0078 235.33 98.9059C236.818 94.3071 237.286 89.6286 236.114 84.9246C234.465 78.4408 226.783 71.6912 228.328 65.0467C229.598 65.8634 230.868 66.68 232.02 67.6925C240.455 75.3209 243.11 87.3157 246.301 97.7123C246.371 98.1277 246.905 97.8619 246.826 97.5483C244.329 84.8483 240.239 71.5115 229.043 63.7701L228.651 63.5344C228.707 62.8213 228.016 62.4599 227.483 62.7257C220.559 58.0853 214.796 54.3554 214.046 44.2518C213.674 39.8153 214.29 35.8659 213.902 31.6331C213.95 31.0218 214.201 30.4264 214.351 29.8231C214.8 28.0132 214.827 25.0427 214.995 21.5709C217.726 28.6516 223.888 33.8475 230.395 38.558C231.538 41.0048 230.9 43.9274 231.517 46.5381C231.892 48.3099 232.69 49.9097 233.489 51.5095C235.642 55.4702 238.911 58.2878 241.835 61.591C241.835 61.591 241.937 61.599 241.835 61.591C239.445 58.022 236.522 54.7188 234.353 50.962C232.277 47.3149 232.751 43.867 232.418 40.2534C244.672 48.8975 257.179 56.9463 250.907 74.1893C250.899 74.2912 251.095 74.409 251.111 74.2052L251.315 74.2211ZM379.939 322.062C382.037 318.843 379.716 317.022 377.381 314.072C375.704 311.891 373.808 309.898 371.793 308.101C371.801 307.999 371.707 307.889 371.511 307.772C371.315 307.654 371.127 307.434 370.931 307.316C370.453 306.869 369.974 306.422 369.496 305.974C365.233 301.439 367.286 296.167 364.844 290.646C362.84 286.082 358.339 283.271 357.199 278.159C355.902 272.421 358.005 265.205 357.642 259.334C357.35 253.879 356.014 248.649 354.371 243.396C354.371 243.396 354.167 243.38 354.269 243.388C355.864 249.253 356.454 254.834 356.519 260.579C355.164 258.218 352.514 256.679 350.091 254.849C342.697 249.66 338.555 242.264 338.446 233.133L338.344 233.125C338.135 238.439 339.283 243.448 342.213 247.982C345.965 253.81 355.354 257.105 356.445 264.16C356.38 266.308 356.307 268.557 356.124 270.9C355.806 274.976 355.771 278.048 357.015 281.835C357.751 282.918 358.385 283.992 359.122 285.075C361.049 287.992 362.764 290.996 364.471 294.102C365.293 296.729 364.866 299.565 365.687 302.192L365.663 302.498C361.822 299.123 357.769 295.834 354.187 291.762C352.048 288.93 351.219 286.405 350.683 281.443C350.645 280.62 350.818 279.711 350.67 278.982C350.225 276.795 349.544 274.999 348.354 273.164C342.502 263.995 333.225 259.273 331.268 247.538C331.284 247.334 330.962 247.514 331.064 247.522C331.528 253.401 333.98 257.487 337.059 261.417C331.602 257.711 325.972 254.914 319.611 252.265C311.557 248.972 308.753 244.14 308.495 235.612C308.451 232.227 308.392 229.044 307.838 225.619C307.854 225.415 307.532 225.595 307.634 225.603C308.568 233.363 305.686 242.671 311.965 249.003C315.014 252.009 319.328 253.268 323.21 254.801C328.786 256.979 333.907 259.736 338.65 263.386C340.719 265.803 342.89 268.227 344.919 271.153C348.703 276.574 348.862 282.429 350.912 287.714C345.631 280.434 340.821 273.703 332.398 269.868C317.324 263.157 292.933 268.018 289.19 246.303C289.19 246.303 288.986 246.287 289.088 246.295C291.204 263.885 308.644 265.247 322.607 269.104C337.879 273.269 343.15 281.983 351.472 292.37C346.189 287.755 340.467 282.183 334.025 281.886C329.02 281.597 324.599 284.327 320.023 286.43C317.123 282.821 313.154 282.409 308.454 282.144C299.973 281.687 292.561 279.366 287.036 272.58C287.036 272.58 286.832 272.564 286.926 272.674C289.7 276.581 293.251 279.728 297.721 281.614C303.987 284.153 313.907 281.955 318.429 287.126C317.048 287.735 315.572 288.235 314.112 288.531C302.953 290.838 291.746 285.863 281.353 282.284C280.945 282.252 280.811 282.652 281.101 282.879C292.787 288.302 306.065 293.028 318.828 288.592L319.252 288.42C319.73 288.867 320.476 288.515 320.625 287.912C328.435 285.139 334.887 282.67 343.497 288.057C347.316 290.405 350.177 293.191 353.697 295.414C354.073 295.853 354.442 296.394 354.92 296.842C356.142 298.269 358.463 300.091 361.277 302.155C353.943 300.148 346.205 302.004 338.419 304.471C335.791 303.958 333.808 301.754 331.33 300.638C329.738 300.001 327.926 299.552 326.2 299.315C321.728 298.761 317.553 299.665 313.214 300.044C317.505 300.276 321.955 299.803 326.12 300.334C330.286 300.864 332.771 303.21 335.908 305.095C321.685 309.827 307.823 315.203 297.623 299.954C297.631 299.852 297.317 299.93 297.411 300.04C308.064 317.374 323.426 311.193 338.574 306.431C339.068 306.674 339.492 306.502 339.736 306.009C349.201 303.058 358.501 300.914 366.436 305.736C373.414 310.995 380.336 316.968 378.786 321.05C378.526 321.747 379.515 322.234 379.868 321.647L379.939 322.062ZM123.748 17.9332C123.411 16.9845 122.037 17.4922 122.28 18.3312C124.431 24.9566 128.219 26.3798 132.757 31.3465C144.763 44.4813 142.802 59.0882 144.315 75.1964C145.612 88.8276 147.998 102.954 160.316 110.783C160.614 110.909 160.85 110.517 160.662 110.297C144.542 98.5842 145.632 76.7342 144.208 58.1729C144.997 61.2071 145.99 64.2571 147.313 67.0254C149.866 72.4521 154.467 76.6038 156.485 82.2964C159.443 90.4198 158.053 99.0238 164.307 105.662C164.589 105.992 165.037 105.514 164.857 105.192C159.46 96.7761 160.725 87.1374 156.474 78.503C154.876 75.3033 152.399 72.8549 150.472 69.937C147.543 65.4033 145.665 60.5417 144.014 55.3904C143.82 53.9402 143.735 52.396 143.532 51.0477C142.808 45.8662 141.982 40.6766 139.248 36.2607C135.066 29.3742 126.415 25.829 123.865 17.7374L123.748 17.9332ZM76.3976 46.1148C75.7566 43.8097 72.0755 44.9574 72.9284 47.1765C75.0647 52.6733 78.5601 56.5336 83.1867 59.0473C84.4953 60.6869 86.0318 62.0369 87.5603 63.4887C89.6952 70.3178 92.2156 76.1521 90.5131 83.5017C89.7566 86.6202 88.2001 89.4712 88.1496 92.7473C88.1281 98.2806 91.6076 102.345 96.58 104.373C96.784 104.389 96.9019 104.193 96.7058 104.075C89.099 100.304 88.9337 93.2185 91.3422 86.0265C92.153 83.5272 92.9399 81.3337 93.1466 78.6848C93.3866 74.296 92.4186 69.6079 90.0451 65.8351L90.3272 66.1647C94.4107 70.3784 96.6106 75.0602 98.7548 80.4551C100.563 84.9012 102.01 88.7042 107.188 89.4159C99.1002 87.862 98.8451 76.6696 94.9988 70.7318C92.3432 66.6295 88.3683 63.6542 85.163 60.0215C87.0531 60.7841 89.0532 61.4527 91.1712 61.9255C96.9291 63.0925 103.302 61.6424 108.926 63.2089C119.868 66.3181 123.803 77.6952 126.531 87.4407C124.499 79.2871 122.014 70.3806 114.824 65.2068C101.997 56.0056 81.8366 67.1419 76.3896 46.2167L76.3976 46.1148ZM314.865 364.338C312.407 359.021 308.692 355.348 303.947 353.03C302.528 351.485 300.992 350.135 299.346 348.879C296.889 342.229 293.945 336.567 295.247 329.084C295.8 325.949 297.262 322.988 297.109 319.696C296.824 314.139 293.125 310.263 288.128 308.54C287.924 308.525 287.807 308.72 288.105 308.846C295.947 312.226 296.528 319.241 294.52 326.567C293.811 329.074 293.118 331.378 293.217 334.05C293.291 338.361 294.463 343.065 297.057 346.65C296.955 346.642 296.869 346.43 296.775 346.321C292.471 342.295 290.052 337.801 287.585 332.586C285.566 328.226 283.796 324.602 278.705 324.102C286.824 325.249 287.801 336.395 291.875 342.043C294.743 346.059 298.844 348.737 302.269 352.182C300.371 351.521 298.363 350.954 296.127 350.677C290.243 349.808 284.043 351.682 278.395 350.421C267.303 347.915 262.732 336.796 259.478 327.214C261.933 335.196 264.937 344.04 272.362 348.822C285.661 357.241 305.187 345.03 311.89 365.643C312.641 367.854 316.236 366.495 315.265 364.471L314.865 364.338ZM341.718 172.811C341.892 171.902 342.262 171.111 342.631 170.319C342.262 171.111 341.892 171.902 341.413 172.787C341.397 172.991 341.695 173.116 341.718 172.811ZM342.631 170.319C343.355 168.941 344.07 167.664 344.887 166.395C343.968 167.656 343.253 168.933 342.631 170.319ZM336.726 205.221C349.712 196.6 357.156 184.061 358.263 168.567C358.803 161.639 358.112 154.718 357.735 147.718C357.104 136.087 358.612 127.287 361.55 115.934C363.955 112.739 366.587 109.254 369.375 106.397C370.113 106.147 370.859 105.795 371.494 105.537C372.13 105.279 371.982 104.55 371.598 104.213C375.14 100.902 378.893 98.8372 382.744 99.4453C383.96 99.6427 384.111 97.707 382.896 97.5096C376.612 96.5066 373.65 100.273 369.51 104.665C367.721 105.243 365.821 105.914 364.032 106.492C364.056 106.187 363.765 105.959 363.452 106.037C352.628 109.292 343.253 108.458 333.2 103.163C328.267 100.625 323.924 97.1089 318.504 95.5583C310.071 93.1576 301.125 94.7143 293.972 99.5884C293.972 99.5884 293.964 99.6903 293.972 99.5884C303.025 94.0425 313.594 94.0475 322.785 98.5575C327.827 101.001 332.178 104.416 337.347 106.562C342.625 108.614 348.367 109.984 353.938 109.599C347.738 111.473 341.389 112.617 334.901 111.598C325.472 110.145 317.073 106.004 307.43 105.969C307.226 105.953 307.202 106.259 307.406 106.275C318.649 106.845 328.309 113.236 339.332 113.994C348.511 114.711 358.276 110.553 367.068 107.037C363.25 111.249 359.746 115.383 356.148 119.407C347.166 125.368 337.261 128.695 326.565 130.32C315.453 132.015 308.373 126.748 298.435 123.922C287.799 120.837 278.406 121.538 267.584 123.461C267.278 123.437 267.34 123.955 267.654 123.877C284.911 121.021 291.836 124.329 307.687 130.282C312.769 132.216 316.471 133.427 322.144 133.05C331.317 132.536 341.041 130.22 349.574 126.069C349.338 126.46 349.103 126.852 348.875 127.142C342.003 133.678 334.088 139.107 323.398 141.963C311.971 145.069 300.117 143.118 288.542 145.495L288.746 145.511C288.746 145.511 288.731 144.382 288.299 144.656C277.043 149.517 264.856 143.953 253.067 147.748C245.069 150.301 237.626 154.948 231.915 161.062C231.695 161.25 231.977 161.579 232.197 161.392C243.238 152.721 253.971 145.359 268.705 147.226C272.565 147.733 276.001 148.411 279.186 148.352C269.751 152.228 261.467 158.449 254.037 165.556C254.037 165.556 254.021 165.76 254.131 165.666C268.596 153.88 282.099 146.529 300.892 145.024C310.599 144.244 319.662 143.824 329.049 140.559C335.273 138.38 340.73 135.526 345.731 131.919C341.385 138.96 337.321 146.33 331.822 152.358C327.557 157.048 322.713 159.95 317.516 162.106C309.622 163.335 299.371 159.255 291.594 160.288C283.3 161.383 276.352 164.941 270.273 170.514C270.273 170.514 270.257 170.718 270.469 170.632C280.929 162.838 293.337 158.989 306.273 161.536C309.403 162.191 312.219 162.923 314.981 163.036C309.173 165.145 303.114 166.517 296.905 168.493C286.592 171.788 278.067 175.837 273.78 186.06C273.764 186.264 273.96 186.382 274.078 186.186C285.711 165.979 307.785 171.084 325.035 160.438C327.296 159.077 329.275 157.387 331.168 155.485C326.927 166.429 329.378 178.407 317.726 187.03C307.596 194.542 293.97 191.634 284.153 200.4C284.043 200.494 284.13 200.705 284.341 200.62C295.838 191.369 312.962 195.474 323.166 184.38C332.018 174.821 328.713 161.955 334.961 151.578C334.961 151.578 334.969 151.476 334.977 151.374C340.414 144.829 344.628 136.855 348.676 129.689C350.647 128.1 352.524 126.401 354.417 124.499C355.195 123.74 355.98 122.879 356.781 121.814C357.213 121.54 357.653 121.164 358.093 120.789C355.079 129.163 355.853 138.961 356.307 147.607C356.662 153.58 356.829 159.333 356.501 164.842C356.501 164.842 356.501 164.842 356.399 164.834C353.171 168.067 348.65 169.457 345.226 172.572C344.236 173.417 343.443 174.38 342.65 175.343C344.119 173.613 345.878 172.11 347.715 170.921C350.644 168.895 354.121 167.731 356.587 165.054C355.7 180.36 351.143 194.046 336.577 204.492C336.358 204.68 336.546 204.9 336.86 204.821L336.726 205.221ZM95.302 313.989C90.3002 317.596 90.1926 322.918 91.0811 328.624C92.539 337.553 94.5242 344.986 91.3302 353.039C87.9046 357.487 83.4128 361.133 77.3527 363.838C72.1404 366.199 67.6274 367.486 63.2376 371.141C62.468 371.799 63.5104 372.905 64.272 372.349C71.7165 366.37 80.3886 364.382 87.4635 359.195C87.5655 359.203 87.7615 359.32 87.8714 359.227C94.0429 355.096 100.631 357.455 107.264 355.308C112.208 353.746 115.398 349.69 118.486 345.626C118.604 345.43 118.306 345.305 118.196 345.399C115.006 349.455 111.604 353.596 106.283 354.719C103.466 355.319 100.414 354.978 97.5424 354.959C95.4867 355.003 93.627 355.166 91.8374 355.744C92.6388 354.679 93.2363 353.598 93.7397 352.407C94.1954 351.828 94.659 351.146 95.0207 350.457C95.1386 350.261 95.2644 349.964 95.3823 349.768C95.4684 349.979 95.7744 350.003 95.8923 349.808C101.706 342.369 110.541 342.238 114.999 333.771C118.254 327.568 120.104 320.947 121.053 314.051C119.263 322.522 116.331 335.105 108.456 340.026C103.486 343.225 99.2491 343.612 95.9956 348.483C102.719 334.658 100.695 318.51 112.893 306.854C112.893 306.854 112.909 306.651 112.799 306.745C103.437 314.931 102.234 325.088 99.0839 336.527C97.9498 340.538 96.6436 344.126 94.9532 347.377C95.6161 336.256 87.3129 323 95.694 314.224C95.9139 314.037 95.7258 313.817 95.4119 313.895L95.302 313.989ZM46.2732 326.869C39.9216 330.679 31.6589 331.366 24.5643 332.862C24.1484 332.932 24.2967 333.661 24.7126 333.591C31.3038 333.286 38.0446 332.377 44.0107 329.563C43.9948 329.766 44.2848 329.994 44.5047 329.806C51.0776 324.477 58.6316 326.296 65.9395 323.382C70.2802 321.671 73.1944 318.516 75.4583 314.49C75.5842 314.192 75.1842 314.058 75.0663 314.254C70.0987 322.682 62.7856 323.033 54.0592 324.402C53.0234 324.526 52.0816 324.76 51.1398 324.994C61.8124 315.782 64.9311 304.751 81.3626 303.266C81.5666 303.282 81.4884 302.968 81.3785 303.062C74.4575 303.649 68.0531 305.507 62.6657 310.109C56.7287 315.18 53.2765 322.598 46.3831 326.775L46.2732 326.869ZM-3.9378 194.517C-4.44777 194.477 -4.40144 195.198 -4.00142 195.332C-0.111195 196.763 3.26907 198.155 6.91695 198.747C6.90899 198.849 6.90104 198.951 7.09707 199.068C11.7223 202.914 18.3027 205.376 24.3839 205.03C28.4014 204.831 32.2242 203.182 36.2496 202.881C41.8208 202.496 46.731 204.007 51.8133 205.941C52.0173 205.957 52.1352 205.761 51.9392 205.644C46.6861 201.954 40.3082 200.841 33.9833 201.68C29.0082 202.316 24.2435 204.199 19.2075 202.986C16.0855 202.23 13.349 200.479 10.5807 199.135C12.4245 199.177 14.2922 198.912 16.2857 198.351C27.2031 195.205 34.9203 190.99 46.5765 194.155C46.8825 194.179 47.1183 193.787 46.8282 193.56C39.8796 190.557 32.9984 190.635 25.9263 193.158C20.7617 194.907 15.3837 198.075 9.75027 197.943C4.83077 197.866 0.847891 194.993 -3.9378 194.517ZM264.31 110.188C267.886 105.137 272.033 100.643 277.027 97.1382C278.982 95.7533 281.313 94.8078 282.986 93.0934C286.435 89.6725 286.958 84.2809 288.932 80.0274C291.295 78.6744 293.478 76.9998 295.183 74.8778C301.625 67.2832 303.832 57.4104 305.403 47.7955C305.321 59.3716 312.981 71.6547 304.779 82.0844C304.661 82.2802 304.849 82.4999 305.069 82.3121C316.388 70.0756 302.04 52.7605 308.261 38.7936C308.497 38.402 307.807 38.0406 307.571 38.4322C306.738 39.9047 306.202 41.5029 305.777 43.0072C305.519 42.372 304.397 42.2845 304.231 43.0915C303.292 48.5532 302.533 54.3365 300.871 59.8443C297.611 63.4849 294.712 67.7685 290.785 70.7421C285.76 74.6548 280.518 74.7582 274.585 75.8326C268.653 76.907 263.714 79.699 259.105 83.5417C259.105 83.5417 259.089 83.7454 259.207 83.5496C265.034 78.572 271.188 75.9773 278.721 75.4378C281.608 75.2533 284.166 75.3504 286.913 74.3348C292.424 72.1 296.549 66.5794 300.108 61.7323C299.557 63.5343 298.81 65.2184 297.961 66.8947C292.976 76.8581 284.694 80.4142 275.227 84.6977C268.947 87.59 264.919 90.5556 263.061 97.278C263.053 97.3799 263.147 97.4897 263.265 97.2939C267.629 87.3846 278.663 85.3759 287.566 80.4333C286.867 81.5062 286.363 82.6969 285.852 83.9895C283.815 89.058 281.818 92.2847 277.272 95.3123C271.532 99.1693 267.157 103.953 263.62 109.827C263.494 110.124 263.894 110.258 264.012 110.062L264.31 110.188ZM208.539 343.533C208.616 345.179 208.904 346.739 209.413 348.111C209.014 346.645 208.726 345.085 208.539 343.533ZM208.53 337.075C208.355 339.316 208.392 341.472 208.539 343.533C208.384 341.573 208.441 339.528 208.836 337.099C208.852 336.895 208.546 336.871 208.53 337.075ZM244.824 392.695C244.824 392.695 245.302 393.143 245.624 392.963C245.616 393.065 245.6 393.269 245.592 393.37C245.829 399.539 246.484 402.973 250.316 407.782C251.06 408.762 252.678 407.761 251.933 406.781C244.262 397.264 250.558 378.383 246.342 366.676C241.115 352.123 230.027 339.06 237.756 322.854C237.772 322.65 237.576 322.532 237.458 322.728C232.222 333.287 235.154 343.048 239.576 353.438C242.621 360.441 245.847 366.433 246.797 373.989C247.559 379.994 245.678 385.69 245.429 391.513C243.892 383.603 240.321 376.764 234.395 371.176C234.395 371.176 234.411 370.973 234.419 370.871C229.31 364.014 230.738 356.233 229.507 348.347C228.681 343.158 227.007 338.312 224.917 333.536C224.917 333.536 224.815 333.528 224.917 333.536C228.29 341.59 229.318 349.46 229.669 358.097C229.853 362.314 230.375 366.148 232.584 369.395C223.718 362.04 212.501 358.5 209.311 348.103C210.421 352.29 212.582 356.149 216.329 359.414C220.649 363.236 226.147 365.1 230.584 368.726C238.408 374.975 242.495 383.084 244.714 392.789L244.824 392.695ZM197.004 390.09L196.76 390.584C196.76 390.584 196.924 391.109 197.144 390.921C198.844 400.689 195.47 408.421 189.397 416.557C189.051 417.042 189.717 417.709 190.165 417.232C197.477 410.32 200.921 403.004 199.151 392.82C198.924 391.778 198.698 390.735 198.369 389.684C207.362 380.956 200.409 367.498 201.652 356.833C201.668 356.629 201.464 356.613 201.448 356.817C200.626 362.083 201.783 366.991 202.295 372.258C202.916 378.764 200.918 383.323 197.955 388.422C196.485 383.592 194.277 379.012 192.705 374.175C189.389 364.076 190.151 355.628 194.194 345.898C194.218 345.593 193.92 345.467 193.802 345.663C188.725 352.851 188.097 360.9 190.215 369.265C191.762 375.741 194.894 381.623 196.653 388.013C196.801 388.742 196.957 389.369 197.106 390.098L197.004 390.09ZM361.347 227.643C367.321 224.727 371.682 226.707 374.678 219.869C376.802 215.012 377.035 209.393 379.645 204.881C385.799 202.287 392.164 200.938 399.246 203.541C400.148 203.817 400.558 202.516 399.773 202.045C394.387 198.754 389.051 198.748 383.792 200.387C384.012 200.2 384.224 200.114 384.444 199.926C384.766 199.746 384.5 199.213 384.186 199.291C382.42 199.563 381.117 200.486 380.197 201.747C377.654 202.778 375.189 204.123 372.716 205.57C367.443 206.081 362.636 203.246 357.31 201.805C352.784 200.632 348.335 201.105 344.096 202.824C344.096 202.824 344.08 203.028 344.088 202.926C351.812 199.941 357.654 202.652 364.949 205.169C367.051 205.846 369.067 206.311 371.115 206.368C363.264 210.983 355.373 216.107 347.362 216.199C327.236 216.37 316.639 198.323 297.526 213.129C297.526 213.129 297.51 213.332 297.612 213.34C318.742 197.667 329.901 219.038 349.832 217.417C352.516 217.216 355.137 216.498 357.672 215.569C355.717 216.954 353.95 218.558 351.681 220.021C345.188 224.332 338.157 225.013 330.839 222.802C324.32 220.858 319.507 216.792 312.655 219.127C312.451 219.111 312.631 219.433 312.733 219.441C322.841 217.462 331.25 226.729 341.836 225.198C350.139 224.001 354.908 218.12 361.589 214.029C367.225 211.497 372.627 208.023 378.161 205.483C377.76 206.682 377.359 207.88 376.965 208.977C375.871 212.479 375.826 218.318 373.437 221.309C370.601 224.778 365.116 225.375 361.269 227.329C361.167 227.321 361.245 227.635 361.355 227.541L361.347 227.643ZM286.703 388.585C283.765 384.153 280.246 380.598 275.635 377.881C266.806 372.681 258.61 369.889 258.418 357.882C258.303 363.305 260.047 368.566 264.272 372.279C266.867 374.531 270.169 375.609 273.125 377.172C278.536 380.157 282.549 383.955 286.059 388.944C286.341 389.274 286.875 389.008 286.601 388.577L286.703 388.585ZM352.426 340.62C352.944 340.557 352.804 339.727 352.294 339.687C347.358 339.814 343.02 338.86 339.179 335.486C337.07 333.578 335.41 331.194 333.301 329.287C330.51 326.916 327.436 325.549 323.787 326.289C332.167 325.406 335.155 334.454 341.114 338.302C344.533 340.516 348.471 341.336 352.426 340.62ZM394.627 246.948C401.381 248.501 407.87 248.187 414.462 246.549C414.776 246.471 414.612 245.946 414.298 246.024C400.667 248.445 390.996 244.82 379.021 239.17C372.088 235.964 367.715 238.083 362.398 243.1C362.398 243.1 362.382 243.304 362.5 243.108C373.919 233.544 383.339 244.325 394.635 246.846L394.627 246.948ZM168.416 379.044C168.992 383.496 169.984 387.879 169.94 392.385C169.893 399.557 167.047 404.459 162.624 409.854C161.949 410.622 163.007 411.524 163.777 410.867C180.026 395.94 161.688 374.521 172.534 357.84C172.659 357.542 172.267 357.307 172.141 357.604C167.639 364.018 167.576 371.393 168.526 378.95L168.416 379.044ZM13.9158 70.9627C11.7224 67.5114 10.0377 65.4324 6.28919 63.4998C5.79513 63.2562 5.11955 64.0235 5.70765 64.3769C15.492 71.8032 17.5114 84.0559 29.1329 90.293C29.925 90.6624 30.7251 90.9298 31.4151 91.2912C38.0934 97.7575 45.8537 104.821 53.609 109.321C61.5602 113.939 67.9927 107.779 76.2236 107.499C76.3256 107.507 76.3415 107.303 76.2396 107.295C72.9678 107.142 70.4484 107.868 67.4032 108.758C60.7948 110.6 56.315 110.147 50.9057 105.83C45.6923 101.631 40.7147 97.0396 35.5094 92.7383C46.1456 95.8235 57.7596 94.2701 67.7428 99.1494C57.0007 92.1608 43.2276 95.0832 31.5503 89.5592C31.0563 89.3157 30.7662 89.088 30.2722 88.8445C30.0841 88.6248 29.786 88.499 29.598 88.2793C29.496 88.2714 29.292 88.2554 29.19 88.2475C22.0308 83.9986 18.4826 78.1867 13.9158 70.9627ZM36.2636 54.1545C36.2636 54.1545 35.5497 54.0988 35.7298 54.4204C38.5852 62.5358 43.8739 69.7136 53.0373 70.6339C59.345 71.3313 64.8951 68.587 70.7429 73.861C75.4383 78.1225 73.9492 84.0538 75.1675 89.4789C76.1674 93.7595 76.7541 95.4453 80.2429 98.0751C80.4389 98.1929 80.6588 98.0051 80.4707 97.7854C72.2243 90.3767 79.3393 76.787 68.6118 70.9271C65.1693 69.0184 61.9439 69.5866 58.2642 69.4019C46.5271 68.5882 41.2833 63.4639 36.4756 54.0686L36.2636 54.1545ZM163.419 -5.2102C163.419 -5.2102 162.736 -5.67345 162.705 -5.26593C162.294 5.25951 165.981 13.2349 161.042 23.9194C158.329 29.7551 155.021 34.007 153.697 40.4636C151.118 52.4599 153.907 64.0551 160.503 74.205C160.503 74.205 160.707 74.2209 160.605 74.213C152.294 61.0592 151.884 47.9071 156.7 34.8555C156.745 36.909 157.629 38.7205 159.134 40.478C162.057 43.7812 164.99 45.6501 166.154 50.456C167.075 54.423 165.988 59.1556 164.172 62.7038C166.443 58.5761 167.265 53.3102 166.093 48.6062C164.616 42.546 155.792 39.9096 157.243 33.1554C158.399 30.1706 159.862 27.2098 161.52 24.3667C168.186 12.587 163.429 7.80812 163.317 -5.21816L163.419 -5.2102ZM187.781 2.12403C187.781 2.12403 187.483 1.99827 187.577 2.10811C187.558 12.8692 187.577 24.4532 181.212 33.6939C181.204 33.7958 181.393 34.0154 181.408 33.8117C188.393 24.5169 188.358 13.1366 187.789 2.02215L187.781 2.12403ZM190.859 -7.06578L191.606 -8.74996L190.859 -7.06578ZM261.675 63.7548C261.895 49.1143 275.937 44.0604 283.793 34.1162C283.793 34.1162 284.005 34.0302 284.013 33.9283C284.013 33.9283 284.021 33.8265 284.029 33.7246C284.257 33.4349 284.477 33.247 284.603 32.9493C289.561 25.9564 292.152 16.4211 294.632 8.31216C294.892 7.61492 293.692 7.21375 293.432 7.91098C290.868 14.4758 289.275 21.7315 286.208 28.1547C284.982 30.7239 283.481 32.8618 281.69 34.772C272.379 39.6827 255.564 32.9376 251.086 45.6056C251.07 45.8094 251.274 45.8253 251.29 45.6216C255.996 32.6638 271.037 39.783 280.465 36.0088C278.014 38.4826 275.375 40.7366 272.619 43.1864C266.116 48.9314 260.735 54.7639 260.953 63.8009C260.93 64.1066 261.44 64.1464 261.463 63.8407L261.675 63.7548Z" fill="url(#paint1_radial_102_135)"/>
</g>
<defs>
<radialGradient id="paint0_radial_102_135" cx="0" cy="0" r="1" gradientUnits="userSpaceOnUse" gradientTransform="translate(228.235 158.749) rotate(-120.266) scale(226.942 227.031)">
<stop stop-color="white"/>
<stop offset="0.41" stop-color="#A7A39E"/>
<stop offset="0.82" stop-color="#574F45"/>
<stop offset="1" stop-color="#382F23"/>
</radialGradient>
<radialGradient id="paint1_radial_102_135" cx="0" cy="0" r="1" gradientUnits="userSpaceOnUse" gradientTransform="translate(187.965 200.376) rotate(58.1331) scale(216.113 216.184)">
<stop offset="0.47" stop-color="#FF0000"/>
<stop offset="1" stop-color="#FF8879"/>
</radialGradient>
</defs>
</svg>
