<svg width="36" height="36" viewBox="0 0 36 36" fill="none" xmlns="http://www.w3.org/2000/svg">
<path d="M27.4467 31.1947C20.0682 36.2418 9.97287 34.3604 4.91895 26.9891C-0.134976 19.6178 1.74675 9.53383 9.12524 4.4867C16.5037 -0.560434 26.5991 1.32097 31.653 8.69226C36.7069 16.0636 34.8252 26.1476 27.4467 31.1947Z" fill="white" style="mix-blend-mode:multiply"/>
<path style="mix-blend-mode:multiply" d="M27.4467 31.1947C20.0682 36.2418 9.97287 34.3604 4.91895 26.9891C-0.134976 19.6178 1.74675 9.53383 9.12524 4.4867C16.5037 -0.560434 26.5991 1.32097 31.653 8.69226C36.7069 16.0636 34.8252 26.1476 27.4467 31.1947Z" fill="url(#paint0_radial_286_753)"/>
<path style="mix-blend-mode:color-dodge" opacity="0.3" d="M21.2857 2.93664C29.3807 4.40157 34.7431 12.1614 33.278 20.2474C31.8128 28.3333 24.0454 33.6885 15.9504 32.2236C7.8553 30.7587 2.4929 22.9988 3.95805 14.9129C5.4232 6.8269 13.1906 1.4717 21.2857 2.93664Z" fill="url(#paint1_linear_286_753)"/>
<defs>
<radialGradient id="paint0_radial_286_753" cx="0" cy="0" r="1" gradientUnits="userSpaceOnUse" gradientTransform="translate(36.1993 -3.41242) rotate(55.5223) scale(55.0202 55.0331)">
<stop stop-color="#FF9D00"/>
<stop offset="0.1" stop-color="#F99800"/>
<stop offset="0.24" stop-color="#E88A00"/>
<stop offset="0.39" stop-color="#CD7300"/>
<stop offset="0.54" stop-color="#AD5700"/>
<stop offset="0.6" stop-color="#A15200"/>
<stop offset="0.72" stop-color="#824600"/>
<stop offset="0.86" stop-color="#513300"/>
<stop offset="1" stop-color="#1E1F00"/>
</radialGradient>
<linearGradient id="paint1_linear_286_753" x1="8.99658" y1="20.9006" x2="62.6247" y2="2.28925" gradientUnits="userSpaceOnUse">
<stop/>
<stop offset="1" stop-color="white"/>
</linearGradient>
</defs>
</svg>
