<svg width="88" height="89" viewBox="0 0 88 89" fill="none" xmlns="http://www.w3.org/2000/svg">
<mask id="mask0_102_180" style="mask-type:alpha" maskUnits="userSpaceOnUse" x="11" y="11" width="67" height="67">
<path style="mix-blend-mode:overlay" d="M74.8013 56.7986C81.6084 39.9096 73.4199 20.6951 56.5117 13.8818C39.6035 7.06846 20.3784 15.2364 13.5713 32.1254C6.76412 49.0144 14.9527 68.229 31.8609 75.0423C48.7691 81.8556 67.9942 73.6877 74.8013 56.7986Z" fill="url(#paint0_radial_102_180)"/>
</mask>
<g mask="url(#mask0_102_180)">
<path style="mix-blend-mode:multiply" d="M25.4381 71.3368C24.4651 73.2936 23.4146 74.8264 21.9342 76.2695C23.3128 74.1957 23.6192 71.7996 23.146 69.55C22.8492 68.0899 22.1604 66.9828 21.6039 65.6926C20.6667 63.5388 21.0929 61.45 21.9112 59.0083C21.9324 58.95 21.8448 58.9183 21.8237 58.9766C21.1054 60.9597 20.4058 62.9825 21.0163 64.853C21.5442 66.4957 22.5622 67.7881 22.9205 69.5343C22.6516 68.9091 22.1497 68.5623 21.2105 68.4201C20.5551 68.3147 20.0439 68.7233 19.3674 68.6762C18.0728 68.6032 17.53 67.5489 17.125 66.4786C16.5549 64.9525 16.5706 63.1768 16.9683 61.4405C16.4494 63.6938 16.5436 66.169 17.748 67.8588C18.2505 68.5686 18.6114 68.6663 19.3941 68.7849C20.2643 68.9351 21.5024 68.5258 22.2857 69.0074C22.6627 69.243 22.895 70.1518 23.0869 70.7161C23.0869 70.7161 23.1161 70.7267 23.1453 70.7373C23.3023 72.6745 22.8518 74.5566 21.7832 76.4128C21.3701 76.8239 20.888 77.2431 20.3768 77.6518L20.3476 77.6412C19.9475 77.9251 19.6058 78.2302 19.2455 78.4956C19.1449 78.5911 19.1822 78.6706 19.2592 78.7314C18.7106 79.0606 18.1913 79.4003 17.7359 79.9281C17.6353 80.0236 17.7285 80.2223 17.8583 80.1374C19.6946 78.9881 21.5154 78.0641 22.8523 76.4701C23.9885 75.4301 24.8987 74.0114 25.6523 72.5689C26.3859 71.911 27.1041 71.4783 28.1514 71.2309C29.1298 70.9915 30.0821 71.0065 31.063 70.669C33.2819 69.9222 35.2027 68.5396 36.9186 66.72C36.9397 66.6616 36.9211 66.6219 36.8708 66.6697C33.8808 69.5453 31.0145 70.2556 27.4824 70.8896C27.0581 70.9669 26.6817 71.0944 26.3928 71.2537C26.5935 70.6996 26.7942 70.1455 27.0241 69.602C27.5553 68.4089 28.0679 67.1761 28.6574 66.0041C29.7689 64.3943 31.2157 63.4999 33.1507 62.7162C34.9268 62.007 36.5785 61.5496 38.1732 60.2468C38.2236 60.1991 38.1677 60.0799 38.1173 60.1276C35.5157 62.0223 32.2799 62.2029 29.7819 64.2671C29.6415 64.3812 29.4906 64.5245 29.3794 64.6491C31.3575 61.0111 33.9388 57.9874 38.2455 57.403C38.3542 57.3764 38.3778 57.22 38.2797 57.2175C34.6805 57.3984 31.5812 59.9376 29.3851 63.2657C27.9959 65.3686 27.1534 67.6036 26.1625 69.8838C26.0568 70.1754 25.9034 70.4167 25.8083 70.6792C26.1849 69.0012 25.8744 67.3053 25.8423 65.4793C25.8224 64.7134 25.861 63.9686 25.9977 63.2264C26.4252 61.8638 26.9906 60.4851 28.2572 59.7233C29.0946 59.2349 29.7842 59.1547 30.6644 58.9128C31.9503 58.5538 33.0579 57.8663 34.0376 56.8027C34.1383 56.7072 34.024 56.5668 33.9233 56.6623C32.7343 57.8481 31.608 58.4958 30.1364 58.8205C29.4842 58.9801 28.8238 59.0708 28.1958 59.4371C27.2789 59.9627 26.7073 60.8114 26.3295 61.7632C27.5666 57.5269 31.0281 54.2612 34.9983 52.2354C35.0381 52.2168 35.03 52.1479 34.961 52.1559C31.6612 53.6987 28.6122 56.1902 26.862 59.7458C26.0848 61.3446 25.6101 63.0201 25.5678 64.6871C25.5104 66.9425 26.1638 69.0595 25.5679 71.2518L25.4381 71.3368ZM50.6295 82.9349C50.6089 84.9067 50.0497 86.8154 48.4028 88.6271C48.3816 88.6854 48.4295 88.7357 48.4798 88.688C50.3043 86.8417 50.8685 84.7368 50.8358 82.5478C50.8849 81.7738 50.8253 81.0265 51.0018 80.2657C51.2783 79.0463 52.1046 78.224 52.7103 77.1898C53.3583 76.039 53.3671 74.9206 53.2721 73.6326C53.2827 73.6035 53.2137 73.6115 53.2137 73.6115C53.2987 75.2917 53.0035 76.4713 52.0828 77.9192C51.7759 78.4019 51.4318 78.805 51.1833 79.3088C50.8105 80.0645 50.8011 80.8198 50.7917 81.5751C50.6403 79.8049 50.1466 77.9767 49.6821 76.159C49.3915 73.6786 51.0409 71.7689 51.9897 69.6054C53.0452 67.8765 54.7864 66.9896 56.2246 65.6632C57.4242 64.4482 59.1641 64.3857 60.3079 63.0515C61.3404 61.8421 61.8337 60.2064 61.9717 58.6399C61.9928 58.5816 61.8947 58.5791 61.8841 58.6082C61.7603 60.7736 60.7557 62.8179 58.8797 63.9857C58.1112 64.4662 57.2894 64.7293 56.5979 65.2706C56.7992 65.0796 56.9713 64.878 57.1434 64.6764C58.4934 62.9551 58.5879 60.7792 58.5924 58.6696C58.603 58.6404 58.5049 58.6378 58.5341 58.6484C58.4544 60.236 58.4201 61.972 57.7541 63.4461C57.0483 64.9389 55.8376 65.8199 54.6057 66.7592C53.6043 67.5182 52.7805 68.2424 52.1959 69.2183C52.2276 69.1308 52.2593 69.0433 52.291 68.9558C52.8085 67.5268 53.0236 66.0213 53.0529 64.4814C53.0879 61.5582 53.0234 59.4566 54.5629 56.8473C55.1183 55.8609 55.5576 55.1952 55.7335 54.0713C55.7546 54.013 55.6378 53.9707 55.6459 54.0396C55.0258 56.0253 53.5243 57.5267 52.9918 59.544C52.4568 61.6595 53.0362 63.9806 52.785 66.1328C52.4003 69.2923 49.4451 72.3455 49.5616 75.4886C49.1586 73.9571 48.8139 72.4468 48.6948 70.9521C48.418 67.1572 51.0496 64.0858 50.6243 60.336C50.3146 57.4528 48.7189 54.9286 47.2189 52.505C47.2189 52.505 47.1897 52.4944 47.2084 52.5341C49.4239 56.1736 51.4804 59.8873 50.0737 64.2271C49.873 64.7812 49.6829 65.3061 49.5033 65.8019C49.7699 64.9748 49.6333 64.1666 49.1519 63.3984C48.6227 62.58 48.0593 61.9471 47.66 61.0437C47.3351 60.2993 47.119 59.5283 46.8632 58.7758C46.8445 58.7361 46.7756 58.7441 46.7836 58.813C47.032 59.8596 47.3388 60.9274 47.855 61.8731C48.6717 63.3565 49.9625 64.3518 49.3449 66.2394C49.3449 66.2394 49.3977 66.0935 49.4188 66.0352C48.9013 67.4642 48.426 68.7765 48.4606 70.5045C48.499 72.8605 49.2243 75.2345 49.8224 77.5953C48.6274 75.1502 46.5869 73.1247 45.9405 70.3504C45.1363 66.8263 45.8969 63.1762 44.0746 59.9101C44.0559 59.8704 43.9578 59.8678 43.995 59.9473C45.7807 63.497 44.8878 67.3301 45.9628 71.0183C45.7392 70.5414 45.4336 70.1998 45.0006 69.8451C43.877 68.8443 43.4354 68.0576 43.0988 66.6162C42.7355 65.0661 42.2747 63.8766 40.9734 62.9104C40.915 62.8893 40.8939 62.9476 40.9522 62.9687C42.5859 64.3851 42.6019 66.0733 43.2813 67.9359C43.8328 69.4221 45.3802 69.9826 46.0534 71.315C46.8825 73.8585 48.8963 75.7755 49.9453 78.1677C50.3378 79.7283 50.6427 81.2572 50.6531 82.7785C49.1458 79.0987 45.6667 76.4861 45.1533 72.3415C45.1638 72.3124 45.0657 72.3098 45.0843 72.3495C45.3511 76.5367 49.1035 79.2153 50.6401 82.9057L50.6295 82.9349ZM15.4932 40.2556C15.4932 40.2556 15.7051 40.0355 15.8057 39.94L15.7846 39.9983C15.7846 39.9983 15.5647 40.1496 15.5038 40.2265L15.4932 40.2556ZM20.3536 37.5956C21.1196 37.2132 21.7818 36.6613 22.2527 35.9082C22.6311 35.3195 22.7759 34.6462 22.9498 33.9835C23.2742 32.8144 23.819 31.8572 24.6956 30.9871C24.6956 30.9871 24.7167 30.9287 24.6664 30.9765C23.7234 31.7565 23.2208 32.5971 22.907 33.737C22.4006 35.4999 21.7663 36.8866 20.1548 37.6885C19.561 37.8693 18.9379 38.0395 18.3123 38.3077C17.3103 38.7035 16.4996 39.3006 15.7952 39.9691C17.0612 38.8442 18.7845 38.2808 20.3859 37.8712C24.379 36.8763 27.8589 36.7511 30.9998 33.7322C31.0607 33.6553 30.9837 33.5944 30.9042 33.6316C27.5297 36.5659 24.0628 36.5638 20.3139 37.6141L20.3536 37.5956ZM2.98722 43.8742C5.13697 46.2363 7.33658 46.6371 9.60892 46.1076C11.8725 46.6965 11.2467 50.0656 13.2804 51.198C14.5786 51.8991 16.0614 51.9084 17.5125 52.0051C17.8628 52.132 18.102 52.3835 18.384 52.8815C18.6287 53.3 18.7193 53.5968 18.9349 54.0047C19.0945 54.2934 19.2249 54.5716 19.4746 54.794C20.2796 55.5804 21.5661 55.5845 22.6165 55.6021L22.6377 55.5437C21.2052 55.4868 19.9554 55.199 19.184 53.864C18.9579 53.4852 18.9306 53.0135 18.6647 52.6533C18.4759 52.354 18.2157 52.1608 17.9343 52.0259C18.9238 52.1204 19.8817 52.3024 20.7817 52.8263C20.8109 52.8369 20.8215 52.8077 20.8029 52.768C19.6239 52.0111 18.3368 51.6439 16.9361 51.4994C15.9863 51.3863 14.9414 51.5357 14.0364 51.2079C11.3504 50.2351 12.2078 48.9622 11.6296 47.3672C11.3364 46.5353 10.8662 46.1011 10.2823 45.8896C10.5103 45.8073 10.7383 45.7249 10.9663 45.6425C13.884 45.6107 15.8586 47.9093 18.9714 47.1564C19.4037 47.148 19.8467 47.1105 20.2976 47.1419C21.6319 47.1963 21.9599 48.2058 22.6853 49.0293C23.5065 49.9535 24.9017 49.931 26.0341 49.8134C26.172 49.7973 26.1186 49.58 26.0205 49.5775C25.4608 49.5727 24.6625 49.6795 24.1184 49.4494C23.3885 49.185 22.9339 48.5255 22.5165 47.9455C22.2693 47.6251 22.1388 47.3469 21.7512 47.1406C21.2282 46.8522 20.6207 46.7971 20.0107 46.84C20.7238 46.6035 21.4289 46.2981 22.142 46.0615C24.9468 45.0651 27.1358 45.495 29.7161 46.7595C29.8037 46.7912 29.9149 46.6665 29.8087 46.5951C26.7265 44.9839 24.5486 44.8879 21.309 45.9907C20.3281 46.3282 19.3553 46.7346 18.3291 46.9237C18.2415 46.892 18.162 46.9292 18.0639 46.9266C18.0639 46.9266 18.0241 46.9452 18.0135 46.9744C17.7669 47.017 17.5309 47.0305 17.2656 47.0334C15.7536 47.0136 14.7524 46.2221 13.4305 45.6774C12.8466 45.4659 12.4192 45.2781 11.9496 45.207C12.7845 44.8166 13.6406 44.3679 14.5177 43.8609C16.4311 42.7725 18.191 41.9255 20.4726 42.191C21.8628 42.3647 23.1635 42.9677 24.5537 43.1413C27.1881 43.4357 29.0605 41.6398 31.5105 41.0756C31.5795 41.0676 31.5528 40.959 31.4838 40.967C28.3841 41.5927 26.3632 43.4338 22.9666 42.5995C21.7565 42.2932 20.6552 41.9603 19.4774 41.9296C20.8615 41.5732 21.7269 40.3691 22.9351 39.5862C24.8615 38.3706 26.9809 39.9959 29.1234 39.5513C29.2321 39.5247 29.1868 39.3763 29.0887 39.3738C27.5717 39.5501 26.5548 38.9839 25.1063 38.7891C24.5782 38.6968 24.1061 38.7238 23.6104 38.9071C21.8263 39.5474 20.9037 41.4565 18.9389 41.8665C18.9389 41.8665 18.9389 41.8665 18.9283 41.8956C18.6233 41.9171 18.3183 41.9386 17.9922 42.0184C15.9876 42.4469 14.268 43.6385 12.4286 44.5228C11.9515 44.7458 11.5247 44.9211 11.0688 45.0859C12.0149 44.5709 12.8175 43.9049 13.5189 42.9713C14.2097 42.067 14.6273 41.0966 15.3951 40.2531C13.8196 41.9587 12.7063 44.0295 10.5836 45.24C7.89258 46.0138 5.73772 45.3983 3.09034 43.6807C3.00276 43.649 2.94188 43.7259 2.9897 43.7762L2.98722 43.8742ZM44.8884 15.9016C44.6589 11.7939 41.3002 11.4021 38.1427 10.8193C38.0763 10.7292 37.9675 10.7558 37.8986 10.7639C35.9245 10.3788 34.0616 9.86897 33.0908 8.2638C32.356 6.64517 31.6927 4.92046 32.3549 4.36859C32.4556 4.27308 32.3227 4.09299 32.2326 4.15933C31.5648 4.54424 31.7964 5.08998 31.925 5.82929C32.0187 6.39106 32.1628 6.90508 32.3361 7.42967C32.3361 7.42967 32.3255 7.45883 32.3442 7.49857C32.3628 7.5383 32.3814 7.57804 32.4001 7.61778C32.456 7.73699 32.4721 7.87479 32.528 7.994C32.8509 9.19958 31.9768 9.97161 31.9072 11.1669C31.8425 12.1662 32.3587 13.1118 32.0871 14.1351C31.7733 15.275 30.7141 16.3758 30.196 17.4417C29.7281 18.4599 29.446 19.5123 29.2515 20.5964C29.2515 20.5964 29.2807 20.607 29.2515 20.5964C29.5281 19.377 29.9667 18.3483 30.5035 17.3222C30.5388 17.8628 30.8395 18.4005 31.1003 18.9568C31.9226 20.6072 31.9387 22.2954 31.1111 23.942C31.6746 23.0245 31.917 21.9907 31.8462 20.9094C31.7246 19.5128 30.3773 18.0352 30.8445 16.654C31.0508 16.2669 31.2863 15.8903 31.5615 15.4952C32.0113 14.8004 32.3101 14.2488 32.468 13.4483C32.4357 13.1727 32.422 12.9369 32.3897 12.6613C32.3196 11.9431 32.3078 11.2461 32.2961 10.5491C32.3986 9.99242 32.7347 9.52036 32.8665 8.97429L32.8876 8.91596C33.2553 9.90682 33.6627 10.8791 33.9111 11.9257C34.021 12.6253 33.929 13.1528 33.5513 14.1046C33.4984 14.2504 33.3475 14.3936 33.2947 14.5395C33.1654 14.9875 33.0971 15.3586 33.1349 15.8011C33.295 18.0034 34.518 19.7329 33.7234 22.0181C33.7128 22.0473 33.7818 22.0393 33.7818 22.0393C34.2521 20.9231 34.1975 19.9796 34.0261 18.9939C34.654 20.178 35.3745 21.1977 36.2702 22.2808C37.3945 23.6447 37.4441 24.7842 36.6588 26.3142C36.3388 26.924 36.0294 27.5047 35.8263 28.1569C35.8157 28.186 35.8847 28.178 35.8847 28.178C36.4233 26.6907 37.8534 25.2953 37.3467 23.5943C37.0933 22.7438 36.4212 22.1375 35.8976 21.4861C35.1056 20.5725 34.4435 19.5739 33.951 18.4719C33.82 17.8306 33.6597 17.1788 33.579 16.4898C33.4257 15.1807 33.9439 14.1148 34.1011 12.9512C34.3401 14.7532 34.563 16.4173 35.714 17.8898C37.7581 20.5435 42.5828 21.994 41.1786 26.2358C42.4914 22.8846 39.5148 20.9818 37.3762 18.9537C35.0649 16.7641 34.9501 14.7102 34.4577 12.0577C34.9639 13.3956 35.4651 14.9297 36.5776 15.5965C37.4485 16.1099 38.4908 16.0586 39.5201 16.1345C39.7126 17.0619 40.3791 17.5012 41.1916 17.9934C42.6519 18.8852 43.7625 20.0132 44.1208 21.7594L44.15 21.77C44.037 20.8054 43.7066 19.894 43.0582 19.1313C42.1811 18.0879 40.2015 17.5358 39.9021 16.1739C40.2152 16.2213 40.5097 16.229 40.8016 16.3347C43.0043 17.0005 44.5459 18.9444 46.0367 20.5729C46.0845 20.6232 46.1746 20.5569 46.1268 20.5066C44.569 18.4249 42.6291 16.3039 39.9388 15.8903L39.8512 15.8585C39.8512 15.8585 39.6282 15.7448 39.5673 15.8217C37.9038 15.5821 36.5242 15.3793 35.4788 13.6151C35.0372 12.8284 34.7814 12.076 34.3584 11.329C34.3317 11.2204 34.3155 11.0826 34.2888 10.9739C34.1901 10.6083 33.9584 10.0625 33.6603 9.42675C34.7628 10.4858 36.3338 10.8899 37.9762 11.1878C38.4091 11.5426 38.5321 12.1149 38.875 12.536C39.1035 12.8167 39.3824 13.0497 39.6719 13.2535C40.4049 13.7829 41.2434 14.0206 42.0795 14.3564C41.3546 13.8959 40.5186 13.5601 39.8148 13.0413C39.1297 12.5623 38.911 11.8893 38.5148 11.2509C41.4971 11.7703 44.503 12.1332 44.8804 15.8327C44.8804 15.8327 44.9388 15.8538 44.9096 15.8432L44.8884 15.9016ZM90.0637 50.0111C90.1818 49.2292 89.5662 49.1052 88.8972 48.7639C88.3928 48.5153 87.8674 48.325 87.3418 48.1346C87.3418 48.1346 87.2834 48.1135 87.2542 48.1029C87.1958 48.0817 87.1667 48.0712 87.1083 48.05C86.9915 48.0077 86.8455 47.9549 86.7287 47.9126C85.5715 47.4604 85.4635 46.2997 84.5312 45.5002C83.7715 44.8622 82.7049 44.7068 82.0484 43.8752C81.2962 42.943 81.0497 41.4353 80.4671 40.3995C79.9323 39.4141 79.2466 38.572 78.4708 37.7962C78.4708 37.7962 78.4416 37.7856 78.4708 37.7962C79.2814 38.7495 79.8559 39.7163 80.3695 40.7601C79.9155 40.4637 79.2893 40.3688 78.6924 40.2846C76.8934 39.9629 75.4939 38.9942 74.6716 37.3438C74.6716 37.3438 74.6424 37.3333 74.6716 37.3438C75.0977 38.3558 75.7648 39.1583 76.6835 39.7219C77.9022 40.4602 79.8913 40.257 80.7155 41.4462C80.9018 41.8435 81.0776 42.2701 81.2533 42.6966C81.5676 43.4702 81.7993 44.0159 82.3732 44.6197C82.5856 44.7626 82.8378 44.8869 83.0503 45.0298C83.6503 45.3791 84.2292 45.7867 84.8081 46.1943C85.1908 46.5968 85.3827 47.1611 85.7653 47.5636L85.8237 47.5848C84.7888 47.3419 83.7539 47.099 82.7532 46.6706C82.1134 46.3399 81.76 45.948 81.2122 45.0898C81.1271 44.96 81.1029 44.7533 81.0178 44.6236C80.7519 44.2634 80.4836 44.0012 80.0773 43.7551C78.2213 42.5881 76.1018 42.5132 74.7273 40.5639C74.7273 40.5639 74.6689 40.5427 74.7167 40.593C75.3285 41.6393 76.1304 42.1607 77.0224 42.6157C75.6825 42.3943 74.4253 42.4008 73.0487 42.463C71.2982 42.5548 70.3714 41.9222 69.5758 40.3805C69.2671 39.7738 68.9876 39.1778 68.5994 38.6083C68.5994 38.6083 68.541 38.5872 68.5888 38.6375C69.4584 39.9751 69.7428 41.9254 71.4361 42.5387C72.2535 42.8348 73.1419 42.6617 73.9879 42.6053C75.208 42.5193 76.3752 42.5792 77.5771 42.8166C78.1691 43.097 78.7716 43.3482 79.4114 43.6789C80.5637 44.3272 81.1357 45.392 81.9699 46.189C80.3717 45.3132 78.9194 44.4903 77.0229 44.5292C73.6915 44.6091 69.6566 47.6342 67.0485 43.9845C67.0485 43.9845 67.0193 43.974 67.0485 43.9845C68.9554 47.0173 72.2583 45.7395 75.1487 45.2359C78.2963 44.6605 80.025 45.8145 82.4513 46.9571C81.0661 46.5874 79.5374 46.0667 78.3366 46.5554C77.4035 46.9432 76.8214 47.821 76.1728 48.6088C75.3287 48.204 74.5652 48.4883 73.6825 48.8284C72.0947 49.4739 70.5566 49.7085 68.9161 48.9494L68.9055 48.9786C69.7577 49.4522 70.6839 49.7217 71.6679 49.6492C73.0153 49.5764 74.6683 48.2948 75.9212 48.8475C75.7094 49.0677 75.4975 49.2879 75.2671 49.4683C73.4152 50.8428 70.9379 50.9352 68.742 51.1625C68.673 51.1706 68.6997 51.2792 68.7687 51.2712C71.3814 51.2608 74.2084 50.9322 76.1629 49.001L76.1945 48.9135C76.3697 48.977 76.4517 48.8417 76.4356 48.7039C77.6246 47.5182 78.5832 46.5128 80.6207 46.7229C81.5121 46.8149 82.2711 47.0898 83.1333 47.1712C83.2501 47.2135 83.3669 47.2558 83.4837 47.2981C83.834 47.4249 84.4099 47.5675 85.113 47.7232C83.5936 47.9976 82.33 49.0244 81.1329 50.1413C80.5894 50.2743 80.0452 50.0443 79.5041 50.0792C79.1408 50.0796 78.7749 50.178 78.4382 50.2869C77.5766 50.5687 76.8851 51.11 76.1273 51.5612C76.9118 51.2186 77.6989 50.7779 78.5208 50.5148C79.3134 50.2411 79.9955 50.4551 80.7303 50.5233C78.5455 52.635 76.4668 54.8181 73.2939 52.9102C73.2939 52.9102 73.2542 52.9288 73.2728 52.9685C76.7221 55.2074 79.0045 52.7353 81.3484 50.5493C81.4571 50.5227 81.5075 50.4749 81.5391 50.3874C83.0171 49.0424 84.5111 47.8351 86.4026 47.9924C88.122 48.3512 89.9265 48.8398 90.0023 49.725C90.0184 49.8628 90.2439 49.8785 90.257 49.7512L90.0637 50.0111ZM16.6696 16.7652C16.5262 16.6142 16.3143 16.8344 16.4286 16.9748C17.4038 18.0207 18.2207 17.9537 19.4655 18.4376C22.8099 19.7808 23.7191 22.6502 25.416 25.442C26.8284 27.8339 28.5166 30.1937 31.4535 30.5647C31.5119 30.5859 31.525 30.4586 31.4852 30.4772C27.5159 29.7653 25.8036 25.6484 23.9123 22.3903C24.3322 22.8723 24.7521 23.3542 25.2434 23.7301C26.1863 24.5005 27.3752 24.8651 28.2573 25.7124C29.4927 26.9516 30.01 28.6234 31.7114 29.3056C31.799 29.3373 31.8413 29.2207 31.7537 29.1889C30.0331 28.1039 29.412 26.2626 27.8715 25.0449C27.3032 24.6081 26.6317 24.3649 26.0317 24.0156C25.0838 23.4414 24.3266 22.7053 23.5905 21.9109C23.4204 21.6513 23.2794 21.4023 23.1092 21.1428C22.5322 20.274 21.9259 19.3947 21.047 18.8124C19.6848 17.9232 17.7964 18.031 16.6007 16.7732L16.6696 16.7652ZM10.4726 26.0336C10.1776 25.6629 9.58429 26.2067 9.92964 26.5297C10.793 27.3373 11.7751 27.7259 12.8336 27.8124C13.2318 27.9896 13.6219 28.0979 14.0306 28.246C14.9952 29.3211 15.986 30.1417 16.3306 31.6521C16.4616 32.2933 16.4256 32.94 16.7051 33.5361C17.1603 34.5587 18.1902 34.9976 19.2723 34.9277C19.3015 34.9383 19.2934 34.8694 19.2934 34.8694C17.556 34.8339 16.9306 33.5518 16.7238 32.0254C16.6487 31.5034 16.5922 31.0211 16.4084 30.5256C16.0755 29.7123 15.4668 28.931 14.7127 28.46C14.7127 28.46 14.7711 28.4811 14.8002 28.4917C15.9097 28.8935 16.7172 29.5819 17.5911 30.3602C18.311 31.0168 18.9061 31.5622 19.9056 31.2645C18.3041 31.6741 17.2744 29.6847 16.0662 28.9172C15.2351 28.3853 14.248 28.1927 13.3244 27.8252C13.7275 27.8063 14.1412 27.7582 14.5761 27.6518C15.7321 27.3777 16.7652 26.5313 17.9293 26.3262C20.1886 25.9239 21.9316 27.6768 23.2577 29.2127C22.1813 27.8992 20.9508 26.4639 19.181 26.1528C16.0528 25.5806 13.3242 29.3756 10.5018 26.0442L10.4726 26.0336ZM81.8656 63.4371C80.9518 62.6773 79.9592 62.3178 78.8876 62.3585C78.4789 62.2105 78.0994 62.073 77.6987 61.9939C76.6732 60.9957 75.6427 60.1936 75.208 58.7496C75.0372 58.1269 75.0441 57.4697 74.7248 56.8922C74.1901 55.9068 73.1682 55.5367 72.1048 55.6463C72.0756 55.6358 72.0836 55.7047 72.0836 55.7047C73.7944 55.6315 74.5286 56.8871 74.8148 58.3763C74.8899 58.8983 74.9862 59.362 75.239 59.8494C75.6116 60.6442 76.2707 61.3777 77.0353 61.8196L76.9477 61.7878C75.8172 61.4444 74.9594 60.8038 74.0643 60.0837C73.3338 59.4563 72.6592 58.9481 71.697 59.3253C73.2718 58.807 74.4102 60.7698 75.6793 61.4604C76.5607 61.9446 77.5397 62.0682 78.4739 62.4066C78.0602 62.4547 77.6359 62.5319 77.2303 62.6489C76.0823 62.9919 75.097 63.8886 73.9516 64.1335C71.719 64.6444 69.894 63.0268 68.4778 61.5572C69.6046 62.8229 70.9357 64.1628 72.7079 64.3758C75.8704 64.7624 78.3573 60.8139 81.3996 63.994C81.7344 64.3462 82.2693 63.7812 81.9134 63.4874L81.8656 63.4371ZM70.0272 26.0951C70.0272 26.0951 69.9577 25.74 69.9626 25.5439C69.9577 25.74 69.9632 25.907 69.9582 26.1031C69.9477 26.1323 70.0458 26.1348 70.0166 26.1242L70.0272 26.0951ZM69.9626 25.5439C69.9701 25.2497 69.9881 24.9264 70.0354 24.6136C69.9881 24.9264 69.9515 25.21 69.9626 25.5439ZM71.9182 32.454C73.5292 29.7386 73.8002 26.8019 72.6469 23.877C72.1302 22.5683 71.4147 21.3525 70.7389 20.1181C69.6135 18.028 69.1173 16.2979 68.6652 13.9899C68.823 13.1894 69.002 12.3305 69.2474 11.5617C69.3586 11.4371 69.4593 11.3415 69.5705 11.2169C69.6711 11.1214 69.5568 10.981 69.4587 10.9785C69.8259 10.0558 70.3446 9.35302 71.0869 9.12706C71.3441 9.05526 71.187 8.66848 70.959 8.75085C69.7315 9.13097 69.4917 10.0667 69.1381 11.2252C68.8468 11.4826 68.574 11.7797 68.3119 12.0476C68.2641 11.9973 68.2057 11.9761 68.1659 11.9947C66.4867 13.5308 64.6921 14.2003 62.3868 14.0911C61.278 14.0524 60.1555 13.7778 59.0604 13.9749C57.3049 14.2628 55.8239 15.3428 54.9405 16.8702C56.1152 15.0855 58.0342 14.1641 60.1058 14.1887C61.2544 14.2088 62.3185 14.4622 63.4695 14.3843C64.6206 14.3064 65.7767 14.0323 66.7625 13.4987C65.7878 14.3663 64.7467 15.1437 63.4608 15.5027C61.6102 16.053 59.7348 16.0336 57.9458 16.8701C57.9458 16.8701 57.9246 16.9284 57.9644 16.9098C60.0585 16.0518 62.3879 16.3677 64.4714 15.5389C66.2077 14.8482 67.6136 13.2462 68.9163 11.8377C68.5839 12.9378 68.2912 14.0194 67.98 15.0613C66.8716 16.936 65.3515 18.3977 63.5126 19.6451C61.6341 20.911 59.8749 20.5707 57.833 20.9198C55.6241 21.2743 53.9598 22.222 52.1583 23.5488C52.1185 23.5674 52.1558 23.6469 52.1955 23.6283C55.0755 21.6035 56.667 21.5861 60.0724 21.302C61.1651 21.2029 61.9633 21.0962 62.9492 20.5626C64.5631 19.6626 66.1472 18.389 67.3437 16.9091L67.3176 17.1635C66.6335 18.961 65.6681 20.6237 63.9411 22.1094C62.1134 23.6907 59.7883 24.366 57.8861 25.7883L57.9072 25.73C57.9072 25.73 57.8327 25.571 57.7718 25.6479C56.133 27.5285 53.4407 27.576 51.6 29.2845C50.3526 30.4491 49.4108 31.9554 48.8988 33.5513C48.8777 33.6096 48.9652 33.6414 48.9864 33.583C50.2395 31.035 51.5647 28.7439 54.4172 27.7978C55.1701 27.5426 55.8516 27.3936 56.4585 27.0856C55.0738 28.6293 54.1139 30.4589 53.377 32.4023C53.377 32.4023 53.377 32.4022 53.4062 32.4128C55.0054 29.0004 56.8368 26.4969 60.1467 24.5618C61.8612 23.5663 63.4938 22.7061 64.8947 21.3002C65.8321 20.3532 66.5838 19.3719 67.1815 18.2688C67.0118 19.9227 66.8899 21.627 66.4177 23.2043C66.043 24.4212 65.4292 25.3864 64.6614 26.2299C63.3127 27.127 61.1087 27.2854 59.7706 28.1532C58.3716 29.098 57.3975 30.3287 56.7687 31.8823L56.7979 31.8929C58.0063 29.5595 59.9769 27.7661 62.5567 27.1171C63.1798 26.9469 63.7711 26.8642 64.288 26.6225C63.4114 27.4926 62.4287 28.2913 61.4434 29.188C59.8437 30.6868 58.6472 32.1668 58.757 34.4168C58.7464 34.4459 58.8154 34.4379 58.8154 34.4379C59.171 29.7175 63.6443 28.7645 65.8641 25.28C66.1604 24.8265 66.3691 24.3413 66.5487 23.8456C66.7436 26.2253 68.2057 28.2064 66.8439 30.7811C65.6274 33.0455 62.9097 33.7106 61.8951 36.1471C61.8845 36.1763 61.9429 36.1975 61.9535 36.1683C63.2594 33.4744 66.7251 32.7503 67.6248 29.8103C68.4058 27.2892 66.6704 25.2422 66.929 22.7957C67.3347 21.1283 67.4405 19.2863 67.512 17.6298C67.7394 17.1843 67.919 16.6886 68.0985 16.1928C68.1725 15.9887 68.2569 15.7554 68.3122 15.5115C68.3545 15.3948 68.4154 15.3179 68.4868 15.2118C68.6675 16.9927 69.6544 18.7356 70.519 20.2693C71.091 21.3342 71.6444 22.3594 72.0599 23.4005C71.7431 24.2754 71.0491 24.9148 70.7031 25.7791C70.608 26.0415 70.5235 26.2748 70.4682 26.5187C70.6266 26.0813 70.7851 25.6438 70.9913 25.2567C71.3511 24.6283 71.8648 24.1216 72.1183 23.4217C73.2928 26.2882 73.6609 29.1925 71.9102 32.3851C71.8891 32.4434 71.9474 32.4646 71.9686 32.4062L71.9182 32.454ZM37.3194 73.3638C36.7217 74.4669 37.1583 75.4497 37.8018 76.4085C38.8441 77.9076 39.8646 79.102 39.9974 80.8325C39.7631 81.9352 39.245 83.0011 38.3846 84.009C37.6353 84.8922 36.9122 85.521 36.4338 86.5683C36.3599 86.7724 36.6519 86.8782 36.7258 86.674C37.5558 84.9294 38.989 83.7991 39.7848 82.24C39.7848 82.24 39.8432 82.2611 39.8644 82.2028C40.6235 80.9273 42.0424 80.7484 43.0779 79.804C43.8619 79.0983 44.0751 78.0539 44.2671 77.0678C44.2777 77.0386 44.2087 77.0466 44.2087 77.0466C43.9769 78.0513 43.724 79.1143 42.8525 79.7883C42.3915 80.1491 41.7976 80.3299 41.2702 80.6007C40.9124 80.768 40.5732 80.975 40.3111 81.243C40.3769 80.9699 40.3738 80.7049 40.3602 80.469C40.413 80.3232 40.4074 80.1563 40.4311 79.9999C40.4522 79.9416 40.4335 79.9018 40.4255 79.8329C40.4547 79.8435 40.5131 79.8646 40.5342 79.8063C40.9449 77.9428 42.5458 77.1701 42.6248 75.2194C42.6808 73.7882 42.4399 72.4474 42.0027 71.1015C42.4405 72.8105 42.9646 75.3755 41.9911 76.9692C41.3667 77.9636 40.638 78.4254 40.4516 79.5785C40.4624 76.4485 38.686 73.6939 39.9062 70.5071L39.877 70.4965C38.8755 72.8058 39.5525 74.7664 39.9834 77.1327C40.1492 77.9515 40.1982 78.728 40.1596 79.4727C39.2994 77.3798 36.6415 75.6914 37.3883 73.3558C37.4095 73.2975 37.3511 73.2763 37.3007 73.3241L37.3194 73.3638ZM29.5 79.9994C28.6824 81.2537 27.217 82.1085 26.0354 83.0001C25.9453 83.0664 26.041 83.167 26.1205 83.1298C27.3052 82.5033 28.4445 81.7284 29.3049 80.7205C29.3341 80.731 29.3925 80.7522 29.403 80.723C30.1299 79.1719 31.6705 78.8392 32.7508 77.6801C33.3969 76.9904 33.6635 76.1632 33.707 75.2224C33.7282 75.164 33.6195 75.1906 33.6195 75.1906C33.4609 77.1785 32.1278 77.8502 30.6679 78.872C30.4983 78.9755 30.3474 79.1187 30.207 79.2328C31.3539 76.6133 30.9602 74.3265 33.8221 72.625C33.8221 72.625 33.8433 72.5667 33.8035 72.5853C32.5872 73.2993 31.6019 74.196 30.9992 75.4952C30.3438 76.9402 30.3704 78.5993 29.4814 79.9597L29.5 79.9994ZM8.7699 60.1866C8.7699 60.1866 8.71709 60.3324 8.81524 60.335C9.64267 60.2388 10.38 60.209 11.1118 60.0122C11.1118 60.0122 11.141 60.0228 11.1702 60.0333C12.351 60.3291 13.7779 60.2191 14.8539 59.6191C15.5614 59.2156 16.1466 58.6029 16.8542 58.1994C17.8214 57.626 18.8663 57.4766 19.9776 57.4173C20.0068 57.4279 19.9987 57.359 19.9987 57.359C18.7278 57.1296 17.4419 57.4885 16.3635 58.1866C15.5049 58.7333 14.798 59.4999 13.7612 59.7182C13.1195 59.8486 12.4828 59.783 11.8355 59.7465C12.1536 59.5978 12.4927 59.3907 12.7947 59.1042C14.5322 57.5893 15.5511 56.144 17.9589 55.6965C18.0278 55.6885 18.0011 55.5798 17.9321 55.5879C16.3885 55.6555 15.1454 56.2609 14.0676 57.3221C13.2917 58.0967 12.5878 59.1283 11.5249 59.601C10.6211 59.9994 9.62345 59.836 8.71152 60.1655L8.7699 60.1866ZM50.4359 21.3745C50.6434 20.1632 51.0075 18.9755 51.6052 17.8724C51.822 17.4562 52.1662 17.053 52.3246 16.6155C52.6626 15.6823 52.2763 14.6517 52.2801 13.7294C52.5765 13.276 52.825 12.7722 52.9859 12.2367C53.4973 10.2777 53.0564 8.30362 52.4857 6.41451C53.4732 8.52056 55.9665 10.1164 55.3793 12.7407C55.3582 12.799 55.4458 12.8307 55.4669 12.7724C56.4722 9.54079 52.347 7.61786 52.2386 4.54364C52.241 4.44558 52.1137 4.43245 52.082 4.51994C52.0534 4.87245 52.1043 5.18779 52.1553 5.50312C52.0596 5.4025 51.8316 5.48487 51.9061 5.64382C52.2421 6.72217 52.557 7.85884 52.7445 8.98238C52.4649 9.93674 52.3207 10.9731 51.8659 11.864C51.2869 13.0068 50.3514 13.4927 49.3313 14.2119C48.3405 14.9416 47.6788 15.8566 47.1793 16.9622C47.795 15.5358 48.7138 14.549 50.0494 13.7792C50.5476 13.4978 51.0539 13.2853 51.4379 12.8636C52.256 11.9723 52.5164 10.6152 52.7532 9.41436C52.783 9.78803 52.8127 10.1617 52.8133 10.5248C52.7852 12.7908 51.562 14.1621 50.2251 15.7562C49.3143 16.8118 48.849 17.7319 49.098 19.1416L49.1272 19.1522C49.0652 16.9525 50.896 15.6363 52.0975 13.9602C52.0714 14.2146 52.0745 14.4797 52.1067 14.7553C52.1669 15.8657 52.0991 16.5999 51.5145 17.5757C50.8162 18.7743 50.431 20.0203 50.2874 21.4197C50.2663 21.4781 50.375 21.4515 50.375 21.4515L50.4359 21.3745ZM60.641 68.8792C60.8006 69.1679 61 69.438 61.1913 69.6393C60.9814 69.3983 60.8006 69.1679 60.641 68.8792ZM60.0714 67.7162C60.218 68.1322 60.4335 68.5401 60.641 68.8792C60.4335 68.5401 60.2764 68.1533 60.1218 67.6685C60.1323 67.6393 60.0342 67.6368 60.0528 67.6765L60.0714 67.7162ZM71.571 74.7182C71.571 74.7182 71.6878 74.7605 71.7487 74.6836L71.7859 74.7631C72.3766 75.8677 72.8046 76.4185 73.9196 76.9873C74.1531 77.0719 74.3569 76.7828 74.1339 76.6691C71.912 75.6004 71.3855 71.5831 69.6134 69.8197C67.4003 67.6326 64.1963 66.1753 64.2195 62.555C64.2301 62.5258 64.1611 62.5338 64.1611 62.5338C64.1199 64.927 65.515 66.455 67.2443 67.972C68.3972 68.9833 69.5152 69.8171 70.3662 71.1149C71.0469 72.1532 71.1735 73.3537 71.6766 74.4266C70.6984 73.1156 69.4554 72.1706 67.887 71.6685C67.887 71.6685 67.8975 71.6393 67.8683 71.6288C66.3365 70.843 65.9149 69.2718 65.0055 67.9528C64.3993 67.0735 63.6819 66.3188 62.8639 65.6597C64.1788 66.8617 65.0484 68.1993 65.8732 69.7516C66.267 70.488 66.6924 71.1369 67.3987 71.5576C65.1351 70.9687 62.7988 71.3101 61.3081 69.6816C61.8901 70.3542 62.6231 70.8836 63.589 71.1345C64.7009 71.4382 65.8731 71.302 66.9956 71.5766C68.9777 72.0306 70.412 73.1768 71.6878 74.7605L71.571 74.7182ZM62.6089 78.3998L62.5666 78.5164C62.5666 78.5164 62.6622 78.6171 62.6834 78.5587C63.8797 80.1796 63.9249 81.8784 63.5197 83.9088C63.4775 84.0255 63.6818 84.0995 63.7241 83.9829C64.4504 82.0687 64.4424 80.4494 63.2381 78.7596C63.1052 78.5795 62.9722 78.3994 62.8288 78.2485C63.6949 75.8572 61.2568 74.0175 60.5532 71.9483C60.5532 71.9483 60.4948 71.9271 60.524 71.9377C60.8413 72.9763 61.4792 73.7681 62.0351 74.6952C62.7134 75.8316 62.7469 76.8333 62.648 78.0181C61.9598 77.274 61.1417 76.6149 60.4535 75.8708C58.9708 74.3111 58.3634 72.7056 58.2406 70.5829C58.2617 70.5245 58.153 70.5511 58.153 70.5511C57.8429 72.3192 58.4528 73.8266 59.5479 75.1799C60.3957 76.2127 61.4846 77.0359 62.343 78.0396C62.4387 78.1402 62.5238 78.27 62.6089 78.3998ZM78.4201 34.38C79.2619 33.3324 80.2247 33.3182 80.1745 31.8156C80.133 30.7449 79.6883 29.6932 79.7741 28.6356C80.6743 27.6091 81.7154 26.8316 83.2218 26.6845C83.4287 26.6604 83.338 26.3637 83.2001 26.3797C81.9267 26.2484 80.9619 26.7237 80.1276 27.4771C80.1487 27.4188 80.1593 27.3896 80.1804 27.3313C80.2121 27.2438 80.1351 27.1829 80.0848 27.2307C79.7748 27.4483 79.64 27.7294 79.5635 28.0316C79.2088 28.4639 78.8541 28.8962 78.5366 29.408C77.6091 29.9628 76.4923 29.8551 75.3971 30.0523C74.469 30.244 73.7111 30.6952 73.065 31.3849C73.065 31.3849 73.0545 31.414 73.065 31.3849C74.1957 30.1779 75.5219 30.1635 77.0681 29.9977C77.511 29.9602 77.9166 29.8432 78.3037 29.6865C77.2823 31.2299 76.269 32.8422 74.8166 33.5697C71.167 35.3488 67.6326 32.9801 65.4488 37.3683C65.4488 37.3683 65.4675 37.408 65.478 37.3789C67.9743 32.675 71.8969 35.6131 75.3763 33.5745C75.8453 33.2825 76.2665 32.9403 76.6691 32.5583C76.4417 33.0037 76.2541 33.4306 75.9577 33.884C75.1377 35.2364 73.9108 35.9797 72.4019 36.2249C71.0415 36.4249 69.8022 36.108 68.7349 37.14C68.7244 37.1691 68.743 37.2089 68.7933 37.1611C70.465 35.9192 72.8273 36.8738 74.6158 35.6742C76.044 34.74 76.3864 33.2476 77.2357 31.9058C78.0458 30.9456 78.7416 29.8451 79.5119 28.9035C79.5256 29.1394 79.5579 29.415 79.6007 29.6614C79.7 30.3902 80.2031 31.4631 80.0266 32.2239C79.8079 33.1013 78.8699 33.6852 78.3219 34.3775C78.3114 34.4066 78.3406 34.4172 78.3803 34.3986L78.4201 34.38ZM78.8529 70.2961C77.9342 69.7324 76.9708 69.3835 75.9123 69.297C73.8642 69.116 72.1007 69.335 71.0175 67.1283C71.4727 68.1509 72.238 68.9559 73.3499 69.2596C74.0425 69.4445 74.7028 69.3538 75.419 69.3823C76.6844 69.4447 77.746 69.7962 78.8106 70.4127C78.8982 70.4445 78.9697 70.3384 78.8529 70.2961ZM86.6754 55.8104C86.6754 55.8104 86.6511 55.6037 86.5716 55.6409C85.6864 56.079 84.7875 56.2813 83.7924 56.0198C83.2271 55.8481 82.7333 55.5702 82.1575 55.4277C81.4357 55.2322 80.7673 55.254 80.1473 55.6893C81.5941 54.7948 82.9439 56.1743 84.3527 56.3877C85.1751 56.4876 85.9653 56.312 86.6356 55.829L86.6754 55.8104ZM86.193 34.985C87.5559 34.6869 88.7113 34.0498 89.7842 33.1848C89.8345 33.1371 89.7681 33.047 89.7177 33.0948C87.4366 34.7427 85.3705 34.8851 82.6783 34.9326C81.1266 34.9314 80.5072 35.7297 79.9816 37.0898C81.2397 34.3456 83.8914 35.504 86.1638 34.9745L86.193 34.985ZM56.4 78.8561C56.8814 79.6242 57.4423 80.3552 57.8441 81.1605C58.459 82.4718 58.3707 83.6274 58.0414 84.9926C57.978 85.1676 58.27 85.2733 58.3333 85.0983C60.0003 80.9518 54.7657 78.627 55.2791 74.6564C55.3002 74.5981 55.2021 74.5956 55.1915 74.6247C54.9262 76.178 55.5491 77.5582 56.4 78.8561ZM1.21306 36.0072C0.517356 35.5573 0.00240515 35.3378 -0.851729 35.3254C-0.979071 35.3122 -1.02381 35.5269 -0.896463 35.5401C1.56589 36.036 2.99633 38.1046 5.65439 38.2426C5.82149 38.2371 5.98859 38.2317 6.15569 38.2262C7.94716 38.8421 9.97467 39.4445 11.768 39.5992C13.6303 39.7459 14.2722 38.065 15.7457 37.2791C15.7457 37.2791 15.7562 37.25 15.7457 37.2791C15.1201 37.5474 14.7387 37.8711 14.246 38.3194C13.221 39.2347 12.3488 39.5456 10.9823 39.2156C9.67405 38.9067 8.36834 38.4998 7.03095 38.1804C9.23992 37.8258 11.2272 36.5333 13.4765 36.5233C10.8924 36.1811 8.63799 37.9377 6.03583 37.9189C5.93768 37.9163 5.83953 37.9138 5.74138 37.9112C5.68299 37.8901 5.6246 37.8689 5.56621 37.8478C5.53701 37.8372 5.50782 37.8266 5.48669 37.885C3.82068 37.7434 2.64172 36.9865 1.19193 36.0655L1.21306 36.0072ZM3.82553 30.9825C3.82553 30.9825 3.67705 31.0277 3.75408 31.0886C4.98953 32.3278 6.59834 33.1744 8.34269 32.5526C9.56211 32.1036 10.343 31.1329 11.8531 31.6138C13.0712 31.989 13.3252 33.2026 14.0296 34.0845C14.5718 34.7757 14.8401 35.0379 15.6998 35.2173C15.729 35.2279 15.7502 35.1695 15.721 35.159C13.5767 34.5143 13.6751 31.416 11.2133 31.2831C10.3989 31.2521 9.89821 31.6315 9.17451 31.8972C6.97171 32.7818 5.55978 32.3034 3.85472 30.9931L3.82553 30.9825ZM21.8745 9.05072C21.8745 9.05072 21.718 9.02701 21.7553 9.10649C22.5993 11.0616 23.9646 12.2159 23.9924 14.6011C24.0184 15.897 23.7947 16.9706 24.0859 18.2637C24.6628 20.6828 26.1964 22.5578 28.2754 23.8386C25.6069 22.1794 24.3908 19.7926 24.1183 16.9889C24.3152 17.3571 24.6233 17.6006 25.0798 17.7989C25.9054 18.1639 26.6005 18.2507 27.2198 19.0028C27.7539 19.6252 27.9545 20.6215 27.9346 21.406C27.9887 20.4359 27.6608 19.4265 27.0521 18.6452C26.252 17.6627 24.4276 17.9586 24.0699 16.5755C24.037 15.9368 24.0439 15.2795 24.0905 14.6036C24.2876 11.871 23.0031 11.4058 21.8453 9.04015L21.8745 9.05072ZM26.982 8.26151C26.982 8.26151 26.9236 8.24036 26.9422 8.2801C27.8844 10.2378 28.9012 12.3544 28.5494 14.6022C28.5389 14.6313 28.6078 14.6233 28.6078 14.6233C29.0788 12.3198 28.0807 10.2429 26.982 8.26151ZM26.7666 6.30316L26.7766 5.91091L26.7666 6.30316ZM45.913 13.0728C44.6752 10.3812 46.8122 8.2193 47.3864 5.72221L47.4075 5.66388C47.4075 5.66388 47.4075 5.66388 47.4181 5.63472C47.4392 5.57639 47.4603 5.51807 47.492 5.43058C47.781 3.72089 47.409 1.73883 47.1569 0.0640913C47.1408 -0.0737084 46.8942 -0.0310807 46.8917 0.0669819C47.0028 1.49272 47.3288 2.96332 47.3417 4.38651C47.3374 4.94572 47.2454 5.47321 47.095 5.97955C45.814 7.69281 42.1645 7.92147 42.4395 10.6271C42.4395 10.6271 42.4979 10.6483 42.4687 10.6377C42.2148 7.87371 45.5649 7.83351 46.9683 6.32951C46.7253 7.00025 46.4532 7.66042 46.1519 8.31002C45.4728 9.91141 45.0111 11.4596 45.8043 13.0994C45.8415 13.1789 45.9211 13.1417 45.8944 13.033L45.913 13.0728Z" fill="url(#paint1_radial_102_180)"/>
</g>
<defs>
<radialGradient id="paint0_radial_102_180" cx="0" cy="0" r="1" gradientUnits="userSpaceOnUse" gradientTransform="translate(44.2896 34.0346) rotate(-145.786) scale(45.9834 45.9387)">
<stop stop-color="white"/>
<stop offset="0.41" stop-color="#A7A39E"/>
<stop offset="0.82" stop-color="#574F45"/>
<stop offset="1" stop-color="#382F23"/>
</radialGradient>
<radialGradient id="paint1_radial_102_180" cx="0" cy="0" r="1" gradientUnits="userSpaceOnUse" gradientTransform="translate(44.3544 44.5349) rotate(32.6061) scale(43.7795 43.7358)">
<stop offset="0.47" stop-color="#FF0000"/>
<stop offset="1" stop-color="#FF8879"/>
</radialGradient>
</defs>
</svg>
