<svg width="60" height="54" viewBox="0 0 60 54" fill="none" xmlns="http://www.w3.org/2000/svg">
<path style="mix-blend-mode:screen" d="M53.3862 31.4981C42.788 32.3109 41.2922 32.4289 53.3643 32.7437C41.2269 33.065 42.6575 33.5832 53.0013 36.2079C42.5835 33.7873 41.1082 33.4839 52.5658 37.5017C41.0057 34.0405 42.4182 34.882 51.6729 39.7844C42.3468 34.9881 40.8814 34.2924 50.7522 41.2323C40.3969 34.8097 41.4068 36.0332 48.7537 43.7413C41.2453 36.2056 40.0844 35.1253 47.3895 44.8636C39.7216 35.4888 40.5091 36.9616 45.8184 46.01C40.3607 37.0068 39.4725 35.6295 43.751 46.9766C38.7618 35.7679 38.9686 37.2943 41.1159 47.8695C38.7406 37.3767 38.3164 35.9035 38.7317 48.1606C37.8232 35.9888 37.7249 37.5366 37.2862 48.2309C37.5578 37.5421 37.4996 35.9705 34.5164 47.8545C36.897 35.7193 36.3341 36.9999 32.4572 47.3396C36.1086 36.9842 36.438 35.619 29.8476 46.0645C35.9709 35.4498 35.185 36.6167 29.0724 45.6518C35.039 36.5638 35.7187 35.3255 26.8413 43.7881C35.3572 34.8647 34.3054 35.6713 25.8449 42.8005C34.1619 35.5204 35.041 34.5523 24.0847 40.1836C34.7062 34.2001 33.5029 34.7869 23.7176 39.5558C33.447 34.6677 34.5652 33.9511 22.7531 36.9303C34.4609 33.4185 33.2278 33.6316 22.4277 35.8228C33.1452 33.4038 34.3541 32.9839 22.1279 32.5474C34.1914 32.4302 32.8782 32.3174 22.105 31.5164C32.8726 32.1505 34.1989 32.136 22.5201 29.0937C34.3387 31.6588 33.1417 31.2253 22.7861 27.9035C33.2262 30.992 34.4679 31.2108 24.0044 25.1779C34.6394 30.6461 33.5586 29.8918 24.6735 23.9687C33.6406 29.7566 34.7928 30.4048 25.8303 22.5073C35.1239 30.1289 34.2842 29.165 26.7808 21.4331C34.4749 29.0031 35.4364 29.8132 28.7252 19.8942C35.8682 29.4418 35.3198 28.2205 30.2832 18.875C35.439 28.1647 36.1279 29.2719 31.5449 18.3093C36.5627 29.1655 36.3087 27.9519 33.3501 17.6106C36.5261 27.8987 36.987 29.0882 35.3442 17.2112C37.5703 28.9366 37.6822 27.6247 37.7762 16.9705C37.8785 27.6298 37.9045 28.9257 38.7763 17.0358C38.353 29.0552 38.7649 27.9178 41.3312 17.3674C38.9798 27.9627 38.7723 29.1741 42.6953 17.7955C39.2791 29.3246 40.0228 28.2744 45.2222 18.8426C40.129 28.3459 39.55 29.4887 45.7533 19.1999C39.8661 29.8011 40.78 29.0105 48.1938 20.9415C40.9234 29.1615 40.1531 30.103 48.9112 21.6962C40.5276 30.4366 41.7017 29.8392 50.7318 23.873C41.7576 29.9584 40.6686 30.6856 51.1175 24.5405C40.9214 31.173 42.2446 30.8935 52.5733 27.542C42.298 31.1108 41.0388 31.5784 52.859 28.6681C41.281 32.095 42.7638 32.1042 53.3675 31.4583L53.3862 31.4981Z" fill="url(#paint0_radial_221_19)"/>
<path style="mix-blend-mode:multiply" d="M31.3235 43.5423C21.2178 47.0077 10.1877 41.6272 6.71231 31.5276C3.23688 21.428 8.61407 10.4111 18.7198 6.94582C28.8256 3.48051 39.8556 8.86095 43.3311 18.9606C46.8065 29.0602 41.4293 40.077 31.3235 43.5423Z" fill="url(#paint1_radial_221_19)"/>
<path style="mix-blend-mode:screen" opacity="0.3" d="M31.6201 43.4517C31.1737 41.3107 30.7967 39.5248 30.5185 38.1045C30.916 39.469 31.4016 41.2284 31.9674 43.3136C31.1023 39.8664 30.4962 37.4367 30.1013 35.9741C29.5009 32.1609 30.4959 33.9728 33.9447 42.4133L34.0242 42.3762C29.6091 30.2208 30.0401 31.0367 34.6125 42.0284L34.6417 42.039C31.6798 34.5335 30.6911 31.7013 32.337 34.1778C32.8482 35.3196 34.014 37.7541 35.7307 41.3118C34.3599 38.4402 33.3538 36.2944 32.8184 34.9459C33.5923 36.1829 34.7494 38.1854 36.3004 40.9243C34.3209 37.2715 33.052 35.0305 32.4588 34.024C31.7738 31.9945 33.2701 33.79 37.5931 39.9081L37.6832 39.8418C31.1894 29.8695 31.7236 30.4918 38.115 39.4703L38.1361 39.412C32.6081 31.241 31.8814 29.6913 37.9388 35.5799C38.5022 36.2128 39.1426 36.9066 39.86 37.6612C39.4507 37.1501 39.0494 36.7079 38.6774 36.2762C39.06 36.6787 39.501 37.1023 39.942 37.526L39.9737 37.4385C38.4538 35.7994 37.2581 34.5416 36.368 33.6254C33.4313 30.1536 34.6338 30.7541 41.1013 35.9665L41.1435 35.8499C32.9754 28.768 33.5332 29.2339 41.2442 35.7544L41.2653 35.6961C35.501 30.6394 33.9308 29.048 37.6584 31.1568C38.6516 31.8794 40.1175 32.9382 42.0853 34.3437C40.5822 33.2054 39.3579 32.3002 38.423 31.5987C39.4293 32.1941 40.6958 32.9827 42.281 33.9857L42.3022 33.9274C39.684 32.2204 37.9553 31.0665 37.0366 30.5028C35.3552 29.0361 37.0565 29.7183 42.8626 32.7448L42.9048 32.6282C34.1514 27.7094 34.7726 28.0004 42.9788 32.424L43.0104 32.3366C34.9658 27.7405 34.4738 27.0015 43.7573 30.001L43.8101 29.8552C35.1603 26.6563 35.8318 26.8995 43.8126 29.7571L43.8337 29.6988C35.9138 26.7643 35.2976 26.2772 44.1152 28.2833C44.1363 28.2249 44.1575 28.1666 44.1494 28.0977C35.9281 25.8128 35.3623 25.278 44.3346 26.2185L44.3769 26.1018C43.6234 25.9939 42.9681 25.8885 42.3605 25.8334C36.55 24.9165 36.7035 24.6752 44.3378 24.9331L44.3801 24.8165C35.663 24.2653 36.2227 24.2701 44.3348 24.6681L44.377 24.5514C36.2221 23.907 35.5953 23.4491 44.1107 22.2778C44.1026 22.2089 44.0759 22.1002 44.0678 22.0313C36.0079 22.6748 36.5912 22.5232 43.9635 21.4987L43.9846 21.4404C36.5962 22.3271 35.97 22.2323 43.7338 20.4918L43.7071 20.3832C35.593 21.9968 36.1073 21.8532 43.6617 20.2348L43.635 20.1262C36.0856 21.5484 35.4725 21.3264 43.0885 18.4438C43.0804 18.3749 43.0326 18.3245 42.9953 18.2451C35.6676 20.6053 36.1658 20.3239 42.8196 17.8185C36.1683 20.2258 35.5769 20.3086 42.5506 17.1933L42.5134 17.1139C35.1471 20.2188 35.5658 19.9746 42.4016 16.8754L42.3457 16.7562C35.377 19.6753 34.6924 19.5593 41.4066 15.0636C41.3693 14.9841 41.3028 14.894 41.2364 14.804C34.6167 18.6742 34.9634 18.173 40.678 13.975L40.6196 13.9538C34.8596 18.0035 34.3322 18.2743 40.327 13.485L40.2606 13.395C33.8812 18.2429 34.2254 17.8398 39.9655 13.0242L39.8991 12.9341C34.0447 17.6093 33.4533 17.6921 38.8866 11.8087C38.8388 11.7584 38.7618 11.6975 38.7245 11.618C33.2266 16.9502 33.4565 16.4067 38.0444 10.9429L38.0152 10.9323C33.39 16.3166 33.0061 16.7384 37.9195 10.8317L37.8611 10.8105C32.6377 16.9348 32.8757 16.4602 37.4971 10.4478L37.4096 10.416C32.5837 16.3545 32.0377 16.5855 36.2356 9.46303C36.148 9.43131 36.0815 9.34126 35.9939 9.30954C31.5141 15.9341 31.5713 15.229 34.8442 8.56323L34.7858 8.54208C31.4147 15.2053 31.0867 15.7463 34.6026 8.40974L34.4858 8.36744C30.591 15.9296 30.6165 15.3121 33.5273 7.82237L33.4105 7.78007C30.2954 15.1958 29.8717 15.6361 32.2744 7.26963L32.0409 7.18504C29.9209 13.3118 29.3363 14.2876 29.8745 10.8868C30.0957 9.91131 30.3958 8.53554 30.8252 6.71176L30.7668 6.69061C30.5481 7.56805 30.3505 8.38717 30.1952 9.08963C30.3213 8.37659 30.4792 7.57607 30.6395 6.67748L30.6103 6.66691C30.2865 8.19906 30.0473 9.49792 29.8366 10.4443C28.6505 14.9959 28.791 13.3314 29.7425 6.41858L29.6549 6.38686C28.3001 14.869 28.0199 15.4603 28.6387 6.18373L28.4343 6.10971C27.3298 15.1773 26.9863 14.3931 26.6223 5.91527L26.5639 5.89412C26.8273 14.4675 26.8471 15.2334 26.495 5.90213L26.3782 5.85984C26.3918 15.7612 25.929 15.0328 24.2668 5.85384L24.15 5.81155C25.5631 15.1312 25.5059 15.8363 23.1847 5.92375C23.1263 5.9026 23.0468 5.93978 23.0176 5.9292C24.2861 12.8214 24.3711 14.5016 23.2103 11.8709C22.8663 10.7237 22.285 8.86373 21.4105 6.17187L21.3521 6.15072C21.7844 7.69278 22.1551 8.94867 22.4433 9.9767C22.0464 8.97527 21.5775 7.71683 21.0552 6.24111C21.7508 8.24142 22.329 9.83635 22.742 10.9756C24.0604 15.9065 22.9486 14.0524 19.4537 6.65073L19.3742 6.68791C23.6337 16.0818 23.8603 16.8237 18.8493 6.86066L18.73 6.91643C23.269 16.9064 22.4323 16.2075 16.7552 7.71864C22.4086 16.3639 22.9776 17.1637 16.6757 7.75582L16.5564 7.81158C22.8092 17.9934 21.7793 17.5544 13.8243 9.42813L13.7448 9.4653C21.5755 17.8435 22.1178 18.5347 13.2839 9.82617L13.1938 9.89251C19.0661 16.1099 20.2915 17.7413 17.4156 15.743C16.3292 14.8218 14.4726 13.2916 11.7687 11.0918L11.7476 11.1501C12.9774 12.2223 14.0533 13.1727 14.9856 13.9723C14.003 13.2205 12.8662 12.347 11.5171 11.3305C13.1638 12.6197 14.521 13.705 15.5993 14.5574C21.0052 19.4183 18.7913 18.4185 9.80931 13.2191L9.78818 13.2774C20.4672 19.7183 21.3089 20.2211 9.68755 13.3729L9.66643 13.4312C20.8796 20.4944 19.6112 20.167 8.43324 15.1948C19.6565 20.3153 20.7634 20.8152 8.2481 15.5236L8.22698 15.5819C21.0858 21.6577 19.8048 21.8206 6.61472 19.1215L6.5936 19.1799C19.8558 22.1359 20.8801 22.4079 6.46685 19.5298C20.5092 22.7024 19.1327 22.7647 5.99523 21.4703C19.1991 22.8547 20.5123 22.9675 5.93185 21.6452C20.9508 23.4892 19.742 23.909 5.60301 24.9239C19.8935 24.1289 21.034 24.0801 5.5769 25.1784C20.7905 24.3878 19.3959 24.7733 5.65132 26.8877C19.4624 24.8634 20.8414 24.7031 5.78851 28.059C21.4445 25.3174 20.3928 26.1241 6.73368 31.8321C20.5046 26.3625 21.6339 25.9798 6.94422 32.4362C21.4488 26.3086 20.1927 27.0412 7.40755 33.5277C20.2008 27.1101 21.5314 26.5365 7.95039 34.582C22.1128 26.846 21.3027 27.8061 9.59636 37.0585C21.486 27.9385 22.4954 27.2485 10.1678 37.7603C22.4271 27.6196 21.4101 28.6038 10.6833 38.3429C21.4474 28.6832 22.6184 27.8208 12.1791 39.7753C23.2793 28.0932 22.7984 29.2386 14.4444 41.4534L14.4736 41.464C22.9606 29.4292 23.7309 28.4877 15.3923 42.0277C23.6731 28.8296 22.9164 30.007 15.4215 42.0382C22.9537 30.0865 23.8271 28.9514 17.3036 42.9508C24.4241 29.0356 24.2085 30.1781 19.1721 43.6276L19.2013 43.6382C23.7076 32.108 24.7303 29.7403 22.1989 38.9179C21.7503 40.3389 21.2358 42.0329 20.6555 43.9999C21.0407 42.7539 21.3837 41.6246 21.7242 40.5933C21.4527 41.6166 21.0991 42.7751 20.7431 44.0316C21.4527 41.6166 22.033 39.6495 22.4947 38.1013C24.8147 31.0574 24.9283 32.3851 23.1999 44.3606L23.2582 44.3818C25.9584 29.7233 26.0291 30.8045 24.7994 44.4122L24.8286 44.4227C25.7374 35.7131 26.1613 32.1719 26.322 34.7373C26.194 35.9114 26.0111 39.243 25.7331 44.3874C25.9626 40.38 26.1833 37.491 26.3822 35.8477C26.4274 37.5464 26.4347 40.3531 26.412 44.3365C26.4944 39.55 26.4921 36.5472 26.4686 35.1532C26.8862 32.6324 27.3389 35.3035 28.2154 44.0989L28.2737 44.1201C27.4312 30.1248 27.6821 31.0733 29.4006 43.8354L29.4298 43.846C28.2596 33.8556 28.0852 31.0544 29.7894 36.6528C30.1235 38.1923 30.6072 40.4128 31.2617 43.256L31.6201 43.4517Z" fill="url(#paint2_radial_221_19)"/>
<path style="mix-blend-mode:color-dodge" opacity="0.3" d="M33.2213 9.03114C42.0798 13.2952 45.7869 23.9405 41.5255 32.7884C37.2641 41.6363 26.6123 45.3327 17.7539 41.0687C8.8954 36.8047 5.1883 26.1593 9.44968 17.3114C13.7111 8.46349 24.3629 4.7671 33.2213 9.03114Z" fill="url(#paint3_linear_221_19)"/>
<defs>
<radialGradient id="paint0_radial_221_19" cx="0" cy="0" r="1" gradientUnits="userSpaceOnUse" gradientTransform="translate(30.1342 1.03239) rotate(0.169862) scale(53.1526 53.1072)">
<stop/>
<stop offset="0.04" stop-color="#060300"/>
<stop offset="0.5" stop-color="#4B2500"/>
<stop offset="0.83" stop-color="#763B00"/>
<stop offset="1" stop-color="#874400"/>
</radialGradient>
<radialGradient id="paint1_radial_221_19" cx="0" cy="0" r="1" gradientUnits="userSpaceOnUse" gradientTransform="translate(52.4208 6.46419) rotate(70.9687) scale(65.7529 65.7683)">
<stop stop-color="#FF9D00"/>
<stop offset="0.1" stop-color="#F99800"/>
<stop offset="0.24" stop-color="#E88A00"/>
<stop offset="0.39" stop-color="#CD7300"/>
<stop offset="0.54" stop-color="#AD5700"/>
<stop offset="0.6" stop-color="#A15200"/>
<stop offset="0.72" stop-color="#824600"/>
<stop offset="0.86" stop-color="#513300"/>
<stop offset="1" stop-color="#1E1F00"/>
</radialGradient>
<radialGradient id="paint2_radial_221_19" cx="0" cy="0" r="1" gradientUnits="userSpaceOnUse" gradientTransform="translate(27.5341 22.5585) rotate(74.6098) scale(29.9111 29.9221)">
<stop stop-color="#FFA600"/>
<stop offset="0.08" stop-color="#F9A100"/>
<stop offset="0.19" stop-color="#E89300"/>
<stop offset="0.31" stop-color="#CD7D00"/>
<stop offset="0.44" stop-color="#A85F00"/>
<stop offset="0.54" stop-color="#874400"/>
<stop offset="0.64" stop-color="#763E00"/>
<stop offset="0.82" stop-color="#4B2F00"/>
<stop offset="1" stop-color="#1E1F00"/>
</radialGradient>
<linearGradient id="paint3_linear_221_19" x1="13.3477" y1="25.8124" x2="81.046" y2="21.4432" gradientUnits="userSpaceOnUse">
<stop/>
<stop offset="1" stop-color="white"/>
</linearGradient>
</defs>
</svg>
