<svg width="111" height="112" viewBox="0 0 111 112" fill="none" xmlns="http://www.w3.org/2000/svg">
<path style="mix-blend-mode:multiply" d="M97.3839 65.2495C92.2071 88.4786 69.1382 103.116 45.8856 97.9273C22.633 92.7384 7.96661 69.6787 13.1434 46.4496C18.3203 23.2205 41.3892 8.58288 64.6418 13.7718C87.8943 18.9607 102.561 42.0204 97.3839 65.2495Z" fill="url(#paint0_radial_221_20)"/>
<path d="M93.8013 60.7985C100.608 43.9095 92.4199 24.695 75.5117 17.8817C58.6035 11.0683 39.3784 19.2363 32.5713 36.1253C25.7641 53.0143 33.9527 72.2289 50.8609 79.0422C67.7691 85.8555 86.9942 77.6875 93.8013 60.7985Z" fill="url(#paint1_radial_221_20)"/>
<defs>
<radialGradient id="paint0_radial_221_20" cx="0" cy="0" r="1" gradientUnits="userSpaceOnUse" gradientTransform="translate(55.2835 55.8379) rotate(12.5777) scale(43.1601 43.1139)">
<stop offset="0.59" stop-color="#8F5F33"/>
<stop offset="0.6" stop-color="#926339"/>
<stop offset="0.65" stop-color="#AE8C6D"/>
<stop offset="0.71" stop-color="#C7AF99"/>
<stop offset="0.77" stop-color="#DBCCBE"/>
<stop offset="0.83" stop-color="#EBE2DA"/>
<stop offset="0.89" stop-color="#F6F2EE"/>
<stop offset="0.94" stop-color="#FCFBFA"/>
<stop offset="1" stop-color="white"/>
</radialGradient>
<radialGradient id="paint1_radial_221_20" cx="0" cy="0" r="1" gradientUnits="userSpaceOnUse" gradientTransform="translate(65.6041 44.8972) rotate(-145.786) scale(36.0788 36.0437)">
<stop offset="0.25" stop-color="white"/>
<stop offset="0.46" stop-color="#FCFCFC"/>
<stop offset="0.61" stop-color="#F4F3F2"/>
<stop offset="0.74" stop-color="#E5E4E2"/>
<stop offset="0.86" stop-color="#D2CFCC"/>
<stop offset="0.97" stop-color="#B8B4AF"/>
</radialGradient>
</defs>
</svg>
