<svg width="35" height="35" viewBox="0 0 35 35" fill="none" xmlns="http://www.w3.org/2000/svg">
<g style="mix-blend-mode:multiply">
<path d="M12.3665 30.1447C5.60845 27.2355 2.4349 19.4158 5.35515 12.6285C8.26197 5.87823 16.0861 2.71292 22.8813 5.6355C29.6393 8.54464 32.8129 16.3644 29.8926 23.1517C26.9858 29.9019 19.1617 33.0673 12.3665 30.1447Z" fill="black"/>
</g>
<path style="mix-blend-mode:screen" d="M24.7845 19.308C23.6426 21.7314 20.7583 22.765 18.3426 21.5932C15.9163 20.4505 14.8798 17.568 16.0509 15.1551C17.1928 12.7317 20.0771 11.6981 22.4928 12.8699C24.9191 14.0126 25.9556 16.8951 24.7845 19.308Z" fill="url(#paint0_linear_221_18)"/>
<g style="mix-blend-mode:screen">
<path d="M12.6992 19.1204C11.9507 18.8163 11.6097 17.9341 11.9135 17.1864C12.2174 16.4388 13.1001 16.0987 13.8486 16.4028C14.5971 16.7069 14.9381 17.5891 14.6343 18.3368C14.3305 19.0844 13.4477 19.4245 12.6992 19.1204Z" fill="white"/>
</g>
<defs>
<linearGradient id="paint0_linear_221_18" x1="20.9314" y1="8.32954" x2="20.0301" y2="22.5285" gradientUnits="userSpaceOnUse">
<stop stop-color="#BFBFBF"/>
<stop offset="1"/>
</linearGradient>
</defs>
</svg>
