<svg width="69" height="68" viewBox="0 0 69 68" fill="none" xmlns="http://www.w3.org/2000/svg">
<path style="mix-blend-mode:multiply" d="M43.0872 58.6925C29.3835 63.3916 14.4264 56.0955 9.71355 42.4001C5.00075 28.7046 12.2924 13.7654 25.9962 9.06633C39.6999 4.36725 54.657 11.6633 59.3698 25.3587C64.0826 39.0542 56.791 53.9934 43.0872 58.6925Z" fill="url(#paint0_radial_286_1046)"/>
<path style="mix-blend-mode:screen" opacity="0.3" d="M43.4893 58.5696C42.8838 55.6664 42.3727 53.2446 41.9954 51.3186C42.5344 53.169 43.193 55.5547 43.9601 58.3823C42.7871 53.7078 41.9652 50.413 41.4296 48.4297C40.6154 43.2589 41.9647 45.7158 46.6414 57.1615L46.7493 57.1111C40.7622 40.628 41.3467 41.7344 47.547 56.6396L47.5866 56.6539C43.5702 46.4762 42.2294 42.6356 44.4614 45.9938C45.1546 47.5421 46.7354 50.8434 49.0633 55.6678C47.2045 51.7738 45.8401 48.864 45.1142 47.0354C46.1636 48.7128 47.7327 51.4283 49.8358 55.1424C47.1516 50.189 45.4309 47.1502 44.6265 45.7852C43.6976 43.0332 45.7267 45.4679 51.5888 53.7643L51.711 53.6744C42.9052 40.1517 43.6295 40.9955 52.2965 53.1707L52.3251 53.0916C44.829 42.0115 43.8436 39.91 52.0576 47.8951C52.8216 48.7534 53.69 49.6942 54.6628 50.7175C54.1077 50.0244 53.5636 49.4247 53.0591 48.8394C53.5779 49.3852 54.176 49.9596 54.774 50.5341L54.817 50.4155C52.7559 48.1928 51.1345 46.4872 49.9275 45.2448C45.9452 40.537 47.5759 41.3513 56.346 48.4195L56.4033 48.2613C45.327 38.658 46.0834 39.2898 56.5398 48.1318L56.5684 48.0527C48.7519 41.1956 46.6226 39.0377 51.6773 41.8973C53.0242 42.8772 55.012 44.3129 57.6804 46.2188C55.6421 44.6753 53.9819 43.4477 52.7142 42.4965C54.0788 43.3039 55.7962 44.3733 57.9458 45.7334L57.9745 45.6543C54.4241 43.3395 52.08 41.7748 50.8342 41.0104C48.5541 39.0215 50.8612 39.9466 58.7344 44.0507L58.7917 43.8925C46.9217 37.2225 47.7641 37.6171 58.8919 43.6157L58.9349 43.4971C48.026 37.2646 47.359 36.2626 59.9476 40.3299L60.0193 40.1322C48.2898 35.7945 49.2004 36.1243 60.0226 39.9992L60.0513 39.9201C49.3116 35.9409 48.476 35.2804 60.433 38.0007C60.4617 37.9216 60.4903 37.8425 60.4794 37.7491C49.3311 34.6507 48.5637 33.9254 60.7306 35.2008L60.7879 35.0426C59.7661 34.8962 58.8774 34.7533 58.0536 34.6786C50.1743 33.4352 50.3824 33.108 60.7349 33.4578L60.7922 33.2996C48.9715 32.5522 49.7305 32.5587 60.7307 33.0984L60.788 32.9402C49.7297 32.0663 48.8798 31.4454 60.4269 29.857C60.4159 29.7636 60.3797 29.6162 60.3688 29.5228C49.4392 30.3955 50.2302 30.1899 60.2273 28.8006L60.256 28.7215C50.2369 29.9239 49.3878 29.7953 59.9157 27.4352L59.8795 27.2879C48.8766 29.476 49.574 29.2812 59.818 27.0867L59.7818 26.9394C49.5446 28.868 48.7132 28.5669 59.0407 24.658C59.0298 24.5645 58.9649 24.4963 58.9144 24.3885C48.9778 27.5891 49.6534 27.2075 58.6761 23.8101C49.6567 27.0745 48.8548 27.1867 58.3114 22.9623L58.2609 22.8546C48.2719 27.065 48.8397 26.7339 58.1092 22.5313L58.0335 22.3696C48.5836 26.328 47.6554 26.1707 56.76 20.0743C56.7094 19.9665 56.6193 19.8444 56.5292 19.7223C47.5527 24.9705 48.0228 24.2908 55.772 18.5981L55.6928 18.5695C47.8821 24.0609 47.1669 24.4282 55.2961 17.9337L55.206 17.8116C46.5554 24.3856 47.0221 23.8389 54.8059 17.3088L54.7158 17.1867C46.777 23.5265 45.9751 23.6386 53.3429 15.6606C53.278 15.5924 53.1736 15.5098 53.123 15.4021C45.6677 22.6326 45.9794 21.8956 52.2007 14.4865L52.1611 14.4721C45.8893 21.7735 45.3687 22.3454 52.0314 14.3357L51.9523 14.307C44.8691 22.6118 45.1918 21.9682 51.4587 13.8151L51.3399 13.7721C44.7959 21.8248 44.0555 22.1382 49.7479 12.4798C49.6292 12.4368 49.5391 12.3147 49.4203 12.2716C43.3454 21.2547 43.423 20.2987 47.8612 11.2596L47.782 11.2309C43.2107 20.2666 42.7659 21.0001 47.5335 11.0515L47.3752 10.9941C42.0937 21.2487 42.1283 20.4113 46.0754 10.255L45.9171 10.1976C41.6928 20.2536 41.1183 20.8507 44.3765 9.50546L44.0598 9.39075C41.1851 17.6988 40.3923 19.0221 41.1221 14.4105C41.4221 13.0877 41.8291 11.2221 42.4113 8.74897L42.3321 8.7203C42.0356 9.91014 41.7676 11.0209 41.5569 11.9735C41.728 11.0065 41.942 9.92101 42.1595 8.70249L42.1199 8.68815C41.6809 10.7658 41.3564 12.5271 41.0708 13.8104C39.4623 19.9825 39.6528 17.7254 40.9431 8.35141L40.8244 8.30839C38.9872 19.8104 38.6072 20.6122 39.4463 8.03295L39.1692 7.93257C37.6714 20.2286 37.2057 19.1652 36.712 7.6689L36.6329 7.64022C36.99 19.266 37.0169 20.3046 36.5394 7.65109L36.381 7.59374C36.3994 21.0204 35.7719 20.0326 33.5179 7.58561L33.3595 7.52825C35.2758 20.1661 35.1982 21.1221 32.0505 7.68041C31.9713 7.65173 31.8635 7.70214 31.8239 7.6878C33.5441 17.0338 33.6593 19.3122 32.0852 15.745C31.6187 14.1893 30.8304 11.6671 29.6447 8.01686L29.5655 7.98818C30.1516 10.0793 30.6544 11.7823 31.0451 13.1763C30.507 11.8184 29.8711 10.1119 29.1629 8.11076C30.1061 10.8232 30.8902 12.986 31.4502 14.5309C33.238 21.2174 31.7304 18.7031 26.9912 8.66621L26.8834 8.71663C32.6593 21.4551 32.9667 22.4611 26.1716 8.95088L26.0099 9.02651C32.1648 22.5733 31.0302 21.6255 23.3319 10.1143C30.9982 21.8376 31.7697 22.9222 23.2241 10.1647L23.0624 10.2404C31.5413 24.0473 30.1448 23.452 19.3575 12.4325L19.2497 12.4829C29.8684 23.844 30.6037 24.7813 18.6246 12.9722L18.5025 13.0622C26.4655 21.4932 28.1273 23.7055 24.2274 20.9957C22.7542 19.7464 20.2366 17.6715 16.57 14.6884L16.5414 14.7675C18.2091 16.2214 19.668 17.5103 20.9323 18.5945C19.5998 17.575 18.0583 16.3905 16.2289 15.0121C18.4618 16.7603 20.3022 18.2321 21.7645 19.3879C29.095 25.9795 26.0929 24.6238 13.913 17.5731L13.8844 17.6522C28.3655 26.3863 29.5068 27.068 13.7479 17.7817L13.7193 17.8608C28.9247 27.4387 27.2047 26.9947 12.047 20.2523C27.2662 27.1959 28.7672 27.8737 11.796 20.6982L11.7673 20.7772C29.2043 29.0162 27.4673 29.237 9.58106 25.5771L9.55242 25.6562C27.5364 29.6646 28.9254 30.0335 9.38054 26.1307C28.4225 30.4329 26.5558 30.5173 8.741 28.762C26.6459 30.6394 28.4266 30.7923 8.65506 28.9993C29.0213 31.4997 27.382 32.0691 8.20914 33.4453C27.5876 32.3672 29.1341 32.301 8.17374 33.7903C28.8039 32.7182 26.9128 33.2411 8.27465 36.1083C27.0029 33.3632 28.8729 33.1458 8.46069 37.6966C29.6908 33.9789 28.2646 35.0727 9.74237 42.8131C28.4162 35.396 29.9476 34.8771 10.0279 43.6322C29.6966 35.323 27.9933 36.3164 10.6562 45.1123C28.0042 36.4099 29.8086 35.6319 11.3923 46.542C30.597 36.0517 29.4985 37.3537 13.6243 49.9002C29.747 37.5331 31.1159 36.5975 14.3992 50.8518C31.0232 37.1007 29.6441 38.4353 15.0982 51.6418C29.6947 38.5431 31.2826 37.3736 17.1265 53.5842C32.1788 37.7429 31.5267 39.2961 20.1984 55.8599L20.238 55.8742C31.7466 39.5546 32.7912 38.2778 21.4838 56.6385C32.7128 38.7415 31.6867 40.3381 21.5234 56.6529C31.7372 40.4459 32.9217 38.9066 24.0756 57.8904C33.7312 39.0209 33.4388 40.5701 26.6093 58.8081L26.6489 58.8224C32.7596 43.1871 34.1464 39.9765 30.7137 52.4216C30.1054 54.3485 29.4078 56.6456 28.6208 59.313C29.1432 57.6234 29.6083 56.0919 30.07 54.6935C29.7018 56.0811 29.2224 57.652 28.7396 59.356C29.7018 56.0811 30.4888 53.4137 31.1148 51.3143C34.2608 41.7625 34.4148 43.5629 32.0711 59.8021L32.1503 59.8308C35.8117 39.9534 35.9077 41.4196 34.2401 59.872L34.2797 59.8863C35.5121 48.0758 36.0869 43.2738 36.3048 46.7525C36.1312 48.3447 35.8832 52.8624 35.5062 59.8385C35.8174 54.4043 36.1167 50.4867 36.3864 48.2582C36.4478 50.5618 36.4576 54.3677 36.4269 59.7693C36.5385 53.2787 36.5355 49.2069 36.5036 47.3165C37.0699 43.8983 37.6837 47.5203 38.8723 59.4472L38.9514 59.4759C37.8089 40.4978 38.1491 41.7841 40.4795 59.0899L40.5191 59.1043C38.9322 45.5569 38.6958 41.7584 41.0067 49.3501C41.4597 51.4377 42.1157 54.4488 43.0032 58.3041L43.4893 58.5696Z" fill="url(#paint1_radial_286_1046)"/>
<path style="mix-blend-mode:color-dodge" opacity="0.3" d="M45.6608 11.8944C57.6732 17.6765 62.7001 32.112 56.9215 44.1101C51.143 56.1081 36.6988 61.1206 24.6864 55.3384C12.674 49.5562 7.64708 35.1207 13.4257 23.1227C19.2042 11.1246 33.6484 6.11219 45.6608 11.8944Z" fill="url(#paint2_linear_286_1046)"/>
<defs>
<radialGradient id="paint0_radial_286_1046" cx="0" cy="0" r="1" gradientUnits="userSpaceOnUse" gradientTransform="translate(71.6958 8.41322) rotate(70.9687) scale(89.1632 89.184)">
<stop stop-color="#FF9D00"/>
<stop offset="0.0001" stop-color="#0500FF"/>
<stop offset="0.1" stop-color="#0500F9"/>
<stop offset="0.24" stop-color="#2000E8"/>
<stop offset="0.39" stop-color="#0039CD"/>
<stop offset="0.54" stop-color="#2D00AD"/>
<stop offset="0.6" stop-color="#0006A1"/>
<stop offset="0.72" stop-color="#2A0082"/>
<stop offset="0.86" stop-color="#000851"/>
<stop offset="1" stop-color="#02001F"/>
</radialGradient>
<radialGradient id="paint1_radial_286_1046" cx="0" cy="0" r="1" gradientUnits="userSpaceOnUse" gradientTransform="translate(37.9484 30.2377) rotate(74.6098) scale(40.5604 40.5754)">
<stop stop-color="#4200FF"/>
<stop offset="0.08" stop-color="#0028F9"/>
<stop offset="0.19" stop-color="#2000E8"/>
<stop offset="0.31" stop-color="#1000CD"/>
<stop offset="0.44" stop-color="#0011A8"/>
<stop offset="0.54" stop-color="#0B0087"/>
<stop offset="0.64" stop-color="#1F0076"/>
<stop offset="0.82" stop-color="#0A004B"/>
<stop offset="1" stop-color="#08001F"/>
</radialGradient>
<linearGradient id="paint2_linear_286_1046" x1="18.7116" y1="34.6504" x2="110.513" y2="28.7255" gradientUnits="userSpaceOnUse">
<stop/>
<stop offset="1" stop-color="white"/>
</linearGradient>
</defs>
</svg>
