<svg width="72" height="72" viewBox="0 0 72 72" fill="none" xmlns="http://www.w3.org/2000/svg">
<path style="mix-blend-mode:multiply" d="M33.099 68.6976C51.3762 70.1243 67.3481 56.4806 68.7732 38.2237C70.1983 19.9667 56.537 4.00994 38.2598 2.58325C19.9826 1.15656 4.01074 14.8002 2.58563 33.0572C1.16051 51.3141 14.8218 67.2709 33.099 68.6976Z" fill="url(#paint0_radial_286_902)"/>
<path style="mix-blend-mode:screen" d="M62.9214 21.5106C45.7175 27.4952 43.3014 28.3382 63.4365 23.5783C43.4664 29.4182 46.0474 29.6552 64.3643 29.4843C46.0524 30.0469 43.4764 30.2015 64.2203 31.7852C43.5817 31.1346 46.2302 31.8749 63.7503 35.9814C46.1755 32.1196 43.4396 31.5859 62.8571 38.7573C42.8939 32.646 45.1196 34.2425 60.6844 43.781C44.9531 34.5497 42.5583 33.2956 58.9284 46.2051C42.1083 34.0431 44.0475 36.1152 56.8372 48.8163C43.8894 36.3163 41.7594 34.4071 53.8258 51.3558C40.6451 34.996 41.6664 37.4233 49.8803 54.0002C41.3639 37.6487 40.0075 35.4086 46.0585 55.516C39.1957 35.7721 39.7049 38.3729 43.6834 56.291C39.4489 38.4597 38.6864 35.9102 38.9014 56.8781C37.5239 35.7483 37.1239 38.1359 35.2663 56.9145C36.7318 38.1408 36.7397 35.7582 30.3907 55.9648C35.8902 35.6919 35.071 37.9756 28.9234 55.6012C34.826 37.9209 35.4002 35.5825 24.422 53.5069C34.6248 35.024 33.2397 36.8011 22.3075 52.3103C32.8968 36.6321 33.9417 34.6506 18.2433 48.7206C33.2316 34.1683 31.4765 35.6675 17.3484 47.8681C31.3106 35.5123 32.8671 33.8197 14.5915 43.9536C32.4649 33.0413 30.4736 33.9174 13.583 42.2742C30.286 33.5826 32.0926 32.3364 11.6826 36.9681C31.6252 31.4818 29.3866 31.8762 11.2106 35.2594C29.3024 31.585 31.4868 30.973 10.8256 31.0676C31.5177 30.1217 29.3614 29.9178 10.7733 29.0004C29.3917 29.5289 31.5784 29.3439 11.5954 23.9424C31.6203 28.3512 29.4755 27.5435 12.1669 21.6394C29.5302 27.2988 31.7269 27.8971 13.4279 18.7143C32.1333 27.253 30.3402 26.0459 14.5248 16.5234C30.5802 25.7089 32.5751 26.6116 17.0716 13.094C33.1042 25.7637 31.6384 24.013 19.2142 10.7357C31.8292 23.85 33.4504 25.435 21.0373 9.27734C34.1178 25.0958 33.1641 23.1717 23.7187 7.31682C33.4992 22.9844 34.788 24.7213 26.827 5.8165C35.6789 24.2572 35.2809 22.0564 30.7141 4.37695C35.5342 22.005 36.1882 24.1191 32.4107 4.08254C36.9669 24.1799 37.1651 22.0967 36.7978 3.53572C37.5191 22.1244 37.7456 24.2407 39.2456 3.65565C38.6713 24.2418 39.4032 22.1647 43.8629 4.26507C39.6128 22.2166 39.1232 24.3838 44.9027 4.63079C39.8035 24.7926 40.9707 23.0696 49.7121 6.42904C41.2782 23.2359 40.4157 25.1605 51.2414 7.36654C41.2077 25.5069 42.8567 23.9994 55.2248 10.1674C43.0198 24.19 41.5695 25.8909 56.1468 11.1287C42.1569 26.577 44.1974 25.5269 59.8672 15.4741C44.385 25.8617 42.5347 27.2112 60.802 17.1834C43.1194 27.9327 45.6251 27.3101 62.8805 21.5785L62.9214 21.5106Z" fill="url(#paint1_radial_286_902)"/>
<path style="mix-blend-mode:screen" opacity="0.3" d="M54.6001 62.8706C52.9046 59.5013 51.4834 56.7225 50.4129 54.4692C51.6742 56.5596 53.2452 59.2433 55.0934 62.4822L55.1287 62.485C52.1963 57.1695 50.1036 53.4135 48.8236 51.1082C46.1288 45.0287 48.6339 47.6074 58.023 60.0787L58.1374 59.9809C45.525 41.8157 46.5748 42.9648 58.9851 59.1578L59.0614 59.0926C50.8444 48.029 47.9708 43.7852 51.801 47.1788C53.1308 48.8477 56.1332 52.3546 60.5742 57.5033C57.0552 53.3158 54.45 50.1957 52.9299 48.2274C54.7878 49.9731 57.565 52.7154 61.3213 56.6012C56.4527 51.4547 53.3547 48.2605 51.8967 46.8662C49.8904 43.8283 53.1635 46.1469 62.9573 54.3457L63.0773 54.1772C47.9415 40.5104 49.1279 41.2789 63.6037 53.3646L63.6855 53.2287C50.8778 42.1269 49.0259 39.8481 61.6118 46.9487C62.8335 47.7199 64.1886 48.6082 65.6797 49.5783L65.6853 49.5076C64.771 48.9026 63.9248 48.3386 63.1112 47.8127C63.9303 48.2679 64.8501 48.8021 65.7698 49.3363L65.8517 49.2004C62.5564 47.1647 60.0094 45.5786 58.14 44.4367C51.7596 39.9547 54 40.4498 67.0065 46.2671L67.0231 46.0549C50.3866 37.9267 51.5215 38.4422 67.1458 45.8511L67.1541 45.745C55.3946 39.9183 52.132 37.9207 59.1768 39.8223C61.112 40.5781 64.0515 41.6968 67.8892 43.1702C64.8844 41.9752 62.4675 41.004 60.6059 40.2184C62.5222 40.7593 64.9911 41.5211 68.0152 42.4686L68.0262 42.3272C62.9608 40.6157 59.5556 39.5317 57.7836 38.9666C54.3191 37.2733 57.4582 37.6606 68.4125 40.1164C68.418 40.0457 68.4235 39.975 68.429 39.9042C51.7805 35.5812 52.9048 35.7757 68.4566 39.5507L68.4704 39.3739C53.1204 35.2945 51.9888 34.2813 68.6927 35.1584C68.701 35.0523 68.7065 34.9816 68.7148 34.8755C52.9863 33.3632 54.2223 33.4953 68.7286 34.6987L68.7341 34.628C54.3478 33.2561 53.1095 32.697 68.5705 32.1609C68.5788 32.0548 68.5517 31.946 68.5218 31.8725C53.8676 31.6535 52.7382 31.0673 67.986 28.7005C67.9915 28.6298 67.9617 28.5563 67.9318 28.4828C66.6737 28.6336 65.5599 28.7601 64.5523 28.8949C54.5011 29.9244 54.6785 29.4758 67.441 26.5592L67.384 26.3769C52.77 29.2913 53.6797 29.0421 67.3297 26.1593C67.3352 26.0886 67.3054 26.0151 67.2755 25.9416C53.5823 28.4654 52.3384 27.977 65.956 22.3171C65.8935 22.2055 65.8337 22.0586 65.7712 21.947C52.6993 26.5468 53.5957 26.0121 65.3745 21.0979L65.3828 20.9918C53.547 25.7237 52.436 25.8148 64.5702 19.5412L64.4751 19.3914C51.7065 25.58 52.5238 25.1458 64.35 19.1683L64.2577 18.9832C52.3855 24.6371 51.2556 24.5133 62.6402 16.4381C62.5777 16.3265 62.5124 16.2503 62.4145 16.136C51.3168 23.2731 52.0473 22.5831 61.9659 15.4962L61.9714 15.4255C51.9549 22.3981 50.9987 22.7858 61.2208 14.5488L61.1229 14.4345C50.2826 22.8367 50.9013 22.2091 60.8646 14.0942C60.7966 14.0533 60.7667 13.9798 60.6987 13.9389C50.4306 21.8522 49.287 21.9052 58.3922 11.5535C58.2589 11.4364 58.161 11.322 58.0277 11.2049C48.7548 20.512 49.1152 19.5442 56.76 10.11L56.6593 10.031C48.8812 19.3481 48.1181 19.9999 55.9547 9.47798L55.8214 9.36086C47.3909 20.1921 47.7431 19.3304 55.1493 8.84599C55.0813 8.80511 55.0487 8.76699 54.9806 8.72611C47.3404 19.0144 46.3815 19.4375 52.812 7.31185C52.6759 7.23009 52.5753 7.15109 52.4392 7.06933C45.6829 18.3514 45.8365 17.2963 51.0051 6.28154L50.9343 6.27601C45.6269 17.2443 45.1685 18.0978 50.6948 6.15061L50.5886 6.14232C44.5962 18.5867 44.8095 17.6785 49.8375 5.72799L49.6661 5.64346C44.2786 17.6371 43.4448 18.2834 47.3227 4.64242C47.1839 4.59601 47.0125 4.51149 46.8737 4.46508C42.3375 17.4144 42.1454 16.2256 44.6144 3.75516L44.5082 3.74688C41.8241 16.2361 41.5289 17.2802 44.1598 3.64854L43.9828 3.63472C40.8421 17.8668 40.639 16.8194 42.1672 3.17286C42.0964 3.16733 42.0256 3.16181 41.9548 3.15628C40.0699 16.8106 39.5353 17.7293 39.8449 2.81373C39.7034 2.80268 39.5618 2.79163 39.4202 2.78058C38.5536 13.8821 38.0888 15.7311 37.4768 9.8853C37.4323 8.17444 37.3368 5.74818 37.2285 2.57393C37.2285 2.57393 37.1577 2.5684 37.1223 2.56564C37.1425 4.13232 37.1764 5.52223 37.2214 6.77072C37.1383 5.55482 37.0363 4.12404 36.91 2.54906L36.8392 2.54354C36.9834 5.25817 37.1308 7.47506 37.2489 9.1561C37.2976 17.1989 36.7342 14.3804 35.3089 2.5308L35.132 2.51699C36.587 17.179 36.3626 18.2286 33.3429 2.62633C33.2367 2.61805 33.0924 2.64235 32.9834 2.66942C35.1238 18.1319 34.2183 16.9585 29.8898 3.06821L29.8191 3.06268C33.9894 17.1541 34.3911 18.3948 29.7101 3.08975L29.4922 3.14388C33.8808 19.4577 32.7818 18.4826 26.0061 4.01002L25.8236 4.06691C32.2559 18.8329 32.4861 19.9891 24.2519 4.58451C24.143 4.61157 24.0694 4.6414 23.9577 4.70383C29.0926 15.5624 29.9801 18.3351 26.8991 14.4664C25.8227 12.7461 24.0177 9.86626 21.4162 5.78598L21.3045 5.8484C22.6935 8.12664 23.8623 10.032 24.7701 11.6324C23.6771 10.1242 22.3611 8.27855 20.825 6.05997L20.7896 6.05721C22.8341 9.06245 24.4626 11.4661 25.648 13.1593C29.9694 20.7531 27.3582 18.166 18.294 7.46309L18.1823 7.52551C29.3263 21.2364 30.0603 22.3253 17.3949 8.03317L17.2068 8.16078C29.1042 22.713 27.3869 21.9032 14.2584 10.3494L14.223 10.3467C27.4002 22.1888 28.6326 23.2809 14.1439 10.4472C14.1058 10.4798 14.0295 10.545 13.9913 10.5776C28.8053 24.7172 26.9051 24.4266 10.1616 14.476L10.0444 14.6091C26.7138 25.052 27.8891 25.9618 9.41462 15.3781L9.29739 15.5112C21.7628 23.2427 24.4807 25.3757 18.8329 23.3697C16.6012 22.3062 12.8536 20.5909 7.45399 18.1418L7.44571 18.2479C9.94947 19.4749 12.1784 20.5737 14.0262 21.5361C12.0938 20.745 9.78306 19.782 7.12944 18.6501C10.4008 20.0793 13.1579 21.2549 15.3298 22.1714C26.3868 27.8721 22.3087 27.1981 5.1922 22.4828L5.18392 22.5888C25.7272 28.5676 27.2896 29.0808 5.06118 22.7927L5.0529 22.8987C26.7118 29.6404 24.4626 29.7139 3.78588 26.3569C24.623 29.9398 26.6621 30.2768 3.62725 27.0204L3.61621 27.1618C27.5919 31.5944 25.5353 32.3943 2.53383 33.729L2.52555 33.8351C25.7771 32.9467 27.596 32.9108 2.47587 34.4715L2.47035 34.5422C27.1515 33.5875 24.888 34.3001 2.52948 37.8904C24.9887 34.3791 27.2245 34.0201 2.54004 38.2114L2.53452 38.2821C28.204 34.7012 26.4356 35.9149 3.45727 43.7965L3.45175 43.8672C26.8029 36.2281 28.666 35.6266 3.56572 44.2318C28.4012 36.2817 26.276 37.5031 4.45045 47.0398C26.4447 37.623 28.6484 36.7635 5.15917 48.9092C29.873 37.4993 28.5233 39.2792 8.4069 54.7473L8.4423 54.7501C28.8524 39.625 30.5417 38.5119 9.0812 55.6892C30.3831 39.1754 28.6413 40.9603 10.3457 57.2819C28.742 41.0393 30.6442 39.4803 11.7246 58.7768C31.763 39.7455 30.8978 41.7055 15.5549 62.1704L15.5903 62.1732C31.2789 41.842 32.6502 40.2416 16.8364 63.0886C32.7067 40.8863 31.4356 43.028 17.9547 63.8162C31.5362 43.107 33.1121 41.1669 21.0597 65.5525L21.0951 65.5553C34.3426 41.3697 34.0382 43.4446 25.5478 67.3612L25.6186 67.3668C34.3728 43.7197 35.2679 41.8332 27.3934 67.8966C35.3299 42.4072 34.6169 44.6992 27.4642 67.9021C34.6821 44.7754 35.6756 42.5409 30.9705 68.6026L31.0059 68.6054C36.7158 42.4442 36.8472 44.4109 34.4038 68.8706L34.4745 68.8762C36.8682 47.7917 37.5643 43.4353 37.3948 59.749C37.3023 62.3029 37.1739 65.3164 37.0395 68.8629C37.1426 66.63 37.2319 64.5739 37.34 62.7327C37.3026 64.5794 37.2869 66.6057 37.2546 68.8442C37.3762 64.5496 37.5106 61.003 37.5843 58.2343C38.3627 45.5251 39.1201 47.6829 41.5328 68.3244L41.6036 68.33C39.6752 42.8531 40.2506 44.6054 44.1801 67.7129L44.2509 67.7185C41.9192 52.8813 41.0733 46.8394 42.493 51.0053C42.7986 53.0211 43.9309 58.5874 45.7108 67.2633C44.351 60.5054 43.4139 55.6302 43.0275 52.8256C43.8442 55.5927 45.0837 60.2425 46.7731 66.8838C44.7937 58.9393 43.511 53.9304 42.8354 51.6367C42.3934 47.2626 44.3441 51.4699 49.6443 65.6851L49.756 65.6227C42.202 42.8725 43.0472 44.3613 51.4995 64.7272L51.5703 64.7327C45.2346 48.7294 43.7418 44.1309 49.0207 52.6887C50.2543 55.1326 52.0533 58.5456 54.3441 62.9573L54.6001 62.8706Z" fill="url(#paint2_radial_286_902)"/>
<path style="mix-blend-mode:color-dodge" opacity="0.3" d="M28.3182 5.39996C44.6082 1.08694 61.3328 10.8227 65.618 27.0928C69.9385 43.3658 60.195 60.0704 43.9077 64.3481C27.6178 68.6611 10.8931 58.9254 6.60799 42.6552C2.28744 26.3823 12.031 9.67763 28.3182 5.39996Z" fill="url(#paint3_linear_286_902)"/>
<defs>
<radialGradient id="paint0_radial_286_902" cx="0" cy="0" r="1" gradientUnits="userSpaceOnUse" gradientTransform="translate(50.3849 -19.346) rotate(30.3984) scale(112.731 112.654)">
<stop stop-color="#FF9D00"/>
<stop offset="0.1" stop-color="#F99800"/>
<stop offset="0.24" stop-color="#E88A00"/>
<stop offset="0.39" stop-color="#CD7300"/>
<stop offset="0.54" stop-color="#AD5700"/>
<stop offset="0.6" stop-color="#A15200"/>
<stop offset="0.72" stop-color="#824600"/>
<stop offset="0.86" stop-color="#513300"/>
<stop offset="1" stop-color="#1E1F00"/>
</radialGradient>
<radialGradient id="paint1_radial_286_902" cx="0" cy="0" r="1" gradientUnits="userSpaceOnUse" gradientTransform="translate(11.0499 -18.793) rotate(-14.657) scale(91.0521 90.9729)">
<stop/>
<stop offset="0.04" stop-color="#060300"/>
<stop offset="0.5" stop-color="#4B2500"/>
<stop offset="0.83" stop-color="#763B00"/>
<stop offset="1" stop-color="#874400"/>
</radialGradient>
<radialGradient id="paint2_radial_286_902" cx="0" cy="0" r="1" gradientUnits="userSpaceOnUse" gradientTransform="translate(38.6521 30.1756) rotate(59.7937) scale(51.2621 51.2822)">
<stop stop-color="#FFA600"/>
<stop offset="0.08" stop-color="#F9A100"/>
<stop offset="0.19" stop-color="#E89300"/>
<stop offset="0.31" stop-color="#CD7D00"/>
<stop offset="0.44" stop-color="#A85F00"/>
<stop offset="0.54" stop-color="#874400"/>
<stop offset="0.64" stop-color="#763E00"/>
<stop offset="0.82" stop-color="#4B2F00"/>
<stop offset="1" stop-color="#1E1F00"/>
</radialGradient>
<linearGradient id="paint3_linear_286_902" x1="21.1986" y1="49.3589" x2="104.359" y2="-31.7288" gradientUnits="userSpaceOnUse">
<stop/>
<stop offset="1" stop-color="white"/>
</linearGradient>
</defs>
</svg>
