<svg width="130" height="130" viewBox="0 0 130 130" fill="none" xmlns="http://www.w3.org/2000/svg">
<path style="mix-blend-mode:multiply" d="M60.2794 124.399C93.3761 126.982 122.298 102.276 124.879 69.2162C127.46 36.1561 102.721 7.26128 69.6247 4.6778C36.5279 2.09432 7.60575 26.8005 5.02513 59.8606C2.44452 92.9207 27.1827 121.815 60.2794 124.399Z" fill="url(#paint0_radial_102_54)"/>
<path style="mix-blend-mode:screen" d="M114.28 38.9522C83.1265 49.7893 78.7514 51.3158 115.213 42.6965C79.0501 53.2714 83.724 53.7007 116.893 53.3912C83.7331 54.4099 79.0684 54.6899 116.632 57.5577C79.2589 56.3795 84.055 57.7201 115.781 65.1563C83.9559 58.1632 79.0017 57.1968 114.163 70.183C78.0136 59.1164 82.0438 62.0075 110.229 79.28C81.7424 62.5637 77.4059 60.2928 107.049 83.6695C76.5909 61.6463 80.1025 65.3986 103.262 88.398C79.8162 65.7628 75.9591 62.3055 97.8092 92.9965C73.9413 63.3718 75.7907 67.7674 90.6646 97.785C75.2429 68.1755 72.7868 64.1191 83.7441 100.53C71.3168 64.7773 72.2388 69.4869 79.4431 101.933C71.7752 69.6439 70.3945 65.0273 70.7838 102.996C68.2894 64.7342 67.565 69.0577 64.2014 103.062C66.855 69.0666 66.8694 64.7522 55.3724 101.343C65.3312 64.6321 63.8477 68.7675 52.7155 100.684C63.404 68.6684 64.4438 64.434 44.5642 96.8918C63.0397 63.4226 60.5316 66.6407 40.7354 94.725C59.9106 66.3346 61.8028 62.7464 33.3758 88.2246C60.5168 61.873 57.3387 64.5879 31.7552 86.681C57.0382 64.3068 59.8568 61.2418 26.763 79.5925C59.1285 59.8323 55.5226 61.4188 24.9369 76.5514C55.183 60.8126 58.4543 58.5558 21.4955 66.943C57.6079 57.0083 53.5542 57.7225 20.6408 63.8489C53.4019 57.1953 57.3574 56.087 19.9436 56.2583C57.4132 54.5454 53.5086 54.1762 19.8489 52.515C53.5635 53.472 57.5232 53.137 21.3376 43.3559C57.599 51.3393 53.7152 49.8768 22.3725 39.1854C53.8143 49.4336 57.7922 50.5171 24.656 33.8887C58.528 49.3507 55.281 47.1649 26.6422 29.9213C55.7156 46.5547 59.328 48.1893 31.2539 23.7113C60.2862 46.6538 57.6319 43.4836 35.1338 19.4409C57.9773 43.1885 60.913 46.0586 38.4352 16.8C62.1216 45.4444 60.3946 41.9602 43.2906 13.2499C61.0014 41.6211 63.3353 44.7662 48.9193 10.5331C64.9485 43.9259 64.2278 39.9405 55.958 7.92632C64.6865 39.8475 65.8707 43.6759 59.0304 7.3932C67.2808 43.7859 67.6397 40.0136 66.9747 6.40302C68.2807 40.0637 68.6908 43.896 71.4071 6.62018C70.3672 43.898 71.6926 40.1368 79.7683 7.72373C72.0721 40.2308 71.1855 44.1551 81.6511 8.38599C72.4173 44.8954 74.5309 41.7754 90.3601 11.6423C75.0878 42.0765 73.526 45.5617 93.1293 13.3399C74.9602 46.1889 77.9461 43.459 100.342 18.4118C78.2416 43.8042 75.6153 46.8842 102.012 20.1525C76.679 48.1266 80.374 46.225 108.749 28.0213C80.7136 46.8312 77.3631 49.275 110.442 31.1164C78.4219 50.5815 82.9592 49.4542 114.206 39.0752L114.28 38.9522Z" fill="url(#paint1_radial_102_54)"/>
<path style="mix-blend-mode:screen" opacity="0.3" d="M99.2126 113.847C96.1422 107.746 93.5688 102.714 91.6304 98.6336C93.9142 102.419 96.759 107.279 100.106 113.144L100.17 113.149C94.8597 103.523 91.0703 96.7219 88.7523 92.5474C83.8726 81.5385 88.4088 86.2082 105.411 108.791L105.618 108.614C82.7791 75.7205 84.6802 77.8012 107.153 107.124L107.291 107.006C92.4117 86.9715 87.208 79.2868 94.144 85.4321C96.5519 88.4541 101.989 94.8044 110.031 104.128C103.658 96.5451 98.9407 90.895 96.1882 87.3307C99.5525 90.4919 104.581 95.4577 111.383 102.494C102.567 93.1749 96.9573 87.3908 94.3171 84.8659C90.6841 79.3649 96.6112 83.5634 114.346 98.4099L114.563 98.1048C87.1551 73.3567 89.3034 74.7483 115.516 96.6333L115.665 96.3873C92.4722 76.2839 89.1187 72.1574 111.909 85.0153C114.122 86.4118 116.576 88.0204 119.276 89.777L119.286 89.649C117.63 88.5536 116.098 87.5322 114.625 86.5798C116.108 87.4042 117.773 88.3715 119.439 89.3389L119.587 89.0928C113.62 85.4064 109.008 82.5343 105.623 80.4666C94.0689 72.3505 98.1258 73.2469 121.678 83.781L121.708 83.3969C91.5827 68.6782 93.6378 69.6116 121.931 83.0278L121.946 82.8357C100.651 72.2846 94.7433 68.6673 107.5 72.1107C111.004 73.4793 116.327 75.5051 123.277 78.1731C117.836 76.0093 113.459 74.2506 110.088 72.828C113.558 73.8074 118.029 75.187 123.505 76.9027L123.525 76.6466C114.352 73.5473 108.186 71.5845 104.977 70.5611C98.7038 67.4949 104.388 68.1963 124.224 72.6432C124.234 72.5152 124.244 72.3871 124.254 72.2591C94.1067 64.4308 96.1427 64.783 124.304 71.6189L124.329 71.2988C96.5331 63.9117 94.4839 62.077 124.732 63.6651C124.747 63.4731 124.757 63.345 124.772 63.153C96.2903 60.4145 98.5285 60.6536 124.797 62.8329L124.807 62.7048C98.7558 60.2204 96.5134 59.208 124.51 58.2373C124.525 58.0452 124.476 57.8481 124.422 57.7151C97.8861 57.3184 95.841 56.257 123.452 51.9711C123.462 51.843 123.408 51.71 123.354 51.5769C121.076 51.85 119.059 52.079 117.234 52.3231C99.0332 54.1874 99.3546 53.3751 122.465 48.0937L122.362 47.7636C95.8986 53.0409 97.5458 52.5898 122.264 47.3695C122.274 47.2414 122.22 47.1084 122.165 46.9753C97.3694 51.5454 95.1171 50.6611 119.776 40.412C119.663 40.2099 119.555 39.9439 119.441 39.7418C95.7706 48.0712 97.3938 47.1029 118.723 38.2042L118.738 38.0122C97.3056 46.5807 95.2937 46.7457 117.267 35.3852L117.094 35.1141C93.9728 46.3205 95.4528 45.5343 116.868 34.71L116.701 34.3749C95.2023 44.613 93.1563 44.3889 113.772 29.7662C113.659 29.5641 113.54 29.4261 113.363 29.219C93.2671 42.1431 94.5898 40.8937 112.551 28.0606L112.561 27.9326C94.4225 40.5586 92.6911 41.2608 111.202 26.345L111.024 26.1379C91.3943 41.3528 92.5147 40.2164 110.556 25.5217C110.433 25.4477 110.379 25.3146 110.256 25.2406C91.6624 39.5702 89.5914 39.6662 106.079 20.921C105.838 20.7089 105.661 20.5019 105.419 20.2898C88.6277 37.1433 89.2803 35.3907 103.124 18.3071L102.941 18.164C88.8567 35.0355 87.4749 36.2159 101.665 17.1626L101.424 16.9506C86.158 36.564 86.7957 35.0035 100.207 16.0182C100.084 15.9442 100.025 15.8752 99.9016 15.8011C86.0666 34.4313 84.3302 35.1975 95.9746 13.2402C95.7282 13.0921 95.5459 12.9491 95.2996 12.801C83.0651 33.2308 83.3432 31.3202 92.7026 11.3745L92.5744 11.3645C82.9636 31.2261 82.1337 32.7716 92.1408 11.1374L91.9485 11.1224C81.0973 33.6569 81.4836 32.0124 90.5884 10.3721L90.278 10.219C80.5222 31.9373 79.0122 33.1077 86.0346 8.4063C85.7832 8.32227 85.4727 8.16921 85.2214 8.08517C77.0071 31.5341 76.6593 29.3814 81.1303 6.79965L80.938 6.78464C76.0775 29.4003 75.543 31.291 80.3071 6.60657L79.9866 6.58155C74.2993 32.3533 73.9315 30.4567 76.6987 5.7452C76.5706 5.73519 76.4424 5.72518 76.3142 5.71518C72.901 30.4406 71.9329 32.1042 72.4936 5.09489C72.2372 5.07488 71.9809 5.05486 71.7245 5.03485C70.1553 25.1378 69.3136 28.4859 68.2054 17.9002C68.1248 14.8022 67.9519 10.4086 67.7557 4.66064C67.7557 4.66064 67.6275 4.65064 67.5634 4.64563C67.5999 7.48261 67.6614 9.99949 67.7429 12.2603C67.5923 10.0585 67.4076 7.4676 67.1789 4.61562L67.0507 4.60561C67.3118 9.52131 67.5788 13.5357 67.7926 16.5798C67.8809 31.1438 66.8607 26.04 64.2797 4.58255L63.9592 4.55754C66.5941 31.1078 66.1878 33.0084 60.7196 4.75554C60.5273 4.74053 60.266 4.78454 60.0687 4.83356C63.9445 32.8333 62.3048 30.7085 54.4667 5.55569L54.3385 5.54568C61.8903 31.0626 62.6177 33.3094 54.1413 5.5947L53.7467 5.69273C61.6936 35.2341 59.7035 33.4684 47.4339 7.26114L47.1034 7.36417C58.7512 34.1026 59.1682 36.1964 44.2575 8.30144C44.0602 8.35045 43.927 8.40447 43.7247 8.5175C53.0231 28.1805 54.6302 33.2012 49.0511 26.1957C47.1018 23.0806 43.8333 17.8657 39.1224 10.4771L38.9201 10.5901C41.4354 14.7156 43.552 18.1658 45.1958 21.0639C43.2165 18.3329 40.8336 14.9907 38.052 10.9732L37.9879 10.9682C41.69 16.4102 44.6389 20.7627 46.7855 23.8288C54.6108 37.5798 49.8823 32.895 33.4687 13.514L33.2665 13.6271C53.4463 38.455 54.7755 40.4267 31.8406 14.5463L31.5001 14.7774C53.0441 41.1289 49.9344 39.6624 26.161 18.7407L26.0969 18.7357C49.9585 40.1796 52.19 42.1573 25.9538 18.9177C25.8847 18.9768 25.7465 19.0948 25.6774 19.1538C52.5029 44.7582 49.0618 44.2319 18.7425 26.2131L18.5302 26.4542C48.7155 45.3643 50.8438 47.0119 17.3898 27.8467L17.1775 28.0877C39.7501 42.088 44.6718 45.9504 34.4445 42.318C30.4034 40.3922 23.6172 37.286 13.8395 32.8513L13.8245 33.0434C18.3583 35.2652 22.3944 37.255 25.7405 38.9977C22.2413 37.5651 18.057 35.8214 13.2517 33.7716C19.1757 36.3596 24.1682 38.4885 28.1011 40.1481C48.1234 50.4711 40.7386 49.2505 9.74375 40.7119L9.72876 40.904C46.9289 51.7305 49.7581 52.6599 9.5065 41.2731L9.49151 41.4652C48.7118 53.6732 44.6389 53.8062 7.19716 47.7273C44.9294 54.2153 48.6218 54.8256 6.90992 48.9287L6.88993 49.1848C50.3056 57.2114 46.5815 58.6599 4.92992 61.0769L4.91493 61.269C47.0192 59.6602 50.313 59.5953 4.82498 62.4213L4.81498 62.5494C49.508 60.8207 45.4093 62.111 4.92206 68.6125C45.5916 62.2541 49.6403 61.6039 4.94117 69.1937L4.93118 69.3217C51.4141 62.8374 48.2118 65.0351 6.60211 79.3072L6.59211 79.4353C48.8768 65.6023 52.2505 64.513 6.7985 80.0955C51.771 65.6994 47.9228 67.9111 8.40058 85.1803C48.2283 68.1282 52.2188 66.5717 9.68395 88.5655C54.4362 67.9042 51.9921 71.1273 15.565 99.1372L15.6291 99.1422C52.5881 71.7535 55.6472 69.7379 16.786 100.843C55.36 70.9393 52.2059 74.1713 19.0758 103.727C52.3882 74.3144 55.8327 71.4915 21.5728 106.434C57.8587 71.9717 56.292 75.5209 28.5087 112.579L28.5728 112.584C56.982 75.768 59.4652 72.87 30.8293 114.242C59.5675 74.0374 57.2658 77.9157 32.8544 115.559C57.448 78.0588 60.3016 74.5456 38.4769 118.703L38.541 118.708C62.5299 74.9128 61.9787 78.6701 46.6041 121.979L46.7323 121.989C62.5846 79.1683 64.2054 75.7521 49.9461 122.948C64.3177 76.7915 63.0265 80.9419 50.0743 122.958C63.1447 81.0799 64.9437 77.0336 56.4236 124.227L56.4877 124.232C66.8274 76.8586 67.0652 80.4198 62.6406 124.712L62.7688 124.722C67.1032 86.5419 68.3638 78.6532 68.0569 108.194C67.8894 112.819 67.6568 118.276 67.4135 124.698C67.6001 120.655 67.7618 116.931 67.9576 113.597C67.89 116.941 67.8615 120.611 67.803 124.664C68.0232 116.887 68.2665 110.465 68.4 105.451C69.8095 82.4375 71.1811 86.3449 75.55 123.723L75.6782 123.733C72.1862 77.5989 73.2282 80.772 80.3438 122.616L80.4719 122.626C76.2498 95.7583 74.7179 84.8174 77.2888 92.3611C77.8421 96.0114 79.8926 106.091 83.1156 121.801C80.6532 109.564 78.9564 100.736 78.2567 95.6573C79.7355 100.668 81.9801 109.088 85.0393 121.114C81.4549 106.728 79.1322 97.658 77.9088 93.5045C77.1085 85.5838 80.6407 93.2025 90.2384 118.944L90.4407 118.831C76.7618 77.634 78.2924 80.33 93.598 117.209L93.7262 117.219C82.2533 88.2398 79.5501 79.9129 89.1092 95.4094C91.3431 99.835 94.6007 106.015 98.7489 114.004L99.2126 113.847Z" fill="url(#paint2_radial_102_54)"/>
<path style="mix-blend-mode:color-dodge" opacity="0.3" d="M51.6225 9.77812C81.1207 1.96801 111.406 19.5977 119.166 49.06C126.989 78.5273 109.346 108.776 79.8523 116.523C50.3541 124.333 20.0688 106.703 12.3092 77.2406C4.48544 47.7733 22.1292 17.5242 51.6225 9.77812Z" fill="url(#paint3_linear_102_54)"/>
<defs>
<radialGradient id="paint0_radial_102_54" cx="0" cy="0" r="1" gradientUnits="userSpaceOnUse" gradientTransform="translate(91.5811 -35.0322) rotate(30.3984) scale(204.135 203.996)">
<stop stop-color="#FF9D00"/>
<stop offset="0.1" stop-color="#F99800"/>
<stop offset="0.24" stop-color="#E88A00"/>
<stop offset="0.39" stop-color="#CD7300"/>
<stop offset="0.54" stop-color="#AD5700"/>
<stop offset="0.6" stop-color="#A15200"/>
<stop offset="0.72" stop-color="#824600"/>
<stop offset="0.86" stop-color="#513300"/>
<stop offset="1" stop-color="#1E1F00"/>
</radialGradient>
<radialGradient id="paint1_radial_102_54" cx="0" cy="0" r="1" gradientUnits="userSpaceOnUse" gradientTransform="translate(20.3498 -34.0302) rotate(-14.657) scale(164.879 164.736)">
<stop/>
<stop offset="0.04" stop-color="#060300"/>
<stop offset="0.5" stop-color="#4B2500"/>
<stop offset="0.83" stop-color="#763B00"/>
<stop offset="1" stop-color="#874400"/>
</radialGradient>
<radialGradient id="paint2_radial_102_54" cx="0" cy="0" r="1" gradientUnits="userSpaceOnUse" gradientTransform="translate(70.3335 54.6423) rotate(59.7937) scale(92.8264 92.8628)">
<stop stop-color="#FFA600"/>
<stop offset="0.08" stop-color="#F9A100"/>
<stop offset="0.19" stop-color="#E89300"/>
<stop offset="0.31" stop-color="#CD7D00"/>
<stop offset="0.44" stop-color="#A85F00"/>
<stop offset="0.54" stop-color="#874400"/>
<stop offset="0.64" stop-color="#763E00"/>
<stop offset="0.82" stop-color="#4B2F00"/>
<stop offset="1" stop-color="#1E1F00"/>
</radialGradient>
<linearGradient id="paint3_linear_102_54" x1="38.7302" y1="89.3798" x2="189.319" y2="-57.4554" gradientUnits="userSpaceOnUse">
<stop/>
<stop offset="1" stop-color="white"/>
</linearGradient>
</defs>
</svg>
