<svg width="258" height="258" viewBox="0 0 258 258" fill="none" xmlns="http://www.w3.org/2000/svg">
<mask id="mask0_102_51" style="mask-type:alpha" maskUnits="userSpaceOnUse" x="26" y="26" width="206" height="206">
<path style="mix-blend-mode:overlay" d="M227.728 155.86C242.527 101.334 210.271 45.1394 155.682 30.347C101.093 15.5546 44.8426 47.7656 30.0434 102.292C15.2442 156.819 47.5002 213.013 102.089 227.806C156.678 242.598 212.928 210.387 227.728 155.86Z" fill="url(#paint0_radial_102_51)"/>
</mask>
<g mask="url(#mask0_102_51)">
<path style="mix-blend-mode:multiply" d="M28.8645 176.087C23.5055 180.306 18.5127 183.137 12.4803 185.243C19.1163 181.188 23.1461 174.997 24.9136 168.049C26.0376 163.564 25.5783 159.534 25.7258 155.166C26.0342 147.911 29.93 142.611 35.5372 136.866C35.6753 136.748 35.498 136.54 35.3549 136.723C30.6758 141.317 26.0509 146.045 25.1916 152.097C24.4513 157.449 25.5557 162.302 24.2236 167.802C24.3835 165.753 23.3548 164.063 20.906 162.39C19.1913 161.226 17.2827 161.721 15.3658 160.669C11.8424 158.72 11.7377 155.104 12.0176 151.519C12.4124 146.461 14.8581 141.564 18.2944 137.194C13.7918 142.833 10.7965 149.814 11.845 156.208C12.281 158.883 13.1925 159.598 15.2076 161.044C17.4691 162.637 21.4969 163.08 23.0475 165.52C23.7958 166.674 23.2454 169.594 22.9773 171.376C22.9723 171.44 22.9673 171.504 23.0955 171.514C20.9202 177.077 17.1285 181.87 11.6762 185.631C9.95486 186.205 8.04119 186.764 6.06843 187.254L5.87615 187.239C4.44112 187.449 3.12428 187.798 1.67925 188.136C1.28469 188.234 1.25971 188.554 1.3679 188.82C-0.579872 188.99 -2.53764 189.288 -4.54039 190.162C-4.93994 190.324 -4.98491 190.9 -4.46717 190.876C2.22935 190.175 8.50134 189.956 14.4505 187.265C19.0078 185.881 23.4778 183.138 27.5242 180.04C30.4292 179.172 33.087 178.993 36.3258 179.632C39.3723 180.257 42.0433 181.56 45.238 181.938C52.4555 182.824 59.7197 181.458 66.9657 178.675C67.0989 178.621 67.0548 178.36 66.9166 178.478C54.7287 182.615 45.7225 180.688 34.9225 177.784C33.5965 177.423 32.4479 177.268 31.3483 177.311C32.671 176.062 33.9937 174.813 35.3164 173.563C38.3614 170.902 41.5395 168.188 44.7027 165.665C49.9027 162.657 55.2383 162.043 61.6526 162.479C67.6133 162.944 72.7698 163.798 78.9495 162.283C79.2108 162.239 79.1767 161.85 78.9794 161.899C69.1706 163.646 59.8506 159.955 50.115 162.416C49.5232 162.563 48.9954 162.715 48.4627 162.931C58.8545 155.368 70.146 150.324 83.0352 154.551C83.3506 154.64 83.642 154.212 83.3315 154.058C73.026 149.776 60.9281 152.761 50.3058 159.146C43.6749 163.137 38.2408 168.317 32.4322 173.338C31.7413 173.928 31.0504 174.519 30.3595 175.109C33.6576 170.857 35.0879 165.752 37.4305 160.524C38.4386 158.348 39.5649 156.31 40.8685 154.48C43.9584 151.243 47.2998 148.09 51.9103 147.677C54.9627 147.4 56.9737 148.072 59.7688 148.612C63.8358 149.381 67.8745 148.858 72.0032 147.184C72.4027 147.022 72.2454 146.559 71.8509 146.657C66.9431 148.399 62.9884 148.67 58.3596 147.665C56.3336 147.185 54.3126 146.64 52.0444 146.785C48.7998 147.047 46.027 148.699 43.668 150.834C52.8446 140.664 66.8721 136.091 80.7029 135.689C80.8952 135.704 80.8511 135.443 80.7229 135.433C69.3826 135.321 57.546 138.262 47.8642 145.815C43.5365 149.213 39.9921 153.316 37.6304 157.963C34.4337 164.219 33.4503 171.034 28.8495 176.279L28.8645 176.087ZM83.9348 242.157C81.2517 247.616 77.0855 252.25 70.0858 255.182C69.8886 255.231 70.0608 255.502 70.194 255.448C77.8246 252.694 82.2181 247.627 85.0202 241.469C86.1515 239.367 87.0315 237.181 88.5323 235.302C90.9564 232.335 94.4042 231.122 97.4782 228.915C100.819 226.599 102.355 223.434 103.804 219.747C103.814 219.619 103.686 219.609 103.612 219.732C101.555 224.595 99.2105 227.375 94.6614 230.305C93.2355 231.224 91.6323 231.937 90.2605 232.989C88.1978 234.631 87.1355 236.674 86.1274 238.85C88.0804 233.656 89.1711 227.944 90.2618 222.232C92.7693 214.892 99.9762 211.783 105.513 206.933C110.748 203.477 116.882 203.376 122.633 201.571C127.605 199.833 132.598 201.962 137.54 199.771C142.079 197.807 145.672 193.9 148.068 189.643C148.142 189.52 147.96 189.377 147.886 189.5C144.591 195.362 139.084 199.827 132.259 200.518C129.463 200.816 126.786 200.413 124.157 201.046C124.951 200.785 125.686 200.456 126.491 200.068C132.598 197.002 135.77 191.066 138.616 185.169C138.626 185.041 138.508 184.903 138.433 185.026C136.033 189.348 133.656 194.186 129.797 197.363C125.869 200.599 121.292 201.402 116.504 202.445C112.701 203.243 109.471 204.15 106.417 206.102C106.624 205.925 106.836 205.684 107.043 205.507C110.4 202.162 113.027 198.244 115.161 194.031C119.213 185.909 121.872 179.933 129.569 174.673C132.431 172.706 134.533 171.388 136.631 168.461C136.775 168.278 136.528 168.13 136.39 168.248C132.021 172.996 125.728 175.146 121.601 180.105C117.256 185.37 115.853 192.603 112.184 198.307C106.889 206.654 94.5383 211.229 90.614 220.198C91.5707 215.378 92.5864 210.626 94.2722 206.378C98.5537 195.311 110.037 190.282 113.87 179.18C116.857 170.653 115.831 161.491 114.904 152.723C114.909 152.659 114.776 152.713 114.776 152.713C116.132 165.894 116.918 178.967 107.09 189.214C105.826 190.533 104.573 191.723 103.383 192.918C105.215 190.936 105.986 188.484 105.624 185.686C105.277 182.696 104.511 180.124 104.623 177.041C104.689 174.534 105.136 172.121 105.395 169.629C105.405 169.501 105.153 169.417 105.138 169.609C104.371 172.834 103.849 176.208 104.038 179.572C104.338 184.813 106.695 189.312 102.411 193.809C102.411 193.809 102.756 193.513 102.895 193.395C99.5433 196.677 96.4634 199.786 94.2199 204.57C91.1905 211.161 90.014 218.799 88.532 226.22C88.4816 217.778 85.463 209.362 87.3554 200.814C89.7582 189.858 96.7939 180.681 96.1502 169.101C96.1652 168.909 95.8448 168.884 95.8939 169.081C96.1571 181.404 88.5146 190.92 86.5695 202.62C86.5663 201.01 86.1585 199.625 85.5093 198.029C83.7191 193.702 83.4853 190.914 84.5452 186.424C85.63 181.613 85.8758 177.639 83.5828 173.144C83.5287 173.011 83.3264 173.124 83.3805 173.257C86.0563 179.456 83.8228 184.113 83.2739 190.318C82.8941 195.184 86.4798 198.813 86.4996 203.517C85.4063 211.74 88.4549 219.772 88.2738 227.874C87.2481 232.754 86.0401 237.49 84.0338 241.714C84.737 229.402 78.5172 217.386 82.6273 205.211C82.6373 205.083 82.45 205.004 82.435 205.196C77.5608 217.247 84.5097 229.835 83.8707 242.152L83.9348 242.157ZM42.6862 75.8457C43.0857 75.6836 43.5493 75.5266 44.008 75.4336C43.9439 75.4286 43.8157 75.4186 43.7466 75.4776C43.4162 75.5806 43.0166 75.7427 42.6862 75.8457ZM59.7816 74.9257C62.4294 74.8747 64.994 74.2376 67.3722 72.6841C69.2076 71.4747 70.4913 69.9002 71.908 68.2717C74.3862 65.4377 77.248 63.4711 80.829 62.2047C80.893 62.2097 80.8439 62.0127 80.8389 62.0767C77.2189 63.0179 74.7025 64.6895 72.2294 67.4594C68.4826 71.6758 64.8899 74.7447 59.2739 74.8217C57.3661 74.4795 55.3842 74.2604 53.3332 74.1003C49.9363 73.8351 46.918 74.5013 44.0721 75.4386C49.1522 73.9672 54.7033 74.7225 59.7166 75.758C72.223 78.2801 82.1439 82.5328 94.9778 78.3816C95.2441 78.2736 95.1409 77.9434 94.8796 77.9875C81.5039 81.6455 71.7361 77.0827 59.9048 74.9997L59.7816 74.9257ZM2.70066 69.3106C5.57522 78.746 11.1228 82.8505 18.2904 84.3761C23.798 88.9928 17.5764 97.6537 21.7613 103.52C24.4397 107.207 28.5399 109.202 32.551 111.512C33.3192 112.409 33.6979 113.34 33.8144 115.153C33.9608 116.582 33.8118 117.665 33.84 118.955C33.8882 119.99 33.8823 120.891 34.256 121.886C35.4803 125.203 39.0237 126.896 42.0052 128.353C42.0693 128.358 42.2074 128.24 42.0792 128.23C38.1763 126.186 35.0184 123.685 34.6782 118.956C34.5909 117.597 35.0213 116.213 34.8058 114.844C34.6343 113.736 34.1866 112.863 33.6006 112.109C36.2517 113.669 38.6904 115.469 40.4824 118.121C40.4774 118.185 40.6747 118.136 40.6156 118.067C38.2626 114.341 35.1838 111.653 31.4982 109.304C29.0394 107.759 25.8947 106.741 23.8014 104.645C17.5905 98.2989 21.705 95.9792 22.248 90.6754C22.522 87.9915 21.8287 86.1338 20.4495 84.8023C21.2187 84.8624 21.9187 84.9814 22.7519 85.0465C30.9673 88.8439 33.4182 97.9241 43.1245 99.97C44.3713 100.518 45.6182 101.066 46.796 101.674C50.4475 103.633 50.0004 106.884 50.9092 110.111C51.9753 113.801 55.8982 115.589 59.2252 116.75C59.5997 116.908 59.842 116.283 59.4674 116.125C57.851 115.355 55.5245 114.593 54.3376 113.277C52.6729 111.472 52.2169 109.053 51.805 106.896C51.5795 105.654 51.5263 104.684 50.773 103.594C49.7293 102.096 48.0637 101.129 46.3141 100.412C48.6165 100.656 50.9929 100.777 53.2903 101.086C62.4996 102.062 67.9832 106.162 73.6263 113.172C73.8627 113.448 74.2673 113.222 74.1 112.887C67.6794 104.27 61.6082 101.091 51.0679 99.8171C47.8732 99.4389 44.5945 99.3118 41.5039 98.4265C41.2525 98.3424 41.0061 98.1944 40.8189 98.1153C40.7548 98.1103 40.6907 98.1053 40.6266 98.1003C39.9365 97.8532 39.1824 97.6011 38.4974 97.29C34.269 95.2852 32.4929 91.6039 29.5231 88.3447C28.2771 86.9592 27.2034 85.8448 26.0356 85.1096C28.9348 85.1426 31.9131 84.9886 35.0245 84.7806C41.8983 84.2866 47.8989 84.2397 53.9202 88.0591C57.6058 90.408 60.3683 93.8442 64.059 96.1291C71.0066 100.472 78.6222 97.91 86.3516 99.6728C86.5439 99.6878 86.6279 99.4367 86.3716 99.4167C76.8235 96.9967 68.7002 99.4543 60.271 92.6128C57.2363 90.1859 54.6552 87.73 51.4323 86.0614C55.7506 86.9138 59.8602 84.6581 64.2194 84.161C71.2464 83.3568 75.055 90.7395 81.5716 92.3431C81.8921 92.3682 81.9861 91.989 81.6757 91.836C77.22 90.2643 75.0585 87.3903 71.3187 84.9084C69.9737 83.966 68.6627 83.4128 66.9322 83.2777C61.0456 82.6894 55.8938 86.7317 49.8749 85.3601C49.8109 85.3551 49.7468 85.3501 49.7468 85.3501C48.8744 84.96 47.933 84.6288 46.9175 84.4207C40.7114 82.9701 34.2463 84.0113 27.9943 83.9742C26.3819 83.9772 24.9078 83.8621 23.4978 83.752C26.8015 83.559 29.9629 82.7108 33.1843 81.0943C36.3366 79.5368 38.7647 77.3431 42.0302 75.9877C35.312 78.6195 29.4302 82.9269 21.8413 83.4939C13.2438 82.1143 7.99751 77.4536 2.97702 69.0746C2.86382 68.8725 2.46427 69.0345 2.57747 69.2366L2.70066 69.3106ZM157.595 46.941C162.454 35.082 153.595 29.6239 145.544 23.7137C145.441 23.3836 145.195 23.2355 144.933 23.2796C139.932 19.6042 135.405 15.6437 134.825 9.86573C134.929 4.39884 135.315 -1.36814 137.948 -2.06433C138.343 -2.16235 138.27 -2.8766 137.816 -2.8476C135.42 -2.7126 135.339 -0.850959 134.71 1.41881C134.255 3.12239 133.933 4.77195 133.734 6.49555C133.729 6.55957 133.724 6.62359 133.714 6.75163C133.704 6.87968 133.689 7.07174 133.679 7.19979C133.649 7.58392 133.614 8.03207 133.579 8.48023C132.83 12.2865 129.402 13.2428 127.535 16.5109C125.969 19.2228 126.227 22.5279 124.03 25.0618C121.621 27.8367 117.172 29.4862 114.28 31.8369C111.596 34.0106 109.458 36.6135 107.434 39.4184C107.434 39.4184 107.424 39.5464 107.498 39.4234C109.858 36.4514 112.493 34.0806 115.37 31.922C114.732 33.4825 114.839 35.4232 114.95 37.2998C115.023 42.9738 112.844 47.7634 108.255 51.2055C108.255 51.2055 108.245 51.3335 108.25 51.2695C111.037 49.4259 113.165 46.9511 114.317 43.756C115.86 39.6896 114.071 33.6885 117.22 30.5205C118.38 29.7093 119.535 28.962 120.753 28.2198C122.924 26.8434 124.493 25.742 126.009 23.6703C126.325 22.9221 126.578 22.1688 126.899 21.3565C127.641 19.2888 128.506 17.2952 129.499 15.3115C130.511 13.909 132.124 13.0688 133.136 11.6663L133.28 11.4843C133.025 14.7494 132.898 18.0245 132.126 21.3136C131.507 23.4554 130.5 24.7938 128.205 26.9335C127.854 27.2926 127.262 27.4396 126.907 27.8628C125.984 28.9501 125.332 29.8654 124.773 31.2389C122.341 37.6191 123.32 44.0723 118.133 49.4C118.064 49.4591 118.118 49.5921 118.251 49.5381C121.084 47.1183 122.206 44.3074 123.082 41.3484C123.205 45.5448 123.941 49.3381 124.967 53.5406C126.293 58.8615 124.884 62.0365 120.626 65.3756C118.913 66.659 117.334 67.8884 115.799 69.3789C115.794 69.4429 115.784 69.571 115.923 69.4529C119.476 66.0588 125.306 64.0662 126.19 58.5314C126.592 55.8574 125.574 53.2015 124.931 50.7036C123.988 47.0874 123.434 43.4371 123.532 39.7088C124.007 37.7491 124.424 35.7205 125.101 33.6477C126.437 29.7584 129.323 27.4717 131.299 24.4697C129.592 29.8115 127.916 34.7692 129.147 40.4692C131.321 50.6227 142.882 61.1226 133.267 71.1288C133.267 71.1288 133.257 71.2569 133.331 71.1338C141.469 63.5244 135.686 54.184 132.416 45.684C128.88 36.4548 131.278 30.5228 133.456 22.448C133.111 26.8656 132.406 31.7702 134.655 35.1665C136.383 37.8134 139.38 39.0779 142.164 40.5835C141.426 43.4244 142.676 45.5832 144.291 48.0281C147.23 52.5087 148.808 57.0763 147.422 62.4431C147.417 62.5072 147.545 62.5172 147.55 62.4531C148.485 59.5632 148.779 56.6231 148.042 53.6671C147.006 49.5927 142.179 45.3511 143.149 41.1757C143.948 41.6889 144.746 42.2021 145.47 42.8383C150.77 47.6321 152.439 55.1697 154.444 61.703C154.488 61.9641 154.823 61.7971 154.774 61.6C153.205 53.6192 150.635 45.2383 143.599 40.3734L143.353 40.2254C143.388 39.7772 142.954 39.5501 142.618 39.7172C138.268 36.8011 134.646 34.4572 134.175 28.108C133.941 25.32 134.328 22.8382 134.084 20.1783C134.114 19.7941 134.272 19.42 134.366 19.0409C134.649 17.9035 134.665 16.0369 134.771 13.8551C136.487 18.3047 140.359 21.5699 144.449 24.53C145.167 26.0675 144.766 27.9042 145.154 29.5447C145.389 30.6581 145.891 31.6635 146.393 32.6688C147.746 35.1577 149.8 36.9284 151.637 39.0041C151.637 39.0041 151.701 39.0091 151.637 39.0041C150.136 36.7613 148.299 34.6856 146.935 32.3247C145.631 30.0329 145.929 27.8662 145.72 25.5954C153.421 31.0274 161.28 36.0853 157.339 46.921C157.334 46.985 157.457 47.059 157.467 46.931L157.595 46.941ZM238.423 202.686C239.742 200.664 238.283 199.519 236.816 197.666C235.762 196.295 234.57 195.043 233.304 193.913C233.309 193.849 233.25 193.78 233.127 193.706C233.004 193.632 232.886 193.494 232.762 193.42C232.462 193.139 232.161 192.858 231.861 192.577C229.182 189.727 230.472 186.414 228.937 182.944C227.678 180.076 224.85 178.31 224.133 175.098C223.319 171.491 224.64 166.957 224.412 163.267C224.228 159.839 223.388 156.553 222.356 153.252C222.356 153.252 222.228 153.242 222.292 153.247C223.294 156.932 223.665 160.439 223.706 164.05C222.854 162.566 221.189 161.599 219.667 160.449C215.02 157.188 212.417 152.541 212.349 146.803L212.285 146.798C212.153 150.137 212.875 153.285 214.716 156.134C217.074 159.796 222.974 161.867 223.659 166.3C223.618 167.65 223.572 169.063 223.458 170.536C223.258 173.097 223.236 175.027 224.017 177.407C224.48 178.088 224.879 178.763 225.342 179.443C226.553 181.277 227.63 183.164 228.703 185.116C229.219 186.767 228.951 188.549 229.467 190.2L229.452 190.392C227.038 188.271 224.491 186.204 222.241 183.645C220.897 181.866 220.376 180.279 220.039 177.161C220.015 176.644 220.124 176.073 220.03 175.615C219.751 174.24 219.323 173.112 218.575 171.958C214.898 166.196 209.068 163.229 207.838 155.855C207.848 155.727 207.646 155.84 207.71 155.845C208.002 159.539 209.542 162.107 211.477 164.577C208.048 162.248 204.51 160.49 200.513 158.825C195.451 156.756 193.689 153.72 193.527 148.361C193.5 146.233 193.462 144.233 193.115 142.081C193.125 141.952 192.922 142.066 192.986 142.071C193.573 146.947 191.762 152.796 195.708 156.776C197.624 158.664 200.335 159.456 202.774 160.419C206.279 161.788 209.496 163.52 212.477 165.814C213.777 167.333 215.141 168.856 216.416 170.695C218.794 174.101 218.894 177.78 220.182 181.102C216.864 176.527 213.841 172.297 208.548 169.887C199.076 165.67 183.748 168.725 181.396 155.079C181.396 155.079 181.268 155.069 181.332 155.074C182.661 166.128 193.621 166.983 202.395 169.407C211.992 172.024 215.305 177.5 220.534 184.028C217.214 181.127 213.618 177.626 209.571 177.439C206.425 177.258 203.647 178.973 200.771 180.295C198.949 178.027 196.455 177.768 193.502 177.602C188.172 177.315 183.514 175.856 180.042 171.591C180.042 171.591 179.914 171.581 179.973 171.65C181.716 174.105 183.948 176.083 186.757 177.269C190.695 178.864 196.928 177.483 199.77 180.732C198.902 181.115 197.975 181.429 197.057 181.615C190.044 183.065 183.002 179.938 176.471 177.689C176.215 177.669 176.131 177.921 176.313 178.064C183.656 181.471 192 184.441 200.021 181.653L200.287 181.545C200.587 181.826 201.056 181.605 201.15 181.226C206.058 179.484 210.112 177.932 215.523 181.318C217.922 182.793 219.72 184.544 221.933 185.94C222.169 186.216 222.4 186.556 222.701 186.838C223.469 187.735 224.927 188.879 226.696 190.177C222.087 188.915 217.225 190.082 212.332 191.632C210.68 191.31 209.434 189.924 207.877 189.223C206.876 188.823 205.738 188.541 204.653 188.392C201.843 188.044 199.219 188.612 196.493 188.85C199.189 188.996 201.985 188.699 204.603 189.032C207.221 189.365 208.783 190.84 210.754 192.024C201.816 194.998 193.105 198.376 186.695 188.794C186.7 188.729 186.503 188.779 186.562 188.848C193.257 199.74 202.91 195.856 212.429 192.863C212.74 193.016 213.006 192.908 213.159 192.598C219.107 190.744 224.952 189.396 229.938 192.427C234.323 195.732 238.673 199.485 237.699 202.05C237.536 202.488 238.157 202.794 238.379 202.425L238.423 202.686ZM77.4304 11.5692C77.219 10.973 76.3558 11.2921 76.5081 11.8193C77.8596 15.9827 80.2402 16.8771 83.0918 19.9982C90.6369 28.2522 89.4045 37.4314 90.3554 47.5539C91.1699 56.1198 92.6694 64.9969 100.41 69.9168C100.598 69.9958 100.746 69.7497 100.628 69.6117C90.4979 62.2509 91.1828 48.5202 90.2877 36.8562C90.7837 38.7628 91.4079 40.6795 92.2394 42.4191C93.8432 45.8293 96.7347 48.4383 98.0031 52.0156C99.8616 57.1203 98.9881 62.5272 102.918 66.6987C103.096 66.9058 103.377 66.6057 103.264 66.4036C99.8722 61.1147 100.667 55.0577 97.9957 49.6317C96.992 47.621 95.4355 46.0825 94.2245 44.2488C92.3834 41.3998 91.2032 38.3447 90.1663 35.1076C90.044 34.1962 89.9907 33.2259 89.8634 32.3786C89.4083 29.1225 88.889 25.8613 87.1711 23.0864C84.5427 18.7588 79.1065 16.5309 77.5045 11.4461L77.4304 11.5692ZM47.6753 29.2787C47.2725 27.8302 44.9592 28.5514 45.4952 29.9459C46.8377 33.4001 49.0342 35.826 51.9416 37.4056C52.764 38.436 53.7295 39.2843 54.69 40.1966C56.0316 44.4881 57.6154 48.1544 56.5456 52.773C56.0702 54.7327 55.0921 56.5243 55.0603 58.583C55.0468 62.0602 57.2334 64.6141 60.3581 65.8886C60.4862 65.8986 60.5603 65.7756 60.4372 65.7015C55.6569 63.3316 55.5531 58.8791 57.0666 54.3596C57.5761 52.789 58.0706 51.4106 58.2005 49.746C58.3513 46.988 57.743 44.042 56.2515 41.6712L56.4288 41.8782C58.9949 44.5262 60.3773 47.4682 61.7247 50.8584C62.8608 53.6524 63.7705 56.0423 67.0242 56.4895C61.9418 55.513 61.7815 48.4796 59.3644 44.7483C57.6956 42.1704 55.1978 40.3007 53.1835 38.0178C54.3713 38.497 55.6282 38.9172 56.9591 39.2143C60.5774 39.9476 64.5821 39.0364 68.1163 40.0208C74.9925 41.9746 77.4651 49.1242 79.1795 55.2483C77.9029 50.1245 76.3408 44.5275 71.8228 41.2763C63.7623 35.4942 51.0932 42.4923 47.6703 29.3427L47.6753 29.2787ZM197.53 229.253C195.985 225.912 193.651 223.604 190.669 222.147C189.778 221.176 188.812 220.327 187.778 219.538C186.234 215.36 184.384 211.801 185.202 207.099C185.549 205.129 186.468 203.269 186.372 201.2C186.193 197.708 183.868 195.272 180.729 194.189C180.601 194.179 180.526 194.302 180.714 194.381C185.642 196.505 186.007 200.914 184.745 205.517C184.3 207.093 183.864 208.54 183.927 210.22C183.973 212.929 184.71 215.885 186.339 218.138C186.275 218.133 186.221 218 186.162 217.931C183.458 215.401 181.937 212.577 180.388 209.299C179.118 206.56 178.006 204.283 174.807 203.969C179.909 204.689 180.523 211.693 183.083 215.243C184.885 217.767 187.462 219.449 189.615 221.614C188.422 221.199 187.16 220.843 185.755 220.669C182.058 220.122 178.161 221.3 174.612 220.507C167.642 218.933 164.769 211.945 162.725 205.924C164.268 210.94 166.155 216.498 170.821 219.503C179.178 224.793 191.449 217.119 195.661 230.073C196.133 231.462 198.392 230.608 197.782 229.337L197.53 229.253ZM214.405 108.895C214.514 108.324 214.747 107.827 214.979 107.33C214.747 107.827 214.514 108.324 214.213 108.88C214.203 109.009 214.39 109.088 214.405 108.895ZM214.979 107.33C215.433 106.464 215.883 105.661 216.396 104.864C215.819 105.656 215.369 106.459 214.979 107.33ZM211.268 129.262C219.429 123.845 224.106 115.965 224.802 106.229C225.142 101.875 224.707 97.5258 224.47 93.1272C224.074 85.8177 225.021 80.2878 226.868 73.1534C228.379 71.1457 230.033 68.956 231.785 67.1604C232.248 67.0034 232.717 66.7823 233.117 66.6203C233.516 66.4582 233.423 66.0001 233.182 65.788C235.408 63.7073 237.766 62.4099 240.186 62.7921C240.95 62.9161 241.045 61.6997 240.281 61.5757C236.332 60.9454 234.471 63.3122 231.87 66.072C230.745 66.4352 229.552 66.8573 228.427 67.2204C228.442 67.0283 228.26 66.8853 228.062 66.9343C221.261 68.9798 215.369 68.4556 209.052 65.1283C205.952 63.5337 203.223 61.3238 199.817 60.3494C194.518 58.8408 188.896 59.819 184.401 62.882C184.401 62.882 184.396 62.946 184.401 62.882C190.09 59.3969 196.731 59.4001 202.507 62.2341C205.676 63.7697 208.41 65.9155 211.658 67.2641C214.975 68.5536 218.583 69.4149 222.084 69.1729C218.188 70.3503 214.198 71.0694 210.121 70.4291C204.195 69.5157 198.918 66.9137 192.858 66.8916C192.73 66.8816 192.715 67.0736 192.843 67.0836C199.908 67.4419 205.978 71.4584 212.905 71.9347C218.674 72.385 224.81 69.7722 230.335 67.5625C227.936 70.2094 225.734 72.8073 223.473 75.3361C217.829 79.0823 211.604 81.1729 204.882 82.1941C197.9 83.2593 193.451 79.9491 187.205 78.1733C180.521 76.2345 174.619 76.6756 167.818 77.8839C167.626 77.8689 167.665 78.194 167.863 78.145C178.707 76.3505 183.058 78.4294 193.019 82.1698C196.213 83.3853 198.54 84.1466 202.105 83.9096C207.869 83.5866 213.979 82.1312 219.342 79.5224C219.194 79.7685 219.045 80.0146 218.902 80.1967C214.584 84.304 209.61 87.7161 202.893 89.5106C195.712 91.4621 188.263 90.2365 180.988 91.7299L181.117 91.7399C181.117 91.7399 181.108 91.0307 180.836 91.2027C173.762 94.2576 166.104 90.7613 158.696 93.146C153.67 94.7504 148.992 97.6703 145.404 101.513C145.266 101.631 145.443 101.838 145.581 101.72C152.519 96.2709 159.264 91.6444 168.523 92.818C170.948 93.1362 173.107 93.5624 175.109 93.5254C169.18 95.9611 163.974 99.8704 159.305 104.337C159.305 104.337 159.295 104.465 159.364 104.406C168.454 96.9995 176.94 92.38 188.75 91.434C194.849 90.9439 200.544 90.6799 206.444 88.6283C210.355 87.2589 213.784 85.4654 216.927 83.1987C214.196 87.6231 211.642 92.2547 208.186 96.0429C205.506 98.9899 202.462 100.813 199.196 102.169C194.235 102.941 187.794 100.377 182.907 101.026C177.694 101.714 173.328 103.95 169.508 107.452C169.508 107.452 169.498 107.58 169.632 107.526C176.204 102.629 184.002 100.21 192.131 101.811C194.098 102.222 195.868 102.682 197.603 102.753C193.953 104.078 190.146 104.941 186.244 106.182C179.763 108.253 174.406 110.797 171.712 117.222C171.702 117.35 171.825 117.424 171.899 117.301C179.21 104.602 193.081 107.811 203.921 101.121C205.342 100.265 206.585 99.203 207.775 98.0076C205.11 104.885 206.651 112.413 199.328 117.831C192.962 122.552 184.4 120.724 178.231 126.233C178.162 126.292 178.216 126.425 178.349 126.371C185.573 120.558 196.334 123.137 202.747 116.166C208.31 110.159 206.232 102.074 210.159 95.5528C210.159 95.5528 210.164 95.4888 210.169 95.4248C213.585 91.3114 216.233 86.3007 218.777 81.7972C220.016 80.7989 221.196 79.7316 222.385 78.5362C222.874 78.059 223.367 77.5178 223.871 76.8486C224.142 76.6766 224.419 76.4405 224.695 76.2044C222.801 81.4672 223.288 87.6243 223.573 93.0572C223.796 96.8105 223.901 100.426 223.695 103.888C223.695 103.888 223.695 103.888 223.631 103.883C221.602 105.915 218.761 106.788 216.609 108.745C215.988 109.277 215.489 109.882 214.99 110.487C215.913 109.4 217.019 108.455 218.173 107.708C220.014 106.435 222.199 105.704 223.749 104.021C223.192 113.639 220.328 122.24 211.175 128.804C211.036 128.922 211.155 129.06 211.352 129.011L211.268 129.262ZM59.5549 197.613C56.4118 199.88 56.3442 203.224 56.9025 206.81C57.8187 212.421 59.0662 217.092 57.0591 222.152C54.9064 224.947 52.0837 227.239 48.2755 228.939C45 230.422 42.164 231.231 39.4054 233.528C38.9218 233.941 39.5768 234.636 40.0555 234.287C44.7336 230.53 50.1833 229.281 54.6292 226.021C54.6933 226.026 54.8164 226.1 54.8855 226.041C58.7637 223.445 62.9039 224.928 67.0717 223.578C70.179 222.597 72.1835 220.048 74.1239 217.494C74.198 217.371 74.0107 217.292 73.9416 217.351C71.9371 219.9 69.7994 222.503 66.4557 223.208C64.6853 223.585 62.7675 223.371 60.9629 223.359C59.671 223.387 58.5024 223.489 57.3778 223.852C57.8814 223.183 58.2569 222.504 58.5732 221.755C58.8595 221.391 59.1509 220.963 59.3782 220.53C59.4522 220.407 59.5313 220.22 59.6054 220.097C59.6595 220.23 59.8518 220.245 59.9259 220.122C63.5794 215.447 69.1314 215.365 71.9326 210.045C73.978 206.146 75.141 201.986 75.7372 197.652C74.6124 202.975 72.77 210.883 67.8213 213.975C64.6981 215.985 62.0353 216.229 59.9909 219.29C64.2156 210.602 62.9442 200.454 70.6092 193.13C70.6092 193.13 70.6191 193.002 70.5501 193.061C64.6674 198.205 63.9113 204.588 61.9315 211.776C61.2189 214.297 60.398 216.552 59.3358 218.594C59.7523 211.606 54.5346 203.276 59.8013 197.761C59.9395 197.643 59.8213 197.505 59.624 197.554L59.5549 197.613ZM28.7448 205.707C24.7535 208.101 19.5611 208.533 15.1028 209.473C14.8414 209.517 14.9346 209.975 15.196 209.931C19.3379 209.739 23.5739 209.168 27.3231 207.4C27.3131 207.528 27.4953 207.671 27.6335 207.553C31.764 204.204 36.511 205.347 41.1033 203.516C43.8311 202.44 45.6624 200.458 47.085 197.928C47.1641 197.741 46.9128 197.657 46.8387 197.78C43.717 203.076 39.1214 203.297 33.6377 204.157C32.9867 204.235 32.3949 204.382 31.8031 204.529C38.5098 198.74 40.4696 191.808 50.7953 190.875C50.9235 190.885 50.8744 190.687 50.8053 190.747C46.4561 191.116 42.4315 192.283 39.0461 195.175C35.3152 198.362 33.1458 203.023 28.8139 205.648L28.7448 205.707ZM-2.80818 122.536C-3.12864 122.511 -3.09953 122.964 -2.84816 123.048C-0.403504 123.947 1.72069 124.822 4.01304 125.194C4.00804 125.258 4.00304 125.322 4.12623 125.396C7.03278 127.813 11.168 129.36 14.9894 129.143C17.514 129.018 19.9163 127.981 22.4459 127.792C25.9469 127.55 29.0325 128.5 32.2263 129.715C32.3545 129.725 32.4286 129.602 32.3054 129.528C29.0043 127.209 24.9964 126.51 21.0218 127.037C17.8953 127.437 14.9012 128.62 11.7366 127.858C9.77466 127.383 8.05502 126.282 6.31538 125.438C7.47406 125.464 8.64772 125.298 9.90047 124.945C16.761 122.968 21.6106 120.32 28.9354 122.308C29.1277 122.323 29.2759 122.077 29.0936 121.934C24.727 120.048 20.4028 120.097 15.9587 121.682C12.7132 122.781 9.33363 124.772 5.79352 124.689C2.70207 124.641 0.199193 122.835 -2.80818 122.536ZM165.761 69.5429C168.008 66.3689 170.614 63.545 173.752 61.3423C174.981 60.472 176.446 59.8778 177.497 58.8005C179.664 56.6508 179.993 53.2626 181.234 50.5897C182.719 49.7394 184.09 48.6871 185.162 47.3537C189.21 42.5811 190.597 36.377 191.584 30.3349C191.532 37.6094 196.347 45.3282 191.192 51.8823C191.118 52.0054 191.236 52.1434 191.374 52.0254C198.487 44.3359 189.471 33.455 193.38 24.678C193.528 24.4319 193.095 24.2048 192.946 24.4509C192.423 25.3762 192.087 26.3806 191.819 27.3259C191.657 26.9267 190.952 26.8717 190.848 27.3789C190.258 30.8111 189.78 34.4453 188.736 37.9065C186.688 40.1942 184.866 42.8861 182.398 44.7547C179.24 47.2135 175.946 47.2785 172.218 47.9536C168.49 48.6288 165.387 50.3833 162.49 52.7981C162.49 52.7981 162.48 52.9261 162.554 52.8031C166.216 49.6751 170.083 48.0446 174.817 47.7056C176.632 47.5896 178.239 47.6506 179.965 47.0124C183.428 45.608 186.02 42.1389 188.257 39.0929C187.911 40.2253 187.441 41.2836 186.908 42.337C183.775 48.5981 178.571 50.8327 172.622 53.5245C168.675 55.3421 166.144 57.2057 164.976 61.4301C164.971 61.4942 165.03 61.5632 165.104 61.4401C167.847 55.213 174.781 53.9507 180.375 50.8448C179.936 51.519 179.62 52.2673 179.298 53.0795C178.018 56.2646 176.763 58.2923 173.907 60.1949C170.3 62.6186 167.55 65.6246 165.328 69.3159C165.248 69.5029 165.5 69.587 165.574 69.4639L165.761 69.5429ZM130.714 216.179C130.762 217.213 130.944 218.194 131.263 219.056C131.013 218.135 130.831 217.154 130.714 216.179ZM130.708 212.12C130.599 213.529 130.622 214.883 130.714 216.179C130.617 214.947 130.653 213.662 130.901 212.135C130.911 212.007 130.718 211.992 130.708 212.12ZM153.516 247.073C153.516 247.073 153.816 247.354 154.018 247.241C154.013 247.305 154.003 247.433 153.998 247.497C154.147 251.374 154.559 253.531 156.967 256.553C157.435 257.17 158.451 256.54 157.983 255.924C153.163 249.944 157.119 238.079 154.469 230.722C151.185 221.577 144.217 213.368 149.075 203.184C149.085 203.056 148.961 202.982 148.887 203.105C145.597 209.74 147.439 215.874 150.218 222.403C152.132 226.804 154.159 230.569 154.756 235.318C155.235 239.091 154.053 242.67 153.896 246.33C152.93 241.359 150.686 237.061 146.962 233.55C146.962 233.55 146.972 233.422 146.977 233.358C143.767 229.05 144.664 224.16 143.891 219.204C143.371 215.943 142.319 212.898 141.006 209.897C141.006 209.897 140.942 209.892 141.006 209.897C143.126 214.958 143.771 219.903 143.993 225.331C144.108 227.981 144.436 230.39 145.824 232.431C140.253 227.809 133.204 225.584 131.199 219.051C131.897 221.682 133.255 224.107 135.61 226.158C138.324 228.56 141.779 229.732 144.567 232.011C149.484 235.937 152.053 241.033 153.447 247.132L153.516 247.073ZM123.465 245.436L123.312 245.746C123.312 245.746 123.415 246.076 123.553 245.958C124.622 252.096 122.501 256.955 118.685 262.067C118.468 262.373 118.886 262.792 119.168 262.492C123.762 258.148 125.927 253.551 124.814 247.151C124.672 246.496 124.53 245.841 124.323 245.181C129.975 239.696 125.605 231.239 126.386 224.537C126.396 224.409 126.268 224.399 126.258 224.527C125.742 227.836 126.468 230.92 126.79 234.23C127.18 238.318 125.925 241.183 124.063 244.387C123.139 241.352 121.752 238.474 120.764 235.434C118.68 229.088 119.159 223.779 121.699 217.665C121.714 217.473 121.527 217.394 121.453 217.517C118.263 222.035 117.868 227.092 119.199 232.349C120.171 236.419 122.139 240.115 123.245 244.13C123.338 244.589 123.436 244.983 123.529 245.441L123.465 245.436ZM226.74 143.353C230.494 141.52 233.234 142.765 235.117 138.467C236.452 135.415 236.599 131.884 238.239 129.049C242.106 127.418 246.105 126.571 250.556 128.207C251.123 128.38 251.38 127.563 250.887 127.267C247.502 125.199 244.149 125.195 240.845 126.225C240.983 126.107 241.116 126.053 241.254 125.935C241.457 125.822 241.289 125.487 241.092 125.536C239.983 125.707 239.163 126.287 238.586 127.079C236.988 127.727 235.438 128.573 233.884 129.482C230.571 129.803 227.55 128.021 224.203 127.116C221.359 126.379 218.563 126.676 215.899 127.756C215.899 127.756 215.889 127.884 215.894 127.82C220.748 125.945 224.419 127.648 229.003 129.23C230.324 129.655 231.591 129.947 232.878 129.983C227.944 132.883 222.986 136.103 217.951 136.161C205.304 136.269 198.645 124.928 186.634 134.232C186.634 134.232 186.624 134.36 186.688 134.365C199.967 124.516 206.979 137.945 219.504 136.926C221.19 136.8 222.837 136.349 224.431 135.765C223.202 136.635 222.092 137.644 220.666 138.563C216.585 141.272 212.167 141.7 207.568 140.31C203.472 139.089 200.447 136.534 196.141 138.001C196.013 137.991 196.126 138.193 196.19 138.198C202.542 136.955 207.827 142.778 214.479 141.816C219.697 141.064 222.693 137.368 226.892 134.798C230.434 133.206 233.828 131.024 237.306 129.427C237.054 130.18 236.802 130.934 236.554 131.623C235.867 133.824 235.838 137.493 234.337 139.372C232.555 141.552 229.108 141.927 226.691 143.156C226.627 143.151 226.676 143.348 226.745 143.289L226.74 143.353ZM179.833 244.49C177.987 241.705 175.775 239.471 172.878 237.763C167.33 234.496 162.179 232.741 162.059 225.196C161.986 228.604 163.082 231.91 165.737 234.243C167.368 235.658 169.443 236.336 171.301 237.318C174.701 239.194 177.223 241.581 179.429 244.716C179.606 244.923 179.941 244.756 179.769 244.485L179.833 244.49ZM221.134 214.348C221.459 214.309 221.371 213.787 221.051 213.762C217.949 213.842 215.223 213.243 212.809 211.122C211.484 209.923 210.441 208.425 209.116 207.226C207.362 205.737 205.43 204.877 203.137 205.343C208.403 204.787 210.281 210.473 214.025 212.891C216.174 214.283 218.648 214.798 221.134 214.348ZM247.653 155.484C251.897 156.46 255.975 156.263 260.118 155.233C260.315 155.184 260.212 154.854 260.015 154.903C251.449 156.425 245.372 154.147 237.846 150.596C233.49 148.582 230.742 149.913 227.401 153.066C227.401 153.066 227.391 153.194 227.465 153.071C234.64 147.061 240.56 153.836 247.658 155.42L247.653 155.484ZM105.5 238.494C105.862 241.292 106.485 244.046 106.458 246.878C106.429 251.385 104.64 254.466 101.861 257.856C101.436 258.338 102.101 258.905 102.585 258.492C112.796 249.112 101.273 235.652 108.088 225.17C108.167 224.982 107.921 224.834 107.842 225.021C105.012 229.052 104.973 233.686 105.569 238.435L105.5 238.494ZM8.41116 44.8933C7.03285 42.7245 5.97412 41.4181 3.61855 40.2036C3.30808 40.0506 2.88354 40.5327 3.25311 40.7548C9.40166 45.4215 10.6707 53.1212 17.9738 57.0407C18.4715 57.2728 18.9743 57.4409 19.4079 57.668C23.6046 61.7314 28.4813 66.1701 33.3547 68.9981C38.3513 71.9002 42.3935 68.029 47.566 67.853C47.6301 67.858 47.64 67.73 47.576 67.725C45.52 67.6289 43.9368 68.085 42.0231 68.6442C37.8703 69.8015 35.0552 69.5174 31.6559 66.8043C28.3798 64.1654 25.2519 61.2803 21.9808 58.5773C28.6647 60.5161 35.963 59.5399 42.2365 62.6061C35.4861 58.2145 26.831 60.0509 19.4929 56.5796C19.1824 56.4265 19.0001 56.2835 18.6896 56.1304C18.5715 55.9924 18.3842 55.9133 18.266 55.7753C18.2019 55.7703 18.0737 55.7603 18.0096 55.7553C13.5107 53.0853 11.281 49.4329 8.41116 44.8933ZM22.4548 34.331C22.4548 34.331 22.0061 34.2959 22.1193 34.498C23.9136 39.5978 27.2371 44.1084 32.9955 44.6867C36.9592 45.125 40.447 43.4004 44.1218 46.7147C47.0724 49.3926 46.1367 53.1199 46.9023 56.5291C47.5306 59.219 47.8993 60.2784 50.0917 61.931C50.2149 62.0051 50.3531 61.887 50.2349 61.749C45.0527 57.0933 49.5238 48.5534 42.7826 44.871C40.6193 43.6715 38.5924 44.0286 36.2801 43.9125C28.9044 43.4012 25.6092 40.181 22.5879 34.2769L22.4548 34.331ZM102.36 -2.97434C102.36 -2.97434 101.931 -3.26545 101.911 -3.00937C101.653 3.60491 103.97 8.61669 100.867 15.3309C99.1618 18.9982 97.0832 21.6701 96.2506 25.7274C94.6304 33.266 96.383 40.5526 100.528 46.9308C100.528 46.9308 100.656 46.9409 100.592 46.9359C95.3693 38.6699 95.1117 30.405 98.1378 22.2033C98.166 23.4937 98.722 24.6321 99.6675 25.7365C101.504 27.8123 103.347 28.9867 104.079 32.0068C104.658 34.4996 103.974 37.4736 102.833 39.7034C104.261 37.1095 104.777 33.8004 104.041 30.8444C103.113 27.036 97.5674 25.3793 98.4791 21.1349C99.2059 19.2593 100.125 17.3986 101.167 15.612C105.356 8.20958 102.366 5.20648 102.296 -2.97935L102.36 -2.97434ZM117.67 1.63455C117.67 1.63455 117.482 1.55552 117.542 1.62454C117.53 8.38688 117.542 15.6664 113.542 21.4733C113.537 21.5373 113.655 21.6754 113.665 21.5473C118.054 15.7064 118.032 8.55495 117.675 1.57053L117.67 1.63455ZM119.604 -4.14041L120.073 -5.19876L119.604 -4.14041ZM164.105 40.3638C164.243 31.1637 173.067 27.9877 178.005 21.7387C178.005 21.7387 178.138 21.6847 178.143 21.6206C178.143 21.6206 178.148 21.5566 178.153 21.4926C178.296 21.3105 178.434 21.1925 178.513 21.0054C181.629 16.611 183.257 10.6189 184.816 5.52322C184.979 5.08507 184.225 4.83297 184.062 5.27112C182.45 9.39651 181.449 13.9561 179.522 17.9924C178.751 19.607 177.808 20.9504 176.683 22.1508C170.832 25.2367 160.265 20.9981 157.451 28.9588C157.441 29.0868 157.569 29.0968 157.579 28.9688C160.536 20.826 169.989 25.2998 175.913 22.9281C174.373 24.4826 172.715 25.899 170.982 27.4385C166.896 31.0487 163.515 34.7139 163.652 40.3928C163.637 40.5849 163.957 40.6099 163.972 40.4179L164.105 40.3638Z" fill="url(#paint1_radial_102_51)"/>
</g>
<defs>
<radialGradient id="paint0_radial_102_51" cx="0" cy="0" r="1" gradientUnits="userSpaceOnUse" gradientTransform="translate(143.092 100.059) rotate(-120.266) scale(142.612 142.668)">
<stop stop-color="white"/>
<stop offset="0.41" stop-color="#A7A39E"/>
<stop offset="0.82" stop-color="#574F45"/>
<stop offset="1" stop-color="#382F23"/>
</radialGradient>
<radialGradient id="paint1_radial_102_51" cx="0" cy="0" r="1" gradientUnits="userSpaceOnUse" gradientTransform="translate(117.785 126.218) rotate(58.1331) scale(135.807 135.852)">
<stop offset="0.47" stop-color="#FF0000"/>
<stop offset="1" stop-color="#FF8879"/>
</radialGradient>
</defs>
</svg>
