<svg width="153" height="153" viewBox="0 0 153 153" fill="none" xmlns="http://www.w3.org/2000/svg">
<path style="mix-blend-mode:multiply" d="M70.848 146.583C109.67 149.614 143.596 120.633 146.623 81.8537C149.65 43.0742 120.632 9.18057 81.81 6.15015C42.9875 3.11973 9.0617 32.1001 6.03463 70.8796C3.00757 109.659 32.0255 143.553 70.848 146.583Z" fill="url(#paint0_radial_271_1176)"/>
<path style="mix-blend-mode:screen" d="M134.191 46.3539C97.6484 59.0659 92.5165 60.8564 135.285 50.746C92.8669 63.1504 98.3493 63.6539 137.256 63.2909C98.36 64.4859 92.8883 64.8143 136.95 68.1782C93.1118 66.7962 98.7376 68.3687 135.952 77.0913C98.6214 68.8885 92.81 67.7549 134.055 82.9877C91.651 70.0066 96.3784 73.3978 129.44 93.6585C96.0249 74.0502 90.9381 71.3865 125.71 98.8074C89.9822 72.9741 94.1013 77.3756 121.268 104.354C93.7654 77.8028 89.241 73.7474 114.871 109.748C86.8742 74.9982 89.0435 80.1542 106.491 115.365C88.401 80.6329 85.52 75.8747 98.3729 118.585C83.7956 76.6468 84.8772 82.1712 93.3278 120.231C84.3333 82.3554 82.7138 76.9401 83.1705 121.478C80.2445 76.5962 79.3948 81.6677 75.4492 121.555C78.562 81.6782 78.5788 76.6173 65.0929 119.538C76.7745 76.4765 75.0343 81.3273 61.9763 118.766C74.5139 81.2111 75.7337 76.2441 52.4148 114.317C74.0866 75.0578 71.1445 78.8326 47.9236 111.775C70.4162 78.4735 72.6357 74.2645 39.2908 104.151C71.1272 73.2401 67.3993 76.4247 37.3899 102.34C67.0468 76.0949 70.353 72.4997 31.5339 94.025C69.4988 70.8463 65.269 72.7073 29.3919 90.4579C64.8707 71.9962 68.708 69.349 25.3552 79.1872C67.7151 67.5338 62.9601 68.3715 24.3526 75.5578C62.7814 67.7531 67.4212 66.4531 23.5348 66.654C67.4867 64.6448 62.9066 64.2118 23.4237 62.2631C62.971 63.3857 67.6157 62.9927 25.17 51.5194C67.7047 60.8841 63.1489 59.1685 26.3839 46.6275C63.2652 58.6486 67.9312 59.9195 29.0624 40.4144C68.7944 58.5514 64.9857 55.9874 31.3923 35.7607C65.4954 55.2716 69.7328 57.1891 36.8018 28.4763C70.8567 55.3879 67.7432 51.6693 41.353 23.4671C68.1484 51.3232 71.5919 54.6897 45.2255 20.3694C73.0097 53.9693 70.9839 49.8823 50.9209 16.2051C71.6957 49.4845 74.4333 53.1737 57.5234 13.0183C76.3256 52.1881 75.4803 47.5133 65.7798 9.96055C76.0182 47.4041 77.4074 51.8948 69.3837 9.33519C79.0614 52.0239 79.4824 47.599 78.7023 8.1737C80.2343 47.6577 80.7154 52.153 83.9015 8.42843C82.6818 52.1554 84.2364 47.7434 93.7092 9.7229C84.6817 47.8537 83.6416 52.457 95.9178 10.4997C85.0866 53.3253 87.5658 49.6655 106.133 14.3194C88.219 50.0187 86.3871 54.1068 109.382 16.3107C88.0694 54.8426 91.5718 51.6405 117.843 22.26C91.9184 52.0453 88.8377 55.6581 119.801 24.3018C90.0855 57.1155 94.4197 54.885 127.704 33.532C94.8181 55.5961 90.888 58.4626 129.69 37.1625C92.1299 59.9951 97.4522 58.6728 134.104 46.4983L134.191 46.3539Z" fill="url(#paint1_radial_271_1176)"/>
<path style="mix-blend-mode:screen" opacity="0.3" d="M116.518 134.206C112.916 127.049 109.898 121.147 107.624 116.36C110.303 120.8 113.64 126.501 117.566 133.381L117.641 133.387C111.412 122.096 106.967 114.118 104.248 109.221C98.5241 96.3077 103.845 101.785 123.788 128.275L124.031 128.068C97.2415 89.4831 99.4714 91.9239 125.832 126.319L125.994 126.181C108.54 102.681 102.437 93.6664 110.572 100.875C113.397 104.42 119.774 111.869 129.208 122.805C121.733 113.91 116.199 107.283 112.97 103.102C116.917 106.81 122.816 112.635 130.794 120.889C120.453 109.957 113.872 103.172 110.776 100.211C106.514 93.758 113.467 98.683 134.269 116.098L134.524 115.74C102.374 86.7105 104.894 88.3427 135.642 114.014L135.816 113.725C108.611 90.144 104.678 85.3036 131.411 100.386C134.006 102.024 136.885 103.911 140.052 105.972L140.064 105.821C138.122 104.536 136.324 103.338 134.596 102.221C136.336 103.188 138.29 104.323 140.243 105.458L140.417 105.169C133.418 100.845 128.008 97.4758 124.037 95.0503C110.484 85.5302 115.243 86.5817 142.87 98.9382L142.905 98.4876C107.568 81.2226 109.979 82.3174 143.166 98.0546L143.184 97.8293C118.206 85.4529 111.275 81.2097 126.239 85.2489C130.35 86.8542 136.594 89.2305 144.745 92.3601C138.363 89.8219 133.229 87.7589 129.275 86.0903C133.345 87.2391 138.589 88.8574 145.013 90.8699L145.036 90.5695C134.277 86.9341 127.044 84.6317 123.28 83.4312C115.921 79.8346 122.589 80.6573 145.857 85.8735C145.868 85.7233 145.88 85.5731 145.892 85.4229C110.529 76.2403 112.917 76.6534 145.95 84.672L145.98 84.2965C113.375 75.6314 110.971 73.4793 146.452 75.3422C146.469 75.1169 146.481 74.9667 146.499 74.7414C113.09 71.5292 115.715 71.8097 146.528 74.3659L146.54 74.2157C115.982 71.3016 113.352 70.114 146.192 68.9753C146.21 68.75 146.152 68.5189 146.089 68.3628C114.962 67.8975 112.563 66.6525 144.951 61.6251C144.963 61.4749 144.899 61.3188 144.836 61.1627C142.163 61.483 139.797 61.7517 137.657 62.038C116.308 64.2248 116.684 63.272 143.793 57.0769L143.672 56.6897C112.631 62.88 114.563 62.3508 143.557 56.2274C143.569 56.0772 143.505 55.9211 143.442 55.765C114.356 61.1258 111.714 60.0884 140.639 48.0663C140.506 47.8292 140.379 47.5171 140.246 47.2801C112.48 57.0505 114.384 55.9147 139.404 45.4765L139.421 45.2512C114.281 55.3022 111.921 55.4957 137.695 42.1698L137.493 41.8518C110.372 54.997 112.108 54.0747 137.228 41.3778L137.031 40.9847C111.814 52.994 109.414 52.7311 133.596 35.5787C133.463 35.3417 133.324 35.1798 133.116 34.9369C109.544 50.0968 111.095 48.6313 132.164 33.5781L132.175 33.4279C110.899 48.2382 108.868 49.0619 130.581 31.5656L130.373 31.3227C107.347 49.1698 108.661 47.8368 129.824 30.5999C129.68 30.5131 129.616 30.357 129.472 30.2702C107.662 47.0788 105.232 47.1914 124.573 25.2033C124.289 24.9545 124.082 24.7116 123.798 24.4629C104.102 44.232 104.867 42.1762 121.106 22.1371L120.892 21.9693C104.37 41.7597 102.75 43.1443 119.395 20.7947L119.112 20.5459C101.205 43.5526 101.953 41.7221 117.685 19.4523C117.54 19.3655 117.471 19.2845 117.326 19.1977C101.098 41.0509 99.0609 41.9497 112.72 16.1937C112.431 16.02 112.217 15.8522 111.928 15.6785C97.5769 39.6427 97.9031 37.4015 108.882 14.0052L108.731 13.9934C97.4579 37.2912 96.4843 39.1041 108.223 13.7271L107.997 13.7095C95.2687 40.1425 95.7218 38.2135 106.402 12.8294L106.038 12.6498C94.5941 38.1254 92.8229 39.4983 101.06 10.5235C100.765 10.425 100.401 10.2454 100.106 10.1468C90.4709 37.6525 90.0629 35.1273 95.3073 8.63892L95.0818 8.62131C89.3804 35.1496 88.7534 37.3673 94.3417 8.41244L93.9658 8.3831C87.2947 38.6134 86.8632 36.3886 90.1092 7.40205C89.9588 7.39031 89.8084 7.37858 89.6581 7.36684C85.6545 36.3698 84.5188 38.3212 85.1765 6.63924C84.8758 6.61576 84.5751 6.59229 84.2743 6.56881C82.4337 30.1496 81.4464 34.0769 80.1464 21.6599C80.0519 18.0259 79.8491 12.8723 79.619 6.12987C79.619 6.12987 79.4686 6.11813 79.3934 6.11226C79.4362 9.44004 79.5083 12.3923 79.6039 15.0442C79.4273 12.4616 79.2107 9.42244 78.9424 6.07705L78.792 6.06531C79.0983 11.8314 79.4115 16.5403 79.6622 20.111C79.7658 37.1946 78.5691 31.2079 75.5416 6.03827L75.1657 6.00892C78.2564 37.1524 77.7798 39.3818 71.3656 6.24118C71.1401 6.22357 70.8335 6.2752 70.6021 6.33269C75.1484 39.1764 73.2251 36.6841 64.031 7.17976L63.8806 7.16802C72.7388 37.0994 73.5921 39.7349 63.6492 7.22552L63.1864 7.3405C72.5082 41.9925 70.1737 39.9214 55.7814 9.18026L55.3938 9.30111C69.0567 40.6654 69.5458 43.1213 52.0555 10.4005C51.8241 10.458 51.6679 10.5214 51.4306 10.654C62.3376 33.7187 64.2227 39.608 57.6784 31.3905C55.3919 27.7365 51.558 21.6194 46.0321 12.9526L45.7948 13.0852C48.7452 17.9243 51.2279 21.9715 53.1561 25.3709C50.8344 22.1674 48.0393 18.247 44.7764 13.5345L44.7012 13.5287C49.0439 19.9121 52.5029 25.0177 55.0208 28.6142C64.2 44.744 58.6534 39.2489 39.4003 16.5149L39.1631 16.6475C62.834 45.7707 64.3931 48.0835 37.4905 17.7258L37.0911 17.9969C62.3622 48.9072 58.7146 47.1869 30.8284 22.6458L30.7532 22.6399C58.7428 47.7936 61.3604 50.1135 30.5852 22.8535C30.5042 22.9227 30.3421 23.0611 30.2611 23.1304C61.7274 53.1643 57.691 52.547 22.1264 31.4109L21.8774 31.6937C57.2848 53.8753 59.7813 55.808 20.5397 33.3271L20.2907 33.6099C46.7684 50.0322 52.5415 54.5629 40.5449 50.302C35.8047 48.0431 27.8444 44.3995 16.3751 39.1976L16.3575 39.4229C21.6758 42.0291 26.4101 44.3631 30.3351 46.4072C26.2305 44.7268 21.3223 42.6815 15.6857 40.2771C22.6345 43.3128 28.4907 45.8099 33.104 47.7567C56.5903 59.8656 47.9279 58.4338 11.5709 48.4181L11.5533 48.6434C55.1891 61.3428 58.5078 62.433 11.2926 49.0764L11.275 49.3017C57.2804 63.6216 52.503 63.7776 8.58371 56.6471C52.8437 64.2575 57.1749 64.9734 8.24678 58.0564L8.22333 58.3568C59.15 67.772 54.7816 69.471 5.92424 72.3062L5.90665 72.5315C55.2951 70.6444 59.1586 70.5682 5.80114 73.8832L5.78941 74.0334C58.2144 72.0057 53.4066 73.5193 5.91501 81.1455C53.6204 73.6871 58.3696 72.9244 5.93744 81.8272L5.92571 81.9774C60.4502 74.3713 56.6939 76.9492 7.88571 93.6904L7.87399 93.8406C57.474 77.6145 61.4314 76.3368 8.11609 94.615C60.8689 77.7284 56.3549 80.3227 9.99532 100.579C56.7133 80.5774 61.3941 78.7516 11.5007 104.55C63.9951 80.3147 61.1283 84.0953 18.3992 116.951L18.4744 116.957C61.8273 84.8299 65.4157 82.4655 19.8315 118.952C65.0787 83.8748 61.379 87.666 22.5173 122.335C61.5929 87.8338 65.6333 84.5225 25.4463 125.51C68.0098 85.0858 66.172 89.249 33.5821 132.718L33.6573 132.724C66.9814 89.5389 69.8941 86.1396 36.3042 134.669C70.0142 87.5089 67.3142 92.0582 38.6797 136.214C67.5281 92.226 70.8753 88.105 45.2749 139.902L45.3501 139.908C73.4891 88.5357 72.8425 92.943 54.8081 143.744L54.9585 143.756C73.5533 93.5274 75.4545 89.5203 58.7283 144.881C75.5862 90.7394 74.0716 95.6079 58.8786 144.893C74.2102 95.7698 76.3204 91.0234 66.3264 146.381L66.4016 146.387C78.53 90.8181 78.809 94.9954 73.619 146.95L73.7693 146.962C78.8536 102.177 80.3323 92.9232 79.9723 127.575C79.7757 133 79.503 139.401 79.2175 146.934C79.4365 142.191 79.6261 137.824 79.8557 133.913C79.7765 137.835 79.7431 142.139 79.6745 146.894C79.9327 137.772 80.2182 130.239 80.3747 124.358C82.0281 97.3623 83.6369 101.946 88.7617 145.79L88.9121 145.802C84.8159 91.6866 86.0382 95.4086 94.3848 144.491L94.5351 144.503C89.5825 112.987 87.7856 100.154 90.8012 109.003C91.4503 113.284 93.8555 125.108 97.6362 143.536C94.7478 129.182 92.7574 118.826 91.9366 112.869C93.6713 118.747 96.3041 128.623 99.8926 142.73C95.6882 125.855 92.9636 115.216 91.5286 110.344C90.5898 101.053 94.7331 109.99 105.991 140.184L106.228 140.051C90.1831 91.7277 91.9785 94.8901 109.932 138.149L110.082 138.161C96.6246 104.168 93.4538 94.4008 104.667 112.578C107.287 117.769 111.108 125.019 115.974 134.39L116.518 134.206Z" fill="url(#paint2_radial_271_1176)"/>
<path style="mix-blend-mode:color-dodge" opacity="0.3" d="M60.6938 12.1331C95.2953 2.97184 130.82 23.6515 139.922 58.2108C149.099 92.776 128.403 128.258 93.8075 137.344C59.206 146.506 23.6814 125.826 14.5793 91.2667C5.40205 56.7015 26.0982 21.2193 60.6938 12.1331Z" fill="url(#paint3_linear_271_1176)"/>
<defs>
<radialGradient id="paint0_radial_271_1176" cx="0" cy="0" r="1" gradientUnits="userSpaceOnUse" gradientTransform="translate(107.565 -40.4297) rotate(30.3984) scale(239.451 239.287)">
<stop stop-color="#FF9D00"/>
<stop offset="0.1" stop-color="#F99800"/>
<stop offset="0.24" stop-color="#E88A00"/>
<stop offset="0.39" stop-color="#CD7300"/>
<stop offset="0.54" stop-color="#AD5700"/>
<stop offset="0.6" stop-color="#A15200"/>
<stop offset="0.72" stop-color="#824600"/>
<stop offset="0.86" stop-color="#513300"/>
<stop offset="1" stop-color="#1E1F00"/>
</radialGradient>
<radialGradient id="paint1_radial_271_1176" cx="0" cy="0" r="1" gradientUnits="userSpaceOnUse" gradientTransform="translate(24.0113 -39.2545) rotate(-14.657) scale(193.403 193.235)">
<stop/>
<stop offset="0.04" stop-color="#060300"/>
<stop offset="0.5" stop-color="#4B2500"/>
<stop offset="0.83" stop-color="#763B00"/>
<stop offset="1" stop-color="#874400"/>
</radialGradient>
<radialGradient id="paint2_radial_271_1176" cx="0" cy="0" r="1" gradientUnits="userSpaceOnUse" gradientTransform="translate(82.6428 64.7584) rotate(59.7937) scale(108.886 108.928)">
<stop stop-color="#FFA600"/>
<stop offset="0.08" stop-color="#F9A100"/>
<stop offset="0.19" stop-color="#E89300"/>
<stop offset="0.31" stop-color="#CD7D00"/>
<stop offset="0.44" stop-color="#A85F00"/>
<stop offset="0.54" stop-color="#874400"/>
<stop offset="0.64" stop-color="#763E00"/>
<stop offset="0.82" stop-color="#4B2F00"/>
<stop offset="1" stop-color="#1E1F00"/>
</radialGradient>
<linearGradient id="paint3_linear_271_1176" x1="45.5712" y1="105.506" x2="222.212" y2="-66.7318" gradientUnits="userSpaceOnUse">
<stop/>
<stop offset="1" stop-color="white"/>
</linearGradient>
</defs>
</svg>
