<svg width="87" height="87" viewBox="0 0 87 87" fill="none" xmlns="http://www.w3.org/2000/svg">
<path style="mix-blend-mode:multiply" d="M66.1511 76.2118C47.8948 88.6997 22.9162 84.0447 10.4114 65.8061C-2.09335 47.5676 2.56255 22.617 20.8189 10.1291C39.0753 -2.35886 64.0539 2.29625 76.5587 20.5348C89.0634 38.7733 84.4075 63.7238 66.1511 76.2118Z" fill="url(#paint0_radial_102_74)"/>
<path style="mix-blend-mode:screen" d="M76.1487 25.7845C55.447 33.2507 52.527 34.311 76.792 28.2824C52.7475 35.6164 55.888 35.8616 77.9777 35.3958C55.8531 36.3097 52.7416 36.5177 77.822 38.2178C52.844 37.6851 56.1268 38.5855 77.299 43.2655C56.0427 38.8366 52.7349 38.2563 76.26 46.6627C52.0531 39.5558 54.7432 41.4405 73.6552 52.7718C54.516 41.8736 51.6036 40.358 71.5516 55.7637C51.0799 41.2833 53.4638 43.7883 69.0485 58.9178C53.1924 43.9603 50.6604 41.7015 65.4558 61.9868C49.3186 42.3697 50.5728 45.3017 60.6894 65.2218C50.1633 45.5918 48.5045 42.8858 56.0921 67.1174C47.5672 43.328 48.2246 46.4711 53.2461 68.0546C47.8942 46.5741 46.9113 43.47 47.511 68.8308C45.5703 43.3009 45.1532 46.1669 43.1177 68.9387C44.6945 46.2599 44.5989 43.3539 37.207 67.8332C43.5735 43.2739 42.6486 46.0358 35.4324 67.4371C42.3281 46.0108 43.0016 43.1648 29.9522 64.9481C42.0261 42.4446 40.3721 44.6343 27.4193 63.5265C40.0025 44.4122 41.2229 41.9954 22.4635 59.275C40.3606 41.4772 38.2829 43.3118 21.3848 58.2246C38.1056 43.1047 39.9419 41.0581 18.0123 53.5169C39.44 40.0527 37.0968 41.158 16.7521 51.4862C36.8063 40.7489 38.9872 39.2444 14.3477 45.1149C38.3572 38.229 35.6744 38.7282 13.7335 43.0702C35.5712 38.398 38.2099 37.6378 13.226 38.0065C38.2258 36.6085 35.598 36.4034 13.1005 35.4846C35.6379 35.8912 38.2366 35.6431 14.0289 29.3735C38.2675 34.4217 35.6947 33.5124 14.6974 26.5916C35.7837 33.1972 38.4406 33.8555 16.2 23.0374C38.9493 33.1223 36.7419 31.6617 17.5045 20.3695C37.0332 31.2336 39.3988 32.32 20.5362 16.2261C40.0556 31.3407 38.2877 29.2059 23.0834 13.3331C38.495 29.0289 40.4801 30.8585 25.2893 11.5086C41.2892 30.4064 40.1132 28.1246 28.5066 9.1188C40.5177 27.8985 42.0933 30.0183 32.2657 7.22221C43.1738 29.3941 42.6737 26.7141 36.9862 5.40068C43.0682 26.6161 43.8347 29.188 39.0181 4.97957C44.8011 29.199 44.996 26.7022 44.2996 4.23242C45.4496 26.6732 45.7034 29.2051 47.2578 4.33452C46.798 29.2261 47.7029 26.7203 52.878 5.03086C47.9543 26.8043 47.4289 29.4042 54.1349 5.45103C48.2321 29.8533 49.6198 27.7716 59.9656 7.58088C49.9894 27.9937 48.9713 30.2975 61.8134 8.69131C49.9027 30.7567 51.9163 28.9171 66.6469 12.0316C52.0936 29.1242 50.3213 31.1758 67.7847 13.151C51.0946 32.0091 53.581 30.7217 72.3451 18.3378C53.8073 31.1259 51.5523 32.7534 73.5361 20.4276C52.3206 33.6507 55.2847 32.8515 76.0896 25.7155L76.1487 25.7845Z" fill="url(#paint1_radial_102_74)"/>
<path style="mix-blend-mode:screen" opacity="0.3" d="M66.6937 75.8676C64.6221 71.8412 62.8851 68.485 61.5468 65.804C63.0924 68.3079 65.0317 71.5511 67.3105 75.4005C63.6833 68.9982 61.134 64.4836 59.5393 61.7826C56.2384 54.504 59.2232 57.5711 70.7601 72.5135L70.8982 72.3955C55.3846 50.5727 56.6947 51.9632 71.8805 71.3772L71.9446 71.3822C61.8951 58.0374 58.3603 52.9305 63.0106 56.965C64.6602 58.9617 68.3291 63.1773 73.7168 69.3305C69.3979 64.3557 66.2067 60.6283 64.3947 58.2325C66.6213 60.2742 70.0347 63.6325 74.64 68.2431C68.6755 62.0449 64.9075 58.2725 63.1687 56.5909C60.6826 52.9186 64.6587 55.6766 76.6595 65.5022L76.8026 65.3202C58.3446 49.0002 59.7538 49.9475 77.4594 64.3408L77.4694 64.2128C61.9321 50.9549 59.6274 48.2629 74.9627 56.6742C76.436 57.6265 78.0965 58.6579 79.9443 59.7683C78.8456 58.974 77.801 58.3128 76.8205 57.6565C77.806 58.2488 78.9197 58.851 80.0334 59.4532L80.0484 59.2611C76.1114 56.8282 73.0317 54.9775 70.7502 53.64C62.9752 48.331 65.7062 48.8663 81.4869 55.702L81.5069 55.4459C61.3014 45.8171 62.6715 46.4394 81.6551 55.1998L81.6651 55.0717C67.3735 48.1591 63.3624 45.8492 71.9641 48.0021C74.3446 48.8965 77.8539 50.201 82.5559 51.9207C78.9284 50.4781 75.986 49.3466 73.7337 48.4623C76.0701 49.0956 79.0325 49.9709 82.749 51.0984L82.759 50.9703C76.5929 49.0075 72.5068 47.658 70.3626 47.0397C66.1983 45.04 69.9698 45.4632 83.2253 48.3014L83.2453 48.0453C63.0645 43.0562 64.4646 43.2943 83.2803 47.5972L83.2953 47.4051C64.7068 42.6691 63.3176 41.4657 83.4978 42.3324L83.5228 42.0123C64.4972 40.3983 65.9713 40.5134 83.4737 41.8152L83.4837 41.6871C66.0604 40.1983 64.5621 39.566 83.2649 38.7071C83.2749 38.5791 83.2849 38.451 83.2308 38.318C65.5644 38.2916 64.1402 37.5363 82.5642 34.4656L82.5842 34.2096C81.021 34.4096 79.6551 34.5606 78.4123 34.7857C66.3111 36.1599 66.4843 35.5937 81.8619 31.8987L81.8818 31.6427C64.1819 35.3496 65.3015 35.0505 81.7096 31.3716L81.7296 31.1155C65.1001 34.3263 63.5969 33.758 79.9443 26.7249C79.8902 26.5919 79.777 26.3898 79.7229 26.2567C63.9932 31.9854 65.0736 31.3612 79.221 25.2514L79.231 25.1233C64.9754 30.9671 63.6736 31.1231 78.2073 23.3687L78.0941 23.1667C62.7913 30.861 63.7385 30.2908 77.9218 22.8955L77.8086 22.6935C63.5271 29.6946 62.1812 29.5896 75.7903 19.6374C75.7362 19.5043 75.613 19.4303 75.4948 19.2923C62.173 28.043 63.012 27.2067 74.9088 18.538C62.9629 27.0097 61.8284 27.5008 74.0274 17.4386L73.9092 17.3005C60.9211 27.5588 61.622 26.8406 73.5546 16.8864L73.3773 16.6793C61.0801 26.3474 59.6501 26.4934 70.5699 13.8193C70.4517 13.6812 70.2694 13.5382 70.0871 13.3951C59.0109 24.7688 59.4263 23.5774 68.5156 12.0486L68.3874 12.0386C59.1258 23.2963 58.2227 24.1276 67.5451 11.2643L67.3628 11.1213C57.3054 24.3136 57.7699 23.3193 66.5696 10.5441L66.3873 10.401C57.2821 22.9592 56.1476 23.4503 63.7463 8.71338C63.6231 8.63935 63.4358 8.56032 63.3176 8.42227C55.2861 22.0948 55.4452 20.8834 61.588 7.4499L61.5239 7.4449C55.2629 20.7404 54.7293 21.7937 61.2775 7.29684L61.1493 7.28684C54.1025 22.3889 54.3156 21.3105 60.2229 6.76364L60.0306 6.74863C53.6747 21.2605 52.7124 22.0228 57.1623 5.49414C56.97 5.47913 56.7877 5.33607 56.5955 5.32106C51.3082 21.0114 51.0336 19.5729 53.8895 4.46572L53.7613 4.45571C50.7082 19.6119 50.3519 20.8723 53.3226 4.29265L53.0662 4.27264C49.4637 21.5115 49.1741 20.2651 50.853 3.71339L50.5966 3.69338C48.4691 20.21 47.8663 21.3224 48.0479 3.30121L47.5351 3.26118C46.6829 16.6568 46.0544 18.9266 45.2532 11.8431C45.1567 9.77438 44.997 6.86337 44.8482 2.98703L44.72 2.97703C44.7674 4.84867 44.8247 6.59227 44.9021 8.07978C44.7606 6.58727 44.6342 4.90269 44.4587 3.02104L44.3946 3.01603C44.5933 6.25216 44.8321 8.9761 44.9336 10.9808C45.0762 20.7182 44.4388 17.319 42.5259 2.99898L42.3336 2.98397C44.3071 20.6581 44.074 21.9926 40.1935 3.13899L39.7449 3.10397C42.5408 21.8085 41.4229 20.433 36.0216 3.7151L35.8934 3.7051C41.1466 20.6691 41.6085 22.1866 35.7603 3.75912L35.5039 3.7391C40.9908 23.491 39.6657 22.2926 31.287 4.89142L31.0306 4.8714C38.9898 22.6907 39.2644 24.1292 29.1661 5.62764C29.0379 5.61763 28.8997 5.73566 28.8356 5.73066C35.1677 18.7853 36.2638 22.0915 32.4966 17.4818C31.1774 15.382 28.9918 11.9908 25.7624 7.10107L25.6342 7.09106C27.3471 9.93008 28.7795 12.2319 29.9214 14.1246C28.5772 12.3449 26.9476 10.0921 25.0915 7.43518C27.5826 11.0435 29.616 13.9075 31.0684 15.9532C36.4184 25.0665 33.1773 21.9794 22.1215 9.1357L21.9833 9.25374C35.6634 25.6517 36.5249 27.0072 21.031 9.88793L20.8237 10.065C35.3903 27.4983 33.3352 26.5649 17.3251 12.7549C33.3743 26.8901 34.9508 28.1725 17.1869 12.8729L16.9797 13.05C35.0722 29.9211 32.7749 29.613 12.4188 17.7825L12.2806 17.9005C32.5277 30.3022 33.9909 31.3826 11.5597 18.8748L11.4166 19.0569C26.5637 28.2264 29.909 30.8063 23.0678 28.4044C20.3917 27.1649 15.8429 25.1351 9.23391 22.236L9.22392 22.364C12.2695 23.8256 14.9406 25.1291 17.242 26.2105C14.8665 25.2521 12.1163 24.1357 8.86348 22.8512C12.8605 24.5158 16.1675 25.9334 18.7894 27.0398C32.2578 33.7594 27.2885 32.985 6.49678 27.5617L6.48678 27.6898C31.3496 34.6547 33.3065 35.1939 6.33863 27.9359L6.32863 28.0639C32.6006 35.9762 29.8887 36.0221 4.84013 32.2633C30.061 36.2932 32.5456 36.6804 4.65197 33.0216L4.64198 33.1496C33.6535 38.184 31.1871 39.2153 3.37635 41.1024L3.36636 41.2304C31.4626 39.8165 33.6567 39.7945 3.30639 41.9987C33.079 40.5868 30.3662 41.47 3.4352 46.1311C30.5485 41.6131 33.2313 41.114 3.40521 46.5152C34.3941 41.9133 32.2132 43.4177 4.55691 53.2396C32.6369 43.7729 34.886 43.0467 4.64511 53.7618C34.5696 43.7949 31.9992 45.3334 5.73619 57.1319C32.1815 45.4764 34.8451 44.3961 6.65585 59.3937C36.3875 45.2895 34.7334 47.4792 10.6226 66.4022C35.088 47.8933 37.1307 46.5069 11.3759 67.4916C36.9426 47.2652 34.8399 49.4199 12.9024 69.4143C34.894 49.5529 37.2331 47.6743 14.567 71.219C38.564 47.9714 37.4768 50.3342 19.2173 75.2535C37.9155 50.4973 39.5495 48.5636 20.7447 76.3389C39.6177 49.3419 38.131 51.8668 22.0948 77.2172C38.2492 52.0048 40.1105 49.638 25.8695 79.251C41.5796 49.8171 41.2515 52.368 31.3157 81.3508L31.3798 81.3558C41.6802 52.6591 42.6983 50.3553 33.5239 81.9741C42.7715 51.0696 41.9107 53.8365 33.588 81.9791C42.0289 53.9746 43.1461 51.2276 37.8473 82.7624C44.3839 51.0666 44.5835 53.4654 41.9492 83.0826L42.0133 83.0876C44.6482 57.5929 45.3835 52.3041 45.3925 72.0149C45.2808 75.0979 45.1882 78.7622 45.1148 83.0077C45.1965 80.3087 45.2582 77.8659 45.369 75.6201C45.3914 77.8119 45.3247 80.3187 45.307 83.0227C45.3914 77.8119 45.4648 73.5664 45.5324 70.2222C46.2782 54.886 47.2369 57.4729 50.3912 82.3245L50.5194 82.3345C47.8249 51.5929 48.5623 53.7116 53.6118 81.5453L53.6759 81.5503C50.6868 63.6681 49.5801 56.3675 51.3154 61.3983C51.7073 63.8122 53.1795 70.5615 55.4613 80.9811C53.7096 72.8573 52.557 66.9703 52.0478 63.5811C53.0748 66.9463 54.6369 72.5432 56.7882 80.505C54.3132 70.9077 52.6529 64.9166 51.8373 62.1476C51.2807 56.8868 53.6569 61.9676 60.2559 79.0366L60.3841 79.0466C50.9854 51.5819 52.0092 53.3365 62.4759 77.8572L62.5401 77.8622C54.6958 58.5704 52.8033 53.0765 59.2912 63.3091C60.8068 66.1972 62.9966 70.3616 65.8705 75.6745L66.6937 75.8676Z" fill="url(#paint2_radial_102_74)"/>
<path style="mix-blend-mode:color-dodge" opacity="0.3" d="M50.9095 6.29427C70.9389 9.91892 84.2069 29.1188 80.5817 49.1257C76.9565 69.1325 57.7379 82.3827 37.7086 78.758C17.6792 75.1334 4.41118 55.9335 8.03635 35.9267C11.6615 15.9198 30.8802 2.66962 50.9095 6.29427Z" fill="url(#paint3_linear_102_74)"/>
<defs>
<radialGradient id="paint0_radial_102_74" cx="0" cy="0" r="1" gradientUnits="userSpaceOnUse" gradientTransform="translate(87.8075 -9.41545) rotate(55.5223) scale(136.135 136.167)">
<stop stop-color="#FF9D00"/>
<stop offset="0.1" stop-color="#F99800"/>
<stop offset="0.24" stop-color="#E88A00"/>
<stop offset="0.39" stop-color="#CD7300"/>
<stop offset="0.54" stop-color="#AD5700"/>
<stop offset="0.6" stop-color="#A15200"/>
<stop offset="0.72" stop-color="#824600"/>
<stop offset="0.86" stop-color="#513300"/>
<stop offset="1" stop-color="#1E1F00"/>
</radialGradient>
<radialGradient id="paint1_radial_102_74" cx="0" cy="0" r="1" gradientUnits="userSpaceOnUse" gradientTransform="translate(12.9473 -22.1917) rotate(-15.2765) scale(110.047 109.953)">
<stop/>
<stop offset="0.04" stop-color="#060300"/>
<stop offset="0.5" stop-color="#4B2500"/>
<stop offset="0.83" stop-color="#763B00"/>
<stop offset="1" stop-color="#874400"/>
</radialGradient>
<radialGradient id="paint2_radial_102_74" cx="0" cy="0" r="1" gradientUnits="userSpaceOnUse" gradientTransform="translate(47.0185 36.4258) rotate(59.1634) scale(61.9278 61.9507)">
<stop stop-color="#FFA600"/>
<stop offset="0.08" stop-color="#F9A100"/>
<stop offset="0.19" stop-color="#E89300"/>
<stop offset="0.31" stop-color="#CD7D00"/>
<stop offset="0.44" stop-color="#A85F00"/>
<stop offset="0.54" stop-color="#874400"/>
<stop offset="0.64" stop-color="#763E00"/>
<stop offset="0.82" stop-color="#4B2F00"/>
<stop offset="1" stop-color="#1E1F00"/>
</radialGradient>
<linearGradient id="paint3_linear_102_74" x1="20.503" y1="50.742" x2="153.193" y2="4.69247" gradientUnits="userSpaceOnUse">
<stop/>
<stop offset="1" stop-color="white"/>
</linearGradient>
</defs>
</svg>
