<svg width="153" height="153" viewBox="0 0 153 153" fill="none" xmlns="http://www.w3.org/2000/svg">
<mask id="mask0_102_70" style="mask-type:alpha" maskUnits="userSpaceOnUse" x="7" y="7" width="138" height="138">
<path style="mix-blend-mode:overlay" d="M144.015 83.9216C148.286 46.464 121.35 12.6345 83.8505 8.36128C46.3512 4.08803 12.4893 30.9892 8.21784 68.4468C3.94636 105.904 30.8828 139.734 68.3822 144.007C105.881 148.28 139.743 121.379 144.015 83.9216Z" fill="url(#paint0_radial_102_70)"/>
</mask>
<g mask="url(#mask0_102_70)">
<path style="mix-blend-mode:multiply" d="M53.5216 140.154C52.659 144.596 51.4078 148.234 49.2492 151.93C50.8568 147.032 50.147 142.081 47.9622 137.852C46.5648 135.102 44.5797 133.273 42.7577 131.005C39.6997 127.223 39.3986 122.82 39.6853 117.496C39.6952 117.368 39.503 117.353 39.493 117.481C39.1532 121.835 38.8724 126.257 41.1222 129.653C43.0814 132.64 45.8257 134.658 47.5036 137.945C46.6222 136.846 45.4294 136.431 43.4766 136.665C42.1107 136.816 41.3157 137.913 39.9398 138.192C37.3161 138.76 35.6514 136.956 34.2531 135.043C32.2738 132.312 31.3259 128.76 31.1621 125.076C31.3692 129.858 32.9221 134.746 36.2573 137.454C37.6515 138.593 38.4256 138.589 40.0529 138.394C41.8725 138.214 44.1175 136.715 45.9463 137.244C46.8286 137.506 47.7932 139.192 48.4874 140.212C48.4874 140.212 48.5515 140.217 48.6155 140.222C49.9971 144.001 50.1359 148.006 49.027 152.299C48.4293 153.348 47.6984 154.45 46.9034 155.547L46.8393 155.542C46.1975 156.33 45.6839 157.127 45.1112 157.855C44.963 158.101 45.0812 158.239 45.2685 158.318C44.3553 159.278 43.5062 160.242 42.8885 161.546C42.7404 161.792 43.0359 162.138 43.2481 161.896C46.279 158.59 49.4031 155.742 51.192 151.824C52.886 149.122 53.92 145.789 54.6285 142.495C55.7299 140.777 56.9244 139.518 58.878 138.447C60.6985 137.429 62.6072 136.934 64.3785 135.72C68.3949 133.006 71.4657 129.188 73.8865 124.61C73.8965 124.482 73.8374 124.413 73.7633 124.536C69.3822 131.924 64.0539 134.922 57.3548 138.135C56.5507 138.523 55.8698 138.985 55.3812 139.462C55.4761 138.246 55.5711 137.029 55.7301 135.818C56.1323 133.144 56.4753 130.401 57.0057 127.737C58.336 123.912 60.7301 121.329 64.1596 118.698C67.3128 116.303 70.3569 114.48 72.8209 111C72.895 110.877 72.7177 110.67 72.6436 110.793C68.4965 116.009 62.1386 118.154 58.2919 123.651C58.0747 123.956 57.8524 124.325 57.6993 124.635C59.6408 116.284 63.1246 108.827 71.397 105.285C71.5993 105.172 71.5602 104.847 71.3629 104.896C64.2801 107.242 59.4952 114.018 56.9477 121.871C55.3352 126.834 54.8863 131.758 54.166 136.855C54.116 137.495 53.9429 138.061 53.8979 138.638C53.7241 135.081 52.1694 131.868 51.0983 128.242C50.6364 126.724 50.3027 125.217 50.1663 123.66C50.268 120.705 50.636 117.642 52.7437 115.424C54.1455 113.987 55.4773 113.447 57.1005 112.479C59.4687 111.053 61.3001 109.071 62.6686 106.408C62.8168 106.162 62.5113 105.945 62.3632 106.191C60.6441 109.213 58.7537 111.126 55.996 112.586C54.7823 113.264 53.5146 113.809 52.4632 114.886C50.9233 116.441 50.2506 118.45 50.0216 120.557C50.1544 111.421 55.2615 102.995 62.0673 96.7634C62.1364 96.7044 62.0823 96.5713 61.9491 96.6253C56.2146 101.524 51.5038 108.177 49.9718 116.238C49.3024 119.857 49.279 123.462 50.1137 126.812C51.243 131.345 53.7141 135.209 53.7339 139.913L53.5216 140.154ZM110.19 149.408C111.236 153.355 111.172 157.472 108.885 161.996C108.875 162.124 108.998 162.198 109.072 162.075C111.695 157.384 111.66 152.873 110.388 148.522C110.059 146.951 109.528 145.492 109.461 143.877C109.34 141.291 110.535 139.194 111.174 136.796C111.833 134.142 111.233 131.905 110.334 129.388C110.339 129.324 110.205 129.378 110.205 129.378C111.302 132.684 111.363 135.201 110.324 138.598C109.978 139.73 109.513 140.724 109.295 141.867C108.968 143.58 109.366 145.093 109.763 146.606C108.485 143.156 106.492 139.78 104.562 136.409C102.615 131.619 104.853 126.899 105.554 122.058C106.707 118.026 109.693 115.296 111.831 111.856C113.555 108.77 116.993 107.685 118.54 104.392C119.933 101.409 120.016 97.8729 119.427 94.6708C119.437 94.5427 119.24 94.5918 119.235 94.6558C120.182 99.0453 119.305 103.679 116.205 107.044C114.936 108.426 113.441 109.405 112.36 110.866C112.656 110.374 112.888 109.877 113.121 109.38C114.866 105.2 113.854 100.806 112.7 96.5933C112.705 96.5293 112.508 96.5783 112.572 96.5833C113.288 99.7954 114.177 103.279 113.661 106.588C113.076 109.956 111.145 112.382 109.205 114.936C107.625 117.002 106.38 118.902 105.752 121.172C105.767 120.98 105.782 120.788 105.797 120.595C106.042 117.458 105.641 114.335 104.85 111.246C103.308 105.393 102.02 101.235 103.654 95.1786C104.218 92.9039 104.728 91.3333 104.459 88.9935C104.469 88.8655 104.213 88.8455 104.267 88.9785C104.124 93.283 101.956 97.1073 102.005 101.427C102.104 105.943 104.54 110.256 105.226 114.689C106.2 121.207 101.987 128.929 103.952 135.137C102.304 132.303 100.783 129.479 99.721 126.562C97.076 119.142 100.634 111.561 97.7177 104.313C95.5097 98.7297 90.9335 94.5722 86.6036 90.5627C86.6036 90.5627 86.5396 90.5577 86.5986 90.6267C93.0268 96.668 99.1786 102.945 98.7644 112.381C98.6695 113.598 98.5795 114.75 98.4946 115.839C98.5704 114.041 97.8522 112.504 96.468 111.236C94.9606 109.895 93.4873 108.942 92.1922 107.36C91.1335 106.053 90.2771 104.634 89.3515 103.273C89.2924 103.204 89.1592 103.258 89.2133 103.391C90.2862 105.343 91.4872 107.305 93.0387 108.907C95.4866 111.417 98.6113 112.692 98.4196 116.799C98.4196 116.799 98.4446 116.479 98.4546 116.351C98.2097 119.488 97.9848 122.369 99.0068 125.798C100.383 130.479 103.139 134.816 105.634 139.198C101.901 134.977 96.7125 132.06 93.8926 126.88C90.3445 120.291 89.8496 112.587 84.412 107.074C84.3529 107.005 84.1556 107.054 84.2738 107.192C89.7947 113.292 90.1264 121.433 94.3054 128.201C93.5963 127.373 92.7981 126.859 91.7385 126.39C88.9442 125.013 87.6292 123.686 86.1626 120.995C84.5829 118.102 83.0073 115.982 79.8776 114.772C79.7495 114.762 79.7395 114.89 79.8677 114.9C83.9088 116.826 84.8717 120.186 87.2546 123.528C89.1748 126.19 92.5717 126.455 94.65 128.743C97.7071 133.362 102.783 136.077 106.195 140.272C107.839 143.17 109.291 146.053 110.15 149.083C105.113 142.571 96.7296 139.276 93.4196 131.288C93.4246 131.224 93.2274 131.273 93.2864 131.342C96.1278 139.551 105.093 142.827 110.195 149.344L110.19 149.408ZM16.5368 83.6119C16.5368 83.6119 16.8381 83.0557 16.9863 82.8096L16.9763 82.9377C16.9763 82.9377 16.6209 83.3609 16.5418 83.5479L16.5368 83.6119ZM24.7694 75.6233C26.0872 74.4379 27.1044 72.9715 27.6289 71.2089C28.0593 69.8254 27.9769 68.4019 27.9587 66.9834C27.9613 64.4715 28.5208 62.2608 29.7903 60.0411C29.7903 60.0411 29.8003 59.913 29.7262 60.0361C28.2744 62.1127 27.7349 64.0674 27.7373 66.5152C27.6988 70.3126 27.1976 73.4296 24.424 75.9184C23.3385 76.6066 22.189 77.2899 21.0885 78.1701C19.3072 79.5126 18.0185 81.1511 16.9813 82.8737C18.8876 79.9307 22.0158 77.856 24.9858 76.1555C32.4059 71.9682 39.2814 69.7996 43.8849 62.043C43.9639 61.856 43.7767 61.7769 43.6385 61.895C38.5223 69.6115 31.6026 71.5191 24.7003 75.6823L24.7694 75.6233ZM-6.42507 97.7294C-0.832489 101.258 3.77808 100.845 8.02083 98.5349C12.8628 98.462 13.4717 105.53 18.1546 106.669C21.132 107.352 24.0962 106.553 27.0453 105.946C27.8144 106.006 28.4304 106.376 29.2677 107.214C29.9868 107.915 30.3314 108.457 30.9865 109.152C31.4642 109.64 31.8779 110.123 32.4988 110.43C34.5389 111.555 37.1085 110.854 39.2145 110.31L39.2245 110.182C36.3344 110.858 33.6816 110.973 31.406 108.734C30.746 108.103 30.4314 107.176 29.7022 106.604C29.1604 106.111 28.5344 105.869 27.8985 105.755C29.9254 105.398 31.9372 105.233 34.0223 105.782C34.0864 105.787 34.0914 105.723 34.0323 105.654C31.2622 104.794 28.4912 104.77 25.6161 105.255C23.6584 105.553 21.6556 106.427 19.6687 106.272C13.7722 105.812 14.7812 102.799 12.7478 99.9345C11.7041 98.4359 10.5263 97.8287 9.24447 97.7287C9.65402 97.4386 10.0636 97.1485 10.4731 96.8584C16.2782 95.1859 21.4862 98.6842 27.2831 95.4652C28.1412 95.2102 29.0044 94.8911 29.9217 94.705C32.6145 94.0779 33.8255 95.9115 35.7275 97.155C37.8758 98.5465 40.6476 97.7323 42.8426 96.873C43.109 96.765 42.8826 96.3608 42.6854 96.4098C41.5658 96.7089 40.0317 97.3621 38.8189 97.2031C37.2166 97.078 35.9456 96.0126 34.7928 95.0853C34.1228 94.5821 33.7091 94.0989 32.8218 93.9008C31.619 93.6137 30.3763 93.8387 29.1826 94.2609C30.4753 93.3956 31.714 92.3973 33.0067 91.532C38.0544 87.9969 42.66 87.6478 48.5066 88.7483C48.6989 88.7633 48.852 88.4532 48.6006 88.3692C41.5613 86.8535 37.1621 87.8628 31.3053 91.8501C29.5339 93.0644 27.8167 94.4119 25.873 95.3552C25.6807 95.3402 25.5425 95.4582 25.3453 95.5072C25.3453 95.5072 25.2762 95.5662 25.2712 95.6302C24.8026 95.8513 24.3389 96.0084 23.8112 96.1604C20.7829 96.9546 18.3483 95.9272 15.41 95.569C14.1282 95.469 13.1718 95.3299 12.1954 95.4469C13.6463 94.2075 15.1071 92.8401 16.578 91.3446C19.7962 88.1175 22.8412 85.4567 27.5408 84.7285C30.4109 84.3084 33.3391 84.7947 36.2092 84.3746C41.6289 83.5094 44.3751 78.8928 48.9533 76.4161C49.0865 76.3621 48.9733 76.16 48.8401 76.214C42.9992 79.1719 39.9816 83.9605 32.7432 84.1684C30.1595 84.2244 27.7781 84.1673 25.4107 84.7555C27.9762 83.281 29.0393 80.4011 31.0188 78.1723C34.1928 74.6842 39.3185 76.759 43.349 74.6904C43.5513 74.5773 43.379 74.3062 43.1817 74.3553C40.2517 75.5436 37.9102 74.9744 34.912 75.3845C33.8074 75.4915 32.8801 75.8056 31.9919 76.4448C28.7847 78.7065 27.9962 83.025 24.3012 84.9265C24.3012 84.9265 24.3012 84.9265 24.2962 84.9906C23.6994 85.2016 23.1025 85.4127 22.4957 85.7518C18.7316 87.7124 15.9571 91.0385 12.774 93.8174C11.9449 94.5256 11.1899 95.1108 10.3708 95.691C11.9748 94.1415 13.2094 92.3699 14.0943 90.1201C14.9742 87.9344 15.2723 85.7676 16.3395 83.6609C14.136 87.9334 13.0562 92.68 9.48758 96.2662C4.54393 99.2941 -0.0957462 99.254 -6.32601 97.2862C-6.51828 97.2712 -6.59737 97.4582 -6.47418 97.5323L-6.42507 97.7294ZM61.769 18.8014C59.0459 10.7306 52.1271 11.8008 45.5047 12.3789C45.3224 12.2359 45.1201 12.3489 44.9869 12.4029C40.835 12.7229 36.8362 12.7328 34.0138 10.0649C31.6549 7.23985 29.3802 4.16375 30.3974 2.69726C30.5456 2.45118 30.1811 2.16507 30.0379 2.34713C28.9174 3.4835 29.6807 4.44485 30.3449 5.84935C30.8417 6.91873 31.4127 7.86507 32.0477 8.81641C32.0477 8.81641 32.0427 8.88042 32.1018 8.94945C32.1609 9.01847 32.22 9.0875 32.2791 9.15653C32.4564 9.3636 32.5646 9.6297 32.7419 9.83678C34.0511 12.0646 32.7325 14.0872 33.2526 16.5111C33.6746 18.5408 35.226 20.1434 35.2484 22.3351C35.2508 24.783 33.744 27.5639 33.2978 29.9767C32.9256 32.2665 32.9429 34.5223 33.1526 36.7931C33.1526 36.7931 33.2167 36.7981 33.1526 36.7931C33.032 34.2072 33.3401 31.9124 33.8455 29.5686C34.2142 30.628 35.1106 31.5353 35.9379 32.5017C38.489 35.3417 39.4519 38.7019 38.7084 42.4441C39.327 40.3024 39.2405 38.1057 38.5032 35.9869C37.4903 33.267 33.9869 31.0611 34.1577 28.0471C34.3558 27.1608 34.6181 26.2795 34.9494 25.3392C35.4639 23.7046 35.7562 22.4392 35.6297 20.7546C35.4133 20.2224 35.256 19.7593 35.0396 19.2271C34.5036 17.8326 34.0958 16.4481 33.688 15.0636C33.5857 13.8962 33.9961 12.7688 33.9579 11.6064L33.9679 11.4784C35.248 13.253 36.5972 14.9686 37.6701 16.9203C38.2751 18.2558 38.3824 19.3592 38.1534 21.4669C38.1285 21.787 37.9062 22.1561 37.8812 22.4762C37.8703 23.4416 37.9386 24.2198 38.2582 25.0821C39.792 29.3887 43.1863 32.1657 42.8606 37.1644C42.8556 37.2284 42.9888 37.1744 42.9888 37.1744C43.3119 34.6876 42.6827 32.8349 41.7971 30.9622C43.7032 32.979 45.7033 34.6166 48.088 36.2842C51.0836 38.386 51.811 40.6328 51.0875 44.119C50.7853 45.5125 50.488 46.8419 50.4422 48.2554C50.4372 48.3194 50.5704 48.2654 50.5704 48.2654C50.8252 45.0003 52.9097 41.4271 50.9604 38.312C49.9858 36.7544 48.3102 35.9151 46.9061 34.9037C44.8219 33.5172 42.9499 31.8896 41.3594 29.9619C40.7443 28.7545 40.0651 27.542 39.5241 26.2116C38.4963 23.6837 38.9426 21.2708 38.6147 18.862C40.0854 22.3262 41.4478 25.5244 44.5566 27.8282C50.0992 31.9968 60.5273 32.2311 60.064 41.4702C60.836 34.0587 53.8466 31.9028 48.4604 29.0347C42.6406 25.9395 41.279 21.9041 38.8337 16.8823C40.5816 19.2732 42.4277 22.0582 45.0155 22.7755C47.0365 23.3197 49.0884 22.6425 51.1843 22.2264C52.0799 23.971 53.6522 24.4802 55.545 25.0145C58.9511 25.9889 61.7894 27.6275 63.4673 30.9147L63.5314 30.9197C62.774 29.057 61.6121 27.4204 59.8974 26.256C57.5719 24.6574 53.3167 24.6473 51.9684 22.0944C52.6193 22.0164 53.2112 21.8693 53.8521 21.9194C58.615 22.0335 62.7634 25.0626 66.6363 27.4905C66.7595 27.5646 66.9027 27.3825 66.7795 27.3085C62.5229 24.0133 57.4822 20.8501 51.8852 21.5082L51.6929 21.4932C51.6929 21.4932 51.1852 21.3891 51.1061 21.5762C47.6542 22.0153 44.7891 22.3713 41.7303 19.4273C40.4152 18.1008 39.4897 16.7403 38.2337 15.4828C38.1205 15.2808 38.0123 15.0147 37.8991 14.8126C37.5004 14.1373 36.7371 13.176 35.7916 12.0716C38.5759 13.5772 41.9337 13.5172 45.3756 13.2062C46.4352 13.6754 46.9962 14.7498 47.9126 15.401C48.5235 15.8352 49.2085 16.1463 49.8986 16.3934C51.6532 17.0456 53.4578 17.0577 55.3115 17.2668C53.611 16.7476 51.7573 16.5385 50.0667 15.8912C48.4353 15.313 47.628 14.0905 46.4852 13.0352C52.723 12.4271 58.9218 11.4939 61.7149 18.6684C61.7149 18.6684 61.8431 18.6784 61.779 18.6734L61.769 18.8014ZM170.73 61.9605C170.535 60.3349 169.238 60.4269 167.715 60.1148C166.571 59.8967 165.417 59.8066 164.264 59.7166C164.264 59.7166 164.135 59.7066 164.071 59.7016C163.943 59.6916 163.879 59.6866 163.751 59.6766C163.495 59.6566 163.174 59.6315 162.918 59.6115C160.359 59.3474 159.503 57.0906 157.202 56.0092C155.334 55.1548 153.12 55.4329 151.351 54.1354C149.336 52.6899 148.013 49.8169 146.279 48.0712C144.668 46.3996 142.836 45.0971 140.86 43.9767C140.86 43.9767 140.795 43.9717 140.86 43.9767C143.003 45.4322 144.683 47.0448 146.283 48.8445C145.214 48.5034 143.912 48.6594 142.674 48.8204C138.907 49.1704 135.58 48.009 133.028 45.1689C133.028 45.1689 132.964 45.1639 133.028 45.1689C134.437 46.9536 136.211 48.1871 138.355 48.8053C141.194 49.6066 145.051 48.1042 147.352 50.0229C147.943 50.7132 148.529 51.4674 149.115 52.2217C150.168 53.5922 150.932 54.5535 152.41 55.4419C152.913 55.6099 153.485 55.719 153.987 55.8871C155.377 56.2532 156.757 56.7474 158.137 57.2416C159.123 57.8338 159.817 58.8542 160.803 59.4464L160.931 59.4564C158.732 59.5424 156.533 59.6284 154.299 59.3253C152.84 59.0181 151.919 58.4309 150.352 57.0204C150.111 56.8083 149.949 56.4092 149.707 56.1971C148.978 55.6249 148.298 55.2497 147.352 54.9826C143.004 53.6771 138.733 54.6964 134.915 51.5642C134.915 51.5642 134.787 51.5542 134.91 51.6282C136.708 53.3789 138.596 53.9771 140.627 54.3933C137.831 54.6903 135.325 55.3965 132.613 56.2798C129.17 57.4281 126.972 56.6768 124.534 54.0388C123.583 52.9985 122.697 51.9631 121.608 51.0408C121.608 51.0408 121.48 51.0308 121.603 51.1048C124.076 53.2946 125.719 57.0299 129.436 57.3201C131.231 57.4602 132.908 56.6249 134.565 56.0457C136.953 55.2015 139.315 54.6774 141.845 54.4883C143.181 54.7214 144.522 54.8905 145.981 55.1977C148.638 55.856 150.366 57.6656 152.471 58.796C148.798 57.9297 145.446 57.0883 141.683 58.2116C135.079 60.2082 128.695 68.4699 121.478 62.6247C121.478 62.6247 121.413 62.6197 121.478 62.6247C126.955 67.6256 132.842 63.2542 138.333 60.6554C144.297 57.7715 148.383 59.1211 153.855 60.0635C150.886 60.0895 147.549 59.8933 145.422 61.5308C143.774 62.8193 143.096 64.892 142.236 66.8216C140.328 66.4795 138.961 67.4678 137.387 68.6331C134.575 70.7968 131.635 72.1132 127.942 71.503L127.937 71.567C129.899 72.0422 131.896 72.0692 133.82 71.382C136.468 70.4938 139.061 67.0246 141.866 67.4368C141.564 67.993 141.263 68.5492 140.902 69.0363C137.965 72.8006 133.072 74.351 128.815 76.0155C128.682 76.0695 128.795 76.2716 128.928 76.2176C134.137 74.7562 139.597 72.5415 142.432 67.6099L142.447 67.4178C142.832 67.4478 142.921 67.1327 142.813 66.8666C144.532 63.8446 145.89 61.3098 150.072 60.6056C151.902 60.2975 153.568 60.4276 155.334 60.1146C155.59 60.1346 155.847 60.1546 156.103 60.1746C156.872 60.2346 158.1 60.2016 159.589 60.1246C156.708 61.5101 154.753 64.256 152.98 67.1449C151.968 67.7101 150.755 67.551 149.695 67.9191C148.97 68.1202 148.294 68.5183 147.682 68.9214C146.118 69.9588 145.037 71.4203 143.773 72.7387C145.15 71.6223 146.478 70.3089 147.973 69.3306C149.404 68.3473 150.883 68.3983 152.387 68.1293C149.191 73.5481 146.247 79.0509 138.863 76.9931C138.863 76.9931 138.794 77.0521 138.853 77.1211C146.971 79.6872 150.162 73.4951 153.635 67.8402C153.837 67.7271 153.911 67.6041 153.926 67.412C156.134 63.9129 158.449 60.6798 162.311 59.9506C165.94 59.7186 169.811 59.6987 170.45 61.4233C170.558 61.6894 171.017 61.5964 170.973 61.3353L170.73 61.9605ZM5.93132 36.0853C5.56176 35.8632 5.26041 36.4194 5.56588 36.6365C8.08875 38.1861 9.68194 37.6019 12.4329 37.8811C19.8477 38.7175 23.2444 43.9424 28.1702 48.5781C32.3078 52.5725 36.9781 56.3509 43.0437 55.4717C43.1718 55.4817 43.1277 55.2207 43.0587 55.2797C34.7448 56.0478 29.0575 48.7761 23.4867 43.3171C24.5904 44.0474 25.6941 44.7777 26.8819 45.2569C29.1883 46.2743 31.762 46.3464 33.9894 47.5508C37.1382 49.3425 39.0925 52.3936 42.864 52.8168C43.0563 52.8318 43.0763 52.5757 42.884 52.5607C38.852 51.3442 36.5972 48.012 32.8516 46.4314C31.4765 45.8732 30.0024 45.7581 28.6124 45.392C26.4041 44.7687 24.4872 43.7173 22.5802 42.5379C22.0975 42.1137 21.6788 41.6945 21.1961 41.2704C19.5655 39.8549 17.8708 38.4344 15.7958 37.7571C12.587 36.7337 8.87785 37.99 5.79814 36.1393L5.93132 36.0853ZM-1.32479 57.9987C-2.11802 57.4215 -3.00208 58.834 -2.13476 59.2882C0.0335285 60.4236 2.2077 60.6577 4.36774 60.2466C5.26004 60.3807 6.09825 60.3817 6.99555 60.4517C9.51342 62.0654 11.9431 63.1568 13.4637 65.9808C14.0788 67.1882 14.3634 68.4987 15.2498 69.534C16.7222 71.3237 19.0195 71.6318 21.1405 70.8956C21.2046 70.9006 21.1505 70.7676 21.1505 70.7676C17.6636 71.6548 15.7085 69.441 14.4542 66.509C14.0164 65.5086 13.6377 64.5773 12.9977 63.69C11.8849 62.2505 10.2393 61.027 8.47471 60.5028C8.47471 60.5028 8.60288 60.5128 8.66698 60.5178C11.1025 60.7079 13.0935 61.6363 15.2668 62.7077C17.0655 63.621 18.5538 64.3813 20.3842 63.236C17.4142 64.9365 14.2622 61.5343 11.428 60.6689C9.47607 60.0657 7.40011 60.2257 5.35413 60.0015C6.14823 59.7415 6.94734 59.4174 7.75643 58.9652C9.91235 57.7809 11.5073 55.5221 13.7173 54.4708C18.0042 52.4222 22.449 54.9591 25.9423 57.293C23.0699 55.2653 19.8229 53.0794 16.1196 53.4345C9.56127 54.0176 6.20883 63.0956 -1.26068 58.0037L-1.32479 57.9987ZM161.773 93.2741C159.531 92.2617 157.352 92.0916 155.236 92.7638C154.338 92.6938 153.505 92.6287 152.662 92.6917C150.065 91.2652 147.566 90.2328 145.902 87.5909C145.218 86.4424 144.87 85.127 143.914 84.1506C142.304 82.479 140.06 82.3039 137.998 83.1092C137.934 83.1042 137.988 83.2372 137.988 83.2372C141.362 82.1479 143.52 84.2487 144.912 87.0627C145.35 88.063 145.798 88.9353 146.571 89.7686C147.753 91.1491 149.472 92.2495 151.242 92.7097L151.05 92.6947C148.604 92.6326 146.539 91.8273 144.356 90.884C142.552 90.0346 140.926 89.3924 139.213 90.6758C142.07 88.7732 145.424 92.0624 148.338 92.7407C150.364 93.2209 152.386 92.9278 154.437 93.0879C153.637 93.412 152.833 93.8001 152.088 94.2573C149.987 95.5747 148.515 97.9075 146.364 99.0278C142.19 101.279 137.656 99.0567 134.02 96.9048C136.966 98.8096 140.362 100.749 144.016 100.197C150.54 99.225 153.326 89.9738 161.15 94.6426C162.013 95.1608 162.769 93.7383 161.896 93.3482L161.773 93.2741ZM117.557 25.2818C117.557 25.2818 117.223 24.6115 117.124 24.2174C117.223 24.6115 117.326 24.9417 117.424 25.3358C117.419 25.3998 117.616 25.3508 117.552 25.3458L117.557 25.2818ZM117.124 24.2174C116.977 23.6262 116.835 22.971 116.757 22.3207C116.835 22.971 116.918 23.5572 117.124 24.2174ZM124.837 36.929C126.555 30.6218 125.477 24.6117 121.562 19.4108C119.809 17.084 117.711 15.0523 115.682 12.9615C112.283 9.4112 110.339 6.23207 108.164 1.87552C108.038 0.190935 107.921 -1.6217 107.987 -3.29128C108.14 -3.60138 108.288 -3.84746 108.442 -4.15756C108.59 -4.40365 108.284 -4.62072 108.087 -4.57171C108.311 -6.61541 108.959 -8.30399 110.316 -9.16426C110.789 -9.44935 110.262 -10.1346 109.853 -9.8445C107.613 -8.40904 107.65 -6.40936 107.583 -3.9025C107.144 -3.22827 106.763 -2.48502 106.388 -1.8058C106.265 -1.87982 106.137 -1.88983 106.068 -1.83081C103.564 2.16052 100.351 4.48626 95.6908 5.53953C93.4566 6.07367 91.0652 6.14465 88.9884 7.14195C85.6438 8.68442 83.2839 11.6564 82.3631 15.1916C83.7234 10.9822 87.0447 8.08524 91.1925 6.99195C93.4957 6.39879 95.759 6.3178 98.0131 5.52757C100.267 4.73734 102.423 3.55298 104.096 1.94446C102.63 4.21321 100.98 6.33891 98.6123 7.76435C95.2228 9.88302 91.4695 10.8783 88.3605 13.5341C88.3605 13.5341 88.3505 13.6622 88.4196 13.6032C92.1254 10.7363 96.9483 10.0821 100.649 7.27922C103.733 4.94348 105.655 0.971153 107.478 -2.55803C107.422 -0.179209 107.434 2.14059 107.387 4.39137C106.209 8.74385 103.982 12.4991 101 16.0022C97.9492 19.5644 94.2509 19.8554 90.3686 21.678C86.1558 23.6036 83.3572 26.4125 80.4937 30.0537C80.4246 30.1127 80.5428 30.2508 80.6119 30.1917C85.2427 24.5629 88.4091 23.6506 95.0482 21.2059C97.1742 20.4057 98.7083 19.7525 100.381 18.144C103.106 15.4581 105.565 12.043 107.137 8.42975L107.225 8.95194C106.851 12.9163 105.841 16.7666 103.214 20.6839C100.439 24.8473 96.1708 27.4771 93.1591 31.3644L93.1691 31.2364C93.1691 31.2364 92.9327 30.9603 92.8536 31.1473C90.6201 35.8039 85.2736 37.3833 82.5424 41.8078C80.6952 44.8198 79.6462 48.345 79.5045 51.8122C79.4945 51.9402 79.6868 51.9552 79.6968 51.8272C80.7925 46.0512 82.1737 40.7484 87.3446 37.2873C88.7064 36.363 89.9842 35.6898 91.0255 34.7405C89.1133 38.5848 88.2067 42.7652 87.8078 47.0497C87.8078 47.0497 87.8078 47.0497 87.8718 47.0547C89.1816 39.3631 91.4559 33.3571 96.994 27.6702C99.8667 24.7382 102.65 22.1214 104.671 18.5432C106.019 16.1364 106.978 13.7636 107.563 11.2327C108.136 14.6269 108.833 18.0951 108.76 21.5033C108.683 24.1382 107.991 26.403 106.923 28.5097C104.727 31.0435 100.416 32.575 98.2239 35.0448C95.953 37.7016 94.6877 40.6947 94.2896 44.1418L94.3537 44.1468C95.4785 38.824 98.422 34.1585 103.213 31.4406C104.362 30.7574 105.497 30.2663 106.395 29.499C105.125 31.7188 103.604 33.8545 102.133 36.1872C99.7669 40.0605 98.1952 43.6737 99.655 48.1033C99.65 48.1673 99.7831 48.1133 99.7831 48.1133C97.89 38.497 106.291 34.1286 108.8 25.9508C109.141 24.8825 109.29 23.7991 109.375 22.7107C111.076 27.3524 115.086 30.4995 113.788 36.3885C112.61 41.5783 107.553 44.4042 106.872 49.826C106.867 49.8901 106.995 49.9001 107 49.8361C108.12 43.74 114.637 40.3839 114.812 34.0207C114.98 28.5589 110.388 25.4307 109.555 20.4059C109.445 16.8547 108.641 13.1204 107.87 9.77524C108.078 8.76089 108.163 7.67252 108.248 6.58414C108.283 6.13599 108.323 5.62381 108.299 5.10664C108.319 4.85055 108.398 4.66348 108.482 4.4124C109.824 7.86662 112.755 10.8007 115.326 13.3846C117.055 15.1943 118.725 16.9349 120.128 18.7836C119.978 20.7042 118.946 22.3628 118.732 24.2785C118.687 24.8547 118.647 25.3668 118.671 25.884C118.746 24.9237 118.821 23.9634 119.019 23.0771C119.39 21.6246 120.136 20.3301 120.256 18.7936C124.181 23.8664 126.517 29.4594 124.783 36.7959C124.773 36.9239 124.902 36.9339 124.912 36.8059L124.837 36.929ZM78.3499 137.648C77.7655 140.179 79.1788 141.899 80.9916 143.458C83.8982 145.875 86.5933 147.695 87.8126 151.076C87.9531 153.405 87.5069 155.818 86.3456 158.304C85.3374 160.48 84.2411 162.133 83.8639 164.487C83.8289 164.935 84.4699 164.985 84.5049 164.537C85.1993 160.598 87.436 157.552 88.1645 154.002C88.1645 154.002 88.2927 154.012 88.3027 153.884C89.1144 150.92 91.8472 149.78 93.393 147.324C94.5684 145.484 94.4179 143.282 94.2573 141.208C94.2623 141.144 94.1292 141.198 94.1292 141.198C94.2206 143.331 94.3021 145.592 92.9344 147.417C92.2135 148.392 91.128 149.08 90.2249 149.911C89.6031 150.442 89.0403 151.043 88.6649 151.722C88.6458 151.141 88.4935 150.613 88.3362 150.15C88.3612 149.83 88.258 149.5 88.2189 149.175C88.2289 149.047 88.1698 148.978 88.1157 148.845C88.1798 148.85 88.3079 148.86 88.3179 148.732C88.11 144.786 90.8787 142.362 89.9607 138.425C89.2833 135.538 88.0632 132.995 86.4485 130.551C88.2646 133.72 90.7249 138.549 89.6609 142.267C88.9632 144.595 87.7637 145.919 88.0275 148.323C86.3231 142.07 81.2591 137.553 81.937 130.52L81.8729 130.515C81.1477 135.676 83.5797 139.215 85.7445 143.7C86.5268 145.243 87.0528 146.765 87.3865 148.273C84.5158 144.57 78.2806 142.667 78.4831 137.594C78.4931 137.466 78.3649 137.456 78.2908 137.579L78.3499 137.648ZM66.4044 155.202C65.4645 158.156 63.0114 160.669 61.1451 163.1C61.0019 163.282 61.2482 163.43 61.3864 163.312C63.405 161.409 65.2514 159.234 66.4127 156.748C66.4767 156.753 66.6049 156.763 66.6099 156.699C67.2052 153.203 70.0962 151.689 71.6129 148.781C72.522 147.048 72.5978 145.25 72.1659 143.349C72.1759 143.221 71.9736 143.334 71.9736 143.334C72.7534 147.388 70.4634 149.464 68.1134 152.308C67.8321 152.608 67.6098 152.977 67.3925 153.282C68.2369 147.422 66.1903 143.075 70.9634 138.102C70.9634 138.102 70.9734 137.974 70.9043 138.033C68.8707 140.128 67.3989 142.461 66.9126 145.386C66.4014 148.631 67.3693 151.928 66.3453 155.133L66.4044 155.202ZM14.1099 127.094C14.1099 127.094 14.0849 127.414 14.2822 127.365C15.8804 126.717 17.3354 126.251 18.6873 125.454C18.6873 125.454 18.7514 125.459 18.8154 125.464C21.3351 125.403 24.1219 124.397 25.9383 122.607C27.1278 121.411 27.9578 119.866 29.1473 118.67C30.7613 116.993 32.7641 116.118 34.9491 115.387C35.0132 115.392 34.9591 115.259 34.9591 115.259C32.2963 115.502 29.9281 116.928 28.1609 118.915C26.7491 120.48 25.761 122.4 23.8123 123.407C22.6037 124.021 21.2968 124.241 19.985 124.525C20.5377 124.053 21.1004 123.453 21.545 122.715C24.1771 118.733 25.4134 115.287 29.9716 113.066C30.1048 113.012 29.9916 112.81 29.8584 112.864C26.8152 113.851 24.6684 115.744 23.1025 118.456C21.9812 120.43 21.1454 122.877 19.2849 124.406C17.7009 125.699 15.6199 125.924 13.9817 127.084L14.1099 127.094ZM75.8575 26.6644C75.6037 24.1326 75.6754 21.5617 76.2599 19.0308C76.463 18.0805 76.9275 17.0861 77.0025 16.1258C77.1624 14.0771 75.8232 12.2335 75.3222 10.3908C75.6636 9.32244 75.8817 8.18005 75.9076 7.02265C75.8478 2.8312 73.8794 -0.865109 71.6988 -4.32034C74.8308 -0.66202 80.6865 1.14772 80.9618 6.70865C80.9518 6.83669 81.1441 6.8517 81.1541 6.72366C81.3783 -0.279755 72.0857 -1.84249 70.174 -7.91762C70.1249 -8.11469 69.8636 -8.07068 69.8486 -7.87861C69.9859 -7.15936 70.2614 -6.55814 70.5369 -5.95693C70.2905 -6.10499 69.8809 -5.8149 70.1173 -5.5388C71.3824 -3.57209 72.6376 -1.47735 73.6313 0.661413C73.5996 2.72012 73.8833 4.86787 73.467 6.89656C72.9417 9.49645 71.3426 10.9819 69.7035 12.9796C68.1286 14.9822 67.3127 17.173 66.9256 19.6548C67.3677 16.4687 68.6572 13.9929 70.8981 11.7202C71.7371 10.8839 72.6303 10.1807 73.1639 9.12733C74.3052 6.89758 74.0765 4.04558 73.8868 1.51871C74.1523 2.24797 74.4178 2.97722 74.6192 3.70148C75.8126 8.23907 74.1277 11.6502 72.3387 15.5685C71.1033 18.1774 70.6821 20.2701 71.9563 22.9461L72.0204 22.9511C70.6838 18.5955 73.6115 14.9593 75.085 10.952C75.1732 11.4742 75.3255 12.0014 75.5419 12.5336C76.2743 14.7163 76.5439 16.2188 75.9153 18.4886C75.1827 21.2656 75.101 23.9645 75.5861 26.8365C75.5761 26.9645 75.7784 26.8515 75.7784 26.8515L75.8575 26.6644ZM122.418 115.838C122.896 116.326 123.443 116.755 123.935 117.052C123.383 116.686 122.896 116.326 122.418 115.838ZM120.64 113.831C121.162 114.581 121.817 115.276 122.418 115.838C121.817 115.276 121.29 114.591 120.714 113.708C120.719 113.644 120.522 113.693 120.581 113.762L120.64 113.831ZM147.45 121.464C147.45 121.464 147.706 121.484 147.785 121.297L147.903 121.435C149.691 123.313 150.849 124.177 153.388 124.697C153.901 124.737 154.148 124.048 153.64 123.944C148.617 123.036 145.351 115.309 140.842 112.767C135.219 109.623 128.022 108.482 126.072 101.244C126.077 101.18 125.944 101.234 125.944 101.234C127.181 106.033 130.808 108.313 135.095 110.387C137.954 111.769 140.645 112.816 143.059 114.937C144.99 116.634 145.904 118.96 147.5 120.823C144.825 118.747 141.823 117.546 138.416 117.409C138.416 117.409 138.421 117.345 138.357 117.34C134.867 116.617 133.159 113.714 130.617 111.583C128.922 110.162 127.075 109.052 125.079 108.188C128.366 109.861 130.839 112.051 133.341 114.694C134.532 115.946 135.739 117.007 137.381 117.457C132.539 117.53 128.065 119.5 124.192 117.072C125.724 118.093 127.479 118.745 129.545 118.713C131.931 118.706 134.195 117.788 136.587 117.717C140.793 117.53 144.287 119.027 147.706 121.484L147.45 121.464ZM131.595 133.753L131.575 134.009C131.575 134.009 131.821 134.157 131.831 134.029C135.112 136.604 136.139 139.969 136.45 144.244C136.43 144.5 136.879 144.535 136.899 144.279C137.293 140.059 136.384 136.832 133.049 134.124C132.685 133.838 132.32 133.551 131.95 133.329C132.36 128.08 126.48 125.753 123.935 122.011C123.935 122.011 123.807 122.001 123.871 122.006C125.077 123.904 126.787 125.132 128.407 126.676C130.387 128.57 131.007 130.55 131.463 132.969C129.679 131.864 127.683 130.999 125.899 129.894C122.08 127.599 119.983 124.73 118.567 120.562C118.577 120.434 118.375 120.547 118.375 120.547C118.731 124.246 120.779 126.918 123.711 129.015C125.972 130.608 128.599 131.651 130.866 133.18C131.112 133.328 131.354 133.54 131.595 133.753ZM138.875 37.1873C139.977 34.6324 141.891 34.0733 140.962 31.1023C140.288 28.9885 138.821 27.1348 138.409 24.9771C139.64 22.4322 141.289 20.3065 144.214 19.1822C144.613 19.0202 144.269 18.478 144.002 18.586C141.389 19.0261 139.725 20.5066 138.476 22.4702C138.486 22.3422 138.491 22.2782 138.501 22.1501C138.516 21.958 138.329 21.879 138.255 22.0021C137.756 22.6073 137.642 23.2425 137.656 23.8877C137.186 24.9461 136.717 26.0044 136.366 27.2008C134.821 28.8193 132.532 29.2204 130.456 30.2177C128.709 31.112 127.446 32.4304 126.536 34.163C126.536 34.163 126.532 34.227 126.536 34.163C128.127 31.131 130.766 30.3708 133.76 29.1874C134.623 28.8684 135.368 28.4112 136.054 27.885C134.867 31.5283 133.734 35.3046 131.237 37.5573C124.935 43.1201 116.575 40.342 114.637 50.3034C114.637 50.3034 114.696 50.3724 114.701 50.3084C117.089 39.5447 126.537 43.2452 132.356 37.2582C133.131 36.4169 133.783 35.5016 134.376 34.5173C134.168 35.5317 134.029 36.487 133.687 37.5553C132.797 40.7064 130.758 42.8661 127.882 44.1875C125.277 45.3369 122.63 45.3878 121.069 48.0357C121.064 48.0997 121.123 48.1687 121.197 48.0457C123.848 44.6456 129.089 45.2479 131.997 41.8678C134.331 39.2159 134.192 36.0488 135.147 32.9028C136.234 30.54 137.016 27.9601 138.034 25.6563C138.191 26.1195 138.407 26.6517 138.629 27.1198C139.229 28.5193 140.824 30.383 140.892 31.9986C140.939 33.8702 139.389 35.5528 138.677 37.2363C138.672 37.3003 138.737 37.3053 138.806 37.2463L138.875 37.1873ZM159.543 108.623C157.399 108.005 155.284 107.84 153.124 108.251C148.937 109.019 145.538 110.429 142.16 106.622C143.632 108.412 145.603 109.596 147.99 109.589C149.474 109.577 150.742 109.031 152.187 108.693C154.746 108.12 157.059 108.236 159.523 108.879C159.716 108.894 159.8 108.643 159.543 108.623ZM167.166 75.4021C167.166 75.4021 167.004 75.0029 166.866 75.121C165.341 76.4834 163.658 77.3827 161.528 77.4097C160.306 77.3786 159.167 77.0965 157.939 77.1295C156.391 77.1375 155.069 77.5496 154.072 78.76C156.466 76.1771 159.92 78.1859 162.849 77.8348C164.546 77.5808 166.026 76.7945 167.097 75.4611L167.166 75.4021ZM154.72 34.1086C157.275 32.7621 159.23 30.8535 160.894 28.5358C160.968 28.4127 160.786 28.2697 160.712 28.3927C157.068 32.9392 153.024 34.3626 147.677 35.9421C144.58 36.7953 143.784 38.7299 143.485 41.734C144.483 35.5639 150.413 36.4133 154.656 34.1036L154.72 34.1086ZM119.456 138.087C120.84 139.354 122.363 140.504 123.609 141.889C125.559 144.167 126.02 146.522 126.115 149.428C126.085 149.812 126.726 149.862 126.756 149.478C127.796 140.284 116.068 138.531 114.903 130.324C114.913 130.196 114.716 130.245 114.711 130.309C115.038 133.555 117.042 135.966 119.456 138.087ZM-14.3036 83.0081C-15.9401 82.4939 -17.0888 82.3398 -18.8002 82.7859C-19.0615 82.8299 -19.0324 83.2831 -18.771 83.2391C-13.5836 82.8711 -9.58838 86.2103 -4.20782 85.02C-3.87736 84.917 -3.54689 84.8139 -3.21643 84.7109C0.698236 84.9521 5.07654 85.0362 8.7407 84.356C12.5381 83.6218 12.892 79.9136 15.3992 77.5328C15.3992 77.5328 15.4042 77.4688 15.3992 77.5328C14.2988 78.4131 13.7161 79.2694 12.9802 80.4358C11.4394 82.8276 9.87027 83.9289 6.9611 84.0239C4.18012 84.1289 1.35002 84.0368 -1.49505 84.1367C2.71771 82.2112 5.97083 78.536 10.4541 77.2756C5.10852 78.0178 1.57817 82.7663 -3.6251 84.1637C-3.82238 84.2127 -4.01966 84.2618 -4.21693 84.3108C-4.34512 84.3008 -4.47331 84.2908 -4.6015 84.2807C-4.66559 84.2757 -4.72969 84.2707 -4.73968 84.3988C-8.14248 85.0349 -10.9126 84.1746 -14.3136 83.1361L-14.3036 83.0081ZM-11.8609 71.5402C-11.8609 71.5402 -12.1322 71.7123 -11.945 71.7913C-8.79616 73.583 -5.11876 74.3853 -1.98058 72.1826C0.205327 70.6141 1.22846 68.2463 4.50719 68.3734C7.145 68.4505 8.32104 70.7323 10.213 72.1038C11.6762 73.1842 12.3563 73.5594 14.1708 73.4434C14.2349 73.4484 14.2449 73.3203 14.1808 73.3153C9.54616 73.2112 8.03406 66.974 3.04805 68.0663C1.40575 68.4534 0.615748 69.4867 -0.681976 70.416C-4.59014 73.396 -7.6716 73.2199 -11.7968 71.5452L-11.8609 71.5402ZM12.0644 17.8201C12.0644 17.8201 11.7389 17.8591 11.8571 17.9972C14.6196 21.4334 17.9807 22.984 19.3513 27.7287C20.1178 30.3006 20.2634 32.5664 21.5576 34.9862C24.0429 39.4958 28.1372 42.3919 32.9924 43.8015C26.7522 41.9617 23.0091 37.8693 20.9193 32.4243C21.5153 33.0506 22.2644 33.3667 23.2849 33.5108C25.1336 33.7839 26.5686 33.5739 28.2192 34.7333C29.6284 35.6806 30.578 37.5583 30.9708 39.1349C30.5439 37.1692 29.3329 35.3355 27.6873 34.1121C25.549 32.5925 22.0713 34.189 20.5947 31.6261C20.1769 30.3696 19.8283 29.0542 19.5486 27.6797C18.4352 22.1177 15.6151 21.8976 12.0003 17.8151L12.0644 17.8201ZM21.8217 13.4288C21.8217 13.4288 21.6935 13.4188 21.7526 13.4878C24.7124 16.875 27.9086 20.5384 28.4461 25.218C28.4411 25.282 28.5742 25.228 28.5742 25.228C28.244 20.3713 25.107 16.777 21.8217 13.4288ZM20.312 9.63945L20.1156 8.85118L20.312 9.63945ZM62.2538 12.5913C58.2994 7.90261 61.3719 2.40978 61.1408 -2.89006L61.1508 -3.0181C61.1508 -3.0181 61.1508 -3.0181 61.1558 -3.08213C61.1658 -3.21017 61.1758 -3.33821 61.1908 -3.53028C60.8247 -7.10152 58.9895 -10.8519 57.563 -14.055C57.4548 -14.3211 56.9861 -14.1 57.0352 -13.903C58.0431 -11.119 59.5046 -8.36399 60.3152 -5.531C60.6148 -4.4126 60.7221 -3.30922 60.7013 -2.21584C59.0896 1.90955 51.9327 4.37826 53.9734 9.62611C53.9734 9.62611 54.1016 9.63612 54.0375 9.63112C52.0067 4.25522 58.67 2.32769 60.6413 -1.44757C60.5264 0.0249341 60.3473 1.49244 60.1042 2.95494C59.6321 6.52517 59.5645 9.86932 62.0515 12.7043C62.1697 12.8424 62.3079 12.7244 62.1947 12.5223L62.2538 12.5913Z" fill="url(#paint1_radial_102_70)"/>
</g>
<defs>
<radialGradient id="paint0_radial_102_70" cx="0" cy="0" r="1" gradientUnits="userSpaceOnUse" gradientTransform="translate(70.5726 55.3181) rotate(-161.232) scale(95.204 95.1115)">
<stop stop-color="white"/>
<stop offset="0.41" stop-color="#A7A39E"/>
<stop offset="0.82" stop-color="#574F45"/>
<stop offset="1" stop-color="#382F23"/>
</radialGradient>
<radialGradient id="paint1_radial_102_70" cx="0" cy="0" r="1" gradientUnits="userSpaceOnUse" gradientTransform="translate(76.4923 76.237) rotate(17.1598) scale(90.6411 90.5505)">
<stop offset="0.47" stop-color="#FF0000"/>
<stop offset="1" stop-color="#FF8879"/>
</radialGradient>
</defs>
</svg>
