<svg width="102" height="102" viewBox="0 0 102 102" fill="none" xmlns="http://www.w3.org/2000/svg">
<path style="mix-blend-mode:multiply" d="M77.469 89.4241C56.0543 104.072 26.7544 98.6121 12.0863 77.2182C-2.58184 55.8244 2.87953 26.5574 24.2943 11.909C45.709 -2.73936 75.009 2.72109 89.6771 24.1149C104.345 45.5088 98.8838 74.7757 77.469 89.4241Z" fill="url(#paint0_radial_271_1194)"/>
<path style="mix-blend-mode:screen" d="M89.1964 30.273C64.9134 39.0308 61.4881 40.2746 89.951 33.203C61.7468 41.8059 65.4307 42.0934 91.3419 41.5471C65.3897 42.6191 61.7399 42.8631 91.1592 44.8573C61.86 44.2325 65.7108 45.2886 90.5457 50.7783C65.6121 45.5831 61.732 44.9025 89.327 54.7632C60.9323 46.4267 64.0878 48.6375 86.2716 61.9291C63.8213 49.1456 60.405 47.3678 83.8041 65.4387C59.7908 48.4532 62.587 51.3915 80.8679 69.1384C62.2687 51.5933 59.2987 48.9436 76.6537 72.7383C57.7247 49.7274 59.1959 53.1667 71.0627 76.533C58.7155 53.507 56.7698 50.3329 65.67 78.7565C55.6704 50.8515 56.4415 54.5384 62.3317 79.8559C56.0539 54.6592 54.9009 51.0182 55.6044 80.7664C53.328 50.8198 52.8387 54.1816 50.4511 80.893C52.3007 54.2907 52.1886 50.882 43.5178 79.5962C50.9857 50.7881 49.9007 54.0278 41.4362 79.1315C49.5248 53.9985 50.3149 50.6602 35.0079 76.212C49.1706 49.8153 47.2304 52.3838 32.0368 74.5445C46.7969 52.1233 48.2284 49.2884 26.2237 69.5574C47.2169 48.6806 44.7798 50.8325 24.9584 68.3253C44.5718 50.5896 46.7259 48.1889 21.0023 62.8032C46.1372 47.0096 43.3886 48.3062 19.5242 60.4211C43.0478 47.8262 45.606 46.0615 16.7038 52.9476C44.867 44.8705 41.7201 45.456 15.9834 50.5492C41.599 45.0687 44.6942 44.177 15.3881 44.6094C44.7128 42.9696 41.6304 42.729 15.2408 41.6512C41.6773 42.1282 44.7256 41.8372 16.3298 34.4829C44.7618 40.4045 41.7438 39.3378 17.114 31.2197C41.8483 38.9682 44.9649 39.7403 18.8766 27.0506C45.5615 38.8802 42.9722 37.167 20.4067 23.9212C43.314 36.6648 46.0888 37.9392 23.9629 19.061C46.8592 36.7904 44.7855 34.2863 26.9509 15.6676C45.0286 34.0787 47.3572 36.2249 29.5384 13.5273C48.3063 35.6945 46.9268 33.0179 33.3122 10.7241C47.4013 32.7528 49.2495 35.2392 37.7217 8.49943C50.5168 34.5071 49.9302 31.3635 43.2589 6.36277C50.393 31.2485 51.2921 34.2654 45.6422 5.86881C52.4257 34.2783 52.6543 31.3495 51.8374 4.9924C53.1864 31.3154 53.4841 34.2854 55.3075 5.11216C54.768 34.31 55.8295 31.3707 61.8999 5.92898C56.1244 31.4692 55.5081 34.5189 63.3743 6.42183C56.4503 35.0458 58.078 32.6039 70.2137 8.92015C58.5116 32.8644 57.3173 35.5668 72.3812 10.2227C58.4098 36.1054 60.7718 33.9476 78.0509 14.1408C60.9798 34.1905 58.9009 36.5971 79.3855 15.4539C59.8079 37.5745 62.7245 36.0644 84.7348 21.5381C62.99 36.5385 60.3449 38.4475 86.1319 23.9893C61.2461 39.5001 64.723 38.5626 89.1271 30.192L89.1964 30.273Z" fill="url(#paint1_radial_271_1194)"/>
<path style="mix-blend-mode:screen" opacity="0.3" d="M78.1056 89.0204C75.6756 84.2974 73.6381 80.3605 72.0682 77.2158C73.8812 80.1529 76.156 83.9571 78.8291 88.4724C74.5744 80.9625 71.584 75.6669 69.7134 72.4986C65.8415 63.9608 69.3427 67.5586 82.8754 85.086L83.0375 84.9476C64.84 59.3493 66.3767 60.9804 84.1897 83.753L84.2649 83.7589C72.4768 68.1054 68.3304 62.1151 73.7852 66.8476C75.7203 69.1897 80.0239 74.1346 86.3437 81.3523C81.2775 75.5168 77.5343 71.1447 75.4089 68.3343C78.0206 70.7293 82.0245 74.6685 87.4266 80.0768C80.4302 72.8063 76.0103 68.3813 73.9708 66.4087C71.0545 62.1011 75.7185 65.3363 89.7954 76.8617L89.9634 76.6482C68.3121 57.5048 69.965 58.6161 90.7338 75.4994L90.7455 75.3492C72.5202 59.7977 69.8167 56.64 87.8051 66.5064C89.5332 67.6235 91.4811 68.8334 93.6486 70.1359C92.3598 69.2042 91.1345 68.4285 89.9843 67.6587C91.1403 68.3534 92.4467 69.0598 93.7531 69.7662L93.7706 69.5409C89.1525 66.6871 85.54 64.5163 82.8638 62.9474C73.7437 56.7199 76.9472 57.3478 95.458 65.366L95.4815 65.0656C71.7804 53.7711 73.3875 54.501 95.6553 64.777L95.667 64.6268C78.903 56.5182 74.1979 53.8087 84.2877 56.3341C87.0801 57.3832 91.1964 58.9134 96.7119 60.9305C92.4569 59.2384 89.0055 57.9112 86.3635 56.8739C89.1041 57.6167 92.579 58.6435 96.9385 59.966L96.9502 59.8158C89.7173 57.5135 84.9243 55.9304 82.4092 55.2052C77.5245 52.8595 81.9484 53.3559 97.4972 56.6852L97.5206 56.3848C73.8485 50.5325 75.4908 50.8118 97.5616 55.8591L97.5792 55.6338C75.7749 50.0785 74.1454 48.6668 97.8168 49.6835L97.8461 49.308C75.529 47.4148 77.2582 47.5498 97.7885 49.0768L97.8002 48.9266C77.3627 47.1802 75.6052 46.4386 97.5436 45.431C97.5553 45.2808 97.5671 45.1306 97.5036 44.9746C76.7809 44.9437 75.1103 44.0577 96.7217 40.4558L96.7452 40.1554C94.9115 40.39 93.3093 40.5672 91.8515 40.8312C77.6568 42.4432 77.8599 41.779 95.8978 37.4448L95.9213 37.1444C75.1593 41.4927 76.4725 41.1418 95.7192 36.8264L95.7426 36.526C76.2363 40.2923 74.473 39.6258 93.6485 31.3759C93.5851 31.2198 93.4523 30.9828 93.3888 30.8267C74.9378 37.5465 76.2052 36.8143 92.8001 29.6475L92.8119 29.4973C76.09 36.352 74.563 36.535 91.611 27.4391L91.4783 27.2021C73.528 36.2275 74.6392 35.5587 91.2762 26.8841L91.1434 26.647C74.3912 34.8594 72.8124 34.7361 88.7758 23.0622C88.7124 22.9062 88.5679 22.8193 88.4292 22.6574C72.8027 32.922 73.7869 31.9411 87.7419 21.7726C73.7294 31.7099 72.3985 32.286 86.708 20.483L86.5694 20.3211C71.3343 32.3541 72.1564 31.5116 86.1534 19.8353L85.9455 19.5924C71.5208 30.9331 69.8434 31.1044 82.6523 16.2376C82.5137 16.0756 82.2999 15.9078 82.086 15.74C69.0936 29.0814 69.5809 27.6839 80.2427 14.1606L80.0923 14.1489C69.2284 27.3542 68.169 28.3292 79.1043 13.2406L78.8905 13.0728C67.0931 28.5475 67.6379 27.3811 77.96 12.3958L77.7462 12.2279C67.0658 26.9587 65.735 27.5348 74.6482 10.2484C74.5037 10.1615 74.284 10.0688 74.1454 9.90688C64.7245 25.9448 64.9111 24.5238 72.1166 8.76629L72.0414 8.76042C64.6972 24.356 64.0713 25.5916 71.7523 8.58675L71.602 8.57501C63.3361 26.2898 63.5861 25.0248 70.5153 7.9613L70.2898 7.9437C62.8343 24.9662 61.7055 25.8603 66.9252 6.47218C66.6997 6.45457 66.4859 6.28677 66.2603 6.26916C60.0584 24.6739 59.7363 22.9866 63.0862 5.26584L62.9358 5.2541C59.3545 23.0323 58.9366 24.5108 62.4213 5.06283L62.1205 5.03936C57.8947 25.2606 57.555 23.7985 59.5244 4.38336L59.2237 4.35989C56.728 23.734 56.0211 25.0388 56.234 3.89986L55.6325 3.85292C54.6329 19.566 53.8956 22.2284 52.9558 13.9195C52.8426 11.4929 52.6553 8.07829 52.4808 3.53134L52.3304 3.5196C52.386 5.71504 52.4532 7.76029 52.544 9.50514C52.3781 7.75442 52.2297 5.77841 52.0238 3.57123L51.9487 3.56536C52.1818 7.36133 52.4619 10.5565 52.5809 12.908C52.7483 24.33 52.0005 20.3427 49.7567 3.54536L49.5311 3.52775C51.8461 24.2595 51.5726 25.8249 47.0208 3.70959L46.4946 3.66851C49.7741 25.6089 48.4629 23.9955 42.1272 4.38537L41.9768 4.37363C48.1388 24.2724 48.6806 26.0524 41.8206 4.43699L41.5199 4.41352C47.956 27.5826 46.4017 26.1768 36.5735 5.76518L36.2727 5.74171C45.6088 26.6438 45.9309 28.3312 34.0856 6.62877C33.9352 6.61703 33.7731 6.75548 33.698 6.74961C41.1255 22.0627 42.4112 25.9408 37.9924 20.5337C36.4449 18.0707 33.8812 14.0928 30.0931 8.35711L29.9427 8.34537C31.952 11.6755 33.6322 14.3756 34.9717 16.5957C33.3949 14.5082 31.4833 11.8656 29.3061 8.74902C32.2282 12.9816 34.6133 16.3411 36.317 18.7407C42.5927 29.4306 38.7908 25.8094 25.8223 10.7437L25.6602 10.8822C41.707 30.117 42.7175 31.707 24.5432 11.6261L24.3 11.8338C41.3867 32.2831 38.976 31.1883 20.1961 14.989C39.0219 31.5696 40.8711 33.074 20.0341 15.1275L19.7909 15.3352C41.0136 35.1251 38.3188 34.7636 14.4411 20.8864L14.279 21.0249C38.0288 35.5721 39.7452 36.8394 13.4334 22.1678L13.2654 22.3813C31.0331 33.1371 34.957 36.1634 26.9323 33.3459C23.7933 31.892 18.4575 29.5111 10.7052 26.1104L10.6934 26.2606C14.2659 27.975 17.3991 29.504 20.0987 30.7725C17.3122 29.6483 14.0863 28.3387 10.2706 26.832C14.9591 28.7846 18.8382 30.4474 21.9138 31.7453C37.7122 39.6274 31.8832 38.719 7.4945 32.3575L7.48278 32.5077C36.6469 40.6775 38.9424 41.3101 7.309 32.7964L7.29727 32.9466C38.1144 42.2276 34.9333 42.2815 5.55125 37.8725C35.1354 42.5995 38.0499 43.0537 5.33054 38.7619L5.31882 38.9121C39.3493 44.8174 36.4562 46.0271 3.83424 48.2407L3.82252 48.3909C36.7794 46.7323 39.3531 46.7066 3.75217 49.292C38.6755 47.6359 35.4934 48.6719 3.90327 54.1394C35.7072 48.8397 38.8541 48.2543 3.86809 54.59C40.2181 49.1919 37.6599 50.9566 5.21903 62.4776C38.1568 51.3732 40.7951 50.5213 5.3225 63.0902C40.424 51.399 37.4088 53.2037 6.60233 67.0434C37.6227 53.3715 40.7471 52.1043 7.68109 69.6965C42.5563 53.1521 40.6161 55.7207 12.3341 77.9175C41.032 56.2065 43.4282 54.5802 13.2177 79.1953C43.2075 55.4696 40.741 57.9971 15.0083 81.4506C40.8044 58.1532 43.5482 55.9496 16.9609 83.5675C45.1094 56.2981 43.8341 59.0697 22.4157 88.3C44.3487 59.2609 46.2654 56.9928 24.2073 89.5731C46.3454 57.9057 44.6015 60.8673 25.791 90.6034C44.7401 61.0293 46.9234 58.253 30.2187 92.989C48.6467 58.4631 48.2619 61.4553 36.6071 95.4521L36.6823 95.458C48.7647 61.7967 49.959 59.0944 39.1974 96.1832C50.0448 59.9322 49.0351 63.1779 39.2726 96.1891C49.1737 63.3398 50.4842 60.1176 44.2687 97.108C51.9361 59.9287 52.1703 62.7426 49.0803 97.4836L49.1554 97.4894C52.2462 67.5841 53.1087 61.3803 53.1192 84.5011C52.9882 88.1175 52.8796 92.4157 52.7934 97.3956C52.8893 94.2298 52.9617 91.3643 53.0917 88.73C53.1179 91.301 53.0397 94.2415 53.019 97.4132C53.1179 91.301 53.2041 86.321 53.2834 82.3983C54.1581 64.4088 55.2828 67.4433 58.9828 96.5943L59.1331 96.606C55.9724 60.546 56.8374 63.0313 62.7604 95.6803L62.8356 95.6862C59.3295 74.7103 58.0313 66.1467 60.0668 72.0478C60.5265 74.8793 62.2534 82.7963 64.93 95.0185C62.8752 85.4893 61.5232 78.5837 60.9259 74.6082C62.1305 78.5556 63.9629 85.1209 66.4864 94.4601C63.5832 83.2023 61.6356 76.1748 60.6789 72.9267C60.026 66.7558 62.8133 72.7156 70.5541 92.7376L70.7044 92.7493C59.6798 60.5332 60.8806 62.5914 73.1581 91.3541L73.2333 91.36C64.0321 68.7307 61.8121 62.2863 69.4224 74.2892C71.2002 77.6769 73.7688 82.5618 77.14 88.7939L78.1056 89.0204Z" fill="url(#paint2_radial_271_1194)"/>
<path style="mix-blend-mode:color-dodge" opacity="0.3" d="M59.5915 7.41094C83.086 11.6627 98.6493 34.1842 94.397 57.6522C90.1447 81.1203 67.6012 96.6628 44.1067 92.411C20.6123 88.1593 5.04887 65.6378 9.3012 42.1698C13.5535 18.7017 36.097 3.15923 59.5915 7.41094Z" fill="url(#paint3_linear_271_1194)"/>
<defs>
<radialGradient id="paint0_radial_271_1194" cx="0" cy="0" r="1" gradientUnits="userSpaceOnUse" gradientTransform="translate(102.872 -11.0167) rotate(55.5223) scale(159.686 159.724)">
<stop stop-color="#FF9D00"/>
<stop offset="0.1" stop-color="#F99800"/>
<stop offset="0.24" stop-color="#E88A00"/>
<stop offset="0.39" stop-color="#CD7300"/>
<stop offset="0.54" stop-color="#AD5700"/>
<stop offset="0.6" stop-color="#A15200"/>
<stop offset="0.72" stop-color="#824600"/>
<stop offset="0.86" stop-color="#513300"/>
<stop offset="1" stop-color="#1E1F00"/>
</radialGradient>
<radialGradient id="paint1_radial_271_1194" cx="0" cy="0" r="1" gradientUnits="userSpaceOnUse" gradientTransform="translate(15.0612 -26.0031) rotate(-15.2765) scale(129.085 128.975)">
<stop/>
<stop offset="0.04" stop-color="#060300"/>
<stop offset="0.5" stop-color="#4B2500"/>
<stop offset="0.83" stop-color="#763B00"/>
<stop offset="1" stop-color="#874400"/>
</radialGradient>
<radialGradient id="paint2_radial_271_1194" cx="0" cy="0" r="1" gradientUnits="userSpaceOnUse" gradientTransform="translate(55.0265 42.7551) rotate(59.1634) scale(72.6414 72.6682)">
<stop stop-color="#FFA600"/>
<stop offset="0.08" stop-color="#F9A100"/>
<stop offset="0.19" stop-color="#E89300"/>
<stop offset="0.31" stop-color="#CD7D00"/>
<stop offset="0.44" stop-color="#A85F00"/>
<stop offset="0.54" stop-color="#874400"/>
<stop offset="0.64" stop-color="#763E00"/>
<stop offset="0.82" stop-color="#4B2F00"/>
<stop offset="1" stop-color="#1E1F00"/>
</radialGradient>
<linearGradient id="paint3_linear_271_1194" x1="23.9246" y1="59.5482" x2="179.571" y2="5.53203" gradientUnits="userSpaceOnUse">
<stop/>
<stop offset="1" stop-color="white"/>
</linearGradient>
</defs>
</svg>
