<svg width="57" height="57" viewBox="0 0 57 57" fill="none" xmlns="http://www.w3.org/2000/svg">
<path style="mix-blend-mode:multiply" d="M26.3237 54.3076C40.6533 55.4262 53.1755 44.7294 54.2928 30.4156C55.4101 16.1019 44.6994 3.5916 30.3698 2.47306C16.0402 1.35451 3.51807 12.0513 2.40077 26.365C1.28346 40.6787 11.9941 53.1891 26.3237 54.3076Z" fill="url(#paint0_radial_286_923)"/>
<path style="mix-blend-mode:screen" d="M49.706 17.3122C36.2179 22.0043 34.3237 22.6652 50.1099 18.9334C34.453 23.5119 36.4766 23.6977 50.8373 23.5638C36.4805 24.0048 34.4609 24.126 50.7244 25.3677C34.5434 24.8576 36.6199 25.438 50.3559 28.6576C36.577 25.6298 34.432 25.2114 49.6556 30.8339C34.0042 26.0425 35.7491 27.2943 47.9522 34.7726C35.6187 27.5351 33.7411 26.5519 46.5754 36.6731C33.3882 27.1379 34.9086 28.7625 44.9359 38.7203C34.7846 28.9201 33.1147 27.4233 42.5749 40.7113C32.2411 27.885 33.0418 29.7881 39.4816 42.7845C32.8046 29.9648 31.7412 28.2085 36.4853 43.9729C31.1048 28.4935 31.504 30.5326 34.6231 44.5805C31.3032 30.6005 30.7054 28.6017 30.874 45.0409C29.794 28.4748 29.4804 30.3467 28.0241 45.0694C29.173 30.3506 29.1792 28.4826 24.2015 44.3248C28.5132 28.4306 27.8709 30.2211 23.0511 44.0398C27.6788 30.1782 28.129 28.3448 19.5219 42.3978C27.5211 27.907 26.4352 29.3003 17.8642 41.4597C26.1663 29.1677 26.9856 27.6142 14.6778 38.6452C26.4288 27.236 25.0528 28.4115 13.9761 37.9769C24.9227 28.2898 26.143 26.9627 11.8147 34.9079C25.8277 26.3525 24.2665 27.0394 11.0241 33.5912C24.1194 26.7769 25.5358 25.7998 9.53408 29.4311C25.1693 25.1298 23.4142 25.439 9.16402 28.0915C23.3483 25.2108 25.0609 24.7309 8.86218 24.8051C25.0851 24.0635 23.3945 23.9036 8.82118 23.1844C23.4183 23.5987 25.1327 23.4537 9.46574 19.2188C25.1655 22.6754 23.484 22.0421 9.9138 17.4132C23.5269 21.8503 25.2491 22.3194 10.9025 15.1199C25.5677 21.8144 24.1619 20.868 11.7624 13.4022C24.35 20.6038 25.9141 21.3115 13.7591 10.7135C26.3289 20.6467 25.1797 19.2742 15.439 8.86459C25.3293 19.1464 26.6003 20.389 16.8683 7.72121C27.1236 20.1231 26.3759 18.6146 18.9705 6.18414C26.6386 18.4677 27.6491 19.8295 21.4075 5.00786C28.3475 19.4657 28.0355 17.7401 24.455 3.87924C28.2341 17.6999 28.7468 19.3574 25.7852 3.64842C29.3573 19.405 29.5127 17.7718 29.2248 3.21971C29.7902 17.7934 29.9678 19.4527 31.1438 3.31373C30.6936 19.4536 31.2675 17.8251 34.7639 3.79152C31.4318 17.8658 31.0479 19.5649 35.5791 4.07826C31.5813 19.8854 32.4963 18.5345 39.3498 5.4881C32.7374 18.6649 32.0613 20.1739 40.5487 6.22312C32.6822 20.4454 33.975 19.2635 43.6717 8.41905C34.1029 19.4129 32.9658 20.7465 44.3946 9.17267C33.4264 21.2844 35.0262 20.4611 47.3114 12.5796C35.1732 20.7235 33.7226 21.7816 48.0444 13.9196C34.181 22.3473 36.1455 21.8592 49.6739 17.3655L49.706 17.3122Z" fill="url(#paint1_radial_286_923)"/>
<path style="mix-blend-mode:screen" opacity="0.3" d="M43.1817 49.7393C41.8524 47.0977 40.7382 44.9192 39.8989 43.1525C40.8878 44.7914 42.1195 46.8955 43.5684 49.4348L43.5962 49.437C41.2971 45.2696 39.6564 42.3248 38.6528 40.5174C36.5401 35.751 38.5041 37.7728 45.8653 47.5504L45.955 47.4738C36.0667 33.232 36.8898 34.1329 46.6196 46.8284L46.6794 46.7773C40.2372 38.1033 37.9843 34.7761 40.9872 37.4368C42.0298 38.7452 44.3837 41.4946 47.8655 45.5313C45.1066 42.2483 43.064 39.802 41.8723 38.2588C43.3289 39.6275 45.5063 41.7775 48.4512 44.824C44.6342 40.7891 42.2053 38.2848 41.0622 37.1916C39.4892 34.8099 42.0555 36.6277 49.7339 43.0557L49.828 42.9236C37.9613 32.2086 38.8914 32.8111 50.2407 42.2865L50.3048 42.1799C40.2634 33.4759 38.8115 31.6893 48.679 37.2563C49.6369 37.8609 50.6993 38.5574 51.8683 39.318L51.8726 39.2625C51.1559 38.7883 50.4924 38.346 49.8545 37.9337C50.4967 38.2906 51.2178 38.7094 51.939 39.1283L52.0031 39.0217C49.4196 37.4257 47.4227 36.1822 45.9571 35.2869C40.9547 31.773 42.7112 32.1611 52.9085 36.7219L52.9215 36.5556C39.8783 30.183 40.7681 30.5871 53.0177 36.3958L53.0242 36.3126C43.8047 31.7444 41.2467 30.1783 46.7699 31.6691C48.2871 32.2617 50.5918 33.1388 53.6006 34.2939C51.2448 33.3571 49.3499 32.5956 47.8904 31.9797C49.3928 32.4037 51.3284 33.001 53.6994 33.7439L53.708 33.633C49.7366 32.2911 47.0669 31.4413 45.6776 30.9982C42.9615 29.6707 45.4225 29.9744 54.0108 31.8997C54.0152 31.8443 54.0195 31.7888 54.0238 31.7334C40.9711 28.344 41.8526 28.4965 54.0454 31.4562L54.0563 31.3176C42.0216 28.1193 41.1344 27.3249 54.2305 28.0125C54.237 27.9294 54.2413 27.8739 54.2478 27.7908C41.9165 26.6051 42.8856 26.7087 54.2586 27.6522L54.263 27.5968C42.984 26.5211 42.0131 26.0828 54.1347 25.6625C54.1412 25.5793 54.12 25.494 54.0966 25.4364C42.6074 25.2647 41.722 24.8051 53.6765 22.9495C53.6808 22.894 53.6574 22.8364 53.634 22.7788C52.6476 22.897 51.7743 22.9962 50.9844 23.1019C43.1041 23.909 43.2432 23.5573 53.2491 21.2707L53.2045 21.1278C41.7469 23.4127 42.4601 23.2173 53.1619 20.9572C53.1663 20.9017 53.1428 20.8441 53.1194 20.7865C42.3837 22.7652 41.4085 22.3823 52.0849 17.9448C52.0359 17.8574 51.989 17.7422 51.94 17.6547C41.6915 21.261 42.3943 20.8417 51.629 16.989L51.6355 16.9058C42.3561 20.6156 41.485 20.6871 50.9984 15.7684L50.9238 15.6511C40.9131 20.503 41.5539 20.1626 50.8258 15.4761L50.7534 15.331C41.4454 19.7637 40.5596 19.6667 49.4853 13.3356C49.4363 13.2481 49.3851 13.1884 49.3083 13.0987C40.6076 18.6943 41.1803 18.1534 48.9566 12.5972L48.961 12.5417C41.1078 18.0083 40.3582 18.3123 48.3725 11.8544L48.2957 11.7647C39.7967 18.3522 40.2818 17.8602 48.0932 11.4979C48.0399 11.4659 48.0164 11.4083 47.9631 11.3762C39.9128 17.5804 39.0162 17.6219 46.1548 9.50601C46.0503 9.41419 45.9735 9.32453 45.869 9.23271C38.5989 16.5296 38.8815 15.7708 44.8751 8.37427L44.7962 8.31233C38.698 15.617 38.0998 16.1281 44.2437 7.87878L44.1392 7.78695C37.5296 16.2788 37.8057 15.6032 43.6123 7.38329C43.559 7.35124 43.5334 7.32135 43.4801 7.2893C37.49 15.3554 36.7383 15.6872 41.7798 6.1805C41.6732 6.1164 41.5942 6.05446 41.4876 5.99036C36.1905 14.8357 36.3109 14.0084 40.3632 5.37272L40.3077 5.36839C36.1466 13.9677 35.7872 14.6369 40.1199 5.27007L40.0367 5.26357C35.3385 15.0202 35.5058 14.3081 39.4478 4.93873L39.3134 4.87246C35.0896 14.2756 34.4358 14.7824 37.4762 4.08763C37.3673 4.05124 37.2329 3.98498 37.1241 3.94859C33.5676 14.1011 33.417 13.169 35.3528 3.39201L35.2696 3.38551C33.1651 13.1772 32.9337 13.9958 34.9964 3.30841L34.8577 3.29758C32.3953 14.4558 32.236 13.6346 33.4341 2.93547C33.3786 2.93114 33.3231 2.92681 33.2676 2.92248C31.7899 13.6276 31.3707 14.3479 31.6135 2.65392C31.5025 2.64525 31.3915 2.63659 31.2805 2.62792C30.6011 11.3317 30.2367 12.7813 29.7568 8.19812C29.722 6.85678 29.6471 4.95456 29.5622 2.4659C29.5622 2.4659 29.5067 2.46157 29.4789 2.45941C29.4947 3.68771 29.5213 4.77741 29.5566 5.75624C29.4914 4.80297 29.4115 3.68121 29.3124 2.44641L29.2569 2.44208C29.37 4.57038 29.4856 6.30846 29.5781 7.62642C29.6164 13.9321 29.1746 11.7223 28.0572 2.43209L27.9184 2.42126C29.0592 13.9165 28.8833 14.7394 26.5158 2.50699C26.4326 2.50049 26.3194 2.51955 26.234 2.54077C27.9121 14.6636 27.2021 13.7436 23.8086 2.85343L23.753 2.84909C27.0227 13.8969 27.3376 14.8697 23.6676 2.87031L23.4968 2.91276C26.9375 15.703 26.0759 14.9385 20.7636 3.59182L20.6205 3.63643C25.6636 15.2131 25.8441 16.1196 19.3883 4.04223C19.3029 4.06345 19.2453 4.08683 19.1577 4.13577C23.1835 12.6491 23.8793 14.8229 21.4638 11.7897C20.6198 10.441 19.2047 8.18319 17.1651 4.9842L17.0775 5.03314C18.1665 6.81931 19.0829 8.31312 19.7946 9.56786C18.9376 8.38545 17.9059 6.9384 16.7016 5.19901L16.6738 5.19684C18.2767 7.553 19.5535 9.43748 20.4829 10.765C23.8709 16.7186 21.8237 14.6903 14.7172 6.29907L14.6297 6.34801C23.3667 17.0975 23.9422 17.9512 14.0123 6.74603L13.8649 6.84607C23.1926 18.2552 21.8462 17.6203 11.5533 8.56201L11.5255 8.55984C21.8567 17.8442 22.8228 18.7005 11.4635 8.63867C11.4336 8.66422 11.3738 8.71533 11.3439 8.74088C22.9583 19.8266 21.4684 19.5987 8.34136 11.7973L8.24945 11.9017C21.3185 20.089 22.24 20.8023 7.75569 12.5045L7.66378 12.6089C17.4368 18.6705 19.5677 20.3428 15.1397 18.7701C13.3901 17.9363 10.4519 16.5914 6.21853 14.6714L6.21204 14.7545C8.17502 15.7165 9.9225 16.578 11.3712 17.3325C9.85618 16.7122 8.04455 15.9573 5.96408 15.0698C8.5289 16.1903 10.6905 17.112 12.3933 17.8306C21.0622 22.3 17.8648 21.7716 4.44525 18.0747L4.43876 18.1579C20.545 22.8453 21.7699 23.2477 4.34253 18.3177L4.33604 18.4008C21.3169 23.6864 19.5535 23.744 3.34268 21.1121C19.6793 23.9211 21.2779 24.1854 3.21832 21.6322L3.20966 21.7431C22.0069 25.2183 20.3945 25.8455 2.36105 26.8919L2.35456 26.9751C20.5841 26.2786 22.0101 26.2504 2.31562 27.474L2.31129 27.5295C21.6616 26.781 19.887 27.3397 2.35765 30.1545C19.966 27.4016 21.7189 27.1201 2.36593 30.4062L2.3616 30.4616C22.4869 27.6542 21.1004 28.6057 3.08504 34.7849L3.08072 34.8404C21.3883 28.8513 22.849 28.3796 3.17008 35.1262C22.6414 28.8933 20.9753 29.8509 3.86371 37.3277C21.1075 29.9449 22.8353 29.271 4.41936 38.7934C23.7953 29.8479 22.7372 31.2434 6.96563 43.3706L6.99338 43.3727C22.9952 31.5145 24.3196 30.6418 7.49428 44.109C24.1953 31.162 22.8297 32.5613 8.48565 45.3577C22.9086 32.6232 24.4 31.401 9.56675 46.5297C25.2771 31.6089 24.5988 33.1456 12.5697 49.1904L12.5975 49.1925C24.8976 33.2526 25.9727 31.9979 13.5744 49.9102C26.017 32.5033 25.0204 34.1825 14.4512 50.4806C25.0993 34.2444 26.3348 32.7234 16.8856 51.842L16.9133 51.8441C27.2996 32.8823 27.0609 34.5091 20.4043 53.26L20.4598 53.2644C27.3233 34.7248 28.025 33.2457 21.8513 53.6797C28.0736 33.6957 27.5146 35.4927 21.9068 53.6841C27.5658 35.5525 28.3447 33.8005 24.6558 54.2333L24.6835 54.2355C29.1602 33.7248 29.2632 35.2666 27.3475 54.4434L27.403 54.4478C29.2797 37.9173 29.8255 34.5018 29.6926 47.292C29.62 49.2942 29.5193 51.6568 29.414 54.4374C29.4948 52.6868 29.5648 51.0747 29.6495 49.6312C29.6203 51.0791 29.608 52.6677 29.5826 54.4227C29.6779 51.0557 29.7833 48.2751 29.8411 46.1044C30.4514 36.1403 31.0452 37.832 32.9368 54.0152L32.9923 54.0195C31.4804 34.0453 31.9315 35.4191 35.0123 53.5358L35.0678 53.5401C33.2398 41.9076 32.5765 37.1707 33.6896 40.4368C33.9292 42.0172 34.8169 46.3812 36.2124 53.1833C35.1463 47.885 34.4116 44.0628 34.1087 41.8639C34.749 44.0333 35.7207 47.6788 37.0453 52.8857C35.4934 46.6571 34.4877 42.7301 33.9581 40.9318C33.6115 37.5024 35.1409 40.801 39.2963 51.9459L39.3839 51.897C33.4614 34.0605 34.1241 35.2278 40.7508 51.1949L40.8064 51.1993C35.839 38.6524 34.6687 35.0472 38.8074 41.7566C39.7746 43.6727 41.185 46.3484 42.981 49.8073L43.1817 49.7393Z" fill="url(#paint2_radial_286_923)"/>
<path style="mix-blend-mode:color-dodge" opacity="0.3" d="M22.5758 4.68137C35.3474 1.29989 48.4597 8.93286 51.8194 21.6889C55.2067 34.4471 47.5677 47.5438 34.7982 50.8975C22.0267 54.279 8.91434 46.646 5.55472 33.89C2.16735 21.1318 9.80642 8.03512 22.5758 4.68137Z" fill="url(#paint3_linear_286_923)"/>
<defs>
<radialGradient id="paint0_radial_286_923" cx="0" cy="0" r="1" gradientUnits="userSpaceOnUse" gradientTransform="translate(39.8761 -14.7198) rotate(30.3984) scale(88.3825 88.3221)">
<stop stop-color="#FF9D00"/>
<stop offset="0.1" stop-color="#F99800"/>
<stop offset="0.24" stop-color="#E88A00"/>
<stop offset="0.39" stop-color="#CD7300"/>
<stop offset="0.54" stop-color="#AD5700"/>
<stop offset="0.6" stop-color="#A15200"/>
<stop offset="0.72" stop-color="#824600"/>
<stop offset="0.86" stop-color="#513300"/>
<stop offset="1" stop-color="#1E1F00"/>
</radialGradient>
<radialGradient id="paint1_radial_286_923" cx="0" cy="0" r="1" gradientUnits="userSpaceOnUse" gradientTransform="translate(9.03805 -14.2863) rotate(-14.657) scale(71.3861 71.324)">
<stop/>
<stop offset="0.04" stop-color="#060300"/>
<stop offset="0.5" stop-color="#4B2500"/>
<stop offset="0.83" stop-color="#763B00"/>
<stop offset="1" stop-color="#874400"/>
</radialGradient>
<radialGradient id="paint2_radial_286_923" cx="0" cy="0" r="1" gradientUnits="userSpaceOnUse" gradientTransform="translate(30.6783 24.106) rotate(59.7937) scale(40.1902 40.2059)">
<stop stop-color="#FFA600"/>
<stop offset="0.08" stop-color="#F9A100"/>
<stop offset="0.19" stop-color="#E89300"/>
<stop offset="0.31" stop-color="#CD7D00"/>
<stop offset="0.44" stop-color="#A85F00"/>
<stop offset="0.54" stop-color="#874400"/>
<stop offset="0.64" stop-color="#763E00"/>
<stop offset="0.82" stop-color="#4B2F00"/>
<stop offset="1" stop-color="#1E1F00"/>
</radialGradient>
<linearGradient id="paint3_linear_286_923" x1="16.994" y1="39.1458" x2="82.1932" y2="-24.4281" gradientUnits="userSpaceOnUse">
<stop/>
<stop offset="1" stop-color="white"/>
</linearGradient>
</defs>
</svg>
