<svg width="119" height="165" viewBox="0 0 119 165" fill="none" xmlns="http://www.w3.org/2000/svg">
<path style="mix-blend-mode:multiply" d="M86.9267 91.4698C104.638 76.3407 106.715 49.7323 91.5658 32.0382C76.4171 14.3441 49.7792 12.2648 32.0683 27.3939C14.3575 42.523 12.2805 69.1315 27.4292 86.8255C42.5779 104.52 69.2158 106.599 86.9267 91.4698Z" fill="url(#paint0_radial_102_949)"/>
<mask id="mask0_102_949" style="mask-type:alpha" maskUnits="userSpaceOnUse" x="43" y="22" width="31" height="83">
<rect x="43" y="22.999" width="31" height="81.1905" fill="#D9D9D9"/>
</mask>
<g mask="url(#mask0_102_949)">
<path d="M110.249 83.8968C120.297 58.9654 108.209 30.6011 83.2496 20.5433C58.2898 10.4855 29.9099 22.543 19.8613 47.4744C9.81271 72.4058 21.9006 100.77 46.8603 110.828C71.82 120.886 100.2 108.828 110.249 83.8968Z" fill="url(#paint1_radial_102_949)"/>
</g>
<rect x="58" y="109" width="1" height="56" fill="black"/>
<rect x="55" y="104" width="7" height="5" fill="#D9D9D9"/>
<defs>
<radialGradient id="paint0_radial_102_949" cx="0" cy="0" r="1" gradientUnits="userSpaceOnUse" gradientTransform="translate(59.505 59.4278) rotate(4.46336) scale(42.1991 42.1523)">
<stop offset="0.59" stop-color="#8F3333"/>
<stop offset="0.6" stop-color="#923939"/>
<stop offset="0.65" stop-color="#AE6D6D"/>
<stop offset="0.71" stop-color="#C79999"/>
<stop offset="0.77" stop-color="#DBBEBE"/>
<stop offset="0.83" stop-color="#EBE2DA"/>
<stop offset="0.89" stop-color="#F6EEEE"/>
<stop offset="0.94" stop-color="#FCFBFA"/>
<stop offset="1" stop-color="white"/>
</radialGradient>
<radialGradient id="paint1_radial_102_949" cx="0" cy="0" r="1" gradientUnits="userSpaceOnUse" gradientTransform="translate(68.624 60.4234) rotate(-145.786) scale(53.2592 53.2074)">
<stop offset="0.25" stop-color="white"/>
<stop offset="0.46" stop-color="#FCFCFC"/>
<stop offset="0.61" stop-color="#F4F3F2"/>
<stop offset="0.74" stop-color="#E5E4E2"/>
<stop offset="0.86" stop-color="#D2CFCC"/>
<stop offset="0.97" stop-color="#B8B4AF"/>
</radialGradient>
</defs>
</svg>
