<svg width="24" height="32" viewBox="0 0 24 32" fill="none" xmlns="http://www.w3.org/2000/svg">
<path style="mix-blend-mode:multiply" d="M16.8585 17.7395C20.2933 14.8054 20.6961 9.64494 17.7582 6.21336C14.8203 2.78178 9.65414 2.37852 6.21931 5.31265C2.78448 8.24678 2.38166 13.4072 5.3196 16.8388C8.25753 20.2704 13.4237 20.6736 16.8585 17.7395Z" fill="url(#paint0_radial_251_2)"/>
<mask id="mask0_251_2" style="mask-type:alpha" maskUnits="userSpaceOnUse" x="8" y="4" width="7" height="17">
<rect x="8.33936" y="4.46045" width="6.01212" height="15.746" fill="#D9D9D9"/>
</mask>
<g mask="url(#mask0_251_2)">
<path d="M21.3815 16.2709C23.3304 11.4357 20.9861 5.93476 16.1454 3.98417C11.3047 2.03357 5.80072 4.37199 3.8519 9.20717C1.90308 14.0423 4.24739 19.5433 9.08806 21.4939C13.9287 23.4445 19.4327 21.1061 21.3815 16.2709Z" fill="url(#paint1_radial_251_2)"/>
</g>
<rect x="11.2485" y="21.1394" width="0.193939" height="10.8606" fill="black"/>
<rect x="10.6667" y="20.1697" width="1.35758" height="0.969697" fill="#D9D9D9"/>
<defs>
<radialGradient id="paint0_radial_251_2" cx="0" cy="0" r="1" gradientUnits="userSpaceOnUse" gradientTransform="translate(11.5404 11.5253) rotate(4.46336) scale(8.18406 8.175)">
<stop offset="0.59" stop-color="#8F3333"/>
<stop offset="0.6" stop-color="#923939"/>
<stop offset="0.65" stop-color="#AE6D6D"/>
<stop offset="0.71" stop-color="#C79999"/>
<stop offset="0.77" stop-color="#DBBEBE"/>
<stop offset="0.83" stop-color="#EBE2DA"/>
<stop offset="0.89" stop-color="#F6EEEE"/>
<stop offset="0.94" stop-color="#FCFBFA"/>
<stop offset="1" stop-color="white"/>
</radialGradient>
<radialGradient id="paint1_radial_251_2" cx="0" cy="0" r="1" gradientUnits="userSpaceOnUse" gradientTransform="translate(13.3089 11.7185) rotate(-145.786) scale(10.3291 10.319)">
<stop offset="0.25" stop-color="white"/>
<stop offset="0.46" stop-color="#FCFCFC"/>
<stop offset="0.61" stop-color="#F4F3F2"/>
<stop offset="0.74" stop-color="#E5E4E2"/>
<stop offset="0.86" stop-color="#D2CFCC"/>
<stop offset="0.97" stop-color="#B8B4AF"/>
</radialGradient>
</defs>
</svg>
