<svg width="352" height="167" viewBox="0 0 352 167" fill="none" xmlns="http://www.w3.org/2000/svg">
<path d="M85.83 79.5469C133.062 57.7736 173.46 43.0308 205.36 91.4974C226.598 123.757 245.773 167.226 280.431 137.253C300.071 120.247 312.427 90.6595 328.372 110.839C341.656 127.695 342.092 152.547 339.635 160.562C335.644 173.647 353.672 163.338 351.531 152.097C349.291 140.206 340.505 106.298 318.699 100.344C301.349 95.6284 288.423 119.832 271.76 131.682C241.89 152.932 232.331 120.694 208.117 85.9779C135.155 -18.4927 80.2913 139.724 27.0272 56.1707C20.7215 46.2855 11.9236 23.9453 16.3085 3.27684C18.1073 -5.18479 0.140106 4.98099 0.0433561 10.6587C-0.0495583 16.2873 28.4852 105.969 85.83 79.5469Z" fill="black"/>
</svg>
