<svg width="126" height="74" viewBox="0 0 126 74" fill="none" xmlns="http://www.w3.org/2000/svg">
<path d="M9.9333 35.4674C30.5271 25.974 48.141 19.546 62.0499 40.678C71.3099 54.7435 79.6706 73.6964 94.7818 60.628C103.345 53.2132 108.732 40.3127 115.685 49.111C121.477 56.4608 121.667 67.2963 120.595 70.7908C118.855 76.4964 126.716 72.0014 125.782 67.1002C124.806 61.9154 120.975 47.1313 111.467 44.5354C103.902 42.4792 98.2663 53.0324 91.0008 58.1989C77.9776 67.4641 73.8095 53.4081 63.252 38.2714C31.4396 -7.27899 7.51835 61.7055 -15.7054 25.2752C-18.4548 20.9651 -22.2908 11.2245 -20.3789 2.21278C-19.5946 -1.4766 -27.4285 2.9558 -27.4707 5.43135C-27.5112 7.88548 -15.0697 46.9877 9.9333 35.4674Z" fill="black"/>
</svg>
