<svg width="251" height="58" viewBox="0 0 251 58" fill="none" xmlns="http://www.w3.org/2000/svg">
<path d="M198.822 46.7889C172.887 19.5641 149.681 -1.06444 115.5 23.8077C92.7464 40.3613 68.4193 65.1289 53.0802 35.5677C44.3936 18.8017 43.9107 -4.6813 27.8935 4.97982C14.5371 13.0596 7.68956 29.964 7.22324 36.093C6.44823 46.0947 -2.92383 34.3346 1.4777 27.1952C6.11627 19.6359 20.9531 -1.29293 37.1494 0.315559C50.0302 1.60968 52.3153 21.5545 60.3659 34.0135C74.794 56.353 89.7093 36.7694 115.107 19.3092C191.601 -33.208 186.664 89.442 244.428 46.1127C251.265 40.9874 263.059 27.983 265.57 12.6861C266.595 6.42266 275.964 18.0686 274.532 21.9819C273.109 25.8605 230.315 79.8338 198.822 46.7889Z" fill="black"/>
</svg>
