<svg width="171" height="100" viewBox="0 0 171 100" fill="none" xmlns="http://www.w3.org/2000/svg">
<path d="M13.2401 47.718C41.1482 34.8529 65.018 26.1418 83.8671 54.7792C96.4159 73.8403 107.746 99.5248 128.224 81.8149C139.829 71.7666 147.13 54.2842 156.551 66.2074C164.4 76.1676 164.658 90.8516 163.206 95.5873C160.848 103.319 171.5 97.2279 170.235 90.5858C168.912 83.5596 163.72 63.5246 150.836 60.0067C140.584 57.2201 132.946 71.5215 123.1 78.5231C105.452 91.079 99.8032 72.0308 85.4961 51.5179C42.3848 -10.2107 9.96743 83.2752 -21.5048 33.9058C-25.2306 28.0649 -30.429 14.8647 -27.8381 2.65231C-26.7753 -2.34743 -37.3916 3.65924 -37.4487 7.01403C-37.5036 10.3398 -20.6433 63.33 13.2401 47.718Z" fill="black"/>
</svg>
