<svg width="498" height="123" viewBox="0 0 498 123" fill="none" xmlns="http://www.w3.org/2000/svg">
<path d="M336.149 99.5757C281.059 41.7477 231.767 -2.06935 159.165 50.7614C110.833 85.9227 59.1602 138.531 26.5785 75.7407C8.12745 40.1281 7.10166 -9.75191 -26.9204 10.7692C-55.2906 27.9315 -69.8355 63.838 -70.8259 76.8566C-72.4722 98.1011 -92.3793 73.1215 -83.0301 57.9567C-73.1773 41.9001 -41.6624 -2.55468 -7.25991 0.861895C20.1 3.61072 24.9537 45.9753 42.0539 72.4395C72.7006 119.891 104.382 78.2933 158.329 41.2061C320.809 -70.3453 310.323 190.175 433.019 98.1393C447.541 87.2528 472.592 59.63 477.926 27.1381C480.104 13.8339 500.005 38.5711 496.962 46.8832C493.941 55.1218 403.041 169.766 336.149 99.5757Z" fill="black"/>
</svg>
