<svg width="453" height="105" viewBox="0 0 453 105" fill="none" xmlns="http://www.w3.org/2000/svg">
<path d="M314.653 85.1858C267.689 35.8866 225.666 -1.468 163.772 43.571C122.569 73.5465 78.5167 118.396 50.7404 64.8661C35.0106 34.5059 34.1361 -8.01749 5.13181 9.47706C-19.0541 24.1081 -31.4538 54.719 -32.2983 65.8175C-33.7017 83.9287 -50.6727 62.6333 -42.7024 49.7051C-34.3028 36.0166 -7.43594 -1.88176 21.8927 1.03093C45.2174 3.37434 49.3553 39.4907 63.9334 62.0518C90.0602 102.505 117.069 67.0423 163.06 35.425C301.576 -59.6742 292.636 162.423 397.237 83.9613C409.617 74.6804 430.974 51.1316 435.52 23.4318C437.377 12.0898 454.343 33.1785 451.749 40.2648C449.173 47.2882 371.68 145.024 314.653 85.1858Z" fill="black"/>
</svg>
