<svg width="804" height="513" viewBox="0 0 804 513" fill="none" xmlns="http://www.w3.org/2000/svg">
<path style="mix-blend-mode:multiply" opacity="0.03" d="M-77.057 183.514C-97.4552 199.575 -116.459 210.35 -139.42 218.364C-114.162 202.929 -98.8229 179.364 -92.0954 152.92C-87.8173 135.847 -89.5655 120.51 -89.0039 103.882C-87.8302 76.2691 -73.0016 56.0967 -51.659 34.2262C-51.1331 33.7769 -51.8079 32.9887 -52.3528 33.6817C-70.1626 51.1697 -87.7665 69.1641 -91.0373 92.2001C-93.8549 112.575 -89.6515 131.045 -94.7218 151.98C-94.1131 144.182 -98.0288 137.747 -107.35 131.38C-113.876 126.948 -121.141 128.833 -128.437 124.831C-141.848 117.409 -142.247 103.649 -141.182 90.0021C-139.679 70.7508 -130.37 52.109 -117.29 35.4776C-134.428 56.9408 -145.829 83.51 -141.838 107.848C-140.179 118.03 -136.71 120.752 -129.039 126.255C-120.431 132.32 -105.1 134.007 -99.1982 143.294C-96.3501 147.685 -98.4449 158.799 -99.4654 165.584C-99.4844 165.828 -99.5035 166.071 -99.0156 166.109C-107.295 187.283 -121.728 205.525 -142.481 219.842C-149.033 222.027 -156.317 224.155 -163.826 226.021L-164.558 225.964C-170.02 226.763 -175.032 228.088 -180.532 229.375C-182.034 229.748 -182.129 230.967 -181.717 231.98C-189.131 232.627 -196.583 233.761 -204.206 237.089C-205.727 237.706 -205.898 239.899 -203.927 239.807C-178.438 237.139 -154.565 236.305 -131.921 226.06C-114.575 220.794 -97.5603 210.354 -82.1587 198.562C-71.1013 195.257 -60.9849 194.576 -48.6572 197.009C-37.0614 199.385 -26.8947 204.347 -14.7349 205.786C12.7371 209.157 40.387 203.96 67.9674 193.364C68.4743 193.158 68.3065 192.164 67.7805 192.614C21.3897 208.361 -12.8907 201.027 -53.9986 189.973C-59.0456 188.598 -63.4178 188.012 -67.6031 188.175C-62.5685 183.42 -57.5339 178.664 -52.4992 173.908C-40.9091 163.78 -28.8121 153.447 -16.7722 143.844C3.02065 132.395 23.3295 130.058 47.7441 131.718C70.4321 133.489 90.0595 136.737 113.581 130.973C114.576 130.806 114.446 129.325 113.695 129.511C76.3599 136.158 40.8853 122.111 3.82861 131.477C1.57593 132.037 -0.432785 132.616 -2.46053 133.438C37.0937 104.654 80.0724 85.4526 129.133 101.541C130.333 101.88 131.442 100.25 130.26 99.6674C91.0348 83.3662 44.9864 94.7273 4.55477 119.03C-20.6845 134.222 -41.3681 153.938 -63.4773 173.051C-66.1071 175.298 -68.7368 177.544 -71.3666 179.791C-58.8131 163.609 -53.369 144.175 -44.4525 124.276C-40.6153 115.995 -36.3282 108.239 -31.3663 101.271C-19.6051 88.9498 -6.88696 76.9484 10.6622 75.3763C22.2804 74.3218 29.9348 76.8807 40.5738 78.937C56.0539 81.8616 71.4265 79.8743 87.1415 73.5006C88.6623 72.8838 88.0636 71.1209 86.5618 71.494C67.8813 78.1265 52.8287 79.158 35.2101 75.3311C27.4986 73.5033 19.8061 71.4318 11.1725 71.9837C-1.17752 72.9811 -11.7314 79.2672 -20.7107 87.3925C14.2183 48.685 67.6111 31.2777 120.255 29.7481C120.987 29.8052 120.819 28.8114 120.331 28.7733C77.1668 28.346 32.1133 39.5395 -4.73843 68.29C-21.211 81.2241 -34.7023 96.8427 -43.6916 114.529C-55.859 138.341 -59.602 164.283 -77.1141 184.246L-77.057 183.514ZM132.557 434.996C122.344 455.774 106.486 473.414 79.8435 484.574C79.0926 484.761 79.7484 485.792 80.2553 485.587C109.299 475.105 126.023 455.816 136.688 432.377C140.994 424.377 144.344 416.057 150.056 408.903C159.283 397.61 172.406 392.995 184.107 384.592C196.822 375.778 202.671 363.731 208.185 349.696C208.223 349.208 207.735 349.17 207.453 349.639C199.626 368.151 190.701 378.732 173.385 389.884C167.958 393.383 161.856 396.094 156.634 400.1C148.783 406.352 144.74 414.127 140.903 422.408C148.336 402.639 152.488 380.898 156.639 359.157C166.184 331.217 193.615 319.383 214.692 300.924C234.618 287.769 257.965 287.385 279.855 280.513C298.779 273.899 317.782 282.002 336.596 273.664C353.87 266.186 367.548 251.318 376.667 235.113C376.949 234.644 376.255 234.1 375.973 234.568C363.432 256.881 342.47 273.877 316.493 276.508C305.85 277.639 295.661 276.108 285.656 278.514C288.678 277.524 291.476 276.271 294.537 274.794C317.783 263.124 329.855 240.53 340.689 218.084C340.727 217.597 340.277 217.072 339.995 217.54C330.857 233.989 321.81 252.406 307.122 264.499C292.17 276.816 274.751 279.869 256.523 283.84C242.05 286.878 229.754 290.332 218.129 297.76C218.918 297.086 219.726 296.169 220.515 295.495C233.29 282.762 243.29 267.852 251.414 251.814C266.836 220.901 276.957 198.154 306.255 178.13C317.148 170.645 325.148 165.631 333.136 154.486C333.68 153.793 332.743 153.229 332.217 153.679C315.589 171.749 291.633 179.931 275.924 198.809C259.387 218.848 254.047 246.381 240.081 268.092C219.929 299.862 172.917 317.277 157.98 351.416C161.621 333.067 165.487 314.981 171.904 298.81C188.201 256.687 231.911 237.543 246.5 195.286C257.869 162.831 253.965 127.957 250.434 94.5828C250.453 94.3391 249.946 94.5448 249.946 94.5448C255.111 144.718 258.099 194.476 220.692 233.48C215.883 238.498 211.111 243.029 206.583 247.579C213.554 240.033 216.491 230.7 215.114 220.051C213.793 208.67 210.876 198.88 211.301 187.145C211.555 177.603 213.253 168.419 214.239 158.934C214.277 158.447 213.32 158.127 213.263 158.858C210.342 171.134 208.358 183.973 209.076 196.778C210.219 216.726 219.191 233.853 202.883 250.968C202.883 250.968 204.198 249.845 204.724 249.396C191.967 261.884 180.244 273.718 171.705 291.93C160.174 317.018 155.696 346.089 150.055 374.334C149.863 342.201 138.374 310.168 145.577 277.632C154.722 235.931 181.502 201 179.052 156.923C179.109 156.192 177.89 156.097 178.077 156.847C179.079 203.753 149.989 239.974 142.585 284.508C142.573 278.378 141.021 273.108 138.55 267.031C131.736 250.563 130.846 239.951 134.88 222.859C139.009 204.548 139.945 189.421 131.217 172.313C131.011 171.806 130.241 172.237 130.447 172.743C140.632 196.339 132.13 214.063 130.041 237.682C128.596 256.202 142.244 270.016 142.319 287.92C138.158 319.222 149.761 349.794 149.072 380.631C145.168 399.205 140.57 417.234 132.934 433.309C135.61 386.445 111.936 340.712 127.58 294.37C127.618 293.882 126.905 293.581 126.848 294.312C108.295 340.182 134.745 388.094 132.313 434.977L132.557 434.996ZM-24.4478 -198.034C-22.927 -198.651 -21.1622 -199.248 -19.4165 -199.602C-19.6604 -199.621 -20.1484 -199.659 -20.4113 -199.435C-21.6692 -199.043 -23.19 -198.426 -24.4478 -198.034ZM40.6226 -201.535C50.7009 -201.729 60.4625 -204.155 69.5146 -210.068C76.5008 -214.671 81.3867 -220.664 86.7794 -226.863C96.2119 -237.65 107.105 -245.135 120.735 -249.955C120.979 -249.936 120.792 -250.686 120.773 -250.443C106.994 -246.86 97.4159 -240.498 88.0025 -229.955C73.7412 -213.906 60.0664 -202.224 38.69 -201.931C31.4283 -203.234 23.8847 -204.068 16.0781 -204.677C3.14834 -205.686 -8.33999 -203.151 -19.1725 -199.583C0.163784 -205.184 21.2929 -202.309 40.3753 -198.367C87.9783 -188.768 125.74 -172.581 174.59 -188.381C175.603 -188.792 175.211 -190.049 174.216 -189.881C123.304 -175.958 86.125 -193.325 41.0915 -201.254L40.6226 -201.535ZM-176.644 -222.908C-165.703 -186.994 -144.587 -171.371 -117.305 -165.564C-96.3417 -147.992 -120.023 -115.026 -104.094 -92.6977C-93.8993 -78.6627 -78.2927 -71.07 -63.0252 -62.2779C-60.101 -58.8624 -58.6596 -55.3175 -58.2164 -48.4181C-57.6591 -42.9808 -58.2264 -38.8572 -58.1189 -33.9454C-57.9354 -30.0083 -57.9577 -26.5776 -56.5353 -22.789C-51.8754 -10.1667 -38.3884 -3.72016 -27.0398 1.82391C-26.7959 1.84296 -26.27 1.39369 -26.7579 1.35561C-41.6136 -6.42363 -53.6335 -15.9429 -54.9285 -33.9415C-55.2609 -39.1161 -53.6226 -44.3819 -54.4429 -49.5946C-55.0954 -53.8134 -56.7998 -57.1337 -59.0301 -60.0047C-48.9394 -54.0684 -39.6567 -47.2145 -32.8359 -37.1204C-32.8549 -36.8767 -32.104 -37.0633 -32.3289 -37.326C-41.285 -51.5096 -53.0039 -61.7408 -67.0327 -70.6814C-76.3915 -76.5605 -88.361 -80.4369 -96.3289 -88.414C-119.969 -112.57 -104.308 -121.4 -102.241 -141.587C-101.199 -151.803 -103.837 -158.874 -109.087 -163.942C-106.159 -163.714 -103.495 -163.26 -100.324 -163.013C-69.0533 -148.559 -59.7244 -113.997 -22.7795 -106.209C-18.0335 -104.123 -13.2875 -102.036 -8.80453 -99.7247C5.09435 -92.2653 3.39239 -79.8944 6.85155 -67.611C10.9094 -53.5646 25.8412 -46.7601 38.5046 -42.3392C39.9303 -41.7376 40.8524 -44.1174 39.4267 -44.719C33.274 -47.651 24.4188 -50.5487 19.9011 -55.5596C13.5649 -62.4287 11.8291 -71.6356 10.2612 -79.8486C9.40285 -84.5738 9.20026 -88.2673 6.33318 -92.4138C2.36043 -98.1177 -3.97912 -101.8 -10.6387 -104.526C-1.87528 -103.597 7.17013 -103.136 15.9145 -101.963C50.9682 -98.2462 71.8401 -82.6422 93.3197 -55.958C94.2194 -54.9071 95.7593 -55.7676 95.1225 -57.0431C70.684 -89.8424 47.5752 -101.943 7.45547 -106.791C-4.70434 -108.231 -17.1842 -108.715 -28.9478 -112.085C-29.9046 -112.404 -30.8424 -112.968 -31.5553 -113.269C-31.7992 -113.288 -32.0432 -113.307 -32.2872 -113.326C-34.9136 -114.266 -37.784 -115.226 -40.3915 -116.41C-56.4859 -124.041 -63.2464 -138.053 -74.5502 -150.459C-79.2928 -155.732 -83.3797 -159.974 -87.8247 -162.773C-76.7895 -162.647 -65.4534 -163.233 -53.6103 -164.025C-27.4466 -165.905 -4.60641 -166.084 18.3122 -151.546C32.3409 -142.605 42.8558 -129.526 56.9035 -120.829C83.3484 -104.3 112.335 -114.05 141.756 -107.341C142.488 -107.284 142.808 -108.239 141.832 -108.315C105.489 -117.527 74.5692 -108.172 42.4854 -134.213C30.9343 -143.451 21.1099 -152.798 8.84262 -159.15C25.2795 -155.905 40.9217 -164.491 57.5141 -166.383C84.2609 -169.444 98.7575 -141.344 123.562 -135.239C124.782 -135.144 125.14 -136.587 123.958 -137.17C106.998 -143.152 98.7709 -154.091 84.5363 -163.538C79.4165 -167.125 74.4265 -169.231 67.8397 -169.745C45.4337 -171.984 25.8245 -156.598 2.91487 -161.819C2.67092 -161.838 2.42694 -161.857 2.42694 -161.857C-0.893337 -163.342 -4.47659 -164.602 -8.34186 -165.395C-31.9643 -170.916 -56.5725 -166.953 -80.3695 -167.094C-86.5064 -167.083 -92.1175 -167.521 -97.4845 -167.94C-84.9096 -168.674 -72.8763 -171.903 -60.6147 -178.056C-48.6161 -183.984 -39.3738 -192.334 -26.9444 -197.493C-52.5161 -187.476 -74.904 -171.081 -103.789 -168.922C-136.514 -174.174 -156.483 -191.914 -175.593 -223.807C-176.023 -224.576 -177.544 -223.959 -177.113 -223.19L-176.644 -222.908ZM412.93 -308.054C431.425 -353.192 397.703 -373.967 367.06 -396.463C366.668 -397.72 365.73 -398.283 364.735 -398.116C345.701 -412.105 328.469 -427.18 326.259 -449.173C326.656 -469.982 328.124 -491.932 338.148 -494.582C339.65 -494.955 339.371 -497.674 337.645 -497.564C328.523 -497.05 328.216 -489.964 325.823 -481.324C324.09 -474.84 322.863 -468.561 322.106 -462.001C322.087 -461.757 322.068 -461.514 322.03 -461.026C321.992 -460.539 321.934 -459.808 321.896 -459.32C321.782 -457.858 321.649 -456.152 321.516 -454.447C318.667 -439.959 305.62 -436.319 298.513 -423.88C292.553 -413.557 293.534 -400.977 285.173 -391.332C276.003 -380.77 259.068 -374.492 248.061 -365.544C237.843 -357.27 229.707 -347.363 222.001 -336.687C222.001 -336.687 221.963 -336.199 222.245 -336.668C231.227 -347.98 241.259 -357.004 252.209 -365.22C249.781 -359.281 250.187 -351.894 250.611 -344.751C250.888 -323.154 242.593 -304.923 225.126 -291.822C225.126 -291.822 225.088 -291.334 225.107 -291.578C235.718 -298.595 243.816 -308.015 248.202 -320.176C254.073 -335.654 247.266 -358.496 259.252 -370.555C263.665 -373.643 268.06 -376.487 272.699 -379.312C280.962 -384.551 286.934 -388.743 292.704 -396.629C293.908 -399.477 294.868 -402.344 296.091 -405.436C298.915 -413.306 302.207 -420.894 305.987 -428.445C309.84 -433.783 315.98 -436.981 319.833 -442.319L320.378 -443.012C319.408 -430.584 318.926 -418.118 315.985 -405.599C313.63 -397.447 309.797 -392.352 301.061 -384.208C299.727 -382.841 297.475 -382.281 296.122 -380.671C292.608 -376.532 290.127 -373.048 288.001 -367.82C278.742 -343.536 282.47 -318.973 262.724 -298.694C262.461 -298.469 262.667 -297.963 263.174 -298.168C273.956 -307.379 278.227 -318.078 281.561 -329.341C282.032 -313.368 284.832 -298.929 288.738 -282.933C293.784 -262.681 288.423 -250.595 272.213 -237.886C265.696 -233.001 259.685 -228.321 253.843 -222.648C253.824 -222.405 253.786 -221.917 254.312 -222.366C267.838 -235.285 290.029 -242.87 293.391 -263.937C294.922 -274.115 291.048 -284.224 288.599 -293.732C285.01 -307.496 282.904 -321.39 283.275 -335.581C285.085 -343.04 286.669 -350.762 289.249 -358.652C294.331 -373.455 305.319 -382.159 312.838 -393.586C306.342 -373.253 299.96 -354.383 304.648 -332.687C312.922 -294.04 356.927 -254.074 320.329 -215.987C320.329 -215.987 320.291 -215.5 320.573 -215.968C351.55 -244.932 329.536 -280.484 317.089 -312.838C303.632 -347.967 312.758 -370.546 321.048 -401.281C319.735 -384.467 317.051 -365.798 325.614 -352.871C332.191 -342.796 343.596 -337.983 354.194 -332.252C351.386 -321.439 356.145 -313.222 362.291 -303.916C373.477 -286.861 379.483 -269.476 374.207 -249.048C374.188 -248.804 374.676 -248.766 374.695 -249.01C378.253 -260.01 379.372 -271.2 376.569 -282.452C372.625 -297.96 354.25 -314.105 357.945 -329.998C360.983 -328.045 364.022 -326.091 366.778 -323.67C386.953 -305.423 393.304 -276.733 400.935 -251.865C401.103 -250.871 402.38 -251.507 402.193 -252.257C396.219 -282.634 386.437 -314.535 359.656 -333.052L358.718 -333.615C358.851 -335.321 357.201 -336.185 355.924 -335.549C339.364 -346.649 325.579 -355.57 323.784 -379.737C322.894 -390.349 324.368 -399.796 323.44 -409.92C323.554 -411.382 324.156 -412.807 324.514 -414.25C325.589 -418.579 325.652 -425.684 326.055 -433.988C332.587 -417.052 347.325 -404.624 362.891 -393.356C365.625 -387.504 364.097 -380.513 365.573 -374.269C366.47 -370.031 368.38 -366.204 370.29 -362.378C375.441 -352.904 383.26 -346.165 390.252 -338.264C390.252 -338.264 390.496 -338.245 390.252 -338.264C384.537 -346.8 377.545 -354.701 372.356 -363.687C367.392 -372.411 368.526 -380.658 367.729 -389.301C397.04 -368.625 426.954 -349.374 411.954 -308.13C411.935 -307.886 412.404 -307.604 412.442 -308.092L412.93 -308.054ZM720.585 284.759C725.604 277.061 720.053 272.705 714.468 265.649C710.457 260.432 705.92 255.665 701.101 251.366C701.12 251.123 700.895 250.86 700.426 250.578C699.958 250.296 699.508 249.771 699.039 249.489C697.895 248.419 696.751 247.349 695.608 246.279C685.41 235.431 690.321 222.82 684.479 209.616C679.686 198.699 668.921 191.975 666.194 179.748C663.093 166.022 668.121 148.762 667.254 134.719C666.554 121.671 663.358 109.163 659.43 96.5975C659.43 96.5975 658.942 96.5594 659.186 96.5785C663 110.606 664.413 123.955 664.567 137.697C661.326 132.05 654.987 128.368 649.192 123.993C631.507 111.58 621.598 93.8896 621.339 72.0491L621.095 72.0301C620.594 84.7398 623.34 96.7225 630.348 107.567C639.323 121.507 661.78 129.389 664.389 146.264C664.234 151.401 664.059 156.781 663.622 162.386C662.861 172.133 662.778 179.482 665.753 188.54C667.514 191.129 669.032 193.699 670.793 196.289C675.403 203.268 679.505 210.453 683.589 217.882C685.553 224.164 684.532 230.95 686.496 237.232L686.439 237.963C677.252 229.891 667.557 222.024 658.99 212.284C653.874 205.51 651.891 199.471 650.608 187.603C650.517 185.635 650.932 183.46 650.577 181.716C649.513 176.485 647.884 172.19 645.036 167.8C631.04 145.867 608.85 134.574 604.169 106.504C604.207 106.016 603.437 106.447 603.681 106.466C604.792 120.527 610.656 130.302 618.022 139.703C604.969 130.838 591.501 124.148 576.287 117.812C557.021 109.934 550.314 98.3773 549.698 77.9799C549.594 69.8811 549.451 62.2697 548.127 54.0757C548.165 53.5883 547.396 54.0186 547.639 54.0376C549.872 72.5997 542.98 94.8627 557.997 110.01C565.29 117.199 575.609 120.211 584.895 123.878C598.233 129.087 610.482 135.682 621.827 144.413C626.775 150.193 631.968 155.992 636.821 162.99C645.872 175.955 646.252 189.96 651.156 202.601C638.525 185.189 627.018 169.09 606.872 159.917C570.817 143.863 512.476 155.491 503.522 103.551C503.522 103.551 503.034 103.513 503.278 103.532C508.339 145.606 550.055 148.862 583.452 158.089C619.982 168.05 632.59 188.893 652.495 213.739C639.858 202.7 626.171 189.373 610.764 188.661C598.791 187.971 588.218 194.501 577.272 199.531C570.337 190.899 560.841 189.912 549.6 189.28C529.314 188.187 511.584 182.635 498.37 166.403C498.37 166.403 497.882 166.365 498.107 166.628C504.741 175.972 513.235 183.5 523.928 188.012C538.917 194.085 562.644 188.827 573.46 201.195C570.155 202.653 566.626 203.848 563.134 204.557C536.441 210.073 509.635 198.174 484.777 189.614C483.801 189.538 483.481 190.494 484.175 191.038C512.125 204.007 543.887 215.313 574.413 204.701L575.427 204.29C576.571 205.36 578.355 204.519 578.713 203.076C597.393 196.443 612.826 190.538 633.42 203.423C642.554 209.04 649.397 215.703 657.818 221.019C658.717 222.07 659.598 223.364 660.742 224.434C663.666 227.85 669.217 232.206 675.949 237.144C658.406 232.343 639.897 236.782 621.274 242.683C614.988 241.457 610.245 236.184 604.318 233.514C600.509 231.991 596.175 230.917 592.047 230.35C581.351 229.025 571.364 231.187 560.985 232.093C571.25 232.649 581.893 231.519 591.857 232.787C601.821 234.055 607.764 239.667 615.267 244.176C581.248 255.495 548.091 268.353 523.694 231.879C523.713 231.636 522.962 231.822 523.187 232.085C548.668 273.546 585.411 258.762 621.644 247.371C622.826 247.953 623.84 247.542 624.423 246.362C647.064 239.303 669.308 234.174 688.289 245.708C704.979 258.289 721.536 272.575 717.828 282.338C717.207 284.005 719.571 285.171 720.417 283.766L720.585 284.759ZM107.799 -442.689C106.994 -444.958 103.709 -443.744 104.288 -441.737C109.433 -425.89 118.494 -422.486 129.348 -410.606C158.067 -379.189 153.376 -344.25 156.996 -305.721C160.096 -273.116 165.803 -239.327 195.267 -220.601C195.98 -220.3 196.544 -221.237 196.094 -221.762C157.538 -249.779 160.145 -302.043 156.738 -346.439C158.626 -339.182 161.002 -331.887 164.166 -325.265C170.271 -312.285 181.277 -302.354 186.105 -288.738C193.179 -269.308 189.854 -248.728 204.814 -232.85C205.489 -232.062 206.56 -233.204 206.129 -233.973C193.219 -254.104 196.246 -277.159 186.077 -297.812C182.256 -305.465 176.332 -311.321 171.722 -318.301C164.715 -329.145 160.223 -340.774 156.276 -353.095C155.81 -356.564 155.607 -360.257 155.123 -363.482C153.39 -375.876 151.414 -388.289 144.875 -398.851C134.871 -415.323 114.179 -423.803 108.081 -443.157L107.799 -442.689ZM-5.4578 -375.281C-6.99098 -380.795 -15.7958 -378.05 -13.7557 -372.742C-8.64586 -359.594 -0.285236 -350.361 10.7813 -344.348C13.9113 -340.426 17.5864 -337.197 21.2424 -333.725C26.3489 -317.39 32.3774 -303.435 28.3053 -285.855C26.4959 -278.396 22.7728 -271.577 22.652 -263.741C22.6007 -250.505 30.9232 -240.784 42.8167 -235.933C43.3046 -235.895 43.5866 -236.364 43.1178 -236.645C24.9228 -245.666 24.5276 -262.614 30.2884 -279.816C32.2276 -285.794 34.1099 -291.041 34.6044 -297.377C35.1784 -307.874 32.863 -319.088 27.1859 -328.112L27.8606 -327.324C37.628 -317.245 42.8899 -306.047 48.0187 -293.143C52.3429 -282.508 55.8054 -273.411 68.1901 -271.709C48.8448 -275.426 48.2346 -302.197 39.0346 -316.4C32.6827 -326.212 23.175 -333.329 15.5082 -342.018C20.0293 -340.194 24.8133 -338.594 29.8794 -337.464C43.6517 -334.672 58.8945 -338.141 72.3469 -334.394C98.5196 -326.957 107.931 -299.744 114.457 -276.433C109.598 -295.936 103.652 -317.24 86.455 -329.615C55.7744 -351.624 7.55183 -324.986 -5.47683 -375.038L-5.4578 -375.281ZM564.935 385.879C559.055 373.161 550.168 364.377 538.82 358.833C535.427 355.136 531.752 351.907 527.814 348.903C521.937 332.998 514.895 319.454 518.01 301.555C519.332 294.057 522.83 286.975 522.463 279.101C521.782 265.809 512.934 256.537 500.983 252.417C500.495 252.379 500.213 252.847 500.926 253.148C519.685 261.232 521.075 278.012 516.271 295.535C514.576 301.532 512.918 307.041 513.156 313.434C513.333 323.745 516.136 334.997 522.339 343.572C522.095 343.553 521.889 343.046 521.664 342.783C511.371 333.154 505.583 322.405 499.684 309.931C494.853 299.502 490.621 290.836 478.442 289.64C497.863 292.382 500.2 319.043 509.945 332.552C516.804 342.159 526.613 348.564 534.806 356.803C530.266 355.223 525.463 353.868 520.114 353.205C506.041 351.126 491.21 355.607 477.701 352.591C451.17 346.597 440.237 320.001 432.454 297.083C438.327 316.174 445.512 337.329 463.273 348.768C495.081 368.903 541.786 339.696 557.818 389.001C559.615 394.29 568.213 391.038 565.891 386.199L564.935 385.879ZM629.166 -72.2364C629.581 -74.4105 630.465 -76.3029 631.349 -78.1952C630.465 -76.3029 629.581 -74.4105 628.434 -72.2935C628.396 -71.8061 629.109 -71.5053 629.166 -72.2364ZM631.349 -78.1952C633.079 -81.4926 634.79 -84.5463 636.745 -87.5809C634.546 -84.5653 632.835 -81.5116 631.349 -78.1952ZM617.224 5.28636C648.287 -15.335 666.091 -45.3272 668.738 -82.3866C670.031 -98.9574 668.378 -115.513 667.476 -132.255C665.966 -160.077 669.573 -181.126 676.602 -208.281C682.352 -215.923 688.648 -224.258 695.318 -231.092C697.083 -231.69 698.866 -232.532 700.387 -233.148C701.908 -233.765 701.553 -235.509 700.634 -236.316C709.107 -244.236 718.083 -249.174 727.296 -247.72C730.205 -247.247 730.566 -251.877 727.657 -252.35C712.627 -254.749 705.543 -245.74 695.641 -235.235C691.361 -233.853 686.817 -232.246 682.537 -230.864C682.594 -231.595 681.9 -232.14 681.149 -231.953C655.261 -224.167 632.836 -226.163 608.789 -238.827C596.991 -244.897 586.602 -253.308 573.638 -257.017C553.469 -262.759 532.07 -259.036 514.961 -247.377C514.961 -247.377 514.942 -247.134 514.961 -247.377C536.614 -260.643 561.893 -260.631 583.878 -249.843C595.939 -243.998 606.346 -235.831 618.709 -230.698C631.334 -225.79 645.068 -222.511 658.394 -223.432C643.563 -218.951 628.378 -216.214 612.859 -218.651C590.305 -222.128 570.215 -232.032 547.15 -232.116C546.662 -232.154 546.605 -231.423 547.093 -231.385C573.985 -230.021 597.091 -214.733 623.457 -212.92C645.413 -211.206 668.77 -221.151 689.799 -229.562C680.667 -219.487 672.287 -209.599 663.681 -199.973C642.196 -185.714 618.503 -177.757 592.919 -173.87C566.34 -169.815 549.407 -182.415 525.635 -189.174C500.194 -196.554 477.728 -194.875 451.843 -190.276C451.111 -190.333 451.26 -189.095 452.011 -189.282C493.287 -196.112 509.851 -188.2 547.765 -173.962C559.921 -169.336 568.777 -166.438 582.346 -167.34C604.287 -168.569 627.545 -174.109 647.956 -184.039C647.392 -183.102 646.828 -182.166 646.283 -181.473C629.845 -165.839 610.914 -152.851 585.346 -146.021C558.013 -138.593 529.66 -143.258 501.972 -137.574L502.46 -137.536C502.46 -137.536 502.425 -140.235 501.392 -139.58C474.468 -127.952 445.317 -141.261 417.119 -132.184C397.988 -126.077 380.185 -114.963 366.526 -100.338C366 -99.8886 366.675 -99.1005 367.201 -99.5498C393.609 -120.289 419.283 -137.899 454.523 -133.432C463.756 -132.221 471.974 -130.599 479.594 -130.739C457.026 -121.468 437.211 -106.589 419.439 -89.588C419.439 -89.588 419.401 -89.1006 419.664 -89.3253C454.263 -117.516 486.561 -135.099 531.513 -138.7C554.73 -140.565 576.408 -141.57 598.862 -149.379C613.75 -154.591 626.8 -161.418 638.764 -170.046C628.368 -153.205 618.647 -135.576 605.495 -121.157C595.292 -109.94 583.706 -102.999 571.276 -97.8399C552.393 -94.9008 527.874 -104.66 509.273 -102.189C489.433 -99.5702 472.815 -91.0605 458.275 -77.7303C458.275 -77.7303 458.237 -77.2429 458.744 -77.4486C483.762 -96.0901 513.443 -105.296 544.384 -99.2035C551.87 -97.6385 558.606 -95.8868 565.212 -95.6164C551.319 -90.5715 536.827 -87.2897 521.977 -82.5647C497.308 -74.6835 476.917 -64.9973 466.663 -40.5451C466.625 -40.0577 467.094 -39.7759 467.376 -40.2442C495.202 -88.5775 548.001 -76.3654 589.259 -101.83C594.668 -105.085 599.402 -109.129 603.929 -113.679C593.786 -87.5018 599.649 -58.8494 571.777 -38.2241C547.548 -20.2565 514.956 -27.2137 491.475 -6.2456C491.212 -6.02094 491.418 -5.51452 491.925 -5.72014C519.424 -27.8456 560.383 -18.0288 584.789 -44.5635C605.964 -67.4278 598.058 -98.2011 613.004 -123.023C613.004 -123.023 613.023 -123.266 613.042 -123.51C626.045 -139.167 636.124 -158.239 645.807 -175.38C650.522 -179.18 655.012 -183.243 659.539 -187.793C661.399 -189.609 663.278 -191.669 665.195 -194.216C666.228 -194.871 667.28 -195.77 668.332 -196.668C661.123 -176.637 662.975 -153.201 664.061 -132.522C664.909 -118.235 665.308 -104.475 664.525 -91.2966C664.525 -91.2966 664.525 -91.2966 664.281 -91.3156C656.559 -83.5825 645.746 -80.2587 637.555 -72.8073C635.189 -70.7855 633.291 -68.482 631.393 -66.1784C634.907 -70.3172 639.114 -73.9115 643.509 -76.7557C650.514 -81.6027 658.831 -84.3859 664.731 -90.7902C662.609 -54.18 651.709 -21.4424 616.869 3.54243C616.343 3.99173 616.793 4.5172 617.544 4.33065L617.224 5.28636ZM39.7598 265.449C27.7959 274.077 27.5386 286.806 29.6639 300.456C33.1511 321.813 37.8995 339.591 30.2598 358.853C22.0661 369.492 11.322 378.215 -3.17319 384.683C-15.6407 390.33 -26.4352 393.41 -36.9353 402.152C-38.7761 403.725 -36.2828 406.371 -34.461 405.042C-16.6545 390.741 4.08843 385.986 21.0108 373.577C21.2548 373.596 21.7237 373.878 21.9867 373.653C36.7482 363.773 52.5069 369.416 68.3708 364.28C80.1982 360.545 87.8279 350.843 95.2136 341.123C95.4956 340.654 94.7828 340.353 94.5198 340.578C86.8901 350.28 78.7534 360.187 66.0263 362.871C59.2873 364.306 51.9876 363.491 45.1188 363.446C40.2016 363.552 35.7534 363.94 31.4729 365.323C33.3899 362.775 34.8189 360.19 36.023 357.342C37.1129 355.956 38.2219 354.326 39.0869 352.678C39.3689 352.209 39.67 351.497 39.952 351.029C40.1579 351.535 40.8898 351.592 41.1717 351.124C55.0782 333.331 76.2107 333.02 86.8729 312.767C94.6581 297.929 99.085 282.093 101.354 265.599C97.073 285.859 90.0601 315.958 71.224 327.727C59.3363 335.38 49.2009 336.305 41.419 347.956C57.4997 314.887 52.6605 276.263 81.8354 248.384C81.8354 248.384 81.8734 247.897 81.6105 248.121C59.2192 267.703 56.3413 291.996 48.8057 319.357C46.0932 328.953 42.9688 337.535 38.9257 345.31C40.5112 318.71 20.6508 287.004 40.6975 266.013C41.2235 265.563 40.7737 265.038 40.0228 265.224L39.7598 265.449ZM-77.5126 296.258C-92.7049 305.369 -112.469 307.014 -129.438 310.593C-130.433 310.76 -130.078 312.504 -129.083 312.336C-113.318 311.606 -97.1946 309.432 -82.9243 302.7C-82.9623 303.188 -82.2685 303.732 -81.7426 303.283C-66.0209 290.535 -47.9524 294.888 -30.4727 287.916C-20.09 283.823 -13.1194 276.277 -7.70433 266.648C-7.4033 265.935 -8.3601 265.616 -8.64211 266.084C-20.5242 286.241 -38.0163 287.082 -58.8891 290.357C-61.3667 290.653 -63.6194 291.213 -65.8721 291.773C-40.3441 269.739 -32.8847 243.352 6.41806 239.8C6.90597 239.838 6.71909 239.088 6.45611 239.313C-10.0982 240.718 -25.4171 245.161 -38.3031 256.168C-52.5039 268.299 -60.7613 286.042 -77.2496 296.033L-77.5126 296.258ZM-197.613 -20.3169C-198.833 -20.4121 -198.722 -18.6872 -197.765 -18.3674C-188.46 -14.9442 -180.375 -11.6162 -171.649 -10.1996C-171.668 -9.95586 -171.687 -9.71216 -171.218 -9.43043C-160.155 -0.231024 -144.415 5.65583 -129.87 4.8299C-120.26 4.35411 -111.116 0.409635 -101.488 -0.309798C-88.1622 -1.231 -76.4175 2.38267 -64.2611 7.00918C-63.7732 7.04727 -63.4912 6.5789 -63.9601 6.29711C-76.525 -2.52914 -91.7802 -5.19101 -106.909 -3.18465C-118.809 -1.66184 -130.205 2.8423 -142.251 -0.059356C-149.719 -1.86809 -156.264 -6.05655 -162.886 -9.27032C-158.475 -9.17125 -154.008 -9.80323 -149.24 -11.1472C-123.126 -18.6706 -104.668 -28.7527 -76.7871 -21.1826C-76.0552 -21.1255 -75.4912 -22.0622 -76.185 -22.6067C-92.8055 -29.7881 -109.265 -29.6019 -126.18 -23.5672C-138.534 -19.3829 -151.397 -11.806 -164.872 -12.1223C-176.639 -12.3053 -186.166 -19.1782 -197.613 -20.3169ZM444.012 -222.024C452.564 -234.105 462.485 -244.854 474.429 -253.238C479.106 -256.551 484.682 -258.812 488.684 -262.913C496.931 -271.095 498.184 -283.992 502.905 -294.165C508.557 -297.402 513.779 -301.407 517.857 -306.483C533.265 -324.649 538.544 -348.263 542.303 -371.261C542.105 -343.572 560.429 -314.192 540.81 -289.245C540.528 -288.777 540.978 -288.251 541.504 -288.701C568.578 -317.969 534.258 -359.385 549.138 -392.793C549.702 -393.73 548.051 -394.594 547.487 -393.657C545.494 -390.135 544.214 -386.313 543.197 -382.714C542.579 -384.234 539.896 -384.443 539.5 -382.513C537.253 -369.449 535.437 -355.616 531.463 -342.442C523.665 -333.734 516.729 -323.488 507.338 -316.375C495.317 -307.016 482.781 -306.769 468.59 -304.199C454.399 -301.629 442.587 -294.951 431.561 -285.76C431.561 -285.76 431.523 -285.272 431.805 -285.741C445.743 -297.647 460.463 -303.853 478.481 -305.143C485.388 -305.585 491.506 -305.352 498.077 -307.782C511.257 -313.127 521.124 -326.332 529.638 -337.926C528.32 -333.616 526.533 -329.587 524.501 -325.578C512.578 -301.746 492.769 -293.24 470.125 -282.995C455.104 -276.076 445.469 -268.983 441.023 -252.904C441.004 -252.66 441.229 -252.397 441.511 -252.866C451.952 -276.568 478.344 -281.372 499.638 -293.195C497.965 -290.628 496.761 -287.78 495.538 -284.688C490.665 -272.565 485.89 -264.847 475.016 -257.605C461.287 -248.38 450.822 -236.938 442.362 -222.888C442.061 -222.176 443.018 -221.856 443.3 -222.325L444.012 -222.024ZM310.613 336.116C310.796 340.053 311.487 343.785 312.703 347.067C311.75 343.56 311.059 339.828 310.613 336.116ZM310.591 320.669C310.173 326.03 310.261 331.185 310.613 336.116C310.242 331.429 310.379 326.536 311.323 320.726C311.361 320.238 310.629 320.181 310.591 320.669ZM397.402 453.708C397.402 453.708 398.546 454.778 399.316 454.348C399.296 454.592 399.258 455.079 399.239 455.323C399.806 470.077 401.374 478.29 410.539 489.793C412.319 492.139 416.188 489.744 414.408 487.398C396.058 464.636 411.119 419.474 401.033 391.473C388.532 356.663 362.009 325.418 380.498 286.653C380.536 286.165 380.067 285.884 379.785 286.352C367.26 311.608 374.273 334.956 384.851 359.808C392.134 376.558 399.851 390.89 402.122 408.965C403.946 423.327 399.446 436.951 398.85 450.879C395.172 431.959 386.632 415.601 372.457 402.236C372.457 402.236 372.495 401.749 372.514 401.505C360.295 385.106 363.712 366.494 360.766 347.631C358.79 335.218 354.786 323.628 349.786 312.205C349.786 312.205 349.543 312.186 349.786 312.205C357.855 331.468 360.313 350.293 361.155 370.953C361.594 381.039 362.842 390.208 368.127 397.976C346.919 380.384 320.09 371.915 312.459 347.048C315.114 357.062 320.284 366.292 329.247 374.101C339.578 383.243 352.729 387.702 363.343 396.376C382.057 411.322 391.833 430.718 397.139 453.933L397.402 453.708ZM283.021 447.477L282.438 448.657C282.438 448.657 282.831 449.914 283.357 449.464C287.424 472.828 279.353 491.321 264.826 510.782C263.999 511.943 265.592 513.538 266.663 512.396C284.153 495.864 292.391 478.364 288.156 454.007C287.615 451.513 287.073 449.019 286.287 446.506C307.798 425.629 291.166 393.439 294.139 367.928C294.177 367.441 293.689 367.403 293.651 367.89C291.686 380.486 294.452 392.225 295.677 404.824C297.162 420.386 292.384 431.291 285.296 443.486C281.78 431.934 276.499 420.979 272.739 409.408C264.806 385.252 266.629 365.045 276.3 341.773C276.357 341.042 275.644 340.742 275.362 341.21C263.22 358.405 261.718 377.656 266.783 397.665C270.483 413.155 277.975 427.224 282.182 442.508C282.536 444.252 282.91 445.752 283.265 447.496L283.021 447.477ZM676.116 58.9177C690.406 51.9424 700.835 56.6793 708.003 40.322C713.082 28.7051 713.64 15.2642 719.882 4.47356C734.603 -1.73257 749.826 -4.95732 766.767 1.26847C768.924 1.92721 769.904 -1.18358 768.028 -2.31065C755.143 -10.1812 742.381 -10.1967 729.803 -6.2751C730.329 -6.7244 730.836 -6.93002 731.362 -7.37931C732.132 -7.80957 731.495 -9.08512 730.744 -8.89855C726.521 -8.24755 723.403 -6.03917 721.204 -3.0236C715.121 -0.556382 709.224 2.66095 703.309 6.12194C690.696 7.34393 679.199 0.562348 666.459 -2.88379C655.633 -5.6902 644.991 -4.55959 634.852 -0.447579C634.852 -0.447579 634.814 0.0398299 634.833 -0.203875C653.308 -7.34276 667.283 -0.858161 684.73 5.16202C689.758 6.78035 694.58 7.89226 699.479 8.02945C680.7 19.0673 661.826 31.3237 642.664 31.5441C594.525 31.9544 569.178 -11.213 523.461 24.2007C523.461 24.2007 523.423 24.6881 523.667 24.7072C574.209 -12.7816 600.899 38.3361 648.573 34.4571C654.991 33.9775 661.262 32.2603 667.326 30.0368C662.649 33.3493 658.422 37.1873 652.995 40.6864C637.464 50.9972 620.646 52.6265 603.142 47.3374C587.551 42.688 576.038 32.9631 559.648 38.5485C559.16 38.5104 559.591 39.2796 559.835 39.2986C584.012 34.5662 604.127 56.7308 629.448 53.0683C649.307 50.2054 660.713 36.1403 676.695 26.3551C690.176 20.2974 703.097 11.9895 716.334 5.91274C715.374 8.77985 714.414 11.647 713.473 14.2704C710.855 22.6471 710.747 36.6134 705.034 43.7678C698.25 52.0645 685.13 53.4921 675.929 58.1676C675.685 58.1485 675.872 58.8987 676.135 58.674L676.116 58.9177ZM497.574 443.875C490.547 433.275 482.13 424.772 471.101 418.272C449.982 405.836 430.377 399.157 429.919 370.436C429.643 383.409 433.815 395.993 443.921 404.873C450.127 410.261 458.026 412.839 465.097 416.578C478.039 423.717 487.639 432.802 496.034 444.736C496.709 445.524 497.986 444.888 497.33 443.856L497.574 443.875ZM654.777 329.147C656.016 328.999 655.68 327.011 654.46 326.916C642.655 327.22 632.279 324.939 623.092 316.867C618.048 312.306 614.075 306.602 609.032 302.04C602.356 296.37 595.003 293.099 586.274 294.87C606.32 292.757 613.467 314.4 627.72 323.603C635.897 328.899 645.317 330.86 654.777 329.147ZM755.717 105.094C771.872 108.807 787.393 108.057 803.162 104.139C803.913 103.953 803.52 102.696 802.769 102.883C770.164 108.674 747.033 100.003 718.389 86.4895C701.807 78.8206 691.348 83.8883 678.63 95.8897C678.63 95.8897 678.592 96.377 678.874 95.9087C706.186 73.0332 728.717 98.8187 755.736 104.85L755.717 105.094ZM214.641 421.054C216.019 431.704 218.391 442.187 218.286 452.966C218.175 470.119 211.369 481.847 200.789 494.75C199.173 496.586 201.704 498.745 203.545 497.172C242.412 461.469 198.55 410.237 224.491 370.337C224.792 369.625 223.854 369.062 223.553 369.774C212.783 385.114 212.633 402.755 214.904 420.83L214.641 421.054ZM-154.909 -315.848C-160.155 -324.103 -164.185 -329.075 -173.151 -333.698C-174.332 -334.281 -175.948 -332.445 -174.542 -331.6C-151.138 -313.837 -146.308 -284.53 -118.511 -269.611C-116.616 -268.728 -114.702 -268.088 -113.052 -267.224C-97.078 -251.757 -78.5159 -234.862 -59.9661 -224.098C-40.9474 -213.051 -25.5616 -227.786 -5.87381 -228.456C-5.62985 -228.437 -5.5918 -228.924 -5.83577 -228.944C-13.6614 -229.309 -19.6876 -227.573 -26.9715 -225.445C-42.7783 -221.04 -53.4934 -222.121 -66.4321 -232.448C-78.902 -242.492 -90.8079 -253.474 -103.259 -263.762C-77.8178 -256.383 -50.0381 -260.098 -26.1593 -248.427C-51.8532 -265.143 -84.7974 -258.153 -112.728 -271.366C-113.91 -271.949 -114.604 -272.493 -115.786 -273.076C-116.235 -273.601 -116.948 -273.902 -117.398 -274.428C-117.642 -274.447 -118.13 -274.485 -118.374 -274.504C-135.498 -284.667 -143.985 -298.568 -154.909 -315.848ZM-101.455 -356.051C-101.455 -356.051 -103.162 -356.184 -102.731 -355.415C-95.9015 -336.004 -83.2514 -318.835 -61.3334 -316.634C-46.2461 -314.966 -32.9707 -321.53 -18.9833 -308.915C-7.75227 -298.722 -11.3141 -284.535 -8.39996 -271.558C-6.00841 -261.32 -4.60504 -257.287 3.7399 -250.997C4.20879 -250.715 4.73472 -251.165 4.28486 -251.69C-15.44 -269.411 1.57848 -301.916 -24.0807 -315.933C-32.3149 -320.498 -40.0297 -319.139 -48.8312 -319.581C-76.9052 -321.527 -89.4478 -333.784 -100.948 -356.257L-101.455 -356.051ZM202.689 -498.046C202.689 -498.046 201.057 -499.154 200.981 -498.179C199.997 -473.003 208.817 -453.927 197.004 -428.371C190.515 -414.412 182.603 -404.242 179.434 -388.799C173.267 -360.105 179.938 -332.37 195.715 -308.092C195.715 -308.092 196.203 -308.054 195.959 -308.073C176.08 -339.536 175.099 -370.994 186.617 -402.213C186.725 -397.301 188.841 -392.968 192.44 -388.764C199.432 -380.863 206.446 -376.393 209.231 -364.898C211.435 -355.409 208.834 -344.089 204.49 -335.602C209.924 -345.475 211.889 -358.071 209.085 -369.322C205.553 -383.818 184.447 -390.124 187.917 -406.279C190.683 -413.418 194.181 -420.5 198.148 -427.301C214.092 -455.477 202.712 -466.907 202.445 -498.065L202.689 -498.046ZM260.962 -480.503C260.962 -480.503 260.249 -480.804 260.474 -480.541C260.428 -454.802 260.475 -427.094 245.25 -404.991C245.231 -404.747 245.681 -404.222 245.719 -404.709C262.426 -426.942 262.342 -454.162 260.981 -480.747L260.962 -480.503ZM268.323 -502.484L270.11 -506.513L268.323 -502.484ZM437.71 -333.088C438.234 -368.107 471.822 -380.195 490.614 -403.981C490.614 -403.981 491.121 -404.187 491.14 -404.43C491.14 -404.43 491.159 -404.674 491.178 -404.918C491.723 -405.611 492.249 -406.06 492.55 -406.772C504.41 -423.499 510.608 -446.306 516.54 -465.702C517.161 -467.37 514.291 -468.329 513.67 -466.661C507.535 -450.959 503.726 -433.604 496.391 -418.24C493.456 -412.095 489.867 -406.981 485.583 -402.412C463.312 -390.666 423.092 -406.8 412.382 -376.499C412.344 -376.012 412.832 -375.974 412.87 -376.461C424.125 -407.455 460.103 -390.427 482.652 -399.454C476.79 -393.537 470.479 -388.146 463.885 -382.286C448.332 -368.544 435.461 -354.594 435.983 -332.978C435.926 -332.247 437.146 -332.151 437.203 -332.883L437.71 -333.088Z" fill="url(#paint0_angular_102_371)"/>
<defs>
<radialGradient id="paint0_angular_102_371" cx="0" cy="0" r="1" gradientUnits="userSpaceOnUse" gradientTransform="translate(261.401 -6.30285) rotate(58.1331) scale(516.922 517.092)">
<stop offset="0.47" stop-color="#B76500"/>
<stop offset="1" stop-color="#D79004"/>
</radialGradient>
</defs>
</svg>
