<svg width="305" height="37" viewBox="0 0 305 37" fill="none" xmlns="http://www.w3.org/2000/svg">
<g filter="url(#filter0_di_399_294)">
<path d="M4.16016 28.461V22.2306C8.44068 22.1944 12.0682 20.961 15.0428 18.5305C16.2943 17.5511 17.3645 16.3268 18.2532 14.8576C17.3826 13.4247 16.3125 12.1914 15.0428 11.1575C12.0864 8.76333 8.45882 7.52089 4.16016 7.4302V1.14545H12.1045C14.6438 1.14545 16.8022 1.28148 18.5797 1.55355C20.3572 1.86189 21.8082 2.2972 22.9328 2.85947C25.2726 4.11098 27.0863 5.76152 28.3741 7.81109C29.6438 9.89694 30.2786 12.2367 30.2786 14.8304C30.2786 17.406 29.6438 19.7276 28.3741 21.7953C27.1408 23.8086 25.327 25.4592 22.9328 26.747C21.6994 27.3636 20.2303 27.799 18.5253 28.0529C16.7478 28.3249 14.3717 28.461 11.3971 28.461H4.16016ZM4.16016 20.5166V9.17143C5.26656 9.31653 6.20066 9.93321 6.96245 11.0215C7.74237 12.0916 8.13234 13.3613 8.13234 14.8304C8.13234 16.3177 7.74237 17.6055 6.96245 18.6938C6.20066 19.782 5.26656 20.3897 4.16016 20.5166Z" fill="#AB61C4"/>
<path d="M52.5402 10.3413C51.851 9.4707 51.0166 8.70891 50.0372 8.05595C47.643 6.53237 44.6684 5.77059 41.1134 5.77059V6.80444C42.0566 6.80444 42.8637 7.14906 43.5348 7.8383C44.224 8.52753 44.5686 9.3528 44.5686 10.3141C44.5686 11.2935 44.224 12.1279 43.5348 12.8171C42.8637 13.4882 42.0566 13.8238 41.1134 13.8238V14.8576C44.6503 14.8576 47.6249 14.1049 50.0372 12.5995C51.0166 11.9828 51.851 11.2301 52.5402 10.3413ZM33.3595 28.461V1.14545H45.7113C49.2845 1.14545 52.0142 1.93444 53.9006 3.51243C55.7869 5.09042 56.73 7.36671 56.73 10.3413C56.73 12.3002 56.2585 13.8963 55.3153 15.1297C54.3721 16.3812 53.0843 17.1158 51.4519 17.3334L58.7433 28.461H47.7518L42.9907 19.4284V28.461H33.3595Z" fill="#AB61C4"/>
<path d="M69.9863 28.461V16.3812L60.8448 1.14545H73.632L76.6791 8.51846L76.7335 8.70891C77.2051 7.43927 77.7039 6.17869 78.2299 4.92718C78.7559 3.67567 79.2909 2.41509 79.8351 1.14545H92.6494L83.1815 16.3812V28.461H69.9863Z" fill="#AB61C4"/>
<path d="M112 28.461V1.14551H130.256V8.54573H121.631V11.1848H129.467V18.1769H121.631V21.0608H130.501V28.461H112Z" fill="#AB61C4"/>
<path d="M141.471 28.461V16.3813L132.33 1.14551H145.117L148.164 8.51853L148.219 8.70897C148.69 7.43932 149.189 6.17875 149.715 4.92724C150.241 3.67573 150.776 2.41515 151.32 1.14551H164.135L154.667 16.3813V28.461H141.471Z" fill="#AB61C4"/>
<path d="M168.766 28.461V1.14551H187.022V8.54573H178.397V11.1848H186.233V18.1769H178.397V21.0608H187.267V28.461H168.766Z" fill="#AB61C4"/>
<ellipse cx="261.388" cy="6.37023" rx="2.5796" ry="3.61144" fill="#AB61C4"/>
<path d="M206 28.461V1.14551H215.849V10.2325H221.807V1.14551H231.629V28.461H221.807V18.8299H215.849V28.461H206Z" fill="#AB61C4"/>
<path d="M257.597 28.461L247.177 1.14551H257.815C258.595 3.86618 259.393 6.57778 260.209 9.28032C261.025 11.9647 261.633 14.7035 262.032 17.4967H262.222C262.712 14.7217 263.374 11.9828 264.208 9.28032C265.043 6.57778 265.868 3.86618 266.684 1.14551H277.131L266.738 28.461H257.597Z" fill="#AB61C4"/>
<path d="M281.681 28.461V1.14551H299.937V8.54573H291.313V11.1848H299.148V18.1769H291.313V21.0608H300.182V28.461H281.681Z" fill="#AB61C4"/>
<rect x="234.879" width="10.3184" height="27.8597" fill="#AB61C4"/>
</g>
<defs>
<filter id="filter0_di_399_294" x="0.160156" y="0" width="304.022" height="36.4611" filterUnits="userSpaceOnUse" color-interpolation-filters="sRGB">
<feFlood flood-opacity="0" result="BackgroundImageFix"/>
<feColorMatrix in="SourceAlpha" type="matrix" values="0 0 0 0 0 0 0 0 0 0 0 0 0 0 0 0 0 0 127 0" result="hardAlpha"/>
<feOffset dy="4"/>
<feGaussianBlur stdDeviation="2"/>
<feComposite in2="hardAlpha" operator="out"/>
<feColorMatrix type="matrix" values="0 0 0 0 0 0 0 0 0 0 0 0 0 0 0 0 0 0 0.25 0"/>
<feBlend mode="normal" in2="BackgroundImageFix" result="effect1_dropShadow_399_294"/>
<feBlend mode="normal" in="SourceGraphic" in2="effect1_dropShadow_399_294" result="shape"/>
<feColorMatrix in="SourceAlpha" type="matrix" values="0 0 0 0 0 0 0 0 0 0 0 0 0 0 0 0 0 0 127 0" result="hardAlpha"/>
<feOffset dx="2" dy="5"/>
<feGaussianBlur stdDeviation="2"/>
<feComposite in2="hardAlpha" operator="arithmetic" k2="-1" k3="1"/>
<feColorMatrix type="matrix" values="0 0 0 0 0 0 0 0 0 0 0 0 0 0 0 0 0 0 0.25 0"/>
<feBlend mode="normal" in2="shape" result="effect2_innerShadow_399_294"/>
</filter>
</defs>
</svg>
