<svg width="329" height="155" viewBox="0 0 329 155" fill="none" xmlns="http://www.w3.org/2000/svg">
<g filter="url(#filter0_i_430_417)">
<path d="M128.736 36V1.7H135.351L152.011 23.015V1.7H159.361V36H152.746L136.086 14.685V36H128.736ZM176.74 11.059C174.617 13.1823 173.555 15.7793 173.555 18.85C173.555 21.9207 174.617 24.534 176.74 26.69C178.896 28.8133 181.51 29.875 184.58 29.875C187.651 29.875 190.248 28.8133 192.371 26.69C194.527 24.534 195.605 21.9207 195.605 18.85C195.605 15.7793 194.527 13.1823 192.371 11.059C190.248 8.903 187.651 7.825 184.58 7.825C181.51 7.825 178.896 8.903 176.74 11.059ZM171.301 31.492C167.741 27.9967 165.96 23.7827 165.96 18.85C165.96 13.9173 167.741 9.70333 171.301 6.208C174.895 2.71266 179.321 0.964998 184.58 0.964998C189.84 0.964998 194.25 2.71266 197.81 6.208C201.404 9.70333 203.2 13.9173 203.2 18.85C203.2 23.7827 201.404 27.9967 197.81 31.492C194.25 34.9873 189.84 36.735 184.58 36.735C179.321 36.735 174.895 34.9873 171.301 31.492ZM28.5269 83.975L33.4269 88.875C32.4142 90.1163 31.1892 91.2597 29.7519 92.305C26.4199 94.5917 22.7449 95.735 18.7269 95.735C13.4675 95.735 9.04119 93.9873 5.44786 90.492C1.88719 86.9967 0.106856 82.7827 0.106856 77.85C0.106856 72.9173 1.88719 68.7033 5.44786 65.208C9.04119 61.7127 13.4675 59.965 18.7269 59.965C22.7449 59.965 26.3545 61.1083 29.5559 63.395C30.9279 64.375 32.1365 65.5183 33.1819 66.825L28.2819 71.725C27.6285 70.8757 26.7955 70.059 25.7829 69.275C23.6269 67.6417 21.2749 66.825 18.7269 66.825C15.6562 66.825 13.0429 67.903 10.8869 70.059C8.76352 72.1823 7.70186 74.7793 7.70186 77.85C7.70186 80.9207 8.76352 83.534 10.8869 85.69C13.0429 87.8133 15.6562 88.875 18.7269 88.875C21.3075 88.875 23.7412 88.0583 26.0279 86.425C27.0732 85.641 27.9062 84.8243 28.5269 83.975ZM46.4406 70.059C44.3172 72.1823 43.2556 74.7793 43.2556 77.85C43.2556 80.9207 44.3172 83.534 46.4406 85.69C48.5966 87.8133 51.2099 88.875 54.2806 88.875C57.3512 88.875 59.9482 87.8133 62.0716 85.69C64.2276 83.534 65.3056 80.9207 65.3056 77.85C65.3056 74.7793 64.2276 72.1823 62.0716 70.059C59.9482 67.903 57.3512 66.825 54.2806 66.825C51.2099 66.825 48.5966 67.903 46.4406 70.059ZM41.0016 90.492C37.4409 86.9967 35.6606 82.7827 35.6606 77.85C35.6606 72.9173 37.4409 68.7033 41.0016 65.208C44.5949 61.7127 49.0212 59.965 54.2806 59.965C59.5399 59.965 63.9499 61.7127 67.5106 65.208C71.1039 68.7033 72.9006 72.9173 72.9006 77.85C72.9006 82.7827 71.1039 86.9967 67.5106 90.492C63.9499 93.9873 59.5399 95.735 54.2806 95.735C49.0212 95.735 44.5949 93.9873 41.0016 90.492ZM79.4964 95V60.7H86.1114L102.771 82.015V60.7H110.121V95H103.506L86.8464 73.685V95H79.4964ZM125.296 95V67.56H115.496V60.7H142.446V67.56H132.646V95H125.296ZM147.828 95V60.7H155.178V95H147.828ZM164.002 95V60.7H170.617L187.277 82.015V60.7H194.627V95H188.012L171.352 73.685V95H164.002ZM203.187 80.79V60.7H210.537V80.79C210.537 83.2073 211.239 85.1673 212.644 86.67C214.049 88.14 215.878 88.875 218.132 88.875C220.386 88.875 222.215 88.14 223.62 86.67C225.025 85.1673 225.727 83.2073 225.727 80.79V60.7H233.077V80.79C233.077 85.2 231.689 88.7933 228.912 91.57C226.135 94.3467 222.542 95.735 218.132 95.735C213.722 95.735 210.129 94.3467 207.352 91.57C204.575 88.7933 203.187 85.2 203.187 80.79ZM241.665 95V60.7H249.015V95H241.665ZM257.839 95V60.7H264.454L281.114 82.015V60.7H288.464V95H281.849L265.189 73.685V95H257.839ZM314.909 82.015V76.135H328.629V89.12C327.518 90.394 326.244 91.5047 324.807 92.452C321.606 94.6407 317.898 95.735 313.684 95.735C308.425 95.735 303.998 93.9873 300.405 90.492C296.844 86.9967 295.064 82.7827 295.064 77.85C295.064 72.9173 296.844 68.7033 300.405 65.208C303.998 61.7127 308.425 59.965 313.684 59.965C317.702 59.965 321.312 61.1083 324.513 63.395C325.885 64.375 327.094 65.5183 328.139 66.825L323.239 71.725C322.586 70.8757 321.753 70.059 320.74 69.275C318.584 67.6417 316.232 66.825 313.684 66.825C310.613 66.825 308 67.903 305.844 70.059C303.721 72.1823 302.659 74.7793 302.659 77.85C302.659 80.9207 303.721 83.534 305.844 85.69C308 87.8133 310.613 88.875 313.684 88.875C315.84 88.875 317.718 88.434 319.319 87.552C320.168 87.0947 320.822 86.6373 321.279 86.18V82.015H314.909ZM123.807 154V119.7H149.287V126.56H131.157V133.175H145.367V139.79H131.157V147.14H149.777V154H123.807ZM156.394 154V119.7H168.889C174.116 119.7 178.444 121.35 181.874 124.649C185.304 127.948 187.019 132.015 187.019 136.85C187.019 141.685 185.304 145.752 181.874 149.051C178.444 152.35 174.116 154 168.889 154H156.394ZM163.744 147.14H168.889C171.927 147.14 174.442 146.16 176.435 144.2C178.428 142.24 179.424 139.79 179.424 136.85C179.424 133.91 178.428 131.46 176.435 129.5C174.442 127.54 171.927 126.56 168.889 126.56H163.744V147.14ZM194.357 143.465L193.132 119.7H200.972L199.747 143.465H194.357ZM194.259 153.363C193.508 152.612 193.132 151.681 193.132 150.57C193.132 149.459 193.508 148.528 194.259 147.777C195.011 147.026 195.942 146.65 197.052 146.65C198.163 146.65 199.094 147.026 199.845 147.777C200.597 148.528 200.972 149.459 200.972 150.57C200.972 151.681 200.597 152.612 199.845 153.363C199.094 154.114 198.163 154.49 197.052 154.49C195.942 154.49 195.011 154.114 194.259 153.363ZM210.053 143.465L208.828 119.7H216.668L215.443 143.465H210.053ZM209.955 153.363C209.203 152.612 208.828 151.681 208.828 150.57C208.828 149.459 209.203 148.528 209.955 147.777C210.706 147.026 211.637 146.65 212.748 146.65C213.858 146.65 214.789 147.026 215.541 147.777C216.292 148.528 216.668 149.459 216.668 150.57C216.668 151.681 216.292 152.612 215.541 153.363C214.789 154.114 213.858 154.49 212.748 154.49C211.637 154.49 210.706 154.114 209.955 153.363Z" fill="#C089D3"/>
</g>
<defs>
<filter id="filter0_i_430_417" x="0.106934" y="0.965088" width="330.522" height="157.525" filterUnits="userSpaceOnUse" color-interpolation-filters="sRGB">
<feFlood flood-opacity="0" result="BackgroundImageFix"/>
<feBlend mode="normal" in="SourceGraphic" in2="BackgroundImageFix" result="shape"/>
<feColorMatrix in="SourceAlpha" type="matrix" values="0 0 0 0 0 0 0 0 0 0 0 0 0 0 0 0 0 0 127 0" result="hardAlpha"/>
<feOffset dx="2" dy="5"/>
<feGaussianBlur stdDeviation="2"/>
<feComposite in2="hardAlpha" operator="arithmetic" k2="-1" k3="1"/>
<feColorMatrix type="matrix" values="0 0 0 0 0 0 0 0 0 0 0 0 0 0 0 0 0 0 0.25 0"/>
<feBlend mode="normal" in2="shape" result="effect1_innerShadow_430_417"/>
</filter>
</defs>
</svg>
