<svg width="648" height="44" viewBox="0 0 648 44" fill="none" xmlns="http://www.w3.org/2000/svg">
<g filter="url(#filter0_i_399_309)">
<path d="M0.776953 43V0.999997H8.87695L29.277 27.1V0.999997H38.277V43H30.177L9.77695 16.9V43H0.776953ZM59.5582 12.46C56.9582 15.06 55.6582 18.24 55.6582 22C55.6582 25.76 56.9582 28.96 59.5582 31.6C62.1982 34.2 65.3982 35.5 69.1582 35.5C72.9182 35.5 76.0982 34.2 78.6982 31.6C81.3382 28.96 82.6582 25.76 82.6582 22C82.6582 18.24 81.3382 15.06 78.6982 12.46C76.0982 9.82 72.9182 8.5 69.1582 8.5C65.3982 8.5 62.1982 9.82 59.5582 12.46ZM52.8982 37.48C48.5382 33.2 46.3582 28.04 46.3582 22C46.3582 15.96 48.5382 10.8 52.8982 6.52C57.2982 2.24 62.7182 0.099998 69.1582 0.099998C75.5982 0.099998 80.9982 2.24 85.3582 6.52C89.7582 10.8 91.9582 15.96 91.9582 22C91.9582 28.04 89.7582 33.2 85.3582 37.48C80.9982 41.76 75.5982 43.9 69.1582 43.9C62.7182 43.9 57.2982 41.76 52.8982 37.48ZM144.732 29.5L150.732 35.5C149.492 37.02 147.992 38.42 146.232 39.7C142.152 42.5 137.652 43.9 132.732 43.9C126.292 43.9 120.872 41.76 116.472 37.48C112.112 33.2 109.932 28.04 109.932 22C109.932 15.96 112.112 10.8 116.472 6.52C120.872 2.24 126.292 0.099998 132.732 0.099998C137.652 0.099998 142.072 1.5 145.992 4.3C147.672 5.5 149.152 6.9 150.432 8.5L144.432 14.5C143.632 13.46 142.612 12.46 141.372 11.5C138.732 9.5 135.852 8.5 132.732 8.5C128.972 8.5 125.772 9.82 123.132 12.46C120.532 15.06 119.232 18.24 119.232 22C119.232 25.76 120.532 28.96 123.132 31.6C125.772 34.2 128.972 35.5 132.732 35.5C135.892 35.5 138.872 34.5 141.672 32.5C142.952 31.54 143.972 30.54 144.732 29.5ZM166.668 12.46C164.068 15.06 162.768 18.24 162.768 22C162.768 25.76 164.068 28.96 166.668 31.6C169.308 34.2 172.508 35.5 176.268 35.5C180.028 35.5 183.208 34.2 185.808 31.6C188.448 28.96 189.768 25.76 189.768 22C189.768 18.24 188.448 15.06 185.808 12.46C183.208 9.82 180.028 8.5 176.268 8.5C172.508 8.5 169.308 9.82 166.668 12.46ZM160.008 37.48C155.648 33.2 153.468 28.04 153.468 22C153.468 15.96 155.648 10.8 160.008 6.52C164.408 2.24 169.828 0.099998 176.268 0.099998C182.708 0.099998 188.108 2.24 192.468 6.52C196.868 10.8 199.068 15.96 199.068 22C199.068 28.04 196.868 33.2 192.468 37.48C188.108 41.76 182.708 43.9 176.268 43.9C169.828 43.9 164.408 41.76 160.008 37.48ZM207.144 43V0.999997H215.244L235.644 27.1V0.999997H244.644V43H236.544L216.144 16.9V43H207.144ZM263.225 43V9.4H251.225V0.999997H284.225V9.4H272.225V43H263.225ZM290.816 43V0.999997H299.816V43H290.816ZM310.621 43V0.999997H318.721L339.121 27.1V0.999997H348.121V43H340.021L319.621 16.9V43H310.621ZM358.602 25.6V0.999997H367.602V25.6C367.602 28.56 368.462 30.96 370.182 32.8C371.902 34.6 374.142 35.5 376.902 35.5C379.662 35.5 381.902 34.6 383.622 32.8C385.342 30.96 386.202 28.56 386.202 25.6V0.999997H395.202V25.6C395.202 31 393.502 35.4 390.102 38.8C386.702 42.2 382.302 43.9 376.902 43.9C371.502 43.9 367.102 42.2 363.702 38.8C360.302 35.4 358.602 31 358.602 25.6ZM405.718 43V0.999997H414.718V43H405.718ZM425.523 43V0.999997H433.623L454.023 27.1V0.999997H463.023V43H454.923L434.523 16.9V43H425.523ZM495.404 27.1V19.9H512.204V35.8C510.844 37.36 509.284 38.72 507.524 39.88C503.604 42.56 499.064 43.9 493.904 43.9C487.464 43.9 482.044 41.76 477.644 37.48C473.284 33.2 471.104 28.04 471.104 22C471.104 15.96 473.284 10.8 477.644 6.52C482.044 2.24 487.464 0.099998 493.904 0.099998C498.824 0.099998 503.244 1.5 507.164 4.3C508.844 5.5 510.324 6.9 511.604 8.5L505.604 14.5C504.804 13.46 503.784 12.46 502.544 11.5C499.904 9.5 497.024 8.5 493.904 8.5C490.144 8.5 486.944 9.82 484.304 12.46C481.704 15.06 480.404 18.24 480.404 22C480.404 25.76 481.704 28.96 484.304 31.6C486.944 34.2 490.144 35.5 493.904 35.5C496.544 35.5 498.844 34.96 500.804 33.88C501.844 33.32 502.644 32.76 503.204 32.2V27.1H495.404ZM534.097 43V0.999997H565.297V9.4H543.097V17.5H560.497V25.6H543.097V34.6H565.897V43H534.097ZM574 43V0.999997H589.3C595.7 0.999997 601 3.02 605.2 7.06C609.4 11.1 611.5 16.08 611.5 22C611.5 27.92 609.4 32.9 605.2 36.94C601 40.98 595.7 43 589.3 43H574ZM583 34.6H589.3C593.02 34.6 596.1 33.4 598.54 31C600.98 28.6 602.2 25.6 602.2 22C602.2 18.4 600.98 15.4 598.54 13C596.1 10.6 593.02 9.4 589.3 9.4H583V34.6ZM620.486 30.1L618.986 0.999997H628.586L627.086 30.1H620.486ZM620.366 42.22C619.446 41.3 618.986 40.16 618.986 38.8C618.986 37.44 619.446 36.3 620.366 35.38C621.286 34.46 622.426 34 623.786 34C625.146 34 626.286 34.46 627.206 35.38C628.126 36.3 628.586 37.44 628.586 38.8C628.586 40.16 628.126 41.3 627.206 42.22C626.286 43.14 625.146 43.6 623.786 43.6C622.426 43.6 621.286 43.14 620.366 42.22ZM639.704 30.1L638.204 0.999997H647.804L646.304 30.1H639.704ZM639.584 42.22C638.664 41.3 638.204 40.16 638.204 38.8C638.204 37.44 638.664 36.3 639.584 35.38C640.504 34.46 641.644 34 643.004 34C644.364 34 645.504 34.46 646.424 35.38C647.344 36.3 647.804 37.44 647.804 38.8C647.804 40.16 647.344 41.3 646.424 42.22C645.504 43.14 644.364 43.6 643.004 43.6C641.644 43.6 640.504 43.14 639.584 42.22Z" fill="#C089D3"/>
</g>
<defs>
<filter id="filter0_i_399_309" x="0.776855" y="0.100098" width="649.027" height="47.7998" filterUnits="userSpaceOnUse" color-interpolation-filters="sRGB">
<feFlood flood-opacity="0" result="BackgroundImageFix"/>
<feBlend mode="normal" in="SourceGraphic" in2="BackgroundImageFix" result="shape"/>
<feColorMatrix in="SourceAlpha" type="matrix" values="0 0 0 0 0 0 0 0 0 0 0 0 0 0 0 0 0 0 127 0" result="hardAlpha"/>
<feOffset dx="2" dy="5"/>
<feGaussianBlur stdDeviation="2"/>
<feComposite in2="hardAlpha" operator="arithmetic" k2="-1" k3="1"/>
<feColorMatrix type="matrix" values="0 0 0 0 0 0 0 0 0 0 0 0 0 0 0 0 0 0 0.25 0"/>
<feBlend mode="normal" in2="shape" result="effect1_innerShadow_399_309"/>
</filter>
</defs>
</svg>
