<svg width="569" height="402" viewBox="0 0 569 402" fill="none" xmlns="http://www.w3.org/2000/svg">
<path style="mix-blend-mode:multiply" opacity="0.1" d="M-97.8308 132.346C-96.3484 131.745 -94.6281 131.162 -92.9263 130.817C-93.1641 130.799 -93.6398 130.762 -93.8961 130.981C-95.1222 131.363 -96.6047 131.964 -97.8308 132.346ZM-34.4007 128.933C-24.5764 128.744 -15.0609 126.38 -6.23698 120.616C0.573205 116.128 5.33586 110.286 10.5927 104.244C19.7874 93.7292 30.4057 86.4323 43.6923 81.7337C43.9301 81.7522 43.748 81.021 43.7294 81.2586C30.2977 84.7509 20.9611 90.9529 11.7849 101.23C-2.11686 116.874 -15.447 128.262 -36.2846 128.547C-43.3632 127.277 -50.7167 126.464 -58.3265 125.87C-70.9303 124.887 -82.129 127.358 -92.6885 130.836C-73.8396 125.376 -53.2431 128.179 -34.6417 132.021C11.7613 141.379 48.5714 157.158 96.1894 141.756C97.1777 141.355 96.7948 140.13 95.8251 140.293C46.1966 153.866 9.95479 136.936 -33.9436 129.208L-34.4007 128.933ZM-246.191 108.099C-235.525 143.107 -214.942 158.337 -188.348 163.997C-167.913 181.127 -190.997 213.262 -175.47 235.027C-165.532 248.708 -150.318 256.11 -135.436 264.68C-132.585 268.01 -131.18 271.465 -130.748 278.191C-130.205 283.491 -130.758 287.511 -130.653 292.299C-130.474 296.136 -130.496 299.481 -129.11 303.174C-124.567 315.478 -111.42 321.762 -100.358 327.166C-100.12 327.185 -99.6071 326.747 -100.083 326.71C-114.564 319.127 -126.281 309.847 -127.543 292.302C-127.867 287.258 -126.27 282.125 -127.07 277.044C-127.706 272.931 -129.367 269.695 -131.541 266.896C-121.705 272.683 -112.656 279.364 -106.007 289.204C-106.026 289.441 -105.294 289.259 -105.513 289.003C-114.244 275.177 -125.667 265.204 -139.342 256.489C-148.465 250.758 -160.133 246.979 -167.9 239.203C-190.945 215.656 -175.678 207.049 -173.663 187.37C-172.647 177.412 -175.219 170.519 -180.337 165.579C-177.483 165.801 -174.885 166.243 -171.794 166.485C-141.312 180.574 -132.218 214.265 -96.2046 221.856C-91.5782 223.89 -86.9519 225.924 -82.5819 228.177C-69.0333 235.449 -70.6924 247.508 -67.3204 259.482C-63.3649 273.174 -48.8095 279.807 -36.4653 284.116C-35.0755 284.703 -34.1767 282.383 -35.5664 281.797C-41.564 278.938 -50.196 276.114 -54.5998 271.229C-60.7764 264.533 -62.4684 255.558 -63.9967 247.552C-64.8335 242.946 -65.0309 239.346 -67.8258 235.304C-71.6983 229.744 -77.8781 226.155 -84.3698 223.497C-75.8273 224.403 -67.0099 224.852 -58.4859 225.995C-24.3158 229.619 -3.97008 244.829 16.9681 270.841C17.8452 271.865 19.3462 271.026 18.7255 269.783C-5.09699 237.811 -27.6233 226.015 -66.7318 221.289C-78.585 219.886 -90.7503 219.414 -102.217 216.129C-103.15 215.817 -104.064 215.268 -104.759 214.975C-104.997 214.956 -105.235 214.937 -105.473 214.919C-108.033 214.002 -110.831 213.067 -113.373 211.912C-129.061 204.474 -135.651 190.815 -146.67 178.722C-151.293 173.582 -155.277 169.447 -159.61 166.719C-148.853 166.841 -137.803 166.27 -126.258 165.498C-100.754 163.665 -78.4896 163.491 -56.1487 177.663C-42.4736 186.378 -32.2237 199.127 -18.5301 207.605C7.24811 223.718 35.5045 214.213 64.1833 220.753C64.8967 220.809 65.2087 219.877 64.2574 219.803C28.8307 210.824 -1.3097 219.943 -32.5849 194.558C-43.8448 185.554 -53.4215 176.441 -65.3796 170.25C-49.357 173.413 -34.1091 165.043 -17.9349 163.199C8.13767 160.215 22.2689 187.608 46.4478 193.558C47.6368 193.651 47.9859 192.244 46.834 191.676C30.302 185.845 22.2819 175.181 8.40609 165.972C3.41537 162.476 -1.44883 160.423 -7.86962 159.922C-29.7108 157.739 -48.8258 172.737 -71.1579 167.648C-71.3957 167.63 -71.6335 167.611 -71.6335 167.611C-74.8701 166.163 -78.363 164.935 -82.1309 164.163C-105.158 158.78 -129.146 162.644 -152.343 162.506C-158.325 162.517 -163.795 162.09 -169.027 161.682C-156.769 160.966 -145.039 157.818 -133.086 151.821C-121.39 146.042 -112.381 137.902 -100.264 132.873C-125.192 142.638 -147.015 158.62 -175.172 160.724C-207.072 155.605 -226.538 138.312 -245.166 107.223C-245.586 106.473 -247.068 107.075 -246.648 107.824L-246.191 108.099ZM328.522 25.0998C346.551 -18.9013 313.679 -39.1526 283.809 -61.0815C283.426 -62.3064 282.511 -62.8557 281.542 -62.6924C262.987 -76.3293 246.19 -91.024 244.035 -112.462C244.422 -132.747 245.853 -154.144 255.625 -156.727C257.089 -157.091 256.818 -159.741 255.134 -159.633C246.243 -159.132 245.943 -152.225 243.611 -143.803C241.921 -137.483 240.726 -131.362 239.987 -124.967C239.969 -124.729 239.95 -124.492 239.913 -124.017C239.876 -123.542 239.82 -122.829 239.783 -122.354C239.672 -120.929 239.542 -119.266 239.412 -117.603C236.635 -103.48 223.917 -99.9324 216.989 -87.8066C211.179 -77.7445 212.136 -65.4812 203.985 -56.0798C195.047 -45.7839 178.539 -39.6638 167.809 -30.9417C157.849 -22.8765 149.917 -13.2189 142.405 -2.81168C142.405 -2.81168 142.368 -2.33659 142.643 -2.79311C151.4 -13.8202 161.178 -22.6166 171.852 -30.6261C169.486 -24.836 169.881 -17.6354 170.294 -10.6724C170.565 10.38 162.479 28.1512 145.452 40.9225C145.452 40.9225 145.415 41.3976 145.433 41.1601C155.777 34.3198 163.671 25.1373 167.946 13.2825C173.669 -1.80522 167.034 -24.0714 178.718 -35.8259C183.02 -38.836 187.304 -41.6085 191.825 -44.3624C199.88 -49.4695 205.702 -53.5559 211.326 -61.2426C212.5 -64.0188 213.436 -66.8137 214.628 -69.8275C217.381 -77.4994 220.59 -84.8966 224.275 -92.2567C228.03 -97.4603 234.016 -100.578 237.772 -105.782L238.303 -106.457C237.357 -94.3424 236.887 -82.1905 234.021 -69.9867C231.726 -62.0401 227.988 -57.0741 219.473 -49.135C218.173 -47.8026 215.977 -47.257 214.658 -45.687C211.233 -41.6526 208.814 -38.2565 206.742 -33.1604C197.716 -9.4878 201.35 14.456 182.102 34.2238C181.846 34.4428 182.047 34.9364 182.541 34.736C193.051 25.7578 197.215 15.3282 200.464 4.34921C200.924 19.9195 203.653 33.9941 207.46 49.5867C212.379 69.329 207.153 81.1096 191.352 93.4987C184.999 98.2606 179.14 102.822 173.445 108.352C173.426 108.59 173.389 109.065 173.902 108.627C187.087 96.0337 208.719 88.6405 211.996 68.1041C213.489 58.183 209.712 48.3285 207.325 39.0605C203.827 25.6429 201.773 12.0991 202.135 -1.73412C203.899 -9.00517 205.444 -16.5323 207.958 -24.2228C212.913 -38.6535 223.624 -47.1381 230.953 -58.2766C224.621 -38.4566 218.4 -20.0618 222.97 1.08713C231.035 38.7604 273.931 77.7185 238.255 114.845C238.255 114.845 238.218 115.32 238.493 114.864C268.69 86.63 247.23 51.9741 235.097 20.4361C221.979 -13.8077 230.875 -35.8175 238.956 -65.7776C237.676 -49.3871 235.06 -31.189 243.407 -18.5878C249.818 -8.76674 260.936 -4.07501 271.266 1.5112C268.53 12.0522 273.168 20.062 279.159 29.1333C290.063 45.758 295.918 62.7054 290.775 82.6182C290.757 82.8557 291.232 82.8929 291.251 82.6553C294.72 71.9325 295.81 61.024 293.078 50.0561C289.233 34.9385 271.321 19.2008 274.923 3.70855C277.885 5.61267 280.847 7.51683 283.533 9.87747C303.2 27.664 309.39 55.6313 316.829 79.8721C316.993 80.8408 318.237 80.221 318.055 79.4898C312.232 49.8783 302.696 18.782 276.591 0.731864L275.677 0.182528C275.807 -1.48028 274.198 -2.32285 272.953 -1.70303C256.81 -12.5228 243.373 -21.2194 241.623 -44.7772C240.756 -55.1215 242.192 -64.33 241.288 -74.1993C241.399 -75.6245 241.986 -77.0127 242.335 -78.4194C243.382 -82.6395 243.444 -89.5654 243.837 -97.6605C250.204 -81.151 264.571 -69.0359 279.744 -58.0529C282.409 -52.3481 280.92 -45.5336 282.359 -39.4464C283.233 -35.3154 285.095 -31.5852 286.957 -27.8549C291.978 -18.6203 299.6 -12.0505 306.416 -4.34877C300.845 -12.6704 294.029 -20.3721 288.971 -29.1317C284.132 -37.6351 285.238 -45.6745 284.46 -54.0999C313.033 -33.9452 342.193 -15.1786 327.57 25.0255C327.552 25.2631 328.009 25.5377 328.046 25.0626L328.522 25.0998ZM31.0824 -106.142C30.298 -108.354 27.0953 -107.17 27.6604 -105.214C32.6752 -89.7663 41.5079 -86.4479 52.0883 -74.8674C80.0833 -44.2422 75.5107 -10.1843 79.0389 27.3738C82.0609 59.1565 87.6246 92.0937 116.346 110.348C117.041 110.641 117.591 109.728 117.152 109.216C79.5674 81.9051 82.1086 30.9593 78.7876 -12.3184C80.628 -5.24402 82.9439 1.86751 86.029 8.32209C91.9797 20.9752 102.708 30.6553 107.415 43.9282C114.31 62.8688 111.069 82.9301 125.652 98.4079C126.31 99.1762 127.354 98.0628 126.934 97.313C114.349 77.6894 117.3 55.2155 107.387 35.0834C103.663 27.6229 97.8878 21.9143 93.3945 15.1108C86.5634 4.53996 82.1846 -6.79546 78.3371 -18.8064C77.8832 -22.1877 77.6858 -25.788 77.2134 -28.9317C75.5246 -41.0131 73.598 -53.1131 67.224 -63.4093C57.4716 -79.466 37.3015 -87.7322 31.3573 -106.599L31.0824 -106.142ZM-79.3195 -40.4335C-80.814 -45.8079 -89.3969 -43.132 -87.4082 -37.958C-82.4272 -25.1416 -74.2773 -16.1407 -63.4898 -10.2798C-60.4386 -6.4568 -56.8562 -3.30928 -53.2923 0.0758094C-48.3146 15.9988 -42.438 29.6021 -46.4075 46.7386C-48.1713 54.0096 -51.8005 60.6571 -51.9183 68.2956C-51.9683 81.1973 -43.8555 90.6733 -32.2618 95.4021C-31.7862 95.4392 -31.5113 94.9827 -31.9684 94.708C-49.7047 85.9148 -50.09 69.3943 -44.4744 52.6253C-42.584 46.7981 -40.7492 41.6835 -40.2671 35.5073C-39.7076 25.2744 -41.9647 14.3436 -47.4987 5.54687L-46.8409 6.31519C-37.3198 16.1401 -32.1905 27.0561 -27.191 39.6349C-22.9758 50.0016 -19.6006 58.8687 -7.52804 60.5281C-26.3857 56.9051 -26.9805 30.8087 -35.9486 16.9641C-42.1404 7.39908 -51.4084 0.46187 -58.882 -8.00823C-54.4749 -6.23028 -49.8114 -4.6713 -44.8731 -3.56885C-31.4479 -0.847962 -16.5893 -4.22897 -3.47609 -0.576455C22.037 6.67287 31.2114 33.2001 37.5724 55.9228C32.8357 36.9118 27.0398 16.1451 10.2764 4.08192C-19.6308 -17.3719 -66.6378 8.59373 -79.3381 -40.1959L-79.3195 -40.4335ZM-266.631 305.583C-267.82 305.491 -267.712 307.172 -266.779 307.484C-257.709 310.821 -249.827 314.065 -241.322 315.446C-241.34 315.683 -241.359 315.921 -240.902 316.196C-230.117 325.163 -214.774 330.902 -200.595 330.096C-191.228 329.633 -182.315 325.788 -172.929 325.086C-159.939 324.188 -148.491 327.711 -136.641 332.221C-136.165 332.258 -135.89 331.801 -136.347 331.527C-148.595 322.923 -163.466 320.328 -178.213 322.284C-189.813 323.768 -200.923 328.159 -212.665 325.33C-219.944 323.567 -226.325 319.484 -232.779 316.352C-228.48 316.448 -224.125 315.832 -219.477 314.522C-194.022 307.188 -176.029 297.36 -148.851 304.74C-148.137 304.795 -147.588 303.882 -148.264 303.351C-164.465 296.351 -180.51 296.533 -196.999 302.415C-209.041 306.494 -221.58 313.88 -234.715 313.572C-246.186 313.393 -255.472 306.694 -266.631 305.583ZM358.821 108.961C367.157 97.1842 376.828 86.7064 388.471 78.5336C393.03 75.3046 398.466 73.1 402.366 69.1026C410.406 61.1265 411.627 48.5552 416.229 38.6378C421.739 35.483 426.829 31.5785 430.804 26.631C445.824 8.92308 450.97 -14.0964 454.634 -36.5146C454.441 -9.52357 472.303 19.1157 453.178 43.434C452.904 43.8905 453.342 44.4027 453.855 43.9647C480.247 15.4339 446.792 -24.9381 461.297 -57.5037C461.847 -58.4168 460.237 -59.2593 459.688 -58.3463C457.745 -54.9131 456.497 -51.1866 455.506 -47.6791C454.903 -49.1601 452.287 -49.3643 451.901 -47.4825C449.711 -34.7479 447.941 -21.2636 444.067 -8.42143C436.466 0.066927 429.705 10.0548 420.551 16.9879C408.833 26.1109 396.612 26.3519 382.779 28.857C368.946 31.3621 357.432 37.8721 346.683 46.8317C346.683 46.8317 346.646 47.3068 346.921 46.8503C360.508 35.2443 374.857 29.1946 392.421 27.9367C399.154 27.5063 405.117 27.7328 411.523 25.3649C424.371 20.1541 433.989 7.28228 442.288 -4.01947C441.003 0.18208 439.261 4.10896 437.281 8.01727C425.658 31.2481 406.349 39.5396 384.276 49.5271C369.633 56.2709 360.241 63.1855 355.907 78.8596C355.888 79.0971 356.108 79.3533 356.383 78.8967C366.56 55.792 392.287 51.1084 413.045 39.5842C411.414 42.0858 410.24 44.8621 409.048 47.8759C404.297 59.6937 399.643 67.2171 389.043 74.2764C375.66 83.2694 365.459 94.4227 357.212 108.118C356.918 108.812 357.851 109.124 358.126 108.668L358.821 108.961ZM-225.003 17.5022C-230.117 9.45531 -234.045 4.60786 -242.785 0.101757C-243.937 -0.466144 -245.513 1.32284 -244.141 2.14685C-221.328 19.4621 -216.62 48.0306 -189.523 62.5733C-187.676 63.4345 -185.81 64.058 -184.201 64.9006C-168.63 79.9775 -150.536 96.4464 -132.454 106.94C-113.915 117.707 -98.9165 103.344 -79.725 102.691C-79.4872 102.709 -79.4502 102.234 -79.688 102.216C-87.3163 101.859 -93.1906 103.552 -100.291 105.626C-115.699 109.92 -126.144 108.866 -138.757 98.7999C-150.912 89.0083 -162.518 78.3037 -174.655 68.2747C-149.856 75.4683 -122.776 71.8463 -99.4992 83.2229C-124.545 66.9283 -156.659 73.7423 -183.886 60.8623C-185.038 60.2944 -185.714 59.7637 -186.866 59.1958C-187.305 58.6836 -188 58.3903 -188.438 57.8781C-188.676 57.8595 -189.152 57.8224 -189.389 57.8038C-206.082 47.8972 -214.355 34.3458 -225.003 17.5022ZM-172.896 -21.6879C-172.896 -21.6879 -174.561 -21.8178 -174.141 -21.068C-167.483 -2.14599 -155.152 14.59 -133.787 16.7357C-119.08 18.3617 -106.139 11.9631 -92.5041 24.26C-81.5561 34.1963 -85.0282 48.0258 -82.1875 60.6751C-79.8562 70.6557 -78.4883 74.5863 -70.3537 80.7181C-69.8966 80.9928 -69.3839 80.5548 -69.8224 80.0426C-89.0501 62.7683 -72.4606 31.0824 -97.473 17.4194C-105.5 12.969 -113.02 14.2939 -121.6 13.8632C-148.966 11.966 -161.192 0.0180066 -172.402 -21.8883L-172.896 -21.6879ZM123.58 -160.104C123.58 -160.104 121.99 -161.184 121.915 -160.234C120.957 -135.692 129.554 -117.097 118.039 -92.1846C111.714 -78.5778 104.001 -68.6642 100.912 -53.6099C94.9006 -25.6392 101.403 1.3965 116.783 25.0622C116.783 25.0622 117.258 25.0993 117.02 25.0807C97.6421 -5.58888 96.6862 -36.2544 107.914 -66.6858C108.019 -61.8978 110.082 -57.674 113.59 -53.5763C120.406 -45.8745 127.243 -41.5169 129.957 -30.3114C132.107 -21.062 129.57 -10.0274 125.336 -1.75421C130.633 -11.3784 132.548 -23.6564 129.816 -34.6243C126.373 -48.7546 105.798 -54.9015 109.181 -70.6499C111.877 -77.6091 115.287 -84.5127 119.154 -91.1416C134.696 -118.607 123.603 -129.75 123.342 -160.122L123.58 -160.104ZM180.385 -143.003C180.385 -143.003 179.69 -143.296 179.909 -143.04C179.864 -117.95 179.909 -90.94 165.069 -69.3942C165.05 -69.1567 165.489 -68.6445 165.526 -69.1196C181.812 -90.7915 181.73 -117.326 180.403 -143.241L180.385 -143.003ZM352.677 0.696255C353.189 -33.4396 385.929 -45.2234 404.248 -68.4096C404.248 -68.4096 404.742 -68.61 404.761 -68.8476C404.761 -68.8476 404.779 -69.0851 404.798 -69.3227C405.329 -69.9982 405.842 -70.4361 406.135 -71.1302C417.696 -87.4352 423.738 -109.668 429.52 -128.575C430.126 -130.2 427.328 -131.136 426.722 -129.51C420.743 -114.203 417.029 -97.2859 409.879 -82.3096C407.019 -76.3191 403.519 -71.3344 399.344 -66.8805C377.634 -55.4306 338.428 -71.1575 327.987 -41.6206C327.95 -41.1455 328.426 -41.1083 328.463 -41.5834C339.435 -71.7959 374.506 -55.1968 396.487 -63.9966C390.773 -58.2289 384.62 -52.9733 378.193 -47.2612C363.031 -33.8663 350.486 -20.2671 350.994 0.803862C350.938 1.51649 352.128 1.60931 352.183 0.896679L352.677 0.696255Z" fill="url(#paint0_angular_412_5)"/>
<g style="mix-blend-mode:multiply" opacity="0.1">
<path d="M73.983 559.889C99.954 549.011 115.412 531.815 125.367 511.561L125.13 511.542C127.501 465.841 101.718 419.137 119.803 374.423C119.858 373.71 120.553 374.004 120.516 374.479C105.266 419.653 128.344 464.234 125.735 509.916C133.179 494.246 137.661 476.672 141.467 458.566C142.139 428.506 130.827 398.705 134.884 368.192C134.811 350.739 121.506 337.273 122.916 319.22C124.952 296.197 133.239 278.919 123.311 255.918C123.11 255.424 123.861 255.005 124.061 255.499C132.569 272.175 131.657 286.922 127.632 304.771C123.7 321.432 124.567 331.777 131.21 347.829C133.618 353.753 135.131 358.89 135.143 364.866C142.36 321.455 170.717 286.147 169.74 240.423C169.558 239.692 170.747 239.785 170.691 240.497C173.079 283.463 146.974 317.513 138.059 358.163C131.038 389.879 142.238 421.105 142.425 452.427C147.923 424.894 152.289 396.556 163.529 372.1C171.853 354.348 183.281 342.812 195.715 330.638L193.921 332.171C209.818 315.488 201.072 298.793 199.958 279.347C199.258 266.865 201.192 254.35 204.04 242.383C204.095 241.671 205.028 241.983 204.991 242.458C204.03 251.703 202.374 260.656 202.127 269.957C201.712 281.396 204.556 290.939 205.844 302.033C207.186 312.415 204.323 321.512 197.528 328.868C201.942 324.433 206.593 320.016 211.282 315.124C247.745 277.103 244.832 228.599 239.798 179.691C239.798 179.691 240.292 179.491 240.273 179.728L240.419 181.106C243.82 213.219 247.365 246.702 236.439 277.893C222.217 319.085 179.609 337.746 163.723 378.807C157.468 394.571 153.699 412.201 150.15 430.087C164.71 396.809 210.537 379.833 230.181 348.863C243.796 327.7 249.001 300.861 265.121 281.327C280.434 262.925 303.786 254.949 319.995 237.334C320.507 236.896 321.422 237.446 320.89 238.121C313.104 248.985 305.305 253.873 294.687 261.17C266.127 280.689 256.262 302.862 241.229 332.996C233.31 348.629 223.562 363.164 211.109 375.576C210.34 376.232 209.552 377.127 208.783 377.784C220.115 370.543 232.101 367.177 246.209 364.215C263.977 360.344 280.957 357.368 295.532 345.361C309.851 333.573 318.669 315.62 327.577 299.586C327.852 299.129 328.29 299.642 328.253 300.117C317.693 321.996 305.925 344.021 283.264 355.397C280.281 356.837 277.554 358.058 274.607 359.023C284.361 356.677 294.293 358.169 304.667 357.067C329.989 354.503 350.423 337.935 362.648 316.185C362.923 315.728 363.599 316.259 363.324 316.716C354.435 332.512 341.102 347.006 324.263 354.295C305.924 362.423 287.4 354.525 268.952 360.971C247.614 367.67 224.856 368.045 205.432 380.868C184.887 398.862 158.147 410.397 148.843 437.633L148.843 437.633C144.796 458.827 140.749 480.02 133.503 499.29C137.243 491.217 141.185 483.638 148.838 477.544C153.928 473.639 159.876 470.997 165.167 467.586C182.046 456.715 190.746 446.401 198.376 428.355C198.651 427.898 199.126 427.935 199.089 428.41C193.714 442.091 188.013 453.835 175.618 462.427C164.212 470.618 151.42 475.117 142.426 486.125C136.857 493.099 133.592 501.209 129.395 509.007C118.998 531.856 102.697 550.659 74.3845 560.876C73.8903 561.077 73.251 560.071 73.983 559.889Z" fill="url(#paint1_angular_412_5)" style="mix-blend-mode:multiply"/>
<path d="M25.0683 380.412C22.9966 367.106 23.2474 354.698 34.9097 346.287L35.166 346.068C35.898 345.886 36.3365 346.399 35.8238 346.837C16.2824 367.298 35.6421 398.206 34.0966 424.135C38.0378 416.556 41.0834 408.19 43.7276 398.837C51.0732 372.165 53.8786 348.485 75.7054 329.396C75.9618 329.177 75.9247 329.652 75.9247 329.652C47.4852 356.828 52.2024 394.479 36.5271 426.715C44.1128 415.357 53.9927 414.455 65.5808 406.995C83.9421 395.523 90.7782 366.183 94.9516 346.433C92.7395 362.512 88.4242 377.948 80.8353 392.413C70.4418 412.155 49.842 412.459 36.286 429.803C36.0111 430.259 35.2977 430.204 35.097 429.71C34.8221 430.166 34.5287 430.861 34.2538 431.317C33.4106 432.924 32.3296 434.513 31.2671 435.864C30.0933 438.64 28.7003 441.16 26.8317 443.643C31.0042 442.296 35.3404 441.917 40.1336 441.814C46.8293 441.858 53.9449 442.653 60.5141 441.254C72.9204 438.637 80.852 428.98 88.2894 419.522C88.5457 419.304 89.2406 419.597 88.9657 420.053C81.7661 429.529 74.3287 438.986 62.7995 442.627C47.3355 447.634 31.974 442.133 17.5846 451.764C17.3282 451.983 16.8711 451.708 16.6333 451.69C0.137476 463.786 -20.0826 468.421 -37.4402 482.362C-39.2161 483.657 -41.6466 481.077 -39.8521 479.544C-29.6167 471.023 -19.0943 468.02 -6.94109 462.516C7.18874 456.21 17.662 447.707 25.6492 437.337C33.0963 418.56 28.4676 401.23 25.0683 380.412Z" fill="url(#paint2_angular_412_5)" style="mix-blend-mode:multiply"/>
<path d="M-130.023 390.293C-113.482 386.804 -94.216 385.201 -79.4066 376.32L-79.1502 376.1C-63.0776 366.361 -55.0283 349.065 -41.1855 337.24C-28.6243 326.51 -13.6916 322.179 2.44549 320.81C2.70183 320.591 2.88402 321.322 2.4084 321.285C-35.9036 324.747 -43.175 350.469 -68.0595 371.947C-65.8636 371.402 -63.6677 370.856 -61.2526 370.567C-40.9059 367.375 -23.8547 366.555 -12.2721 346.906C-11.9973 346.45 -11.0646 346.761 -11.358 347.456C-16.6366 356.842 -23.4315 364.198 -33.5524 368.188C-50.5916 374.984 -68.2046 370.741 -83.53 383.167C-84.0427 383.605 -84.719 383.075 -84.6819 382.6C-98.5925 389.161 -114.31 391.28 -129.678 391.993C-130.647 392.156 -130.993 390.456 -130.023 390.293Z" fill="url(#paint3_angular_412_5)" style="mix-blend-mode:multiply"/>
<path d="M300.973 425.848C299.787 422.648 299.114 419.011 298.935 415.173C298.887 414.569 298.848 413.962 298.819 413.349C298.579 409.099 298.558 404.684 298.914 400.115C298.951 399.64 299.665 399.695 299.628 400.171C298.829 405.086 298.623 409.328 298.819 413.349C298.853 413.961 298.892 414.568 298.935 415.173C299.371 418.792 300.044 422.429 300.973 425.848Z" fill="url(#paint4_angular_412_5)" style="mix-blend-mode:multiply"/>
<path d="M385.402 530.425C384.652 530.844 383.537 529.801 383.537 529.801L383.28 530.02C378.108 507.39 368.578 488.483 350.336 473.914C339.99 465.459 327.17 461.112 317.099 452.201C308.363 444.588 303.323 435.591 300.735 425.829C308.174 450.07 334.326 458.325 354.999 475.473C349.848 467.901 348.632 458.964 348.203 449.132C347.383 428.992 344.987 410.642 337.122 391.865C341.995 403 345.898 414.298 347.824 426.398C350.696 444.785 347.365 462.928 359.277 478.914L359.221 479.627C373.038 492.655 381.363 508.6 384.948 527.043C385.53 513.466 389.916 500.186 388.138 486.186C385.924 468.566 378.401 454.596 371.302 438.268C360.991 414.042 354.154 391.282 366.364 366.663C366.639 366.207 367.096 366.481 367.059 366.956C349.036 404.744 374.891 435.202 387.076 469.134C396.908 496.43 382.227 540.453 400.114 562.642C401.849 564.928 398.078 567.263 396.343 564.976C387.408 553.763 385.88 545.757 385.328 531.375L385.402 530.425Z" fill="url(#paint5_angular_412_5)" style="mix-blend-mode:multiply"/>
<path d="M271.471 524.877L272.039 523.727L272.277 523.745C271.931 522.045 271.567 520.583 271.221 518.883C267.12 503.984 259.817 490.27 256.21 475.171C251.273 455.666 252.738 436.9 264.573 420.138C264.848 419.682 265.543 419.975 265.487 420.688C256.06 443.373 254.284 463.071 262.016 486.617C265.681 497.897 270.829 508.576 274.257 519.837C281.166 507.949 285.824 497.319 284.376 482.149C283.182 469.867 280.486 458.424 282.401 446.146C282.438 445.671 282.914 445.708 282.877 446.183C279.979 471.051 296.191 502.43 275.223 522.78C275.989 525.229 276.517 527.66 277.045 530.091L277.045 530.092C281.173 553.835 273.142 570.894 256.093 587.01C255.049 588.123 253.496 586.568 254.302 585.436C268.464 566.466 276.331 548.439 272.366 525.664C271.854 526.102 271.471 524.877 271.471 524.877Z" fill="url(#paint6_angular_412_5)" style="mix-blend-mode:multiply"/>
<path d="M455.378 495.258C466.129 501.594 474.334 509.882 481.184 520.216L480.946 520.197C481.585 521.203 480.341 521.823 479.683 521.055C471.499 509.422 462.142 500.566 449.526 493.607C442.632 489.962 434.933 487.449 428.883 482.196C419.032 473.541 414.965 461.274 415.234 448.628C415.681 476.625 434.791 483.136 455.378 495.258Z" fill="url(#paint7_angular_412_5)" style="mix-blend-mode:multiply"/>
<path d="M208.936 529.077C209.039 518.57 206.726 508.352 205.383 497.97L205.639 497.751C203.426 480.132 203.572 462.936 214.07 447.982C214.363 447.288 215.278 447.837 214.984 448.531C189.697 487.425 232.454 537.366 194.567 572.169C192.772 573.702 190.305 571.598 191.88 569.809C202.193 557.23 208.827 545.798 208.936 529.077Z" fill="url(#paint8_angular_412_5)" style="mix-blend-mode:multiply"/>
</g>
<defs>
<radialGradient id="paint0_angular_412_5" cx="0" cy="0" r="1" gradientUnits="userSpaceOnUse" gradientTransform="translate(180.813 319.244) rotate(58.1331) scale(503.892 504.058)">
<stop offset="0.47" stop-color="#B76500"/>
<stop offset="1" stop-color="#D79004"/>
</radialGradient>
<radialGradient id="paint1_angular_412_5" cx="0" cy="0" r="1" gradientUnits="userSpaceOnUse" gradientTransform="translate(250.964 81.3853) rotate(58.1331) scale(503.892 504.058)">
<stop offset="0.47" stop-color="#B76500"/>
<stop offset="1" stop-color="#D79004"/>
</radialGradient>
<radialGradient id="paint2_angular_412_5" cx="0" cy="0" r="1" gradientUnits="userSpaceOnUse" gradientTransform="translate(250.964 81.3853) rotate(58.1331) scale(503.892 504.058)">
<stop offset="0.47" stop-color="#B76500"/>
<stop offset="1" stop-color="#D79004"/>
</radialGradient>
<radialGradient id="paint3_angular_412_5" cx="0" cy="0" r="1" gradientUnits="userSpaceOnUse" gradientTransform="translate(250.964 81.3853) rotate(58.1331) scale(503.892 504.058)">
<stop offset="0.47" stop-color="#B76500"/>
<stop offset="1" stop-color="#D79004"/>
</radialGradient>
<radialGradient id="paint4_angular_412_5" cx="0" cy="0" r="1" gradientUnits="userSpaceOnUse" gradientTransform="translate(250.964 81.3853) rotate(58.1331) scale(503.892 504.058)">
<stop offset="0.47" stop-color="#B76500"/>
<stop offset="1" stop-color="#D79004"/>
</radialGradient>
<radialGradient id="paint5_angular_412_5" cx="0" cy="0" r="1" gradientUnits="userSpaceOnUse" gradientTransform="translate(250.964 81.3853) rotate(58.1331) scale(503.892 504.058)">
<stop offset="0.47" stop-color="#B76500"/>
<stop offset="1" stop-color="#D79004"/>
</radialGradient>
<radialGradient id="paint6_angular_412_5" cx="0" cy="0" r="1" gradientUnits="userSpaceOnUse" gradientTransform="translate(250.964 81.3853) rotate(58.1331) scale(503.892 504.058)">
<stop offset="0.47" stop-color="#B76500"/>
<stop offset="1" stop-color="#D79004"/>
</radialGradient>
<radialGradient id="paint7_angular_412_5" cx="0" cy="0" r="1" gradientUnits="userSpaceOnUse" gradientTransform="translate(250.964 81.3853) rotate(58.1331) scale(503.892 504.058)">
<stop offset="0.47" stop-color="#B76500"/>
<stop offset="1" stop-color="#D79004"/>
</radialGradient>
<radialGradient id="paint8_angular_412_5" cx="0" cy="0" r="1" gradientUnits="userSpaceOnUse" gradientTransform="translate(250.964 81.3853) rotate(58.1331) scale(503.892 504.058)">
<stop offset="0.47" stop-color="#B76500"/>
<stop offset="1" stop-color="#D79004"/>
</radialGradient>
</defs>
</svg>
