<svg width="572" height="738" viewBox="0 0 572 738" fill="none" xmlns="http://www.w3.org/2000/svg">
<path style="mix-blend-mode:multiply" opacity="0.1" d="M423.522 205.624C441.551 161.623 408.679 141.371 378.809 119.442C378.426 118.218 377.512 117.668 376.542 117.832C357.987 104.195 341.19 89.4999 339.036 68.0615C339.423 47.7774 340.854 26.3799 350.626 23.7968C352.089 23.4331 351.818 20.783 350.135 20.8906C341.243 21.3915 340.943 28.2988 338.611 36.7205C336.921 43.0413 335.726 49.1618 334.987 55.5569C334.969 55.7945 334.95 56.032 334.913 56.5071C334.876 56.9822 334.82 57.6948 334.783 58.1699C334.672 59.5952 334.542 61.258 334.412 62.9208C331.635 77.0435 318.917 80.5916 311.989 92.7173C306.179 102.779 307.136 115.043 298.985 124.444C290.047 134.74 273.539 140.86 262.809 149.582C252.849 157.647 244.917 167.305 237.406 177.712C237.406 177.712 237.369 178.187 237.644 177.731C246.4 166.704 256.178 157.907 266.852 149.898C264.486 155.688 264.881 162.889 265.295 169.852C265.565 190.904 257.479 208.675 240.452 221.446C240.452 221.446 240.415 221.922 240.433 221.684C250.777 214.844 258.671 205.661 262.946 193.806C268.67 178.719 262.034 156.453 273.718 144.698C278.02 141.688 282.304 138.915 286.826 136.161C294.88 131.054 300.702 126.968 306.327 119.281C307.5 116.505 308.436 113.71 309.629 110.696C312.381 103.025 315.59 95.6273 319.275 88.2672C323.031 83.0636 329.016 79.946 332.772 74.7423L333.303 74.0668C332.358 86.1816 331.888 98.3334 329.021 110.537C326.726 118.484 322.989 123.45 314.473 131.389C313.173 132.721 310.977 133.267 309.658 134.837C306.233 138.871 303.815 142.267 301.742 147.364C292.717 171.036 296.35 194.98 277.102 214.748C276.846 214.967 277.047 215.46 277.541 215.26C288.051 206.282 292.215 195.852 295.465 184.873C295.924 200.443 298.653 214.518 302.461 230.111C307.38 249.853 302.153 261.634 286.352 274.023C279.999 278.785 274.14 283.346 268.445 288.876C268.426 289.114 268.389 289.589 268.902 289.151C282.087 276.558 303.719 269.164 306.997 248.628C308.489 238.707 304.712 228.852 302.325 219.584C298.827 206.167 296.774 192.623 297.136 178.79C298.9 171.519 300.444 163.992 302.959 156.301C307.913 141.87 318.624 133.386 325.953 122.247C319.621 142.067 313.4 160.462 317.97 181.611C326.035 219.284 368.931 258.242 333.255 295.369C333.255 295.369 333.218 295.844 333.493 295.388C363.69 267.154 342.23 232.498 330.097 200.96C316.979 166.716 325.875 144.706 333.956 114.746C332.677 131.137 330.06 149.335 338.407 161.936C344.818 171.757 355.936 176.449 366.267 182.035C363.53 192.576 368.168 200.586 374.159 209.657C385.064 226.282 390.918 243.229 385.775 263.142C385.757 263.38 386.232 263.417 386.251 263.179C389.72 252.456 390.81 241.548 388.078 230.58C384.233 215.462 366.321 199.725 369.923 184.232C372.885 186.137 375.847 188.041 378.534 190.401C398.2 208.188 404.391 236.155 411.829 260.396C411.993 261.365 413.238 260.745 413.055 260.014C407.232 230.402 397.697 199.306 371.591 181.256L370.677 180.706C370.807 179.044 369.198 178.201 367.953 178.821C351.811 168.001 338.373 159.305 336.623 135.747C335.756 125.402 337.193 116.194 336.288 106.325C336.399 104.899 336.986 103.511 337.335 102.105C338.382 97.8845 338.445 90.9585 338.837 82.8635C345.205 99.373 359.571 111.488 374.744 122.471C377.409 128.176 375.92 134.99 377.359 141.077C378.233 145.209 380.095 148.939 381.957 152.669C386.979 161.904 394.601 168.473 401.416 176.175C395.845 167.854 389.029 160.152 383.971 151.392C379.132 142.889 380.238 134.849 379.46 126.424C408.033 146.579 437.193 165.345 422.57 205.549C422.552 205.787 423.009 206.062 423.046 205.587L423.522 205.624ZM126.083 74.3819C125.298 72.1698 122.095 73.3537 122.661 75.3098C127.675 90.7577 136.508 94.076 147.088 105.657C175.083 136.282 170.511 170.34 174.039 207.898C177.061 239.68 182.625 272.618 211.346 290.872C212.041 291.165 212.591 290.252 212.152 289.74C174.568 262.429 177.109 211.483 173.788 168.206C175.628 175.28 177.944 182.391 181.029 188.846C186.98 201.499 197.709 211.179 202.415 224.452C209.31 243.393 206.069 263.454 220.652 278.932C221.31 279.7 222.354 278.587 221.934 277.837C209.35 258.213 212.3 235.739 202.387 215.607C198.663 208.147 192.888 202.438 188.395 195.635C181.564 185.064 177.185 173.728 173.337 161.718C172.883 158.336 172.686 154.736 172.214 151.592C170.525 139.511 168.598 127.411 162.224 117.115C152.472 101.058 132.302 92.7917 126.357 73.9254L126.083 74.3819ZM634.307 435.497C634.712 433.377 635.574 431.533 636.435 429.688C635.574 431.533 634.712 433.377 633.594 435.441C633.557 435.916 634.252 436.209 634.307 435.497ZM636.435 429.688C638.122 426.474 639.79 423.497 641.695 420.539C639.552 423.479 637.884 426.455 636.435 429.688ZM622.666 511.065C652.946 490.964 670.301 461.728 672.882 425.602C674.143 409.449 672.532 393.311 671.652 376.991C670.18 349.87 673.696 329.352 680.547 302.881C686.153 295.432 692.29 287.307 698.792 280.645C700.512 280.062 702.251 279.242 703.733 278.641C705.216 278.04 704.87 276.34 703.974 275.553C712.233 267.833 720.983 263.019 729.964 264.437C732.799 264.897 733.151 260.384 730.316 259.924C715.665 257.585 708.759 266.366 699.107 276.607C694.935 277.954 690.506 279.52 686.333 280.867C686.389 280.155 685.712 279.624 684.98 279.806C659.745 287.396 637.885 285.45 614.444 273.105C602.943 267.188 592.817 258.989 580.179 255.374C560.519 249.776 539.659 253.406 522.981 264.771C544.088 251.84 568.731 251.851 590.161 262.367C601.918 268.064 612.063 276.026 624.114 281.029C636.421 285.814 649.809 289.01 662.799 288.112C648.342 292.48 633.539 295.149 618.412 292.773C596.426 289.384 576.843 279.729 554.359 279.647C553.883 279.61 553.828 280.323 554.303 280.36C580.518 281.689 603.041 296.592 628.743 298.359C650.145 300.03 672.913 290.336 693.412 282.137C684.51 291.958 676.341 301.597 667.952 310.98C647.009 324.879 623.914 332.636 598.975 336.425C573.066 340.377 556.559 328.095 533.386 321.507C508.587 314.313 486.687 315.95 461.454 320.433C460.741 320.377 460.886 321.583 461.618 321.401C501.854 314.744 518 322.457 554.958 336.335C566.808 340.845 575.44 343.67 588.668 342.79C610.056 341.592 632.728 336.192 652.624 326.512C652.074 327.425 651.524 328.338 650.993 329.014C634.97 344.254 616.516 356.914 591.592 363.572C564.948 370.813 537.31 366.265 510.32 371.806L510.795 371.843C510.795 371.843 510.761 369.212 509.755 369.85C483.509 381.185 455.093 368.212 427.605 377.06C408.957 383.013 391.603 393.847 378.288 408.104C377.775 408.541 378.433 409.31 378.946 408.872C404.689 388.655 429.715 371.489 464.067 375.844C473.067 377.024 481.078 378.606 488.506 378.468C466.507 387.506 447.191 402.01 429.867 418.583C429.867 418.583 429.83 419.058 430.086 418.839C463.813 391.358 495.297 374.219 539.116 370.708C561.748 368.89 582.879 367.911 604.767 360.298C619.28 355.217 632.001 348.563 643.664 340.152C633.53 356.569 624.054 373.753 611.233 387.809C601.288 398.743 589.993 405.51 577.877 410.539C559.47 413.404 535.569 403.89 517.437 406.299C498.097 408.852 481.898 417.147 467.724 430.141C467.724 430.141 467.687 430.616 468.181 430.416C492.569 412.244 521.501 403.27 551.662 409.209C558.96 410.735 565.526 412.442 571.966 412.706C558.423 417.624 544.296 420.823 529.82 425.429C505.774 433.111 485.896 442.553 475.901 466.389C475.864 466.864 476.321 467.139 476.596 466.682C503.72 419.567 555.188 431.472 595.407 406.649C600.679 403.476 605.293 399.534 609.707 395.099C599.82 420.616 605.535 448.546 578.365 468.652C554.747 486.166 522.977 479.385 500.087 499.824C499.831 500.043 500.032 500.537 500.526 500.336C527.332 478.768 567.258 488.338 591.05 462.472C611.69 440.184 603.983 410.186 618.553 385.991C618.553 385.991 618.571 385.753 618.59 385.516C631.265 370.254 641.09 351.662 650.529 334.953C655.125 331.248 659.502 327.288 663.915 322.853C665.728 321.083 667.56 319.075 669.428 316.592C670.435 315.953 671.461 315.077 672.486 314.201C665.459 333.728 667.265 356.573 668.323 376.731C669.15 390.657 669.538 404.071 668.775 416.917C668.775 416.917 668.775 416.917 668.537 416.898C661.01 424.437 650.469 427.677 642.485 434.94C640.178 436.911 638.328 439.156 636.478 441.402C639.903 437.368 644.005 433.864 648.289 431.091C655.117 426.366 663.225 423.653 668.976 417.411C666.908 453.098 656.282 485.01 622.32 509.365C621.808 509.803 622.246 510.316 622.978 510.134L622.666 511.065ZM453.821 289.485C462.157 277.708 471.828 267.23 483.471 259.058C488.03 255.829 493.466 253.624 497.367 249.627C505.406 241.65 506.627 229.079 511.229 219.162C516.739 216.007 521.829 212.102 525.804 207.155C540.824 189.447 545.97 166.428 549.634 144.009C549.441 171 567.303 199.64 548.179 223.958C547.904 224.414 548.342 224.927 548.855 224.489C575.247 195.958 541.792 155.586 556.297 123.02C556.847 122.107 555.238 121.265 554.688 122.178C552.745 125.611 551.497 129.337 550.506 132.845C549.904 131.364 547.288 131.16 546.902 133.041C544.711 145.776 542.941 159.26 539.067 172.103C531.466 180.591 524.705 190.579 515.551 197.512C503.833 206.635 491.612 206.876 477.779 209.381C463.946 211.886 452.432 218.396 441.684 227.356C441.684 227.356 441.647 227.831 441.921 227.374C455.508 215.768 469.857 209.719 487.421 208.461C494.154 208.03 500.117 208.257 506.523 205.889C519.371 200.678 528.989 187.806 537.288 176.504C536.003 180.706 534.261 184.633 532.281 188.541C520.658 211.772 501.349 220.063 479.276 230.051C464.633 236.795 455.241 243.709 450.907 259.384C450.889 259.621 451.108 259.877 451.383 259.421C461.56 236.316 487.287 231.632 508.045 220.108C506.414 222.61 505.24 225.386 504.048 228.4C499.297 240.218 494.643 247.741 484.043 254.8C470.66 263.793 460.459 274.947 452.212 288.642C451.919 289.336 452.851 289.648 453.126 289.192L453.821 289.485ZM680.074 563.345C694.003 556.545 704.17 561.163 711.157 545.218C716.108 533.894 716.653 520.792 722.737 510.273C737.086 504.223 751.926 501.08 768.44 507.149C770.543 507.791 771.498 504.758 769.669 503.66C757.109 495.988 744.669 495.973 732.408 499.795C732.92 499.357 733.415 499.157 733.927 498.719C734.678 498.299 734.057 497.056 733.325 497.238C729.208 497.873 726.169 500.025 724.026 502.965C718.096 505.37 712.348 508.506 706.582 511.88C694.287 513.071 683.079 506.46 670.661 503.101C660.108 500.365 649.734 501.468 639.851 505.476C639.851 505.476 639.813 505.951 639.832 505.713C657.841 498.755 671.464 505.076 688.471 510.944C693.372 512.522 698.073 513.606 702.848 513.739C684.542 524.499 666.144 536.446 647.465 536.661C600.54 537.061 575.831 494.982 531.267 529.503C531.267 529.503 531.23 529.978 531.467 529.997C580.736 493.453 606.753 543.282 653.225 539.501C659.482 539.033 665.594 537.359 671.505 535.192C666.947 538.421 662.827 542.162 657.536 545.573C642.396 555.624 626.003 557.212 608.939 552.056C593.742 547.524 582.519 538.044 566.542 543.489C566.066 543.452 566.486 544.202 566.724 544.22C590.292 539.607 609.899 561.213 634.582 557.643C653.941 554.852 665.06 541.142 680.638 531.603C693.78 525.698 706.374 517.599 719.278 511.676C718.342 514.471 717.406 517.266 716.489 519.823C713.937 527.988 713.832 541.603 708.263 548.577C701.65 556.664 688.861 558.056 679.892 562.614C679.654 562.595 679.836 563.326 680.093 563.107L680.074 563.345ZM757.669 608.357C773.416 611.976 788.546 611.246 803.918 607.427C804.65 607.245 804.267 606.02 803.535 606.202C771.752 611.846 749.204 603.395 721.282 590.222C705.117 582.746 694.922 587.686 682.525 599.385C682.525 599.385 682.488 599.86 682.763 599.403C709.386 577.104 731.349 602.24 757.687 608.12L757.669 608.357ZM218.58 20.4203C218.58 20.4203 216.99 19.3402 216.916 20.2904C215.957 44.8317 224.554 63.4271 213.039 88.3394C206.714 101.946 199.001 111.86 195.912 126.914C189.901 154.885 196.404 181.92 211.783 205.586C211.783 205.586 212.258 205.623 212.021 205.605C192.642 174.935 191.686 144.27 202.914 113.838C203.019 118.626 205.082 122.85 208.59 126.948C215.406 134.649 222.244 139.007 224.958 150.213C227.107 159.462 224.571 170.497 220.336 178.77C225.633 169.146 227.549 156.868 224.816 145.9C221.373 131.769 200.798 125.622 204.181 109.874C206.877 102.915 210.287 96.0113 214.154 89.3824C229.697 61.9166 218.604 50.774 218.343 20.4018L218.58 20.4203ZM275.385 37.5209C275.385 37.5209 274.69 37.2277 274.909 37.4838C274.865 62.5744 274.91 89.584 260.069 111.13C260.05 111.367 260.489 111.879 260.526 111.404C276.812 89.7325 276.73 63.198 275.403 37.2834L275.385 37.5209ZM447.677 181.22C448.189 147.084 480.93 135.301 499.248 112.114C499.248 112.114 499.742 111.914 499.761 111.676C499.761 111.676 499.779 111.439 499.798 111.201C500.329 110.526 500.842 110.088 501.135 109.394C512.696 93.0888 518.738 70.8562 524.521 51.9493C525.126 50.3236 522.328 49.3882 521.723 51.0139C515.743 66.3205 512.029 83.2381 504.879 98.2144C502.019 104.205 498.52 109.19 494.344 113.643C472.635 125.093 433.428 109.366 422.988 138.903C422.951 139.378 423.426 139.416 423.463 138.941C434.435 108.728 469.506 125.327 491.487 116.527C485.773 122.295 479.621 127.551 473.193 133.263C458.032 146.658 445.486 160.257 445.994 181.328C445.939 182.04 447.128 182.133 447.183 181.421L447.677 181.22Z" fill="url(#paint0_angular_412_4)"/>
<g style="mix-blend-mode:multiply" opacity="0.1">
<path d="M217.983 694.889C243.954 684.01 259.413 666.815 269.368 646.56L269.13 646.542C271.501 600.841 245.718 554.137 263.803 509.423C263.859 508.71 264.554 509.004 264.517 509.479C249.267 554.653 272.344 599.234 269.735 644.916C277.179 629.246 281.661 611.671 285.467 593.566C286.139 563.506 274.828 533.705 278.884 503.191C278.811 485.739 265.507 472.273 266.916 454.22C268.952 431.197 277.239 413.919 267.311 390.918C267.111 390.424 267.861 390.005 268.062 390.499C276.57 407.175 275.658 421.921 271.633 439.771C267.7 456.432 268.568 466.776 275.21 482.829C277.619 488.753 279.132 493.89 279.144 499.866C286.36 456.455 314.717 421.147 313.74 375.423C313.558 374.692 314.747 374.785 314.691 375.497C317.08 418.463 290.975 452.513 282.06 493.163C275.038 524.879 286.238 556.105 286.425 587.427C291.924 559.894 296.289 531.556 307.529 507.1C315.853 489.348 327.281 477.812 339.716 465.638L337.921 467.171C353.818 450.488 345.072 433.793 343.959 414.347C343.258 401.865 345.192 389.35 348.04 377.383C348.096 376.671 349.028 376.982 348.991 377.458C348.03 386.703 346.375 395.656 346.127 404.957C345.713 416.396 348.557 425.939 349.844 437.033C351.187 447.414 348.323 456.512 341.529 463.868C345.942 459.433 350.594 455.016 355.282 450.124C391.746 412.103 388.833 363.599 383.798 314.691C383.798 314.691 384.292 314.49 384.274 314.728L384.419 316.106C387.82 348.219 391.365 381.702 380.439 412.893C366.218 454.085 323.609 472.746 307.723 513.807C301.468 529.57 297.7 547.201 294.15 565.087C308.711 531.809 354.538 514.833 374.181 483.863C387.796 462.7 393.002 435.861 409.121 416.327C424.434 397.925 447.786 389.949 463.995 372.334C464.508 371.896 465.422 372.445 464.891 373.121C457.104 383.985 449.306 388.873 438.687 396.17C410.128 415.689 400.262 437.862 385.229 467.996C377.31 483.629 367.562 498.164 355.109 510.575C354.34 511.232 353.552 512.127 352.783 512.784C364.115 505.543 376.102 502.176 390.21 499.215C407.977 495.344 424.958 492.368 439.533 480.361C453.851 468.573 462.669 450.62 471.577 434.586C471.852 434.129 472.291 434.641 472.253 435.117C461.693 456.996 449.925 479.021 427.265 490.397C424.281 491.837 421.554 493.058 418.608 494.023C428.361 491.677 438.293 493.169 448.667 492.067C473.99 489.503 494.423 472.935 506.648 451.185C506.923 450.728 507.6 451.259 507.325 451.716C498.435 467.512 485.102 482.006 468.264 489.295C449.924 497.423 431.4 489.525 412.953 495.971C391.615 502.67 368.856 503.045 349.432 515.868C328.887 533.862 302.147 545.397 292.843 572.633L292.843 572.633C288.796 593.826 284.75 615.02 277.503 634.29C281.244 626.217 285.185 618.638 292.838 612.544C297.928 608.639 303.877 605.997 309.167 602.586C326.046 591.715 334.747 581.4 342.376 563.355C342.651 562.898 343.126 562.935 343.089 563.41C337.715 577.091 332.013 588.835 319.619 597.427C308.213 605.618 295.42 610.116 286.426 621.125C280.858 628.099 277.593 636.209 273.395 644.007C262.998 666.856 246.697 685.659 218.385 695.876C217.891 696.077 217.251 695.071 217.983 694.889Z" fill="url(#paint1_angular_412_4)" style="mix-blend-mode:multiply"/>
<path d="M169.069 515.412C166.997 502.105 167.248 489.698 178.91 481.287L179.166 481.068C179.898 480.886 180.337 481.399 179.824 481.837C160.283 502.298 179.642 533.206 178.097 559.135C182.038 551.556 185.084 543.19 187.728 533.837C195.074 507.165 197.879 483.485 219.706 464.396C219.962 464.177 219.925 464.652 219.925 464.652C191.486 491.828 196.203 529.479 180.527 561.715C188.113 550.357 197.993 549.455 209.581 541.995C227.942 530.523 234.779 501.183 238.952 481.433C236.74 497.512 232.425 512.948 224.836 527.412C214.442 547.154 193.842 547.458 180.286 564.803C180.011 565.259 179.298 565.203 179.097 564.71C178.822 565.166 178.529 565.86 178.254 566.317C177.411 567.924 176.33 569.513 175.267 570.864C174.094 573.64 172.701 576.16 170.832 578.643C175.005 577.296 179.341 576.917 184.134 576.814C190.83 576.858 197.945 577.653 204.514 576.253C216.921 573.637 224.852 563.979 232.29 554.522C232.546 554.303 233.241 554.597 232.966 555.053C225.766 564.529 218.329 573.986 206.8 577.627C191.336 582.634 175.974 577.133 161.585 586.764C161.329 586.983 160.871 586.708 160.634 586.69C144.138 598.786 123.918 603.421 106.56 617.362C104.784 618.657 102.354 616.077 104.148 614.544C114.384 606.023 124.906 603.02 137.059 597.516C151.189 591.21 161.662 582.707 169.65 572.337C177.097 553.56 172.468 536.23 169.069 515.412Z" fill="url(#paint2_angular_412_4)" style="mix-blend-mode:multiply"/>
<path d="M13.977 525.293C30.5187 521.804 49.7844 520.201 64.5938 511.319L64.8501 511.1C80.9228 501.361 88.972 484.065 102.815 472.24C115.376 461.51 130.309 457.179 146.446 455.81C146.702 455.591 146.884 456.322 146.409 456.285C108.097 459.747 100.825 485.469 75.9409 506.947C78.1368 506.402 80.3327 505.856 82.7478 505.567C103.094 502.375 120.146 501.555 131.728 481.906C132.003 481.45 132.936 481.761 132.642 482.455C127.364 491.842 120.569 499.198 110.448 503.188C93.4088 509.984 75.7958 505.741 60.4704 518.167C59.9577 518.605 59.2814 518.074 59.3184 517.599C45.4079 524.161 29.6908 526.28 14.3228 526.993C13.3531 527.156 13.0072 525.456 13.977 525.293Z" fill="url(#paint3_angular_412_4)" style="mix-blend-mode:multiply"/>
<path d="M444.973 560.848C443.788 557.648 443.115 554.011 442.936 550.173C442.888 549.569 442.849 548.962 442.819 548.349C442.579 544.099 442.558 539.684 442.915 535.115C442.952 534.64 443.665 534.695 443.628 535.17C442.829 540.086 442.623 544.328 442.819 548.349C442.853 548.96 442.893 549.568 442.936 550.173C443.371 553.792 444.044 557.429 444.973 560.848Z" fill="url(#paint4_angular_412_4)" style="mix-blend-mode:multiply"/>
<path d="M529.402 665.425C528.652 665.844 527.537 664.801 527.537 664.801L527.281 665.02C522.109 642.39 512.579 623.483 494.336 608.914C483.99 600.459 471.171 596.112 461.1 587.2C452.363 579.588 447.323 570.591 444.736 560.829C452.174 585.07 478.327 593.325 499 610.473C493.849 602.901 492.632 593.964 492.203 584.132C491.383 563.992 488.987 545.642 481.122 526.865C485.995 538 489.898 549.298 491.825 561.398C494.696 579.785 491.366 597.928 503.277 613.914L503.221 614.627C517.038 627.655 525.364 643.6 528.949 662.043C529.53 648.466 533.916 635.186 532.138 621.186C529.924 603.566 522.402 589.596 515.302 573.268C504.991 549.042 498.155 526.282 510.364 501.663C510.639 501.207 511.096 501.481 511.059 501.956C493.036 539.744 518.891 570.202 531.076 604.134C540.909 631.43 526.227 675.453 544.114 697.642C545.85 699.928 542.079 702.263 540.343 699.976C531.409 688.763 529.88 680.757 529.328 666.375L529.402 665.425Z" fill="url(#paint5_angular_412_4)" style="mix-blend-mode:multiply"/>
<path d="M415.471 659.877L416.039 658.727L416.277 658.745C415.931 657.045 415.567 655.583 415.221 653.883C411.12 638.984 403.817 625.27 400.21 610.171C395.273 590.666 396.738 571.9 408.574 555.138C408.848 554.682 409.543 554.975 409.488 555.688C400.061 578.373 398.284 598.071 406.016 621.617C409.682 632.897 414.829 643.576 418.257 654.837C425.166 642.948 429.824 632.318 428.377 617.149C427.182 604.867 424.486 593.424 426.402 581.146C426.439 580.671 426.914 580.708 426.877 581.183C423.979 606.051 440.192 637.43 419.224 657.78C419.989 660.229 420.517 662.66 421.045 665.09L421.045 665.092C425.173 688.835 417.143 705.894 400.094 722.009C399.05 723.123 397.496 721.568 398.303 720.436C412.464 701.466 420.331 683.439 416.367 660.664C415.854 661.102 415.471 659.877 415.471 659.877Z" fill="url(#paint6_angular_412_4)" style="mix-blend-mode:multiply"/>
<path d="M352.937 664.077C353.039 653.57 350.726 643.352 349.383 632.97L349.64 632.751C347.426 615.132 347.572 597.936 358.07 582.982C358.364 582.288 359.278 582.837 358.985 583.531C333.698 622.425 376.454 672.366 338.567 707.169C336.773 708.702 334.305 706.597 335.88 704.809C346.193 692.23 352.828 680.798 352.937 664.077Z" fill="url(#paint7_angular_412_4)" style="mix-blend-mode:multiply"/>
</g>
<defs>
<radialGradient id="paint0_angular_412_4" cx="0" cy="0" r="1" gradientUnits="userSpaceOnUse" gradientTransform="translate(275.813 499.768) rotate(58.1331) scale(503.891 504.058)">
<stop offset="0.47" stop-color="#B76500"/>
<stop offset="1" stop-color="#D79004"/>
</radialGradient>
<radialGradient id="paint1_angular_412_4" cx="0" cy="0" r="1" gradientUnits="userSpaceOnUse" gradientTransform="translate(394.965 216.385) rotate(58.1331) scale(503.891 504.058)">
<stop offset="0.47" stop-color="#B76500"/>
<stop offset="1" stop-color="#D79004"/>
</radialGradient>
<radialGradient id="paint2_angular_412_4" cx="0" cy="0" r="1" gradientUnits="userSpaceOnUse" gradientTransform="translate(394.965 216.385) rotate(58.1331) scale(503.891 504.058)">
<stop offset="0.47" stop-color="#B76500"/>
<stop offset="1" stop-color="#D79004"/>
</radialGradient>
<radialGradient id="paint3_angular_412_4" cx="0" cy="0" r="1" gradientUnits="userSpaceOnUse" gradientTransform="translate(394.965 216.385) rotate(58.1331) scale(503.891 504.058)">
<stop offset="0.47" stop-color="#B76500"/>
<stop offset="1" stop-color="#D79004"/>
</radialGradient>
<radialGradient id="paint4_angular_412_4" cx="0" cy="0" r="1" gradientUnits="userSpaceOnUse" gradientTransform="translate(394.965 216.385) rotate(58.1331) scale(503.891 504.058)">
<stop offset="0.47" stop-color="#B76500"/>
<stop offset="1" stop-color="#D79004"/>
</radialGradient>
<radialGradient id="paint5_angular_412_4" cx="0" cy="0" r="1" gradientUnits="userSpaceOnUse" gradientTransform="translate(394.965 216.385) rotate(58.1331) scale(503.891 504.058)">
<stop offset="0.47" stop-color="#B76500"/>
<stop offset="1" stop-color="#D79004"/>
</radialGradient>
<radialGradient id="paint6_angular_412_4" cx="0" cy="0" r="1" gradientUnits="userSpaceOnUse" gradientTransform="translate(394.965 216.385) rotate(58.1331) scale(503.891 504.058)">
<stop offset="0.47" stop-color="#B76500"/>
<stop offset="1" stop-color="#D79004"/>
</radialGradient>
<radialGradient id="paint7_angular_412_4" cx="0" cy="0" r="1" gradientUnits="userSpaceOnUse" gradientTransform="translate(394.965 216.385) rotate(58.1331) scale(503.891 504.058)">
<stop offset="0.47" stop-color="#B76500"/>
<stop offset="1" stop-color="#D79004"/>
</radialGradient>
</defs>
</svg>
