<svg width="646" height="735" viewBox="0 0 646 735" fill="none" xmlns="http://www.w3.org/2000/svg">
<path style="mix-blend-mode:multiply" opacity="0.03" d="M-86.2526 567.258C-103.204 580.605 -118.997 589.559 -138.078 596.219C-117.088 583.392 -104.341 563.809 -98.7498 541.834C-95.1946 527.645 -96.6474 514.9 -96.1807 501.082C-95.2053 478.135 -82.8825 461.371 -65.1462 443.196C-64.7091 442.823 -65.2699 442.168 -65.7228 442.744C-80.5231 457.277 -95.1524 472.23 -97.8705 491.374C-100.212 508.306 -96.7189 523.655 -100.932 541.052C-100.427 534.572 -103.681 529.224 -111.426 523.933C-116.85 520.25 -122.887 521.816 -128.951 518.491C-140.096 512.323 -140.427 500.888 -139.542 489.547C-138.293 473.549 -130.557 458.057 -119.687 444.236C-133.93 462.073 -143.404 484.152 -140.087 504.378C-138.708 512.839 -135.825 515.102 -129.451 519.674C-122.298 524.715 -109.557 526.117 -104.652 533.834C-102.286 537.483 -104.026 546.719 -104.874 552.358C-104.89 552.56 -104.906 552.763 -104.501 552.794C-111.381 570.391 -123.375 585.55 -140.621 597.447C-146.066 599.263 -152.119 601.032 -158.359 602.582L-158.968 602.535C-163.507 603.199 -167.672 604.3 -172.243 605.37C-173.491 605.68 -173.57 606.692 -173.228 607.534C-179.389 608.072 -185.582 609.015 -191.917 611.78C-193.18 612.293 -193.323 614.115 -191.685 614.039C-170.503 611.822 -150.664 611.129 -131.846 602.615C-117.431 598.239 -103.291 589.563 -90.4922 579.763C-81.3032 577.017 -72.8962 576.451 -62.6516 578.473C-53.0152 580.448 -44.5664 584.571 -34.4613 585.767C-11.6314 588.568 11.3463 584.249 34.2663 575.444C34.6876 575.273 34.5481 574.447 34.111 574.82C-4.44087 587.907 -32.9287 581.812 -67.0904 572.625C-71.2846 571.483 -74.918 570.996 -78.3961 571.132C-74.2122 567.18 -70.0283 563.228 -65.8444 559.276C-56.2128 550.859 -46.1599 542.271 -36.1544 534.291C-19.706 524.777 -2.82891 522.834 17.4603 524.214C36.3146 525.686 52.6254 528.386 72.1724 523.595C72.9992 523.456 72.8913 522.225 72.2673 522.38C41.2406 527.904 11.7604 516.231 -19.0346 524.014C-20.9066 524.48 -22.5759 524.96 -24.261 525.644C8.60954 501.723 44.3259 485.767 85.096 499.136C86.0939 499.418 87.0155 498.064 86.0334 497.579C53.4359 484.033 15.1686 493.474 -18.4311 513.671C-39.4056 526.295 -56.5942 542.679 -74.9675 558.563C-77.1529 560.43 -79.3383 562.297 -81.5237 564.164C-71.0914 550.716 -66.5672 534.566 -59.1574 518.03C-55.9686 511.148 -52.4059 504.703 -48.2825 498.912C-38.5086 488.673 -27.9395 478.699 -13.3557 477.393C-3.70073 476.517 2.6603 478.643 11.5016 480.352C24.3659 482.782 37.1409 481.131 50.2004 475.834C51.4643 475.322 50.9667 473.857 49.7187 474.167C34.1947 479.678 21.6857 480.536 7.04417 477.355C0.63571 475.836 -5.75693 474.115 -12.9317 474.574C-23.1948 475.402 -31.9653 480.626 -39.4274 487.379C-10.4005 455.212 33.9702 440.746 77.7189 439.475C78.3271 439.522 78.1876 438.696 77.7822 438.665C41.9113 438.31 4.47065 447.612 -26.154 471.504C-39.8431 482.253 -51.0547 495.232 -58.5251 509.93C-68.6365 529.718 -71.747 551.276 -86.3 567.866L-86.2526 567.258ZM87.9416 776.246C79.4548 793.513 66.2763 808.172 44.1356 817.446C43.5116 817.601 44.0566 818.459 44.4779 818.288C68.6143 809.577 82.5117 793.548 91.375 774.069C94.9535 767.421 97.7369 760.507 102.484 754.562C110.152 745.177 121.058 741.342 130.781 734.359C141.348 727.034 146.208 717.022 150.79 705.359C150.822 704.954 150.416 704.923 150.182 705.312C143.678 720.696 136.261 729.489 121.871 738.757C117.361 741.665 112.29 743.918 107.951 747.246C101.426 752.442 98.066 758.903 94.8772 765.785C101.055 749.357 104.505 731.289 107.955 713.221C115.886 690.003 138.683 680.169 156.198 664.829C172.757 653.897 192.159 653.578 210.35 647.867C226.077 642.371 241.868 649.104 257.503 642.175C271.858 635.961 283.225 623.605 290.803 610.138C291.038 609.749 290.461 609.296 290.227 609.685C279.805 628.227 262.384 642.352 240.797 644.538C231.953 645.478 223.486 644.206 215.171 646.205C217.683 645.383 220.008 644.342 222.551 643.114C241.869 633.416 251.902 614.64 260.904 595.987C260.936 595.582 260.562 595.145 260.328 595.534C252.734 609.204 245.216 624.509 233.009 634.558C220.584 644.794 206.108 647.332 190.961 650.632C178.934 653.156 168.715 656.026 159.055 662.199C159.71 661.639 160.382 660.877 161.037 660.317C171.654 649.736 179.964 637.345 186.715 624.017C199.531 598.327 207.941 579.424 232.289 562.784C241.341 556.564 247.99 552.396 254.628 543.135C255.08 542.559 254.301 542.091 253.864 542.464C240.046 557.481 220.138 564.281 207.083 579.969C193.341 596.622 188.903 619.502 177.297 637.544C160.55 663.946 121.482 678.418 109.069 706.789C112.095 691.54 115.308 676.51 120.64 663.072C134.183 628.066 170.508 612.157 182.631 577.041C192.08 550.07 188.835 521.088 185.9 493.354C185.916 493.152 185.495 493.322 185.495 493.322C189.787 535.017 192.27 576.367 161.185 608.781C157.188 612.951 153.222 616.717 149.46 620.498C155.252 614.227 157.693 606.471 156.549 597.621C155.451 588.163 153.027 580.028 153.38 570.276C153.591 562.346 155.003 554.714 155.822 546.832C155.853 546.427 155.058 546.161 155.011 546.769C152.583 556.97 150.934 567.64 151.531 578.281C152.481 594.858 159.937 609.091 146.384 623.314C146.384 623.314 147.477 622.381 147.914 622.007C137.313 632.386 127.571 642.22 120.475 657.354C110.892 678.203 107.171 702.362 102.483 725.834C102.324 699.131 92.7755 672.51 98.7615 645.472C106.362 610.818 128.617 581.79 126.581 545.161C126.628 544.553 125.614 544.474 125.77 545.097C126.602 584.077 102.428 614.178 96.2757 651.187C96.2655 646.092 94.9756 641.713 92.9221 636.663C87.2594 622.977 86.52 614.159 89.8724 599.955C93.3038 584.738 94.0812 572.167 86.8282 557.95C86.6571 557.529 86.0173 557.886 86.1884 558.307C94.6523 577.916 87.5874 592.645 85.8513 612.273C84.6499 627.664 95.992 639.144 96.0544 654.022C92.5961 680.035 102.239 705.441 101.667 731.067C98.4221 746.503 94.601 761.485 88.255 774.844C90.4791 735.899 70.8052 697.893 83.8058 659.382C83.8374 658.977 83.245 658.727 83.1976 659.334C67.78 697.453 89.7602 737.269 87.7389 776.23L87.9416 776.246ZM-42.533 250.182C-41.2691 249.67 -39.8026 249.173 -38.3518 248.879C-38.5546 248.863 -38.96 248.831 -39.1786 249.018C-40.2239 249.344 -41.4877 249.857 -42.533 250.182ZM11.5421 247.272C19.9174 247.111 28.0296 245.096 35.5521 240.182C41.3578 236.356 45.4181 231.376 49.8995 226.225C57.7382 217.261 66.7905 211.04 78.1175 207.034C78.3202 207.05 78.1649 206.427 78.1491 206.629C66.6984 209.607 58.7388 214.894 50.9159 223.655C39.0645 236.992 27.7004 246.7 9.93603 246.943C3.90143 245.861 -2.36752 245.168 -8.855 244.662C-19.5999 243.823 -29.147 245.93 -38.1491 248.895C-22.0802 244.24 -4.52131 246.63 11.3366 249.905C50.8958 257.883 82.277 271.335 122.872 258.204C123.715 257.862 123.388 256.818 122.561 256.957C80.2524 268.528 49.3558 254.095 11.9318 247.507L11.5421 247.272ZM-169.012 229.511C-159.92 259.356 -142.372 272.34 -119.7 277.165C-102.279 291.769 -121.958 319.164 -108.721 337.719C-100.249 349.383 -87.2794 355.692 -74.5917 362.999C-72.1617 365.837 -70.9639 368.783 -70.5955 374.517C-70.1324 379.035 -70.6038 382.462 -70.5145 386.544C-70.362 389.816 -70.3806 392.667 -69.1985 395.815C-65.326 406.305 -54.1179 411.662 -44.6871 416.269C-44.4843 416.285 -44.0472 415.912 -44.4527 415.88C-56.7982 409.415 -66.787 401.504 -67.8632 386.547C-68.1394 382.247 -66.778 377.871 -67.4597 373.539C-68.0019 370.033 -69.4183 367.274 -71.2717 364.888C-62.8861 369.821 -55.172 375.517 -49.5037 383.905C-49.5195 384.108 -48.8955 383.953 -49.0824 383.735C-56.5251 371.948 -66.2639 363.445 -77.9221 356.015C-85.6995 351.13 -95.6465 347.908 -102.268 341.279C-121.914 321.205 -108.899 313.867 -107.181 297.091C-106.315 288.601 -108.508 282.725 -112.87 278.513C-110.437 278.703 -108.223 279.08 -105.588 279.286C-79.6013 291.298 -71.8487 320.019 -41.1466 326.491C-37.2025 328.225 -33.2585 329.959 -29.533 331.88C-17.9827 338.079 -19.3971 348.359 -16.5225 358.567C-13.1503 370.24 -0.741597 375.895 9.782 379.568C10.9668 380.068 11.7331 378.091 10.5483 377.591C5.43526 375.154 -1.92363 372.746 -5.67797 368.582C-10.9435 362.874 -12.386 355.222 -13.6889 348.397C-14.4023 344.47 -14.5706 341.401 -16.9532 337.955C-20.2547 333.215 -25.523 330.155 -31.0573 327.89C-23.7747 328.662 -16.2577 329.045 -8.9909 330.02C20.1396 333.108 37.4846 346.076 55.3347 368.251C56.0824 369.124 57.3621 368.409 56.8329 367.349C36.5239 340.092 17.3199 330.036 -16.0206 326.007C-26.1257 324.811 -36.4968 324.409 -46.2726 321.608C-47.0678 321.342 -47.8471 320.874 -48.4395 320.624C-48.6422 320.608 -48.845 320.593 -49.0477 320.577C-51.2303 319.795 -53.6157 318.998 -55.7826 318.014C-69.1575 311.672 -74.7756 300.028 -84.1693 289.719C-88.1106 285.336 -91.5069 281.811 -95.2007 279.485C-86.0303 279.59 -76.6097 279.103 -66.7678 278.445C-45.0251 276.882 -26.0443 276.734 -6.99835 288.815C4.65985 296.245 13.398 307.114 25.072 314.341C47.0483 328.078 71.1373 319.975 95.5863 325.551C96.1945 325.598 96.4605 324.804 95.6495 324.74C65.4477 317.086 39.7526 324.86 13.0901 303.219C3.49087 295.542 -4.67345 287.774 -14.8678 282.496C-1.20839 285.192 11.7907 278.057 25.5794 276.485C47.8066 273.941 59.8537 297.293 80.4666 302.366C81.4802 302.445 81.7778 301.246 80.7958 300.762C66.702 295.791 59.8648 286.7 48.0355 278.849C43.7808 275.868 39.634 274.118 34.1602 273.691C15.5403 271.83 -0.75549 284.616 -19.7939 280.278C-19.9967 280.262 -20.1994 280.246 -20.1994 280.246C-22.9586 279.012 -25.9364 277.965 -29.1486 277.306C-48.7794 272.718 -69.2294 276.011 -89.0053 275.894C-94.1053 275.903 -98.7682 275.539 -103.228 275.191C-92.7782 274.581 -82.7782 271.898 -72.5886 266.785C-62.6175 261.858 -54.9369 254.919 -44.6077 250.632C-65.8584 258.956 -84.4633 272.581 -108.468 274.375C-135.663 270.011 -152.258 255.268 -168.138 228.765C-168.496 228.125 -169.76 228.638 -169.402 229.277L-169.012 229.511ZM320.938 158.753C336.309 121.242 308.285 103.977 282.82 85.2825C282.494 84.2383 281.714 83.7699 280.887 83.9092C265.069 72.2835 250.75 59.7561 248.913 41.4795C249.243 24.1871 250.463 5.94536 258.793 3.74323C260.041 3.43316 259.81 1.17391 258.375 1.26564C250.795 1.69266 250.539 7.58127 248.551 14.7608C247.11 20.1495 246.091 25.3672 245.462 30.8192C245.446 31.0217 245.43 31.2242 245.398 31.6292C245.367 32.0342 245.319 32.6418 245.288 33.0468C245.193 34.2619 245.082 35.6794 244.971 37.097C242.604 49.1368 231.761 52.1616 225.855 62.499C220.902 71.0771 221.718 81.5316 214.769 89.5465C207.149 98.3239 193.076 103.541 183.929 110.977C175.437 117.853 168.676 126.086 162.272 134.958C162.272 134.958 162.24 135.363 162.475 134.974C169.939 125.573 178.276 118.074 187.375 111.246C185.358 116.182 185.695 122.321 186.047 128.257C186.278 146.204 179.385 161.355 164.869 172.242C164.869 172.242 164.837 172.647 164.853 172.445C173.671 166.613 180.401 158.785 184.045 148.679C188.925 135.816 183.268 116.834 193.229 106.813C196.896 104.247 200.548 101.883 204.403 99.5357C211.27 95.1819 216.233 91.6982 221.028 85.1452C222.029 82.7784 222.826 80.3957 223.843 77.8264C226.189 71.286 228.925 64.9798 232.066 58.7052C235.268 54.269 240.371 51.6112 243.573 47.175L244.026 46.5991C243.22 56.9271 242.819 67.2868 240.375 77.6907C238.418 84.4652 235.232 88.6989 227.973 95.467C226.865 96.6029 224.993 97.068 223.868 98.4065C220.948 101.846 218.886 104.741 217.12 109.086C209.425 129.267 212.523 149.679 196.114 166.532C195.895 166.718 196.066 167.139 196.488 166.968C205.448 159.314 208.998 150.423 211.768 141.063C212.16 154.337 214.486 166.336 217.732 179.629C221.925 196.459 217.47 206.502 204 217.064C198.583 221.124 193.589 225.013 188.733 229.727C188.717 229.93 188.686 230.335 189.123 229.961C200.363 219.225 218.805 212.923 221.599 195.415C222.871 186.957 219.652 178.556 217.617 170.655C214.634 159.216 212.884 147.67 213.192 135.877C214.696 129.678 216.013 123.261 218.157 116.705C222.38 104.403 231.512 97.1694 237.76 87.6737C232.362 104.571 227.058 120.252 230.954 138.282C237.83 170.399 274.399 203.611 243.985 235.262C243.985 235.262 243.953 235.668 244.188 235.278C269.931 211.209 251.636 181.664 241.293 154.777C230.11 125.584 237.693 106.82 244.582 81.279C243.492 95.2521 241.261 110.766 248.377 121.509C253.842 129.882 263.321 133.881 272.128 138.644C269.794 147.63 273.749 154.458 278.856 162.192C288.152 176.365 293.144 190.813 288.759 207.788C288.743 207.991 289.149 208.023 289.164 207.82C292.122 198.679 293.052 189.379 290.722 180.029C287.445 167.141 272.174 153.724 275.245 140.517C277.77 142.14 280.295 143.764 282.585 145.776C299.351 160.939 304.629 184.782 310.97 205.447C311.11 206.273 312.171 205.745 312.016 205.121C307.051 179.877 298.922 153.367 276.667 137.979L275.888 137.511C275.998 136.093 274.626 135.375 273.565 135.903C259.804 126.679 248.348 119.265 246.856 99.1822C246.117 90.3635 247.341 82.5131 246.57 74.0994C246.665 72.8843 247.166 71.7009 247.463 70.5017C248.356 66.904 248.409 60.9996 248.744 54.0984C254.172 68.173 266.42 78.5012 279.355 87.8644C281.627 92.7278 280.358 98.5373 281.584 103.727C282.329 107.248 283.917 110.429 285.504 113.609C289.785 121.481 296.283 127.082 302.093 133.648C297.344 126.554 291.533 119.988 287.221 112.52C283.095 105.271 284.038 98.4172 283.375 91.2344C307.734 108.417 332.593 124.415 320.127 158.69C320.112 158.892 320.501 159.127 320.533 158.722L320.938 158.753ZM576.607 651.396C580.778 644.998 576.165 641.378 571.524 635.514C568.191 631.179 564.421 627.217 560.416 623.645C560.432 623.442 560.245 623.224 559.855 622.99C559.466 622.756 559.092 622.319 558.702 622.085C557.752 621.196 556.801 620.307 555.851 619.417C547.376 610.402 551.458 599.923 546.603 588.949C542.62 579.877 533.673 574.289 531.407 564.129C528.83 552.722 533.009 538.378 532.288 526.709C531.707 515.865 529.051 505.47 525.787 495.028C525.787 495.028 525.381 494.997 525.584 495.012C528.753 506.669 529.927 517.763 530.055 529.183C527.362 524.49 522.094 521.43 517.278 517.795C502.582 507.479 494.347 492.778 494.132 474.628L493.929 474.612C493.513 485.174 495.795 495.132 501.618 504.144C509.077 515.728 527.739 522.279 529.908 536.302C529.779 540.571 529.633 545.042 529.27 549.7C528.637 557.8 528.569 563.907 531.041 571.435C532.505 573.586 533.766 575.722 535.229 577.874C539.06 583.674 542.469 589.645 545.863 595.819C547.495 601.039 546.647 606.678 548.279 611.899L548.232 612.507C540.596 605.798 532.54 599.261 525.421 591.167C521.169 585.537 519.521 580.519 518.455 570.656C518.379 569.02 518.724 567.213 518.429 565.764C517.545 561.417 516.192 557.847 513.825 554.199C502.194 535.973 483.753 526.587 479.863 503.261C479.894 502.856 479.255 503.213 479.457 503.229C480.381 514.915 485.254 523.037 491.375 530.85C480.528 523.483 469.336 517.923 456.693 512.658C440.682 506.111 435.109 496.507 434.596 479.557C434.51 472.826 434.391 466.501 433.291 459.692C433.323 459.287 432.683 459.644 432.886 459.66C434.741 475.086 429.014 493.587 441.493 506.174C447.554 512.148 456.129 514.651 463.846 517.699C474.93 522.028 485.109 527.508 494.537 534.764C498.649 539.567 502.965 544.386 506.998 550.202C514.52 560.977 514.835 572.615 518.91 583.12C508.414 568.65 498.851 555.271 482.109 547.648C452.147 534.307 403.664 543.97 396.223 500.807C396.223 500.807 395.817 500.775 396.02 500.791C400.226 535.756 434.893 538.462 462.647 546.129C493.004 554.407 503.482 571.729 520.024 592.375C509.521 583.202 498.148 572.127 485.344 571.535C475.394 570.962 466.608 576.389 457.511 580.568C451.748 573.395 443.857 572.575 434.515 572.05C417.657 571.141 402.923 566.528 391.942 553.038C391.942 553.038 391.536 553.007 391.723 553.225C397.236 560.99 404.295 567.246 413.181 570.996C425.637 576.043 445.355 571.674 454.343 581.951C451.597 583.163 448.664 584.156 445.762 584.745C423.58 589.329 401.303 579.441 380.646 572.327C379.835 572.264 379.569 573.058 380.145 573.511C403.372 584.288 429.767 593.684 455.136 584.865L455.978 584.524C456.928 585.413 458.411 584.714 458.709 583.514C474.233 578.003 487.058 573.095 504.171 583.803C511.762 588.471 517.448 594.008 524.447 598.425C525.194 599.299 525.926 600.375 526.877 601.264C529.307 604.102 533.919 607.722 539.514 611.826C524.936 607.836 509.554 611.525 494.078 616.429C488.854 615.41 484.913 611.028 479.987 608.809C476.822 607.544 473.22 606.651 469.789 606.18C460.901 605.079 452.602 606.876 443.976 607.629C452.507 608.091 461.351 607.151 469.631 608.205C477.912 609.259 482.851 613.923 489.085 617.67C460.815 627.076 433.261 637.761 412.987 607.451C413.002 607.248 412.378 607.403 412.565 607.622C433.74 642.077 464.275 629.791 494.385 620.324C495.367 620.809 496.21 620.467 496.695 619.486C515.51 613.62 533.996 609.358 549.769 618.943C563.639 629.398 577.398 641.27 574.317 649.383C573.801 650.769 575.765 651.737 576.468 650.57L576.607 651.396ZM67.3673 46.8678C66.6987 44.9819 63.9683 45.9912 64.45 47.6588C68.7252 60.8283 76.2553 63.6573 85.2751 73.5298C109.141 99.6382 105.243 128.673 108.251 160.692C110.827 187.787 115.57 215.866 140.056 231.429C140.648 231.679 141.117 230.9 140.743 230.463C108.702 207.181 110.868 163.749 108.037 126.854C109.606 132.885 111.58 138.947 114.21 144.45C119.283 155.237 128.43 163.489 132.442 174.805C138.32 190.952 135.557 208.054 147.989 221.249C148.55 221.904 149.44 220.955 149.082 220.316C138.354 203.587 140.869 184.427 132.418 167.264C129.243 160.904 124.32 156.038 120.489 150.238C114.666 141.226 110.933 131.562 107.653 121.323C107.266 118.44 107.097 115.371 106.695 112.691C105.255 102.391 103.613 92.0757 98.1786 83.298C89.8645 69.6094 72.6693 62.5624 67.6017 46.4786L67.3673 46.8678ZM-26.7518 102.885C-28.0259 98.3034 -35.3429 100.585 -33.6475 104.996C-29.4012 115.922 -22.4533 123.595 -13.2568 128.592C-10.6556 131.851 -7.60153 134.534 -4.56328 137.42C-0.319685 150.995 4.69018 162.591 1.30615 177.201C-0.197553 183.399 -3.29153 189.066 -3.39189 195.578C-3.43457 206.577 3.4817 214.656 13.3655 218.687C13.771 218.719 14.0053 218.329 13.6157 218.095C-1.50482 210.599 -1.83324 196.515 2.95411 182.219C4.56571 177.251 6.12988 172.891 6.54088 167.626C7.01787 158.902 5.09367 149.583 0.375849 142.084L0.936623 142.739C9.0535 151.115 13.4263 160.421 17.6885 171.145C21.282 179.982 24.1594 187.542 34.4514 188.956C18.3749 185.868 17.8679 163.62 10.2225 151.817C4.94388 143.663 -2.95724 137.749 -9.32855 130.528C-5.57145 132.044 -1.59579 133.373 2.61421 134.313C14.0594 136.632 26.7265 133.75 37.9058 136.864C59.656 143.044 67.4773 165.659 72.9001 185.03C68.862 168.823 63.9209 151.119 49.63 140.835C24.1337 122.546 -15.9405 144.682 -26.7676 103.088L-26.7518 102.885ZM447.258 735.428C442.372 724.86 434.987 717.56 425.556 712.952C422.737 709.88 419.682 707.197 416.41 704.7C411.526 691.483 405.674 680.228 408.263 665.353C409.361 659.122 412.268 653.237 411.963 646.693C411.398 635.647 404.044 627.942 394.113 624.518C393.708 624.487 393.473 624.876 394.066 625.126C409.655 631.844 410.81 645.788 406.818 660.35C405.409 665.334 404.032 669.912 404.229 675.225C404.376 683.794 406.706 693.144 411.86 700.27C411.658 700.254 411.487 699.833 411.3 699.615C402.746 691.612 397.936 682.68 393.034 672.314C389.019 663.647 385.502 656.445 375.381 655.451C391.521 657.73 393.463 679.886 401.561 691.113C407.261 699.096 415.412 704.418 422.22 711.266C418.448 709.953 414.456 708.826 410.012 708.275C398.316 706.547 385.991 710.272 374.765 707.765C352.717 702.784 343.632 680.682 337.164 661.637C342.044 677.502 348.015 695.083 362.775 704.588C389.208 721.321 428.021 697.049 441.345 738.023C442.837 742.418 449.983 739.716 448.053 735.694L447.258 735.428ZM500.636 354.723C500.981 352.916 501.716 351.344 502.45 349.771C501.716 351.344 500.981 352.916 500.028 354.676C499.996 355.081 500.589 355.331 500.636 354.723ZM502.45 349.771C503.888 347.031 505.31 344.493 506.935 341.971C505.107 344.478 503.685 347.015 502.45 349.771ZM490.712 419.146C516.526 402.01 531.322 377.085 533.522 346.288C534.596 332.517 533.223 318.759 532.473 304.846C531.218 281.725 534.215 264.233 540.056 241.666C544.835 235.316 550.067 228.39 555.61 222.71C557.077 222.213 558.559 221.514 559.823 221.001C561.087 220.489 560.792 219.039 560.028 218.369C567.069 211.787 574.528 207.683 582.185 208.892C584.602 209.285 584.902 205.437 582.485 205.045C569.995 203.051 564.107 210.537 555.879 219.267C552.322 220.416 548.546 221.751 544.989 222.9C545.036 222.292 544.46 221.839 543.836 221.995C522.322 228.465 503.686 226.807 483.703 216.282C473.898 211.238 465.265 204.248 454.491 201.166C437.73 196.394 419.947 199.488 405.729 209.177C423.723 198.153 444.731 198.163 463 207.127C473.024 211.985 481.673 218.772 491.946 223.038C502.438 227.117 513.852 229.841 524.926 229.076C512.601 232.8 499.981 235.075 487.085 233.049C468.341 230.16 451.647 221.929 432.479 221.859C432.073 221.828 432.026 222.435 432.431 222.467C454.78 223.6 473.981 236.305 495.892 237.811C514.138 239.236 533.548 230.971 551.023 223.982C543.435 232.354 536.47 240.572 529.319 248.571C511.465 260.42 491.775 267.033 470.514 270.263C448.427 273.633 434.354 263.162 414.6 257.545C393.458 251.412 374.787 252.808 353.276 256.629C352.668 256.582 352.792 257.61 353.416 257.455C387.718 251.779 401.482 258.355 432.99 270.187C443.092 274.031 450.451 276.439 461.728 275.69C479.961 274.668 499.29 270.064 516.251 261.813C515.783 262.591 515.314 263.369 514.861 263.945C501.201 276.937 485.468 287.73 464.22 293.406C441.506 299.579 417.944 295.703 394.935 300.426L395.34 300.458C395.34 300.458 395.311 298.214 394.453 298.759C372.078 308.422 347.853 297.362 324.42 304.905C308.522 309.98 293.727 319.217 282.376 331.37C281.939 331.743 282.5 332.398 282.937 332.025C304.883 314.79 326.218 300.156 355.504 303.868C363.176 304.875 370.006 306.223 376.338 306.106C357.584 313.81 341.117 326.176 326.348 340.304C326.348 340.304 326.316 340.709 326.535 340.522C355.287 317.095 382.128 302.483 419.484 299.49C438.778 297.94 456.793 297.105 475.453 290.616C487.825 286.284 498.67 280.611 508.612 273.441C499.973 287.436 491.895 302.086 480.965 314.069C472.486 323.391 462.857 329.159 452.528 333.446C436.836 335.888 416.46 327.778 401.002 329.831C384.515 332.008 370.705 339.08 358.622 350.158C358.622 350.158 358.59 350.563 359.011 350.392C379.802 334.9 404.467 327.25 430.18 332.313C436.402 333.613 441.999 335.069 447.489 335.294C435.943 339.486 423.9 342.213 411.559 346.14C391.059 352.69 374.113 360.739 365.592 381.059C365.561 381.464 365.95 381.699 366.185 381.309C389.309 341.143 433.186 351.292 467.473 330.13C471.967 327.425 475.901 324.065 479.664 320.283C471.235 342.037 476.107 365.848 452.945 382.988C432.81 397.92 405.725 392.138 386.212 409.563C385.993 409.75 386.164 410.171 386.586 410C409.438 391.613 443.476 399.771 463.758 377.72C481.355 358.719 474.784 333.146 487.205 312.519C487.205 312.519 487.221 312.316 487.237 312.114C498.043 299.102 506.419 283.253 514.466 269.008C518.384 265.85 522.115 262.474 525.877 258.693C527.423 257.183 528.984 255.472 530.577 253.355C531.436 252.811 532.31 252.064 533.184 251.317C527.193 267.964 528.733 287.44 529.635 304.625C530.34 316.497 530.671 327.932 530.02 338.884C530.02 338.884 530.02 338.884 529.817 338.868C523.401 345.294 514.414 348.056 507.608 354.249C505.641 355.929 504.064 357.843 502.487 359.757C505.407 356.318 508.903 353.331 512.555 350.967C518.377 346.94 525.289 344.627 530.191 339.304C528.428 369.728 519.37 396.934 490.417 417.697C489.98 418.071 490.354 418.507 490.978 418.352L490.712 419.146ZM10.8251 635.348C0.882822 642.518 0.669042 653.096 2.43516 664.44C5.33313 682.188 9.27914 696.962 2.93037 712.969C-3.8788 721.81 -12.8074 729.059 -24.8533 734.435C-35.214 739.127 -44.1845 741.687 -52.9104 748.952C-54.4402 750.259 -52.3682 752.458 -50.8542 751.353C-36.0566 739.469 -18.8187 735.517 -4.75574 725.205C-4.553 725.221 -4.16334 725.455 -3.94479 725.269C8.32239 717.058 21.4183 721.747 34.6015 717.479C44.4304 714.375 50.7709 706.313 56.9086 698.235C57.1429 697.845 56.5505 697.595 56.332 697.782C49.9916 705.844 43.2298 714.078 32.6532 716.308C27.0529 717.501 20.9868 716.824 15.2786 716.786C11.1923 716.874 7.49566 717.197 3.93852 718.345C5.53155 716.229 6.7191 714.08 7.71972 711.713C8.6255 710.562 9.54709 709.207 10.2659 707.837C10.5003 707.448 10.7505 706.856 10.9848 706.467C11.1559 706.888 11.7641 706.935 11.9985 706.546C23.5551 691.76 41.1167 691.501 49.9773 674.671C56.447 662.34 60.1258 649.18 62.0117 635.473C58.4538 652.309 52.6259 677.322 36.9727 687.103C27.0937 693.462 18.6709 694.231 12.204 703.914C25.5674 676.433 21.5459 644.335 45.791 621.167C45.791 621.167 45.8226 620.762 45.604 620.948C26.9964 637.222 24.6047 657.409 18.3425 680.147C16.0883 688.121 13.4919 695.253 10.132 701.714C11.4495 679.609 -5.05495 653.26 11.6044 635.816C12.0415 635.443 11.6676 635.006 11.0436 635.161L10.8251 635.348ZM-86.6311 660.951C-99.2563 668.523 -115.681 669.889 -129.783 672.863C-130.609 673.003 -130.315 674.452 -129.488 674.313C-116.386 673.705 -102.987 671.899 -91.1284 666.305C-91.16 666.71 -90.5834 667.162 -90.1463 666.789C-77.0813 656.195 -62.0659 659.812 -47.5398 654.019C-38.9115 650.618 -33.1188 644.346 -28.6187 636.344C-28.3686 635.752 -29.1637 635.487 -29.3981 635.876C-39.2724 652.627 -53.8087 653.326 -71.1546 656.047C-73.2135 656.294 -75.0855 656.759 -76.9576 657.224C-55.7432 638.913 -49.5442 616.985 -16.8827 614.033C-16.4772 614.065 -16.6325 613.442 -16.8511 613.628C-30.6081 614.796 -43.3385 618.488 -54.0471 627.636C-65.8483 637.717 -72.7104 652.462 -86.4126 660.764L-86.6311 660.951ZM-186.437 397.87C-187.451 397.79 -187.359 399.224 -186.564 399.49C-178.831 402.334 -172.112 405.1 -164.861 406.277C-164.877 406.48 -164.893 406.682 -164.503 406.916C-155.309 414.561 -142.229 419.454 -130.141 418.767C-122.156 418.372 -114.557 415.094 -106.555 414.496C-95.4812 413.73 -85.7211 416.733 -75.6188 420.578C-75.2133 420.61 -74.979 420.221 -75.3687 419.986C-85.8105 412.652 -98.4879 410.44 -111.06 412.107C-120.949 413.372 -130.42 417.115 -140.43 414.704C-146.636 413.201 -152.076 409.72 -157.578 407.049C-153.913 407.132 -150.201 406.607 -146.238 405.49C-124.537 399.238 -109.198 390.859 -86.0282 397.15C-85.42 397.198 -84.9513 396.419 -85.5279 395.967C-99.3399 389.999 -113.018 390.153 -127.075 395.168C-137.341 398.646 -148.031 404.942 -159.229 404.679C-169.008 404.527 -176.925 398.816 -186.437 397.87ZM346.769 230.246C353.876 220.206 362.12 211.274 372.046 204.306C375.933 201.554 380.567 199.674 383.892 196.266C390.746 189.466 391.787 178.749 395.71 170.295C400.407 167.605 404.747 164.276 408.135 160.059C420.94 144.962 425.327 125.338 428.451 106.226C428.287 129.236 443.514 153.652 427.21 174.383C426.976 174.773 427.35 175.209 427.787 174.836C450.286 150.513 421.766 116.095 434.131 88.3326C434.6 87.5542 433.228 86.8359 432.759 87.6143C431.103 90.5411 430.039 93.718 429.194 96.7082C428.681 95.4456 426.451 95.2716 426.121 96.8758C424.254 107.732 422.745 119.228 419.443 130.176C412.963 137.412 407.199 145.927 399.394 151.838C389.405 159.615 378.986 159.821 367.193 161.956C355.4 164.092 345.585 169.642 336.422 177.28C336.422 177.28 336.39 177.685 336.624 177.296C348.207 167.402 360.44 162.244 375.413 161.172C381.153 160.805 386.237 160.998 391.698 158.979C402.651 154.537 410.851 143.564 417.926 133.929C416.83 137.511 415.345 140.858 413.657 144.19C403.749 163.995 387.287 171.063 368.469 179.578C355.986 185.327 347.979 191.222 344.285 204.584C344.269 204.787 344.456 205.005 344.69 204.616C353.367 184.919 375.299 180.926 392.996 171.101C391.605 173.234 390.605 175.601 389.588 178.17C385.538 188.245 381.57 194.659 372.534 200.677C361.125 208.344 352.428 217.852 345.397 229.528C345.147 230.119 345.942 230.385 346.177 229.996L346.769 230.246ZM235.911 694.074C236.063 697.346 236.637 700.447 237.648 703.174C236.855 700.26 236.282 697.159 235.911 694.074ZM235.893 681.237C235.545 685.692 235.619 689.976 235.911 694.074C235.603 690.179 235.716 686.113 236.501 681.284C236.533 680.879 235.924 680.832 235.893 681.237ZM308.035 791.796C308.035 791.796 308.985 792.685 309.625 792.328C309.609 792.53 309.577 792.935 309.562 793.138C310.032 805.399 311.335 812.224 318.952 821.784C320.431 823.733 323.646 821.743 322.167 819.793C306.918 800.877 319.434 763.347 311.052 740.077C300.664 711.15 278.622 685.183 293.987 652.969C294.019 652.564 293.629 652.33 293.395 652.719C282.986 673.707 288.814 693.11 297.604 713.763C303.657 727.683 310.07 739.593 311.957 754.613C313.473 766.549 309.733 777.87 309.238 789.445C306.182 773.722 299.084 760.128 287.305 749.022C287.305 749.022 287.337 748.617 287.352 748.414C277.198 734.786 280.037 719.319 277.589 703.644C275.947 693.328 272.619 683.696 268.465 674.203C275.17 690.211 277.213 705.855 277.912 723.024C278.278 731.406 279.315 739.026 283.706 745.481C266.082 730.862 243.787 723.824 237.445 703.159C239.651 711.48 243.948 719.151 251.396 725.641C259.981 733.238 270.91 736.944 279.73 744.152C295.282 756.572 303.407 772.69 307.816 791.983L308.035 791.796ZM212.981 786.618L212.497 787.598C212.497 787.598 212.823 788.643 213.26 788.269C216.64 807.685 209.933 823.053 197.86 839.226C197.173 840.191 198.497 841.516 199.387 840.567C213.922 826.828 220.768 812.286 217.249 792.044C216.799 789.972 216.349 787.899 215.696 785.811C233.571 768.462 219.75 741.711 222.221 720.511C222.252 720.106 221.847 720.074 221.815 720.479C220.182 730.946 222.48 740.702 223.499 751.172C224.733 764.104 220.762 773.167 214.872 783.301C211.95 773.701 207.561 764.598 204.436 754.982C197.844 734.908 199.359 718.115 207.396 698.776C207.443 698.168 206.851 697.918 206.616 698.307C196.526 712.597 195.278 728.595 199.487 745.223C202.561 758.095 208.788 769.787 212.284 782.488C212.578 783.937 212.889 785.184 213.184 786.633L212.981 786.618ZM539.653 463.715C551.528 457.919 560.195 461.855 566.152 448.262C570.373 438.608 570.837 427.438 576.024 418.471C588.257 413.314 600.908 410.634 614.986 415.807C616.779 416.355 617.593 413.77 616.034 412.833C605.326 406.293 594.721 406.28 584.268 409.539C584.705 409.165 585.126 408.994 585.563 408.621C586.203 408.263 585.674 407.203 585.05 407.358C581.54 407.899 578.949 409.735 577.122 412.241C572.067 414.291 567.167 416.965 562.251 419.841C551.769 420.856 542.215 415.221 531.628 412.357C522.631 410.025 513.787 410.964 505.362 414.381C505.362 414.381 505.33 414.786 505.346 414.584C520.699 408.651 532.312 414.04 546.812 419.043C550.99 420.388 554.997 421.312 559.068 421.426C543.462 430.599 527.777 440.784 511.853 440.967C471.849 441.308 450.784 405.435 412.793 434.865C412.793 434.865 412.761 435.27 412.964 435.286C454.966 404.132 477.146 446.612 516.764 443.388C522.098 442.989 527.308 441.562 532.348 439.715C528.462 442.467 524.949 445.657 520.439 448.565C507.532 457.133 493.556 458.487 479.01 454.092C466.053 450.228 456.485 442.146 442.865 446.788C442.46 446.756 442.818 447.396 443.02 447.411C463.112 443.479 479.828 461.898 500.87 458.854C517.374 456.475 526.853 444.787 540.134 436.655C551.337 431.621 562.074 424.717 573.075 419.667C572.277 422.05 571.479 424.432 570.697 426.612C568.522 433.574 568.432 445.18 563.684 451.125C558.047 458.02 547.144 459.207 539.498 463.092C539.295 463.076 539.45 463.7 539.669 463.513L539.653 463.715ZM391.28 783.625C385.441 774.815 378.445 767.749 369.28 762.348C351.73 752.013 335.438 746.463 335.057 722.595C334.827 733.376 338.294 743.833 346.693 751.213C351.851 755.69 358.415 757.832 364.291 760.94C375.046 766.873 383.024 774.423 390 784.34C390.561 784.995 391.622 784.466 391.077 783.609L391.28 783.625ZM521.92 688.283C522.949 688.159 522.67 686.508 521.657 686.429C511.846 686.682 503.224 684.786 495.588 678.078C491.397 674.287 488.096 669.547 483.904 665.756C478.357 661.044 472.246 658.326 464.992 659.797C481.651 658.042 487.59 676.027 499.435 683.675C506.23 688.077 514.058 689.707 521.92 688.283ZM605.803 502.089C619.228 505.175 632.127 504.551 645.231 501.296C645.855 501.141 645.529 500.097 644.905 500.252C617.809 505.064 598.587 497.859 574.783 486.628C561.003 480.255 552.311 484.467 541.742 494.44C541.742 494.44 541.711 494.845 541.945 494.456C564.642 475.446 583.366 496.874 605.819 501.887L605.803 502.089ZM156.156 764.66C157.301 773.51 159.272 782.221 159.185 791.179C159.092 805.434 153.436 815.18 144.644 825.903C143.302 827.428 145.405 829.222 146.935 827.916C179.234 798.245 142.784 755.67 164.341 722.513C164.591 721.921 163.812 721.453 163.562 722.044C154.612 734.793 154.487 749.453 156.374 764.473L156.156 764.66ZM-150.949 152.276C-155.309 145.416 -158.658 141.284 -166.109 137.442C-167.091 136.958 -168.434 138.483 -167.265 139.186C-147.816 153.947 -143.802 178.302 -120.701 190.7C-119.127 191.434 -117.537 191.966 -116.165 192.684C-102.89 205.537 -87.4649 219.577 -72.0496 228.523C-56.2446 237.703 -43.4586 225.457 -27.0976 224.901C-26.8948 224.916 -26.8632 224.511 -27.0659 224.496C-33.5692 224.192 -38.5771 225.635 -44.6303 227.403C-57.7661 231.064 -66.6706 230.165 -77.423 221.584C-87.7858 213.236 -97.6798 204.11 -108.027 195.56C-86.8847 201.693 -63.7991 198.605 -43.9553 208.304C-65.3076 194.413 -92.685 200.222 -115.896 189.241C-116.878 188.757 -117.455 188.305 -118.437 187.821C-118.811 187.384 -119.403 187.134 -119.777 186.697C-119.98 186.681 -120.385 186.65 -120.588 186.634C-134.819 178.188 -141.872 166.636 -150.949 152.276ZM-106.527 118.866C-106.527 118.866 -107.947 118.755 -107.589 119.395C-101.913 135.526 -91.4003 149.793 -73.1858 151.623C-60.6479 153.009 -49.6157 147.554 -37.9919 158.037C-28.6586 166.508 -31.6186 178.298 -29.1968 189.082C-27.2094 197.59 -26.0432 200.941 -19.1083 206.169C-18.7187 206.403 -18.2816 206.029 -18.6554 205.593C-35.0473 190.866 -20.9045 163.853 -42.2279 152.206C-49.0707 148.412 -55.482 149.541 -62.7962 149.174C-86.1264 147.556 -96.5496 137.371 -106.106 118.695L-106.527 118.866ZM146.223 0.864733C146.223 0.864733 144.867 -0.056084 144.804 0.753955C143.987 21.6758 151.316 37.5286 141.499 58.7667C136.106 70.3666 129.532 78.8181 126.898 91.6521C121.773 115.498 127.317 138.546 140.428 158.721C140.428 158.721 140.833 158.753 140.631 158.737C124.11 132.591 123.296 106.448 132.867 80.5047C132.957 84.5865 134.715 88.1874 137.706 91.6808C143.517 98.2467 149.346 101.962 151.66 111.514C153.492 119.4 151.33 128.807 147.72 135.86C152.236 127.655 153.868 117.188 151.539 107.838C148.604 95.7913 131.063 90.551 133.947 77.1253C136.246 71.1925 139.153 65.3071 142.45 59.6558C155.7 36.2409 146.243 26.7417 146.02 0.848909L146.223 0.864733ZM194.65 15.4432C194.65 15.4432 194.057 15.1933 194.244 15.4116C194.206 36.8017 194.244 59.8277 181.592 78.1958C181.577 78.3983 181.95 78.8349 181.982 78.4299C195.866 59.9543 195.796 37.3333 194.665 15.2407L194.65 15.4432ZM341.531 137.949C341.967 108.848 369.879 98.8017 385.496 79.0352C385.496 79.0352 385.918 78.8643 385.933 78.6618C385.933 78.6618 385.949 78.4593 385.965 78.2568C386.418 77.6809 386.855 77.3075 387.105 76.7158C396.961 62.8156 402.112 43.862 407.041 27.7436C407.557 26.3577 405.172 25.5603 404.656 26.9462C399.558 39.9953 396.392 54.4177 390.297 67.1853C387.858 72.2923 384.875 76.5417 381.315 80.3387C362.808 90.1 329.384 76.6925 320.483 101.873C320.451 102.278 320.857 102.31 320.889 101.905C330.242 76.1483 360.141 90.2993 378.88 82.7973C374.008 87.7144 368.763 92.1948 363.284 97.0644C350.358 108.484 339.663 120.077 340.097 138.041C340.049 138.648 341.063 138.727 341.11 138.12L341.531 137.949Z" fill="url(#paint0_angular_102_296)"/>
<defs>
<radialGradient id="paint0_angular_102_296" cx="0" cy="0" r="1" gradientUnits="userSpaceOnUse" gradientTransform="translate(195.015 409.516) rotate(58.1331) scale(429.575 429.717)">
<stop offset="0.47" stop-color="#B76500"/>
<stop offset="1" stop-color="#D79004"/>
</radialGradient>
</defs>
</svg>
