<svg width="673" height="949" viewBox="0 0 673 949" fill="none" xmlns="http://www.w3.org/2000/svg">
<path style="mix-blend-mode:multiply" opacity="0.1" d="M-186.114 665.277C-205.998 680.932 -224.523 691.436 -246.905 699.248C-222.283 684.202 -207.331 661.231 -200.773 635.454C-196.603 618.811 -198.307 603.86 -197.76 587.652C-196.616 560.735 -182.161 541.071 -161.356 519.752C-160.843 519.314 -161.501 518.545 -162.032 519.221C-179.393 536.268 -196.553 553.809 -199.742 576.264C-202.488 596.125 -198.391 614.13 -203.333 634.537C-202.74 626.935 -206.557 620.663 -215.643 614.457C-222.005 610.136 -229.087 611.973 -236.199 608.072C-249.272 600.838 -249.66 587.424 -248.622 574.122C-247.157 555.356 -238.083 537.184 -225.333 520.972C-242.039 541.894 -253.153 567.793 -249.262 591.518C-247.644 601.443 -244.263 604.097 -236.786 609.46C-228.395 615.373 -213.45 617.018 -207.697 626.071C-204.921 630.35 -206.963 641.184 -207.957 647.798C-207.976 648.036 -207.995 648.274 -207.519 648.311C-215.59 668.951 -229.659 686.733 -249.888 700.688C-256.275 702.819 -263.376 704.893 -270.695 706.712L-271.409 706.656C-276.733 707.436 -281.619 708.727 -286.981 709.982C-288.445 710.345 -288.538 711.533 -288.136 712.52C-295.363 713.151 -302.627 714.257 -310.058 717.501C-311.54 718.102 -311.707 720.24 -309.786 720.151C-284.94 717.55 -261.669 716.737 -239.595 706.75C-222.686 701.617 -206.1 691.44 -191.087 679.945C-180.308 676.724 -170.447 676.059 -158.43 678.431C-147.127 680.748 -137.216 685.584 -125.363 686.987C-98.5832 690.273 -71.6303 685.207 -44.7451 674.878C-44.251 674.678 -44.4146 673.709 -44.9273 674.147C-90.1487 689.497 -123.565 682.348 -163.637 671.572C-168.557 670.232 -172.819 669.661 -176.898 669.82C-171.991 665.184 -167.083 660.549 -162.175 655.913C-150.877 646.04 -139.085 635.967 -127.349 626.607C-108.055 615.446 -88.2579 613.168 -64.4586 614.786C-42.3425 616.513 -23.21 619.679 -0.281231 614.06C0.688516 613.897 0.56197 612.453 -0.16998 612.635C-36.5643 619.115 -71.1446 605.422 -107.267 614.552C-109.463 615.097 -111.421 615.661 -113.398 616.463C-74.8406 588.404 -32.9452 569.687 14.8782 585.369C16.0487 585.7 17.1296 584.111 15.9777 583.543C-22.2592 567.653 -67.1468 578.728 -106.559 602.418C-131.162 617.227 -151.325 636.446 -172.876 655.078C-175.44 657.268 -178.003 659.457 -180.567 661.647C-168.33 645.873 -163.023 626.929 -154.331 607.532C-150.591 599.459 -146.412 591.899 -141.575 585.107C-130.11 573.096 -117.713 561.397 -100.606 559.865C-89.2806 558.837 -81.819 561.331 -71.4482 563.336C-56.3583 566.186 -41.3733 564.249 -26.0544 558.036C-24.5719 557.435 -25.1555 555.716 -26.6195 556.08C-44.8291 562.545 -59.5023 563.551 -76.6768 559.82C-84.1939 558.039 -91.6925 556.02 -100.108 556.558C-112.147 557.53 -122.435 563.657 -131.188 571.578C-97.1393 533.846 -45.0924 516.878 6.22482 515.386C6.93823 515.442 6.7746 514.473 6.29899 514.436C-35.7776 514.02 -79.6955 524.931 -115.618 552.957C-131.676 565.565 -144.827 580.79 -153.59 598.03C-165.45 621.242 -169.099 646.53 -186.17 665.99L-186.114 665.277ZM18.216 910.419C8.26107 930.674 -7.19738 947.869 -33.1684 958.748C-33.9004 958.93 -33.2611 959.935 -32.7669 959.735C-4.45489 949.517 11.8467 930.715 22.2434 907.866C26.441 900.068 29.7059 891.958 35.2746 884.984C44.2687 873.976 57.0611 869.477 68.467 861.286C80.8613 852.694 86.5631 840.95 91.9376 827.269C91.9747 826.794 91.4991 826.757 91.2242 827.214C83.5949 845.259 74.8944 855.574 58.0156 866.445C52.725 869.856 46.7765 872.498 41.6866 876.403C34.0332 882.497 30.092 890.076 26.3515 898.149C33.5979 878.878 37.6448 857.685 41.6917 836.492C50.9953 809.256 77.7354 797.721 98.2805 779.727C117.704 766.904 140.463 766.529 161.801 759.83C180.248 753.384 198.772 761.282 217.112 753.154C233.95 745.865 247.284 731.371 256.173 715.575C256.448 715.118 255.772 714.587 255.497 715.044C243.272 736.794 222.838 753.362 197.516 755.926C187.142 757.028 177.209 755.536 167.456 757.882C170.402 756.917 173.13 755.696 176.113 754.256C198.773 742.88 210.541 720.855 221.102 698.976C221.139 698.5 220.7 697.988 220.425 698.445C211.518 714.479 202.699 732.432 188.381 744.22C173.806 756.227 156.826 759.203 139.058 763.074C124.95 766.035 112.963 769.402 101.632 776.643C102.401 775.986 103.188 775.091 103.957 774.434C116.41 762.023 126.158 747.488 134.078 731.855C149.111 701.721 158.976 679.548 187.536 660.029C198.154 652.732 205.952 647.844 213.739 636.98C214.27 636.304 213.356 635.755 212.843 636.193C196.634 653.808 173.282 661.784 157.969 680.186C141.85 699.72 136.644 726.559 123.03 747.722C103.386 778.692 57.5589 795.668 42.9985 828.946C46.548 811.06 50.3167 793.429 56.5715 777.666C72.4573 736.605 115.066 717.944 129.287 676.752C140.37 645.114 136.564 611.12 133.122 578.587C133.14 578.349 132.646 578.55 132.646 578.55C137.681 627.458 140.594 675.962 104.13 713.983C99.4417 718.875 94.7903 723.292 90.3768 727.727C97.1716 720.371 100.035 711.273 98.6921 700.892C97.4048 689.798 94.5608 680.255 94.9753 668.816C95.2228 659.515 96.8786 650.562 97.8396 641.317C97.8767 640.841 96.944 640.53 96.8884 641.242C94.0403 653.209 92.1063 665.724 92.8067 678.206C93.9207 697.652 102.666 714.347 86.7693 731.03C86.7693 731.03 88.0511 729.935 88.5638 729.497C76.1292 741.671 64.7015 753.207 56.3773 770.959C45.1374 795.415 40.772 823.753 35.2732 851.286C35.0864 819.964 23.8862 788.737 30.9078 757.022C39.823 716.372 65.928 682.322 63.5397 639.356C63.5953 638.644 62.4063 638.551 62.5885 639.282C63.5653 685.006 35.2087 720.314 27.992 763.725C27.9799 757.749 26.4669 752.612 24.0582 746.688C17.4158 730.635 16.5485 720.291 20.4809 703.63C24.506 685.781 25.4178 671.034 16.91 654.358C16.7093 653.864 15.9588 654.283 16.1595 654.777C26.0876 677.778 17.8005 695.056 15.7641 718.079C14.3549 736.132 27.6591 749.598 27.7324 767.05C23.6758 797.564 34.9872 827.365 34.3155 857.425C30.5097 875.53 26.0275 893.105 18.5836 908.775C21.1925 863.093 -1.885 818.512 13.3647 773.338C13.4018 772.863 12.7069 772.569 12.6513 773.282C-5.43361 817.996 20.3493 864.7 17.9782 910.401L18.216 910.419ZM-134.831 293.346C-133.348 292.745 -131.628 292.162 -129.926 291.817C-130.164 291.799 -130.64 291.762 -130.896 291.981C-132.122 292.363 -133.605 292.964 -134.831 293.346ZM-71.4007 289.933C-61.5764 289.744 -52.0609 287.38 -43.237 281.616C-36.4268 277.128 -31.6641 271.286 -26.4073 265.244C-17.2126 254.729 -6.59428 247.432 6.69234 242.734C6.93015 242.752 6.74797 242.021 6.72943 242.259C-6.70229 245.751 -16.0389 251.953 -25.2151 262.23C-39.1169 277.874 -52.447 289.262 -73.2846 289.547C-80.3632 288.277 -87.7167 287.464 -95.3265 286.87C-107.93 285.887 -119.129 288.358 -129.689 291.836C-110.84 286.376 -90.2431 289.179 -71.6417 293.021C-25.2387 302.379 11.5714 318.158 59.1894 302.756C60.1777 302.355 59.7948 301.13 58.8251 301.293C9.19659 314.866 -27.0452 297.936 -70.9436 290.208L-71.4007 289.933ZM-283.191 269.099C-272.525 304.107 -251.942 319.337 -225.348 324.997C-204.913 342.127 -227.997 374.262 -212.47 396.027C-202.532 409.708 -187.318 417.11 -172.436 425.68C-169.585 429.01 -168.18 432.465 -167.748 439.191C-167.205 444.491 -167.758 448.511 -167.653 453.299C-167.474 457.136 -167.496 460.481 -166.11 464.174C-161.567 476.478 -148.42 482.762 -137.358 488.166C-137.12 488.185 -136.607 487.747 -137.083 487.71C-151.564 480.127 -163.281 470.847 -164.543 453.302C-164.867 448.258 -163.27 443.125 -164.07 438.044C-164.706 433.931 -166.367 430.695 -168.541 427.896C-158.705 433.683 -149.656 440.364 -143.007 450.204C-143.026 450.441 -142.294 450.259 -142.513 450.003C-151.244 436.177 -162.667 426.204 -176.342 417.489C-185.465 411.758 -197.133 407.979 -204.9 400.203C-227.945 376.656 -212.678 368.049 -210.663 348.37C-209.647 338.412 -212.219 331.519 -217.337 326.579C-214.483 326.801 -211.885 327.243 -208.794 327.485C-178.312 341.574 -169.218 375.265 -133.205 382.856C-128.578 384.89 -123.952 386.924 -119.582 389.177C-106.033 396.449 -107.692 408.508 -104.32 420.482C-100.365 434.174 -85.8095 440.807 -73.4653 445.116C-72.0755 445.703 -71.1767 443.383 -72.5664 442.797C-78.564 439.938 -87.196 437.114 -91.5998 432.229C-97.7764 425.533 -99.4684 416.558 -100.997 408.552C-101.833 403.946 -102.031 400.346 -104.826 396.304C-108.698 390.744 -114.878 387.155 -121.37 384.497C-112.827 385.403 -104.01 385.852 -95.4859 386.995C-61.3158 390.619 -40.9701 405.829 -20.0319 431.841C-19.1548 432.865 -17.6538 432.026 -18.2745 430.783C-42.097 398.811 -64.6233 387.015 -103.732 382.289C-115.585 380.886 -127.75 380.414 -139.217 377.129C-140.15 376.817 -141.064 376.268 -141.759 375.975C-141.997 375.956 -142.235 375.937 -142.473 375.919C-145.033 375.002 -147.831 374.067 -150.373 372.912C-166.061 365.474 -172.651 351.815 -183.67 339.722C-188.293 334.582 -192.277 330.447 -196.61 327.719C-185.853 327.841 -174.803 327.27 -163.258 326.498C-137.754 324.665 -115.49 324.491 -93.1487 338.663C-79.4736 347.378 -69.2237 360.127 -55.5301 368.605C-29.7519 384.718 -1.49548 375.213 27.1833 381.753C27.8967 381.809 28.2087 380.877 27.2574 380.803C-8.16938 371.824 -38.3097 380.943 -69.5849 355.558C-80.8448 346.554 -90.4215 337.441 -102.38 331.25C-86.357 334.413 -71.1091 326.043 -54.9349 324.199C-28.8623 321.215 -14.7311 348.608 9.44779 354.558C10.6368 354.651 10.9859 353.244 9.83396 352.676C-6.69804 346.845 -14.7181 336.181 -28.5939 326.972C-33.5846 323.476 -38.4488 321.423 -44.8696 320.922C-66.7108 318.739 -85.8258 333.737 -108.158 328.648C-108.396 328.63 -108.634 328.611 -108.634 328.611C-111.87 327.164 -115.363 325.935 -119.131 325.163C-142.158 319.78 -166.146 323.644 -189.343 323.506C-195.325 323.517 -200.795 323.09 -206.027 322.682C-193.769 321.966 -182.039 318.818 -170.086 312.821C-158.39 307.042 -149.381 298.902 -137.264 293.873C-162.192 303.638 -184.015 319.62 -212.172 321.724C-244.072 316.605 -263.538 299.312 -282.166 268.223C-282.586 267.473 -284.068 268.075 -283.648 268.824L-283.191 269.099ZM291.522 186.1C309.551 142.099 276.679 121.847 246.809 99.9185C246.426 98.6936 245.512 98.1443 244.542 98.3076C225.987 84.6707 209.19 69.976 207.035 48.5376C207.422 28.2535 208.853 6.85596 218.625 4.27286C220.089 3.90915 219.818 1.25904 218.134 1.36664C209.243 1.86754 208.943 8.77488 206.611 17.1965C204.921 23.5174 203.726 29.6379 202.987 36.033C202.969 36.2705 202.95 36.5081 202.913 36.9832C202.876 37.4583 202.82 38.1709 202.783 38.646C202.672 40.0712 202.542 41.7341 202.412 43.3969C199.635 57.5196 186.917 61.0676 179.989 73.1934C174.179 83.2555 175.136 95.5188 166.985 104.92C158.047 115.216 141.539 121.336 130.809 130.058C120.849 138.124 112.917 147.781 105.405 158.188C105.405 158.188 105.368 158.663 105.643 158.207C114.4 147.18 124.178 138.383 134.852 130.374C132.486 136.164 132.881 143.365 133.294 150.328C133.565 171.38 125.479 189.151 108.452 201.923C108.452 201.923 108.415 202.398 108.433 202.16C118.777 195.32 126.671 186.137 130.946 174.282C136.669 159.195 130.034 136.929 141.718 125.174C146.02 122.164 150.304 119.392 154.825 116.638C162.88 111.531 168.702 107.444 174.326 99.7574C175.5 96.9812 176.436 94.1863 177.628 91.1725C180.381 83.5006 183.59 76.1034 187.275 68.7433C191.03 63.5397 197.016 60.422 200.772 55.2184L201.303 54.5429C200.357 66.6576 199.887 78.8095 197.021 91.0133C194.726 98.9599 190.988 103.926 182.473 111.865C181.173 113.197 178.977 113.743 177.658 115.313C174.233 119.347 171.814 122.744 169.742 127.84C160.716 151.512 164.35 175.456 145.102 195.224C144.846 195.443 145.047 195.936 145.541 195.736C156.051 186.758 160.215 176.328 163.464 165.349C163.924 180.92 166.653 194.994 170.46 210.587C175.379 230.329 170.153 242.11 154.352 254.499C147.999 259.261 142.14 263.822 136.445 269.352C136.426 269.59 136.389 270.065 136.902 269.627C150.087 257.034 171.719 249.641 174.996 229.104C176.489 219.183 172.712 209.329 170.325 200.061C166.827 186.643 164.773 173.099 165.135 159.266C166.899 151.995 168.444 144.468 170.958 136.777C175.913 122.346 186.624 113.862 193.953 102.723C187.621 122.543 181.4 140.938 185.97 162.087C194.035 199.76 236.931 238.718 201.255 275.845C201.255 275.845 201.218 276.32 201.493 275.864C231.69 247.63 210.23 212.974 198.097 181.436C184.979 147.192 193.875 125.183 201.956 95.2224C200.676 111.613 198.06 129.811 206.407 142.412C212.818 152.233 223.936 156.925 234.266 162.511C231.53 173.052 236.168 181.062 242.159 190.133C253.064 206.758 258.918 223.705 253.775 243.618C253.757 243.856 254.232 243.893 254.251 243.655C257.72 232.932 258.81 222.024 256.078 211.056C252.233 195.939 234.321 180.201 237.923 164.709C240.885 166.613 243.847 168.517 246.533 170.877C266.2 188.664 272.39 216.631 279.829 240.872C279.993 241.841 281.237 241.221 281.055 240.49C275.232 210.878 265.696 179.782 239.591 161.732L238.677 161.183C238.807 159.52 237.198 158.677 235.953 159.297C219.81 148.477 206.373 139.781 204.623 116.223C203.756 105.879 205.192 96.67 204.288 86.8007C204.399 85.3755 204.986 83.9873 205.335 82.5806C206.382 78.3605 206.444 71.4346 206.837 63.3395C213.204 79.849 227.571 91.9641 242.744 102.947C245.409 108.652 243.92 115.466 245.359 121.554C246.233 125.685 248.095 129.415 249.957 133.145C254.978 142.38 262.6 148.949 269.416 156.651C263.845 148.33 257.029 140.628 251.971 131.868C247.132 123.365 248.238 115.325 247.46 106.9C276.033 127.055 305.193 145.821 290.57 186.026C290.552 186.263 291.009 186.538 291.046 186.063L291.522 186.1ZM591.422 763.97C596.314 756.465 590.903 752.219 585.459 745.341C581.549 740.256 577.127 735.609 572.429 731.418C572.448 731.181 572.229 730.925 571.772 730.65C571.315 730.375 570.876 729.863 570.419 729.589C569.304 728.546 568.189 727.503 567.074 726.46C557.133 715.885 561.921 703.592 556.226 690.72C551.554 680.079 541.06 673.524 538.402 661.606C535.379 648.225 540.281 631.4 539.435 617.712C538.753 604.992 535.638 592.799 531.809 580.551C531.809 580.551 531.333 580.514 531.571 580.532C535.289 594.206 536.665 607.219 536.816 620.614C533.657 615.11 527.477 611.521 521.829 607.256C504.59 595.156 494.93 577.911 494.678 556.621L494.44 556.603C493.952 568.992 496.629 580.673 503.46 591.244C512.208 604.832 534.099 612.515 536.643 628.965C536.491 633.972 536.321 639.217 535.895 644.681C535.153 654.182 535.072 661.346 537.972 670.176C539.689 672.7 541.168 675.205 542.885 677.729C547.378 684.533 551.378 691.536 555.358 698.778C557.273 704.902 556.278 711.516 558.192 717.641L558.137 718.353C549.181 710.484 539.731 702.816 531.38 693.321C526.393 686.718 524.46 680.832 523.209 669.262C523.12 667.343 523.524 665.224 523.179 663.524C522.141 658.424 520.554 654.238 517.778 649.958C504.134 628.579 482.503 617.57 477.94 590.207C477.977 589.732 477.227 590.152 477.464 590.17C478.548 603.877 484.264 613.405 491.444 622.569C478.72 613.929 465.592 607.407 450.761 601.23C431.981 593.551 425.443 582.286 424.842 562.403C424.741 554.508 424.602 547.088 423.311 539.101C423.349 538.626 422.598 539.045 422.836 539.064C425.012 557.158 418.294 578.86 432.932 593.625C440.042 600.633 450.1 603.569 459.152 607.143C472.154 612.221 484.094 618.65 495.153 627.161C499.977 632.795 505.039 638.448 509.77 645.27C518.593 657.908 518.963 671.56 523.743 683.883C511.43 666.909 500.214 651.216 480.575 642.274C445.43 626.625 388.559 637.96 379.83 587.329C379.83 587.329 379.355 587.292 379.593 587.31C384.526 628.324 425.191 631.498 457.745 640.492C493.354 650.203 505.645 670.52 525.049 694.739C512.73 683.979 499.388 670.988 484.369 670.294C472.698 669.621 462.392 675.987 451.721 680.89C444.961 672.475 435.705 671.514 424.747 670.897C404.972 669.832 387.69 664.42 374.809 648.597C374.809 648.597 374.333 648.56 374.552 648.816C381.019 657.924 389.299 665.262 399.722 669.661C414.333 675.581 437.462 670.456 448.006 682.511C444.784 683.933 441.344 685.098 437.94 685.789C411.92 691.166 385.79 679.567 361.558 671.223C360.607 671.148 360.295 672.08 360.971 672.611C388.217 685.253 419.178 696.274 448.935 685.93L449.923 685.529C451.038 686.572 452.777 685.752 453.126 684.345C471.336 677.88 486.38 672.123 506.454 684.684C515.357 690.159 522.028 696.654 530.237 701.836C531.114 702.86 531.972 704.122 533.087 705.165C535.938 708.495 541.348 712.741 547.911 717.555C530.811 712.874 512.768 717.202 494.614 722.954C488.487 721.759 483.863 716.618 478.085 714.016C474.373 712.532 470.148 711.485 466.124 710.932C455.698 709.64 445.963 711.748 435.845 712.631C445.851 713.173 456.226 712.071 465.939 713.307C475.652 714.543 481.445 720.014 488.758 724.409C455.597 735.443 423.276 747.977 399.494 712.423C399.513 712.185 398.781 712.367 399 712.623C423.838 753.039 459.655 738.628 494.975 727.523C496.127 728.091 497.115 727.69 497.684 726.54C519.754 719.659 541.438 714.66 559.94 725.903C576.209 738.166 592.349 752.093 588.735 761.609C588.129 763.235 590.433 764.371 591.258 763.001L591.422 763.97ZM-5.9176 54.858C-6.70196 52.6458 -9.90473 53.8298 -9.33963 55.7858C-4.32483 71.2337 4.50793 74.5521 15.0883 86.1326C43.0833 116.758 38.5107 150.816 42.0389 188.374C45.0609 220.157 50.6246 253.094 79.346 271.348C80.0409 271.641 80.5907 270.728 80.1521 270.216C42.5674 242.905 45.1086 191.959 41.7876 148.682C43.628 155.756 45.9439 162.868 49.029 169.322C54.9797 181.975 65.7084 191.655 70.4145 204.928C77.31 223.869 74.0692 243.93 88.652 259.408C89.3098 260.176 90.3537 259.063 89.9337 258.313C77.3494 238.689 80.3 216.215 70.3871 196.083C66.6629 188.623 60.8878 182.914 56.3945 176.111C49.5634 165.54 45.1846 154.205 41.3371 142.194C40.8832 138.812 40.6858 135.212 40.2134 132.068C38.5246 119.987 36.598 107.887 30.224 97.5907C20.4716 81.534 0.301571 73.2678 -5.64272 54.4014L-5.9176 54.858ZM-116.32 120.567C-117.814 115.192 -126.397 117.868 -124.408 123.042C-119.427 135.858 -111.277 144.859 -100.49 150.72C-97.4386 154.543 -93.8562 157.691 -90.2923 161.076C-85.3146 176.999 -79.438 190.602 -83.4075 207.739C-85.1713 215.01 -88.8005 221.657 -88.9183 229.296C-88.9683 242.197 -80.8555 251.673 -69.2618 256.402C-68.7862 256.439 -68.5113 255.983 -68.9684 255.708C-86.7047 246.915 -87.09 230.394 -81.4744 213.625C-79.584 207.798 -77.7492 202.683 -77.2671 196.507C-76.7076 186.274 -78.9647 175.344 -84.4987 166.547L-83.8409 167.315C-74.3198 177.14 -69.1905 188.056 -64.191 200.635C-59.9758 211.002 -56.6006 219.869 -44.528 221.528C-63.3857 217.905 -63.9805 191.809 -72.9486 177.964C-79.1404 168.399 -88.4084 161.462 -95.882 152.992C-91.4749 154.77 -86.8114 156.329 -81.8731 157.431C-68.4479 160.152 -53.5893 156.771 -40.4761 160.424C-14.963 167.673 -5.78864 194.2 0.572378 216.923C-4.16433 197.912 -9.96024 177.145 -26.7236 165.082C-56.6308 143.628 -103.638 169.594 -116.338 120.804L-116.32 120.567ZM439.695 862.54C433.963 850.143 425.301 841.581 414.238 836.176C410.931 832.572 407.349 829.425 403.51 826.496C397.781 810.992 390.917 797.79 393.953 780.342C395.242 773.033 398.652 766.13 398.294 758.454C397.63 745.497 389.005 736.459 377.356 732.443C376.88 732.406 376.605 732.862 377.3 733.155C395.586 741.035 396.941 757.393 392.258 774.474C390.606 780.319 388.99 785.69 389.221 791.922C389.394 801.973 392.127 812.941 398.173 821.3C397.935 821.281 397.735 820.787 397.515 820.531C387.482 811.144 381.84 800.666 376.09 788.507C371.38 778.341 367.254 769.893 355.383 768.727C374.315 771.4 376.593 797.389 386.092 810.558C392.778 819.923 402.339 826.166 410.326 834.198C405.9 832.657 401.218 831.336 396.005 830.69C382.286 828.663 367.829 833.031 354.66 830.092C328.798 824.249 318.141 798.323 310.554 775.983C316.279 794.593 323.282 815.215 340.596 826.365C371.602 845.993 417.13 817.521 432.758 865.584C434.509 870.739 442.891 867.57 440.628 862.852L439.695 862.54ZM502.307 415.973C502.712 413.853 503.573 412.009 504.435 410.164C503.573 412.009 502.712 413.853 501.594 415.917C501.557 416.392 502.251 416.685 502.307 415.973ZM504.435 410.164C506.122 406.95 507.79 403.973 509.695 401.015C507.552 403.955 505.884 406.931 504.435 410.164ZM490.666 491.541C520.946 471.44 538.301 442.204 540.882 406.078C542.143 389.925 540.531 373.787 539.652 357.467C538.18 330.346 541.696 309.828 548.547 283.357C554.153 275.908 560.29 267.783 566.792 261.121C568.512 260.538 570.251 259.718 571.733 259.117C573.216 258.516 572.87 256.816 571.974 256.029C580.233 248.309 588.983 243.495 597.964 244.913C600.799 245.373 601.151 240.86 598.316 240.4C583.665 238.061 576.759 246.843 567.107 257.083C562.934 258.43 558.506 259.996 554.333 261.343C554.389 260.631 553.712 260.1 552.98 260.282C527.744 267.872 505.885 265.926 482.444 253.581C470.943 247.664 460.817 239.465 448.179 235.85C428.518 230.252 407.659 233.882 390.981 245.247C412.088 232.316 436.731 232.327 458.161 242.843C469.918 248.54 480.063 256.502 492.114 261.506C504.421 266.29 517.809 269.486 530.799 268.588C516.342 272.956 501.539 275.625 486.412 273.249C464.426 269.86 444.842 260.206 422.359 260.123C421.883 260.086 421.827 260.799 422.303 260.836C448.517 262.165 471.041 277.068 496.742 278.835C518.145 280.506 540.913 270.812 561.412 262.613C552.51 272.434 544.341 282.073 535.952 291.456C515.009 305.355 491.914 313.112 466.974 316.901C441.065 320.854 424.558 308.571 401.386 301.983C376.587 294.789 354.687 296.426 329.454 300.909C328.741 300.853 328.886 302.059 329.618 301.877C369.854 295.22 386 302.933 422.958 316.811C434.808 321.321 443.44 324.146 456.668 323.266C478.055 322.068 500.728 316.668 520.624 306.988C520.074 307.902 519.524 308.815 518.993 309.49C502.969 324.73 484.515 337.39 459.592 344.048C432.947 351.289 405.309 346.741 378.32 352.282L378.795 352.32C378.795 352.32 378.761 349.688 377.754 350.326C351.508 361.661 323.093 348.688 295.605 357.536C276.957 363.49 259.603 374.323 246.288 388.58C245.775 389.018 246.433 389.786 246.946 389.348C272.688 369.131 297.715 351.965 332.067 356.32C341.067 357.5 349.078 359.082 356.506 358.944C334.506 367.982 315.191 382.486 297.867 399.059C297.867 399.059 297.83 399.534 298.086 399.315C331.813 371.834 363.297 354.695 407.116 351.184C429.748 349.366 450.879 348.387 472.767 340.775C487.28 335.694 500.001 329.039 511.663 320.629C501.53 337.045 492.054 354.23 479.233 368.285C469.288 379.22 457.993 385.986 445.877 391.015C427.47 393.88 403.569 384.366 385.437 386.775C366.097 389.328 349.898 397.623 335.724 410.617C335.724 410.617 335.687 411.092 336.181 410.892C360.568 392.72 389.501 383.746 419.662 389.685C426.96 391.211 433.526 392.918 439.965 393.182C426.422 398.1 412.296 401.299 397.82 405.905C373.773 413.587 353.896 423.029 343.901 446.865C343.863 447.34 344.32 447.615 344.595 447.158C371.72 400.044 423.188 411.948 463.407 387.125C468.679 383.952 473.293 380.01 477.707 375.575C467.819 401.092 473.535 429.022 446.365 449.128C422.747 466.642 390.977 459.861 368.087 480.3C367.831 480.519 368.032 481.013 368.526 480.812C395.331 459.245 435.258 468.814 459.049 442.948C479.69 420.66 471.983 390.663 486.552 366.467C486.552 366.467 486.571 366.229 486.59 365.992C499.265 350.73 509.09 332.138 518.529 315.429C523.125 311.725 527.502 307.764 531.915 303.329C533.728 301.559 535.56 299.551 537.428 297.068C538.435 296.429 539.461 295.553 540.486 294.677C533.459 314.204 535.264 337.049 536.323 357.207C537.15 371.133 537.538 384.547 536.775 397.393C536.775 397.393 536.775 397.393 536.537 397.374C529.01 404.913 518.469 408.153 510.485 415.416C508.178 417.387 506.328 419.633 504.478 421.878C507.903 417.844 512.005 414.34 516.289 411.567C523.117 406.843 531.225 404.13 536.975 397.887C534.908 433.574 524.282 465.486 490.32 489.841C489.808 490.279 490.246 490.792 490.978 490.61L490.666 491.541ZM-72.2417 745.146C-83.904 753.556 -84.1548 765.964 -82.0831 779.271C-78.6838 800.089 -74.0551 817.419 -81.5022 836.196C-89.4894 846.566 -99.9627 855.069 -114.092 861.375C-126.246 866.879 -136.768 869.882 -147.004 878.403C-148.798 879.936 -146.368 882.516 -144.592 881.221C-127.234 867.28 -107.014 862.645 -90.5181 850.549C-90.2803 850.567 -89.8232 850.842 -89.5668 850.623C-75.1774 840.992 -59.8159 846.493 -44.3519 841.486C-32.8227 837.845 -25.3853 828.388 -18.1857 818.912C-17.9108 818.456 -18.6057 818.162 -18.862 818.381C-26.2994 827.838 -34.231 837.496 -46.6373 840.112C-53.2064 841.512 -60.3221 840.717 -67.0178 840.673C-71.811 840.776 -76.1472 841.155 -80.3197 842.502C-78.4511 840.019 -77.0581 837.499 -75.8843 834.723C-74.8219 833.372 -73.7408 831.783 -72.8976 830.176C-72.6227 829.719 -72.3293 829.025 -72.0544 828.569C-71.8537 829.062 -71.1403 829.118 -70.8654 828.662C-57.3094 811.317 -36.7096 811.013 -26.3161 791.271C-18.7272 776.807 -14.4119 761.371 -12.1998 745.292C-16.3732 765.042 -23.2093 794.382 -41.5706 805.854C-53.1587 813.314 -63.0386 814.216 -70.6243 825.574C-54.949 793.338 -59.6662 755.687 -31.2267 728.511C-31.2267 728.511 -31.1896 728.036 -31.446 728.255C-53.2728 747.344 -56.0782 771.024 -63.4238 797.696C-66.068 807.049 -69.1136 815.415 -73.0548 822.994C-71.5093 797.065 -90.869 766.157 -71.3276 745.696C-70.8149 745.258 -71.2534 744.745 -71.9854 744.927L-72.2417 745.146ZM-186.558 775.178C-201.367 784.06 -220.633 785.663 -237.175 789.152C-238.145 789.315 -237.799 791.015 -236.829 790.852C-221.461 790.139 -205.744 788.02 -191.833 781.458C-191.87 781.933 -191.194 782.464 -190.681 782.026C-175.356 769.6 -157.743 773.843 -140.704 767.047C-130.583 763.057 -123.788 755.701 -118.509 746.314C-118.216 745.62 -119.149 745.309 -119.424 745.765C-131.006 765.414 -148.057 766.234 -168.404 769.426C-170.819 769.715 -173.015 770.261 -175.211 770.806C-150.326 749.328 -143.055 723.606 -104.743 720.144C-104.267 720.181 -104.45 719.45 -104.706 719.669C-120.843 721.038 -135.776 725.369 -148.337 736.099C-162.18 747.924 -170.229 765.22 -186.302 774.959L-186.558 775.178ZM-303.631 466.583C-304.82 466.491 -304.712 468.172 -303.779 468.484C-294.709 471.821 -286.827 475.065 -278.322 476.446C-278.34 476.683 -278.359 476.921 -277.902 477.196C-267.117 486.163 -251.774 491.902 -237.595 491.096C-228.228 490.633 -219.315 486.788 -209.929 486.086C-196.939 485.188 -185.491 488.711 -173.641 493.221C-173.165 493.258 -172.89 492.801 -173.347 492.527C-185.595 483.923 -200.466 481.328 -215.213 483.284C-226.813 484.768 -237.923 489.159 -249.665 486.33C-256.944 484.567 -263.325 480.484 -269.779 477.352C-265.48 477.448 -261.125 476.832 -256.477 475.522C-231.022 468.188 -213.029 458.36 -185.851 465.74C-185.137 465.795 -184.588 464.882 -185.264 464.351C-201.465 457.351 -217.51 457.533 -233.999 463.415C-246.041 467.494 -258.58 474.88 -271.715 474.572C-283.186 474.393 -292.472 467.694 -303.631 466.583ZM321.821 269.961C330.157 258.184 339.828 247.706 351.471 239.534C356.03 236.305 361.466 234.1 365.366 230.103C373.406 222.126 374.627 209.555 379.229 199.638C384.739 196.483 389.829 192.579 393.804 187.631C408.824 169.923 413.97 146.904 417.634 124.485C417.441 151.476 435.303 180.116 416.178 204.434C415.904 204.891 416.342 205.403 416.855 204.965C443.247 176.434 409.792 136.062 424.297 103.496C424.847 102.583 423.237 101.741 422.688 102.654C420.745 106.087 419.497 109.813 418.506 113.321C417.903 111.84 415.287 111.636 414.901 113.518C412.711 126.252 410.941 139.736 407.067 152.579C399.466 161.067 392.705 171.055 383.551 177.988C371.833 187.111 359.612 187.352 345.779 189.857C331.946 192.362 320.432 198.872 309.683 207.832C309.683 207.832 309.646 208.307 309.921 207.85C323.508 196.244 337.857 190.195 355.421 188.937C362.154 188.506 368.117 188.733 374.523 186.365C387.371 181.154 396.989 168.282 405.288 156.981C404.003 161.182 402.261 165.109 400.281 169.017C388.658 192.248 369.349 200.54 347.276 210.527C332.633 217.271 323.241 224.185 318.907 239.86C318.888 240.097 319.108 240.353 319.383 239.897C329.56 216.792 355.287 212.108 376.045 200.584C374.414 203.086 373.24 205.862 372.048 208.876C367.297 220.694 362.643 228.217 352.043 235.276C338.66 244.269 328.459 255.423 320.212 269.118C319.918 269.812 320.851 270.124 321.126 269.668L321.821 269.961ZM191.784 814.032C191.963 817.87 192.636 821.507 193.822 824.707C192.892 821.288 192.219 817.651 191.784 814.032ZM191.763 798.974C191.355 804.2 191.441 809.225 191.784 814.032C191.423 809.463 191.556 804.693 192.476 799.029C192.513 798.554 191.8 798.499 191.763 798.974ZM276.385 928.66C276.385 928.66 277.5 929.703 278.251 929.284C278.232 929.521 278.195 929.996 278.177 930.234C278.729 944.616 280.257 952.622 289.191 963.835C290.927 966.122 294.698 963.787 292.962 961.501C275.075 939.312 289.757 895.289 279.925 867.993C267.739 834.061 241.885 803.603 259.907 765.815C259.945 765.34 259.487 765.066 259.213 765.522C247.003 790.141 253.84 812.901 264.15 837.127C271.25 853.455 278.773 867.425 280.986 885.045C282.764 899.045 278.378 912.325 277.797 925.902C274.212 907.459 265.887 891.514 252.07 878.486C252.07 878.486 252.107 878.01 252.125 877.773C240.214 861.787 243.544 843.644 240.673 825.257C238.746 813.157 234.843 801.859 229.97 790.724C237.835 809.501 240.231 827.851 241.052 847.991C241.48 857.823 242.697 866.76 247.848 874.332C227.175 857.184 201.023 848.929 193.584 824.688C196.171 834.45 201.211 843.447 209.948 851.059C220.019 859.971 232.839 864.318 243.185 872.773C261.427 887.342 270.957 906.249 276.129 928.879L276.385 928.66ZM164.888 922.586L164.319 923.736C164.319 923.736 164.702 924.961 165.215 924.523C169.179 947.298 161.312 965.325 147.151 984.295C146.345 985.427 147.898 986.982 148.942 985.868C165.991 969.753 174.022 952.694 169.894 928.951C169.366 926.52 168.838 924.089 168.072 921.639C189.04 901.289 172.827 869.91 175.726 845.042C175.763 844.567 175.287 844.53 175.25 845.005C173.335 857.283 176.03 868.726 177.225 881.008C178.673 896.177 174.015 906.807 167.105 918.696C163.678 907.435 158.53 896.756 154.864 885.476C147.132 861.93 148.909 842.232 158.336 819.547C158.392 818.834 157.697 818.541 157.422 818.997C145.586 835.759 144.121 854.525 149.059 874.03C152.665 889.129 159.969 902.843 164.069 917.742C164.415 919.442 164.78 920.904 165.125 922.604L164.888 922.586ZM548.074 543.821C562.003 537.021 572.17 541.639 579.157 525.694C584.108 514.37 584.652 501.268 590.737 490.749C605.086 484.699 619.926 481.556 636.44 487.625C638.543 488.267 639.497 485.235 637.669 484.136C625.109 476.464 612.669 476.449 600.408 480.271C600.92 479.833 601.414 479.633 601.927 479.195C602.678 478.776 602.057 477.532 601.325 477.714C597.208 478.349 594.169 480.501 592.025 483.441C586.096 485.846 580.348 488.982 574.582 492.356C562.286 493.547 551.079 486.936 538.66 483.577C528.108 480.841 517.733 481.944 507.85 485.952C507.85 485.952 507.813 486.427 507.832 486.19C525.841 479.231 539.463 485.552 556.471 491.42C561.372 492.998 566.073 494.082 570.848 494.215C552.542 504.975 534.144 516.922 515.465 517.137C468.539 517.537 443.831 475.458 399.267 509.979C399.267 509.979 399.229 510.454 399.467 510.473C448.736 473.929 474.753 523.758 521.225 519.977C527.482 519.509 533.594 517.835 539.505 515.668C534.947 518.897 530.826 522.638 525.536 526.049C510.396 536.1 494.002 537.688 476.939 532.532C461.741 528 450.518 518.52 434.542 523.965C434.066 523.928 434.486 524.678 434.724 524.696C458.292 520.083 477.899 541.689 502.582 538.119C521.94 535.328 533.059 521.618 548.638 512.079C561.779 506.174 574.374 498.075 587.278 492.152C586.342 494.947 585.406 497.742 584.489 500.299C581.937 508.465 581.832 522.079 576.263 529.053C569.65 537.14 556.861 538.532 547.892 543.09C547.654 543.071 547.836 543.802 548.093 543.583L548.074 543.821ZM374.032 919.075C367.183 908.741 358.977 900.453 348.227 894.117C327.64 881.995 308.529 875.484 308.083 847.487C307.813 860.133 311.88 872.4 321.732 881.055C327.782 886.307 335.481 888.82 342.374 892.465C354.99 899.425 364.348 908.281 372.531 919.913C373.189 920.682 374.434 920.062 373.795 919.056L374.032 919.075ZM527.273 807.239C528.48 807.094 528.153 805.157 526.964 805.064C515.457 805.36 505.342 803.137 496.386 795.268C491.47 790.822 487.597 785.261 482.681 780.815C476.174 775.288 469.005 772.1 460.497 773.825C480.037 771.766 487.004 792.863 500.898 801.834C508.869 806.997 518.051 808.909 527.273 807.239ZM625.669 588.833C641.416 592.453 656.546 591.722 671.918 587.903C672.65 587.721 672.267 586.496 671.535 586.678C639.752 592.323 617.203 583.871 589.282 570.698C573.117 563.222 562.922 568.162 550.525 579.861C550.525 579.861 550.488 580.336 550.762 579.879C577.386 557.58 599.349 582.716 625.687 588.596L625.669 588.833ZM98.2315 896.829C99.5744 907.211 101.887 917.429 101.785 927.936C101.676 944.657 95.0413 956.089 84.7285 968.668C83.1532 970.456 85.6208 972.561 87.4152 971.028C125.303 936.225 82.5459 886.284 107.833 847.39C108.126 846.696 107.212 846.147 106.919 846.841C96.4203 861.795 96.2743 878.991 98.4878 896.61L98.2315 896.829ZM-262.003 178.502C-267.117 170.455 -271.045 165.608 -279.785 161.102C-280.937 160.534 -282.513 162.323 -281.141 163.147C-258.328 180.462 -253.62 209.031 -226.523 223.573C-224.676 224.434 -222.81 225.058 -221.201 225.901C-205.63 240.978 -187.536 257.446 -169.454 267.94C-150.915 278.707 -135.917 264.344 -116.725 263.691C-116.487 263.709 -116.45 263.234 -116.688 263.216C-124.316 262.859 -130.191 264.552 -137.291 266.626C-152.699 270.92 -163.144 269.866 -175.757 259.8C-187.912 250.008 -199.518 239.304 -211.655 229.275C-186.856 236.468 -159.776 232.846 -136.499 244.223C-161.545 227.928 -193.659 234.742 -220.886 221.862C-222.038 221.294 -222.714 220.764 -223.866 220.196C-224.305 219.684 -225 219.39 -225.438 218.878C-225.676 218.86 -226.152 218.822 -226.389 218.804C-243.082 208.897 -251.355 195.346 -262.003 178.502ZM-209.896 139.312C-209.896 139.312 -211.561 139.182 -211.141 139.932C-204.483 158.854 -192.152 175.59 -170.787 177.736C-156.08 179.362 -143.139 172.963 -129.504 185.26C-118.556 195.196 -122.028 209.026 -119.188 221.675C-116.856 231.656 -115.488 235.586 -107.354 241.718C-106.897 241.993 -106.384 241.555 -106.822 241.043C-126.05 223.768 -109.461 192.082 -134.473 178.419C-142.5 173.969 -150.02 175.294 -158.6 174.863C-185.966 172.966 -198.192 161.018 -209.402 139.112L-209.896 139.312ZM86.5802 0.896376C86.5802 0.896376 84.9896 -0.183742 84.9155 0.766435C83.9568 25.3077 92.5541 43.9032 81.0393 68.8154C74.7135 82.4222 67.0012 92.3358 63.9121 107.39C57.9006 135.361 64.4035 162.396 79.7826 186.062C79.7826 186.062 80.2582 186.099 80.0204 186.081C60.6421 155.411 59.6862 124.746 70.9141 94.3142C71.0189 99.1022 73.0817 103.326 76.59 107.424C83.4057 115.126 90.2433 119.483 92.9575 130.689C95.1065 139.938 92.5703 150.973 88.3357 159.246C93.6328 149.622 95.5483 137.344 92.8156 126.376C89.3727 112.245 68.798 106.099 72.1806 90.3501C74.8771 83.3909 78.2871 76.4873 82.1541 69.8584C97.6964 42.3926 86.6034 31.2501 86.3424 0.877816L86.5802 0.896376ZM143.385 17.997C143.385 17.997 142.69 17.7038 142.909 17.9599C142.865 43.0505 142.909 70.06 128.069 91.6058C128.05 91.8433 128.489 92.3555 128.526 91.8804C144.812 70.2085 144.73 43.6741 143.403 17.7594L143.385 17.997ZM315.677 161.696C316.189 127.56 348.929 115.777 367.248 92.5904C367.248 92.5904 367.742 92.39 367.761 92.1524C367.761 92.1524 367.779 91.9149 367.798 91.6773C368.329 91.0018 368.842 90.5639 369.135 89.8698C380.696 73.5648 386.738 51.3323 392.52 32.4253C393.126 30.7996 390.328 29.8643 389.722 31.4899C383.743 46.7966 380.029 63.7141 372.879 78.6904C370.019 84.6809 366.519 89.6656 362.344 94.1195C340.634 105.569 301.428 89.8425 290.987 119.379C290.95 119.855 291.426 119.892 291.463 119.417C302.435 89.2041 337.506 105.803 359.487 97.0034C353.773 102.771 347.62 108.027 341.193 113.739C326.031 127.134 313.486 140.733 313.994 161.804C313.938 162.516 315.128 162.609 315.183 161.897L315.677 161.696Z" fill="url(#paint0_angular_271_1150)"/>
<defs>
<radialGradient id="paint0_angular_271_1150" cx="0" cy="0" r="1" gradientUnits="userSpaceOnUse" gradientTransform="translate(143.813 480.244) rotate(58.1331) scale(503.892 504.058)">
<stop offset="0.47" stop-color="#B76500"/>
<stop offset="1" stop-color="#D79004"/>
</radialGradient>
</defs>
</svg>
